<?xml version="1.0" encoding="utf-8"?>
<!-- Generated by IcoMoon.io -->
<!DOCTYPE svg PUBLIC "-//W3C//DTD SVG 1.1//EN" "http://www.w3.org/Graphics/SVG/1.1/DTD/svg11.dtd">
<svg version="1.1" xmlns="http://www.w3.org/2000/svg" xmlns:xlink="http://www.w3.org/1999/xlink" width="100" height="100" viewBox="0 0 100 100">
<path d="M100 37.5c0-12.1-8.4-21.9-18.8-21.9-2.7 0-5.2 0.7-7.6 1.9-5-8.6-13.7-14.4-23.6-14.4s-18.6 5.8-23.6 14.4c-2.4-1.2-4.9-1.9-7.7-1.9-10.3 0-18.7 9.8-18.7 21.9 0 10.1 5.9 18.5 13.8 21-0.7 2.3-1.3 4.6-1.3 7.1 0 15.5 16.8 31.3 37.5 31.3s37.5-15.8 37.5-31.3c0-2.5-0.6-4.8-1.4-7.1 8-2.5 13.9-10.9 13.9-21zM6.2 37.5c0-8.6 5.6-15.6 12.5-15.6 1.8 0 3.6 0.5 5.1 1.3-1.2 3.5-1.9 7.2-1.9 11.2 0 3.9 0.7 7.6 1.9 11.1-2.9 2.1-5.2 4.6-7.1 7.4-5.9-1.2-10.5-7.6-10.5-15.4zM50 90.6c-17.3 0-31.3-12.9-31.3-25 0-7.3 5.2-13.7 13-17.6-2.3-4-3.6-8.6-3.6-13.6 0-10.2 5.3-18.9 12.9-22.8 4.3 1.9 9 5.1 9 10.3 0-5.6 4.4-8.9 8-10.8 8.1 3.7 13.9 12.7 13.9 23.3 0 5-1.4 9.6-3.6 13.6 7.8 3.9 12.9 10.3 12.9 17.6 0 12.1-13.9 25-31.2 25zM83.2 52.9c-1.8-2.8-4.1-5.3-7-7.4 1.2-3.5 1.9-7.2 1.9-11.1 0-4-0.7-7.7-1.9-11.2 1.5-0.8 3.2-1.3 5-1.3 6.9 0 12.5 7 12.5 15.6 0 7.8-4.5 14.2-10.5 15.4zM50 71.9c-10.4 0-18.8-5.6-18.8-12.5h-6.2c0 10.3 11.2 18.7 25 18.7s25-8.4 25-18.7h-6.3c0 6.9-8.4 12.5-18.7 12.5z"></path>
</svg>
