<?xml version="1.0" encoding="utf-8"?>
<!-- Generated by IcoMoon.io -->
<!DOCTYPE svg PUBLIC "-//W3C//DTD SVG 1.1//EN" "http://www.w3.org/Graphics/SVG/1.1/DTD/svg11.dtd">
<svg version="1.1" xmlns="http://www.w3.org/2000/svg" xmlns:xlink="http://www.w3.org/1999/xlink" width="100" height="100" viewBox="0 0 100 100">
<path d="M59.5 71.9c-3.4 0-6.2-2.8-6.2-6.3h-6.2c0 3.5-2.8 6.3-6.2 6.3s-6.2-2.8-6.2-6.3h-6.2c0 6.9 5.6 12.5 12.4 12.5 3.7 0 7-1.7 9.3-4.3 2.3 2.6 5.6 4.3 9.3 4.3 6.8 0 12.4-5.6 12.4-12.5h-6.2c0 3.5-2.8 6.3-6.2 6.3zM93.4 3.1c-10.2 4.5-21.1 8.2-27.7 10.3-4.8-2.5-10.1-4-15.6-4-5.8 0-11.1 1.6-16 4.2-6.7-2.1-17.4-5.7-27.5-10 0.1-0.1-0.7 5.4 0.2 8.9 2.1 7.8 6.3 19.8 8.3 25.2-1.6 4.8-2.5 10-2.5 15.4 0 24.2 16.7 43.8 37.5 43.8 20.7 0 37.5-19.6 37.5-43.8 0-5.5-1-10.6-2.6-15.4 2-5.6 6.2-17.7 8.2-25.6 0.9-3.5 0.1-9.1 0.2-9zM13 12.5l15.9 4.5c-4.4 3.6-8 8.2-10.8 13.5l-5.1-18zM50 90.6c-17.3 0-31.2-16.8-31.2-37.5s13.9-37.5 31.2-37.5c17.2 0 31.2 16.8 31.2 37.5s-14 37.5-31.2 37.5zM82 30.4c-2.8-5.3-6.5-10-11-13.6l16-4.7-5 18.3z"></path>
</svg>
