<?xml version="1.0" encoding="utf-8"?>
<!-- Generated by IcoMoon.io -->
<!DOCTYPE svg PUBLIC "-//W3C//DTD SVG 1.1//EN" "http://www.w3.org/Graphics/SVG/1.1/DTD/svg11.dtd">
<svg version="1.1" xmlns="http://www.w3.org/2000/svg" xmlns:xlink="http://www.w3.org/1999/xlink" width="100" height="100" viewBox="0 0 100 100">
<path d="M38.4 62.5c0 0 4.3 12.5 12.3 12.5s12.3-12.5 12.3-12.5-6.1-3.1-12.3-3.1c-6.1 0-12.3 3.1-12.3 3.1zM98.9 26.3c-3.5-13.5-13.9-19.1-24-19.6-4.3-0.2-8.5 0.4-11.9 2.3-4.1-1.7-8.5-2.8-13-2.8-4.4 0-8.6 1-12.5 2.6-3.4-2.2-7.9-2.8-12.5-2.6-10.1 0.5-20.4 6.2-23.9 19.9s1.6 27.1 11.3 29.9c0.2 0 0.4 0 0.6 0 3.2 20.3 18.5 37.7 37 37.7s33.8-17.5 36.9-37.9c0.2 0 0.4 0 0.7 0 9.7-2.8 14.8-15.9 11.3-29.5zM14 49.7c-6.5-1.8-9.6-11.6-7-21.9s14.4-15.7 21.1-15.7c6.3 0 12 2.6 9.4 12.9s-17 26.6-23.5 24.7zM50 87.5c-15.4 0-28.2-15.3-30.8-32.6 10.6-4.8 24.5-21.9 24.5-33.3 0-3.2-0.5-5.8-1.6-7.8 2.5-0.8 5.1-1.3 7.9-1.3s5.5 0.6 8.1 1.4c-1.2 2.1-1.9 4.7-1.9 8 0 11.2 14 28 24.5 32.8-2.5 17.4-15.3 32.8-30.7 32.8zM86 49.6c-6.5 1.8-20.9-14.5-23.5-24.6s3.1-12.5 9.4-12.5c6.7 0 18.5 5.3 21.1 15.4 2.6 10.2-0.5 19.9-7 21.7z"></path>
</svg>
