<?xml version="1.0" encoding="utf-8"?>
<!-- Generated by IcoMoon.io -->
<!DOCTYPE svg PUBLIC "-//W3C//DTD SVG 1.1//EN" "http://www.w3.org/Graphics/SVG/1.1/DTD/svg11.dtd">
<svg version="1.1" xmlns="http://www.w3.org/2000/svg" xmlns:xlink="http://www.w3.org/1999/xlink" width="100" height="100" viewBox="0 0 100 100">
<path d="M96.9 37.5c0-12.1-8.4-21.9-18.8-21.9-1.7 0-3.4 0.4-5.1 0.9-4.8-7.6-12.6-12.6-21.5-13.2l-0.5-0.2-0.3 0.1c-0.2 0-0.4-0.1-0.7-0.1-9.6 0-18 5.3-23.1 13.4-1.6-0.5-3.3-0.9-5-0.9-10.4 0-18.8 9.8-18.8 21.9 0 7.5 3.3 14.1 8.2 18-1.2 2.7-1.9 5.5-1.9 8.5 0 16.3 18.2 32.9 40.6 32.9s40.6-16.6 40.6-32.9c0-3-0.8-5.8-1.9-8.5 4.9-3.9 8.2-10.5 8.2-18zM9.4 37.5c0-8.6 5.6-15.6 12.5-15.6 0.7 0 1.5 0.1 2.2 0.3-1.4 3.7-2.2 7.8-2.2 12.2 0 2.7 0.3 5.2 0.9 7.7-3.4 2.3-6.2 4.9-8.4 7.9-3-2.9-5-7.4-5-12.5zM50 90.6c-19 0-34.4-13.8-34.4-26.6 0-7.9 5.8-14.9 14.6-19.1-1.3-3.2-2.1-6.7-2.1-10.5 0-11.4 6.7-20.8 15.7-23.9 3.1 3.9 7.2 10.5 7.2 17.6 0-7 3.3-13.5 5.7-17.4 8.8 3.2 15.2 12.6 15.2 23.7 0 3.8-0.8 7.3-2.1 10.5 8.8 4.2 14.6 11.2 14.6 19.1 0 12.8-15.4 26.6-34.4 26.6zM77.2 42.1c0.5-2.5 0.9-5 0.9-7.7 0-4.4-0.8-8.5-2.2-12.2 0.7-0.2 1.5-0.3 2.2-0.3 6.9 0 12.5 7 12.5 15.6 0 5.1-2 9.6-5 12.5-2.2-3-5-5.6-8.4-7.9z"></path>
</svg>
