<?xml version="1.0" encoding="utf-8"?>
<!-- Generated by IcoMoon.io -->
<!DOCTYPE svg PUBLIC "-//W3C//DTD SVG 1.1//EN" "http://www.w3.org/Graphics/SVG/1.1/DTD/svg11.dtd">
<svg version="1.1" xmlns="http://www.w3.org/2000/svg" xmlns:xlink="http://www.w3.org/1999/xlink" width="100" height="100" viewBox="0 0 100 100">
<path d="M38.4 68.7c0 0 4.3 12.5 12.3 12.5s12.3-12.5 12.3-12.5-6.1-3.1-12.3-3.1c-6.1 0-12.3 3.1-12.3 3.1zM90.9 3.1c-9.3 4.3-15.8 14.2-19.2 20.7-6.2-5.1-13.6-8.2-21.7-8.2h-0.1c-8.1 0-15.5 3.1-21.6 8.1-3.5-6.4-10-16.3-19.2-20.6 0 0-8.6 21.3 4.4 46.4-0.7 3.2-1.1 6.5-1.1 10 0 24.2 16.8 37.4 37.6 37.4 20.7 0 37.5-13.2 37.5-37.4 0-3.4-0.4-6.7-1-9.9 13-25.1 4.4-46.5 4.4-46.5zM12.5 12.9c5.3 4.5 9.2 10.8 11.4 15.1-3.3 3.7-6 8.2-7.9 13.1-4.8-11.7-4.5-21.9-3.5-28.2zM81 62.6c-3.7 1.4-8.4 2.2-12.2-0.1 5.6 3.4 6.7 11.9 6.9 16.2-5.6 7.9-15 11.9-25.7 11.9s-20.1-3.9-25.8-11.8c0.2-4.3 1.3-12.9 7-16.3-3.9 2.3-8.6 1.5-12.3 0.1-0.1-1-0.2-2-0.2-3.1 0-18 10.5-33.1 24.6-36.7 3.2 2.7 6.6 6.7 6.6 11.6 0-4.9 3.4-8.9 6.6-11.7 14.2 3.7 24.8 18.7 24.8 36.8 0 1.1-0.2 2.1-0.3 3.1zM76.1 28c2.2-4.2 6.1-10.6 11.4-15.1 1 6.4 1.3 16.6-3.5 28.3-2-5-4.6-9.4-7.9-13.2z"></path>
</svg>
