<?xml version="1.0" encoding="utf-8"?>
<!-- Generated by IcoMoon.io -->
<!DOCTYPE svg PUBLIC "-//W3C//DTD SVG 1.1//EN" "http://www.w3.org/Graphics/SVG/1.1/DTD/svg11.dtd">
<svg version="1.1" xmlns="http://www.w3.org/2000/svg" xmlns:xlink="http://www.w3.org/1999/xlink" width="100" height="100" viewBox="0 0 100 100">
<path d="M74.4 12.5c-4.2-5.6-17.9-6.3-24-6.3-6.2 0-20.3 0.7-24.6 6.3h-25.8v3.1c0 0 7.3 16 19.2 18.2 0.1 0.8 0.2 1.5 0.4 2.3 4.5 20.4 11.3 45.5 18.7 53.9l0.4 0.4 0.5 0.2c0.7 0.3 7.1 3.1 11.2 3.1 4.3 0 10.6-2.8 11.3-3.1l0.4-0.2 0.4-0.4c6.9-7.8 12.7-26.1 17.5-48.7l0.5-5.2c0.2-0.8 0.3-1.5 0.4-2.2 11.8-2.3 19.1-18.3 19.1-18.3v-3.1h-25.6zM18.9 27.4c-3.5-1.3-6.7-4.6-9.5-8.8h12.7c-1.5 2.4-2.8 5-3.2 8.8zM25.6 34.9c-1.6-7.4 0.2-10.3 2.4-13.9 0.8-1.3 1.6-2.7 2.3-4.3 1-2.2 10.5-4.2 20-4.2 2 0 4 0.1 5.9 0.3 1.7 7 3.4 23-14.1 27.8-6.9 1.9-11.1 4.4-13.6 6.9-1-3.9-1.9-8-2.9-12.6zM74.4 34.9l-0.5 2.3c-2.4 11.7-8.7 39.6-15.1 47.8-1.9 0.9-6 2.5-8.5 2.5-2.3 0-6.5-1.6-8.4-2.5-3.1-3.9-6.5-12-10.4-25.6h0.8c0 0-7.3-6.3 16.3-15.7 17.3-6.8 16.1-22.4 14.4-30 3.7 0.8 6.3 1.8 6.8 2.9 0.7 1.7 1.5 3.1 2.3 4.4 2.1 3.6 3.9 6.5 2.3 13.9zM81.1 27.5c-0.3-3.8-1.6-6.5-3-8.9h12.5c-2.7 4.2-5.9 7.5-9.5 8.9z"></path>
</svg>
