<?xml version="1.0" encoding="utf-8"?>
<!-- Generated by IcoMoon.io -->
<!DOCTYPE svg PUBLIC "-//W3C//DTD SVG 1.1//EN" "http://www.w3.org/Graphics/SVG/1.1/DTD/svg11.dtd">
<svg version="1.1" xmlns="http://www.w3.org/2000/svg" xmlns:xlink="http://www.w3.org/1999/xlink" width="100" height="100" viewBox="0 0 100 100">
<path d="M73.5 21.3c-5.1-1.8-9.8-2.6-14.1-2.6-22.8 0-35.1 21.2-38.2 28.5l-21.2-22.2v46.9l21.3-19.5c3.1 7.6 14.7 28.8 37 28.8 4.3 0 9-0.7 14.1-2.6 18-6.4 27.6-25.7 27.6-28.9s-8.5-22.1-26.5-28.4zM6 59.7v-20.9l9.3 11.1-9.3 9.8zM68.7 73.2c-3.6 1.1-7.1 1.8-10.4 1.8-20.1 0-29.8-20.9-31.5-25.1l-0.1-0.2c0.5-1.1 10.7-24.7 32.6-24.7 3.1 0 6.2 0.6 9.4 1.5v46.7zM75 70.7v-42c11.3 5.6 17.6 17 18.9 20.9-1.3 3.6-7.8 15-18.9 21.1z"></path>
</svg>
