<?xml version="1.0" encoding="utf-8"?>
<!-- Generated by IcoMoon.io -->
<!DOCTYPE svg PUBLIC "-//W3C//DTD SVG 1.1//EN" "http://www.w3.org/Graphics/SVG/1.1/DTD/svg11.dtd">
<svg version="1.1" xmlns="http://www.w3.org/2000/svg" xmlns:xlink="http://www.w3.org/1999/xlink" width="100" height="100" viewBox="0 0 100 100">
<path d="M68.8 19.3c0-0.2-0.1-0.4-0.1-0.6 0-4.6-11.8-6.2-18.3-6.2-6.7 0-19.2 1.6-19.2 6.2 0 0.2 0 0.4 0 0.6-10.7 1.4-31.2 6.9-31.2 27.9 0 0 15.8 6.6 26.9-0.9 10.9 40.9 15.4 38.1 15.4 38.1 0.7 0.3 4 3.1 8.1 3.1 4.3 0 7.4-2.8 8.1-3.1 0 0 3.8 2.8 14.7-38 11.1 7.4 26.8 0.8 26.8 0.8 0-21-20.5-26.5-31.2-27.9zM25.7 41.1c-7.4 6.7-19.5 3-19.5 3 0-14.1 16.6-17.9 22.8-18.8-2.1 4.3-4.4 9.7-3.3 15.8zM68.2 41.1c-5.7 27.6-12 37-12 37s-3.8 3.1-6.2 3.1c-2.3 0-6.3-3.1-6.3-3.1s-6.2-9.4-11.9-37c-1.5-7.4 0.2-10.2 2.4-13.8 0.8-1.4 1.7-2.7 2.4-4.4 0.9-2.2 4.2-4.2 13.7-4.2 9.3 0 12.3 2 13.2 4.2 0.7 1.6 1.5 3 2.3 4.3 2.2 3.7 3.9 6.7 2.4 13.9zM74.4 41.2c1.2-6.2-1.4-11.5-3.5-16 6 0.9 22.8 4.6 22.8 18.9 0 0-11.9 3.7-19.3-2.9z"></path>
</svg>
