<?xml version="1.0" encoding="utf-8"?>
<!-- Generated by IcoMoon.io -->
<!DOCTYPE svg PUBLIC "-//W3C//DTD SVG 1.1//EN" "http://www.w3.org/Graphics/SVG/1.1/DTD/svg11.dtd">
<svg version="1.1" xmlns="http://www.w3.org/2000/svg" xmlns:xlink="http://www.w3.org/1999/xlink" width="100" height="100" viewBox="0 0 100 100">
<path d="M74.4 18.7c-1.2-1.6-3.2-2.8-5.7-3.7l5.9-10.3c0.8-1.5 0.3-3.4-1.2-4.3s-3.4-0.3-4.2 1.2l-6.8 11.8c-4.5-0.7-9.1-0.9-12-0.9-3 0-8 0.2-12.8 1l-6.8-11.9c-0.8-1.5-2.7-2-4.2-1.2-1.5 0.9-2 2.8-1.2 4.3l6 10.4c-2.4 0.9-4.4 2.1-5.6 3.6h-25.8v3.2c0 0 7.3 15.9 19.2 18.2 0.1 0.7 0.2 1.4 0.4 2.3 2.3 10.4 8.4 22.2 11.7 32.3 3.1 9.5 3.4 17.5 7 21.5l0.4 0.4 0.5 0.3c0.7 0.3 7.1 3.1 11.2 3.1 4.3 0 10.6-2.8 11.3-3.1l0.5-0.3 0.3-0.4c3.8-4.3 3.1-11.8 6.3-21.2 3.3-10.1 8.7-21.5 11.7-32.7 0.2-0.8 0.4-1.4 0.5-2.2 11.8-2.4 19-18.2 19-18.2v-3.2h-25.6zM18.9 33.7c-3.5-1.4-6.8-4.7-9.5-8.8h12.7c-1.5 2.3-2.8 5-3.2 8.8zM74.4 41.1c-3.3 14.6-8.9 26-11.5 33.8-2.4 6.9-1.6 13.2-4.1 16.4-1.9 0.8-6 2.4-8.5 2.4-2.3 0-6.5-1.6-8.4-2.4-2.3-3-1.7-8.2-4.5-16.5-2.7-8.1-8.7-19.1-11.8-33.7-1.6-7.4 0.2-10.2 2.4-13.8 0.8-1.4 1.6-2.7 2.3-4.4 1-2.2 10.5-4.2 20-4.2 9.3 0 18.6 2 19.5 4.2 0.7 1.6 1.5 3 2.3 4.3 2.1 3.7 3.9 6.7 2.3 13.9zM81.5 33.6c-0.4-3.8-1.9-6.4-3.4-8.7h12.5c-2.7 4-5.7 7.3-9.1 8.7z"></path>
</svg>
