<?xml version="1.0" encoding="utf-8"?>
<!-- Generated by IcoMoon.io -->
<!DOCTYPE svg PUBLIC "-//W3C//DTD SVG 1.1//EN" "http://www.w3.org/Graphics/SVG/1.1/DTD/svg11.dtd">
<svg version="1.1" xmlns="http://www.w3.org/2000/svg" xmlns:xlink="http://www.w3.org/1999/xlink" width="100" height="100" viewBox="0 0 100 100">
<path d="M100 5l-4.4-5-22.3 18.8h-32.6l-0.1-0.5-6.2 0.9v0.1c-17.4 2.7-31.1 16.5-33.8 34 0 0-0.6 4.5-0.6 6.1 0 13.3 6.5 25 16.4 32.4l5.4 3.4c5.6 3 12 4.8 18.8 4.8 12 0 22.7-5.4 30.1-13.7l0.3 0.3 21.8-21.9-4.4-4.4-19.8 19.8-22-16.5-0.3-2.3c5.4-1.7 15.1-5.6 21.8-12.5 6.8-6.8 10.4-16.5 12-21.9l17.3 7.5 2.6-5.9-18.3-8 18.3-15.5zM35.2 25.5l4.4 32.3c-0.7 0.2-1.2 0.3-1.5 0.4l-30.8-6.9c3.2-13.3 14.2-23.7 27.9-25.8zM20.4 87c-8.6-6.2-14.1-16.2-14.1-27.6 0-0.6 0.1-1.2 0.1-1.7l31.9 7.4-17.9 21.9zM64.1 84.3c-6.2 5.8-14.4 9.5-23.5 9.5-5.3 0-10.3-1.3-14.8-3.5l17.8-21.4 20.5 15.4zM63.7 44.3c-5.4 5.5-12.6 9.1-18.1 11.4l-4.1-30.7h33.2c-1.8 5.5-5.2 13.5-11 19.3z"></path>
</svg>
