<?xml version="1.0" encoding="utf-8"?>
<!-- Generated by IcoMoon.io -->
<!DOCTYPE svg PUBLIC "-//W3C//DTD SVG 1.1//EN" "http://www.w3.org/Graphics/SVG/1.1/DTD/svg11.dtd">
<svg version="1.1" xmlns="http://www.w3.org/2000/svg" xmlns:xlink="http://www.w3.org/1999/xlink" width="100" height="100" viewBox="0 0 100 100">
<path d="M93.6 28.1h-14c1.1-7.4 1.5-12.5 1.5-12.5h-74.8c0 0 6.2 68.8 24.9 68.8h25c7.2 0 12.5-10.2 16.4-22.7 23.5-4.8 21-33.6 21-33.6zM53.1 78.1h-18.7c-15.6 0-21.9-56.2-21.9-56.2h62.4c0 0-6.2 56.2-21.8 56.2zM74.2 56c1.9-7.3 3.4-14.9 4.5-21.6h8.7c0 0 0 19.5-13.2 21.6z"></path>
</svg>
