<?xml version="1.0" encoding="utf-8"?>
<!-- Generated by IcoMoon.io -->
<!DOCTYPE svg PUBLIC "-//W3C//DTD SVG 1.1//EN" "http://www.w3.org/Graphics/SVG/1.1/DTD/svg11.dtd">
<svg version="1.1" xmlns="http://www.w3.org/2000/svg" xmlns:xlink="http://www.w3.org/1999/xlink" width="100" height="100" viewBox="0 0 100 100">
<path d="M62.5 28.1c1.7 0 3.1-1.4 3.1-3.1v-12.5c0-1.7-1.4-3.1-3.1-3.1s-3.1 1.4-3.1 3.1v12.5c0 1.7 1.4 3.1 3.1 3.1zM50 28.1c1.7 0 3.1-1.4 3.1-3.1v-18.8c0-1.7-1.4-3.1-3.1-3.1s-3.1 1.4-3.1 3.1v18.8c0 1.7 1.4 3.1 3.1 3.1zM37.5 28.1c1.7 0 3.1-1.4 3.1-3.1v-12.5c0-1.7-1.4-3.1-3.1-3.1s-3.1 1.4-3.1 3.1v12.5c0 1.7 1.4 3.1 3.1 3.1zM21.9 34.4v25c0 13.8 8 25 21.8 25h12.5c13.9 0 21.9-11.2 21.9-25v-25h-56.2zM71.9 59.4c0 10.3-5.3 18.7-15.7 18.7h-12.5c-10.3 0-15.6-8.4-15.6-18.7v-6.3h43.8v6.3zM71.9 46.9h-43.8v-6.3h43.8v6.3zM21.9 85.6v6.5c8.1 3 17.7 4.8 28.1 4.8s20-1.8 28.1-4.8v-6.5c-7.8 3.1-17.5 5-28.1 5s-20.3-1.9-28.1-5z"></path>
</svg>
