<?xml version="1.0" encoding="utf-8"?>
<!-- Generated by IcoMoon.io -->
<!DOCTYPE svg PUBLIC "-//W3C//DTD SVG 1.1//EN" "http://www.w3.org/Graphics/SVG/1.1/DTD/svg11.dtd">
<svg version="1.1" xmlns="http://www.w3.org/2000/svg" xmlns:xlink="http://www.w3.org/1999/xlink" width="100" height="100" viewBox="0 0 100 100">
<path d="M84.4 25c0-12.5-6.3-25-6.3-25h-56.2c0 0-6.3 12.5-6.3 25 0 24.4 13.8 35.1 31.3 37.3v31.4h-12.5c-1.8 0-3.2 1.4-3.2 3.2s1.4 3.1 3.2 3.1h31.2c1.7 0 3.1-1.4 3.1-3.1s-1.4-3.2-3.1-3.2h-12.5v-31.4c17.5-2.2 31.3-12.9 31.3-37.3zM25.3 6.2h49.4c0.4 2.8 2.9 5.8 3.3 15.8-6.2 6.2-15.6 15.4-28 3-12.5-12.5-28.1 0-28.1 0 0-12.5 2.9-15.7 3.4-18.8zM50 56.6c-14.3 0-25.7-7.5-27.7-25.7 2.5-1.8 16.3-11 27.7 0.3 12.4 12.4 21.6 3.4 27.9-2.8-1.2 20-12.9 28.2-27.9 28.2z"></path>
</svg>
