<?xml version="1.0" encoding="utf-8"?>
<!-- Generated by IcoMoon.io -->
<!DOCTYPE svg PUBLIC "-//W3C//DTD SVG 1.1//EN" "http://www.w3.org/Graphics/SVG/1.1/DTD/svg11.dtd">
<svg version="1.1" xmlns="http://www.w3.org/2000/svg" xmlns:xlink="http://www.w3.org/1999/xlink" width="100" height="100" viewBox="0 0 100 100">
<path d="M37.5 75h6.2v-50h-6.2v50zM18.7 75h6.3v-50h-6.3v50zM87.5 25c0 0 0 0 0 0h-6.3v-18.8c0-3.4-2.7-6.2-6.2-6.2h-68.8c-3.4 0-6.2 2.8-6.2 6.2v87.5c0 3.5 2.8 6.3 6.2 6.3h68.8c3.5 0 6.2-2.8 6.2-6.3v-25h6.3c6.9 0 12.5-5.2 12.5-11.6v-20.4c0-6.5-5.6-11.7-12.5-11.7zM75 36.7v53.9c0 1.7-1.4 3.1-3.1 3.1h-62.5c-1.8 0-3.2-1.4-3.2-3.1v-81.2c0-1.8 1.4-3.2 3.2-3.2h62.5c1.7 0 3.1 1.4 3.1 3.2v27.3zM93.7 56.8c0 3.2-2.7 5.7-6.2 5.7h-6.3v-31.3h6.3c3.5 0 6.2 2.6 6.2 5.7v19.9zM56.2 75h6.3v-50h-6.3v50z"></path>
</svg>
