<?xml version="1.0" encoding="utf-8"?>
<!-- Generated by IcoMoon.io -->
<!DOCTYPE svg PUBLIC "-//W3C//DTD SVG 1.1//EN" "http://www.w3.org/Graphics/SVG/1.1/DTD/svg11.dtd">
<svg version="1.1" xmlns="http://www.w3.org/2000/svg" xmlns:xlink="http://www.w3.org/1999/xlink" width="100" height="100" viewBox="0 0 100 100">
<path d="M65.5 84.4h-43.6c-1.7 0-3.1 1.4-3.1 3.1s1.4 3.1 3.1 3.1h43.6c1.8 0 3.2-1.4 3.2-3.1s-1.4-3.1-3.2-3.1zM93.6 21.9h-14c1.1-7.4 1.5-12.5 1.5-12.5h-74.8c0 0 6.2 68.7 24.9 68.7h25c7.2 0 12.5-10.1 16.4-22.6 23.6-4.8 21-33.6 21-33.6zM53.1 71.9h-18.7c-15.6 0-21.9-56.3-21.9-56.3h62.4c0 0-6.2 56.3-21.8 56.3zM74.2 49.8c1.9-7.4 3.4-15 4.5-21.7h8.7c0 0 0 19.5-13.2 21.7z"></path>
</svg>
