<?xml version="1.0" encoding="utf-8"?>
<!-- Generated by IcoMoon.io -->
<!DOCTYPE svg PUBLIC "-//W3C//DTD SVG 1.1//EN" "http://www.w3.org/Graphics/SVG/1.1/DTD/svg11.dtd">
<svg version="1.1" xmlns="http://www.w3.org/2000/svg" xmlns:xlink="http://www.w3.org/1999/xlink" width="100" height="100" viewBox="0 0 100 100">
<path d="M81.2 3.1h-62.5c-3.4 0-6.2 2.8-6.2 6.3l6.2 81.2c0 3.5 2.8 6.3 6.3 6.3h50c3.5 0 6.2-2.8 6.2-6.3l6.3-81.2c0-3.5-2.8-6.3-6.3-6.3zM75 87.5c0 1.7-1.4 3.1-3.1 3.1h-43.8c-1.7 0-3.1-1.4-3.1-3.1l-6.3-75c0-1.7 1.4-3.1 3.2-3.1h56.2c1.7 0 3.1 1.4 3.1 3.1l-6.2 75z"></path>
</svg>
