<?xml version="1.0" encoding="utf-8"?>
<!-- Generated by IcoMoon.io -->
<!DOCTYPE svg PUBLIC "-//W3C//DTD SVG 1.1//EN" "http://www.w3.org/Graphics/SVG/1.1/DTD/svg11.dtd">
<svg version="1.1" xmlns="http://www.w3.org/2000/svg" xmlns:xlink="http://www.w3.org/1999/xlink" width="100" height="100" viewBox="0 0 100 100">
<path d="M87.5 31.2h-9.4v-12.5c0-6.9-5.6-12.5-12.5-12.5h-50c-6.9 0-12.5 5.6-12.5 12.5v62.5c0 6.9 5.6 12.5 12.5 12.5h50c6.9 0 12.5-5.6 12.5-12.5v-6.2h9.4c5.2 0 9.4-4.2 9.4-9.4v-25c0-5.2-4.2-9.4-9.4-9.4zM71.9 81.2c0 3.5-2.8 6.3-6.3 6.3h-50c-3.4 0-6.2-2.8-6.2-6.3v-62.5c0-3.4 2.8-6.2 6.2-6.2h50c3.5 0 6.3 2.8 6.3 6.2v62.5zM90.6 65.6c0 1.7-1.4 3.1-3.1 3.1h-9.4v-31.2h9.4c1.7 0 3.1 1.4 3.1 3.1v25z"></path>
</svg>
