<?xml version="1.0" encoding="utf-8"?>
<!-- Generated by IcoMoon.io -->
<!DOCTYPE svg PUBLIC "-//W3C//DTD SVG 1.1//EN" "http://www.w3.org/Graphics/SVG/1.1/DTD/svg11.dtd">
<svg version="1.1" xmlns="http://www.w3.org/2000/svg" xmlns:xlink="http://www.w3.org/1999/xlink" width="100" height="100" viewBox="0 0 100 100">
<path d="M28.1 6.2h43.8c1.7 0 3.1-1.4 3.1-3.1s-1.4-3.1-3.1-3.1h-43.8c-1.7 0-3.1 1.4-3.1 3.1s1.4 3.1 3.1 3.1zM81.2 12.5h-62.5c-3.4 0-6.2 3.7-6.2 8.3v8.4c0 4.6 2.8 8.3 6.2 8.3v56c0 3.6 2.8 6.5 6.3 6.5h50c3.5 0 6.2-2.9 6.2-6.5v-56c3.5 0 6.3-3.7 6.3-8.3v-8.4c0-4.6-2.8-8.3-6.3-8.3zM75 90.8c0 1.6-1.4 3-3.1 3h-43.8c-1.7 0-3.1-1.4-3.1-3v-22.1h6.2c0 10.4 8.4 18.8 18.8 18.8 10.3 0 18.7-8.4 18.7-18.8h6.3v22.1zM37.5 68.7c0-6.9 5.6-12.5 12.5-12.5s12.5 5.6 12.5 12.5-5.6 12.5-12.5 12.5c-6.9 0-12.5-5.6-12.5-12.5zM75 62.5h-7.4c-2.6-7.3-9.5-12.5-17.6-12.5s-15 5.2-17.6 12.5h-7.4v-25h50v25zM78.1 31.2h-56.2c-1.8 0-3.2-2.8-3.2-6.2 0-3.5 1.4-6.3 3.2-6.3h56.2c1.7 0 3.1 2.8 3.1 6.3 0 3.4-1.4 6.2-3.1 6.2z"></path>
</svg>
