<?xml version="1.0" encoding="utf-8"?>
<!-- Generated by IcoMoon.io -->
<!DOCTYPE svg PUBLIC "-//W3C//DTD SVG 1.1//EN" "http://www.w3.org/Graphics/SVG/1.1/DTD/svg11.dtd">
<svg version="1.1" xmlns="http://www.w3.org/2000/svg" xmlns:xlink="http://www.w3.org/1999/xlink" width="100" height="100" viewBox="0 0 100 100">
<path d="M98.6 68.7l-11.1-50v-12.5c0-3.4-2.8-6.2-6.3-6.2h-62.5c-3.4 0-6.2 2.8-6.2 6.2v12.5l-11.1 50h-1.4v25h6.2v6.3h6.3v-6.3h75v6.3h6.2v-6.3h6.3v-25h-1.4zM18.7 9.4c0-1.8 1.4-3.2 3.2-3.2h56.2c1.7 0 3.1 1.4 3.1 3.2v6.2c0 1.7-1.4 3.1-3.1 3.1h-9.4v-3.1c0-1.7-1.4-3.1-3.1-3.1h-31.2c-1.8 0-3.2 1.4-3.2 3.1v3.1h-9.3c-1.8 0-3.2-1.4-3.2-3.1v-6.2zM62.5 18.7v6.3h-25v-6.3h25zM18.7 25h12.5v3.1c0 1.7 1.4 3.1 3.2 3.1h31.2c1.7 0 3.1-1.4 3.1-3.1v-3.1h12.5l5.4 18.7h-73.2l5.3-18.7zM93.7 87.5h-87.5v-12.5h87.5v12.5zM6.2 68.7l6.3-21.8v3.1h75v-3.1l6.2 21.8h-87.5z"></path>
</svg>
