<?xml version="1.0" encoding="utf-8"?>
<!-- Generated by IcoMoon.io -->
<!DOCTYPE svg PUBLIC "-//W3C//DTD SVG 1.1//EN" "http://www.w3.org/Graphics/SVG/1.1/DTD/svg11.dtd">
<svg version="1.1" xmlns="http://www.w3.org/2000/svg" xmlns:xlink="http://www.w3.org/1999/xlink" width="100" height="100" viewBox="0 0 100 100">
<path d="M18.7 75h-6.2v6.2h6.2v-6.2zM87.5 75h-6.3v6.2h6.3v-6.2zM18.7 56.2h-6.2v6.3h6.2v-6.3zM87.5 37.5h-6.3v6.2h6.3v-6.2zM75 18.7v-18.7h-50v18.7h-25v81.3h100v-81.3h-25zM25 93.7h-18.8v-68.7h18.8v68.7zM56.2 93.7h-12.5v-12.5h12.5v12.5zM68.7 18.7v75h-6.2v-18.7h-25v18.7h-6.3v-87.5h37.5v12.5zM93.7 93.7h-18.7v-68.7h18.7v68.7zM18.7 37.5h-6.2v6.2h6.2v-6.2zM87.5 56.2h-6.3v6.3h6.3v-6.3zM62.5 56.2h-25v6.3h25v-6.3zM62.5 37.5h-25v6.2h25v-6.2zM62.5 18.7h-25v6.3h25v-6.3z"></path>
</svg>
