<?xml version="1.0" encoding="utf-8"?>
<!-- Generated by IcoMoon.io -->
<!DOCTYPE svg PUBLIC "-//W3C//DTD SVG 1.1//EN" "http://www.w3.org/Graphics/SVG/1.1/DTD/svg11.dtd">
<svg version="1.1" xmlns="http://www.w3.org/2000/svg" xmlns:xlink="http://www.w3.org/1999/xlink" width="100" height="100" viewBox="0 0 100 100">
<path d="M18.8 75h18.7v-6.2h-18.7v6.2zM37.5 37.5c0 6.9 5.6 12.5 12.6 12.5 6.9 0 12.6-5.6 12.6-12.5s-5.7-12.5-12.6-12.5c-7 0-12.6 5.6-12.6 12.5zM50.1 31.3c3.5 0 6.3 2.7 6.3 6.2s-2.8 6.2-6.3 6.2c-3.5 0-6.3-2.7-6.3-6.2 0-3.4 2.8-6.2 6.3-6.2zM18.8 62.5h18.7v-6.2h-18.7v6.2zM99 38.3l-46.7-37.4c-0.6-0.7-1.5-0.9-2.3-0.9-0.9 0-1.7 0.2-2.3 0.9l-46.7 37.4c-1.3 1.2-1.3 3.2 0 4.5 1.2 1.2 3.2 1.2 4.5 0l0.8-0.7v51.7c0 3.4 2.8 6.2 6.3 6.2h74.8c3.5 0 6.3-2.8 6.3-6.2v-51.7l0.8 0.7c1.3 1.2 3.3 1.2 4.5 0 1.3-1.3 1.3-3.3 0-4.5zM68.7 93.8h-18.7v-31.3h18.7v31.3zM87.4 90.6c0 1.8-1.4 3.2-3.1 3.2h-9.4v-37.5h-31.1v37.5h-28.1c-1.7 0-3.1-1.4-3.1-3.2v-53.5l37.4-30 37.4 30v53.5z"></path>
</svg>
