<?xml version="1.0" encoding="utf-8"?>
<!-- Generated by IcoMoon.io -->
<!DOCTYPE svg PUBLIC "-//W3C//DTD SVG 1.1//EN" "http://www.w3.org/Graphics/SVG/1.1/DTD/svg11.dtd">
<svg version="1.1" xmlns="http://www.w3.org/2000/svg" xmlns:xlink="http://www.w3.org/1999/xlink" width="100" height="100" viewBox="0 0 100 100">
<path d="M62.5 75v-18.8h37.5v-6.2c0-27.6-22.4-50-50-50s-50 22.4-50 50v6.2h43.7v37.5h-12.5v6.3h37.5v-6.3h-18.7v-37.5h6.2v18.8h6.3zM50 6.2c19.8 0 36.3 13.3 41.7 31.3h-83.4c5.4-18 21.9-31.3 41.7-31.3zM6.2 50c0-2.2 0.4-4.2 0.7-6.3h86.2c0.3 2.1 0.7 4.1 0.7 6.3h-87.6z"></path>
</svg>
