<?xml version="1.0" encoding="utf-8"?>
<!-- Generated by IcoMoon.io -->
<!DOCTYPE svg PUBLIC "-//W3C//DTD SVG 1.1//EN" "http://www.w3.org/Graphics/SVG/1.1/DTD/svg11.dtd">
<svg version="1.1" xmlns="http://www.w3.org/2000/svg" xmlns:xlink="http://www.w3.org/1999/xlink" width="100" height="100" viewBox="0 0 100 100">
<path d="M100 46.9c0-7.6-5.4-13.9-12.5-15.3v-0.4c0-17.2-14-31.2-31.3-31.2h-12.5c-17.2 0-31.2 14-31.2 31.2v0.4c-7.1 1.4-12.5 7.7-12.5 15.3 0 5.4 2.7 10.1 6.9 12.9-0.4 0.8-0.7 1.7-0.7 2.7v25c0 3.5 2.8 6.2 6.3 6.2h3.1v6.3h6.3v-6.3h56.2v6.3h6.3v-6.3h3.1c3.5 0 6.2-2.7 6.2-6.2v-25c0-1-0.2-1.9-0.6-2.7 4.2-2.8 6.9-7.5 6.9-12.9zM18.7 31.2c0-13.8 11.2-25 25-25h12.5c13.9 0 25 11.2 25 25v0.4c-7.1 1.4-12.5 7.7-12.5 15.3 0 1.7 0.4 3.4 1 5-6-1-12.8-1.9-19.7-1.9s-13.7 0.9-19.7 1.9c0.6-1.6 0.9-3.2 0.9-5 0-7.6-5.3-13.9-12.5-15.3v-0.4zM6.2 46.9c0-5.2 4.2-9.4 9.4-9.4s9.4 4.2 9.4 9.4c0 5.1-4.2 9.3-9.4 9.3s-9.4-4.2-9.4-9.3zM87.5 84.4c0 1.7-1.4 3.1-3.1 3.1h-68.8c-1.7 0-3.1-1.4-3.1-3.1v-18.8c0-1.7 1.4-3.1 3.1-3.1 3.2 0 6.1-1 8.5-2.5 6.6-1.8 16.2-3.8 25.9-3.8s19.3 2 25.9 3.7c2.4 1.6 5.3 2.6 8.5 2.6 1.7 0 3.1 1.4 3.1 3.1v18.8zM84.4 56.2c-5.2 0-9.4-4.2-9.4-9.3 0-5.2 4.2-9.4 9.4-9.4s9.3 4.2 9.3 9.4c0 5.1-4.2 9.3-9.3 9.3z"></path>
</svg>
