<?xml version="1.0" encoding="utf-8"?>
<!-- Generated by IcoMoon.io -->
<!DOCTYPE svg PUBLIC "-//W3C//DTD SVG 1.1//EN" "http://www.w3.org/Graphics/SVG/1.1/DTD/svg11.dtd">
<svg version="1.1" xmlns="http://www.w3.org/2000/svg" xmlns:xlink="http://www.w3.org/1999/xlink" width="100" height="100" viewBox="0 0 100 100">
<path d="M50 6.2c-20.7 0-37.5 16.8-37.5 37.5 0 13.9 7.6 25.8 18.7 32.3v17.7h37.5v-17.7c11.2-6.5 18.8-18.4 18.8-32.3 0-20.7-16.8-37.5-37.5-37.5zM62.5 87.5h-25v-6.3h25v6.3zM62.5 72.4v2.6h-25v-2.6c-11-4.9-18.8-15.8-18.8-28.7 0-17.2 14-31.2 31.3-31.2s31.2 14 31.2 31.2c0 12.9-7.7 23.8-18.7 28.7z"></path>
</svg>
