<?xml version="1.0" encoding="utf-8"?>
<!-- Generated by IcoMoon.io -->
<!DOCTYPE svg PUBLIC "-//W3C//DTD SVG 1.1//EN" "http://www.w3.org/Graphics/SVG/1.1/DTD/svg11.dtd">
<svg version="1.1" xmlns="http://www.w3.org/2000/svg" xmlns:xlink="http://www.w3.org/1999/xlink" width="100" height="100" viewBox="0 0 100 100">
<path d="M40.6 75h-12.5v6.2h12.5v-6.2zM71.9 75h-12.5v6.2h12.5v-6.2zM28.1 56.2h43.8v-6.2h-43.8v6.2zM59.4 0h-18.8c-13.8 0-25 11.2-25 25v75h68.8v-75c0-13.8-11.2-25-25-25zM46.9 93.7h-25v-25h25v25zM78.1 93.7h-25v-25h25v25zM78.1 62.5h-56.2v-37.5c0-10.4 8.4-18.8 18.7-18.8h18.8c10.3 0 18.7 8.4 18.7 18.8v37.5z"></path>
</svg>
