<?xml version="1.0" encoding="utf-8"?>
<!-- Generated by IcoMoon.io -->
<!DOCTYPE svg PUBLIC "-//W3C//DTD SVG 1.1//EN" "http://www.w3.org/Graphics/SVG/1.1/DTD/svg11.dtd">
<svg version="1.1" xmlns="http://www.w3.org/2000/svg" xmlns:xlink="http://www.w3.org/1999/xlink" width="100" height="100" viewBox="0 0 100 100">
<path d="M65.6 46.8h-31.2c-1.8 0-3.2 1.5-3.2 3.2s1.4 3.1 3.2 3.1h31.2c1.7 0 3.1-1.4 3.1-3.1 0-1.8-1.4-3.2-3.1-3.2zM90.6 3.1h-81.2c-5.2 0-9.4 4.2-9.4 9.4v62.5c0 5.2 4.2 9.3 9.4 9.3h28.1l12.5 12.6 12.5-12.6h28.1c5.2 0 9.4-4.1 9.4-9.3v-62.5c0-5.2-4.2-9.4-9.4-9.4zM93.7 75c0 1.7-1.4 3.1-3.1 3.1h-31.2l-9.4 9.4-9.4-9.4h-31.2c-1.8 0-3.2-1.4-3.2-3.1v-62.5c0-1.7 1.4-3.1 3.2-3.1h81.2c1.7 0 3.1 1.4 3.1 3.1v62.5zM78.1 28.1h-56.2c-1.8 0-3.2 1.4-3.2 3.1s1.4 3.1 3.2 3.1h56.2c1.7 0 3.1-1.4 3.1-3.1s-1.4-3.1-3.1-3.1z"></path>
</svg>
