<?xml version="1.0" encoding="utf-8"?>
<!-- Generated by IcoMoon.io -->
<!DOCTYPE svg PUBLIC "-//W3C//DTD SVG 1.1//EN" "http://www.w3.org/Graphics/SVG/1.1/DTD/svg11.dtd">
<svg version="1.1" xmlns="http://www.w3.org/2000/svg" xmlns:xlink="http://www.w3.org/1999/xlink" width="100" height="100" viewBox="0 0 100 100">
<path d="M92.6 66.5c-1.3-1.2-3.3-1.2-4.6 0l-10 10.1-10-10.1c-1.3-1.2-3.4-1.2-4.6 0-1.3 1.3-1.3 3.4 0 4.7l10 10-10 10.1c-1.3 1.2-1.3 3.3 0 4.6 1.2 1.3 3.3 1.3 4.6 0l10-10.1 10 10.1c1.3 1.3 3.3 1.3 4.6 0s1.3-3.4 0-4.6l-10-10.1 10-10c1.3-1.3 1.3-3.4 0-4.7zM96.9 3.2c-0.1-0.1-0.1-0.1-0.2-0.1h-93.5c-0.1 0-0.2 0.1-0.3 0.1-0.7 0.1-1.3 0.3-1.7 0.7-0.1 0.1-0.2 0-0.3 0.1 0 0.1 0 0.1-0.1 0.2-0.4 0.5-0.7 1.2-0.7 1.9 0 0-0.1 0.1-0.1 0.1s0 0 0 0.1v75c0 1.7 1.4 3.1 3.2 3.1h46.8v-6.2h-40.6c-1.7 0-3.1-1.5-3.1-3.2v-62.4l41.3 33.2c0.1 0 0.1 0.1 0.1 0.2 0.6 0.6 1.4 0.9 2.2 0.8 0.8 0.1 1.6-0.2 2.3-0.8 0-0.1 0-0.2 0-0.2l41.5-33.3v46.9h6.3v-53.1c0-1.7-1.4-3.1-3.1-3.1zM49.9 39.8l-37.9-30.4h75.9l-38 30.4z"></path>
</svg>
