<?xml version="1.0" encoding="utf-8"?>
<!-- Generated by IcoMoon.io -->
<!DOCTYPE svg PUBLIC "-//W3C//DTD SVG 1.1//EN" "http://www.w3.org/Graphics/SVG/1.1/DTD/svg11.dtd">
<svg version="1.1" xmlns="http://www.w3.org/2000/svg" xmlns:xlink="http://www.w3.org/1999/xlink" width="100" height="100" viewBox="0 0 100 100">
<path d="M78.1 28.1c-12.1 0-21.9 9.8-21.9 21.9 0 6.1 2.6 11.7 6.7 15.6h-25.8c4.1-4 6.6-9.5 6.6-15.6 0-12.1-9.7-21.9-21.8-21.9s-21.9 9.8-21.9 21.9c0 12.1 9.8 21.9 21.9 21.9h56.2c12.1 0 21.9-9.8 21.9-21.9s-9.8-21.9-21.9-21.9zM21.9 65.6c-8.7 0-15.7-7-15.7-15.6s7-15.6 15.7-15.6c8.6 0 15.6 7 15.6 15.6s-7 15.6-15.6 15.6zM78.1 65.6c-8.6 0-15.6-7-15.6-15.6s7-15.6 15.6-15.6 15.6 7 15.6 15.6c0 8.6-6.9 15.6-15.6 15.6z"></path>
</svg>
