<?xml version="1.0" encoding="utf-8"?>
<!-- Generated by IcoMoon.io -->
<!DOCTYPE svg PUBLIC "-//W3C//DTD SVG 1.1//EN" "http://www.w3.org/Graphics/SVG/1.1/DTD/svg11.dtd">
<svg version="1.1" xmlns="http://www.w3.org/2000/svg" xmlns:xlink="http://www.w3.org/1999/xlink" width="100" height="100" viewBox="0 0 100 100">
<path d="M25 34.4c-3.5 0-6.3 2.8-6.3 6.2 0 3.5 2.8 6.3 6.3 6.3s6.2-2.8 6.2-6.3c0-3.4-2.8-6.2-6.2-6.2zM50 34.4c-3.5 0-6.3 2.8-6.3 6.2 0 3.5 2.8 6.3 6.3 6.3s6.2-2.8 6.2-6.3c0-3.4-2.7-6.2-6.2-6.2zM75 34.4c-3.5 0-6.3 2.8-6.3 6.2 0 3.5 2.8 6.3 6.3 6.3s6.2-2.8 6.2-6.3c0-3.4-2.7-6.2-6.2-6.2zM68.7 3.1h-37.5c-17.2 0-31.2 14-31.2 31.3v12.5c0 12.8 7.7 23.7 18.7 28.6v21.4l25.8-18.8h24.2c17.3 0 31.3-14 31.3-31.2v-12.5c0-17.3-14-31.3-31.3-31.3zM93.7 46.9c0 13.8-11.1 25-25 25h-26.2l-17.5 12.5v-13.4c-10.8-2.8-18.8-12.5-18.8-24.1v-12.5c0-13.8 11.2-25 25-25h37.5c13.9 0 25 11.2 25 25v12.5z"></path>
</svg>
