<?xml version="1.0" encoding="utf-8"?>
<!-- Generated by IcoMoon.io -->
<!DOCTYPE svg PUBLIC "-//W3C//DTD SVG 1.1//EN" "http://www.w3.org/Graphics/SVG/1.1/DTD/svg11.dtd">
<svg version="1.1" xmlns="http://www.w3.org/2000/svg" xmlns:xlink="http://www.w3.org/1999/xlink" width="100" height="100" viewBox="0 0 100 100">
<path d="M81.2 0h-62.5c-10.3 0-18.7 8.4-18.7 18.7v40.7c0 10.3 8.4 15.6 18.7 15.6h37.5l25 25v-25c10.4 0 18.8-5.3 18.8-15.6v-40.7c0-10.3-8.4-18.7-18.8-18.7zM93.7 59.4c0 6.9-5.6 9.3-12.5 9.3h-6.2v15.7l-15.6-15.7h-40.7c-6.9 0-12.5-2.4-12.5-9.3v-40.7c0-6.9 5.6-12.5 12.5-12.5h62.5c6.9 0 12.5 5.6 12.5 12.5v40.7z"></path>
</svg>
