<?xml version="1.0" encoding="utf-8"?>
<!-- Generated by IcoMoon.io -->
<!DOCTYPE svg PUBLIC "-//W3C//DTD SVG 1.1//EN" "http://www.w3.org/Graphics/SVG/1.1/DTD/svg11.dtd">
<svg version="1.1" xmlns="http://www.w3.org/2000/svg" xmlns:xlink="http://www.w3.org/1999/xlink" width="100" height="100" viewBox="0 0 100 100">
<path d="M12.5 71.9h43.7v-6.3h-43.7v6.3zM12.5 59.4h43.7v-6.3h-43.7v6.3zM62.5 46.9h25v-25h-25v25zM68.7 28.1h12.5v12.5h-12.5v-12.5zM93.7 9.4h-87.5c-3.4 0-6.2 2.8-6.2 6.2v68.8c0 3.4 2.8 6.2 6.2 6.2h87.5c3.5 0 6.3-2.8 6.3-6.2v-68.8c0-3.4-2.8-6.2-6.3-6.2zM93.7 81.2c0 1.8-1.4 3.2-3.1 3.2h-81.2c-1.8 0-3.2-1.4-3.2-3.2v-62.5c0-1.7 1.4-3.1 3.2-3.1h81.2c1.7 0 3.1 1.4 3.1 3.1v62.5z"></path>
</svg>
