<?xml version="1.0" encoding="utf-8"?>
<!-- Generated by IcoMoon.io -->
<!DOCTYPE svg PUBLIC "-//W3C//DTD SVG 1.1//EN" "http://www.w3.org/Graphics/SVG/1.1/DTD/svg11.dtd">
<svg version="1.1" xmlns="http://www.w3.org/2000/svg" xmlns:xlink="http://www.w3.org/1999/xlink" width="100" height="100" viewBox="0 0 100 100">
<path d="M96.9 84.4h-25.1c-1.7 0-3.2 1.4-3.2 3.1s1.5 3.1 3.2 3.1h25.1c1.7 0 3.1-1.4 3.1-3.1s-1.4-3.1-3.1-3.1zM93.7 65.6h6.2v-53.1c0-1.7-1.4-3.1-3.1-3.1 0 0-0.1 0-0.2 0h-93.5c-0.1 0-0.2 0-0.3 0-0.6 0.1-1.2 0.3-1.7 0.7 0 0.1-0.2 0.1-0.2 0.1-0.1 0.1-0.1 0.2-0.1 0.2-0.5 0.5-0.7 1.2-0.8 1.9 0 0.1 0 0.1 0 0.1 0 0.1 0 0.1 0 0.1v75c0 1.7 1.4 3.1 3.1 3.1h46.9v-6.2h-40.7c-1.7 0-3.1-1.4-3.1-3.2v-62.3l41.4 33.1c0 0.1 0 0.2 0 0.2 0.7 0.6 1.5 0.9 2.3 0.9s1.6-0.3 2.2-0.9c0.1-0.1 0-0.1 0.1-0.2l41.5-33.2v46.8zM49.9 46.1l-38-30.5h75.9l-37.9 30.5z"></path>
</svg>
