<?xml version="1.0" encoding="utf-8"?>
<!-- Generated by IcoMoon.io -->
<!DOCTYPE svg PUBLIC "-//W3C//DTD SVG 1.1//EN" "http://www.w3.org/Graphics/SVG/1.1/DTD/svg11.dtd">
<svg version="1.1" xmlns="http://www.w3.org/2000/svg" xmlns:xlink="http://www.w3.org/1999/xlink" width="100" height="100" viewBox="0 0 100 100">
<path d="M6.2 71.9v-56.3c0-1.7 1.4-3.1 3.2-3.1h68.7c1.7 0 3.1 1.4 3.1 3.1v3.1h6.3v-6.2c0-3.5-2.8-6.3-6.3-6.3h-75c-3.4 0-6.2 2.8-6.2 6.3v62.5c0 3.4 2.8 6.2 6.2 6.2h6.3v-6.2h-3.1c-1.8 0-3.2-1.4-3.2-3.1zM40.6 43.7c-5.2 0-9.4 4.2-9.4 9.4s4.2 9.4 9.4 9.4c5.2 0 9.4-4.2 9.4-9.4s-4.2-9.4-9.4-9.4zM40.6 56.2c-1.7 0-3.1-1.4-3.1-3.1s1.4-3.1 3.1-3.1c1.7 0 3.1 1.4 3.1 3.1s-1.4 3.1-3.1 3.1zM93.7 25h-68.7c-3.5 0-6.3 2.8-6.3 6.2v56.3c0 3.4 2.8 6.2 6.3 6.2h68.7c3.5 0 6.3-2.8 6.3-6.2v-56.3c0-3.4-2.8-6.2-6.3-6.2zM93.7 84.4c0 1.7-1.4 3.1-3.1 3.1h-51.5l18.8-18.9 8 8-0.3 0.3 4.4 4.4 0.3-0.4 0.3 0.3 4.4-4.4-0.3-0.3 8-7.9 9.5 9.5 1.6-1.6v7.9zM93.7 70.3l-6.4-6.4 0.2-0.2-4.4-4.4-0.2 0.2-0.1-0.1-4.6 4.7 0.1 0.1-7.9 7.9-8-7.9 0.1-0.2-4.7-4.7-0.2 0.2-0.1-0.1-4.4 4.4 0.1 0.1-23.5 23.6h-1.6c-1.7 0-3.1-1.4-3.1-3.1v-50c0-1.8 1.4-3.2 3.1-3.2h62.5c1.7 0 3.1 1.4 3.1 3.2v35.9z"></path>
</svg>
