<?xml version="1.0" encoding="utf-8"?>
<!-- Generated by IcoMoon.io -->
<!DOCTYPE svg PUBLIC "-//W3C//DTD SVG 1.1//EN" "http://www.w3.org/Graphics/SVG/1.1/DTD/svg11.dtd">
<svg version="1.1" xmlns="http://www.w3.org/2000/svg" xmlns:xlink="http://www.w3.org/1999/xlink" width="100" height="100" viewBox="0 0 100 100">
<path d="M25 87.5v-12.5h-6.3c-4.8 0-9-2.8-11-6.8-0.9-0.6-1.5-1.5-1.5-2.6v-42c-3.8 3.4-6.2 8.4-6.2 13.9v25c0 10.3 8.4 18.7 18.7 18.7v18.8l23.5-18.8h14v-6.2h-14.5l-16.7 12.5zM81.2 0h-50c-10.3 0-18.7 8.4-18.7 18.7v25c0 10.4 8.4 18.8 18.7 18.8h26.6l23.4 18.7v-18.7c10.4 0 18.8-8.4 18.8-18.8v-25c0-10.3-8.4-18.7-18.8-18.7zM93.7 43.7c0 7-5.6 12.5-12.5 12.5h-6.2v12.5l-16.7-12.5h-27.1c-6.9 0-12.5-5.6-12.5-12.5v-25c0-6.9 5.6-12.5 12.5-12.5h50c6.9 0 12.5 5.6 12.5 12.5v25z"></path>
</svg>
