<?xml version="1.0" encoding="utf-8"?>
<!-- Generated by IcoMoon.io -->
<!DOCTYPE svg PUBLIC "-//W3C//DTD SVG 1.1//EN" "http://www.w3.org/Graphics/SVG/1.1/DTD/svg11.dtd">
<svg version="1.1" xmlns="http://www.w3.org/2000/svg" xmlns:xlink="http://www.w3.org/1999/xlink" width="100" height="100" viewBox="0 0 100 100">
<path d="M93.7 6.2v6.3l-87.5 12.5c-3.4 0-6.2 2.8-6.2 6.2v31.3c0 3.5 2.8 6.2 6.2 6.2l12.5 1.8v13.9c0 0.1 0.1 0.2 0.1 0.3 0 0 0 0.1 0 0.1 0.2 1.5 1.5 2.7 3.1 2.7 0 0 0 0 0 0l24 6.2c0.3 0 0.5 0 0.7 0 0.1 0 0.2 0.1 0.3 0.1 0 0 0.1-0.1 0.1-0.1 0.2 0 0.4 0 0.6-0.1 0.2 0 0.5-0.1 0.7-0.2 0.1-0.1 0.1-0.1 0.2-0.2 0.3-0.1 0.5-0.3 0.7-0.6 0.1 0 0.1-0.1 0.2-0.2 0.2-0.3 0.3-0.5 0.4-0.8 0-0.1 0-0.1 0-0.1 0.1-0.1 0-0.1 0.1-0.2 0-0.2 0.1-0.4 0.1-0.7v-15.6l43.7 6.3v6.2h6.3v-81.3h-6.3zM43.7 86.7l-18.7-4.8v-10.5l18.7 2.7v12.6zM75 72.6l-65.6-10.1c-1.8 0-3.2-1.4-3.2-3.1v-25c0-1.8 1.4-3.2 3.2-3.2l65.6-10.1v51.5zM93.7 71.9c0 1.7-1.4 3.1-3.1 3.1l-9.4-1.4v-53.4l9.4-1.5c1.7 0 3.1 1.4 3.1 3.2v50z"></path>
</svg>
