<?xml version="1.0" encoding="utf-8"?>
<!-- Generated by IcoMoon.io -->
<!DOCTYPE svg PUBLIC "-//W3C//DTD SVG 1.1//EN" "http://www.w3.org/Graphics/SVG/1.1/DTD/svg11.dtd">
<svg version="1.1" xmlns="http://www.w3.org/2000/svg" xmlns:xlink="http://www.w3.org/1999/xlink" width="100" height="100" viewBox="0 0 100 100">
<path d="M74.2 18.7h-49.2c-13.8 0-25 11.2-25 25 0 12 8.4 22 19.7 24.5l5.3 31.8 25-12.5-4.7-18.8h28.9l25.8 18.8v-87.5l-25.8 18.7zM29.8 90.6l-3.7-21.8h12.8l3.8 15.3-12.9 6.5zM68.7 62.5h-43.7c-10.4 0-18.8-8.4-18.8-18.8 0-10.3 8.4-18.7 18.8-18.7h43.7v37.5zM93.7 75l-18.7-13.4v-35.7l18.7-13.4v62.5z"></path>
</svg>
