<?xml version="1.0" encoding="utf-8"?>
<!-- Generated by IcoMoon.io -->
<!DOCTYPE svg PUBLIC "-//W3C//DTD SVG 1.1//EN" "http://www.w3.org/Graphics/SVG/1.1/DTD/svg11.dtd">
<svg version="1.1" xmlns="http://www.w3.org/2000/svg" xmlns:xlink="http://www.w3.org/1999/xlink" width="100" height="100" viewBox="0 0 100 100">
<path d="M99.5 0.5c0 0-39.3-4.4-56.7 13.1-16.4 16.4-23.8 39.4-13.7 53l-29.1 29 4.4 4.4 29-29.1c13.6 10.2 36.6 2.8 53-13.7 0.7-0.7 1.2-1.6 1.9-2.4l0.3 0.2 0.5-1.2c0.5-0.7 1.1-1.4 1.6-2.1l-0.7-0.2 1.1-2.8-9.1-4.6 12.6-4.2 1.8-4.5h1c4-17 2.1-34.9 2.1-34.9zM33.2 38.9l5.2 5.2 4.4-4.3-6.8-6.8c1-1.9 2-3.7 3.3-5.5l7.8 7.9 4.4-4.4-8.5-8.5c1.3-1.5 2.7-3.1 4.1-4.6 13.4-13.4 34.2-13 42.8-12.2l-56.4 56.5c-4.1-6.1-3.7-14.5-0.3-23.3zM92.2 34.9l-21.1 7 12.3 9.3c-0.4 0.5-0.8 1.1-1.4 1.7-14 14-33.1 21-44.2 13.6l56.4-56.4c0.5 5.2 0.8 14.9-2 24.8z"></path>
</svg>
