<?xml version="1.0" encoding="utf-8"?>
<!-- Generated by IcoMoon.io -->
<!DOCTYPE svg PUBLIC "-//W3C//DTD SVG 1.1//EN" "http://www.w3.org/Graphics/SVG/1.1/DTD/svg11.dtd">
<svg version="1.1" xmlns="http://www.w3.org/2000/svg" xmlns:xlink="http://www.w3.org/1999/xlink" width="100" height="100" viewBox="0 0 100 100">
<path d="M68 25h-61c-3.9 0-7 3-7 6.8v48.8c0 3.8 3.1 6.9 7 6.9h18l12.5 12.5 12.5-12.5h18c3.8 0 7-3.1 7-6.9v-48.8c0-3.8-3.2-6.8-7-6.8zM68.7 79.1c0 1.2-1 2.1-2.2 2.1h-19.6l-9.4 9.4-9.4-9.4h-19.6c-1.3 0-2.3-0.9-2.3-2.1v-45.7c0-1.2 1-2.2 2.3-2.2h58c1.2 0 2.2 1 2.2 2.2v45.7zM93 0h-61c-3.9 0-7 3.1-7 6.9v11.8h6.2v-10.3c0-1.2 1-2.2 2.3-2.2h58c1.2 0 2.2 1 2.2 2.2v45.7c0 1.2-1 2.1-2.2 2.1h-10.3v6.3h12.5c3.9 0 6.3-2.9 6.3-6.7v-48.9c0-3.8-3.2-6.9-7-6.9z"></path>
</svg>
