<?xml version="1.0" encoding="utf-8"?>
<!-- Generated by IcoMoon.io -->
<!DOCTYPE svg PUBLIC "-//W3C//DTD SVG 1.1//EN" "http://www.w3.org/Graphics/SVG/1.1/DTD/svg11.dtd">
<svg version="1.1" xmlns="http://www.w3.org/2000/svg" xmlns:xlink="http://www.w3.org/1999/xlink" width="100" height="100" viewBox="0 0 100 100">
<path d="M85.3 1.7c-3.9-2.8-8.3-1.8-10 0.7-1.1 1.6-12.3 18.3-13.5 20.3-0.6 0.9-0.8 2-0.8 3.2 0 1.5 0.4 3.2 1.3 4.8 0.8 1.6 3.6 6.5 5 8.9-1.5 2.1-5.3 7-13.1 14.8-7.7 7.7-12.7 11.5-14.8 13-2.4-1.4-7.3-4.2-8.9-5-3-1.6-6-1.8-8.1-0.5-1.9 1.2-18.5 12.3-20.1 13.4-1.5 1.1-2.3 3-2.3 5.1 0 1.7 0.5 3.4 1.6 4.9 0.1 0.2 10.6 14.8 16.6 14.7 17.1-0.6 37.1-17.1 50.9-30.8 13.8-13.8 30.3-33.8 30.9-50.8v-0.2c0-5.9-14.6-16.4-14.7-16.5zM64.7 64.7c-18.3 18.2-34.7 28.5-46.4 29-2.2-0.8-7.8-6.5-11.8-11.9-0.3-0.4-0.4-0.9-0.4-1.4 0-0.1 0-0.2 0-0.2 2.6-1.8 16.8-11.2 19.5-12.9 0.3 0 1 0.1 2 0.6 1.1 0.6 4.3 2.4 8.7 4.9l3.5 1.9 3.2-2.2c2.4-1.7 7.7-5.8 15.7-13.7 8-8 12-13.3 13.7-15.6l2.3-3.3-2-3.4c-1.9-3.4-4.2-7.4-4.9-8.7-0.5-1-0.6-1.8-0.6-1.9s0-0.1 0-0.1c1.5-2.4 11.2-17 13-19.5 0.2-0.1 0.8 0 1.5 0.4 5.5 4 11.2 9.6 12 11.8-0.5 11.7-10.8 28.1-29 46.2z"></path>
</svg>
