<?xml version="1.0" encoding="utf-8"?>
<!-- Generated by IcoMoon.io -->
<!DOCTYPE svg PUBLIC "-//W3C//DTD SVG 1.1//EN" "http://www.w3.org/Graphics/SVG/1.1/DTD/svg11.dtd">
<svg version="1.1" xmlns="http://www.w3.org/2000/svg" xmlns:xlink="http://www.w3.org/1999/xlink" width="100" height="100" viewBox="0 0 100 100">
<path d="M98.5 14.6c-0.1-0.1-10.6-14.8-16.7-14.6-17 0.5-37.1 17-50.9 30.8s-30.4 33.8-31 50.8v0.2c0 5.9 14.6 16.5 14.7 16.5 4 2.8 8.3 1.8 10.1-0.7 1.1-1.5 12.2-18.2 13.5-20.3 0.5-0.9 0.8-2 0.8-3.2 0-1.5-0.4-3.2-1.3-4.8s-3.7-6.5-5-8.9c1.5-2.1 5.2-7 13.1-14.8 7.7-7.7 12.7-11.5 14.8-13 2.4 1.4 7.3 4.1 8.9 5 3 1.6 6.1 1.7 8.1 0.5 1.9-1.3 18.6-12.3 20.2-13.5 1.5-1 2.3-3 2.3-5.1 0-1.6-0.5-3.4-1.6-4.9zM94 19.8c-2.6 1.7-16.9 11.2-19.6 12.9-0.3 0-1-0.1-2-0.7-1.1-0.5-4.3-2.3-8.7-4.8l-3.4-2-3.3 2.3c-2.4 1.7-7.7 5.7-15.7 13.7s-12.1 13.2-13.8 15.6l-2.2 3.3 1.9 3.4c2 3.3 4.2 7.4 4.9 8.7 0.6 1 0.6 1.7 0.6 1.9 0 0.1 0 0.1 0 0.1-1.5 2.4-11.2 17-13 19.6-0.2 0-0.7 0-1.4-0.5-5.5-4-11.3-9.6-12.1-11.8 0.6-11.7 10.9-28.1 29.1-46.3 18.3-18.1 34.7-28.4 46.4-29 2.2 0.8 7.9 6.5 11.9 12 0.2 0.4 0.4 0.9 0.4 1.3 0 0.1 0 0.2 0 0.3z"></path>
</svg>
