<?xml version="1.0" encoding="utf-8"?>
<!-- Generated by IcoMoon.io -->
<!DOCTYPE svg PUBLIC "-//W3C//DTD SVG 1.1//EN" "http://www.w3.org/Graphics/SVG/1.1/DTD/svg11.dtd">
<svg version="1.1" xmlns="http://www.w3.org/2000/svg" xmlns:xlink="http://www.w3.org/1999/xlink" width="100" height="100" viewBox="0 0 100 100">
<path d="M78.1 81.2h-6.2l12.5-25-34.4-56.2-34.4 56.2 12.5 25h-6.2c-3.5 0-6.3 2.8-6.3 6.3v6.2c0 3.5 2.8 6.3 6.3 6.3h56.2c3.5 0 6.3-2.8 6.3-6.3v-6.2c0-3.5-2.8-6.3-6.3-6.3zM21.9 56.2l25-41.6v16.6h6.2v-16.7l25 41.1-12.6 25.6h-31.1l-12.5-25zM75 93.7h-50c-1.7 0-3.1-1.4-3.1-3.1s1.4-3.1 3.1-3.1h50c1.7 0 3.1 1.4 3.1 3.1s-1.4 3.1-3.1 3.1zM50 75c8.6 0 15.6-7 15.6-15.6s-7-15.7-15.6-15.7c-8.6 0-15.6 7-15.6 15.7s7 15.6 15.6 15.6zM50 50c5.2 0 9.4 4.2 9.4 9.4 0 5.1-4.2 9.3-9.4 9.3s-9.4-4.2-9.4-9.3c0-5.2 4.2-9.4 9.4-9.4z"></path>
</svg>
