<?xml version="1.0" encoding="utf-8"?>
<!-- Generated by IcoMoon.io -->
<!DOCTYPE svg PUBLIC "-//W3C//DTD SVG 1.1//EN" "http://www.w3.org/Graphics/SVG/1.1/DTD/svg11.dtd">
<svg version="1.1" xmlns="http://www.w3.org/2000/svg" xmlns:xlink="http://www.w3.org/1999/xlink" width="100" height="100" viewBox="0 0 100 100">
<path d="M87.5 0h-75c-5.2 0-9.4 4.2-9.4 9.4v81.2c0 5.2 4.2 9.4 9.4 9.4h75c5.2 0 9.4-4.2 9.4-9.4v-81.2c0-5.2-4.2-9.4-9.4-9.4zM90.6 90.6c0 1.7-1.4 3.1-3.1 3.1h-75c-1.7 0-3.1-1.4-3.1-3.1v-81.2c0-1.8 1.4-3.2 3.1-3.2h75c1.7 0 3.1 1.4 3.1 3.2v81.2zM75 62.5h-50c-1.7 0-3.1 1.4-3.1 3.1s1.4 3.1 3.1 3.1h50c1.7 0 3.1-1.4 3.1-3.1s-1.4-3.1-3.1-3.1zM75 43.7h-50c-1.7 0-3.1 1.4-3.1 3.2 0 1.7 1.4 3.1 3.1 3.1h50c1.7 0 3.1-1.4 3.1-3.1 0-1.8-1.4-3.2-3.1-3.2zM75 25h-50c-1.7 0-3.1 1.4-3.1 3.1s1.4 3.1 3.1 3.1h50c1.7 0 3.1-1.4 3.1-3.1s-1.4-3.1-3.1-3.1z"></path>
</svg>
