<?xml version="1.0" encoding="utf-8"?>
<!-- Generated by IcoMoon.io -->
<!DOCTYPE svg PUBLIC "-//W3C//DTD SVG 1.1//EN" "http://www.w3.org/Graphics/SVG/1.1/DTD/svg11.dtd">
<svg version="1.1" xmlns="http://www.w3.org/2000/svg" xmlns:xlink="http://www.w3.org/1999/xlink" width="100" height="100" viewBox="0 0 100 100">
<path d="M84.4 31.2h-37.5c-1.8 0-3.2 1.4-3.2 3.2 0 1.7 1.4 3.1 3.2 3.1h37.5c1.7 0 3.1-1.4 3.1-3.1 0-1.8-1.4-3.2-3.1-3.2zM93.7 6.2h-6.2v-6.2h-6.3v6.2h-12.5v-6.2h-6.2v6.2h-12.5v-6.2h-6.3v6.2h-6.2c-3.5 0-6.3 2.8-6.3 6.3v81.2c0 3.5 2.8 6.3 6.3 6.3h56.2c3.5 0 6.3-2.8 6.3-6.3v-81.2c0-3.5-2.8-6.3-6.3-6.3zM93.7 90.6c0 1.7-1.4 3.1-3.1 3.1h-50c-1.7 0-3.1-1.4-3.1-3.1v-75c0-1.7 1.4-3.1 3.1-3.1h50c1.7 0 3.1 1.4 3.1 3.1v75zM18.7 0h-12.5c-3.4 0-6.2 2.8-6.2 6.2v87.5c0 3.5 2.8 6.3 6.2 6.3h12.5c3.5 0 6.3-2.8 6.3-6.3v-87.5c0-3.4-2.8-6.2-6.3-6.2zM18.7 90.6c0 1.7-1.4 3.1-3.1 3.1h-6.2c-1.8 0-3.2-1.4-3.2-3.1v-40.6h12.5v40.6zM18.7 43.7h-12.5v-34.3c0-1.8 1.4-3.2 3.2-3.2h6.2c1.7 0 3.1 1.4 3.1 3.2v34.3zM84.4 50h-37.5c-1.8 0-3.2 1.4-3.2 3.1s1.4 3.1 3.2 3.1h37.5c1.7 0 3.1-1.4 3.1-3.1s-1.4-3.1-3.1-3.1zM84.4 68.7h-37.5c-1.8 0-3.2 1.4-3.2 3.2s1.4 3.1 3.2 3.1h37.5c1.7 0 3.1-1.4 3.1-3.1s-1.4-3.2-3.1-3.2z"></path>
</svg>
