<?xml version="1.0" encoding="utf-8"?>
<!-- Generated by IcoMoon.io -->
<!DOCTYPE svg PUBLIC "-//W3C//DTD SVG 1.1//EN" "http://www.w3.org/Graphics/SVG/1.1/DTD/svg11.dtd">
<svg version="1.1" xmlns="http://www.w3.org/2000/svg" xmlns:xlink="http://www.w3.org/1999/xlink" width="100" height="100" viewBox="0 0 100 100">
<path d="M56.2 62.5v37.5h6.8c33.2-4.8 37-31.3 37-31.3v-6.2h-43.8zM62.5 93.8v0-25.1h31.1c-1 4.3-6.5 21.3-31.1 25.1zM50 0c-27.6 0-50 22.4-50 50 0 12.7 4.7 24.3 12.5 33.1v0l4.3 4.4 0.2-0.2c7.4 6.5 16.5 11 26.7 12.3v0.4h6.3v-43.8h50v-6.2c0-27.6-22.4-50-50-50zM43.7 93.1c-8.4-1.2-16-4.9-22.2-10.2l22.2-22.3v32.5zM50 50h-2.8l-0.1 0.3-0.2-0.3-29.8 28.7c-6.8-7.7-10.9-17.7-10.9-28.7 0-24.2 19.6-43.8 43.8-43.8s43.7 19.6 43.7 43.8h-43.7z"></path>
</svg>
