<?xml version="1.0" encoding="utf-8"?>
<!-- Generated by IcoMoon.io -->
<!DOCTYPE svg PUBLIC "-//W3C//DTD SVG 1.1//EN" "http://www.w3.org/Graphics/SVG/1.1/DTD/svg11.dtd">
<svg version="1.1" xmlns="http://www.w3.org/2000/svg" xmlns:xlink="http://www.w3.org/1999/xlink" width="100" height="100" viewBox="0 0 100 100">
<path d="M100 37.5v-25h-12.5v-6.3c0-3.4-2.8-6.2-6.3-6.2h-75c-3.4 0-6.2 2.8-6.2 6.2v87.5c0 3.5 2.8 6.3 6.2 6.3h75c3.5 0 6.3-2.8 6.3-6.3v-6.2h6.2v-12.5h-6.2v-12.5h6.2v-12.5h-6.2v-12.5h12.5zM87.5 18.7h6.2v12.5h-6.2v-12.5zM81.2 12.5v78.1c0 1.7-1.4 3.1-3.1 3.1h-68.7c-1.8 0-3.2-1.4-3.2-3.1v-81.2c0-1.8 1.4-3.2 3.2-3.2h68.7c1.7 0 3.1 1.4 3.1 3.2v3.1zM62.5 18.7h-37.5c-3.5 0-6.3 2.8-6.3 6.3v18.7c0 3.5 2.8 6.3 6.3 6.3h37.5c3.5 0 6.2-2.8 6.2-6.3v-18.7c0-3.5-2.7-6.3-6.2-6.3zM62.5 40.6c0 1.7-1.4 3.1-3.1 3.1h-31.3c-1.7 0-3.1-1.4-3.1-3.1v-12.5c0-1.7 1.4-3.1 3.1-3.1h31.3c1.7 0 3.1 1.4 3.1 3.1v12.5zM65.6 75h-43.7c-1.8 0-3.2 1.4-3.2 3.1s1.4 3.1 3.2 3.1h43.7c1.7 0 3.1-1.4 3.1-3.1s-1.4-3.1-3.1-3.1zM65.6 62.5h-43.7c-1.8 0-3.2 1.4-3.2 3.1s1.4 3.1 3.2 3.1h43.7c1.7 0 3.1-1.4 3.1-3.1s-1.4-3.1-3.1-3.1z"></path>
</svg>
