<?xml version="1.0" encoding="utf-8"?>
<!-- Generated by IcoMoon.io -->
<!DOCTYPE svg PUBLIC "-//W3C//DTD SVG 1.1//EN" "http://www.w3.org/Graphics/SVG/1.1/DTD/svg11.dtd">
<svg version="1.1" xmlns="http://www.w3.org/2000/svg" xmlns:xlink="http://www.w3.org/1999/xlink" width="100" height="100" viewBox="0 0 100 100">
<path d="M84.4 12.5h-6.3v6.2h1.8l10.7 37.5h-25v12.5h-31.2v-12.5h-25l10.7-37.5h1.8v-6.2h-6.3l-12.5 43.7v37.5c0 3.5 2.8 6.3 6.3 6.3h81.2c3.5 0 6.3-2.8 6.3-6.3v-37.5l-12.5-43.7zM90.6 90.6c0 1.7-1.4 3.1-3.1 3.1h-75c-1.7 0-3.1-1.4-3.1-3.1v-25c0-1.7 1.4-3.1 3.1-3.1h15.6v12.5h43.8v-12.5h15.6c1.7 0 3.1 1.4 3.1 3.1v25zM34.2 23.7l12.7-12.6v42c0 1.7 1.4 3.1 3.1 3.1v0 0c0 0 0 0 0 0v0c1.7 0 3.1-1.4 3.1-3.1v-41.8l1.2 1.2 11.3 11.2c1.4 1.4 3.6 1.4 5 0s1.4-3.6 0-5l-17.7-17.7c-0.7-0.8-1.7-1.1-2.8-1 0 0 0 0-0.1 0s-0.2 0-0.3 0c-1-0.1-2.1 0.2-2.9 1l-11.4 11.5h-0.1l-6.2 6.2c-1.4 1.4-1.4 3.7 0 5.1 1.4 1.3 3.7 1.3 5.1-0.1z"></path>
</svg>
