<?xml version="1.0" encoding="utf-8"?>
<!-- Generated by IcoMoon.io -->
<!DOCTYPE svg PUBLIC "-//W3C//DTD SVG 1.1//EN" "http://www.w3.org/Graphics/SVG/1.1/DTD/svg11.dtd">
<svg version="1.1" xmlns="http://www.w3.org/2000/svg" xmlns:xlink="http://www.w3.org/1999/xlink" width="100" height="100" viewBox="0 0 100 100">
<path d="M18.7 43.7h25c3.5 0 6.3-2.8 6.3-6.2v-18.8c0-3.4-2.8-6.2-6.3-6.2h-25c-3.4 0-6.2 2.8-6.2 6.2v18.8c0 3.4 2.8 6.2 6.2 6.2zM18.7 21.9c0-1.8 1.4-3.2 3.2-3.2h18.7c1.7 0 3.1 1.4 3.1 3.2v12.5c0 1.7-1.4 3.1-3.1 3.1h-18.7c-1.8 0-3.2-1.4-3.2-3.1v-12.5zM84.4 75h-68.8c-1.7 0-3.1 1.4-3.1 3.1s1.4 3.1 3.1 3.1h68.8c1.7 0 3.1-1.4 3.1-3.1s-1.4-3.1-3.1-3.1zM84.4 62.5h-68.8c-1.7 0-3.1 1.4-3.1 3.1s1.4 3.1 3.1 3.1h68.8c1.7 0 3.1-1.4 3.1-3.1s-1.4-3.1-3.1-3.1zM84.4 12.5h-25c-1.7 0-3.2 1.4-3.2 3.1s1.5 3.1 3.2 3.1h25c1.7 0 3.1-1.4 3.1-3.1s-1.4-3.1-3.1-3.1zM93.7 0h-87.5c-3.4 0-6.2 2.8-6.2 6.2v87.5c0 3.5 2.8 6.3 6.2 6.3h87.5c3.5 0 6.3-2.8 6.3-6.3v-87.5c0-3.4-2.8-6.2-6.3-6.2zM93.7 90.6c0 1.7-1.4 3.1-3.1 3.1h-81.2c-1.8 0-3.2-1.4-3.2-3.1v-81.2c0-1.8 1.4-3.2 3.2-3.2h81.2c1.7 0 3.1 1.4 3.1 3.2v81.2zM84.4 25h-25c-1.7 0-3.2 1.4-3.2 3.1s1.5 3.1 3.2 3.1h25c1.7 0 3.1-1.4 3.1-3.1s-1.4-3.1-3.1-3.1zM84.4 37.5h-25c-1.7 0-3.2 1.4-3.2 3.1s1.5 3.1 3.2 3.1h25c1.7 0 3.1-1.4 3.1-3.1s-1.4-3.1-3.1-3.1zM84.4 50h-68.8c-1.7 0-3.1 1.4-3.1 3.1s1.4 3.1 3.1 3.1h68.8c1.7 0 3.1-1.4 3.1-3.1s-1.4-3.1-3.1-3.1z"></path>
</svg>
