<?xml version="1.0" encoding="utf-8"?>
<!-- Generated by IcoMoon.io -->
<!DOCTYPE svg PUBLIC "-//W3C//DTD SVG 1.1//EN" "http://www.w3.org/Graphics/SVG/1.1/DTD/svg11.dtd">
<svg version="1.1" xmlns="http://www.w3.org/2000/svg" xmlns:xlink="http://www.w3.org/1999/xlink" width="100" height="100" viewBox="0 0 100 100">
<path d="M9.4 18.7h81.2c1.7 0 3.1-1.4 3.1-3.1s-1.4-3.1-3.1-3.1h-81.2c-1.8 0-3.2 1.4-3.2 3.1s1.4 3.1 3.2 3.1zM21.9 6.2h59.3c1.8 0 3.2-1.4 3.2-3.1s-1.4-3.1-3.2-3.1h-59.3c-1.8 0-3.2 1.4-3.2 3.1s1.4 3.1 3.2 3.1zM0 25v75h100v-75h-100zM93.7 93.7h-87.5v-62.5h87.5v62.5z"></path>
</svg>
