<?xml version="1.0" encoding="utf-8"?>
<!-- Generated by IcoMoon.io -->
<!DOCTYPE svg PUBLIC "-//W3C//DTD SVG 1.1//EN" "http://www.w3.org/Graphics/SVG/1.1/DTD/svg11.dtd">
<svg version="1.1" xmlns="http://www.w3.org/2000/svg" xmlns:xlink="http://www.w3.org/1999/xlink" width="100" height="100" viewBox="0 0 100 100">
<path d="M78.1 3.1h-56.2c-3.5 0-6.3 2.8-6.3 6.3v81.2c0 3.5 5.9 6.3 9.4 6.3l24.7-31.3 25.3 31.3c3.5 0 9.4-2.8 9.4-6.3v-81.2c0-3.5-2.8-6.3-6.3-6.3zM78.1 84.4c0 1.7-1.4 3.1-3.1 3.1l-25-31.3-25 31.3c-1.7 0-3.1-1.4-3.1-3.1v-71.9c0-1.7 1.4-3.1 3.1-3.1h50c1.7 0 3.1 1.4 3.1 3.1v71.9z"></path>
</svg>
