<?xml version="1.0" encoding="utf-8"?>
<!-- Generated by IcoMoon.io -->
<!DOCTYPE svg PUBLIC "-//W3C//DTD SVG 1.1//EN" "http://www.w3.org/Graphics/SVG/1.1/DTD/svg11.dtd">
<svg version="1.1" xmlns="http://www.w3.org/2000/svg" xmlns:xlink="http://www.w3.org/1999/xlink" width="100" height="100" viewBox="0 0 100 100">
<path d="M90.6 0h-81.2c-3.5 0-6.3 2.8-6.3 6.2v87.5c0 3.5 2.8 6.3 6.3 6.3h81.2c3.5 0 6.3-2.8 6.3-6.3v-87.5c0-3.4-2.8-6.2-6.3-6.2zM12.5 6.2h75c3.2 0-12.5 12.5-12.5 12.5h-50c0 0-15.7-12.5-12.5-12.5zM9.4 12.5l12.5 12.5h25v50h-25l-12.5 12.5v-75zM87.5 93.7h-75c-3.1 0 12.5-12.5 12.5-12.5h50c0 0 15.6 12.5 12.5 12.5zM90.6 87.5l-12.5-12.5h-25v-50h25l12.5-12.5v75z"></path>
</svg>
