<?xml version="1.0" encoding="utf-8"?>
<!-- Generated by IcoMoon.io -->
<!DOCTYPE svg PUBLIC "-//W3C//DTD SVG 1.1//EN" "http://www.w3.org/Graphics/SVG/1.1/DTD/svg11.dtd">
<svg version="1.1" xmlns="http://www.w3.org/2000/svg" xmlns:xlink="http://www.w3.org/1999/xlink" width="100" height="100" viewBox="0 0 100 100">
<path d="M6.3 87.5v-68.8h-6.3v68.8c0 6.9 6 12.5 13.3 12.5h74.1v-6.3h-74.4c-3.7 0-6.7-2.7-6.7-6.2zM93.7 0h-74.9c-3.5 0-6.3 2.8-6.3 6.2v75c0 3.5 2.8 6.3 6.3 6.3h74.9c3.5 0 6.2-2.8 6.2-6.3v-75c0-3.4-2.7-6.2-6.2-6.2zM93.7 78.1c0 1.7-1.4 3.1-3.1 3.1h-68.7c-1.7 0-3.1-1.4-3.1-3.1v-68.7c0-1.8 1.4-3.2 3.1-3.2h68.7c1.7 0 3.1 1.4 3.1 3.2v68.7zM84.3 12.5h-56.2c-1.7 0-3.1 1.4-3.1 3.1v50c0 1.7 1.4 3.1 3.1 3.1h56.2c1.8 0 3.2-1.4 3.2-3.1v-50c0-1.7-1.4-3.1-3.2-3.1zM81.2 59.4c0 1.7-1.4 3.1-3.1 3.1h-43.7c-1.7 0-3.1-1.4-3.1-3.1v-37.5c0-1.8 1.4-3.2 3.1-3.2h43.7c1.7 0 3.1 1.4 3.1 3.2v37.5z"></path>
</svg>
