<?xml version="1.0" encoding="utf-8"?>
<!-- Generated by IcoMoon.io -->
<!DOCTYPE svg PUBLIC "-//W3C//DTD SVG 1.1//EN" "http://www.w3.org/Graphics/SVG/1.1/DTD/svg11.dtd">
<svg version="1.1" xmlns="http://www.w3.org/2000/svg" xmlns:xlink="http://www.w3.org/1999/xlink" width="100" height="100" viewBox="0 0 100 100">
<path d="M65.6 40.6h18.8c1.7 0 3.1-1.4 3.1-3.1s-1.4-3.1-3.1-3.1h-18.8c-1.7 0-3.1 1.4-3.1 3.1s1.4 3.1 3.1 3.1zM65.6 53.1h18.8c1.7 0 3.1-1.4 3.1-3.1s-1.4-3.1-3.1-3.1h-18.8c-1.7 0-3.1 1.4-3.1 3.1s1.4 3.1 3.1 3.1zM65.6 28.1h18.8c1.7 0 3.1-1.4 3.1-3.1s-1.4-3.1-3.1-3.1h-18.8c-1.7 0-3.1 1.4-3.1 3.1s1.4 3.1 3.1 3.1zM81.2 3.1h-62.5c-10.3 0-18.7 8.4-18.7 18.8v68c0 3.9 3.1 7 6.9 7h83.7c1.7 0 3.1-1.4 3.1-3.2s-1.4-3.1-3.1-3.1h-59.5c0-0.2 0.1-0.4 0.1-0.7v-2.4c0 1.7-1.4 3.1-3.1 3.1h-18.7c-1.8 0-3.1-1.4-3.2-3.1v0-12.5h4.4c0 0 0 0 0 0h-4.4v-53.1c0-6.9 5.7-12.5 12.5-12.5h62.5c6.9 0 12.5 5.6 12.5 12.5v43.7c0 6.9-5.6 12.5-12.5 12.5h-62.5c-2.2 0-4.4-0.6-6.2-1.7v8h6.2c0 0 0 0 0 0h9.5c1.7 0 3 1.4 3 3.1v-3.1h50c10.4 0 18.8-8.4 18.8-18.8v-43.7c0-10.4-8.4-18.8-18.8-18.8zM65.6 65.6h18.8c1.7 0 3.1-1.4 3.1-3.1s-1.4-3.1-3.1-3.1h-18.8c-1.7 0-3.1 1.4-3.1 3.1s1.4 3.1 3.1 3.1zM34.4 65.6c12.1 0 21.8-9.8 21.8-21.9 0-12-9.7-21.8-21.8-21.8s-21.9 9.8-21.9 21.8c0 12.1 9.8 21.9 21.9 21.9zM34.4 28.1c8.6 0 15.6 7 15.6 15.6s-7 15.7-15.6 15.7c-8.7 0-15.7-7-15.7-15.7s7-15.6 15.7-15.6z"></path>
</svg>
