<?xml version="1.0" encoding="utf-8"?>
<!-- Generated by IcoMoon.io -->
<!DOCTYPE svg PUBLIC "-//W3C//DTD SVG 1.1//EN" "http://www.w3.org/Graphics/SVG/1.1/DTD/svg11.dtd">
<svg version="1.1" xmlns="http://www.w3.org/2000/svg" xmlns:xlink="http://www.w3.org/1999/xlink" width="100" height="100" viewBox="0 0 100 100">
<path d="M43.7 43.7h-6.2v12.5h-12.5v6.3h12.5v12.5h6.2v-12.5h12.5v-6.3h-12.5v-12.5zM68.7 18.7h-56.2c-3.5 0-6.3 2.8-6.3 6.3v68.7c0 3.5 2.8 6.3 6.3 6.3h56.2c3.5 0 6.3-2.8 6.3-6.3v-68.7c0-3.5-2.8-6.3-6.3-6.3zM68.7 90.6c0 1.7-1.4 3.1-3.1 3.1h-50c-1.7 0-3.1-1.4-3.1-3.1v-62.5c0-1.7 1.4-3.1 3.1-3.1h50c1.7 0 3.1 1.4 3.1 3.1v62.5zM87.5 0h-50c-3.5 0-6.3 2.8-6.3 6.2v6.3h6.3v-3.1c0-1.8 1.4-3.2 3.1-3.2h43.8c1.7 0 3.1 1.4 3.1 3.2v62.5c0 1.7-1.4 3.1-3.1 3.1h-3.2v6.2h6.3c3.5 0 6.2-2.7 6.2-6.2v-68.8c0-3.4-2.7-6.2-6.2-6.2z"></path>
</svg>
