<?xml version="1.0" encoding="utf-8"?>
<!-- Generated by IcoMoon.io -->
<!DOCTYPE svg PUBLIC "-//W3C//DTD SVG 1.1//EN" "http://www.w3.org/Graphics/SVG/1.1/DTD/svg11.dtd">
<svg version="1.1" xmlns="http://www.w3.org/2000/svg" xmlns:xlink="http://www.w3.org/1999/xlink" width="100" height="100" viewBox="0 0 100 100">
<path d="M31.2 43.7c-1.7 0-3.1 1.4-3.1 3.2v12.5c0 1.7 1.4 3.1 3.1 3.1 1.8 0 3.2-1.4 3.2-3.1v-12.5c0-1.8-1.4-3.2-3.2-3.2zM50 18.7v0c-1.7 0.1-3.1 1.4-3.1 3.2v37.5c0 1.7 1.4 3.1 3.1 3.1s3.1-1.4 3.1-3.1v-37.5c0-1.8-1.4-3.1-3.1-3.2zM68.7 28.1c-1.7 0-3.1 1.4-3.1 3.1v28.2c0 1.7 1.4 3.1 3.1 3.1s3.2-1.4 3.2-3.1v-28.2c0-1.7-1.4-3.1-3.2-3.1zM93.7 6.2h-87.5c-1.7 0-3.1 1.4-3.1 3.2 0 1.7 1.4 3.1 3.1 3.1h3.2v56.2c0 3.5 2.8 6.3 6.2 6.3h23.9l-7.8 14.3c-0.9 1.4-0.4 3.2 1.3 4.1 1.6 0.8 3.8 0.3 4.7-1.1l8.7-16c0.3-0.4 0.4-0.9 0.4-1.3h6.4c0 0.4 0.1 0.9 0.4 1.3l8.7 16c0.9 1.4 3.1 1.9 4.7 1.1s2.2-2.7 1.3-4.1l-7.8-14.3h23.9c3.4 0 6.2-2.8 6.2-6.3v-56.2h3.2c1.7 0 3.1-1.4 3.1-3.1 0-1.8-1.4-3.2-3.2-3.2zM84.4 18.7v46.9c0 1.7-1.4 3.1-3.2 3.1h-62.5c-1.7 0-3.1-1.4-3.1-3.1v-50c0 0 0 0 0 0v-3.1h3.1c0 0 0 0 0 0h62.5c0.1 0 0.1 0 0.1 0h3.1v6.2z"></path>
</svg>
