<?xml version="1.0" encoding="utf-8"?>
<!-- Generated by IcoMoon.io -->
<!DOCTYPE svg PUBLIC "-//W3C//DTD SVG 1.1//EN" "http://www.w3.org/Graphics/SVG/1.1/DTD/svg11.dtd">
<svg version="1.1" xmlns="http://www.w3.org/2000/svg" xmlns:xlink="http://www.w3.org/1999/xlink" width="100" height="100" viewBox="0 0 100 100">
<path d="M31.2 50h56.3v-6.3h-56.3v6.3zM31.2 68.7h56.3v-6.2h-56.3v6.2zM31.2 31.2h56.3v-6.2h-56.3v6.2zM90.6 0h-62.5c-5.2 0-9.4 4.2-9.4 9.4v15.6h-9.3c-5.2 0-9.4 4.2-9.4 9.4v56.2c0 5.2 4.2 9.4 9.4 9.4h81.2c5.2 0 9.4-4.2 9.4-9.4v-81.2c0-5.2-4.2-9.4-9.4-9.4zM93.7 90.6c0 1.7-1.4 3.1-3.1 3.1h-81.2c-1.8 0-3.2-1.4-3.2-3.1v-56.2c0-1.8 1.4-3.2 3.2-3.2h9.3v56.3h6.3v-78.1c0-1.8 1.4-3.2 3.1-3.2h62.5c1.7 0 3.1 1.4 3.1 3.2v81.2z"></path>
</svg>
