<?xml version="1.0" encoding="utf-8"?>
<!-- Generated by IcoMoon.io -->
<!DOCTYPE svg PUBLIC "-//W3C//DTD SVG 1.1//EN" "http://www.w3.org/Graphics/SVG/1.1/DTD/svg11.dtd">
<svg version="1.1" xmlns="http://www.w3.org/2000/svg" xmlns:xlink="http://www.w3.org/1999/xlink" width="100" height="100" viewBox="0 0 100 100">
<path d="M15.6 68.7h-6.2c-1.8 0-3.2 1.4-3.2 3.2v6.2c0 1.7 1.4 3.1 3.2 3.1h6.2c1.7 0 3.1-1.4 3.1-3.1v-6.2c0-1.8-1.4-3.2-3.1-3.2zM15.6 43.7h-6.2c-1.8 0-3.2 1.4-3.2 3.2v6.2c0 1.7 1.4 3.1 3.2 3.1h6.2c1.7 0 3.1-1.4 3.1-3.1v-6.2c0-1.8-1.4-3.2-3.1-3.2zM34.4 25h56.2c1.7 0 3.1-1.4 3.1-3.1 0-1.8-1.4-3.2-3.1-3.2h-56.2c-1.8 0-3.2 1.4-3.2 3.2 0 1.7 1.4 3.1 3.2 3.1zM15.6 18.7h-6.2c-1.8 0-3.2 1.4-3.2 3.2v6.2c0 1.7 1.4 3.1 3.2 3.1h6.2c1.7 0 3.1-1.4 3.1-3.1v-6.2c0-1.8-1.4-3.2-3.1-3.2zM90.6 68.7h-56.2c-1.8 0-3.2 1.4-3.2 3.2 0 1.7 1.4 3.1 3.2 3.1h56.2c1.7 0 3.1-1.4 3.1-3.1 0-1.8-1.4-3.2-3.1-3.2zM90.6 43.7h-56.2c-1.8 0-3.2 1.4-3.2 3.2 0 1.7 1.4 3.1 3.2 3.1h56.2c1.7 0 3.1-1.4 3.1-3.1 0-1.8-1.4-3.2-3.1-3.2z"></path>
</svg>
