<?xml version="1.0" encoding="utf-8"?>
<!-- Generated by IcoMoon.io -->
<!DOCTYPE svg PUBLIC "-//W3C//DTD SVG 1.1//EN" "http://www.w3.org/Graphics/SVG/1.1/DTD/svg11.dtd">
<svg version="1.1" xmlns="http://www.w3.org/2000/svg" xmlns:xlink="http://www.w3.org/1999/xlink" width="100" height="100" viewBox="0 0 100 100">
<path d="M93.7 56.2h-12.5v-50c0-3.4-2.7-6.2-6.2-6.2h-50c-3.5 0-6.3 2.8-6.3 6.2v50h-12.5c-3.4 0-6.2 2.8-6.2 6.3v18.7c0 3.5 2.8 6.3 6.2 6.3h12.5v9.4c0 1.7 1.4 3.1 3.2 3.1h56.2c1.7 0 3.1-1.4 3.1-3.1v-9.4h12.5c3.5 0 6.3-2.8 6.3-6.3v-18.7c0-3.5-2.8-6.3-6.3-6.3zM25 9.4c0-1.8 1.4-3.2 3.1-3.2h43.8c1.7 0 3.1 1.4 3.1 3.2v43.7c0 1.7-1.4 3.1-3.1 3.1h-43.8c-1.7 0-3.1-1.4-3.1-3.1v-43.7zM75 93.7h-50v-18.7h50v18.7zM93.7 78.1c0 1.7-1.4 3.1-3.1 3.1h-9.4v-9.3c0-1.8-1.4-3.2-3.1-3.2h-56.2c-1.8 0-3.2 1.4-3.2 3.2v9.3h-9.3c-1.8 0-3.2-1.4-3.2-3.1v-12.5c0-1.7 1.4-3.1 3.2-3.1h81.2c1.7 0 3.1 1.4 3.1 3.1v12.5z"></path>
</svg>
