<?xml version="1.0" encoding="utf-8"?>
<!-- Generated by IcoMoon.io -->
<!DOCTYPE svg PUBLIC "-//W3C//DTD SVG 1.1//EN" "http://www.w3.org/Graphics/SVG/1.1/DTD/svg11.dtd">
<svg version="1.1" xmlns="http://www.w3.org/2000/svg" xmlns:xlink="http://www.w3.org/1999/xlink" width="100" height="100" viewBox="0 0 100 100">
<path d="M65.6 62.5h-15.6v-15.6c0-1.8-1.4-3.2-3.1-3.2-1.8 0-3.2 1.4-3.2 3.2v15.6h-15.6c-1.7 0-3.1 1.4-3.1 3.1s1.4 3.1 3.1 3.1h15.6v15.7c0 1.7 1.4 3.1 3.2 3.1 1.7 0 3.1-1.4 3.1-3.1v-15.7h15.6c1.7 0 3.1-1.4 3.1-3.1s-1.4-3.1-3.1-3.1zM93.7 12.5h-50v-6.3c0-3.4-2.8-6.2-6.2-6.2h-31.3c-3.4 0-6.2 2.8-6.2 6.2v87.5c0 3.5 2.8 6.3 6.2 6.3h87.5c3.5 0 6.3-2.8 6.3-6.3v-75c0-3.4-2.8-6.2-6.3-6.2zM93.7 34.4v56.2c0 1.8-1.4 3.1-3.1 3.1h-81.2c-1.8 0-3.2-1.3-3.2-3.1v-59.4h87.5v3.2zM90.6 25h-84.4v-15.6c0-1.8 1.4-3.2 3.2-3.2h25c1.7 0 3.1 1.4 3.1 3.2v9.3h53.1c1.7 0 3.1 1.4 3.1 3.2s-1.4 3.1-3.1 3.1z"></path>
</svg>
