<?xml version="1.0" encoding="utf-8"?>
<!-- Generated by IcoMoon.io -->
<!DOCTYPE svg PUBLIC "-//W3C//DTD SVG 1.1//EN" "http://www.w3.org/Graphics/SVG/1.1/DTD/svg11.dtd">
<svg version="1.1" xmlns="http://www.w3.org/2000/svg" xmlns:xlink="http://www.w3.org/1999/xlink" width="100" height="100" viewBox="0 0 100 100">
<path d="M26.1 55.5c0 0.2-0.2 0.5-0.2 0.7h14.7c1.7 0 3.1-1.4 3.1-3.1s-1.4-3.1-3.1-3.1h-4.3c3.4-3.8 8.2-6.3 13.7-6.3 9.3 0 16.9 6.8 18.4 15.7h6.3c-1.6-12.3-12-21.9-24.7-21.9-7.6 0-14.2 3.5-18.8 8.9v-5.8c0-1.7-1.4-3.1-3.1-3.1s-3.1 1.4-3.1 3.1v12.5c0 0.5 0.1 0.9 0.3 1.3 0 0 0 0.1 0 0.1 0.2 0.4 0.5 0.7 0.8 1zM93.7 12.5h-50v-6.3c0-3.4-2.8-6.2-6.2-6.2h-31.3c-3.4 0-6.2 2.8-6.2 6.2v87.5c0 3.5 2.8 6.3 6.2 6.3h87.5c3.5 0 6.3-2.8 6.3-6.3v-75c0-3.4-2.8-6.2-6.3-6.2zM93.7 34.4v56.2c0 1.7-1.4 3.1-3.1 3.1h-81.2c-1.8 0-3.2-1.4-3.2-3.1v-59.4h87.5v3.2zM90.6 25h-84.4v-15.6c0-1.8 1.4-3.2 3.2-3.2h25c1.7 0 3.1 1.4 3.1 3.2v9.3h53.1c1.7 0 3.1 1.4 3.1 3.2 0 1.7-1.4 3.1-3.1 3.1zM74.6 70.5c-0.2-0.4-0.4-0.7-0.8-1 0.1-0.3 0.2-0.5 0.3-0.8h-14.7c-1.8 0-3.2 1.4-3.2 3.2s1.4 3.1 3.2 3.1h4.3c-3.5 3.8-8.2 6.2-13.7 6.2-9.3 0-16.9-6.7-18.4-15.6h-6.3c1.6 12.3 12 21.9 24.7 21.9 7.6 0 14.2-3.6 18.7-8.9v5.8c0 1.7 1.5 3.1 3.2 3.1s3.1-1.4 3.1-3.1v-12.5c0-0.5-0.1-0.9-0.3-1.4 0 0 0 0-0.1 0z"></path>
</svg>
