<?xml version="1.0" encoding="utf-8"?>
<!-- Generated by IcoMoon.io -->
<!DOCTYPE svg PUBLIC "-//W3C//DTD SVG 1.1//EN" "http://www.w3.org/Graphics/SVG/1.1/DTD/svg11.dtd">
<svg version="1.1" xmlns="http://www.w3.org/2000/svg" xmlns:xlink="http://www.w3.org/1999/xlink" width="100" height="100" viewBox="0 0 100 100">
<path d="M47.5 79.9c0 0 0.1 0.1 0.1 0.1 0.1 0.1 0.1 0.3 0.2 0.3 0.1 0.2 0.3 0.1 0.4 0.2 0.4 0.4 1 0.6 1.6 0.7 0 0 0.1 0 0.2 0 0 0 0 0 0 0s0 0 0 0c0.1 0 0.1 0 0.2 0 0.7 0 1.4-0.3 1.9-0.8 0 0 0.1 0 0.1-0.1 0.1 0 0.1-0.1 0.1-0.1s0-0.1 0.1-0.1l31.1-34.3c1.2-1.2 1.2-3.1 0-4.3s-3.1-1.2-4.3 0l-26.1 28.6v-67c0-1.7-1.4-3.1-3.1-3.1s-3.1 1.4-3.1 3.1v67l-26.1-28.6c-1.2-1.2-3.1-1.2-4.3 0s-1.2 3.1 0 4.3l31 34.1zM87.5 93.7h-75c-1.7 0-3.1 1.4-3.1 3.2 0 1.7 1.4 3.1 3.1 3.1h75c1.7 0 3.1-1.4 3.1-3.1 0-1.8-1.4-3.2-3.1-3.2z"></path>
</svg>
