<?xml version="1.0" encoding="utf-8"?>
<!-- Generated by IcoMoon.io -->
<!DOCTYPE svg PUBLIC "-//W3C//DTD SVG 1.1//EN" "http://www.w3.org/Graphics/SVG/1.1/DTD/svg11.dtd">
<svg version="1.1" xmlns="http://www.w3.org/2000/svg" xmlns:xlink="http://www.w3.org/1999/xlink" width="100" height="100" viewBox="0 0 100 100">
<path d="M87.5 0h-75c-6.9 0-12.5 5.6-12.5 12.5v75c0 6.9 5.6 12.5 12.5 12.5h87.5v-100h-12.5zM93.7 93.7h-81.2c-3.5 0-6.3-2.8-6.3-6.2 0-3.5 2.8-6.3 6.3-6.3h81.2v12.5zM93.7 12.5v62.5h-81.2c-2.3 0-4.4 0.6-6.3 1.7v-64.2c0-3.5 2.8-6.3 6.3-6.3h81.2v6.3zM81.2 12.5h-62.5c-3.4 0-6.2 2.8-6.2 6.2v12.5c0 3.5 2.8 6.3 6.2 6.3h62.5c3.5 0 6.3-2.8 6.3-6.3v-12.5c0-3.4-2.8-6.2-6.3-6.2zM81.2 28.1c0 1.7-1.4 3.1-3.1 3.1h-56.2c-1.8 0-3.2-1.4-3.2-3.1v-6.2c0-1.8 1.4-3.2 3.2-3.2h56.2c1.7 0 3.1 1.4 3.1 3.2v6.2z"></path>
</svg>
