<?xml version="1.0" encoding="utf-8"?>
<!-- Generated by IcoMoon.io -->
<!DOCTYPE svg PUBLIC "-//W3C//DTD SVG 1.1//EN" "http://www.w3.org/Graphics/SVG/1.1/DTD/svg11.dtd">
<svg version="1.1" xmlns="http://www.w3.org/2000/svg" xmlns:xlink="http://www.w3.org/1999/xlink" width="100" height="100" viewBox="0 0 100 100">
<path d="M12.5 15.6c-3.5 0-6.3 2.8-6.3 6.3v68.7c0 3.5 2.8 6.3 6.3 6.3h68.7c3.5 0 6.3-2.8 6.3-6.3h-75v-75zM34.4 28.1h25c1.7 0 3.1-1.4 3.1-3.1s-1.4-3.1-3.1-3.1h-25c-1.8 0-3.2 1.4-3.2 3.1s1.4 3.1 3.2 3.1zM78.1 40.6h-43.7c-1.8 0-3.2 1.4-3.2 3.1 0 1.8 1.4 3.2 3.2 3.2h43.7c1.7 0 3.1-1.4 3.1-3.2 0-1.7-1.4-3.1-3.1-3.1zM78.1 59.4h-43.7c-1.8 0-3.2 1.4-3.2 3.1s1.4 3.1 3.2 3.1h43.7c1.7 0 3.1-1.4 3.1-3.1s-1.4-3.1-3.1-3.1zM87.5 3.1h-62.5c-3.5 0-6.3 2.8-6.3 6.3v68.7c0 3.5 2.8 6.3 6.3 6.3h62.5c3.5 0 6.2-2.8 6.2-6.3v-68.7c0-3.5-2.7-6.3-6.2-6.3zM87.5 75c0 1.7-1.4 3.1-3.1 3.1h-56.3c-1.7 0-3.1-1.4-3.1-3.1v-62.5c0-1.7 1.4-3.1 3.1-3.1h56.3c1.7 0 3.1 1.4 3.1 3.1v62.5z"></path>
</svg>
