<?xml version="1.0" encoding="utf-8"?>
<!-- Generated by IcoMoon.io -->
<!DOCTYPE svg PUBLIC "-//W3C//DTD SVG 1.1//EN" "http://www.w3.org/Graphics/SVG/1.1/DTD/svg11.dtd">
<svg version="1.1" xmlns="http://www.w3.org/2000/svg" xmlns:xlink="http://www.w3.org/1999/xlink" width="100" height="100" viewBox="0 0 100 100">
<path d="M29.2 37.2l17.7 17.8c0.5 0.5 1.1 0.7 1.7 0.9 0.4 0.2 0.9 0.3 1.4 0.3v0c0 0 0 0 0 0s0 0 0 0c0.6 0 1.1-0.1 1.5-0.4 0.5-0.2 1-0.4 1.4-0.8l17.7-17.8c1.4-1.4 1.4-3.7 0-5.1s-3.6-1.4-5.1 0l-12.3 12.4v-41.4c0-1.7-1.4-3.1-3.2-3.1s-3.2 1.4-3.2 3.1v41.6l-12.6-12.6c-1.4-1.4-3.6-1.4-5 0-1.5 1.4-1.5 3.7 0 5.1zM84.4 12.5h-12.5v6.2h8l10.7 37.5h-25v12.5h-31.2v-12.5h-25l10.7-37.5h8v-6.2h-12.5l-12.5 43.7v37.6c0 3.4 2.8 6.2 6.3 6.2h81.2c3.5 0 6.3-2.8 6.3-6.2v-37.6l-12.5-43.7zM90.6 90.6c0 1.7-1.4 3.1-3.1 3.1h-75c-1.7 0-3.1-1.4-3.1-3.1v-25c0-1.7 1.4-3.1 3.1-3.1h15.6v12.5h43.8v-12.5h15.6c1.7 0 3.1 1.4 3.1 3.1v25z"></path>
</svg>
