<?xml version="1.0" encoding="utf-8"?>
<!-- Generated by IcoMoon.io -->
<!DOCTYPE svg PUBLIC "-//W3C//DTD SVG 1.1//EN" "http://www.w3.org/Graphics/SVG/1.1/DTD/svg11.dtd">
<svg version="1.1" xmlns="http://www.w3.org/2000/svg" xmlns:xlink="http://www.w3.org/1999/xlink" width="100" height="100" viewBox="0 0 100 100">
<path d="M83 31.9l-4.4 4.4-28.2 27.9-11.9 11.7c-7.4 7.3-19.4 7.3-26.8 0s-7.4-19.1 0-26.4l11.9-11.8 10.4-10.2 7.9-7.8 1-1 4.5-4.4 4.4-4.4c0.1-0.1 0.1-0.1 0.2-0.2 4.9-4.8 12.9-4.8 17.8 0 4.9 4.9 4.9 12.8 0 17.6 0 0.1-0.1 0.1-0.1 0.2v0l-9 8.8-1 1-7.9 7.8-4.9 4.8-9.5 9.5-7.9 7.7c-2.4 2.5-6.4 2.5-8.9 0s-2.4-6.4 0-8.8l4.5-4.4 3.3-3.3 4.8-4.7 4.8-4.8 9.4-9.2 4.6-4.6 4.3-4.2-4.5-4.4-3.1 3-10.2 10.2-6.8 6.6-5.6 5.6-5.5 5.4-4.4 4.4c-4.8 4.9-4.8 12.7 0.1 17.5s12.7 4.8 17.7 0.1v0l9.9-9.8 5.7-5.6 15.6-15.4 4.5-4.4 4.4-4.4c7.4-7.3 7.4-19.2 0-26.4-7.4-7.3-19.3-7.3-26.7 0l-4.5 4.4-4.4 4.4-31.3 30.8c-9.7 9.8-9.6 25.4 0.2 35.1s25.6 9.7 35.5 0.1v0l44.6-44-4.5-4.4z"></path>
</svg>
