<?xml version="1.0" encoding="utf-8"?>
<!-- Generated by IcoMoon.io -->
<!DOCTYPE svg PUBLIC "-//W3C//DTD SVG 1.1//EN" "http://www.w3.org/Graphics/SVG/1.1/DTD/svg11.dtd">
<svg version="1.1" xmlns="http://www.w3.org/2000/svg" xmlns:xlink="http://www.w3.org/1999/xlink" width="100" height="100" viewBox="0 0 100 100">
<path d="M53.1 31.2h-6.2v12.5h-12.5v6.3h12.5v12.5h6.2v-12.5h12.5v-6.3h-12.5v-12.5zM90.6 3.1c0-1.7-1.4-3.1-3.1-3.1h-75c-1.7 0-3.1 1.4-3.1 3.1v93.8c0 1.7 1.4 3.1 3.1 3.1h53.1l25-25v-71.9zM65.6 92.3v-17.3h17.3l-17.3 17.3zM84.4 68.7h-25v25h-40.7c-1.7 0-3.1-1.4-3.1-3.1v-81.2c0-1.8 1.4-3.2 3.1-3.2h62.5c1.8 0 3.2 1.4 3.2 3.2v59.3z"></path>
</svg>
