<?xml version="1.0" encoding="utf-8"?>
<!-- Generated by IcoMoon.io -->
<!DOCTYPE svg PUBLIC "-//W3C//DTD SVG 1.1//EN" "http://www.w3.org/Graphics/SVG/1.1/DTD/svg11.dtd">
<svg version="1.1" xmlns="http://www.w3.org/2000/svg" xmlns:xlink="http://www.w3.org/1999/xlink" width="100" height="100" viewBox="0 0 100 100">
<path d="M100 37.5l-12.5-37.5h-75l-12.5 37.5c0 5.7 2.3 11.4 6.2 15v47.5h87.5v-46.5c4.8-3.4 6.3-9.7 6.3-16v0zM16.7 6.2h66.6l8.4 25h-83.4l8.4-25zM87.5 93.7h-75v-12.5h75v12.5zM87.5 75h-75v-19.1c0.9 0.2 1.9 0.3 2.9 0.3 4.7 0 9.8-2.3 12.7-6.2 2.5 3.8 5.9 6.2 10.9 6.2 4.5 0 8.4-3 11-6.2 2.6 3.2 6.5 6.2 11 6.2 5 0 8.3-2.4 10.9-6.2 2.9 3.9 7.8 6.2 12.5 6.2 1.1 0 2.1-0.1 3.1-0.3v19.1zM84.6 50c-9.6 0-9.6-6.3-9.6-6.3h-6.3c0 0 0 6.3-7.7 6.3-7.9 0-7.7-6.3-7.7-6.3h-6.6c0 0 0.2 6.3-7.7 6.3-7.8 0-7.8-6.3-7.8-6.3h-6.2c0 6.3-5.2 6.3-9.6 6.3s-8-7.1-9.1-12.5h87.4c0 0 0 12.5-9.1 12.5z"></path>
</svg>
