<?xml version="1.0" encoding="utf-8"?>
<!-- Generated by IcoMoon.io -->
<!DOCTYPE svg PUBLIC "-//W3C//DTD SVG 1.1//EN" "http://www.w3.org/Graphics/SVG/1.1/DTD/svg11.dtd">
<svg version="1.1" xmlns="http://www.w3.org/2000/svg" xmlns:xlink="http://www.w3.org/1999/xlink" width="100" height="100" viewBox="0 0 100 100">
<path d="M35.9 71.6l4.5 4.4 22.1-22.1-4.5-4.4-22.1 22.1zM49.2 40.6l-22.1 22.1 4.4 4.5 22.1-22.1-4.4-4.5zM65.1 17.4c-4.8 4.9-4.8 12.7 0 17.5s12.6 4.8 17.5 0c4.8-4.8 4.8-12.6 0-17.5-4.9-4.8-12.7-4.8-17.5 0zM78.2 30.5c-2.4 2.4-6.3 2.4-8.7 0s-2.4-6.3 0-8.7 6.3-2.4 8.7 0c2.4 2.4 2.4 6.3 0 8.7zM95.7 4.4l-43.7-4.4-50.2 50.2c-2.5 2.4-2.5 6.3 0 8.7l39.3 39.3c2.4 2.4 6.3 2.4 8.7 0l50.2-50.2-4.3-43.6zM47.6 91.6c-1.2 1.2-3.1 1.2-4.3 0l-35-34.9c-1.2-1.2-1.2-3.1 0-4.3l45.9-45.9 37.1 2.2 2.2 37.1-45.9 45.8z"></path>
</svg>
