<?xml version="1.0" encoding="utf-8"?>
<!-- Generated by IcoMoon.io -->
<!DOCTYPE svg PUBLIC "-//W3C//DTD SVG 1.1//EN" "http://www.w3.org/Graphics/SVG/1.1/DTD/svg11.dtd">
<svg version="1.1" xmlns="http://www.w3.org/2000/svg" xmlns:xlink="http://www.w3.org/1999/xlink" width="100" height="100" viewBox="0 0 100 100">
<path d="M93.7 74l-22.7-56.1c-0.5-1.6-3.9-2.2-3.9-2.2h-1.4v-0.1h-31.3v0.1h-1.5c0 0-3.4 0.6-3.9 2.2l-22.8 56.1c-0.4 1.7 0.6 3.4 2.3 3.8l30.5 6.5c1.7 0.4 3.4-0.6 3.9-2.3l7.1-17.5 7.1 17.5c0.5 1.7 2.2 2.7 3.9 2.3l30.5-6.5c1.7-0.4 2.7-2.2 2.2-3.8zM83.9 73.4l-18.4 3.2c-1.7 0.5-3.4-0.5-3.8-2.2l-11.7-28-11.6 28c-0.4 1.7-2.1 2.7-3.8 2.2l-18.4-3.2c-1.7-0.4-2.7-2.2-2.3-3.8l15.1-35.2h11.6v-6.3h-8.9l2.6-6.1 0.1-0.1h31.3v0.1l2.7 6.1h-9v6.3h11.7l15 35.2c0.5 1.6-0.5 3.4-2.2 3.8z"></path>
</svg>
