<?xml version="1.0" encoding="utf-8"?>
<!-- Generated by IcoMoon.io -->
<!DOCTYPE svg PUBLIC "-//W3C//DTD SVG 1.1//EN" "http://www.w3.org/Graphics/SVG/1.1/DTD/svg11.dtd">
<svg version="1.1" xmlns="http://www.w3.org/2000/svg" xmlns:xlink="http://www.w3.org/1999/xlink" width="100" height="100" viewBox="0 0 100 100">
<path d="M59.4 62.5h25v-6.3h-25v6.3zM90.6 18.7h-13.5c-3.1-10.7-14-18.7-27.1-18.7s-24 8-27.1 18.7h-13.5c-3.5 0-6.3 2.9-6.3 6.5v68.3c0 3.6 2.8 6.5 6.3 6.5h81.2c3.5 0 6.3-2.9 6.3-6.5v-68.3c0-3.6-2.8-6.5-6.3-6.5zM46.9 93.7h-34.4c-1.7 0-3.1-1.4-3.1-3.2v-62.2c0-1.9 1.4-3.3 3.1-3.3h9.4c0 12.9 10.9 23.3 25 24.7v44zM28.1 25c0-10.4 9.8-18.8 21.9-18.8s21.9 8.4 21.9 18.8c0 10.3-9.8 18.7-21.9 18.7s-21.9-8.4-21.9-18.7zM90.6 90.5c0 1.8-1.4 3.2-3.1 3.2h-34.4v-44c14.1-1.4 25-11.8 25-24.7h9.4c1.7 0 3.1 1.4 3.1 3.3v62.2z"></path>
</svg>
