<?xml version="1.0" encoding="utf-8"?>
<!-- Generated by IcoMoon.io -->
<!DOCTYPE svg PUBLIC "-//W3C//DTD SVG 1.1//EN" "http://www.w3.org/Graphics/SVG/1.1/DTD/svg11.dtd">
<svg version="1.1" xmlns="http://www.w3.org/2000/svg" xmlns:xlink="http://www.w3.org/1999/xlink" width="100" height="100" viewBox="0 0 100 100">
<path d="M51 46.8v-14.1c3.9 0.5 7.4 2.1 10.2 5l3.4-4c-3.4-3.3-7.9-5.5-13.6-5.9v-6h-4.2v5.9c-8.2 0.6-14.1 5.3-14.1 12 0 8 7.2 10.2 14.1 12v15.8c-5.4-0.6-9.5-3.2-12.2-6.1l-3.4 4.1c3.4 3.7 8.7 6.4 15.6 6.8v5.8h4.2v-5.8c10.6-0.7 14.6-6.8 14.6-12.6 0-8.5-7.5-11-14.6-12.9zM46.8 45.8c-4.6-1.3-8.2-2.9-8.2-6.4 0-3.8 3.4-6.5 8.2-6.8v13.2zM51 67.5v-14.8c4.8 1.4 8.7 3.1 8.7 7.4 0 3.1-2.2 6.8-8.7 7.4zM50 0c-27.6 0-50 22.4-50 50s22.4 50 50 50c27.6 0 50-22.4 50-50s-22.4-50-50-50zM50 93.7c-24.2 0-43.8-19.6-43.8-43.7 0-24.2 19.6-43.8 43.8-43.8s43.7 19.6 43.7 43.8c0 24.1-19.5 43.7-43.7 43.7z"></path>
</svg>
