<?xml version="1.0" encoding="utf-8"?>
<!-- Generated by IcoMoon.io -->
<!DOCTYPE svg PUBLIC "-//W3C//DTD SVG 1.1//EN" "http://www.w3.org/Graphics/SVG/1.1/DTD/svg11.dtd">
<svg version="1.1" xmlns="http://www.w3.org/2000/svg" xmlns:xlink="http://www.w3.org/1999/xlink" width="100" height="100" viewBox="0 0 100 100">
<path d="M81.2 18.7h-12.5v-3.1c0-8.6-6.9-15.6-15.6-15.6h-6.2c-8.7 0-15.7 7-15.7 15.6v3.1h-12.5c-3.4 0-6.2 2.8-6.2 6.3v68.7c0 3.5 2.8 6.3 6.2 6.3h62.5c3.5 0 6.3-2.8 6.3-6.3v-68.7c0-3.5-2.8-6.3-6.3-6.3zM37.5 15.6c0-5.2 4.2-9.4 9.4-9.4h6.2c5.2 0 9.4 4.2 9.4 9.4v3.1h-25v-3.1zM81.2 90.6c0 1.7-1.4 3.1-3.1 3.1h-56.2c-1.8 0-3.2-1.4-3.2-3.1v-9.4h62.5v9.4zM81.2 75h-62.5v-46.9c0-1.7 1.4-3.1 3.2-3.1h9.3v12.5h6.3v-12.5h25v12.5h6.2v-12.5h9.4c1.7 0 3.1 1.4 3.1 3.1v46.9z"></path>
</svg>
