<?xml version="1.0" encoding="utf-8"?>
<!-- Generated by IcoMoon.io -->
<!DOCTYPE svg PUBLIC "-//W3C//DTD SVG 1.1//EN" "http://www.w3.org/Graphics/SVG/1.1/DTD/svg11.dtd">
<svg version="1.1" xmlns="http://www.w3.org/2000/svg" xmlns:xlink="http://www.w3.org/1999/xlink" width="100" height="100" viewBox="0 0 100 100">
<path d="M31.2 87.5c-3.4 0-6.2 2.8-6.2 6.2s2.8 6.3 6.2 6.3 6.3-2.8 6.3-6.3-2.8-6.2-6.3-6.2zM87.5 62.5c3.5 0 6.2-2.8 6.2-6.3l6.3-50c0-3.4-2.8-6.2-6.3-6.2h-93.7v6.2h12.5v75h81.2v-6.2h-75v-12.5h68.8zM18.7 9.4c0-1.8 1.4-3.2 3.2-3.2h68.7c1.7 0 3.1 1.4 3.1 3.2l-6.2 43.7c0 1.7-1.4 3.1-3.1 3.1h-62.5c-1.8 0-3.2-1.4-3.2-3.1v-43.7zM75 87.5c-3.5 0-6.3 2.8-6.3 6.2s2.8 6.3 6.3 6.3 6.2-2.8 6.2-6.3-2.7-6.2-6.2-6.2z"></path>
</svg>
