<?xml version="1.0" encoding="utf-8"?>
<!-- Generated by IcoMoon.io -->
<!DOCTYPE svg PUBLIC "-//W3C//DTD SVG 1.1//EN" "http://www.w3.org/Graphics/SVG/1.1/DTD/svg11.dtd">
<svg version="1.1" xmlns="http://www.w3.org/2000/svg" xmlns:xlink="http://www.w3.org/1999/xlink" width="100" height="100" viewBox="0 0 100 100">
<path d="M34.4 87.5h31.2v-6.3h-31.2v6.3zM34.4 40.6c0 8.6 7 15.6 15.6 15.6s15.6-7 15.6-15.6c0-8.6-7-15.6-15.6-15.6s-15.6 7-15.6 15.6zM59.4 40.6c0 5.2-4.2 9.4-9.4 9.4s-9.4-4.2-9.4-9.4c0-5.2 4.2-9.4 9.4-9.4s9.4 4.2 9.4 9.4zM50 0l-34.4 27.3v66.4c0 3.5 2.8 6.3 6.3 6.3h56.2c3.5 0 6.3-2.8 6.3-6.3v-66.4l-34.4-27.3zM78.1 90.5c0 1.8-1.4 3.2-3.1 3.2h-50c-1.7 0-3.1-1.4-3.1-3.2v-60.1l28.1-24.2 28.1 24.2v60.1z"></path>
</svg>
