<?xml version="1.0" encoding="utf-8"?>
<!-- Generated by IcoMoon.io -->
<!DOCTYPE svg PUBLIC "-//W3C//DTD SVG 1.1//EN" "http://www.w3.org/Graphics/SVG/1.1/DTD/svg11.dtd">
<svg version="1.1" xmlns="http://www.w3.org/2000/svg" xmlns:xlink="http://www.w3.org/1999/xlink" width="100" height="100" viewBox="0 0 100 100">
<path d="M40.6 25c-8.6 0-15.6 7-15.6 15.6s7 15.6 15.6 15.6c8.6 0 15.6-7 15.6-15.6s-7-15.6-15.6-15.6zM40.6 50c-5.2 0-9.4-4.2-9.4-9.4s4.2-9.4 9.4-9.4c5.2 0 9.4 4.2 9.4 9.4s-4.2 9.4-9.4 9.4zM81.2 62.5v-43.8c0-3.4-2.7-6.2-6.2-6.2h-68.8c-3.4 0-6.2 2.8-6.2 6.2v43.8c0 3.5 2.8 6.2 6.2 6.2h68.8c3.5 0 6.2-2.8 6.2-6.2zM71.9 62.5h-62.5c-1.8 0-3.2-1.4-3.2-3.1v-37.5c0-1.8 1.4-3.2 3.2-3.2h62.5c1.7 0 3.1 1.4 3.1 3.2v37.5c0 1.7-1.4 3.1-3.1 3.1zM93.7 31.2h-6.2v6.3h3.1c1.7 0 3.1 1.4 3.1 3.1v37.5c0 1.8-1.4 3.1-3.1 3.1h-62.5c-1.7 0-3.1-1.3-3.1-3.1v-3.1h-6.3v6.2c0 3.5 2.8 6.3 6.3 6.3h68.7c3.5 0 6.3-2.8 6.3-6.3v-43.7c0-3.5-2.8-6.3-6.3-6.3z"></path>
</svg>
