<?xml version="1.0" encoding="utf-8"?>
<!-- Generated by IcoMoon.io -->
<!DOCTYPE svg PUBLIC "-//W3C//DTD SVG 1.1//EN" "http://www.w3.org/Graphics/SVG/1.1/DTD/svg11.dtd">
<svg version="1.1" xmlns="http://www.w3.org/2000/svg" xmlns:xlink="http://www.w3.org/1999/xlink" width="100" height="100" viewBox="0 0 100 100">
<path d="M50 28.1c-10.4 0-18.8 8.4-18.8 18.8 0 10.3 8.4 18.7 18.8 18.7 10.3 0 18.7-8.4 18.7-18.7 0-10.4-8.4-18.8-18.7-18.8zM50 59.4c-6.9 0-12.5-5.6-12.5-12.5s5.6-12.5 12.5-12.5c6.9 0 12.5 5.6 12.5 12.5s-5.6 12.5-12.5 12.5zM87.5 9.4h-75c-6.9 0-12.5 5.6-12.5 12.5v56.2c0 6.9 5.6 12.5 12.5 12.5h75c6.9 0 12.5-5.6 12.5-12.5v-56.2c0-6.9-5.6-12.5-12.5-12.5zM93.7 78.1c0 3.5-2.7 6.3-6.2 6.3h-17.2l23.4-23.5v17.2zM93.7 51.6l-32.8 32.8h-48.4c-3.5 0-6.3-2.8-6.3-6.3v-56.2c0-3.5 2.8-6.3 6.3-6.3h75c3.5 0 6.2 2.8 6.2 6.3v29.7z"></path>
</svg>
