<?xml version="1.0" encoding="utf-8"?>
<!-- Generated by IcoMoon.io -->
<!DOCTYPE svg PUBLIC "-//W3C//DTD SVG 1.1//EN" "http://www.w3.org/Graphics/SVG/1.1/DTD/svg11.dtd">
<svg version="1.1" xmlns="http://www.w3.org/2000/svg" xmlns:xlink="http://www.w3.org/1999/xlink" width="100" height="100" viewBox="0 0 100 100">
<path d="M43.7 84.4c-3.4 0-6.2 2.8-6.2 6.2 0 3.5 2.8 6.3 6.2 6.3s6.3-2.8 6.3-6.3c0-3.4-2.8-6.2-6.3-6.2zM99.9 31.7c0-0.2 0.1-0.3 0.1-0.5 0-0.4-0.1-0.9-0.3-1.3-0.1-0.2-0.3-0.4-0.4-0.5-0.3-0.5-0.7-0.8-1.2-1-0.1-0.1-0.2-0.2-0.3-0.2-0.3-0.1-0.6-0.1-0.9-0.1 0 0 0 0 0 0h-0.1c-0.1 0-0.1 0-0.1 0h-11.1l-19.1-16.9c-2.4-2.5-6.4-2.5-8.8 0l-17 16.9h-9.3l-6.1-22.7c-0.4-1.4-1.8-2.3-3.3-2.3-0.1 0-0.1 0-0.1 0h-18.8c-1.7 0-3.1 1.4-3.1 3.1s1.4 3.2 3.1 3.2h16.3l5.7 21.3c0 0.2-0.1 0.3-0.1 0.5 0 0.8 0.3 1.6 0.8 2.1l11.3 42.6c0.5 1.4 1.9 2.2 3.4 2.2 0 0 0.1 0 0.1 0h43.8c0 0 0 0 0 0 0.1 0 0.3 0 0.5-0.1 1.4-0.2 2.6-1.5 2.6-3 0-0.2-0.1-0.3-0.1-0.5l12.5-42.5c0.1-0.1 0-0.2 0-0.3zM62.1 15.8l13.9 12.3h-26.1l12.2-12.3zM82 71.9h-38.9l-10-37.5h60l-11.1 37.5zM75 84.4c-3.5 0-6.3 2.8-6.3 6.2 0 3.5 2.8 6.3 6.3 6.3s6.2-2.8 6.2-6.3c0-3.4-2.7-6.2-6.2-6.2z"></path>
</svg>
