<?xml version="1.0" encoding="utf-8"?>
<!-- Generated by IcoMoon.io -->
<!DOCTYPE svg PUBLIC "-//W3C//DTD SVG 1.1//EN" "http://www.w3.org/Graphics/SVG/1.1/DTD/svg11.dtd">
<svg version="1.1" xmlns="http://www.w3.org/2000/svg" xmlns:xlink="http://www.w3.org/1999/xlink" width="100" height="100" viewBox="0 0 100 100">
<path d="M93.4 35.7c0.4-0.9 0.5-2-0.1-3l-15.2-31.2c-0.5-0.9-1.5-1.3-2.6-1.4-0.1 0-0.3-0.1-0.5-0.1h-50c-0.2 0-0.4 0.1-0.5 0.1-1.1 0.1-2.1 0.5-2.7 1.4l-15.1 31.3c-0.6 0.9-0.5 2-0.1 2.9-0.2 0.6-0.4 1.1-0.4 1.8v56.2c0 3.5 2.8 6.3 6.3 6.3h75c3.5 0 6.2-2.8 6.2-6.3v-56.2c0-0.7-0.1-1.2-0.3-1.8zM73.1 6.2l12.1 25h-23.7l-4.2-25h15.8zM50 6.2l6.2 25h-12.5l6.3-25zM43.7 37.5h12.5v25h-12.5v-25zM26.9 6.2h15.8l-4.2 25h-23.7l12.1-25zM87.5 90.6c0 1.7-1.4 3.1-3.1 3.1h-68.8c-1.7 0-3.1-1.4-3.1-3.1v-50c0-1.7 1.4-3.1 3.1-3.1h21.9v31.2h25v-31.2h21.9c1.7 0 3.1 1.4 3.1 3.1v50z"></path>
</svg>
