<?xml version="1.0" encoding="utf-8"?>
<!-- Generated by IcoMoon.io -->
<!DOCTYPE svg PUBLIC "-//W3C//DTD SVG 1.1//EN" "http://www.w3.org/Graphics/SVG/1.1/DTD/svg11.dtd">
<svg version="1.1" xmlns="http://www.w3.org/2000/svg" xmlns:xlink="http://www.w3.org/1999/xlink" width="100" height="100" viewBox="0 0 100 100">
<path d="M6.2 0v100h6.6l11.6-12.5 12.9 12.5 12.4-12.5 12.9 12.5 12-12.5 12.3 12.5h6.9v-100h-87.6zM87.5 91.7l-12.9-13.2-4.5 4.7-7.7 7.9-8.3-8.1-4.5-4.3-4.3 4.4-8.1 8.1-8.5-8.2-4.6-4.5-4.3 4.7-7.3 7.9v-84.9h75v85.5zM75 43.7h-50v6.3h50v-6.3zM75 18.7h-50v6.3h50v-6.3zM75 56.2h-50v6.3h50v-6.3z"></path>
</svg>
