<?xml version="1.0" encoding="utf-8"?>
<!-- Generated by IcoMoon.io -->
<!DOCTYPE svg PUBLIC "-//W3C//DTD SVG 1.1//EN" "http://www.w3.org/Graphics/SVG/1.1/DTD/svg11.dtd">
<svg version="1.1" xmlns="http://www.w3.org/2000/svg" xmlns:xlink="http://www.w3.org/1999/xlink" width="100" height="100" viewBox="0 0 100 100">
<path d="M100 12.5c0-6.9-5.6-12.5-12.5-12.5h-75c-6.9 0-12.5 5.6-12.5 12.5v6.3c0 1 0.2 2.1 0.4 3.1-0.2 1-0.4 2-0.4 3.1v62.5c0 6.9 5.6 12.5 12.5 12.5h75c6.9 0 12.5-5.6 12.5-12.5v-62.5c0-1.1-0.2-2.1-0.4-3.1 0.2-1 0.4-2.1 0.4-3.1v-6.3zM93.7 87.5c0 3.5-2.7 6.2-6.2 6.2h-75c-3.5 0-6.3-2.7-6.3-6.2v-58c1.9 1.1 4 1.8 6.3 1.8h75c2.3 0 4.4-0.7 6.2-1.8v58zM93.7 18.8c0 3.4-2.7 6.2-6.2 6.2h-75c-3.5 0-6.3-2.8-6.3-6.2v-6.3c0-3.5 2.8-6.3 6.3-6.3h75c3.5 0 6.2 2.8 6.2 6.3v6.3zM84.4 43.7h-12.5c-1.7 0-3.2 1.4-3.2 3.2s1.5 3.1 3.2 3.1h3.1c0 13.8-11.2 25-25 25s-25-11.2-25-25h3.1c1.7 0 3.1-1.4 3.1-3.1s-1.4-3.2-3.1-3.2h-12.5c-1.7 0-3.1 1.4-3.1 3.2s1.4 3.1 3.1 3.1h3.1c0 17.3 14 31.2 31.3 31.2s31.2-13.9 31.2-31.2h3.2c1.7 0 3.1-1.4 3.1-3.1s-1.4-3.2-3.1-3.2z"></path>
</svg>
