<?xml version="1.0" encoding="utf-8"?>
<!-- Generated by IcoMoon.io -->
<!DOCTYPE svg PUBLIC "-//W3C//DTD SVG 1.1//EN" "http://www.w3.org/Graphics/SVG/1.1/DTD/svg11.dtd">
<svg version="1.1" xmlns="http://www.w3.org/2000/svg" xmlns:xlink="http://www.w3.org/1999/xlink" width="100" height="100" viewBox="0 0 100 100">
<path d="M47.5 74c0.1 0.1 0.3 0.1 0.5 0.2 0.5 0.5 1.2 0.8 2 0.8 0.9 0 1.7-0.4 2.3-1 0 0 0 0 0 0l18.6-18.5c1.2-1.3 1.2-3.3 0-4.6-1.3-1.3-3.4-1.3-4.7 0l-13.1 13v-48.3c0-1.7-1.4-3.1-3.1-3.1s-3.1 1.4-3.1 3.1v48.5l-13.3-13.2c-1.3-1.3-3.4-1.3-4.7 0-1.2 1.3-1.2 3.3 0 4.6l18.6 18.5zM75 81.2h-50c-1.7 0-3.1 1.4-3.1 3.2s1.4 3.1 3.1 3.1h50c1.7 0 3.1-1.4 3.1-3.1s-1.4-3.2-3.1-3.2zM78.1 0h-56.2c-10.4 0-18.8 8.4-18.8 18.7v62.5c0 10.4 8.4 18.8 18.8 18.8h56.2c10.4 0 18.8-8.4 18.8-18.8v-62.5c0-10.3-8.4-18.7-18.8-18.7zM90.6 81.2c0 6.9-5.6 12.5-12.5 12.5h-56.2c-6.9 0-12.5-5.6-12.5-12.5v-62.5c0-6.9 5.6-12.5 12.5-12.5h56.2c6.9 0 12.5 5.6 12.5 12.5v62.5z"></path>
</svg>
