<?xml version="1.0" encoding="utf-8"?>
<!-- Generated by IcoMoon.io -->
<!DOCTYPE svg PUBLIC "-//W3C//DTD SVG 1.1//EN" "http://www.w3.org/Graphics/SVG/1.1/DTD/svg11.dtd">
<svg version="1.1" xmlns="http://www.w3.org/2000/svg" xmlns:xlink="http://www.w3.org/1999/xlink" width="100" height="100" viewBox="0 0 100 100">
<path d="M93.7 25h-12.5v-14.2c0-6-4.6-10.8-10.2-10.8h-60.8c-5.1 0-9.2 4.1-9.9 9.3h-0.3v84.5c0 3.4 2.8 6.2 6.3 6.2h87.5c3.4 0 6.2-2.8 6.2-6.2v-62.6c0-3.4-2.8-6.2-6.3-6.2zM6.2 18.7v0-9.3c0-1.8 1.4-3.2 3.2-3.2h62.5c1.7 0 3.1 1.4 3.1 3.2v9.3c0 0 0 0 0 0v6.3h-68.8v-6.3zM93.7 90.6c0 1.7-1.4 3.2-3.1 3.2h-81.2c-1.8 0-3.2-1.5-3.2-3.2v-56.2c0-1.8 1.4-3.2 3.2-3.2h81.2c1.7 0 3.1 1.4 3.1 3.2v56.2zM78.1 49.9c-5.2 0-9.4 4.2-9.4 9.4s4.2 9.4 9.4 9.4 9.3-4.2 9.3-9.4c0-5.2-4.2-9.4-9.3-9.4zM78.1 62.5c-1.7 0-3.1-1.4-3.1-3.1s1.4-3.1 3.1-3.1 3.1 1.4 3.1 3.1c0 1.7-1.4 3.1-3.1 3.1z"></path>
</svg>
