<?xml version="1.0" encoding="utf-8"?>
<!-- Generated by IcoMoon.io -->
<!DOCTYPE svg PUBLIC "-//W3C//DTD SVG 1.1//EN" "http://www.w3.org/Graphics/SVG/1.1/DTD/svg11.dtd">
<svg version="1.1" xmlns="http://www.w3.org/2000/svg" xmlns:xlink="http://www.w3.org/1999/xlink" width="100" height="100" viewBox="0 0 100 100">
<path d="M93.7 89.6l-22.7-87.3c-0.3-1.1-1.2-1.8-2.3-2.1v-0.2h-6.2c0 0 0 0 0 0h-25c0 0 0 0 0 0h-6.3v0.2c-1 0.3-1.9 1-2.2 2.1l-22.7 87.3c-0.5 1.7 0.5 3.4 2.2 3.8l24.3 6.5c1.6 0.4 3.3-0.6 3.8-2.2l13.4-51.5 13.4 51.5c0.4 1.6 2.2 2.6 3.8 2.2l24.3-6.5c1.6-0.4 2.6-2.1 2.2-3.8zM83.8 89l-12.1 3.3c-1.7 0.4-3.4-0.6-3.9-2.2l-17.6-68.2h-0.4l-17.6 68.2c-0.5 1.6-2.2 2.6-3.9 2.2l-12.1-3.3c-1.7-0.4-2.7-2.1-2.2-3.8l17.2-66.4h9.4v-6.3h-7.8l1.6-6.2h31.2l1.6 6.2h-7.8v6.3h9.4l17.2 66.4c0.5 1.7-0.5 3.4-2.2 3.8z"></path>
</svg>
