<?xml version="1.0" encoding="utf-8"?>
<!-- Generated by IcoMoon.io -->
<!DOCTYPE svg PUBLIC "-//W3C//DTD SVG 1.1//EN" "http://www.w3.org/Graphics/SVG/1.1/DTD/svg11.dtd">
<svg version="1.1" xmlns="http://www.w3.org/2000/svg" xmlns:xlink="http://www.w3.org/1999/xlink" width="100" height="100" viewBox="0 0 100 100">
<path d="M87.5 21.9c0-10.4-16.8-18.8-37.5-18.8s-37.5 8.4-37.5 18.8c0 1 0.3 2.1 0.6 3.1h-0.6v15.6c0 0 0 0 0 0v40.6h0.6c3 8.9 18.3 15.7 36.9 15.7s33.9-6.8 36.9-15.7h0.6v-56.2h-0.6c0.3-1 0.6-2.1 0.6-3.1zM81.2 78.1c0 6.9-13.9 12.5-31.2 12.5s-31.2-5.6-31.3-12.5v-8.4c6.8 5.1 18.2 8.4 31.3 8.4s24.5-3.3 31.2-8.4v8.4zM81.2 59.4c0 6.9-13.9 12.5-31.2 12.5s-31.2-5.6-31.3-12.5v-8.4c6.8 5 18.2 8.4 31.3 8.4s24.5-3.4 31.2-8.4v8.4zM81.2 40.6c0 6.9-13.9 12.5-31.2 12.5s-31.2-5.6-31.3-12.5v-8.4c6.8 5.1 18.2 8.4 31.3 8.4s24.5-3.3 31.2-8.4v8.4zM50 34.4c-17.3 0-31.3-5.6-31.3-12.5s14-12.5 31.3-12.5 31.2 5.6 31.2 12.5c0 6.9-13.9 12.5-31.2 12.5z"></path>
</svg>
