<?xml version="1.0" encoding="utf-8"?>
<!-- Generated by IcoMoon.io -->
<!DOCTYPE svg PUBLIC "-//W3C//DTD SVG 1.1//EN" "http://www.w3.org/Graphics/SVG/1.1/DTD/svg11.dtd">
<svg version="1.1" xmlns="http://www.w3.org/2000/svg" xmlns:xlink="http://www.w3.org/1999/xlink" width="100" height="100" viewBox="0 0 100 100">
<path d="M52 0l-50.2 50.2c-2.5 2.4-2.5 6.3 0 8.7l39.3 39.3c2.4 2.4 6.3 2.4 8.7 0l50.2-50.2v-48h-48zM47.6 91.6c-1.2 1.2-3.1 1.2-4.3 0l-35-34.9c-1.2-1.2-1.2-3.1 0-4.3l6.6-6.6 39.3 39.3-6.6 6.5zM93.5 45.8l-35 34.9-39.3-39.2 35-35 39.6-0.3-0.3 39.6zM82.6 34.9c4.8-4.8 4.8-12.6 0-17.4-4.9-4.9-12.7-4.9-17.5 0-4.8 4.8-4.8 12.6 0 17.4s12.6 4.8 17.5 0zM69.5 21.8c2.4-2.4 6.3-2.4 8.7 0s2.4 6.3 0 8.7c-2.4 2.4-6.3 2.4-8.7 0s-2.4-6.3 0-8.7z"></path>
</svg>
