<?xml version="1.0" encoding="utf-8"?>
<!-- Generated by IcoMoon.io -->
<!DOCTYPE svg PUBLIC "-//W3C//DTD SVG 1.1//EN" "http://www.w3.org/Graphics/SVG/1.1/DTD/svg11.dtd">
<svg version="1.1" xmlns="http://www.w3.org/2000/svg" xmlns:xlink="http://www.w3.org/1999/xlink" width="100" height="100" viewBox="0 0 100 100">
<path d="M50 50c-3.5 0-6.3 2.8-6.3 6.2s2.8 6.3 6.3 6.3c3.5 0 6.2-2.8 6.2-6.3s-2.7-6.2-6.2-6.2zM93.7 50c0-6.9-5.6-12.5-12.5-12.5h-0.2c-1.2-21-14.6-37.5-31-37.5s-29.8 16.5-31 37.5h-0.3c-6.9 0-12.5 5.6-12.5 12.5l0.1 0.5c0 0.3-0.1 0.6-0.1 0.9l2.5 13.7c0 0.1 0 0.1 0.1 0.1l3.7 22.3c0 6.9 5.6 12.5 12.5 12.5h50c6.9 0 12.5-5.6 12.5-12.5l3.7-22.3c0 0 0.1 0 0.1-0.1l2.4-13.7c0-0.3 0-0.6 0-0.9v-0.5zM50 6.2c13 0 23.6 13.8 24.8 31.3h-49.6c1.2-17.5 11.8-31.3 24.8-31.3zM81.2 87.5c0 3.5-2.7 6.2-6.2 6.2h-50c-3.5 0-6.3-2.7-6.3-6.2l-2.8-17c9 5.9 20.9 10.7 34.1 10.7s25.1-4.8 34.1-10.7l-2.9 17zM85.3 63.4c-8 6.9-20.8 11.9-35.3 11.9s-27.3-5.1-35.3-11.9l-2.2-13.4c0-3.5 2.8-6.3 6.2-6.3h62.5c3.5 0 6.3 2.8 6.3 6.3l-2.2 13.4z"></path>
</svg>
