<?xml version="1.0" encoding="utf-8"?>
<!-- Generated by IcoMoon.io -->
<!DOCTYPE svg PUBLIC "-//W3C//DTD SVG 1.1//EN" "http://www.w3.org/Graphics/SVG/1.1/DTD/svg11.dtd">
<svg version="1.1" xmlns="http://www.w3.org/2000/svg" xmlns:xlink="http://www.w3.org/1999/xlink" width="100" height="100" viewBox="0 0 100 100">
<path d="M21.6 34.4c-1.7 0-3.1 1.4-3.1 3.1s1.4 3.1 3.1 3.1h56.8c1.7 0 3.1-1.4 3.1-3.1s-1.4-3.1-3.1-3.1h-56.8zM9 15.6h82c1.7 0 3.1-1.4 3.1-3.1s-1.4-3.1-3.1-3.1h-82c-1.7 0-3.1 1.4-3.1 3.1s1.4 3.1 3.1 3.1zM75.2 84.4h-47.3c-1.7 0-3.1 1.4-3.1 3.1s1.4 3.1 3.1 3.1h47.3c1.8 0 3.2-1.4 3.2-3.1s-1.4-3.1-3.2-3.1zM91 59.4h-82c-1.7 0-3.1 1.4-3.1 3.1s1.4 3.1 3.1 3.1h82c1.7 0 3.1-1.4 3.1-3.1s-1.4-3.1-3.1-3.1z"></path>
</svg>
