<?xml version="1.0" encoding="utf-8"?>
<!-- Generated by IcoMoon.io -->
<!DOCTYPE svg PUBLIC "-//W3C//DTD SVG 1.1//EN" "http://www.w3.org/Graphics/SVG/1.1/DTD/svg11.dtd">
<svg version="1.1" xmlns="http://www.w3.org/2000/svg" xmlns:xlink="http://www.w3.org/1999/xlink" width="100" height="100" viewBox="0 0 100 100">
<path d="M50 0c-10.4 0-12.5 8.4-12.5 18.7v59.4c0 10.4 12.5 21.9 12.5 21.9s12.5-11.5 12.5-21.9v-59.4c0-10.3-2.2-18.7-12.5-18.7zM56.2 78.1c0 6.9-6.2 12.5-6.2 12.5s-6.3-5.6-6.3-12.5v-40.6h12.5v40.6zM56.2 31.2h-12.5v-6.2h12.5v6.2zM56.2 18.7h-12.5c0-6.9-0.6-12.5 6.3-12.5s6.2 5.6 6.2 12.5z"></path>
</svg>
