<?xml version="1.0" encoding="utf-8"?>
<!-- Generated by IcoMoon.io -->
<!DOCTYPE svg PUBLIC "-//W3C//DTD SVG 1.1//EN" "http://www.w3.org/Graphics/SVG/1.1/DTD/svg11.dtd">
<svg version="1.1" xmlns="http://www.w3.org/2000/svg" xmlns:xlink="http://www.w3.org/1999/xlink" width="100" height="100" viewBox="0 0 100 100">
<path d="M9.4 15.6h81.2c1.7 0 3.2-1.4 3.2-3.1s-1.5-3.1-3.2-3.1h-81.2c-1.8 0-3.1 1.4-3.1 3.1s1.3 3.1 3.1 3.1zM9.4 40.6h56.2c1.7 0 3.2-1.4 3.2-3.1s-1.5-3.1-3.2-3.1h-56.2c-1.7 0-3.1 1.4-3.1 3.1s1.3 3.1 3.1 3.1zM56.3 84.4h-46.9c-1.7 0-3.1 1.4-3.1 3.1s1.4 3.1 3.1 3.1h46.9c1.7 0 3.1-1.4 3.1-3.1s-1.4-3.1-3.1-3.1zM90.6 59.4h-81.2c-1.7 0-3.1 1.4-3.1 3.1s1.4 3.1 3.1 3.1h81.2c1.7 0 3.2-1.4 3.2-3.1s-1.5-3.1-3.2-3.1z"></path>
</svg>
