<?xml version="1.0" encoding="utf-8"?>
<!-- Generated by IcoMoon.io -->
<!DOCTYPE svg PUBLIC "-//W3C//DTD SVG 1.1//EN" "http://www.w3.org/Graphics/SVG/1.1/DTD/svg11.dtd">
<svg version="1.1" xmlns="http://www.w3.org/2000/svg" xmlns:xlink="http://www.w3.org/1999/xlink" width="100" height="100" viewBox="0 0 100 100">
<path d="M104.4 27.5c2.4-2.5 2.4-6.4 0-8.8l-4.4-4.4c-2.5-2.5-6.4-2.5-8.8 0l-47.2 47.1c-0.4 0.4-0.6 0.8-0.8 1.2-4.9-0.9-11.6-0.4-18.2 6-10.4 10.1 6.3 21.8-12.5 31.2 0 0 36.6 3 43.8-12.5 1.9-4.1 1.3-8.4 0-12.1 0.3-0.2 0.6-0.4 0.9-0.6l47.2-47.1zM93.4 20.9c1.2-1.2 3.2-1.2 4.4 0s1.2 3.2 0 4.4l-31.8 31.7-4.4-4.4 31.8-31.7zM50 87.3c-4.7 7-25 6.3-25 6.3 6.3-6.3-1.7-13.9 6.3-21.9 4.5-4.5 8.3-5.4 11.1-5 0.1 1.2 0.6 2.5 1.6 3.5l4.4 4.4c0.8 0.8 1.9 1.3 3 1.5 1 3.3 1.3 7.2-1.4 11.2zM55 68c-1.2 1.2-3.2 1.2-4.4 0s-1.2-3.2 0-4.4l6.6-6.6 4.4 4.4-6.6 6.6z"></path>
</svg>
