<?xml version="1.0" encoding="utf-8"?>
<!-- Generated by IcoMoon.io -->
<!DOCTYPE svg PUBLIC "-//W3C//DTD SVG 1.1//EN" "http://www.w3.org/Graphics/SVG/1.1/DTD/svg11.dtd">
<svg version="1.1" xmlns="http://www.w3.org/2000/svg" xmlns:xlink="http://www.w3.org/1999/xlink" width="100" height="100" viewBox="0 0 100 100">
<path d="M43.7 93.7v6.3h56.3v-6.3h-56.3zM68.6 30.4l6.4-10.8-33.3-18.8-3.2 5.4-11.2-6.2-19.2 32.5 5.6 3.1 16-27.1 5.6 3.1-35.3 59.6 6.9 4-5.4 18.6 11.1 6.2 13.8-13.9 6.9 3.9 35.3-59.6zM13 93l-5.5-3.1 4.5-11.9 9.3 5.2-8.3 9.8zM31 81.5l-5.6-3.2-9-5-1.4-0.8-6.2-3.6 28.8-48.7 22.2 12.5-28.8 48.8zM63 27.3l-22.2-12.5 3.2-5.4 22.2 12.5-3.2 5.4z"></path>
</svg>
