<?xml version="1.0" encoding="utf-8"?>
<!-- Generated by IcoMoon.io -->
<!DOCTYPE svg PUBLIC "-//W3C//DTD SVG 1.1//EN" "http://www.w3.org/Graphics/SVG/1.1/DTD/svg11.dtd">
<svg version="1.1" xmlns="http://www.w3.org/2000/svg" xmlns:xlink="http://www.w3.org/1999/xlink" width="100" height="100" viewBox="0 0 100 100">
<path d="M58.4 63.4c-1.3-1.3-3.3-1.3-4.6 0l-19.5 19.5v-73.5c0-1.8-1.4-3.2-3.1-3.2s-3.2 1.4-3.2 3.2v73.5l-19.5-19.5c-1.2-1.3-3.3-1.3-4.5 0-1.3 1.2-1.3 3.2 0 4.5l24.9 24.9c0 0 0 0 0 0 0.6 0.6 1.4 1 2.3 1s1.7-0.4 2.2-1c0 0 0.1 0 0.1 0l24.9-24.9c1.2-1.3 1.2-3.3 0-4.5zM50 12.5h43.8c1.7 0 3.1-1.4 3.1-3.1s-1.4-3.2-3.1-3.2h-43.8c-1.8 0-3.2 1.4-3.2 3.2s1.4 3.1 3.2 3.1zM93.8 81.2h-37.6c-1.7 0-3.1 1.4-3.1 3.2s1.4 3.1 3.1 3.1h37.6c1.7 0 3.1-1.4 3.1-3.1s-1.4-3.2-3.1-3.2zM93.8 25h-43.8c-1.8 0-3.2 1.4-3.2 3.1s1.4 3.1 3.2 3.1h43.8c1.7 0 3.1-1.4 3.1-3.1s-1.4-3.1-3.1-3.1zM93.8 62.5h-25c-1.8 0-3.2 1.4-3.2 3.1s1.4 3.1 3.2 3.1h25c1.7 0 3.1-1.4 3.1-3.1s-1.4-3.1-3.1-3.1zM93.8 43.7h-43.8c-1.8 0-3.2 1.4-3.2 3.2s1.4 3.1 3.2 3.1h43.8c1.7 0 3.1-1.4 3.1-3.1s-1.4-3.2-3.1-3.2z"></path>
</svg>
