<?xml version="1.0" encoding="utf-8"?>
<!-- Generated by IcoMoon.io -->
<!DOCTYPE svg PUBLIC "-//W3C//DTD SVG 1.1//EN" "http://www.w3.org/Graphics/SVG/1.1/DTD/svg11.dtd">
<svg version="1.1" xmlns="http://www.w3.org/2000/svg" xmlns:xlink="http://www.w3.org/1999/xlink" width="100" height="100" viewBox="0 0 100 100">
<path d="M93.7 12.5h-28.1v-9.4c0-1.7-1.4-3.1-3.1-3.1h-25c-1.7 0-3.1 1.4-3.1 3.1v9.4h-28.2c-1.7 0-3.1 1.4-3.1 3.1s1.4 3.1 3.1 3.1h3.2v75c0 3.5 2.8 6.3 6.2 6.3h68.8c3.4 0 6.2-2.8 6.2-6.3v-75h3.1c1.8 0 3.2-1.4 3.2-3.1s-1.4-3.1-3.2-3.1zM40.6 6.2h18.8v6.3h-18.8v-6.3zM84.4 25v0 65.6c0 1.7-1.4 3.2-3.2 3.2h-62.5c-1.7 0-3.1-1.5-3.1-3.2v-71.9h68.8v6.3zM28.1 78.1h6.3v-37.5h-6.3v37.5zM65.6 78.1h6.3v-37.5h-6.3v37.5zM46.9 78.1h6.2v-43.7h-6.2v43.7z"></path>
</svg>
