<?xml version="1.0" encoding="utf-8"?>
<!-- Generated by IcoMoon.io -->
<!DOCTYPE svg PUBLIC "-//W3C//DTD SVG 1.1//EN" "http://www.w3.org/Graphics/SVG/1.1/DTD/svg11.dtd">
<svg version="1.1" xmlns="http://www.w3.org/2000/svg" xmlns:xlink="http://www.w3.org/1999/xlink" width="100" height="100" viewBox="0 0 100 100">
<path d="M50 0c-10.9 0-34.4 25.5-34.4 53.1s23.5 46.9 34.4 46.9c10.9 0 34.4-19.3 34.4-46.9s-23.5-53.1-34.4-53.1zM53.1 93.1v-13.3l14.1-8.4c1.5-0.8 2-2.7 1.2-4.2-0.9-1.5-2.8-2-4.2-1.2l-11.1 6.6v-20.9l14.1-8.4c1.5-0.8 2-2.7 1.2-4.2-0.9-1.5-2.7-2.1-4.2-1.2l-11.1 6.6v-10.1c0-1.8-1.4-3.2-3.1-3.2s-3.1 1.4-3.1 3.2v26.9l-7.4-7.3c-1.1-1.2-3-1.2-4.2 0s-1.2 3.1-0.1 4.3l11.7 11.6v23.2c-9.2-3.2-25-18.5-25-40 0-24.1 20-46.9 28.1-46.9s28.1 22.8 28.1 46.9c0 21.5-15.8 36.8-25 40z"></path>
</svg>
