<?xml version="1.0" encoding="utf-8"?>
<!-- Generated by IcoMoon.io -->
<!DOCTYPE svg PUBLIC "-//W3C//DTD SVG 1.1//EN" "http://www.w3.org/Graphics/SVG/1.1/DTD/svg11.dtd">
<svg version="1.1" xmlns="http://www.w3.org/2000/svg" xmlns:xlink="http://www.w3.org/1999/xlink" width="100" height="100" viewBox="0 0 100 100">
<path d="M25 12.5h-6.3v31.2h6.3v-31.2zM0 87.5h6.2v-31.3h-6.2v31.3zM96.9 56.2h-81.3c-1.7 0-3.1 1.4-3.1 3.2v25c0 1.7 1.4 3.1 3.1 3.1h81.3c1.7 0 3.1-1.4 3.1-3.1v-25c0-1.8-1.4-3.2-3.1-3.2zM75 81.2h-56.3v-18.7h56.3v18.7zM93.7 81.2h-12.5v-18.7h12.5v18.7zM12.5 25h-6.3v18.7h6.3v-18.7z"></path>
</svg>
