<?xml version="1.0" encoding="utf-8"?>
<!-- Generated by IcoMoon.io -->
<!DOCTYPE svg PUBLIC "-//W3C//DTD SVG 1.1//EN" "http://www.w3.org/Graphics/SVG/1.1/DTD/svg11.dtd">
<svg version="1.1" xmlns="http://www.w3.org/2000/svg" xmlns:xlink="http://www.w3.org/1999/xlink" width="100" height="100" viewBox="0 0 100 100">
<path d="M53.1 80.9c17.5-1.9 31.3-19.1 31.3-40.3 0-22.4-15.4-40.6-34.4-40.6s-34.4 18.2-34.4 40.6c0 21.2 13.8 38.4 31.3 40.3v12.8h-31.3v6.3h68.8v-6.3h-31.3v-12.8zM46.9 45.3l-14.1-14.1-4.7 4.7 18.8 18.8v19.9c-14.1-1.9-25-16.3-25-34 0-19 12.6-34.4 28.1-34.4s28.1 15.4 28.1 34.4c0 17.7-10.9 32.1-25 34v-19.9l18.7-18.7-4.6-4.7-14.1 14v-26.6h-6.2v26.6z"></path>
</svg>
