<?xml version="1.0" encoding="utf-8"?>
<!-- Generated by IcoMoon.io -->
<!DOCTYPE svg PUBLIC "-//W3C//DTD SVG 1.1//EN" "http://www.w3.org/Graphics/SVG/1.1/DTD/svg11.dtd">
<svg version="1.1" xmlns="http://www.w3.org/2000/svg" xmlns:xlink="http://www.w3.org/1999/xlink" width="100" height="100" viewBox="0 0 100 100">
<path d="M75 37.5c10.3 0 18.7-8.4 18.7-18.8 0-10.3-8.4-18.7-18.7-18.7s-18.8 8.4-18.8 18.7c0 10.4 8.4 18.8 18.8 18.8zM75 6.2c6.9 0 12.5 5.6 12.5 12.5s-5.6 12.5-12.5 12.5c-6.9 0-12.5-5.6-12.5-12.5s5.6-12.5 12.5-12.5zM71.9 46.9l-21.9 28.1-21.9-40.6-28.1 65.6h100l-28.1-53.1zM28.8 48.7l20.2 37.7 5.9-7.6 16-20.5 18.7 35.5h-80.1l19.3-45.1z"></path>
</svg>
