<?xml version="1.0" encoding="utf-8"?>
<!-- Generated by IcoMoon.io -->
<!DOCTYPE svg PUBLIC "-//W3C//DTD SVG 1.1//EN" "http://www.w3.org/Graphics/SVG/1.1/DTD/svg11.dtd">
<svg version="1.1" xmlns="http://www.w3.org/2000/svg" xmlns:xlink="http://www.w3.org/1999/xlink" width="100" height="100" viewBox="0 0 100 100">
<path d="M87.7 35.9c-3.5-6.1-9.6-9.8-16.1-10.6-1.4-10.8-10.5-19.1-21.6-19.1-11 0-20.1 8.3-21.6 19-2.7 0.3-5.5 1.2-8.1 2.7-10.4 6.1-14 19.4-8 29.9 1.4 2.3 3.1 4.3 5.1 5.9-2.5 6-2.3 13 1.2 19.1 6.1 10.5 19.4 14.1 29.9 8 0.5-0.3 1-0.7 1.5-1.1 3.5 2.5 7.9 4 12.5 4 12.1 0 21.9-9.8 21.9-21.8 0-3-0.6-5.8-1.6-8.3 8-6.7 10.3-18.3 4.9-27.7zM74.1 61.5c2.5 2.7 4.1 6.4 4.1 10.4 0 8.6-7 15.6-15.7 15.6-5.1 0-9.6-2.5-12.5-6.4-2.8 3.9-7.3 6.4-12.5 6.4-8.6 0-15.6-7-15.6-15.6 0-4 1.6-7.7 4-10.4-6-2.2-10.2-7.9-10.2-14.6 0-8.7 6.9-15.7 15.6-15.7 1.2 0 2.4 0.2 3.6 0.5-0.3-1.2-0.5-2.4-0.5-3.6 0-8.6 7-15.6 15.6-15.6s15.7 7 15.7 15.6c0 1.2-0.2 2.4-0.5 3.6 1.2-0.3 2.3-0.5 3.6-0.5 8.6 0 15.6 7 15.6 15.7 0 6.7-4.3 12.4-10.3 14.6zM50 37.5c-8.6 0-15.6 7-15.6 15.6s7 15.6 15.6 15.6 15.7-7 15.7-15.6c0-8.6-7-15.6-15.7-15.6zM50 62.5c-5.2 0-9.3-4.2-9.3-9.4s4.1-9.4 9.3-9.4c5.2 0 9.4 4.2 9.4 9.4s-4.2 9.4-9.4 9.4z"></path>
</svg>
