<?xml version="1.0" encoding="utf-8"?>
<!-- Generated by IcoMoon.io -->
<!DOCTYPE svg PUBLIC "-//W3C//DTD SVG 1.1//EN" "http://www.w3.org/Graphics/SVG/1.1/DTD/svg11.dtd">
<svg version="1.1" xmlns="http://www.w3.org/2000/svg" xmlns:xlink="http://www.w3.org/1999/xlink" width="100" height="100" viewBox="0 0 100 100">
<path d="M88.5 23.4c-4.3-7.5-13.9-10-21.5-5.7-0.6 0.4-1.1 0.8-1.7 1.2 0.3-1 0.4-2.1 0.4-3.3 0-8.6-7-15.6-15.7-15.6s-15.7 7-15.7 15.6c0 1.2 0.1 2.3 0.4 3.3-0.6-0.4-1.1-0.8-1.8-1.2-7.5-4.3-17.1-1.8-21.4 5.7-4.4 7.5-1.8 17 5.7 21.4 1.7 0.9 3.4 1.5 5.2 1.8-6.7 4.5-8.9 13.5-4.8 20.6 4.3 7.4 13.9 10 21.4 5.7 5.1-3 7.9-8.4 7.7-13.9 0.1 0 0.1 0 0.2 0v41h6.2v-39.5c0.4 5 3.2 9.7 7.9 12.4 7.5 4.3 17.1 1.7 21.5-5.7 4.1-7.2 1.9-16.1-4.8-20.7 1.8-0.3 3.5-0.8 5.1-1.7 7.5-4.4 10-13.9 5.7-21.4zM50 6.2c5.2 0 9.4 4.2 9.4 9.4 0 3-1.5 5.5-3.6 7.3-1.9-0.6-3.8-1-5.8-1s-3.9 0.4-5.8 1c-2.1-1.8-3.6-4.3-3.6-7.3 0-5.2 4.2-9.4 9.4-9.4zM20.4 39.3c-4.5-2.5-6.1-8.3-3.5-12.8 2.6-4.4 8.4-6 12.9-3.4 2.7 1.6 4.2 4.3 4.5 7.2-1.5 2.2-2.5 4.9-2.9 7.7-2.9 2.7-7.3 3.5-11 1.3zM35.8 67.5c-4.4 2.6-10.2 1.1-12.8-3.4s-1-10.2 3.5-12.8c2.4-1.4 5.2-1.5 7.6-0.7 1.5 2.3 3.4 4.3 5.7 5.8 1.5 4.1 0 8.8-4 11.1zM53.1 59.7v-0.6c0.1 0 0.1 0 0.1-0.1 0 0.3-0.1 0.5-0.1 0.7zM50 53.1c-6.9 0-12.6-5.6-12.6-12.5s5.7-12.5 12.6-12.5c6.9 0 12.6 5.6 12.6 12.5s-5.7 12.5-12.6 12.5zM77 64c-2.6 4.5-8.4 6.1-12.9 3.5-4-2.3-5.5-6.9-4.1-11.1 2.4-1.5 4.5-3.5 6-5.9 2.4-0.8 5.2-0.6 7.6 0.7 4.5 2.6 6.1 8.3 3.4 12.8zM79.6 39.3c-3.7 2.2-8.1 1.4-11-1.3-0.4-2.8-1.4-5.5-2.9-7.7 0.3-2.9 1.8-5.6 4.5-7.2 4.5-2.6 10.3-1 12.9 3.4 2.6 4.5 1 10.3-3.5 12.8z"></path>
</svg>
