<?xml version="1.0" encoding="utf-8"?>
<!-- Generated by IcoMoon.io -->
<!DOCTYPE svg PUBLIC "-//W3C//DTD SVG 1.1//EN" "http://www.w3.org/Graphics/SVG/1.1/DTD/svg11.dtd">
<svg version="1.1" xmlns="http://www.w3.org/2000/svg" xmlns:xlink="http://www.w3.org/1999/xlink" width="100" height="100" viewBox="0 0 100 100">
<path d="M78.1 25c-2.2 0-4.3 0.5-6.4 1.2 0.1-0.4 0.2-0.8 0.2-1.2 0-13.8-11.2-25-25-25s-25 11.2-25 25c-10.4 0-18.8 8.4-18.8 18.7 0 8.2 5.3 15.1 12.5 17.6v1.2h31.3v6.2h-25l6.2 31.3h43.8l6.2-31.3h-25v-6.2h25c10.4 0 18.8-8.4 18.8-18.8 0-10.3-8.4-18.7-18.8-18.7zM71.9 75l-4.7 18.7h-34.4l-4.7-18.7h43.8zM78.1 56.2v0.1h-17.2v-0.1h-39c-6.9 0-12.5-5.6-12.5-12.5s5.6-12.5 12.5-12.5h13.6c-2-2.2-4.4-4-7.3-5 0-0.4-0.1-0.8-0.1-1.2 0-10.4 8.4-18.8 18.8-18.8 10.3 0 18.7 8.4 18.7 18.8 0 2-0.4 4-1 5.8-0.1 0.1-0.2 0.3-0.3 0.4h12.3v0.2c0.5-0.1 1-0.2 1.5-0.2 6.9 0 12.5 5.6 12.5 12.5s-5.6 12.5-12.5 12.5z"></path>
</svg>
