<?xml version="1.0" encoding="utf-8"?>
<!-- Generated by IcoMoon.io -->
<!DOCTYPE svg PUBLIC "-//W3C//DTD SVG 1.1//EN" "http://www.w3.org/Graphics/SVG/1.1/DTD/svg11.dtd">
<svg version="1.1" xmlns="http://www.w3.org/2000/svg" xmlns:xlink="http://www.w3.org/1999/xlink" width="100" height="100" viewBox="0 0 100 100">
<path d="M100 31.2c0-10.3-8.4-18.7-18.8-18.7-6.5 0-12.2 3.3-15.6 8.4-2.8-4.2-7.3-7.2-12.5-8.1v-6.6h6.3c1.7 0 3.1-1.4 3.1-3.1s-1.4-3.1-3.1-3.1h-18.8c-1.7 0-3.1 1.4-3.1 3.1s1.4 3.1 3.1 3.1h6.3v6.6c-5.2 0.9-9.7 3.9-12.5 8.1-3.4-5.1-9.1-8.4-15.7-8.4-10.3 0-18.7 8.4-18.7 18.7 0 10.4 8.4 18.8 18.7 18.8 0.5 0 0.8-0.1 1.2-0.1-0.7 2-1.2 4.1-1.2 6.3 0 8.7 5.9 15.9 13.9 18.1-0.9 2.1-1.4 4.5-1.4 6.9 0 10.4 8.4 18.8 18.8 18.8 10.3 0 18.7-8.4 18.7-18.8 0-2.2-0.4-4.3-1.1-6.3 0.4 0 0.7 0.1 1.1 0.1 10.4 0 18.8-8.4 18.8-18.8 0-2.4-0.5-4.8-1.4-6.9 8-2.2 13.9-9.4 13.9-18.1zM50 18.7c6.9 0 12.5 5.6 12.5 12.5s-5.6 12.5-12.5 12.5c-6.9 0-12.5-5.6-12.5-12.5s5.6-12.5 12.5-12.5zM18.7 43.7c-6.9 0-12.5-5.6-12.5-12.5s5.6-12.5 12.5-12.5c6.9 0 12.5 5.6 12.5 12.5s-5.5 12.5-12.5 12.5zM25 56.2c0-6.4 4.9-11.7 11.2-12.3 3.1 3.3 7.2 5.4 12 5.9 1.1 1.9 1.8 4.1 1.8 6.4 0 6.9-5.6 12.5-12.5 12.5s-12.5-5.6-12.5-12.5zM50 93.7c-6.9 0-12.5-5.6-12.5-12.5 0-2.3 0.7-4.5 1.8-6.4 4.8-0.5 8.9-2.6 12-5.9 6.3 0.6 11.2 5.9 11.2 12.3 0 7-5.6 12.5-12.5 12.5zM68.7 68.7c-6.9 0-12.5-5.6-12.5-12.5s5.6-12.5 12.5-12.5c6.9 0 12.5 5.6 12.5 12.5s-5.6 12.5-12.5 12.5zM82.5 43.6c-3-3.3-7.2-5.5-11.9-5.9-1.2-1.9-1.9-4.1-1.9-6.5 0-6.9 5.6-12.5 12.5-12.5s12.5 5.6 12.5 12.5c0 6.5-4.9 11.8-11.2 12.4z"></path>
</svg>
