<?xml version="1.0" encoding="utf-8"?>
<!-- Generated by IcoMoon.io -->
<!DOCTYPE svg PUBLIC "-//W3C//DTD SVG 1.1//EN" "http://www.w3.org/Graphics/SVG/1.1/DTD/svg11.dtd">
<svg version="1.1" xmlns="http://www.w3.org/2000/svg" xmlns:xlink="http://www.w3.org/1999/xlink" width="100" height="100" viewBox="0 0 100 100">
<path d="M99.3 28.5l-5.6-22.3c0-3.4-2.7-6.2-6.2-6.2h-43.7c-3.5 0-6.3 2.8-6.3 6.2l-5.6 22.3c-0.4 0.8-0.6 1.7-0.6 2.7l6.2 62.5c0 3.5 2.8 6.3 6.3 6.3h43.7c3.5 0 6.2-2.8 6.2-6.3l6.3-62.5c0-1-0.3-1.9-0.7-2.7zM43.6 7.7l0.2-0.7v-0.8h43.7v0.8l0.2 0.7 4.3 17.2h-52.7l4.3-17.2zM87.5 93.1v0.6h-43.7v-0.3l-0.1-0.3-0.5-5.7h44.9l-0.6 5.7zM88.7 81.2h-46.2l-5-50h56.2l-5 50zM22.4 6.2c-1.7-0.2-3.3 0.9-3.6 2.6l-6.3 29.5-6.3-29.5c-0.3-1.7-1.9-2.8-3.6-2.6-1.7 0.3-2.9 2-2.6 3.7l9.3 43.2-9.3 43.3c-0.3 1.7 0.9 3.3 2.6 3.6s3.3-0.9 3.6-2.6l6.3-29.5 6.3 29.4c0.3 1.7 1.9 2.9 3.6 2.6s2.9-1.9 2.6-3.6l-9.3-43.2 9.3-43.2c0.3-1.7-0.9-3.4-2.6-3.7z"></path>
</svg>
