<?xml version="1.0" encoding="utf-8"?>
<!-- Generated by IcoMoon.io -->
<!DOCTYPE svg PUBLIC "-//W3C//DTD SVG 1.1//EN" "http://www.w3.org/Graphics/SVG/1.1/DTD/svg11.dtd">
<svg version="1.1" xmlns="http://www.w3.org/2000/svg" xmlns:xlink="http://www.w3.org/1999/xlink" width="100" height="100" viewBox="0 0 100 100">
<path d="M75 3.1h-50c-10.4 0-18.8 8.9-18.8 21.2 0 9.6 5.3 14.1 12.5 15.7v47.2c0 5.3 4.2 9.7 9.4 9.7h43.8c5.1 0 9.3-4.4 9.3-9.7v-47.2c7.3-1.5 12.5-6 12.5-15.7 0-12.2-8.4-21.2-18.7-21.2zM75 34.2v50.2c0 3.4-2.8 6.2-6.3 6.2h-37.5c-3.4 0-6.2-2.8-6.2-6.2v-50.2c-7.1-0.6-12.5-3.5-12.5-10.7 0-8.1 6.2-14.1 12.5-14.1h6.2c0 0 0 0 0 0h37.5c0 0 0 0 0.1 0h6.2c6.2 0 12.5 6 12.5 14.1 0 7.2-5.4 10.1-12.5 10.7z"></path>
</svg>
