<?xml version="1.0" encoding="utf-8"?>
<!-- Generated by IcoMoon.io -->
<!DOCTYPE svg PUBLIC "-//W3C//DTD SVG 1.1//EN" "http://www.w3.org/Graphics/SVG/1.1/DTD/svg11.dtd">
<svg version="1.1" xmlns="http://www.w3.org/2000/svg" xmlns:xlink="http://www.w3.org/1999/xlink" width="100" height="100" viewBox="0 0 100 100">
<path d="M90.3 47.9c1.4-5.1 2.4-8.7 2.4-8.7 4.5-16.6-5.5-33.7-22.4-38.1-16.9-4.5-34.2 5.4-38.7 22 0 0-3.4 12.4-6.5 23.7-2.6 9.6-18.9 21.2-18.9 21.2l36.1 9.5c-1.1 2.1-1.7 4.4-1.7 6.8 0 8.7 7 15.7 15.7 15.7 8.3 0 15-6.5 15.5-14.7l20 5.3c0 0-8.2-18-5.6-27.5 1.1-4 2.2-8.2 3.2-11.9v0l0.9-3.3zM56.3 93.7c-5.2 0-9.4-4.2-9.4-9.3 0-2 0.7-3.7 1.7-5.2l16.9 4.5c0.1 0.2 0.1 0.4 0.1 0.7 0 5.1-4.2 9.3-9.3 9.3zM20.1 65.2c0 0 8.3-7 11-16.4l48.9 12.9c-2.5 9.4 1.2 19.6 1.2 19.6l-61.1-16.1zM81.6 55.7l-48.8-12.9c0.5-2.1 1.1-4.1 1.6-6.1l48.9 12.9c-0.5 2-1.1 4-1.7 6.1zM86.6 37.6c0 0-0.7 2.4-1.7 6l-48.9-12.9c1-3.6 1.7-6 1.7-6 3.6-13.3 17.5-21.2 31-17.6 13.5 3.5 21.5 17.2 17.9 30.5z"></path>
</svg>
