<?xml version="1.0" encoding="utf-8"?>
<!-- Generated by IcoMoon.io -->
<!DOCTYPE svg PUBLIC "-//W3C//DTD SVG 1.1//EN" "http://www.w3.org/Graphics/SVG/1.1/DTD/svg11.dtd">
<svg version="1.1" xmlns="http://www.w3.org/2000/svg" xmlns:xlink="http://www.w3.org/1999/xlink" width="100" height="100" viewBox="0 0 100 100">
<path d="M44.7 61.5c1.2 1.3 3.3 1.3 4.6 0l7-7 6.9 7c1.3 1.3 3.4 1.3 4.6 0 1.3-1.3 1.3-3.4 0-4.6l-6.9-7 6.8-6.9c1.3-1.3 1.3-3.3 0-4.6-1.2-1.3-3.3-1.3-4.6 0l-6.9 6.9-6.8-6.9c-1.3-1.3-3.4-1.3-4.6 0-1.3 1.3-1.3 3.3 0 4.6l6.8 6.9-6.9 7c-1.3 1.2-1.3 3.3 0 4.6zM96.9 15.6h-71.9c0 0-25 28.1-25 34.4s25 34.4 25 34.4h71.9c1.7 0 3.1-1.4 3.1-3.2v-62.5c0-1.7-1.4-3.1-3.1-3.1zM93.7 78.1c0 0-62.5 0-65.6 0s-21.9-28.1-21.9-28.1 18.8-28.1 21.9-28.1 65.6 0 65.6 0v56.2z"></path>
</svg>
