<?xml version="1.0" encoding="utf-8"?>
<!-- Generated by IcoMoon.io -->
<!DOCTYPE svg PUBLIC "-//W3C//DTD SVG 1.1//EN" "http://www.w3.org/Graphics/SVG/1.1/DTD/svg11.dtd">
<svg version="1.1" xmlns="http://www.w3.org/2000/svg" xmlns:xlink="http://www.w3.org/1999/xlink" width="100" height="100" viewBox="0 0 100 100">
<path d="M66.6 54l-13.5 15.7v-51c0-1.7-1.4-3.1-3.1-3.1s-3.1 1.4-3.1 3.1v51l-13.5-15.7c-1.2-1.2-3.2-1.2-4.4 0s-1.2 3.2 0 4.4l18.7 21.7c0 0.1 0 0.1 0 0.1 0 0.1 0 0.1 0.1 0.2 0 0 0 0 0.1 0 0.5 0.5 1.3 0.8 2.1 0.8s1.6-0.3 2.1-0.8c0 0 0.1 0 0.1-0.1s0.1 0 0.1-0.1c0 0 0 0 0-0.1l18.7-21.7c1.2-1.2 1.2-3.2 0-4.4s-3.2-1.2-4.4 0zM50 3.1c-25.9 0-46.9 21-46.9 46.9s21 46.9 46.9 46.9 46.9-21 46.9-46.9-21-46.9-46.9-46.9zM50 90.6c-22.4 0-40.6-18.2-40.6-40.6s18.2-40.6 40.6-40.6c22.4 0 40.6 18.2 40.6 40.6s-18.2 40.6-40.6 40.6z"></path>
</svg>
