<?xml version="1.0" encoding="utf-8"?>
<!-- Generated by IcoMoon.io -->
<!DOCTYPE svg PUBLIC "-//W3C//DTD SVG 1.1//EN" "http://www.w3.org/Graphics/SVG/1.1/DTD/svg11.dtd">
<svg version="1.1" xmlns="http://www.w3.org/2000/svg" xmlns:xlink="http://www.w3.org/1999/xlink" width="100" height="100" viewBox="0 0 100 100">
<path d="M50 37.5c-6.9 0-12.5 5.6-12.5 12.5s5.6 12.5 12.5 12.5c6.9 0 12.5-5.6 12.5-12.5s-5.6-12.5-12.5-12.5zM50 56.2c-3.5 0-6.3-2.8-6.3-6.2 0-3.5 2.8-6.3 6.3-6.3s6.2 2.8 6.2 6.3c0 3.4-2.7 6.2-6.2 6.2zM50 18.7c-17.3 0-31.3 14-31.3 31.3s14 31.2 31.3 31.2 31.2-13.9 31.2-31.2c0-17.3-13.9-31.3-31.2-31.3zM50 75c-13.8 0-25-11.2-25-25s11.2-25 25-25c13.8 0 25 11.2 25 25s-11.2 25-25 25zM50 0c-27.6 0-50 22.4-50 50s22.4 50 50 50c27.6 0 50-22.4 50-50s-22.4-50-50-50zM50 93.7c-24.2 0-43.8-19.6-43.8-43.7 0-24.2 19.6-43.8 43.8-43.8s43.7 19.6 43.7 43.8c0 24.1-19.5 43.7-43.7 43.7z"></path>
</svg>
