<?xml version="1.0" encoding="utf-8"?>
<!-- Generated by IcoMoon.io -->
<!DOCTYPE svg PUBLIC "-//W3C//DTD SVG 1.1//EN" "http://www.w3.org/Graphics/SVG/1.1/DTD/svg11.dtd">
<svg version="1.1" xmlns="http://www.w3.org/2000/svg" xmlns:xlink="http://www.w3.org/1999/xlink" width="100" height="100" viewBox="0 0 100 100">
<path d="M50 0c-27.6 0-50 22.4-50 50s22.4 50 50 50c27.6 0 50-22.4 50-50s-22.4-50-50-50zM50 6.2c10.2 0 19.4 3.7 26.8 9.5l-12.1 14.1c-4.1-3-9.2-4.8-14.7-4.8s-10.6 1.8-14.7 4.8l-12.1-14.1c7.4-5.8 16.6-9.5 26.8-9.5zM68.7 50c0 10.3-8.4 18.7-18.7 18.7-10.4 0-18.8-8.4-18.8-18.7 0-10.4 8.4-18.8 18.8-18.8 10.3 0 18.7 8.4 18.7 18.8zM6.2 50c0-11.7 4.7-22.3 12.2-30.2l12.4 14.4c-3.6 4.3-5.8 9.8-5.8 15.8 0 6.9 2.8 13.1 7.3 17.7l-12.1 14.1c-8.6-8-14-19.2-14-31.8zM50 93.7c-9.3 0-17.9-2.9-25-7.9l12.3-14.4c3.8 2.2 8.1 3.6 12.7 3.6s8.9-1.4 12.7-3.6l12.3 14.4c-7.1 5-15.7 7.9-25 7.9zM79.8 81.8l-12.1-14.1c4.5-4.6 7.3-10.8 7.3-17.7 0-6-2.2-11.5-5.8-15.8l12.4-14.4c7.5 7.9 12.1 18.5 12.1 30.2 0 12.6-5.3 23.8-13.9 31.8z"></path>
</svg>
