<?xml version="1.0" encoding="utf-8"?>
<!-- Generated by IcoMoon.io -->
<!DOCTYPE svg PUBLIC "-//W3C//DTD SVG 1.1//EN" "http://www.w3.org/Graphics/SVG/1.1/DTD/svg11.dtd">
<svg version="1.1" xmlns="http://www.w3.org/2000/svg" xmlns:xlink="http://www.w3.org/1999/xlink" width="100" height="100" viewBox="0 0 100 100">
<path d="M56.2 43.7h-12.5v12.5h12.5v-12.5zM78.1 43.7h-12.5v12.5h12.5v-12.5zM78.1 68.7h-12.5v12.5h12.5v-12.5zM56.2 68.7h-12.5v12.5h12.5v-12.5zM93.7 0h-87.5c-1.7 0-3.1 1.4-3.1 3.1v93.8c0 1.7 1.4 3.1 3.1 3.1h87.5c1.8 0 3.2-1.4 3.2-3.1v-93.8c0-1.7-1.4-3.1-3.2-3.1zM90.6 93.7h-81.2v-68.7h81.2v68.7zM90.6 18.7h-81.2v-12.5h81.2v12.5zM34.4 68.7h-12.5v12.5h12.5v-12.5zM34.4 43.7h-12.5v12.5h12.5v-12.5z"></path>
</svg>
