<?xml version="1.0" encoding="utf-8"?>
<!-- Generated by IcoMoon.io -->
<!DOCTYPE svg PUBLIC "-//W3C//DTD SVG 1.1//EN" "http://www.w3.org/Graphics/SVG/1.1/DTD/svg11.dtd">
<svg version="1.1" xmlns="http://www.w3.org/2000/svg" xmlns:xlink="http://www.w3.org/1999/xlink" width="100" height="100" viewBox="0 0 100 100">
<path d="M96.9 93.7h-9.4l-6.3-15.6v-3.1h-1.2l-30-75-30 75h-1.3v3.1l-6.2 15.6h-9.4c-1.7 0-3.1 1.4-3.1 3.2 0 1.7 1.4 3.1 3.1 3.1h93.8c1.7 0 3.1-1.4 3.1-3.1 0-1.8-1.4-3.2-3.1-3.2zM50 12.5l7.2 18.7h-14.4l7.2-18.7zM40.6 36.9v0.6h18.8v-0.6l2.6 6.8h-24l2.6-6.8zM35.6 50h28.8l4.8 12.5h-38.4l4.8-12.5zM28.4 68.7h43.2l2.4 6.3h-48l2.4-6.3zM18.7 93.7l4.9-12.5h52.8l4.9 12.5h-62.6z"></path>
</svg>
