<?xml version="1.0" encoding="utf-8"?>
<!-- Generated by IcoMoon.io -->
<!DOCTYPE svg PUBLIC "-//W3C//DTD SVG 1.1//EN" "http://www.w3.org/Graphics/SVG/1.1/DTD/svg11.dtd">
<svg version="1.1" xmlns="http://www.w3.org/2000/svg" xmlns:xlink="http://www.w3.org/1999/xlink" width="100" height="100" viewBox="0 0 100 100">
<path d="M93.7 81.2c0 0-12.5-15.3-12.5-25.1 0-2 0-4.1 0-6.1 0-2.2 0-4.3 0-6.3 0-2.3 0-4.4 0-6.2 0-3.8 0-6.3 0-6.3 0-17.2-13.9-31.2-31.2-31.2s-31.3 14-31.3 31.2c0 0 0 2.5 0 6.3 0 1.8 0 3.9 0 6.2 0 2 0 4.1 0 6.3 0 1.9 0 3.9 0 5.9 0 9.9-12.5 25.3-12.5 25.3h28.7c-0.2 1.1-0.5 2.1-0.5 3.2 0 8.6 7 15.6 15.6 15.6s15.6-7 15.6-15.6c0-1.1-0.3-2.1-0.5-3.2h28.6zM25 31.2c0-13.8 11.2-25 25-25s25 11.2 25 25c0 0 0 2.5 0 6.3h-50c0-3.8 0-6.3 0-6.3zM25 43.7h50c0 2 0 4.1 0 6.3h-50c0-2.2 0-4.3 0-6.3zM50 93.7c-5.2 0-9.4-4.2-9.4-9.3 0-1.1 0.3-2.2 0.7-3.2h17.4c0.4 1 0.7 2.1 0.7 3.2 0 5.1-4.2 9.3-9.4 9.3zM18.7 75c0 0 6.1-9 6.3-18.8h50c0.1 9.8 6.2 18.8 6.2 18.8h-62.5z"></path>
</svg>
