<?xml version="1.0" encoding="utf-8"?>
<!-- Generated by IcoMoon.io -->
<!DOCTYPE svg PUBLIC "-//W3C//DTD SVG 1.1//EN" "http://www.w3.org/Graphics/SVG/1.1/DTD/svg11.dtd">
<svg version="1.1" xmlns="http://www.w3.org/2000/svg" xmlns:xlink="http://www.w3.org/1999/xlink" width="100" height="100" viewBox="0 0 100 100">
<path d="M67.6 50l24.3-24.3c2.5-2.4 2.5-6.4 0-8.8l-8.8-8.8c-2.4-2.5-6.4-2.5-8.8 0l-24.3 24.2-24.3-24.2c-2.4-2.5-6.4-2.5-8.8 0l-8.8 8.8c-2.5 2.4-2.5 6.4 0 8.8l24.2 24.3-24.2 24.3c-2.5 2.4-2.5 6.4 0 8.8l8.8 8.8c2.4 2.5 6.4 2.5 8.8 0l24.3-24.2 24.3 24.2c2.4 2.5 6.4 2.5 8.8 0l8.8-8.8c2.5-2.4 2.5-6.4 0-8.8l-24.3-24.3zM85.3 80.9l-4.4 4.4c-1.2 1.2-3.2 1.2-4.4 0l-26.5-26.5-26.5 26.5c-1.2 1.2-3.2 1.2-4.4 0l-4.4-4.4c-1.2-1.2-1.2-3.2 0-4.4l26.5-26.5-26.5-26.5c-1.2-1.2-1.2-3.2 0-4.4l4.4-4.4c1.2-1.2 3.2-1.2 4.4 0l26.5 26.5 26.5-26.5c1.2-1.2 3.2-1.2 4.4 0l4.4 4.4c1.2 1.2 1.2 3.2 0 4.4l-26.5 26.5 26.5 26.5c1.2 1.2 1.2 3.2 0 4.4z"></path>
</svg>
