<?xml version="1.0" encoding="utf-8"?>
<!-- Generated by IcoMoon.io -->
<!DOCTYPE svg PUBLIC "-//W3C//DTD SVG 1.1//EN" "http://www.w3.org/Graphics/SVG/1.1/DTD/svg11.dtd">
<svg version="1.1" xmlns="http://www.w3.org/2000/svg" xmlns:xlink="http://www.w3.org/1999/xlink" width="100" height="100" viewBox="0 0 100 100">
<path d="M93.6 90.1v-30.8c0-1.7-1.3-3.1-3-3.1s-3 1.4-3 3.1v23.9l-39.5-39.5 39.5-39.4v23.9c0 1.7 1.3 3 3 3s3-1.3 3-3v-30.8c0-0.1 0.1-0.3 0.1-0.4 0-0.2 0-0.4-0.1-0.6-0.1-0.5-0.2-0.8-0.5-1.2-0.1-0.2 0-0.4-0.2-0.6s-0.4-0.1-0.6-0.3c-0.4-0.2-0.8-0.3-1.2-0.4-0.2-0.1-0.4-0.1-0.6-0.1s-0.3 0-0.4 0.1h-30.8c-1.7 0-3.1 1.3-3.1 3s1.4 3 3.1 3h23.9l-39.5 39.5-39.4-39.5h23.9c1.7 0 3.1-1.3 3.1-3s-1.4-3-3.1-3h-30.8c-0.2-0.1-0.3-0.1-0.5-0.1-0.9 0-1.6 0.3-2.2 0.9 0 0 0 0 0 0s0 0 0 0c-0.6 0.6-0.9 1.3-0.9 2.2 0 0.2 0.1 0.3 0.1 0.5v30.8c0 1.7 1.3 3 3 3s3-1.3 3-3v-23.9l39.5 39.4-39.5 39.5v-23.9c0-1.7-1.3-3.1-3-3.1s-3 1.4-3 3.1v30.8c-0.1 0.2-0.1 0.3-0.1 0.5 0 0.8 0.3 1.6 0.9 2.1 0 0.1 0 0.1 0 0.1s0 0 0 0c0.6 0.6 1.3 0.9 2.2 0.9 0.2 0 0.3-0.1 0.5-0.1h30.8c1.7 0 3.1-1.3 3.1-3s-1.4-3-3.1-3h-23.9l39.5-39.5 39.4 39.5h-23.9c-1.7 0-3.1 1.3-3.1 3s1.4 3 3.1 3h30.8c0.2 0 0.3 0.1 0.5 0.1 0.9 0 1.6-0.3 2.2-0.9 0 0 0 0 0 0s0 0 0 0c0.6-0.6 0.9-1.4 0.9-2.2 0-0.2 0-0.3-0.1-0.5z"></path>
</svg>
