<?xml version="1.0" encoding="utf-8"?>
<!-- Generated by IcoMoon.io -->
<!DOCTYPE svg PUBLIC "-//W3C//DTD SVG 1.1//EN" "http://www.w3.org/Graphics/SVG/1.1/DTD/svg11.dtd">
<svg version="1.1" xmlns="http://www.w3.org/2000/svg" xmlns:xlink="http://www.w3.org/1999/xlink" width="100" height="100" viewBox="0 0 100 100">
<path d="M92.7 40c-1.4-1.4-3.5-1.4-4.9 0l-18.9 18.8v-58.8c0-3.5-2.9-6.3-6.5-6.3h-62.1c-3.6 0-6.5 2.8-6.5 6.3v87.5c0 3.5 2.9 6.2 6.5 6.2h49.6v-6.2h-46.8c-1.7 0-3-1.4-3-3.1v-81.3c0-1.7 1.3-3.1 3-3.1h56.5c1.7 0 3 1.4 3 3.1v56l-19.2-19.1c-1.4-1.4-3.6-1.4-4.9 0-1.4 1.3-1.4 3.6 0 4.9l24.2 24.2c0.8 0.8 1.9 1 2.9 0.9 1 0.1 2-0.1 2.8-0.9l24.3-24.1c1.3-1.4 1.3-3.6 0-5z"></path>
</svg>
