<?xml version="1.0" encoding="utf-8"?>
<!-- Generated by IcoMoon.io -->
<!DOCTYPE svg PUBLIC "-//W3C//DTD SVG 1.1//EN" "http://www.w3.org/Graphics/SVG/1.1/DTD/svg11.dtd">
<svg version="1.1" xmlns="http://www.w3.org/2000/svg" xmlns:xlink="http://www.w3.org/1999/xlink" width="100" height="100" viewBox="0 0 100 100">
<path d="M71.8 25.1c-1.7 0-3.1 1.3-3.1 2.9v36.3l-50.9-50.8c-1.2-1.2-3.1-1.2-4.3 0-1.2 1.1-1.2 3.1 0 4.3l50.8 50.9h-36.3c-1.6 0-2.9 1.4-2.9 3.1s1.3 3.1 2.9 3.1h43.8c0 0 0 0 0 0h0.2c0.7 0 1.3-0.3 1.8-0.7 0.1-0.1 0.2-0.1 0.2-0.2 0.1 0 0.1-0.1 0.2-0.2 0.4-0.5 0.7-1.1 0.7-1.8v-44c0-1.6-1.4-2.9-3.1-2.9z"></path>
</svg>
