<?xml version="1.0" encoding="utf-8"?>
<!-- Generated by IcoMoon.io -->
<!DOCTYPE svg PUBLIC "-//W3C//DTD SVG 1.1//EN" "http://www.w3.org/Graphics/SVG/1.1/DTD/svg11.dtd">
<svg version="1.1" xmlns="http://www.w3.org/2000/svg" xmlns:xlink="http://www.w3.org/1999/xlink" width="100" height="100" viewBox="0 0 100 100">
<path d="M84.3 87.5c0 1.7-1.4 3.1-3.1 3.1h-68.6c-1.7 0-3.1-1.4-3.1-3.1v-68.7c0-1.8 1.4-3.2 3.1-3.2h40.5v-6.2h-43.6c-3.5 0-6.3 2.8-6.3 6.2v75c0 3.5 2.8 6.3 6.3 6.3h74.8c3.5 0 6.2-2.8 6.2-6.3v-43.7h-6.2v40.6zM95.9 4c-1.2-1.2-3.2-1.2-4.4 0l-50.7 51-0.1-23.7c-0.1-1.7-1.5-3-3.2-3s-3.1 1.4-3.1 3l0.2 31.2c0 0 0 0 0 0s0 0 0 0v0.2c0 0.7 0.3 1.3 0.7 1.8 0.1 0.1 0.1 0.1 0.2 0.2s0.1 0.1 0.2 0.2c0.5 0.4 1.1 0.7 1.8 0.7h0.2c0 0 0 0 0 0s0 0 0 0l31.4-0.2c1.6 0 2.9-1.4 2.9-3.1 0-1.8-1.3-3.2-3-3.2l-23.8 0.2 50.7-51c1.2-1.2 1.2-3.1 0-4.3z"></path>
</svg>
