<?xml version="1.0" encoding="utf-8"?>
<!-- Generated by IcoMoon.io -->
<!DOCTYPE svg PUBLIC "-//W3C//DTD SVG 1.1//EN" "http://www.w3.org/Graphics/SVG/1.1/DTD/svg11.dtd">
<svg version="1.1" xmlns="http://www.w3.org/2000/svg" xmlns:xlink="http://www.w3.org/1999/xlink" width="100" height="100" viewBox="0 0 100 100">
<path d="M97.8 46.6l-48.9-33.2c-2.9-1.9-5.2-0.6-5.2 2.7v21.5h-31.2c-6.9 0-12.5 5.5-12.5 12.4s5.6 12.5 12.5 12.5h31.2v21.3c0 3.4 2.3 4.7 5.2 2.8l48.9-33.2c1.5-0.9 2.2-2.2 2.2-3.4 0-1.3-0.7-2.5-2.2-3.4zM49.9 78.5v-22.2h-37.4c-3.5 0-6.3-2.8-6.3-6.3 0-3.4 2.8-6.2 6.3-6.2h37.4v-22.3l41.9 28.5-41.9 28.5z"></path>
</svg>
