<?xml version="1.0" encoding="utf-8"?>
<!-- Generated by IcoMoon.io -->
<!DOCTYPE svg PUBLIC "-//W3C//DTD SVG 1.1//EN" "http://www.w3.org/Graphics/SVG/1.1/DTD/svg11.dtd">
<svg version="1.1" xmlns="http://www.w3.org/2000/svg" xmlns:xlink="http://www.w3.org/1999/xlink" width="100" height="100" viewBox="0 0 100 100">
<path d="M50 37.5c-6.9 0-12.5 5.6-12.5 12.5s5.6 12.5 12.5 12.5c6.9 0 12.5-5.6 12.5-12.5s-5.6-12.5-12.5-12.5zM50 56.2c-3.5 0-6.3-2.8-6.3-6.2 0-3.5 2.8-6.3 6.3-6.3s6.2 2.8 6.2 6.3c0 3.4-2.7 6.2-6.2 6.2zM12.5 37.5c-6.9 0-12.5 5.6-12.5 12.5s5.6 12.5 12.5 12.5 12.5-5.6 12.5-12.5c0-6.9-5.6-12.5-12.5-12.5zM12.5 56.2c-3.5 0-6.3-2.8-6.3-6.2 0-3.5 2.8-6.3 6.3-6.3 3.4 0 6.2 2.8 6.2 6.3 0 3.4-2.8 6.2-6.2 6.2zM87.5 37.5c-6.9 0-12.5 5.6-12.5 12.5s5.6 12.5 12.5 12.5c6.9 0 12.5-5.6 12.5-12.5s-5.6-12.5-12.5-12.5zM87.5 56.2c-3.5 0-6.3-2.8-6.3-6.2 0-3.5 2.8-6.3 6.3-6.3s6.2 2.8 6.2 6.3c0 3.4-2.7 6.2-6.2 6.2z"></path>
</svg>
