<?xml version="1.0" encoding="utf-8"?>
<!-- Generated by IcoMoon.io -->
<!DOCTYPE svg PUBLIC "-//W3C//DTD SVG 1.1//EN" "http://www.w3.org/Graphics/SVG/1.1/DTD/svg11.dtd">
<svg version="1.1" xmlns="http://www.w3.org/2000/svg" xmlns:xlink="http://www.w3.org/1999/xlink" width="100" height="100" viewBox="0 0 100 100">
<path d="M87.4 16.9h0.1l-0.3-0.3c-1.2-1.3-2.5-2.6-3.9-3.8l-0.2-0.3h-0.1c-8.8-7.7-20.3-12.5-33-12.5-27.6 0-50 22.4-50 50 0 12.7 4.8 24.2 12.5 33v0.1l0.3 0.3c1.2 1.3 2.5 2.6 3.8 3.8l0.3 0.3c8.9 7.7 20.4 12.5 33.1 12.5 27.6 0 50-22.4 50-50 0-12.7-4.8-24.2-12.6-33.1zM6.2 50c0-24.2 19.6-43.8 43.8-43.8 10.9 0 20.8 4.2 28.5 10.9l-61.4 61.4c-6.7-7.7-10.9-17.5-10.9-28.5zM50 93.7c-11 0-20.8-4.1-28.5-10.8l61.4-61.4c6.7 7.6 10.8 17.5 10.8 28.5 0 24.1-19.5 43.7-43.7 43.7z"></path>
</svg>
