<?xml version="1.0" encoding="utf-8"?>
<!-- Generated by IcoMoon.io -->
<!DOCTYPE svg PUBLIC "-//W3C//DTD SVG 1.1//EN" "http://www.w3.org/Graphics/SVG/1.1/DTD/svg11.dtd">
<svg version="1.1" xmlns="http://www.w3.org/2000/svg" xmlns:xlink="http://www.w3.org/1999/xlink" width="100" height="100" viewBox="0 0 100 100">
<path d="M50 3.1c-25.9 0-46.9 21-46.9 46.9s21 46.9 46.9 46.9c25.9 0 46.9-21 46.9-46.9s-21-46.9-46.9-46.9zM53.1 90.3v-21.6c0-1.7-1.4-3.1-3.1-3.1s-3.1 1.4-3.1 3.1v21.6c-19.9-1.5-35.7-17.3-37.2-37.2h21.5c1.8 0 3.2-1.4 3.2-3.1s-1.4-3.1-3.2-3.1h-21.5c1.5-19.9 17.3-35.7 37.2-37.2v21.5c0 1.8 1.4 3.2 3.1 3.2s3.1-1.4 3.1-3.2v-21.5c19.9 1.5 35.7 17.3 37.2 37.2h-21.6c-1.7 0-3.1 1.4-3.1 3.1s1.4 3.1 3.1 3.1h21.6c-1.5 19.9-17.3 35.7-37.2 37.2z"></path>
</svg>
