<?xml version="1.0" encoding="utf-8"?>
<!-- Generated by IcoMoon.io -->
<!DOCTYPE svg PUBLIC "-//W3C//DTD SVG 1.1//EN" "http://www.w3.org/Graphics/SVG/1.1/DTD/svg11.dtd">
<svg version="1.1" xmlns="http://www.w3.org/2000/svg" xmlns:xlink="http://www.w3.org/1999/xlink" width="100" height="100" viewBox="0 0 100 100">
<path d="M84.4 87.5c0 1.7-1.4 3.1-3.2 3.1h-68.7c-1.7 0-3.1-1.4-3.1-3.1v-68.8c0-1.7 1.4-3.1 3.1-3.1h40.6v-6.3h-43.7c-3.5 0-6.3 2.8-6.3 6.3v75c0 3.5 2.8 6.3 6.3 6.3h75c3.4 0 6.2-2.8 6.2-6.3v-43.8h-6.2v40.7zM96.7 6.3c0 0 0 0 0-0.1 0 0 0 0 0 0v-0.1c0-0.7-0.3-1.4-0.8-1.9 0 0-0.1-0.1-0.1-0.2-0.1 0-0.2-0.1-0.3-0.1-0.5-0.5-1.1-0.8-1.8-0.8h-0.1c0 0-0.1 0-0.1 0s0 0 0 0l-31.4 0.2c-1.6 0-2.9 1.4-2.9 3.2s1.3 3.1 2.9 3.1l24-0.2-50.8 51c-1.2 1.2-1.2 3.2 0 4.3 1.2 1.2 3.1 1.2 4.3 0l50.8-51 0.2 23.8c0 1.6 1.4 2.9 3.1 2.9 1.8 0 3.2-1.3 3.2-3l-0.2-31.1z"></path>
</svg>
