<?xml version="1.0" encoding="utf-8"?>
<!-- Generated by IcoMoon.io -->
<!DOCTYPE svg PUBLIC "-//W3C//DTD SVG 1.1//EN" "http://www.w3.org/Graphics/SVG/1.1/DTD/svg11.dtd">
<svg version="1.1" xmlns="http://www.w3.org/2000/svg" xmlns:xlink="http://www.w3.org/1999/xlink" width="100" height="100" viewBox="0 0 100 100">
<path d="M88.2 45.9c-9.1-10.4-23.3-16-41.4-16.6v-16.9c0-1.2-0.7-2.3-1.8-2.8s-2.4-0.3-3.3 0.4l-40.6 32.2c-0.7 0.6-1.1 1.4-1.1 2.3s0.4 1.8 1.1 2.4l40.6 32.4c0.9 0.8 2.2 0.9 3.3 0.4s1.8-1.5 1.8-2.7v-17.3c43.7-0.1 47 27.1 47.1 28.2 0.1 1.5 1.1 2.7 2.7 2.8 0 0 0.1 0 0.1 0 1.5 0 2.7-1.1 2.9-2.6 0.1-1 3.4-25.4-11.4-42.2zM43.6 53.6c0 0 0 0 0 0-0.8 0-1.6 0.3-2.2 0.8-0.6 0.6-0.9 1.4-0.9 2.2v14l-32.4-26.1 32.4-25.8v13.6c0 1.7 1.4 3 3.1 3 17.8 0 31.4 5 39.8 14.5 6.4 7.1 9.3 15.8 10.3 23-6.8-9-18.8-19.2-50.1-19.2z"></path>
</svg>
