<?xml version="1.0" encoding="utf-8"?>
<!-- Generated by IcoMoon.io -->
<!DOCTYPE svg PUBLIC "-//W3C//DTD SVG 1.1//EN" "http://www.w3.org/Graphics/SVG/1.1/DTD/svg11.dtd">
<svg version="1.1" xmlns="http://www.w3.org/2000/svg" xmlns:xlink="http://www.w3.org/1999/xlink" width="100" height="100" viewBox="0 0 100 100">
<path d="M64.9 35.1c-1.1-1.1-3.1-1.1-4.3 0.1l-10.6 10.6-10.6-10.6c-1.2-1.2-3.2-1.2-4.3-0.1s-1.1 3 0.1 4.3l10.6 10.5-10.6 10.5c-1.2 1.3-1.2 3.2-0.1 4.3 1.2 1.2 3.1 1.1 4.3-0.1l10.6-10.6 10.6 10.6c1.2 1.2 3.2 1.3 4.3 0.1 1.2-1.1 1.1-3-0.1-4.3l-10.6-10.5 10.6-10.5c1.2-1.3 1.2-3.2 0.1-4.3zM50 3.1c-25.9 0-46.9 21-46.9 46.9s21 46.9 46.9 46.9c25.9 0 46.9-21 46.9-46.9s-21-46.9-46.9-46.9zM50 90.6c-22.4 0-40.6-18.2-40.6-40.6s18.2-40.6 40.6-40.6 40.6 18.2 40.6 40.6-18.2 40.6-40.6 40.6z"></path>
</svg>
