<?xml version="1.0" encoding="utf-8"?>
<!-- Generated by IcoMoon.io -->
<!DOCTYPE svg PUBLIC "-//W3C//DTD SVG 1.1//EN" "http://www.w3.org/Graphics/SVG/1.1/DTD/svg11.dtd">
<svg version="1.1" xmlns="http://www.w3.org/2000/svg" xmlns:xlink="http://www.w3.org/1999/xlink" width="100" height="100" viewBox="0 0 100 100">
<path d="M50 48.9v-27c0-1.8-1.4-3.2-3.1-3.2-1.8 0-3.2 1.4-3.2 3.2v28.1c0 1.1 0.6 2 1.5 2.6l18.4 18.4c1.2 1.1 3.1 1.1 4.3 0 1.1-1.2 1.1-3.1 0-4.3l-17.9-17.8zM50 0c-27.6 0-50 22.4-50 50s22.4 50 50 50c27.6 0 50-22.4 50-50s-22.4-50-50-50zM50 93.8c-24.2 0-43.8-19.6-43.8-43.8s19.6-43.8 43.8-43.8c24.2 0 43.7 19.6 43.7 43.8s-19.5 43.8-43.7 43.8z"></path>
</svg>
