<?xml version="1.0" encoding="utf-8"?>
<!-- Generated by IcoMoon.io -->
<!DOCTYPE svg PUBLIC "-//W3C//DTD SVG 1.1//EN" "http://www.w3.org/Graphics/SVG/1.1/DTD/svg11.dtd">
<svg version="1.1" xmlns="http://www.w3.org/2000/svg" xmlns:xlink="http://www.w3.org/1999/xlink" width="100" height="100" viewBox="0 0 100 100">
<path d="M100 31.2v-31.2h-31.3v12.5h-37.5v-12.5h-31.2v31.2h12.5v37.5h-12.5v31.3h31.2v-12.5h37.5v12.5h31.3v-31.3h-12.5v-37.5h12.5zM6.2 25v-18.8h18.8v18.8h-18.8zM25 93.7h-18.8v-18.7h18.8v18.7zM68.7 81.2h-37.5v-12.5h-12.5v-37.5h12.5v-12.5h37.5v12.5h12.5v37.5h-12.5v12.5zM93.7 75v18.7h-18.7v-18.7h18.7zM75 25v-18.8h18.7v18.8h-18.7z"></path>
</svg>
