<?xml version="1.0" encoding="utf-8"?>
<!-- Generated by IcoMoon.io -->
<!DOCTYPE svg PUBLIC "-//W3C//DTD SVG 1.1//EN" "http://www.w3.org/Graphics/SVG/1.1/DTD/svg11.dtd">
<svg version="1.1" xmlns="http://www.w3.org/2000/svg" xmlns:xlink="http://www.w3.org/1999/xlink" width="100" height="100" viewBox="0 0 100 100">
<path d="M0 12.5v25h6.2v-25c0-3.5 2.8-6.3 6.3-6.3h25v-6.2h-25c-6.9 0-12.5 5.6-12.5 12.5zM6.2 87.5v-25h-6.2v25c0 6.9 5.6 12.5 12.5 12.5h25v-6.3h-25c-3.5 0-6.3-2.7-6.3-6.2zM87.5 0h-25v6.2h25c3.5 0 6.2 2.8 6.2 6.3v25h6.3v-25c0-6.9-5.6-12.5-12.5-12.5zM93.7 87.5c0 3.5-2.7 6.2-6.2 6.2h-25v6.3h25c6.9 0 12.5-5.6 12.5-12.5v-25h-6.3v25z"></path>
</svg>
