<?xml version="1.0" encoding="utf-8"?>
<!-- Generated by IcoMoon.io -->
<!DOCTYPE svg PUBLIC "-//W3C//DTD SVG 1.1//EN" "http://www.w3.org/Graphics/SVG/1.1/DTD/svg11.dtd">
<svg version="1.1" xmlns="http://www.w3.org/2000/svg" xmlns:xlink="http://www.w3.org/1999/xlink" width="100" height="100" viewBox="0 0 100 100">
<path d="M36.6 44.6c-1.2-1.2-3.2-1.2-4.4 0s-1.2 3.2 0 4.4l18.4 18.3c0.1 0.1 0.1 0.3 0.2 0.4 0.6 0.6 1.4 0.9 2.3 0.8 0.8 0 1.6-0.2 2.2-0.8 0.1-0.1 0.1-0.2 0.1-0.3l43.7-43.4c1.2-1.2 1.2-3.2 0-4.4-1.3-1.2-3.2-1.2-4.4 0l-41.7 41.4-16.4-16.4zM93.4 47.2c0.1 1 0.3 1.8 0.3 2.8 0 24.2-19.6 43.7-43.7 43.7-24.2 0-43.8-19.5-43.8-43.7s19.6-43.8 43.8-43.8c10.9 0 20.7 4.2 28.4 10.8l4.6-4.5c-8.8-7.8-20.4-12.5-33-12.5-27.6 0-50 22.4-50 50s22.4 50 50 50c27.6 0 50-22.4 50-50 0-2.9-0.3-5.6-0.8-8.4l-5.8 5.6z"></path>
</svg>
