<?xml version="1.0" encoding="utf-8"?>
<!-- Generated by IcoMoon.io -->
<!DOCTYPE svg PUBLIC "-//W3C//DTD SVG 1.1//EN" "http://www.w3.org/Graphics/SVG/1.1/DTD/svg11.dtd">
<svg version="1.1" xmlns="http://www.w3.org/2000/svg" xmlns:xlink="http://www.w3.org/1999/xlink" width="100" height="100" viewBox="0 0 100 100">
<path d="M21.9 28.1h56.2c1.7 0 3.1-1.4 3.1-3.1s-1.4-3.1-3.1-3.1h-56.2c-1.8 0-3.2 1.4-3.2 3.1s1.4 3.1 3.2 3.1zM78.1 71.9h-56.2c-1.8 0-3.2 1.4-3.2 3.1s1.4 3.1 3.2 3.1h56.2c1.7 0 3.1-1.4 3.1-3.1s-1.4-3.1-3.1-3.1zM78.1 46.9h-56.2c-1.8 0-3.2 1.4-3.2 3.1s1.4 3.1 3.2 3.1h56.2c1.7 0 3.1-1.4 3.1-3.1s-1.4-3.1-3.1-3.1z"></path>
</svg>
