<?xml version="1.0" encoding="utf-8"?>
<!-- Generated by IcoMoon.io -->
<!DOCTYPE svg PUBLIC "-//W3C//DTD SVG 1.1//EN" "http://www.w3.org/Graphics/SVG/1.1/DTD/svg11.dtd">
<svg version="1.1" xmlns="http://www.w3.org/2000/svg" xmlns:xlink="http://www.w3.org/1999/xlink" width="100" height="100" viewBox="0 0 100 100">
<path d="M81.2 62.5h-12.5v-25h12.5c10.4 0 18.8-8.4 18.8-18.8 0-10.3-8.4-18.7-18.8-18.7s-18.7 8.4-18.7 18.7v12.5h-25v-12.5c0-10.3-8.4-18.7-18.8-18.7-10.3 0-18.7 8.4-18.7 18.7 0 10.4 8.4 18.8 18.7 18.8h12.5v25h-12.5c-10.3 0-18.7 8.4-18.7 18.7 0 10.4 8.4 18.8 18.7 18.8 10.4 0 18.8-8.4 18.8-18.8v-12.5h25v12.5c0 10.4 8.4 18.8 18.7 18.8s18.8-8.4 18.8-18.8c0-10.3-8.4-18.7-18.8-18.7zM68.7 18.7c0-6.9 5.6-12.5 12.5-12.5s12.5 5.6 12.5 12.5c0 6.9-5.6 12.5-12.5 12.5h-12.5v-12.5zM31.2 81.2c0 6.9-5.5 12.5-12.5 12.5-6.9 0-12.5-5.6-12.5-12.5s5.6-12.5 12.5-12.5h12.5v12.5zM31.2 31.2h-12.5c-6.9 0-12.5-5.6-12.5-12.5s5.6-12.5 12.5-12.5c6.9 0 12.5 5.6 12.5 12.5v12.5zM62.5 62.5h-25v-25h25v25zM81.2 93.7c-6.9 0-12.5-5.6-12.5-12.5v-12.5h12.5c6.9 0 12.5 5.6 12.5 12.5s-5.6 12.5-12.5 12.5z"></path>
</svg>
