<?xml version="1.0" encoding="utf-8"?>
<!-- Generated by IcoMoon.io -->
<!DOCTYPE svg PUBLIC "-//W3C//DTD SVG 1.1//EN" "http://www.w3.org/Graphics/SVG/1.1/DTD/svg11.dtd">
<svg version="1.1" xmlns="http://www.w3.org/2000/svg" xmlns:xlink="http://www.w3.org/1999/xlink" width="100" height="100" viewBox="0 0 100 100">
<path d="M99.9 37.5c0 0 0-0.1 0-0.1-0.1-0.8-0.4-1.5-0.8-2-0.1 0-0.1-0.1-0.1-0.1 0-0.1-0.1 0-0.1-0.1-0.5-0.5-1.2-0.8-2-0.8 0 0-0.1 0-0.1 0s0 0 0 0h-26.3l-17.8-32.9c0-0.1-0.1-0.1-0.1-0.1-0.1-0.2-0.3-0.3-0.4-0.5-0.2-0.1-0.3-0.3-0.5-0.4-0.1 0-0.1-0.1-0.1-0.1-0.2-0.1-0.3-0.1-0.4-0.1-0.2-0.1-0.4-0.2-0.6-0.2-0.2-0.1-0.4-0.1-0.6-0.1s-0.4 0-0.6 0.1c-0.2 0-0.4 0.1-0.6 0.2-0.1 0-0.3 0-0.4 0.1 0 0 0 0.1-0.1 0.1-0.2 0.1-0.3 0.3-0.5 0.4-0.1 0.2-0.3 0.3-0.4 0.5 0 0-0.1 0-0.1 0.1l-17.8 32.9h-26.3c0 0 0 0 0 0s-0.1 0-0.1 0c-0.8 0-1.5 0.3-2 0.8 0 0.1-0.1 0-0.1 0.1 0 0 0 0.1-0.1 0.1-0.4 0.5-0.7 1.2-0.8 2 0 0 0 0.1 0 0.1 0 0.9 0.4 1.7 1 2.3l23.5 23.5-8.9 32.7c0 0.2 0 0.5 0 0.8 0 0.1 0 0.1 0 0.2 0 0.8 0.4 1.4 0.9 2 0 0 0 0 0 0.1 0 0 0.1 0 0.1 0 0.4 0.4 0.8 0.7 1.3 0.8 0.3 0.1 0.6 0.1 0.9 0.1 0 0 0 0 0 0 0.8 0 1.5-0.3 2.1-0.8 0-0.1 0.1 0 0.2-0.1l28.8-20.5 28.8 20.5c0.1 0.1 0.2 0 0.2 0.1 0.6 0.5 1.3 0.8 2.1 0.8 0.3 0 0.6 0 0.9-0.1 0.5-0.1 0.9-0.4 1.3-0.8 0 0 0.1 0 0.1 0 0-0.1 0-0.1 0-0.1 0.5-0.6 0.9-1.2 0.9-2 0-0.1 0-0.1 0-0.2 0-0.3 0-0.6 0-0.8l-8.9-32.7 23.5-23.5c0.6-0.6 1-1.4 1-2.3zM69.6 60.3c0 0.1 0 0.1 0 0.2-0.6 0.5-0.9 1.2-0.9 2 0 0 0 0.1 0 0.1 0 0.3 0 0.5 0.1 0.8l7 26-23.3-16.6c-0.7-0.6-1.6-0.8-2.5-0.8s-1.8 0.2-2.5 0.8l-23.3 16.6 7-26c0.1-0.3 0.1-0.5 0.1-0.8 0 0 0-0.1 0-0.1 0-0.8-0.3-1.5-0.9-2 0-0.1 0-0.1 0-0.2l-19.7-19.7h20.6c0.2 0 0.3 0 0.5-0.1 0.2 0 0.3 0 0.5-0.1 0.6-0.2 1.1-0.6 1.5-1.1 0-0.1 0.1-0.1 0.2-0.2l16-29.6 16 29.6c0.1 0.1 0.2 0.1 0.2 0.2 0.4 0.5 0.9 0.9 1.6 1.1 0.1 0.1 0.2 0.1 0.4 0.1 0.1 0.1 0.3 0.1 0.5 0.1h20.6l-19.7 19.7z"></path>
</svg>
