<?xml version="1.0" encoding="utf-8"?>
<!-- Generated by IcoMoon.io -->
<!DOCTYPE svg PUBLIC "-//W3C//DTD SVG 1.1//EN" "http://www.w3.org/Graphics/SVG/1.1/DTD/svg11.dtd">
<svg version="1.1" xmlns="http://www.w3.org/2000/svg" xmlns:xlink="http://www.w3.org/1999/xlink" width="100" height="100" viewBox="0 0 100 100">
<path d="M50 3.1c-25.9 0-46.9 21-46.9 46.9s21 46.9 46.9 46.9c25.9 0 46.9-21 46.9-46.9s-21-46.9-46.9-46.9zM50 90.6c-22.4 0-40.6-18.2-40.6-40.6s18.2-40.6 40.6-40.6 40.6 18.2 40.6 40.6c0 22.4-18.2 40.6-40.6 40.6zM68.6 46.9h-37.2c-1.8 0-3.3 1.4-3.3 3.1s1.5 3 3.3 3h37.2c1.8 0 3.3-1.3 3.3-3s-1.5-3.1-3.3-3.1z"></path>
</svg>
