<?xml version="1.0" encoding="utf-8"?>
<!-- Generated by IcoMoon.io -->
<!DOCTYPE svg PUBLIC "-//W3C//DTD SVG 1.1//EN" "http://www.w3.org/Graphics/SVG/1.1/DTD/svg11.dtd">
<svg version="1.1" xmlns="http://www.w3.org/2000/svg" xmlns:xlink="http://www.w3.org/1999/xlink" width="100" height="100" viewBox="0 0 100 100">
<path d="M38.5 57.1l-32.3 32.3v-23.8c0-1.7-1.4-3.1-3.1-3.1s-3.1 1.4-3.1 3.1v31.3c0 0 0 0.1 0 0.1 0.1 0.8 0.4 1.4 0.8 2 0.1 0 0.1 0.1 0.1 0.1s0.1 0 0.1 0.1c0.5 0.4 1.2 0.7 2 0.8 0 0 0.1 0 0.1 0s0 0 0 0h31.3c1.7 0 3.1-1.4 3.1-3.1 0-1.8-1.4-3.2-3.1-3.2h-23.8l32.3-32.2c1.2-1.2 1.2-3.2 0-4.4-1.3-1.2-3.2-1.2-4.4 0zM100 3c-0.1-0.8-0.4-1.5-0.8-2-0.1 0-0.1-0.1-0.1-0.1s-0.1 0-0.1-0.1c-0.6-0.4-1.2-0.7-2-0.8 0 0-0.1 0-0.1 0h-31.3c-1.7 0-3.1 1.4-3.1 3.1s1.4 3.1 3.1 3.1h23.8l-32.3 32.3c-1.2 1.2-1.2 3.1 0 4.3 1.3 1.3 3.2 1.3 4.4 0l32.2-32.2v23.8c0 1.7 1.5 3.1 3.2 3.1s3.1-1.4 3.1-3.1v-31.3c0 0 0-0.1 0-0.1z"></path>
</svg>
