<?xml version="1.0" encoding="utf-8"?>
<!-- Generated by IcoMoon.io -->
<!DOCTYPE svg PUBLIC "-//W3C//DTD SVG 1.1//EN" "http://www.w3.org/Graphics/SVG/1.1/DTD/svg11.dtd">
<svg version="1.1" xmlns="http://www.w3.org/2000/svg" xmlns:xlink="http://www.w3.org/1999/xlink" width="100" height="100" viewBox="0 0 100 100">
<path d="M47.6 73.8c0 0 0 0 0 0 0.1 0.1 0.1 0.2 0.2 0.3s0.3 0.1 0.4 0.2c0.4 0.3 1 0.6 1.6 0.6 0.1 0 0.1 0.1 0.2 0.1 0 0 0 0 0 0s0 0 0 0c0.1 0 0.1 0 0.2 0 0.7-0.1 1.4-0.4 1.9-0.8 0-0.1 0.1-0.1 0.1-0.1 0.1-0.1 0.1-0.1 0.1-0.1 0-0.1 0-0.1 0-0.2l15.6-15.5c1.1-1.2 1.1-3.1 0-4.3-1.2-1.2-3.2-1.2-4.4 0l-10.4 10.4v-61.3c0-1.7-1.4-3.1-3.1-3.1s-3.1 1.4-3.1 3.1v61.3l-10.4-10.4c-1.2-1.2-3.2-1.2-4.4 0s-1.2 3.1 0 4.3l15.5 15.5zM84.4 25h-9.4v6.2h6.2c1.8 0 3.2 1.4 3.2 3.2v56.2c0 1.7-1.4 3.1-3.2 3.1h-62.5c-1.7 0-3.1-1.4-3.1-3.1v-56.2c0-1.8 1.4-3.2 3.1-3.2h6.3v-6.2h-9.4c-3.4 0-6.2 2.8-6.2 6.2v62.6c0 3.4 2.8 6.2 6.2 6.2h68.8c3.4 0 6.2-2.8 6.2-6.2v-62.6c0-3.4-2.8-6.2-6.2-6.2z"></path>
</svg>
