<?xml version="1.0" encoding="utf-8"?>
<!-- Generated by IcoMoon.io -->
<!DOCTYPE svg PUBLIC "-//W3C//DTD SVG 1.1//EN" "http://www.w3.org/Graphics/SVG/1.1/DTD/svg11.dtd">
<svg version="1.1" xmlns="http://www.w3.org/2000/svg" xmlns:xlink="http://www.w3.org/1999/xlink" width="100" height="100" viewBox="0 0 100 100">
<path d="M96.9 81.2h-9.4v-62.5c0-0.9-0.4-2.5-1-3.8l3.2-3.3c1.2-1.3 1.2-3.3 0-4.5-1.3-1.2-3.3-1.2-4.5 0l-5.1 5.4h-61.4v-9.4c0-1.7-1.4-3.1-3.1-3.1s-3.1 1.4-3.1 3.1v9.4h-9.4c-1.7 0-3.1 1.4-3.1 3.1s1.4 3.1 3.1 3.1h9.4v65.7c0 1.7 1.4 3.1 3.1 3.1v0h65.6v9.4c0 1.7 1.5 3.1 3.2 3.1s3.1-1.4 3.1-3.1v-9.4h9.4c1.7 0 3.1-1.4 3.1-3.1 0-1.8-1.4-3.2-3.1-3.2zM18.7 18.7h55.4l-55.4 57.8v-57.8zM81.2 81.2h-58.2l58.2-60.8v60.8z"></path>
</svg>
