<?xml version="1.0" encoding="utf-8"?>
<!-- Generated by IcoMoon.io -->
<!DOCTYPE svg PUBLIC "-//W3C//DTD SVG 1.1//EN" "http://www.w3.org/Graphics/SVG/1.1/DTD/svg11.dtd">
<svg version="1.1" xmlns="http://www.w3.org/2000/svg" xmlns:xlink="http://www.w3.org/1999/xlink" width="100" height="100" viewBox="0 0 100 100">
<path d="M93.6-3.2c0-0.7-0.3-1.4-0.8-1.9 0-0.1 0-0.1 0-0.2s-0.1 0-0.2 0c-0.5-0.5-1.2-0.8-1.9-0.8-0.1 0-0.1-0.1-0.2-0.1h-37.4c-1.7 0-3.1 1.4-3.1 3.2 0 1.7 1.4 3.1 3.1 3.1h29.9l-82.9 82.9v-29.9c0-1.7-1.4-3.1-3.1-3.1-1.8 0-3.2 1.4-3.2 3.1v37.4c0 0.1 0.1 0.1 0.1 0.2 0 0.7 0.3 1.4 0.8 1.9 0 0.1 0 0.1 0 0.2s0.1 0 0.2 0c0.5 0.5 1.2 0.8 1.9 0.8 0.1 0 0.1 0 0.2 0 0 0 0 0 0 0h37.4c1.7 0 3.1-1.3 3.1-3.1 0-1.7-1.4-3.1-3.1-3.1h-29.9l82.9-82.9v29.9c0 1.7 1.4 3.1 3.1 3.1 1.8 0 3.2-1.4 3.2-3.1v-37.4c0-0.1-0.1-0.1-0.1-0.2z"></path>
</svg>
