<?xml version="1.0" encoding="utf-8"?>
<!-- Generated by IcoMoon.io -->
<!DOCTYPE svg PUBLIC "-//W3C//DTD SVG 1.1//EN" "http://www.w3.org/Graphics/SVG/1.1/DTD/svg11.dtd">
<svg version="1.1" xmlns="http://www.w3.org/2000/svg" xmlns:xlink="http://www.w3.org/1999/xlink" width="100" height="100" viewBox="0 0 100 100">
<path d="M50 0c-18.9 0-35.2 10.5-43.7 26v-22.9c0-1.7-1.4-3.1-3.2-3.1s-3.1 1.4-3.1 3.1v31c0 0.1 0 0.2 0 0.3s0.1 0.2 0.1 0.4c0 0.4 0.1 0.7 0.3 1 0.1 0.2 0.2 0.3 0.2 0.4 0.3 0.4 0.7 0.7 1.1 1 0 0.1 0 0.2 0 0.3h32.7c1.7 0 3.1-1.4 3.1-3.1s-1.4-3.2-3.1-3.2h-23.8c7.1-14.7 22-25 39.4-25 24.2 0 43.8 19.6 43.8 43.8s-19.6 43.7-43.8 43.7c-14.8 0-27.9-7.4-35.8-18.7h-7.4c8.6 14.9 24.7 25 43.2 25 27.6 0 50-22.4 50-50s-22.4-50-50-50zM53.1 18.7c-1.7 0-3.1 1.4-3.1 3.2v31.2c0 1.7 1.4 3.1 3.1 3.1h25c1.8 0 3.2-1.4 3.2-3.1s-1.4-3.1-3.2-3.1h-21.8v-28.1c0-1.8-1.4-3.2-3.2-3.2z"></path>
</svg>
