<?xml version="1.0" encoding="utf-8"?>
<!-- Generated by IcoMoon.io -->
<!DOCTYPE svg PUBLIC "-//W3C//DTD SVG 1.1//EN" "http://www.w3.org/Graphics/SVG/1.1/DTD/svg11.dtd">
<svg version="1.1" xmlns="http://www.w3.org/2000/svg" xmlns:xlink="http://www.w3.org/1999/xlink" width="100" height="100" viewBox="0 0 100 100">
<path d="M77.1 47.8c-1.2-1.2-3.1-1.2-4.3 0l-25.9 28.5v-73.1c0-1.7-1.4-3.1-3.1-3.1s-3.2 1.4-3.2 3.1v73.1l-25.9-28.5c-1.2-1.2-3.2-1.2-4.3 0s-1.2 3.1 0 4.3l30.8 33.9c0.1 0.1 0.1 0.1 0.2 0.2s0 0.2 0.1 0.3c0.1 0.1 0.3 0.1 0.5 0.2 0.4 0.4 0.9 0.6 1.5 0.6 0.1 0.1 0.1 0.1 0.2 0.1 0 0 0 0 0 0 0.1 0 0.1 0 0.1 0s0.1 0 0.1 0c0.7-0.1 1.4-0.4 1.9-0.8 0.1-0.1 0.1 0 0.2-0.1s0-0.1 0-0.1c0.1-0.1 0.1-0.1 0.1-0.2l31-34.1c1.2-1.2 1.2-3.2 0-4.3z"></path>
</svg>
