<?xml version="1.0" encoding="utf-8"?>
<!-- Generated by IcoMoon.io -->
<!DOCTYPE svg PUBLIC "-//W3C//DTD SVG 1.1//EN" "http://www.w3.org/Graphics/SVG/1.1/DTD/svg11.dtd">
<svg version="1.1" xmlns="http://www.w3.org/2000/svg" xmlns:xlink="http://www.w3.org/1999/xlink" width="100" height="100" viewBox="0 0 100 100">
<path d="M30.1 25.7c-1.2-1.2-3.2-1.2-4.4 0s-1.2 3.2 0 4.4l4.4 4.4c1.2 1.2 3.2 1.2 4.4 0s1.2-3.2 0-4.4l-4.4-4.4zM69.9 34.5l4.4-4.4c1.2-1.2 1.2-3.2 0-4.4s-3.2-1.2-4.4 0l-4.4 4.4c-1.3 1.2-1.3 3.2 0 4.4 1.2 1.2 3.2 1.2 4.4 0zM30.1 65.5l-4.4 4.4c-1.2 1.2-1.2 3.2 0 4.4s3.2 1.2 4.4 0l4.4-4.4c1.2-1.2 1.2-3.2 0-4.4s-3.2-1.3-4.4 0zM28.1 50c0-1.7-1.4-3.1-3.1-3.1h-6.3c-1.7 0-3.1 1.4-3.1 3.1s1.4 3.1 3.1 3.1h6.3c1.7 0 3.1-1.4 3.1-3.1zM50 15.6c-1.7 0-3.1 1.4-3.1 3.1v6.3c0 1.7 1.4 3.1 3.1 3.1s3.1-1.4 3.1-3.1v-6.3c0-1.7-1.4-3.1-3.1-3.1zM81.2 46.9h-6.2c-1.7 0-3.1 1.4-3.1 3.1s1.4 3.1 3.1 3.1h6.2c1.8 0 3.2-1.4 3.2-3.1s-1.4-3.1-3.2-3.1zM50 71.9c-1.7 0-3.1 1.4-3.1 3.1v6.2c0 1.8 1.4 3.2 3.1 3.2s3.1-1.4 3.1-3.2v-6.2c0-1.7-1.4-3.1-3.1-3.1zM50 3.1c-25.9 0-46.9 21-46.9 46.9s21 46.9 46.9 46.9c25.9 0 46.9-21 46.9-46.9s-21-46.9-46.9-46.9zM50 90.6c-22.4 0-40.6-18.2-40.6-40.6s18.2-40.6 40.6-40.6 40.6 18.2 40.6 40.6c0 22.4-18.2 40.6-40.6 40.6zM69.9 65.5c-1.2-1.3-3.2-1.3-4.4 0s-1.3 3.2 0 4.4l4.4 4.4c1.2 1.2 3.2 1.2 4.4 0s1.2-3.2 0-4.4l-4.4-4.4z"></path>
</svg>
