<?xml version="1.0" encoding="utf-8"?>
<!-- Generated by IcoMoon.io -->
<!DOCTYPE svg PUBLIC "-//W3C//DTD SVG 1.1//EN" "http://www.w3.org/Graphics/SVG/1.1/DTD/svg11.dtd">
<svg version="1.1" xmlns="http://www.w3.org/2000/svg" xmlns:xlink="http://www.w3.org/1999/xlink" width="100" height="100" viewBox="0 0 100 100">
<path d="M68.6 46.8h-37.2c-1.8 0-3.3 1.5-3.3 3.2s1.5 3.1 3.3 3.1h37.2c1.8 0 3.3-1.4 3.3-3.1s-1.5-3.2-3.3-3.2zM84.4 3.1h-68.8c-6.9 0-12.5 5.6-12.5 12.5v68.8c0 6.9 5.6 12.5 12.5 12.5h68.8c6.9 0 12.5-5.6 12.5-12.5v-68.8c0-6.9-5.6-12.5-12.5-12.5zM90.6 84.4c0 3.4-2.8 6.2-6.2 6.2h-68.8c-3.4 0-6.2-2.8-6.2-6.2v-68.8c0-3.4 2.8-6.2 6.2-6.2h68.8c3.4 0 6.2 2.8 6.2 6.2v68.8z"></path>
</svg>
