<?xml version="1.0" encoding="utf-8"?>
<!-- Generated by IcoMoon.io -->
<!DOCTYPE svg PUBLIC "-//W3C//DTD SVG 1.1//EN" "http://www.w3.org/Graphics/SVG/1.1/DTD/svg11.dtd">
<svg version="1.1" xmlns="http://www.w3.org/2000/svg" xmlns:xlink="http://www.w3.org/1999/xlink" width="100" height="100" viewBox="0 0 100 100">
<path d="M99.1 50.8l-46.8-49.9c-0.7-0.6-1.5-0.9-2.3-0.9s-1.6 0.3-2.3 0.9l-46.8 49.9c-1.2 1.3-1.2 3.2 0 4.5 1.3 1.2 3.3 1.2 4.5 0l13.4-14.3v55.9c0 1.7 1.4 3.1 3.1 3.1h56.3c1.7 0 3.1-1.4 3.1-3.1v-55.8l13.3 14.2c1.2 1.2 3.2 1.2 4.5 0 1.2-1.3 1.2-3.2 0-4.5zM75 37.5v56.3h-50v-56.3c0-0.9-0.3-1.7-0.9-2.2l25.9-27.6 25.9 27.6c-0.5 0.6-0.9 1.4-0.9 2.2z"></path>
</svg>
