<?xml version="1.0" encoding="utf-8"?>
<!-- Generated by IcoMoon.io -->
<!DOCTYPE svg PUBLIC "-//W3C//DTD SVG 1.1//EN" "http://www.w3.org/Graphics/SVG/1.1/DTD/svg11.dtd">
<svg version="1.1" xmlns="http://www.w3.org/2000/svg" xmlns:xlink="http://www.w3.org/1999/xlink" width="100" height="100" viewBox="0 0 100 100">
<path d="M50 3.1c-25.9 0-46.9 21-46.9 46.9s21 46.9 46.9 46.9c25.9 0 46.9-21 46.9-46.9s-21-46.9-46.9-46.9zM50 90.6c-22.4 0-40.6-18.2-40.6-40.6s18.2-40.6 40.6-40.6 40.6 18.2 40.6 40.6c0 22.4-18.2 40.6-40.6 40.6zM80.4 47.9c0-0.1 0-0.1 0-0.1-0.1-0.1-0.1-0.1-0.2-0.1 0 0 0 0-0.1 0l-21.7-18.7c-1.2-1.2-3.2-1.2-4.4 0s-1.2 3.2 0 4.4l15.7 13.5h-51c-1.7 0-3.1 1.4-3.1 3.1s1.4 3.1 3.1 3.1h51l-15.7 13.5c-1.2 1.2-1.2 3.2 0 4.4s3.2 1.2 4.4 0l21.7-18.7c0.1 0 0.1 0 0.1 0 0.1-0.1 0.1-0.1 0.2-0.1 0 0 0-0.1 0-0.1 0.5-0.6 0.9-1.3 0.9-2.1-0.1-0.8-0.4-1.6-0.9-2.1z"></path>
</svg>
