<?xml version="1.0" encoding="utf-8"?>
<!-- Generated by IcoMoon.io -->
<!DOCTYPE svg PUBLIC "-//W3C//DTD SVG 1.1//EN" "http://www.w3.org/Graphics/SVG/1.1/DTD/svg11.dtd">
<svg version="1.1" xmlns="http://www.w3.org/2000/svg" xmlns:xlink="http://www.w3.org/1999/xlink" width="100" height="100" viewBox="0 0 100 100">
<path d="M48.1 43.7l38.5-38.5c1.2-1.2 1.2-3.1 0-4.3s-3.1-1.2-4.3 0l-38.5 38.5-38.6-38.5c-1.2-1.2-3.1-1.2-4.3 0s-1.2 3.1 0 4.3l38.5 38.5-38.5 38.6c-1.2 1.2-1.2 3.1 0 4.3s3.1 1.2 4.3 0l38.6-38.5 38.5 38.5c1.2 1.2 3.1 1.2 4.3 0s1.2-3.1 0-4.3l-38.5-38.6z"></path>
</svg>
