<?xml version="1.0" encoding="utf-8"?>
<!-- Generated by IcoMoon.io -->
<!DOCTYPE svg PUBLIC "-//W3C//DTD SVG 1.1//EN" "http://www.w3.org/Graphics/SVG/1.1/DTD/svg11.dtd">
<svg version="1.1" xmlns="http://www.w3.org/2000/svg" xmlns:xlink="http://www.w3.org/1999/xlink" width="100" height="100" viewBox="0 0 100 100">
<path d="M67.8 0h22.8c1.7 0 3.1-1.4 3.1-3.1s-1.4-3.1-3.1-3.1h-31c-0.1 0-0.1-0.1-0.2-0.1-0.2 0-0.3 0.1-0.4 0.1-0.4 0.1-0.8 0.2-1.1 0.4-0.1 0-0.2 0.1-0.3 0.2-0.4 0.3-0.8 0.6-1 1.1-0.1 0-0.2-0.1-0.3-0.1v32.7c0 1.8 1.4 3.1 3.1 3.1s3.1-1.4 3.1-3.1v-23.7c14.7 7 25 21.9 25 39.4 0 24.1-19.6 43.7-43.7 43.7-24.2 0-43.8-19.6-43.8-43.7 0-22.1 16.3-40.1 37.5-43.2v-6.4c-24.7 3.1-43.8 24.1-43.8 49.6 0 27.6 22.4 50 50.1 50s50-22.4 50-50c0-18.9-10.6-35.3-26-43.8z"></path>
</svg>
