<?xml version="1.0" encoding="utf-8"?>
<!-- Generated by IcoMoon.io -->
<!DOCTYPE svg PUBLIC "-//W3C//DTD SVG 1.1//EN" "http://www.w3.org/Graphics/SVG/1.1/DTD/svg11.dtd">
<svg version="1.1" xmlns="http://www.w3.org/2000/svg" xmlns:xlink="http://www.w3.org/1999/xlink" width="100" height="100" viewBox="0 0 100 100">
<path d="M69.8 71.9l-13.6 14v-44c0-1.8-1.4-3.2-3.1-3.2s-3.1 1.4-3.1 3.2v44l-13.5-14c-1.2-1.2-3.2-1.2-4.4 0s-1.2 3.2 0 4.4l18.7 19.3c0 0 0 0.1 0 0.1 0.1 0.1 0.1 0.1 0.1 0.1 0 0.1 0.1 0.1 0.1 0.1 0.5 0.5 1.2 0.8 2 0.9 0 0 0 0 0.1 0 0 0 0 0 0 0s0.1 0 0.1 0c0 0 0.1-0.1 0.1-0.1 0.6 0 1.2-0.3 1.6-0.7 0.2-0.1 0.4 0 0.5-0.1 0-0.1 0-0.2 0.1-0.3 0-0.1 0-0.1 0.1-0.1l18.5-19.2c1.2-1.2 1.2-3.2 0-4.4s-3.1-1.2-4.3 0zM76.6 23.3c-3.7-11.6-14.1-20.1-26.6-20.1-13.6 0-24.9 10-27.6 23.2-12.8 2.7-22.4 14.4-22.4 28.4 0 15 11 27.1 25 28.7v-6.4c-10.6-1.6-18.8-10.9-18.8-22.3 0-12.4 9.8-22.6 21.9-22.6 0-12.4 9.8-22.5 21.9-22.5 11 0 20.1 8.5 21.6 19.5 12.3 0.6 22.1 11.1 22.1 24 0 9.3-5 17.2-12.5 21.2v7.3c11-4.6 18.8-15.6 18.8-28.5 0-14.7-10-26.9-23.4-29.9z"></path>
</svg>
