<?xml version="1.0" encoding="utf-8"?>
<!-- Generated by IcoMoon.io -->
<!DOCTYPE svg PUBLIC "-//W3C//DTD SVG 1.1//EN" "http://www.w3.org/Graphics/SVG/1.1/DTD/svg11.dtd">
<svg version="1.1" xmlns="http://www.w3.org/2000/svg" xmlns:xlink="http://www.w3.org/1999/xlink" width="100" height="100" viewBox="0 0 100 100">
<path d="M95.9 25.6l-15.7-15.3c-1.2-1.2-3.2-1.2-4.5 0l-42.6 44.4-11.1-10.8c-1.2-1.2-3.2-1.2-4.5 0l-13.4 13.1c-1.2 1.2-1.2 3.1 0 4.3l29.1 28.4c1.2 1.2 3.3 1.2 4.5 0l58.2-59.8c1.2-1.2 1.2-3.1 0-4.3zM35.4 83.1l-24.6-23.9 9-8.7 11.2 10.8c1.2 1.2 3.2 1.2 4.4 0l42.6-44.4 11.2 10.9-53.8 55.3z"></path>
</svg>
