<?xml version="1.0" encoding="utf-8"?>
<!-- Generated by IcoMoon.io -->
<!DOCTYPE svg PUBLIC "-//W3C//DTD SVG 1.1//EN" "http://www.w3.org/Graphics/SVG/1.1/DTD/svg11.dtd">
<svg version="1.1" xmlns="http://www.w3.org/2000/svg" xmlns:xlink="http://www.w3.org/1999/xlink" width="100" height="100" viewBox="0 0 100 100">
<path d="M93.6 6.3c0 0-93.2-6.6-87 87.5 0 0 30.1 0.9 54.9-15.8l0.4 0.1 0.1-0.4c17.9-12.2 32.9-33.6 31.6-71.4zM80.2 12.3c-9.3 4.6-18.1 11.4-26.2 18.9h-0.2v0.2c-4 3.7-7.9 7.5-11.5 11.5l-6.9-14c15.3-13.3 34.5-16.1 44.8-16.6zM30.7 33.4l7.2 14.5c-4.3 5.1-8.2 10.1-11.7 14.7h-0.2l-0.2 0.6c-5.8 7.9-10.3 14.8-13 19.3 1-23.1 8.3-38.6 17.9-49.1zM17.7 87.6c3.5-6.4 7.2-12.3 11-17.9l26.7 6.8c-14.4 8.6-30 10.7-37.7 11.1zM62.4 71.8l-29.7-7.5c7.6-10.4 15.5-19.2 22.9-26.4l27.2 5c-4.6 13-12 22.3-20.4 28.9zM84.6 36.8l-23.4-4.3c14.8-13.5 26.1-20.1 26.3-20.2 0 0 0.1 0 0.1 0 0 9.3-1.1 17.4-3 24.5z"></path>
</svg>
