<?xml version="1.0" encoding="utf-8"?>
<!-- Generated by IcoMoon.io -->
<!DOCTYPE svg PUBLIC "-//W3C//DTD SVG 1.1//EN" "http://www.w3.org/Graphics/SVG/1.1/DTD/svg11.dtd">
<svg version="1.1" xmlns="http://www.w3.org/2000/svg" xmlns:xlink="http://www.w3.org/1999/xlink" width="100" height="100" viewBox="0 0 100 100">
<path d="M96.6 87.5h-93.2c-1.8 0-3.3 1.4-3.3 3.1s1.5 3.1 3.3 3.1h93.2c1.8 0 3.3-1.4 3.3-3.1s-1.5-3.1-3.3-3.1zM62.5 26.5v-5.7c0-8-5.6-14.6-12.5-14.6s-12.5 6.6-12.5 14.6v5.7c-23.1 5.7-37.4 26.7-37.4 45.4 0-1 0 9.3 0 9.3h99.8c0 0 0-10.3 0-9.3 0-18.7-14.3-39.7-37.4-45.4zM43.8 20.3c0-4.3 2.7-7.8 6.2-7.8s6.2 3.5 6.2 7.8v5.1c-2-0.2-4.1-0.4-6.2-0.4s-4.2 0.2-6.2 0.4v-5.1zM93.7 75h-87.4c0 0 0-1.6 0-2.1 0-19.4 17.2-41.7 43.7-41.7s43.7 22.3 43.7 41.7c0 0.5 0 2.1 0 2.1z"></path>
</svg>
