<?xml version="1.0" encoding="utf-8"?>
<!-- Generated by IcoMoon.io -->
<!DOCTYPE svg PUBLIC "-//W3C//DTD SVG 1.1//EN" "http://www.w3.org/Graphics/SVG/1.1/DTD/svg11.dtd">
<svg version="1.1" xmlns="http://www.w3.org/2000/svg" xmlns:xlink="http://www.w3.org/1999/xlink" width="100" height="100" viewBox="0 0 100 100">
<path d="M68.7 43.7h-18.7c-1.7 0-3.1 1.4-3.1 3.2 0 1.7 1.4 3.1 3.1 3.1h18.7c1.8 0 3.2-1.4 3.2-3.1 0-1.8-1.4-3.2-3.2-3.2zM68.7 25h-18.7c-1.7 0-3.1 1.4-3.1 3.1s1.4 3.1 3.1 3.1h18.7c1.8 0 3.2-1.4 3.2-3.1s-1.4-3.1-3.2-3.1zM84.4 0h-68.8c-3.4 0-6.2 2.8-6.2 6.2v87.6c0 3.4 2.8 6.2 6.2 6.2h68.8c3.4 0 6.2-2.8 6.2-6.2v-87.6c0-3.4-2.8-6.2-6.2-6.2zM28.1 93.7h-9.4c-1.7 0-3.1-1.3-3.1-3.1v-81.2c0-1.8 1.4-3.2 3.1-3.2h9.4v87.5zM84.4 90.6c0 1.8-1.4 3.1-3.2 3.1h-46.8v-87.5h46.8c1.8 0 3.2 1.4 3.2 3.2v81.2z"></path>
</svg>
