<?xml version="1.0" encoding="utf-8"?>
<!-- Generated by IcoMoon.io -->
<!DOCTYPE svg PUBLIC "-//W3C//DTD SVG 1.1//EN" "http://www.w3.org/Graphics/SVG/1.1/DTD/svg11.dtd">
<svg version="1.1" xmlns="http://www.w3.org/2000/svg" xmlns:xlink="http://www.w3.org/1999/xlink" width="100" height="100" viewBox="0 0 100 100">
<path d="M78.1 9.4h-21.9v-6.3h-12.5v6.3h-21.8c-1.8 0-3.2 1.4-3.2 3.1s1.4 3.1 3.2 3.1h3.1v18.8c0 3.4 2.8 6.2 6.2 6.2v12.5c-3.4 0-6.2 2.8-6.2 6.3v37.5h50v-37.5c0-3.5-2.8-6.3-6.3-6.3v-12.5c3.5 0 6.3-2.8 6.3-6.2v-18.8h3.1c1.7 0 3.1-1.4 3.1-3.1s-1.4-3.1-3.1-3.1zM68.7 84.4v6.2h-37.5v-28.1c0-1.7 1.4-3.1 3.2-3.1h31.2c1.7 0 3.1 1.4 3.1 3.1v21.9zM37.5 53.1v-12.5h25v12.5h-25zM68.7 31.2c0 1.8-1.4 3.2-3.1 3.2h-31.2c-1.8 0-3.2-1.4-3.2-3.2v-3.1h37.5v3.1zM68.7 21.9h-37.5v-3.2c0-1.7 1.4-3.1 3.2-3.1h31.2c1.7 0 3.1 1.4 3.1 3.1v3.2z"></path>
</svg>
