<?xml version="1.0" encoding="utf-8"?>
<!-- Generated by IcoMoon.io -->
<!DOCTYPE svg PUBLIC "-//W3C//DTD SVG 1.1//EN" "http://www.w3.org/Graphics/SVG/1.1/DTD/svg11.dtd">
<svg version="1.1" xmlns="http://www.w3.org/2000/svg" xmlns:xlink="http://www.w3.org/1999/xlink" width="100" height="100" viewBox="0 0 100 100">
<path d="M80 24.2c-4-11.5-13-22.2-14.4-23.8v-0.4h-6.3v1.7c0 0 0 0 0 0v98.3h6.3v-43.8h18.7v-1.6h0.1c0 0 0.7-15.8-4.4-30.4zM65.6 50v-39.7c3.2 5 7 11.5 9.3 18 2.8 8.2 3.5 16.3 3.6 21.7h-12.9zM40.6 25h-6.3v-25h-6.2v25h-6.3v-25h-6.2v37.5c0 6.9 5.6 12.5 12.5 12.5v50h6.2v-50c6.9 0 12.5-5.6 12.5-12.5v-37.5h-6.2v25zM40.6 37.5c0 3.4-2.8 6.2-6.3 6.2h-6.2c-3.5 0-6.3-2.8-6.3-6.2v-6.3h18.8v6.3z"></path>
</svg>
