<?xml version="1.0" encoding="utf-8"?>
<!-- Generated by IcoMoon.io -->
<!DOCTYPE svg PUBLIC "-//W3C//DTD SVG 1.1//EN" "http://www.w3.org/Graphics/SVG/1.1/DTD/svg11.dtd">
<svg version="1.1" xmlns="http://www.w3.org/2000/svg" xmlns:xlink="http://www.w3.org/1999/xlink" width="100" height="100" viewBox="0 0 100 100">
<path d="M34.4 56.2h-6.3v12.5h6.3v-12.5zM78.1 0h-56.2c-3.5 0-6.3 2.8-6.3 6.2v87.5c0 3.5 2.8 6.3 6.3 6.3h56.2c3.5 0 6.3-2.8 6.3-6.3v-87.5c0-3.4-2.8-6.2-6.3-6.2zM78.1 90.6c0 1.7-1.4 3.1-3.1 3.1h-50c-1.7 0-3.1-1.4-3.1-3.1v-40.6h56.2v40.6zM78.1 43.7h-56.2v-34.3c0-1.8 1.4-3.2 3.1-3.2h50c1.7 0 3.1 1.4 3.1 3.2v34.3zM28.1 37.5h6.3v-12.5h-6.3v12.5z"></path>
</svg>
