<?xml version="1.0" encoding="utf-8"?>
<!-- Generated by IcoMoon.io -->
<!DOCTYPE svg PUBLIC "-//W3C//DTD SVG 1.1//EN" "http://www.w3.org/Graphics/SVG/1.1/DTD/svg11.dtd">
<svg version="1.1" xmlns="http://www.w3.org/2000/svg" xmlns:xlink="http://www.w3.org/1999/xlink" width="100" height="100" viewBox="0 0 100 100">
<path d="M96.8 68.7c0-24.8-17.6-45.1-43.5-46.7v-6.4h9.2c1.7 0 3.1-1.4 3.1-3.1s-1.4-3.1-3.1-3.1h-25c-1.7 0-3.1 1.4-3.1 3.1s1.4 3.1 3.1 3.1h9.2v6.4c-25.9 1.6-43.5 21.9-43.5 46.7 0 1.1 0.1 2.1 0.2 3.2h-0.2v6.2h93.6v-6.2h-0.2c0.1-1.1 0.2-2.1 0.2-3.2zM90 71.9h-80c-0.1-1.1-0.2-2.1-0.2-3.2 0-22.4 16.4-40.6 40.2-40.6s40.2 18.2 40.2 40.6c0 1.1-0.1 2.1-0.2 3.2zM93.5 84.4h-87c-1.8 0-3.3 1.4-3.3 3.1s1.5 3.1 3.3 3.1h87c1.8 0 3.3-1.4 3.3-3.1s-1.5-3.1-3.3-3.1z"></path>
</svg>
