<?xml version="1.0" encoding="utf-8"?>
<!-- Generated by IcoMoon.io -->
<!DOCTYPE svg PUBLIC "-//W3C//DTD SVG 1.1//EN" "http://www.w3.org/Graphics/SVG/1.1/DTD/svg11.dtd">
<svg version="1.1" xmlns="http://www.w3.org/2000/svg" xmlns:xlink="http://www.w3.org/1999/xlink" width="100" height="100" viewBox="0 0 100 100">
<path d="M71.9 0c-12.1 0-21.9 11.2-21.9 25 0 12.6 8.2 22.9 18.7 24.6v50.4h6.3v-50.4c10.6-1.7 18.7-12 18.7-24.6 0-13.8-9.7-25-21.8-25zM71.9 43.8c-8.7 0-15.7-8.4-15.7-18.8s7-18.8 15.7-18.8 15.6 8.4 15.6 18.8c0 10.4-7 18.8-15.6 18.8zM31.2 24.9h-6.2v-24.9h-6.3v24.9h-6.2v-24.9h-6.3v36.9c0 7.2 5.6 13.1 12.5 13.1v50h6.3v-50c6.9 0 12.5-5.9 12.5-13.1v-36.9h-6.3v24.9zM31.2 37.1c0 3.7-2.8 6.7-6.2 6.7h-6.3c-3.4 0-6.2-3-6.2-6.7v-5.8h18.7v5.8z"></path>
</svg>
