<?xml version="1.0" encoding="utf-8"?>
<!-- Generated by IcoMoon.io -->
<!DOCTYPE svg PUBLIC "-//W3C//DTD SVG 1.1//EN" "http://www.w3.org/Graphics/SVG/1.1/DTD/svg11.dtd">
<svg version="1.1" xmlns="http://www.w3.org/2000/svg" xmlns:xlink="http://www.w3.org/1999/xlink" width="100" height="100" viewBox="0 0 100 100">
<path d="M0 62.5h25v-25h-25v25zM6.2 43.7h12.5v12.5h-12.5v-12.5zM0 100h25v-25h-25v25zM6.2 81.2h12.5v12.5h-12.5v-12.5zM75 0v25h25v-25h-25zM93.7 18.7h-12.5v-12.5h12.5v12.5zM75 62.5h25v-25h-25v25zM81.2 43.7h12.5v12.5h-12.5v-12.5zM37.5 25h25v-25h-25v25zM43.7 6.2h12.5v12.5h-12.5v-12.5zM37.5 100h25v-25h-25v25zM43.7 81.2h12.5v12.5h-12.5v-12.5zM75 100h25v-25h-25v25zM81.2 81.2h12.5v12.5h-12.5v-12.5zM37.5 62.5h25v-25h-25v25zM43.7 43.7h12.5v12.5h-12.5v-12.5zM0 25h25v-25h-25v25zM6.2 6.2h12.5v12.5h-12.5v-12.5z"></path>
</svg>
