<?xml version="1.0" encoding="utf-8"?>
<!-- Generated by IcoMoon.io -->
<!DOCTYPE svg PUBLIC "-//W3C//DTD SVG 1.1//EN" "http://www.w3.org/Graphics/SVG/1.1/DTD/svg11.dtd">
<svg version="1.1" xmlns="http://www.w3.org/2000/svg" xmlns:xlink="http://www.w3.org/1999/xlink" width="106" height="100" viewBox="0 0 106 100">
<path d="M39.9 32.1c-1.3-1.2-3.4-1.2-4.6 0-1.3 1.3-1.3 3.4 0 4.7l12.2 12.2c0 0 0.1 0 0.2 0.1 0 0 0 0 0 0 1.1 1.2 3 1.2 4.2 0v0c0.1-0.1 0.2-0.1 0.2-0.1 0.1-0.1 0.1-0.2 0.2-0.3l31.2-31.2c1.1-1.2 1.1-3 0-4.2-1.2-1.2-3.1-1.2-4.3 0l-29.1 29.1-10.2-10.3zM78.1 37.5c0 0.1 0 0.2 0 0.4 0 17.5-31.2 52.7-31.2 52.7s-31.3-35.2-31.3-52.7 14-31.7 31.3-31.7c7 0 13.5 2.5 18.7 6.5v-7.5c-5.5-3.2-11.9-5.2-18.7-5.2-20.7 0-37.5 16.8-37.5 37.5s37.5 62.5 37.5 62.5 37.5-41.8 37.5-62.5h-6.3z"></path>
</svg>
