<?xml version="1.0" encoding="utf-8"?>
<!-- Generated by IcoMoon.io -->
<!DOCTYPE svg PUBLIC "-//W3C//DTD SVG 1.1//EN" "http://www.w3.org/Graphics/SVG/1.1/DTD/svg11.dtd">
<svg version="1.1" xmlns="http://www.w3.org/2000/svg" xmlns:xlink="http://www.w3.org/1999/xlink" width="106" height="100" viewBox="0 0 106 100">
<path d="M25 25c-1.7 0-3.1 1.4-3.1 3.1v40.6c0 1.8 1.4 3.2 3.1 3.2s3.1-1.4 3.1-3.2v-40.6c0-1.7-1.4-3.1-3.1-3.1zM50 34.4c-1.7 0-3.1 1.4-3.1 3.1v34.4c0 1.7 1.4 3.1 3.1 3.1s3.1-1.4 3.1-3.1v-34.4c0-1.7-1.4-3.1-3.1-3.1zM71.9 3.1l-21.9 18.8-28.1-12.5-25 12.4v75.1l25-12.5 28.1 6.2 21.9-12.5 25 12.5v-71.9l-25-15.6zM90.6 81.2l-18.7-9.3-21.9 12.5-28.1-6.3-18.8 9.4v-62.5l18.8-9.4 28.1 12.5 21.9-18.7 18.7 12.5v59.3zM71.9 62.5c0 1.7 1.4 3.1 3.1 3.1s3.1-1.4 3.1-3.1v-40.6c0-1.8-1.4-3.2-3.1-3.2s-3.1 1.4-3.1 3.2v40.6z"></path>
</svg>
