<?xml version="1.0" encoding="utf-8"?>
<!-- Generated by IcoMoon.io -->
<!DOCTYPE svg PUBLIC "-//W3C//DTD SVG 1.1//EN" "http://www.w3.org/Graphics/SVG/1.1/DTD/svg11.dtd">
<svg version="1.1" xmlns="http://www.w3.org/2000/svg" xmlns:xlink="http://www.w3.org/1999/xlink" width="94" height="100" viewBox="0 0 94 100">
<path d="M76.5 2.9h-58.9c-6.4 0-11.7 5.3-11.7 11.8v58.8c0 6.5 5.3 11.8 11.7 11.8h58.9c6.5 0 11.7-5.3 11.7-11.8v-58.8c0-6.5-5.2-11.8-11.7-11.8zM70.6 62.4c0 2.9-2.4 5.2-5.2 5.2h-36.6c-2.9 0-5.3-2.3-5.3-5.2v-36.6c0-2.9 2.4-5.2 5.3-5.2h36.6c2.8 0 5.2 2.3 5.2 5.2v36.6zM55.9 32.3h-17.7c-1.6 0-2.9 1.4-2.9 3v17.6c0 1.7 1.3 3 2.9 3h17.7c1.6 0 2.9-1.3 2.9-3v-17.6c0-1.6-1.3-3-2.9-3z"></path>
</svg>
