<?xml version="1.0" encoding="utf-8"?>
<!-- Generated by IcoMoon.io -->
<!DOCTYPE svg PUBLIC "-//W3C//DTD SVG 1.1//EN" "http://www.w3.org/Graphics/SVG/1.1/DTD/svg11.dtd">
<svg version="1.1" xmlns="http://www.w3.org/2000/svg" xmlns:xlink="http://www.w3.org/1999/xlink" width="94" height="100" viewBox="0 0 94 100">
<path d="M79.7 19.1c-1.3-2.5-3.1-4.5-5.6-6.1-2.5-1.5-5.5-2.6-8.9-3.3-3.4-0.6-7.4-0.9-12-0.9h-21.3c-2.3 0-4.4 1.8-4.9 3.9l-14.5 62.8c-0.5 2.1 0.9 3.9 3.1 3.9h10.3c2.2 0 4.4-1.8 4.9-3.9l3.5-15.2c0.5-2.2 2.7-3.9 4.9-3.9h2.9c12.5 0 22.2-2.6 29.1-7.7 7-5.2 10.5-12 10.5-20.4 0-3.7-0.7-6.8-2-9.2zM62.3 29.9c0 4.2-1.6 7.4-4.6 9.7-2.8 2-6.6 3.1-11.3 3.3l-4.2 0.1c-2.2 0-3.6-1.8-3.1-3.9l3.1-13.4c0.5-2.1 2.7-3.9 4.9-3.9h3.3c3.9 0 6.9 0.7 8.9 2 3.7 2.5 3 9.3 3 6.1z"></path>
</svg>
