<?xml version="1.0" encoding="utf-8"?>
<!-- Generated by IcoMoon.io -->
<!DOCTYPE svg PUBLIC "-//W3C//DTD SVG 1.1//EN" "http://www.w3.org/Graphics/SVG/1.1/DTD/svg11.dtd">
<svg version="1.1" xmlns="http://www.w3.org/2000/svg" xmlns:xlink="http://www.w3.org/1999/xlink" width="94" height="100" viewBox="0 0 94 100">
<path d="M86.5 6.9c-5.8-6.9-16-3.2-20.8 0-2.4 1-13.9 10.2-17.8 14.8-3.8 4.7 6.9 3.7 8.9 3s10.8 1.4 3 11.8c-8.9 11.9-8.9 11.9-14.8 17.8-3 3-7.6-1.2-8.9-8.9-1.4-7.6-0.3-33.7-3-35.5-3.4-6.3-11.9-2.3-11.9-2.3-2 1.6-23.7 14.1-26.7 20.1-2.4 4.7 6.3 4.2 8.9 2.9 6-2.9 8.9-5.9 8.9 3 0 5.1 1.2 39.5 6 47.4 4.7 7.8 19.1 2.4 19.1 2.4s37.2-29.1 46.1-49.8c5.3-12.2 6-20.8 3-26.7z"></path>
</svg>
