<?xml version="1.0" encoding="utf-8"?>
<!-- Generated by IcoMoon.io -->
<!DOCTYPE svg PUBLIC "-//W3C//DTD SVG 1.1//EN" "http://www.w3.org/Graphics/SVG/1.1/DTD/svg11.dtd">
<svg version="1.1" xmlns="http://www.w3.org/2000/svg" xmlns:xlink="http://www.w3.org/1999/xlink" width="94" height="100" viewBox="0 0 94 100">
<path d="M32 8.8c-14.2 5.8-24.2 19.4-24.2 35.3 0 3.6 0.6 6.9 1.6 10.2l34.6-33.7-12-11.8zM65.2 10.4c-5.5-2.8-11.6-4.5-18.1-4.5-3.7 0-7.2 0.6-10.5 1.5l28.6 27.9v-24.9zM32 79.4c4.6 1.9 9.7 2.9 15.1 2.9 15.1 0 28-8.4 34.6-20.5h-49.7v17.6zM28.9 77.8v-36.6l-18.1 17.6c3.6 8.3 10.1 14.9 18.1 19zM68.2 12v46.8h15.1c1.9-4.5 3-9.5 3-14.7 0-13.5-7.2-25.3-18.1-32.1z"></path>
</svg>
