<?xml version="1.0" encoding="utf-8"?>
<!-- Generated by IcoMoon.io -->
<!DOCTYPE svg PUBLIC "-//W3C//DTD SVG 1.1//EN" "http://www.w3.org/Graphics/SVG/1.1/DTD/svg11.dtd">
<svg version="1.1" xmlns="http://www.w3.org/2000/svg" xmlns:xlink="http://www.w3.org/1999/xlink" width="94" height="100" viewBox="0 0 94 100">
<path d="M41.2-3c-26 0-47.1 21.1-47.1 47.1 0 19.3 11.6 35.8 28.2 43.1-0.1-3.3 0-7.2 0.8-10.8 0.9-3.8 6.1-25.6 6.1-25.6s-1.5-3-1.5-7.5c0-7 4-12.2 9-12.2 4.3 0 6.4 3.2 6.4 7.1 0 4.3-2.8 10.7-4.2 16.7-1.2 5 2.5 9.1 7.5 9.1 8.9 0 14.9-11.5 14.9-25.1 0-10.3-7-18-19.6-18-14.3 0-23.2 10.7-23.2 22.5 0 4.1 1.2 7 3.1 9.3 0.9 1 1 1.4 0.7 2.6-0.2 0.9-0.7 3-1 3.8-0.3 1.2-1.2 1.6-2.3 1.2-6.6-2.7-9.7-9.9-9.7-18 0-13.4 11.3-29.4 33.7-29.4 18 0 29.8 13 29.8 26.9 0 18.5-10.3 32.3-25.4 32.3-5.1 0-9.9-2.8-11.5-5.9 0 0-2.7 10.9-3.3 13-1 3.6-3 7.2-4.8 10.1 4.3 1.2 8.7 1.9 13.4 1.9 26 0 47-21.1 47-47.1s-21-47.1-47-47.1z"></path>
</svg>
