<?xml version="1.0" encoding="utf-8"?>
<!-- Generated by IcoMoon.io -->
<!DOCTYPE svg PUBLIC "-//W3C//DTD SVG 1.1//EN" "http://www.w3.org/Graphics/SVG/1.1/DTD/svg11.dtd">
<svg version="1.1" xmlns="http://www.w3.org/2000/svg" xmlns:xlink="http://www.w3.org/1999/xlink" width="94" height="100" viewBox="0 0 94 100">
<path d="M80.4 2.9h-66.7c-4.3 0-7.8 3.5-7.8 7.9v66.6c0 4.4 3.5 7.9 7.8 7.9h66.7c4.3 0 7.8-3.5 7.8-7.9v-66.6c0-4.4-3.5-7.9-7.8-7.9zM26.2 20.5c3.4 0 5.4 2.6 5.5 5.9 0 3.2-2.1 5.8-5.6 5.8h-0.1c-3.3 0-5.4-2.6-5.4-5.8 0-3.3 2.2-5.9 5.6-5.9zM32.3 70.6h-11.1v-34.7h11.1v34.7zM76.4 70.6h-11.5v-17.9c0-4.6-1.3-7.6-5.5-7.6-3.2 0-5.1 2-5.9 4-0.3 0.8-0.4 1.8-0.4 2.8v18.7h-11.9c0 0 0.1-31.3 0-34.5h11.9v4.8c1.5-2.3 4.3-5.6 10.4-5.6 7.6 0 12.9 5.8 12.9 16.1v19.2zM53.1 41v-0.1c0 0-0.1 0-0.1 0.1h0.1z"></path>
</svg>
