<?xml version="1.0" encoding="utf-8"?>
<!-- Generated by IcoMoon.io -->
<!DOCTYPE svg PUBLIC "-//W3C//DTD SVG 1.1//EN" "http://www.w3.org/Graphics/SVG/1.1/DTD/svg11.dtd">
<svg version="1.1" xmlns="http://www.w3.org/2000/svg" xmlns:xlink="http://www.w3.org/1999/xlink" width="94" height="100" viewBox="0 0 94 100">
<path d="M65.7 1.7c0 0-40-15.4-63.6 10.2-18.2 23.8 0.4 45.7 0.4 45.7l12.4-10.5c0 0-9.3-10.5-2.1-22.2 9.5-14.7 28.7-13.6 28.7-13.6s30.6-0.1 30 24.9c-3.4 22.5-28.7 15.2-28.7 15.2v-28.2h-17.1v49.6c-2.4 6.5-8.6 4-13.2-0.5v14.7c0 0 9.3 6.6 19.3 3.1 10.1-3.5 11.2-11.6 11.2-11.6v-14.5c0 0 28.4 10.8 43.1-18.3 10.6-32-20.4-44-20.4-44z"></path>
</svg>
