<?xml version="1.0" encoding="utf-8"?>
<!-- Generated by IcoMoon.io -->
<!DOCTYPE svg PUBLIC "-//W3C//DTD SVG 1.1//EN" "http://www.w3.org/Graphics/SVG/1.1/DTD/svg11.dtd">
<svg version="1.1" xmlns="http://www.w3.org/2000/svg" xmlns:xlink="http://www.w3.org/1999/xlink" width="94" height="100" viewBox="0 0 94 100">
<path d="M82.7 6.2c-10.2-2-22.7 7.3-34.8 18.1-11.2-9.7-22.9-18.4-32.8-18.4-1.1 0-2.1 0.1-3.1 0.3-10.4 2.1-12.4 10.3-12 14.1v45.7c-0.1 1.2-0.4 7.7 3.6 12.1 2.4 2.8 5.9 4.2 10.3 4.2h66c4.4 0 7.9-1.4 10.3-4.2 4-4.4 3.8-9.9 3.7-11.1v-2.3h0.2v-44.4c0.4-4-1.5-12-11.4-14.1zM35.9 76.5c1.4-6.3 6-11.8 14.1-11.8s12.7 5.5 14 11.8h-28.1zM85.8 74.3c-0.9 0.9-2.4 2.2-5.9 2.2h-9.9c-1.7-10.1-9.3-17.7-20-17.7-10.8 0-18.3 7.6-20 17.7h-16.1c-3.5 0-5.1-1.3-5.9-2.2-2.5-2.9-2.2-7.7-2.1-7.9v-46.4l-0.1-0.3c0 0-0.5-6.2 7.4-7.8 0.6-0.1 1.2-0.2 1.9-0.2 8.4 0 20 9.2 30.3 18.2 5.8 5.1 16.6 14.5 27.9 14.5 5.5 0 10.5-2.2 14.7-6.7v29.8c0.1 0.6 0.2 4.1-2.2 6.8zM88.5 20l-0.1 7.3h-0.4l0.1 0.1c-4.1 7.5-8.9 11.1-14.8 11.1-7.6 0-15.5-5.9-21-10.5 7.4-6.6 20.7-17.8 29.2-16.1 7.1 1.5 7.1 6.8 7 8.1z"></path>
</svg>
