<?xml version="1.0" encoding="utf-8"?>
<!-- Generated by IcoMoon.io -->
<!DOCTYPE svg PUBLIC "-//W3C//DTD SVG 1.1//EN" "http://www.w3.org/Graphics/SVG/1.1/DTD/svg11.dtd">
<svg version="1.1" xmlns="http://www.w3.org/2000/svg" xmlns:xlink="http://www.w3.org/1999/xlink" width="100" height="100" viewBox="0 0 100 100">
<path d="M28.1 18.7c-5.2 0-9.4 4.2-9.4 9.4s4.2 9.4 9.4 9.4c5.2 0 9.4-4.2 9.4-9.4s-4.2-9.4-9.4-9.4zM28.1 31.2c-1.7 0-3.1-1.4-3.1-3.1s1.4-3.1 3.1-3.1c1.7 0 3.1 1.4 3.1 3.1s-1.4 3.1-3.1 3.1zM93.7 0h-87.5c-3.4 0-6.2 2.8-6.2 6.2v87.5c0 3.5 2.8 6.3 6.2 6.3h87.5c3.5 0 6.3-2.8 6.3-6.3v-87.5c0-3.4-2.8-6.2-6.3-6.2zM93.7 90.6c0 1.7-1.4 3.1-3.1 3.1h-81.2c-1.8 0-3.2-1.4-3.2-3.1v-9.4h87.5v9.4zM93.7 75h-71.5l19-23.8 22 16.5c0.7 0.7 1.6 1 2.4 1 0.9 0 1.8-0.3 2.4-1l25.7-41.3v48.6zM93.7 14.4l-28.9 46.5-21.7-16.3c-0.7-0.6-1.6-0.9-2.5-0.8-0.9-0.1-1.8 0.1-2.5 0.8l-24.2 30.4h-7.7v-65.6c0-1.8 1.4-3.2 3.2-3.2h81.2c1.7 0 3.1 1.4 3.1 3.2v5z"></path>
</svg>
