<?xml version="1.0" encoding="utf-8"?>
<!-- Generated by IcoMoon.io -->
<!DOCTYPE svg PUBLIC "-//W3C//DTD SVG 1.1//EN" "http://www.w3.org/Graphics/SVG/1.1/DTD/svg11.dtd">
<svg version="1.1" xmlns="http://www.w3.org/2000/svg" xmlns:xlink="http://www.w3.org/1999/xlink" width="100" height="100" viewBox="0 0 100 100">
<path d="M62.5 21.9h-6.3v6.2h6.3v-6.2zM56.2 78.1h6.3v-6.2h-6.3v6.2zM87.5 21.9h-6.3v6.2h6.3v-6.2zM68.7 78.1h6.3v-6.2h-6.3v6.2zM75 21.9h-6.3v6.2h6.3v-6.2zM93.7 9.4h-43.7c-0.2 0-0.4 0.1-0.6 0.1-1.3-3.7-4.7-6.4-8.8-6.4h-31.2c-5.2 0-9.4 4.2-9.4 9.4v75c0 5.2 4.2 9.4 9.4 9.4h31.2c4.1 0 7.5-2.7 8.8-6.4 0.2 0 0.4 0.1 0.6 0.1v-71.9c0-1.7 1.4-3.1 3.1-3.1h37.5c1.7 0 3.1 1.4 3.1 3.1v62.5c0 1.8-1.4 3.2-3.1 3.2h-28.1v6.2h31.2c3.5 0 6.3-2.8 6.3-6.2v-68.8c0-3.4-2.8-6.2-6.3-6.2zM43.7 15.6v71.9c0 1.7-1.4 3.1-3.1 3.1h-31.2c-1.8 0-3.2-1.4-3.2-3.1v-75c0-1.7 1.4-3.1 3.2-3.1h31.2c1.7 0 3.1 1.4 3.1 3.1v3.1zM81.2 78.1h6.3v-6.2h-6.3v6.2z"></path>
</svg>
