<?xml version="1.0" encoding="utf-8"?>
<!-- Generated by IcoMoon.io -->
<!DOCTYPE svg PUBLIC "-//W3C//DTD SVG 1.1//EN" "http://www.w3.org/Graphics/SVG/1.1/DTD/svg11.dtd">
<svg version="1.1" xmlns="http://www.w3.org/2000/svg" xmlns:xlink="http://www.w3.org/1999/xlink" width="100" height="100" viewBox="0 0 100 100">
<path d="M100 40.4c0-16.5-8.5-31.4-22.9-40-1.4-0.9-3.3-0.4-4.2 1.1s-0.3 3.4 1.1 4.3c12.4 7.4 19.9 20.4 19.9 34.6 0 23.7-16.9 40.9-40.2 40.9-5.2 0-10.3-1-15-3-1.6-0.6-3.4 0.1-4 1.7s0.1 3.5 1.7 4.1c5.5 2.3 11.3 3.4 17.3 3.4 0.9 0 1.7-0.1 2.6-0.1v6.4h-9.1c-1.8 0-3.2 1.4-3.2 3.1s1.4 3.1 3.2 3.1h24.7c1.8 0 3.2-1.4 3.2-3.1s-1.4-3.1-3.2-3.1h-9.4v-7.1c22.2-3.8 37.5-22.1 37.5-46.3zM87.4 40.8c0-19-15.4-34.5-34.3-34.5-19 0-34.4 15.5-34.4 34.5s15.4 34.3 34.4 34.3c18.9 0 34.3-15.3 34.3-34.3zM25 40.8c0-15.5 12.6-28.3 28.1-28.3s28.1 12.8 28.1 28.3c0 15.5-12.6 28-28.1 28-15.5 0.1-28.1-12.5-28.1-28z"></path>
</svg>
