<?xml version="1.0" encoding="utf-8"?>
<!-- Generated by IcoMoon.io -->
<!DOCTYPE svg PUBLIC "-//W3C//DTD SVG 1.1//EN" "http://www.w3.org/Graphics/SVG/1.1/DTD/svg11.dtd">
<svg version="1.1" xmlns="http://www.w3.org/2000/svg" xmlns:xlink="http://www.w3.org/1999/xlink" width="100" height="100" viewBox="0 0 100 100">
<path d="M40.6 31.3c-15.5 0-28.1 12.6-28.1 28.1s12.6 28.1 28.1 28.1c15.6 0 28.2-12.6 28.2-28.1s-12.6-28.1-28.2-28.1zM40.6 37.5c6 0 11.4 2.4 15.3 6.3h-30.5c3.9-3.9 9.3-6.3 15.2-6.3zM40.6 81.3c-5.9 0-11.3-2.4-15.2-6.3h30.5c-3.9 3.9-9.3 6.3-15.3 6.3zM60.3 68.8h-39.3c-1-2-1.5-4.1-1.9-6.3h43c-0.3 2.2-0.8 4.3-1.8 6.3zM19.1 56.3c0.4-2.2 0.9-4.3 1.9-6.3h39.3c1 2 1.5 4.1 1.8 6.3h-43zM87.5 18.8h-6.1l-77.5-18.7c-1.7-0.5-3.4 0.5-3.8 2.1-0.5 1.7 0.5 3.3 2.2 3.8l54.9 12.8h-44.7c-6.9 0-12.5 5.6-12.5 12.5v56.2c0 6.9 5.6 12.5 12.5 12.5h75c6.9 0 12.5-5.6 12.5-12.5v-56.2c0-6.9-5.6-12.5-12.5-12.5zM93.8 87.5c0 3.5-2.8 6.3-6.3 6.3h-75c-3.4 0-6.2-2.8-6.2-6.3v-56.2c0-3.5 2.8-6.3 6.2-6.3h75c3.5 0 6.3 2.8 6.3 6.3v56.2zM81.3 56.3h6.2v-6.3h-6.2v6.3zM81.3 43.8h6.2v-6.3h-6.2v6.3z"></path>
</svg>
