<?xml version="1.0" encoding="utf-8"?>
<!-- Generated by IcoMoon.io -->
<!DOCTYPE svg PUBLIC "-//W3C//DTD SVG 1.1//EN" "http://www.w3.org/Graphics/SVG/1.1/DTD/svg11.dtd">
<svg version="1.1" xmlns="http://www.w3.org/2000/svg" xmlns:xlink="http://www.w3.org/1999/xlink" width="100" height="100" viewBox="0 0 100 100">
<path d="M6.2 100h87.5v-6.3h-87.5v6.3zM56.2 50.8c-4.2-1.5-10-1-15.3 1.9-8 4.4-11.8 12.3-8.5 17.7s12.5 6.2 20.4 1.9c7.2-4 11-10.8 9.2-16h0.5v-43.8h-6.2v38.3zM49.9 67c-4.9 2.4-10.2 2.3-11.9-0.2s0.9-6.4 5.8-8.8 10.3-2.4 11.9 0.1c1.7 2.5-0.8 6.5-5.8 8.9zM93.7 0h-87.5c-3.4 0-6.2 2.8-6.2 6.2v75c0 3.5 2.8 6.3 6.2 6.3h87.5c3.5 0 6.3-2.8 6.3-6.3v-75c0-3.4-2.8-6.2-6.3-6.2zM93.7 78.1c0 1.7-1.4 3.1-3.1 3.1h-81.2c-1.8 0-3.2-1.4-3.2-3.1v-68.7c0-1.8 1.4-3.2 3.2-3.2h81.2c1.7 0 3.1 1.4 3.1 3.2v68.7z"></path>
</svg>
