<?xml version="1.0" encoding="utf-8"?>
<!-- Generated by IcoMoon.io -->
<!DOCTYPE svg PUBLIC "-//W3C//DTD SVG 1.1//EN" "http://www.w3.org/Graphics/SVG/1.1/DTD/svg11.dtd">
<svg version="1.1" xmlns="http://www.w3.org/2000/svg" xmlns:xlink="http://www.w3.org/1999/xlink" width="100" height="100" viewBox="0 0 100 100">
<path d="M93.4 40.6c-1.6-22.7-20.3-40.6-43.4-40.6s-41.8 17.9-43.4 40.6h-6.6v37.5c0 5.2 4.2 9.4 9.4 9.4h12.5c5.1 0 9.3-4.2 9.3-9.4v-37.5h-9.3c0 0 0 0 0 0h-9.1c1.6-19.2 17.6-34.4 37.2-34.4s35.6 15.2 37.2 34.4h-9.1c0 0 0 0 0 0h-9.4v37.5c0 5.2 4.2 9.4 9.4 9.4h3.1v12.5h6.3v-12.5h3.1c5.2 0 9.4-4.2 9.4-9.4v-37.5h-6.6zM25 46.9v31.2c0 1.7-1.4 3.1-3.1 3.1h-12.5c-1.8 0-3.2-1.4-3.2-3.1v-31.2h18.8zM93.7 59.4v18.7c0 1.7-1.4 3.1-3.1 3.1h-12.5c-1.7 0-3.1-1.4-3.1-3.1v-31.2h18.7v12.5z"></path>
</svg>
