<?xml version="1.0" encoding="utf-8"?>
<!-- Generated by IcoMoon.io -->
<!DOCTYPE svg PUBLIC "-//W3C//DTD SVG 1.1//EN" "http://www.w3.org/Graphics/SVG/1.1/DTD/svg11.dtd">
<svg version="1.1" xmlns="http://www.w3.org/2000/svg" xmlns:xlink="http://www.w3.org/1999/xlink" width="100" height="100" viewBox="0 0 100 100">
<path d="M93.6 45.4c0.1-0.5 0.1-1.1 0.1-1.7 0-24.1-19.5-43.7-43.7-43.7s-43.8 19.6-43.8 43.7c0 0.6 0.1 1.2 0.1 1.7-3.7 2.2-6.3 6.2-6.3 10.8v18.8c0 6.9 5.6 12.5 12.5 12.5h6.2c1.3 0 2.4-0.2 3.6-0.6 0.8 0.4 1.8 0.6 2.7 0.6 6.9 0 12.5-9.8 12.5-21.9s-5.6-21.9-12.5-21.9c-0.9 0-1.9 0.3-2.7 0.6-1.2-0.3-2.3-0.6-3.6-0.6h-6.2c0-20.7 16.8-37.5 37.5-37.5s37.5 16.8 37.5 37.5h-6.3c-1.2 0-2.3 0.3-3.5 0.6-0.9-0.3-1.8-0.6-2.7-0.6-6.9 0-12.5 9.8-12.5 21.9s5.6 21.9 12.5 21.9c0.9 0 1.8-0.2 2.7-0.6 1.2 0.4 2.3 0.6 3.5 0.6v12.5h6.3v-12.5c6.9 0 12.5-5.6 12.5-12.5v-18.8c0-4.6-2.6-8.6-6.4-10.8zM25 50c3.4 0 6.2 7 6.2 15.6s-2.8 15.6-6.2 15.6c-3.5 0-6.3-7-6.3-15.6s2.8-15.6 6.3-15.6zM12.5 50h3.8c-2.4 4-3.8 9.5-3.8 15.6s1.4 11.7 3.8 15.6h-3.8c-3.5 0-6.3-2.8-6.3-6.2v-18.8c0-3.4 2.8-6.2 6.3-6.2zM75 81.2c-3.5 0-6.3-7-6.3-15.6s2.8-15.6 6.3-15.6 6.2 7 6.2 15.6-2.7 15.6-6.2 15.6zM93.7 75c0 3.4-2.7 6.2-6.2 6.2h-3.8c2.3-3.9 3.8-9.5 3.8-15.6s-1.5-11.6-3.8-15.6h3.8c3.5 0 6.2 2.8 6.2 6.2v18.8z"></path>
</svg>
