<?xml version="1.0" encoding="utf-8"?>
<!-- Generated by IcoMoon.io -->
<!DOCTYPE svg PUBLIC "-//W3C//DTD SVG 1.1//EN" "http://www.w3.org/Graphics/SVG/1.1/DTD/svg11.dtd">
<svg version="1.1" xmlns="http://www.w3.org/2000/svg" xmlns:xlink="http://www.w3.org/1999/xlink" width="100" height="100" viewBox="0 0 100 100">
<path d="M6.2 50c0-10.4 8.4-18.8 18.8-18.8h25v-6.2l-15.6-18.8-3.2 6.3 10.5 12.5h-16.7c-13.8 0-25 11.2-25 25s11.2 25 25 25h6.2v-6.3h-6.2c-10.4 0-18.8-8.4-18.8-18.7zM75 25h-12.5v6.2h12.5c10.3 0 18.7 8.4 18.7 18.8s-8.4 18.7-18.7 18.7h-31.3v6.3l15.7 18.7 3.1-6.2-10.4-12.5h22.9c13.8 0 25-11.2 25-25s-11.2-25-25-25z"></path>
</svg>
