<?xml version="1.0" encoding="utf-8"?>
<!-- Generated by IcoMoon.io -->
<!DOCTYPE svg PUBLIC "-//W3C//DTD SVG 1.1//EN" "http://www.w3.org/Graphics/SVG/1.1/DTD/svg11.dtd">
<svg version="1.1" xmlns="http://www.w3.org/2000/svg" xmlns:xlink="http://www.w3.org/1999/xlink" width="100" height="100" viewBox="0 0 100 100">
<path d="M53.1 12.8v-6.6h-6.2v6.6c-7.2 1.5-12.5 7.8-12.5 15.3s5.3 13.9 12.5 15.3v50.3h6.2v-50.3c7.2-1.4 12.5-7.7 12.5-15.3s-5.3-13.8-12.5-15.3zM50 37.5c-5.2 0-9.4-4.2-9.4-9.4s4.2-9.4 9.4-9.4c5.2 0 9.4 4.2 9.4 9.4s-4.2 9.4-9.4 9.4zM84.4 56.6v-50.4h-6.3v50.4c-7.1 1.4-12.5 7.7-12.5 15.3 0 7.5 5.4 13.8 12.5 15.3v6.5h6.3v-6.5c7.1-1.5 12.5-7.8 12.5-15.3 0-7.6-5.4-13.9-12.5-15.3zM81.2 81.2c-5.1 0-9.3-4.2-9.3-9.3s4.2-9.4 9.3-9.4 9.4 4.2 9.4 9.4-4.2 9.3-9.4 9.3zM21.9 44.1v-37.9h-6.3v37.9c-7.1 1.4-12.5 7.7-12.5 15.3 0 7.5 5.4 13.8 12.5 15.3v19h6.3v-19c7.1-1.5 12.5-7.8 12.5-15.3 0-7.6-5.4-13.9-12.5-15.3zM18.7 68.7c-5.1 0-9.3-4.2-9.3-9.3 0-5.2 4.2-9.4 9.3-9.4 5.2 0 9.4 4.2 9.4 9.4 0 5.1-4.2 9.3-9.4 9.3z"></path>
</svg>
