<?xml version="1.0" encoding="utf-8"?>
<!-- Generated by IcoMoon.io -->
<!DOCTYPE svg PUBLIC "-//W3C//DTD SVG 1.1//EN" "http://www.w3.org/Graphics/SVG/1.1/DTD/svg11.dtd">
<svg version="1.1" xmlns="http://www.w3.org/2000/svg" xmlns:xlink="http://www.w3.org/1999/xlink" width="100" height="100" viewBox="0 0 100 100">
<path d="M93.7 0h-75c-3.4 0-6.2 2.8-6.2 6.2h-6.3c-3.4 0-6.2 2.8-6.2 6.3v75c0 3.5 2.8 6.2 6.2 6.2h6.3c0 3.5 2.8 6.3 6.2 6.3h75c3.5 0 6.3-2.8 6.3-6.3v-87.5c0-3.4-2.8-6.2-6.3-6.2zM12.5 87.5h-3.1c-1.8 0-3.2-1.4-3.2-3.1v-68.8c0-1.7 1.4-3.1 3.2-3.1h3.1v75zM93.7 90.6c0 1.7-1.4 3.1-3.1 3.1h-68.7c-1.8 0-3.2-1.4-3.2-3.1v-81.2c0-1.8 1.4-3.2 3.2-3.2h68.7c1.7 0 3.1 1.4 3.1 3.2v81.2zM68.7 57c-4.2-1.5-10-0.9-15.3 2-8 4.3-11.8 12.2-8.5 17.6s12.4 6.3 20.4 1.9c4.8-2.6 8-6.4 9.2-10.3l0.5 0.5v-3.4c0 0 0 0 0-0.1v-46.4h-6.3v38.2zM62.4 73.3c-4.9 2.4-10.2 2.3-11.9-0.2s0.9-6.5 5.8-8.9c4.9-2.4 10.3-2.3 11.9 0.2s-0.8 6.5-5.8 8.9z"></path>
</svg>
