<?xml version="1.0" encoding="utf-8"?>
<!-- Generated by IcoMoon.io -->
<!DOCTYPE svg PUBLIC "-//W3C//DTD SVG 1.1//EN" "http://www.w3.org/Graphics/SVG/1.1/DTD/svg11.dtd">
<svg version="1.1" xmlns="http://www.w3.org/2000/svg" xmlns:xlink="http://www.w3.org/1999/xlink" width="100" height="100" viewBox="0 0 100 100">
<path d="M93.7 0h-75c-3.4 0-6.2 2.8-6.2 6.2h-6.3c-3.4 0-6.2 2.8-6.2 6.3v75c0 3.5 2.8 6.2 6.2 6.2h6.3c0 3.5 2.8 6.3 6.2 6.3h75c3.5 0 6.3-2.8 6.3-6.3v-87.5c0-3.4-2.8-6.2-6.3-6.2zM12.5 87.5h-3.1c-1.8 0-3.2-1.4-3.2-3.1v-68.8c0-1.7 1.4-3.1 3.2-3.1h3.1v75zM93.7 90.6c0 1.7-1.4 3.1-3.1 3.1h-68.7c-1.8 0-3.2-1.4-3.2-3.1v-81.2c0-1.8 1.4-3.2 3.2-3.2h68.7c1.7 0 3.1 1.4 3.1 3.2v81.2z"></path>
</svg>
