<?xml version="1.0" encoding="utf-8"?>
<!-- Generated by IcoMoon.io -->
<!DOCTYPE svg PUBLIC "-//W3C//DTD SVG 1.1//EN" "http://www.w3.org/Graphics/SVG/1.1/DTD/svg11.dtd">
<svg version="1.1" xmlns="http://www.w3.org/2000/svg" xmlns:xlink="http://www.w3.org/1999/xlink" width="100" height="100" viewBox="0 0 100 100">
<path d="M62.5 3.1v0h-6.3v53.5c-6.8-4.9-18.1-4.7-28.2 1.3-12.8 7.6-18.9 21.4-13.6 30.8 5.3 9.5 19.9 10.9 32.6 3.3 9.7-5.7 15.5-15 15.5-23.3v0-56.5l20.7 15.9 4.3-4.3-25-20.7zM43.6 86.3c-9.8 5.9-20.5 5.8-23.9-0.5-3.3-6.2 1.8-16.1 11.6-22.1s20.5-5.8 23.9 0.4-1.8 16.2-11.6 22.2z"></path>
</svg>
