<?xml version="1.0" encoding="utf-8"?>
<!-- Generated by IcoMoon.io -->
<!DOCTYPE svg PUBLIC "-//W3C//DTD SVG 1.1//EN" "http://www.w3.org/Graphics/SVG/1.1/DTD/svg11.dtd">
<svg version="1.1" xmlns="http://www.w3.org/2000/svg" xmlns:xlink="http://www.w3.org/1999/xlink" width="100" height="100" viewBox="0 0 100 100">
<path d="M50 34.4c-8.6 0-15.6 7-15.6 15.6s7 15.6 15.6 15.6c8.6 0 15.6-7 15.6-15.6s-7-15.6-15.6-15.6zM50 59.4c-5.2 0-9.4-4.2-9.4-9.4s4.2-9.4 9.4-9.4c5.2 0 9.4 4.2 9.4 9.4s-4.2 9.4-9.4 9.4zM93.7 40.6l-7.9-1.3c-0.8-2.5-1.7-4.8-2.9-7l4.7-6.6c2.4-2.5 2.4-6.4 0-8.9l-4.5-4.4c-2.4-2.4-6.3-2.4-8.8 0l-6.6 4.7c-2.2-1.2-4.5-2.1-7-2.9l-1.3-8c0-3.4-2.8-6.2-6.3-6.2h-6.2c-3.5 0-6.3 2.8-6.3 6.2l-1.3 8c-2.5 0.8-4.8 1.7-7 2.9l-6.6-4.7c-2.5-2.4-6.4-2.4-8.9 0l-4.4 4.4c-2.4 2.5-2.4 6.4 0 8.9l4.7 6.6c-1.2 2.2-2.1 4.5-2.9 7l-8 1.3c-3.4 0-6.2 2.8-6.2 6.3v6.2c0 3.5 2.8 6.3 6.2 6.3l8 1.3c0.8 2.5 1.7 4.8 2.9 7l-4.7 6.6c-2.4 2.4-2.4 6.4 0 8.8l4.4 4.5c2.5 2.4 6.4 2.4 8.9 0l6.6-4.7c2.2 1.1 4.5 2.1 7 2.9l1.3 7.9c0 3.5 2.8 6.3 6.3 6.3h6.2c3.5 0 6.3-2.8 6.3-6.3l1.3-7.9c2.5-0.8 4.8-1.7 7-2.9l6.6 4.7c2.5 2.4 6.4 2.4 8.8 0l4.5-4.5c2.4-2.4 2.4-6.4 0-8.8l-4.7-6.6c1.2-2.2 2.1-4.5 2.9-7l7.9-1.3c3.5 0 6.3-2.8 6.3-6.3v-6.2c0-3.5-2.8-6.3-6.3-6.3zM90.6 53.1l-9.8 1.7c-0.8 5-2.8 9.7-5.7 13.6l5.8 8.1c1.3 1.2 1.3 3.2 0 4.4s-3.2 1.3-4.4 0l-8.1-5.8c-3.9 2.9-8.6 4.9-13.6 5.7l-1.7 9.8c0 1.7-1.4 3.1-3.1 3.1s-3.1-1.4-3.1-3.1l-1.7-9.8c-5-0.8-9.7-2.8-13.6-5.7l-8.1 5.8c-1.2 1.3-3.2 1.3-4.4 0-1.3-1.2-1.3-3.2 0-4.4l5.8-8.1c-2.9-3.9-4.9-8.6-5.7-13.6l-9.8-1.7c-1.8 0-3.2-1.4-3.2-3.1s1.4-3.1 3.2-3.1l9.8-1.7c0.8-5 2.8-9.7 5.7-13.6l-5.8-8.1c-1.3-1.2-1.3-3.2 0-4.4 1.2-1.3 3.2-1.3 4.4 0l8.1 5.8c3.9-2.9 8.6-4.9 13.6-5.7l1.7-9.8c0-1.8 1.4-3.2 3.1-3.2s3.1 1.4 3.1 3.2l1.7 9.8c5 0.8 9.7 2.8 13.6 5.7l8.1-5.8c1.2-1.3 3.2-1.3 4.4 0s1.3 3.2 0 4.4l-5.8 8.1c2.9 3.9 4.9 8.6 5.7 13.6l9.8 1.7c1.7 0 3.1 1.4 3.1 3.1s-1.4 3.1-3.1 3.1z"></path>
</svg>
