<?xml version="1.0" encoding="utf-8"?>
<!-- Generated by IcoMoon.io -->
<!DOCTYPE svg PUBLIC "-//W3C//DTD SVG 1.1//EN" "http://www.w3.org/Graphics/SVG/1.1/DTD/svg11.dtd">
<svg version="1.1" xmlns="http://www.w3.org/2000/svg" xmlns:xlink="http://www.w3.org/1999/xlink" width="100" height="100" viewBox="0 0 100 100">
<path d="M49.7 81.2h28.7c1.6 0 2.8-1.4 2.8-3.1s-1.2-3.1-2.8-3.1h-28.7c-1.5-7.1-7.8-12.5-15.3-12.5-8.7 0-15.7 7-15.7 15.6 0 8.7 7 15.6 15.7 15.6 7.5 0 13.8-5.3 15.3-12.5zM34.4 87.5c-5.2 0-9.4-4.2-9.4-9.4s4.2-9.4 9.4-9.4c5.1 0 9.3 4.2 9.3 9.4s-4.2 9.4-9.3 9.4zM65.6 37.5c-7.5 0-13.8 5.4-15.3 12.5h-28.7c-1.6 0-2.9 1.4-2.9 3.1s1.3 3.1 2.9 3.1h28.7c1.5 7.2 7.8 12.5 15.3 12.5 8.7 0 15.6-7 15.6-15.6 0 0 0 0 0 0 0-8.6-6.9-15.6-15.6-15.6zM65.6 62.5c-5.2 0-9.4-4.2-9.4-9.4s4.2-9.4 9.4-9.4 9.4 4.2 9.4 9.4c0 5.2-4.2 9.4-9.4 9.4zM78.4 25h-28.7c-1.5-7.1-7.8-12.5-15.3-12.5-8.7 0-15.7 7-15.7 15.6 0 0 0 0 0 0 0 8.6 7 15.6 15.7 15.6 7.5 0 13.8-5.3 15.3-12.5h28.7c1.6 0 2.8-1.4 2.8-3.1s-1.2-3.1-2.8-3.1zM34.4 37.5c-5.2 0-9.4-4.2-9.4-9.4s4.2-9.4 9.4-9.4c5.1 0 9.3 4.2 9.3 9.4s-4.2 9.4-9.3 9.4zM90.6 0h-81.2c-5.2 0-9.4 4.2-9.4 9.4v81.2c0 5.2 4.2 9.4 9.4 9.4h81.2c5.2 0 9.4-4.2 9.4-9.4v-81.2c0-5.2-4.2-9.4-9.4-9.4zM93.7 90.6c0 1.7-1.4 3.1-3.1 3.1h-81.2c-1.8 0-3.2-1.4-3.2-3.1v-81.2c0-1.8 1.4-3.2 3.2-3.2h81.2c1.7 0 3.1 1.4 3.1 3.2v81.2z"></path>
</svg>
