<?xml version="1.0" encoding="utf-8"?>
<!-- Generated by IcoMoon.io -->
<!DOCTYPE svg PUBLIC "-//W3C//DTD SVG 1.1//EN" "http://www.w3.org/Graphics/SVG/1.1/DTD/svg11.dtd">
<svg version="1.1" xmlns="http://www.w3.org/2000/svg" xmlns:xlink="http://www.w3.org/1999/xlink" width="100" height="100" viewBox="0 0 100 100">
<path d="M94.2 60.9l-13.2-7.6c0.2-1.1 0.3-2.2 0.3-3.3 0-1.2-0.1-2.3-0.3-3.4l13.2-7.6c3-1.7 3.6-6.1 1.5-9.9l-4.8-8.2c-2.2-3.8-6.3-5.4-9.3-3.7l-13.3 7.6c-1.7-1.3-3.6-2.5-5.7-3.4v-15.2c0-3.4-3.5-6.2-7.9-6.2h-9.5c-4.3 0-7.8 2.8-7.8 6.2v15.2c-2.1 0.9-4 2.1-5.8 3.4l-13.2-7.6c-3-1.7-7.2-0.1-9.3 3.7l-4.8 8.2c-2.2 3.8-1.5 8.2 1.5 9.9l13.1 7.6c-0.1 1.1-0.2 2.3-0.2 3.4s0.1 2.2 0.2 3.3l-13.1 7.6c-3 1.8-3.7 6.2-1.5 10l4.8 8.2c2.1 3.8 6.3 5.4 9.3 3.7l13.2-7.6c1.8 1.3 3.7 2.4 5.8 3.3v15.2c0 3.5 3.5 6.3 7.9 6.3h9.4c4.4 0 7.9-2.8 7.9-6.3v-15.2c2.1-0.9 4-2 5.8-3.3l13.2 7.6c3 1.7 7.2 0.1 9.3-3.7l4.8-8.2c2.1-3.8 1.5-8.2-1.5-10zM88.6 70.5l-1.5 2.7c-1.3 2.2-3.5 3.3-5 2.5l-14.3-8.3c-3.2 3.2-7.1 5.6-11.6 6.7v16.5c0 1.8-2.1 3.2-4.7 3.2h-3c-2.6 0-4.7-1.4-4.7-3.2v-16.5c-4.5-1.1-8.4-3.5-11.6-6.7l-14.3 8.2c-1.5 0.9-3.8-0.2-5-2.4l-1.6-2.7c-1.2-2.2-1.1-4.7 0.4-5.6l14.3-8.2c-0.6-2.1-1-4.4-1-6.7 0-2.4 0.4-4.6 1-6.7l-14.3-8.3c-1.5-0.8-1.6-3.3-0.4-5.6l1.6-2.6c1.3-2.2 3.5-3.3 5-2.5l14.3 8.3c3.2-3.2 7.1-5.6 11.6-6.8v-16.4c0-1.8 2.1-3.2 4.7-3.2h3c2.6 0 4.7 1.4 4.7 3.2v16.4c4.5 1.2 8.4 3.6 11.6 6.8l14.3-8.3c1.5-0.8 3.7 0.3 5 2.5l1.5 2.6c1.3 2.3 1.2 4.8-0.3 5.6l-14.3 8.3c0.6 2.1 1 4.4 1 6.7s-0.4 4.6-1 6.7l14.3 8.3c1.5 0.8 1.6 3.3 0.3 5.5zM50 37.5c-6.9 0-12.5 5.6-12.5 12.5s5.6 12.5 12.5 12.5 12.5-5.6 12.5-12.5c0-6.9-5.6-12.5-12.5-12.5zM50 56.2c-3.5 0-6.3-2.8-6.3-6.2 0-3.5 2.8-6.3 6.3-6.3s6.2 2.8 6.2 6.3c0 3.4-2.8 6.2-6.2 6.2z"></path>
</svg>
