<?xml version="1.0" encoding="utf-8"?>
<!-- Generated by IcoMoon.io -->
<!DOCTYPE svg PUBLIC "-//W3C//DTD SVG 1.1//EN" "http://www.w3.org/Graphics/SVG/1.1/DTD/svg11.dtd">
<svg version="1.1" xmlns="http://www.w3.org/2000/svg" xmlns:xlink="http://www.w3.org/1999/xlink" width="100" height="100" viewBox="0 0 100 100">
<path d="M63.4 18.6c0.2-0.1 0.3-0.1 0.4-0.2l0.3-0.1c0.2-0.1 0.3-0.2 0.4-0.4 0.1 0 0.2-0.1 0.3-0.2 0.2-0.2 0.3-0.4 0.4-0.7 0.1-0.1 0.2-0.2 0.2-0.3 0.1-0.3 0.1-0.5 0.2-0.8 0-0.1 0-0.2 0-0.3v-18.7c0-1.8-1.4-3.2-3.1-3.2s-3.1 1.4-3.1 3.2v16.6l-15.7 5.1-15.6-5.1v-16.6c0-1.8-1.4-3.2-3.1-3.2s-3.1 1.4-3.1 3.2v18.7c0 0.1 0 0.2 0 0.3 0 0.3 0.1 0.5 0.2 0.8 0 0.1 0.1 0.2 0.1 0.3 0.2 0.3 0.3 0.5 0.5 0.7 0.1 0.1 0.2 0.2 0.3 0.2 0.1 0.2 0.2 0.3 0.4 0.4l0.3 0.1c0.1 0.1 0.2 0.1 0.4 0.2l16.5 5.4v39.5l-16.5 5.4c-0.2 0.1-0.3 0.1-0.4 0.2l-0.3 0.1c-0.2 0.1-0.3 0.2-0.4 0.3s-0.2 0.2-0.3 0.3-0.3 0.4-0.5 0.7c0 0.1-0.1 0.2-0.1 0.3-0.1 0.3-0.1 0.5-0.2 0.8 0 0.1 0 0.2 0 0.3v18.7c0 1.7 1.4 3.1 3.1 3.1s3.1-1.4 3.1-3.1v-16.6l15.7-5.1 15.6 5.1v16.6c0 1.7 1.4 3.1 3.1 3.1s3.1-1.4 3.1-3.1v-18.7c0-0.1 0-0.2 0-0.3 0-0.3-0.1-0.5-0.2-0.8 0-0.1-0.1-0.2-0.1-0.3-0.2-0.3-0.3-0.5-0.5-0.7-0.1-0.1-0.2-0.2-0.3-0.3s-0.2-0.2-0.4-0.3l-0.3-0.1c-0.1-0.1-0.2-0.1-0.4-0.2l-16.5-5.4v-39.5l16.5-5.4z"></path>
</svg>
