<?xml version="1.0" encoding="utf-8"?>
<!-- Generated by IcoMoon.io -->
<!DOCTYPE svg PUBLIC "-//W3C//DTD SVG 1.1//EN" "http://www.w3.org/Graphics/SVG/1.1/DTD/svg11.dtd">
<svg version="1.1" xmlns="http://www.w3.org/2000/svg" xmlns:xlink="http://www.w3.org/1999/xlink" width="100" height="100" viewBox="0 0 100 100">
<path d="M18.7 15.6h37.5c6.9 0 12.5 5.6 12.5 12.5v18.8c0 6.9-5.6 12.5-12.5 12.5h-18.7v6.2h18.7c10.4 0 18.8-8.4 18.8-18.7v-18.8c0-10.3-8.4-18.7-18.8-18.7h-37.5c-10.3 0-18.7 8.4-18.7 18.7v18.8c0 10.3 8.4 18.7 18.7 18.7v-6.2c-6.9 0-12.5-5.6-12.5-12.5v-18.8c0-6.9 5.6-12.5 12.5-12.5zM81.2 34.4v6.2c6.9 0 12.5 5.6 12.5 12.5v18.8c0 6.9-5.6 12.5-12.5 12.5h-37.5c-6.9 0-12.5-5.6-12.5-12.5v-18.8c0-6.9 5.6-12.5 12.5-12.5h18.8v-6.2h-18.8c-10.3 0-18.7 8.4-18.7 18.7v18.8c0 10.3 8.4 18.7 18.7 18.7h37.5c10.4 0 18.8-8.4 18.8-18.7v-18.8c0-10.3-8.4-18.7-18.8-18.7z"></path>
</svg>
