<?xml version="1.0" encoding="utf-8"?>
<!-- Generated by IcoMoon.io -->
<!DOCTYPE svg PUBLIC "-//W3C//DTD SVG 1.1//EN" "http://www.w3.org/Graphics/SVG/1.1/DTD/svg11.dtd">
<svg version="1.1" xmlns="http://www.w3.org/2000/svg" xmlns:xlink="http://www.w3.org/1999/xlink" width="113" height="100" viewBox="0 0 113 100">
<path d="M56.2 0c-15.8 0-29.9 7.4-39.1 18.9 0 0 0 0 0 0-1.5 1.9-2.9 4-4.1 6.1v0c-4.3 7.4-6.8 15.9-6.8 25 0 27.6 22.4 50 50 50 27.7 0 50-22.4 50-50s-22.3-50-50-50zM68.5 8.2c14.2 4.2 25.4 15.3 29.6 29.6-1.4-0.2-2.9-0.3-4.4-0.3-8.6 0-16.7 2.2-23.7 6-2.3-2.5-4.8-4.9-7.4-7 3.9-7.1 6.1-15.3 6.1-24 0-1.5-0.1-2.9-0.2-4.3zM56.2 6.2c2 0 3.9 0.4 5.8 0.6 0.3 1.9 0.5 3.8 0.5 5.7 0 7.2-1.9 13.9-5 19.9-9.5-6.6-20.6-11.1-32.7-12.8 8-8.2 19.1-13.4 31.4-13.4zM12.5 50c0-9.2 2.8-17.7 7.7-24.7 12.6 1.1 24.3 5.6 34.1 12.5-7.9 11.1-20.8 18.4-35.6 18.4-1.9 0-3.8-0.2-5.6-0.4-0.3-1.9-0.6-3.8-0.6-5.8zM14.4 62.2c1.5 0.1 2.9 0.3 4.3 0.3 16.8 0 31.5-8.3 40.6-20.9 1.9 1.7 3.7 3.4 5.4 5.2-12.6 9.1-20.9 23.9-20.9 40.7 0 1.5 0.1 2.9 0.2 4.4-14.2-4.2-25.4-15.4-29.6-29.7zM56.2 93.7c-1.9 0-3.8-0.2-5.8-0.4-0.2-1.9-0.4-3.8-0.4-5.8 0-14.9 7.5-28.1 18.9-36 7.4 9.3 12.5 20.4 14.5 32.6-7.5 5.9-16.9 9.6-27.2 9.6zM88.8 79c-2.5-11.4-7.6-21.7-14.5-30.5 5.9-3 12.4-4.8 19.4-4.8 2 0 3.9 0.2 5.8 0.5 0.3 1.9 0.5 3.8 0.5 5.8 0 11.2-4.3 21.2-11.2 29z"></path>
</svg>
