<?xml version="1.0" encoding="utf-8"?>
<!-- Generated by IcoMoon.io -->
<!DOCTYPE svg PUBLIC "-//W3C//DTD SVG 1.1//EN" "http://www.w3.org/Graphics/SVG/1.1/DTD/svg11.dtd">
<svg version="1.1" xmlns="http://www.w3.org/2000/svg" xmlns:xlink="http://www.w3.org/1999/xlink" width="113" height="100" viewBox="0 0 113 100">
<path d="M100 34.4h-6.3c0-3.5-2.7-6.3-6.2-6.3h-6.3c-3.4 0-6.2 2.8-6.2 6.3v12.5h-37.5v-12.5c0-3.5-2.8-6.3-6.3-6.3h-6.2c-3.5 0-6.3 2.8-6.3 6.3h-6.2c-3.5 0-6.3 2.8-6.3 6.2v18.8c0 3.4 2.8 6.2 6.3 6.2h6.2c0 3.5 2.8 6.3 6.3 6.3h6.2c3.5 0 6.3-2.8 6.3-6.3v-12.5h37.5v12.5c0 3.5 2.8 6.3 6.2 6.3h6.3c3.5 0 6.2-2.8 6.2-6.3h6.3c3.5 0 6.2-2.8 6.2-6.2v-18.8c0-3.4-2.7-6.2-6.2-6.2zM18.7 43.7v15.7h-6.2v-18.8h6.2v3.1zM31.2 62.5c0 1.7-1.4 3.1-3.1 3.1s-3.1-1.4-3.1-3.1v-25c0-1.7 1.4-3.1 3.1-3.1s3.1 1.4 3.1 3.1v25zM87.5 40.6v21.9c0 1.7-1.4 3.1-3.1 3.1s-3.2-1.4-3.2-3.1v-25c0-1.7 1.5-3.1 3.2-3.1s3.1 1.4 3.1 3.1v3.1zM100 43.7v15.7h-6.3v-18.8h6.3v3.1z"></path>
</svg>
