<?xml version="1.0" encoding="utf-8"?>
<!-- Generated by IcoMoon.io -->
<!DOCTYPE svg PUBLIC "-//W3C//DTD SVG 1.1//EN" "http://www.w3.org/Graphics/SVG/1.1/DTD/svg11.dtd">
<svg version="1.1" xmlns="http://www.w3.org/2000/svg" xmlns:xlink="http://www.w3.org/1999/xlink" width="113" height="100" viewBox="0 0 113 100">
<path d="M32.2 35.6c3.3 2.3 7 4.1 10.8 5.5l1.7-6.2c-2.8-1-5.5-2.3-7.9-3.9l-4.6 4.6zM47.7 60.3l1.6 6c2.3-0.4 4.6-0.7 6.9-0.7 2.4 0 4.7 0.3 7 0.7l1.6-6c-2.8-0.6-5.6-0.9-8.6-0.9-2.9 0-5.7 0.3-8.5 0.9zM31.2 67.3l4.4 4.5c2.4-1.6 5-2.8 7.8-3.8l-1.7-6.1c-3.7 1.4-7.3 3.1-10.5 5.4zM69.1 68c2.8 1 5.4 2.2 7.7 3.8l4.5-4.5c-3.2-2.3-6.8-4-10.5-5.4l-1.7 6.1zM96.7 20.7c0.1-0.1 0.2-0.2 0.2-0.3-0.5-0.6-1.1-1.1-1.7-1.7-9.2-11.4-23.2-18.7-39-18.7-27.6 0-49.9 22.4-49.9 50s22.3 50 49.9 50c27.7 0 50.1-22.4 50.1-50-0.1-11-3.6-21-9.6-29.3zM90.9 76.5c-1.5-1.9-3-3.6-4.7-5.2l-4.4 4.4c1.8 1.7 3.4 3.6 4.9 5.6-7.9 7.7-18.6 12.4-30.5 12.4-11.8 0-22.5-4.7-30.4-12.4 1.5-2 3.1-3.9 4.9-5.6l-4.4-4.4c-1.7 1.6-3.3 3.3-4.7 5.2-5.6-7.4-9.1-16.5-9.1-26.5 0-9.7 3.3-18.6 8.6-25.9 1.8 2.7 3.8 5.2 6.1 7.4l4.5-4.5c-2.5-2.4-4.5-5.1-6.3-8 7.9-7.9 18.8-12.8 30.8-12.8 13.1 0 24.7 5.9 32.7 14.9-1.5 2.1-3.1 4.1-5 5.9l4.5 4.5c1.7-1.6 3.2-3.3 4.6-5.1 4.4 6.8 7 14.9 7 23.6 0 10-3.5 19.1-9.1 26.5zM71 34.9l1.6 6.2c3.9-1.4 7.5-3.2 10.8-5.5l-4.6-4.6c-2.4 1.6-5.1 2.9-7.8 3.9zM57.8 37.3c-2.4 0-4.8-0.3-7.1-0.7l-1.6 6.2c2.8 0.5 5.7 0.9 8.7 0.9s5.9-0.4 8.7-0.9l-1.6-6.2c-2.3 0.4-4.7 0.7-7.1 0.7z"></path>
</svg>
