<?xml version="1.0" encoding="utf-8"?>
<!-- Generated by IcoMoon.io -->
<!DOCTYPE svg PUBLIC "-//W3C//DTD SVG 1.1//EN" "http://www.w3.org/Graphics/SVG/1.1/DTD/svg11.dtd">
<svg version="1.1" xmlns="http://www.w3.org/2000/svg" xmlns:xlink="http://www.w3.org/1999/xlink" width="113" height="100" viewBox="0 0 113 100">
<path d="M81.2 31.3h-50c-6.9 0-12.5 5.6-12.5 12.5v31.2c0 6.9 5.6 12.5 12.5 12.5h50c6.9 0 12.5-5.6 12.5-12.5v-31.2c0-6.9-5.6-12.5-12.5-12.5zM87.5 75c0 3.5-2.8 6.3-6.3 6.3h-6.2v-43.8h-6.3v43.8h-25v-43.8h-6.2v43.8h-6.3c-3.4 0-6.2-2.8-6.2-6.3v-31.2c0-3.5 2.8-6.3 6.2-6.3h50c3.5 0 6.3 2.8 6.3 6.3v31.2zM87.5 18.8h-19.6l15.5-13.3c1.2-1.2 1.2-3.3 0-4.6-1.3-1.2-3.4-1.2-4.7 0l-20.8 17.9h-3.3l-20.9-17.9c-1.2-1.3-3.3-1.3-4.6 0-1.2 1.3-1.2 3.4 0 4.6l15.5 13.3h-19.6c-10.4 0-18.8 8.4-18.8 18.7v43.8c0 10.3 8.4 18.7 18.8 18.7h62.5c10.3 0 18.7-8.4 18.7-18.7v-43.8c0-10.3-8.4-18.7-18.7-18.7zM100 81.3c0 6.9-5.6 12.5-12.5 12.5h-62.5c-6.9 0-12.5-5.6-12.5-12.5v-43.8c0-6.9 5.6-12.5 12.5-12.5h62.5c6.9 0 12.5 5.6 12.5 12.5v43.8z"></path>
</svg>
