<?xml version="1.0" encoding="utf-8"?>
<!-- Generated by IcoMoon.io -->
<!DOCTYPE svg PUBLIC "-//W3C//DTD SVG 1.1//EN" "http://www.w3.org/Graphics/SVG/1.1/DTD/svg11.dtd">
<svg version="1.1" xmlns="http://www.w3.org/2000/svg" xmlns:xlink="http://www.w3.org/1999/xlink" width="113" height="100" viewBox="0 0 113 100">
<path d="M90.6 12.5h-62.5c-10.3 0-18.7 8.4-18.7 18.7v37.5c0 10.4 8.4 18.8 18.7 18.8h56.3c10.3 0 18.7-8.4 18.7-18.8v-37.5c0-10.3-2.1-18.7-12.5-18.7zM15.6 37.6c8.9-1.6 18.8-6.8 18.7 12.4s-9.9 14-18.7 12.4v-24.8zM53.1 81.2h-25c-6.9 0-12.5-5.6-12.5-12.5v-0.4c12.1 0.9 25 4.7 25-18.3s-12.9-19.2-25-18.3v-0.5c0-6.9 5.6-12.5 12.5-12.5h25v62.5zM96.9 62.2c-8.8 1.5-18.6 6.6-18.7-12.2s9.8-13.7 18.7-12.2v24.4zM96.9 31.2v0.8c-12.1-0.8-25-4.6-25 18 0 22.5 12.9 18.8 25 17.9v0.8c0 6.9-5.6 12.5-12.5 12.5h-25v-62.5h31.2c6.9 0 6.3 5.6 6.3 12.5z"></path>
</svg>
