<?xml version="1.0" encoding="utf-8"?>
<!-- Generated by IcoMoon.io -->
<!DOCTYPE svg PUBLIC "-//W3C//DTD SVG 1.1//EN" "http://www.w3.org/Graphics/SVG/1.1/DTD/svg11.dtd">
<svg version="1.1" xmlns="http://www.w3.org/2000/svg" xmlns:xlink="http://www.w3.org/1999/xlink" width="113" height="100" viewBox="0 0 113 100">
<path d="M90.6 0h-62.5c-10.3 0-18.7 8.4-18.7 18.7v62.5c0 10.4 8.4 18.8 18.7 18.8h56.3c10.3 0 18.7-8.4 18.7-18.8v-62.5c0-10.3-2.1-18.7-12.5-18.7zM15.6 31.4c9.5-1.4 21.8-5.7 21.8 18.6 0 24.2-12.4 20-21.8 18.6v-37.2zM53.1 93.7h-25c-6.9 0-12.5-5.5-12.5-12.5v-6.7c12.5 0.7 28.1 3.3 28.1-24.5s-15.6-25.2-28.1-24.6v-6.7c0-6.9 5.6-12.5 12.5-12.5h25v87.5zM96.9 68.6c-9.5 1.4-21.8 5.6-21.8-18.6 0-24.3 12.3-20 21.8-18.6v37.2zM96.9 18.7v6.7c-12.5-0.6-28.2-3.2-28.2 24.6s15.7 25.2 28.2 24.5v6.7c0 7-5.6 12.5-12.5 12.5h-25v-87.5h31.2c6.9 0 6.3 5.6 6.3 12.5z"></path>
</svg>
