<?xml version="1.0" encoding="utf-8"?>
<!-- Generated by IcoMoon.io -->
<!DOCTYPE svg PUBLIC "-//W3C//DTD SVG 1.1//EN" "http://www.w3.org/Graphics/SVG/1.1/DTD/svg11.dtd">
<svg version="1.1" xmlns="http://www.w3.org/2000/svg" xmlns:xlink="http://www.w3.org/1999/xlink" width="106" height="100" viewBox="0 0 106 100">
<path d="M81.2 93.7h-9.3v-28.1c0 0 0 0 0 0 0-0.2-0.1-0.3-0.1-0.5-0.2-1.4-1.4-2.4-2.8-2.6l-17.4-12.5 17.4-12.6c1.4-0.1 2.6-1.2 2.8-2.6 0-0.1 0.1-0.3 0.1-0.4 0 0 0 0 0 0v-28.2h9.3c1.8 0 3.2-1.4 3.2-3.1s-1.4-3.1-3.2-3.1h-68.7c-1.7 0-3.1 1.4-3.1 3.1s1.4 3.1 3.1 3.1h9.4v28.2c0 0 0 0 0 0 0 0.1 0 0.3 0.1 0.5 0.2 1.3 1.3 2.4 2.7 2.5l17.5 12.6-17.5 12.5c-1.4 0.2-2.5 1.2-2.7 2.6-0.1 0.2-0.1 0.3-0.1 0.5 0 0 0 0 0 0v28.1h-9.4c-1.7 0-3.1 1.4-3.1 3.2s1.4 3.1 3.1 3.1h68.8c1.7 0 3.1-1.4 3.1-3.1s-1.4-3.2-3.2-3.2zM28.1 33.1v-26.9h37.5v26.9l-18.7 13.5-18.8-13.5zM65.6 93.7h-37.5v-26.8l18.8-13.5 18.7 13.5v26.8z"></path>
</svg>
