<?xml version="1.0" encoding="utf-8"?>
<!-- Generated by IcoMoon.io -->
<!DOCTYPE svg PUBLIC "-//W3C//DTD SVG 1.1//EN" "http://www.w3.org/Graphics/SVG/1.1/DTD/svg11.dtd">
<svg version="1.1" xmlns="http://www.w3.org/2000/svg" xmlns:xlink="http://www.w3.org/1999/xlink" width="106" height="100" viewBox="0 0 106 100">
<path d="M53.1 59.4h-3.1v-21.9c0-1.7-1.4-3.1-3.1-3.1s-3.2 1.4-3.2 3.1v21.9h-3.1c-1.7 0-3.1 1.4-3.1 3.1v6.2c0 1.8 1.4 3.2 3.1 3.2h12.5c1.7 0 3.1-1.4 3.1-3.2v-6.2c0-1.7-1.4-3.1-3.1-3.1zM50 15.9v-6.5h9.4c1.7 0 3.1-1.4 3.1-3.2s-1.4-3.1-3.1-3.1h-25c-1.8 0-3.2 1.4-3.2 3.1s1.4 3.2 3.2 3.2h9.3v6.5c-20.9 1.7-37.5 19-37.5 40.3 0 22.5 18.2 40.7 40.7 40.7 22.4 0 40.6-18.2 40.6-40.7 0-21.3-16.6-38.6-37.5-40.3zM46.9 90.6c-19 0-34.4-15.4-34.4-34.4 0-18.9 15.4-34.3 34.4-34.3s34.3 15.4 34.3 34.3c0 19-15.3 34.4-34.3 34.4z"></path>
</svg>
