<?xml version="1.0" encoding="utf-8"?>
<!-- Generated by IcoMoon.io -->
<!DOCTYPE svg PUBLIC "-//W3C//DTD SVG 1.1//EN" "http://www.w3.org/Graphics/SVG/1.1/DTD/svg11.dtd">
<svg version="1.1" xmlns="http://www.w3.org/2000/svg" xmlns:xlink="http://www.w3.org/1999/xlink" width="106" height="100" viewBox="0 0 106 100">
<path d="M21.9 28.1l3.1 3.2 3.1-3.2-3.1-3.1-3.1 3.1zM9.4 56.2h6.2v-6.2h-6.2v6.2zM46.9 87.5h6.2v-6.3h-6.2v6.3zM21.9 71.9l3.1 3.1 3.1-3.1-3.1-3.2-3.1 3.2zM46.9 18.7h6.2v-6.2h-6.2v6.2zM46.9 0c-27.6 0-50 22.4-50 50s22.4 50 50 50c27.6 0 50-22.4 50-50s-22.4-50-50-50zM46.9 93.7c-24.2 0-43.8-19.5-43.8-43.7s19.6-43.8 43.8-43.8 43.7 19.6 43.7 43.8c0 24.2-19.6 43.7-43.7 43.7zM65.6 71.9l3.1 3.1 3.2-3.1-3.2-3.2-3.1 3.2zM78.1 50v6.2h6.3v-6.2h-6.3zM65.6 28.1l3.1 3.2 3.2-3.2-3.2-3.1-3.1 3.1z"></path>
</svg>
