<?xml version="1.0" encoding="utf-8"?>
<!-- Generated by IcoMoon.io -->
<!DOCTYPE svg PUBLIC "-//W3C//DTD SVG 1.1//EN" "http://www.w3.org/Graphics/SVG/1.1/DTD/svg11.dtd">
<svg version="1.1" xmlns="http://www.w3.org/2000/svg" xmlns:xlink="http://www.w3.org/1999/xlink" width="106" height="100" viewBox="0 0 106 100">
<path d="M34.4 6.2h9.3v6.3c0 1.7 1.4 3.1 3.2 3.1 1.7 0 3.1-1.4 3.1-3.1v-6.3h9.4c1.7 0 3.1-1.4 3.1-3.1s-1.4-3.1-3.1-3.1h-25c-1.8 0-3.2 1.4-3.2 3.1s1.4 3.1 3.2 3.1zM46.9 75c-1.7 0-3.2 1.4-3.2 3.1v6.3c0 1.7 1.4 3.1 3.2 3.1 1.7 0 3.1-1.4 3.1-3.1v-6.3c0-1.7-1.4-3.1-3.1-3.1zM28.1 56.2h-6.2c-1.8 0-3.2 1.5-3.2 3.2s1.4 3.1 3.2 3.1h6.2c1.7 0 3.1-1.4 3.1-3.1s-1.4-3.2-3.1-3.2zM46.9 31.2c-1.7 0-3.2 1.4-3.2 3.2v6.2c0 1.7 1.4 3.1 3.2 3.1 1.7 0 3.1-1.4 3.1-3.1v-6.2c0-1.8-1.4-3.2-3.1-3.2zM46.9 18.7c-22.5 0-40.7 18.2-40.7 40.7 0 22.4 18.2 40.6 40.7 40.6 22.4 0 40.6-18.2 40.6-40.6 0-22.5-18.2-40.7-40.6-40.7zM46.9 93.7c-19 0-34.4-15.3-34.4-34.3s15.4-34.4 34.4-34.4c19 0 34.3 15.4 34.3 34.4s-15.3 34.3-34.3 34.3zM71.9 56.2h-6.3c-1.7 0-3.1 1.5-3.1 3.2s1.4 3.1 3.1 3.1h6.3c1.7 0 3.1-1.4 3.1-3.1s-1.4-3.2-3.1-3.2z"></path>
</svg>
