<?xml version="1.0" encoding="utf-8"?>
<!-- Generated by IcoMoon.io -->
<!DOCTYPE svg PUBLIC "-//W3C//DTD SVG 1.1//EN" "http://www.w3.org/Graphics/SVG/1.1/DTD/svg11.dtd">
<svg version="1.1" xmlns="http://www.w3.org/2000/svg" xmlns:xlink="http://www.w3.org/1999/xlink" width="106" height="100" viewBox="0 0 106 100">
<path d="M34.4 43.7h22.7l-19.2 33c-0.9 1.4-0.4 3.3 1.1 4.2s3.4 0.3 4.3-1.2l22-37.6c0-0.1 0-0.1 0-0.2 0.1-0.1 0.1-0.2 0.1-0.3 0.5-1.1 0.2-2.3-0.7-3.2 0 0 0 0 0 0-0.2-0.2-0.4-0.4-0.6-0.5-0.1-0.1-0.2-0.1-0.3-0.1-0.1-0.1-0.2-0.1-0.3-0.1-0.3-0.1-0.5-0.2-0.8-0.2-0.1 0-0.1 0-0.2 0h-28.1c-1.7 0-3.1 1.4-3.1 3.1-0.1 1.7 1.3 3.1 3.1 3.1zM90.6 0h-87.5c-3.4 0-6.2 2.8-6.2 6.2v87.5c0 3.5 2.8 6.3 6.2 6.3h87.5c3.5 0 6.3-2.8 6.3-6.3v-87.5c0-3.4-2.8-6.2-6.3-6.2zM90.6 90.6c0 1.7-1.4 3.1-3.1 3.1h-81.3c-1.7 0-3.1-1.4-3.1-3.1v-65.6h87.5v65.6zM90.6 18.7h-87.5v-9.3c0-1.8 1.4-3.2 3.1-3.2h81.3c1.7 0 3.1 1.4 3.1 3.2v9.3z"></path>
</svg>
