<?xml version="1.0" encoding="utf-8"?>
<!-- Generated by IcoMoon.io -->
<!DOCTYPE svg PUBLIC "-//W3C//DTD SVG 1.1//EN" "http://www.w3.org/Graphics/SVG/1.1/DTD/svg11.dtd">
<svg version="1.1" xmlns="http://www.w3.org/2000/svg" xmlns:xlink="http://www.w3.org/1999/xlink" width="106" height="100" viewBox="0 0 106 100">
<path d="M68.7 50.1h-21.8v-21.9c0-1.7-1.4-3.2-3.2-3.2-1.7 0-3.1 1.5-3.1 3.2v24.9c0 0 0 0 0 0.1 0 0.6 0.3 1.2 0.6 1.7 0.6 0.8 1.5 1.4 2.5 1.4 0.1 0 0.1-0.1 0.2-0.1h24.8c1.8 0 3.2-1.3 3.2-3s-1.4-3.1-3.2-3.1zM3.1 15.7c0-5.2 4.2-9.4 9.4-9.4 1.4 0 2.8 0.4 4 1l4.5-4.7c-2.4-1.6-5.3-2.5-8.5-2.5-8.6 0-15.6 7-15.6 15.6 0 3.3 1 6.4 2.8 8.9l4.6-4.7c-0.7-1.3-1.2-2.7-1.2-4.2zM46.9 6.3c-24.2 0-43.8 19.6-43.8 43.7 0 17.3 10.1 32 24.6 39.2l-5.1 6.4c-1.1 1.4-0.4 3.2 1.5 4 2 0.8 4.5 0.3 5.6-1.1l5.2-6.6c3.8 1.1 7.8 1.8 12 1.8 4.1 0 8.1-0.7 11.9-1.8l5.3 6.6c1.1 1.4 3.6 1.9 5.5 1.1 2-0.8 2.6-2.6 1.5-4l-5.1-6.4c14.5-7.2 24.6-21.9 24.6-39.2 0-24.1-19.6-43.7-43.7-43.7zM46.9 87.5c-20.7 0-37.5-16.8-37.5-37.5s16.8-37.4 37.5-37.4 37.5 16.7 37.5 37.4c0 20.7-16.8 37.5-37.5 37.5zM80.7-6.3c-3.3 0-6.3 1-8.8 2.6l4.7 4.8c1.2-0.6 2.6-1 4.1-1 5.4 0 9.7 4.3 9.7 9.5 0 1.6-0.5 3.1-1.2 4.4l4.7 4.8c1.9-2.6 3-5.8 3-9.2 0-8.8-7.3-15.9-16.2-15.9z"></path>
</svg>
