<?xml version="1.0" encoding="utf-8"?>
<!-- Generated by IcoMoon.io -->
<!DOCTYPE svg PUBLIC "-//W3C//DTD SVG 1.1//EN" "http://www.w3.org/Graphics/SVG/1.1/DTD/svg11.dtd">
<svg version="1.1" xmlns="http://www.w3.org/2000/svg" xmlns:xlink="http://www.w3.org/1999/xlink" width="106" height="100" viewBox="0 0 106 100">
<path d="M75 50h-15.6c0-6.9-5.6-12.5-12.5-12.5v-21.9c0-1.7-1.4-3.1-3.2-3.1-1.7 0-3.1 1.4-3.1 3.1v23.6c-3.7 2.2-6.2 6.2-6.2 10.8 0 6.9 5.6 12.5 12.5 12.5 4.6 0 8.6-2.5 10.7-6.3h17.4c1.7 0 3.1-1.4 3.1-3.1s-1.4-3.1-3.1-3.1zM46.9 56.2c-3.5 0-6.3-2.8-6.3-6.2s2.8-6.3 6.3-6.3c3.4 0 6.2 2.8 6.2 6.3s-2.8 6.2-6.2 6.2zM46.9 0c-27.6 0-50 22.4-50 50s22.4 50 50 50c27.6 0 50-22.4 50-50s-22.4-50-50-50zM46.9 93.7c-24.2 0-43.8-19.5-43.8-43.7s19.6-43.8 43.8-43.8 43.7 19.6 43.7 43.8-19.6 43.7-43.7 43.7z"></path>
</svg>
