<?xml version="1.0" encoding="utf-8"?>
<!-- Generated by IcoMoon.io -->
<!DOCTYPE svg PUBLIC "-//W3C//DTD SVG 1.1//EN" "http://www.w3.org/Graphics/SVG/1.1/DTD/svg11.dtd">
<svg version="1.1" xmlns="http://www.w3.org/2000/svg" xmlns:xlink="http://www.w3.org/1999/xlink" width="106" height="100" viewBox="0 0 106 100">
<path d="M50 31.2c-1.7 0-3.1 1.4-3.1 3.2v15.6h-15.7c-1.7 0-3.1 1.4-3.1 3.1s1.4 3.1 3.1 3.1h18.8c1.7 0 3.1-1.4 3.1-3.1v-18.7c0-1.8-1.4-3.2-3.1-3.2zM84.4 0h-75c-6.9 0-12.5 5.6-12.5 12.5v75c0 6.9 5.6 12.5 12.5 12.5h75c6.9 0 12.5-5.6 12.5-12.5v-75c0-6.9-5.6-12.5-12.5-12.5zM90.6 50h-9.4c-1.7 0-3.1 1.4-3.1 3.1s1.4 3.1 3.1 3.1h9.4v31.3c0 0.5-0.1 0.9-0.3 1.4l-6.7-6.7c-1.2-1.3-3.3-1.3-4.6 0s-1.2 3.3 0 4.6l6.7 6.7c-0.4 0.1-0.9 0.2-1.3 0.2h-31.3v-9.3c0-1.8-1.4-3.2-3.1-3.2s-3.1 1.4-3.1 3.2v9.3h-37.5c-0.5 0-0.9-0.1-1.4-0.2l6.7-6.7c1.3-1.3 1.3-3.4 0-4.6s-3.3-1.3-4.6 0l-6.7 6.7c-0.1-0.5-0.3-0.9-0.3-1.4v-31.3h9.4c1.7 0 3.1-1.4 3.1-3.1s-1.4-3.1-3.1-3.1h-9.4v-37.5c0-0.5 0.2-0.9 0.3-1.4l6.6 6.6c1.3 1.3 3.3 1.3 4.6 0 1.3-1.2 1.3-3.3 0-4.6l-6.6-6.6c0.5-0.1 0.9-0.3 1.4-0.3h37.5v9.4c0 1.7 1.4 3.1 3.1 3.1s3.1-1.4 3.1-3.1v-9.4h31.3c0.4 0 0.9 0.2 1.3 0.3l-6.6 6.6c-1.2 1.3-1.2 3.4 0 4.6 1.3 1.3 3.4 1.3 4.6 0l6.6-6.6c0.2 0.5 0.3 0.9 0.3 1.4v37.5z"></path>
</svg>
