<?xml version="1.0" encoding="utf-8"?>
<!-- Generated by IcoMoon.io -->
<!DOCTYPE svg PUBLIC "-//W3C//DTD SVG 1.1//EN" "http://www.w3.org/Graphics/SVG/1.1/DTD/svg11.dtd">
<svg version="1.1" xmlns="http://www.w3.org/2000/svg" xmlns:xlink="http://www.w3.org/1999/xlink" width="106" height="100" viewBox="0 0 106 100">
<path d="M92.9 38.2l-15.6-15.5c2.5-2.5 2.5-6.4 0-8.9l-8.9-8.9c-2.4-2.4-6.4-2.4-8.9 0l-57.7 57.8c-2.5 2.4-2.5 6.4 0 8.9l8.9 8.8c2.4 2.5 6.4 2.5 8.9 0l15.5 15.6c1.2 1.2 3.2 1.2 4.5 0s1.2-3.2 0-4.5l-15.6-15.5 8.9-8.9 15.5 15.6c1.3 1.2 3.3 1.2 4.5 0 1.2-1.3 1.2-3.3 0-4.5l-15.6-15.5 8.9-8.9 15.6 15.5c1.2 1.2 3.2 1.2 4.4 0s1.2-3.2 0-4.4l-15.5-15.6 8.8-8.8 15.6 15.5c1.2 1.2 3.2 1.2 4.4 0s1.3-3.2 0-4.4l-15.5-15.6 8.9-8.9 15.5 15.6c1.2 1.2 3.2 1.2 4.5 0s1.2-3.2 0-4.5zM70.7 20.5l-40 39.9c0 0 0 0 0 0l-13.4 13.4c-1.2 1.2-3.2 1.2-4.4 0l-4.4-4.5c-1.3-1.2-1.3-3.2 0-4.4l53.3-53.3c1.2-1.2 3.2-1.2 4.4 0l4.5 4.4c1.2 1.2 1.2 3.2 0 4.5z"></path>
</svg>
