<?xml version="1.0" encoding="utf-8"?>
<!-- Generated by IcoMoon.io -->
<!DOCTYPE svg PUBLIC "-//W3C//DTD SVG 1.1//EN" "http://www.w3.org/Graphics/SVG/1.1/DTD/svg11.dtd">
<svg version="1.1" xmlns="http://www.w3.org/2000/svg" xmlns:xlink="http://www.w3.org/1999/xlink" width="106" height="100" viewBox="0 0 106 100">
<path d="M93.7 43.7l-21.8 13.7v-1.2c0-3.7-1.7-7.1-4.4-9.4 6.3-3.8 10.6-10.7 10.6-18.7 0-12.1-9.8-21.9-21.9-21.9-12 0-21.8 9.8-21.8 21.9 0 6.1 2.5 11.7 6.6 15.6h-11.5c3-3.3 4.9-7.6 4.9-12.5 0-10.3-8.4-18.7-18.8-18.7-10.3 0-18.7 8.4-18.7 18.7 0 5.7 2.5 10.7 6.5 14.1-3.9 2.2-6.5 6.2-6.5 10.9v25c0 6.9 5.6 12.5 12.5 12.5h50c6.9 0 12.5-5.6 12.5-12.5v-1.1l21.8 13.6c1.8 0 3.2-1.4 3.2-3.1v-43.7c0-1.8-1.4-3.2-3.2-3.2zM3.1 31.2c0-6.9 5.6-12.5 12.5-12.5s12.5 5.6 12.5 12.5c0 6.9-5.6 12.5-12.5 12.5s-12.5-5.6-12.5-12.5zM65.6 62.5v18.7c0 3.5-2.8 6.3-6.2 6.3h-50c-3.5 0-6.3-2.8-6.3-6.3v-25c0-3.4 2.8-6.2 6.3-6.2h50c3.4 0 6.2 2.8 6.2 6.2v6.3zM56.2 43.7c-8.6 0-15.6-7-15.6-15.6s7-15.6 15.6-15.6c8.7 0 15.7 7 15.7 15.6s-7 15.6-15.7 15.6zM90.6 84.4l-18.7-9.4v-12.5l18.7-9.4v31.3z"></path>
</svg>
