<?xml version="1.0" encoding="utf-8"?>
<!-- Generated by IcoMoon.io -->
<!DOCTYPE svg PUBLIC "-//W3C//DTD SVG 1.1//EN" "http://www.w3.org/Graphics/SVG/1.1/DTD/svg11.dtd">
<svg version="1.1" xmlns="http://www.w3.org/2000/svg" xmlns:xlink="http://www.w3.org/1999/xlink" width="106" height="100" viewBox="0 0 106 100">
<path d="M9.4 40.6h6.2v-6.2h-6.2v6.2zM9.4 53.1h6.2v-6.2h-6.2v6.2zM78.1 53.1h6.3v-6.2h-6.3v6.2zM28.1 28.1h-6.2v43.8h50v-43.8h-43.8zM65.6 65.6h-37.5v-31.2h37.5v31.2zM78.1 15.6h-62.5c-10.3 0-18.7 8.4-18.7 18.8v31.2c0 10.4 8.4 18.8 18.7 18.8h62.5c10.4 0 18.8-8.4 18.8-18.8v-31.2c0-10.4-8.4-18.8-18.8-18.8zM90.6 65.6c0 6.9-5.6 12.5-12.5 12.5h-62.5c-6.9 0-12.5-5.6-12.5-12.5v-31.2c0-6.9 5.6-12.5 12.5-12.5h62.5c6.9 0 12.5 5.6 12.5 12.5v31.2zM78.1 40.6h6.3v-6.2h-6.3v6.2z"></path>
</svg>
