<?xml version="1.0" encoding="utf-8"?>
<!-- Generated by IcoMoon.io -->
<!DOCTYPE svg PUBLIC "-//W3C//DTD SVG 1.1//EN" "http://www.w3.org/Graphics/SVG/1.1/DTD/svg11.dtd">
<svg version="1.1" xmlns="http://www.w3.org/2000/svg" xmlns:xlink="http://www.w3.org/1999/xlink" width="106" height="100" viewBox="0 0 106 100">
<path d="M32.5 59.9l-16.8 16.7-18.8 18.9 4.4 4.5 35.7-35.6c-0.9-0.7-1.7-1.3-2.5-2-0.8-0.8-1.4-1.7-2-2.5zM46.9 68.5v25.2h6.2v-25.2c-2.1 0.3-4.1 0.3-6.2 0zM28.4 43.7h-25.3v6.3h25.3c-0.3-2.1-0.3-4.2 0-6.3zM34.5 31.5c0.7-0.8 1.5-1.3 2.3-1.9l-17.1-17.1-4.1 4.2 17 17c0.6-0.7 1.2-1.5 1.9-2.2zM65.4 62.4c-0.7 0.7-1.5 1.2-2.3 1.8l17.1 17.1 4.2-4.2-17.1-17.1c-0.6 0.8-1.2 1.6-1.9 2.4zM71.5 43.7c0.3 2.1 0.3 4.2 0 6.3h25.4v-6.3h-25.4zM46.9 25.4c2.1-0.3 4.1-0.3 6.2 0v-25.4h-6.2v25.4zM67.3 33.8l17.1-17.1-4.2-4.2-17.1 17.1c0.8 0.6 1.6 1.1 2.3 1.9 0.7 0.7 1.3 1.5 1.9 2.3z"></path>
</svg>
