<?xml version="1.0" encoding="utf-8"?>
<!-- Generated by IcoMoon.io -->
<!DOCTYPE svg PUBLIC "-//W3C//DTD SVG 1.1//EN" "http://www.w3.org/Graphics/SVG/1.1/DTD/svg11.dtd">
<svg version="1.1" xmlns="http://www.w3.org/2000/svg" xmlns:xlink="http://www.w3.org/1999/xlink" width="106" height="100" viewBox="0 0 106 100">
<path d="M38.8 53.6l-41.9 41.9 4.5 4.5 25.1-25.1 16.7-16.8c-0.8-0.6-1.7-1.2-2.4-2-0.8-0.8-1.4-1.6-2-2.5zM34.7 37.5h-19.1v6.2h19.1c-0.3-2-0.3-4.1 0-6.2zM40.8 25.2c0.7-0.7 1.5-1.3 2.3-1.9l-17.1-17-4.2 4.1 17.1 17.1c0.6-0.8 1.2-1.6 1.9-2.3zM53.1 62.2v19h6.3v-19c-2.1 0.3-4.2 0.3-6.3 0zM71.7 56.1c-0.7 0.7-1.5 1.3-2.3 1.9l17.1 17 4.1-4.1-17-17.1c-0.6 0.8-1.2 1.6-1.9 2.3zM77.8 37.5c0.3 2.1 0.3 4.2 0 6.2l19.1 0.1v-6.3h-19.1zM73.6 27.5l17-17.1-4.1-4.1-17.1 17c0.8 0.6 1.6 1.2 2.3 1.9s1.3 1.5 1.9 2.3zM53.1 19.1c2.1-0.3 4.2-0.3 6.3 0v-19.1h-6.3v19.1z"></path>
</svg>
