<?xml version="1.0" encoding="utf-8"?>
<!-- Generated by IcoMoon.io -->
<!DOCTYPE svg PUBLIC "-//W3C//DTD SVG 1.1//EN" "http://www.w3.org/Graphics/SVG/1.1/DTD/svg11.dtd">
<svg version="1.1" xmlns="http://www.w3.org/2000/svg" xmlns:xlink="http://www.w3.org/1999/xlink" width="106" height="100" viewBox="0 0 106 100">
<path d="M95.9 94.5l-17.7-17.8c-1.5 1.6-3 3.2-4.6 4.6l17.8 17.7c1.2 1.3 3.3 1.3 4.5 0 1.3-1.2 1.3-3.2 0-4.5zM40.6 0c-24.1 0-43.7 19.6-43.7 43.8 0 24.1 19.6 43.7 43.7 43.7 24.2 0 43.8-19.6 43.8-43.7 0-24.2-19.6-43.8-43.8-43.8zM40.6 81.3c-20.7 0-37.5-16.8-37.5-37.5s16.8-37.5 37.5-37.5 37.5 16.8 37.5 37.5c0 20.7-16.7 37.5-37.5 37.5z"></path>
</svg>
