<?xml version="1.0" encoding="utf-8"?>
<!-- Generated by IcoMoon.io -->
<!DOCTYPE svg PUBLIC "-//W3C//DTD SVG 1.1//EN" "http://www.w3.org/Graphics/SVG/1.1/DTD/svg11.dtd">
<svg version="1.1" xmlns="http://www.w3.org/2000/svg" xmlns:xlink="http://www.w3.org/1999/xlink" width="106" height="100" viewBox="0 0 106 100">
<path d="M46.9 31.2c-13.8 0-25 11.2-25 25s11.2 25 25 25c13.8 0 25-11.2 25-25s-11.2-25-25-25zM46.9 75c-10.4 0-18.8-8.4-18.8-18.8s8.4-18.7 18.8-18.7 18.7 8.4 18.7 18.7-8.4 18.8-18.7 18.8zM90.6 12.5h-47.5c-1.3-3.6-4.7-6.3-8.7-6.3h-15.7c-4 0-7.4 2.7-8.7 6.3h-6.9c-3.4 0-6.2 2.8-6.2 6.2v68.8c0 3.4 2.8 6.2 6.2 6.2h87.5c3.5 0 6.3-2.8 6.3-6.2v-68.8c0-3.4-2.8-6.2-6.3-6.2zM18.7 12.5h15.7c1.7 0 3.1 1.4 3.1 3.1s-1.4 3.1-3.1 3.1h-15.7c-1.7 0-3.1-1.4-3.1-3.1s1.4-3.1 3.1-3.1zM90.6 84.4c0 1.7-1.4 3.1-3.1 3.1h-81.3c-1.7 0-3.1-1.4-3.1-3.1v-62.5c0-1.8 1.4-3.2 3.1-3.2h3.8c1.3 3.7 4.7 6.3 8.7 6.3h15.7c4 0 7.4-2.6 8.7-6.3h44.4c1.7 0 3.1 1.4 3.1 3.2v62.5z"></path>
</svg>
