<?xml version="1.0" encoding="utf-8"?>
<!-- Generated by IcoMoon.io -->
<!DOCTYPE svg PUBLIC "-//W3C//DTD SVG 1.1//EN" "http://www.w3.org/Graphics/SVG/1.1/DTD/svg11.dtd">
<svg version="1.1" xmlns="http://www.w3.org/2000/svg" xmlns:xlink="http://www.w3.org/1999/xlink" width="106" height="100" viewBox="0 0 106 100">
<path d="M84.4 31.2h-12.5c-4.6 0-8.6 2.6-10.8 6.3h-14.2v-12.5h-25v12.5h-18.8c-3.4 0-6.2 2.8-6.2 6.2v18.8c0 3.4 2.8 6.2 6.2 6.2h58c2.2 3.8 6.2 6.3 10.8 6.3h25v-43.8h-12.5zM28.1 31.2h12.5v6.3h-12.5v-6.3zM59.4 62.5h-53.2c-1.7 0-3.1-1.4-3.1-3.1v-12.5c0-1.8 1.4-3.2 3.1-3.2h53.2v18.8zM78.1 68.7h-6.2c-3.5 0-6.3-2.8-6.3-6.2v-18.8c0-3.4 2.8-6.2 6.3-6.2h6.2v31.2zM90.6 68.7h-6.2v-31.2h6.2v31.2z"></path>
</svg>
