<?xml version="1.0" encoding="utf-8"?>
<!-- Generated by IcoMoon.io -->
<!DOCTYPE svg PUBLIC "-//W3C//DTD SVG 1.1//EN" "http://www.w3.org/Graphics/SVG/1.1/DTD/svg11.dtd">
<svg version="1.1" xmlns="http://www.w3.org/2000/svg" xmlns:xlink="http://www.w3.org/1999/xlink" width="106" height="100" viewBox="0 0 106 100">
<path d="M84.4 18.7v-18.7h-25v18.7h-6.3v18.8h-12.5v-18.8h-6.2v-18.7h-25v18.7h-6.3v81.3h37.5v-31.3h12.5v31.3h37.5v-81.3h-6.2zM15.6 6.2h12.5v12.5h-12.5v-12.5zM34.4 93.7h-25v-12.5h25v12.5zM34.4 75h-25v-50h25v50zM53.1 62.5h-12.5v-18.8h12.5v18.8zM65.6 6.2h12.5v12.5h-12.5v-12.5zM84.4 93.7h-25v-12.5h25v12.5zM84.4 75h-25v-50h25v50z"></path>
</svg>
