<?xml version="1.0" encoding="utf-8"?>
<!-- Generated by IcoMoon.io -->
<!DOCTYPE svg PUBLIC "-//W3C//DTD SVG 1.1//EN" "http://www.w3.org/Graphics/SVG/1.1/DTD/svg11.dtd">
<svg version="1.1" xmlns="http://www.w3.org/2000/svg" xmlns:xlink="http://www.w3.org/1999/xlink" width="106" height="100" viewBox="0 0 106 100">
<path d="M46.9 34.4c-13.8 0-25 11.2-25 25s11.2 25 25 25c13.8 0 25-11.2 25-25s-11.2-25-25-25zM46.9 78.1c-10.4 0-18.8-8.4-18.8-18.7 0-10.4 8.4-18.8 18.8-18.8s18.7 8.4 18.7 18.8c0 10.3-8.4 18.7-18.7 18.7zM84.4 15.6h-12.5c0-6.9-5.6-12.5-12.5-12.5h-25c-6.9 0-12.5 5.6-12.5 12.5h-12.5c-6.9 0-12.5 5.6-12.5 12.5v56.3c0 6.9 5.6 12.5 12.5 12.5h75c6.9 0 12.5-5.6 12.5-12.5v-56.3c0-6.9-5.6-12.5-12.5-12.5zM34.4 9.4h25c3.4 0 6.2 2.8 6.2 6.2h-37.5c0-3.4 2.8-6.2 6.3-6.2zM90.6 84.4c0 3.4-2.8 6.2-6.2 6.2h-75c-3.5 0-6.3-2.8-6.3-6.2v-37.5h12.5v-6.3h-12.5v-6.2h12.5v-6.3h-12.5c0-3.4 2.8-6.2 6.3-6.2h75c3.4 0 6.2 2.8 6.2 6.2v56.3z"></path>
</svg>
