<?xml version="1.0" encoding="utf-8"?>
<!-- Generated by IcoMoon.io -->
<!DOCTYPE svg PUBLIC "-//W3C//DTD SVG 1.1//EN" "http://www.w3.org/Graphics/SVG/1.1/DTD/svg11.dtd">
<svg version="1.1" xmlns="http://www.w3.org/2000/svg" xmlns:xlink="http://www.w3.org/1999/xlink" width="106" height="100" viewBox="0 0 106 100">
<path d="M81.2 0h-68.7c-8.6 0-15.6 7-15.6 15.6s7 15.6 15.6 15.6h15.6v21.9c0 1.7 1.4 3.1 3.1 3.1h15.7v6.3c-3.5 0-6.3 2.8-6.3 6.2v25c0 3.5 2.8 6.3 6.3 6.3h6.2c3.5 0 6.3-2.8 6.3-6.3v-25c0-3.4-2.8-6.2-6.3-6.2v-9.4c0-1.7-1.4-3.1-3.1-3.1h-15.6v-18.8h46.8c8.7 0 15.7-7 15.7-15.6s-7-15.6-15.7-15.6zM50 68.7c1.7 0 3.1 1.4 3.1 3.2v18.7c0 1.7-1.4 3.1-3.1 3.1s-3.1-1.4-3.1-3.1v-18.7c0-1.8 1.4-3.2 3.1-3.2zM81.2 25h-68.7c-5.2 0-9.4-4.2-9.4-9.4s4.2-9.4 9.4-9.4h68.7c5.2 0 9.4 4.2 9.4 9.4s-4.2 9.4-9.4 9.4z"></path>
</svg>
