<?xml version="1.0" encoding="utf-8"?>
<!-- Generated by IcoMoon.io -->
<!DOCTYPE svg PUBLIC "-//W3C//DTD SVG 1.1//EN" "http://www.w3.org/Graphics/SVG/1.1/DTD/svg11.dtd">
<svg version="1.1" xmlns="http://www.w3.org/2000/svg" xmlns:xlink="http://www.w3.org/1999/xlink" width="106" height="100" viewBox="0 0 106 100">
<path d="M89 81.6l-43.1-31.6 43.1-31.7c1.6-0.9 2.1-2.8 1.2-4.3s-2.9-2-4.5-1.2l-45.1 33.2-14-10.2c5.2-2.6 8.9-7.8 8.9-13.9 0-8.7-7.3-15.7-16.2-15.7-9 0-16.2 7-16.2 15.7 0 8.2 6.6 14.9 15 15.5l17.1 12.6-17.2 12.6c-8.3 0.6-14.9 7.3-14.9 15.5 0 8.6 7.2 15.6 16.2 15.6 8.9 0 16.2-7 16.2-15.6 0-6.1-3.7-11.3-9-13.9l14.1-10.3 45.1 33.2c1.6 0.8 3.6 0.3 4.5-1.2s0.4-3.4-1.2-4.3zM19.5 31.2c-0.1 0-0.2 0-0.3 0-5.3 0-9.6-4.2-9.6-9.3 0-5.2 4.3-9.4 9.7-9.4 5.3 0 9.7 4.2 9.7 9.4 0 5.1-4.3 9.2-9.5 9.3zM29 78.1c0 5.2-4.3 9.4-9.7 9.4s-9.7-4.2-9.7-9.4c0-5.2 4.3-9.4 9.7-9.4s9.7 4.2 9.7 9.4z"></path>
</svg>
