<?xml version="1.0" encoding="utf-8"?>
<!-- Generated by IcoMoon.io -->
<!DOCTYPE svg PUBLIC "-//W3C//DTD SVG 1.1//EN" "http://www.w3.org/Graphics/SVG/1.1/DTD/svg11.dtd">
<svg version="1.1" xmlns="http://www.w3.org/2000/svg" xmlns:xlink="http://www.w3.org/1999/xlink" width="106" height="100" viewBox="0 0 106 100">
<path d="M65.6 56.2h12.5c1.7 0 3.1-1.4 3.1-3.1v-12.5c0-1.7-1.4-3.1-3.1-3.1h-12.5c-1.7 0-3.1 1.4-3.1 3.1v12.5c0 1.7 1.4 3.1 3.1 3.1zM68.7 43.7h6.3v6.3h-6.3v-6.3zM65.6 81.2h12.5c1.7 0 3.1-1.4 3.1-3.1v-12.5c0-1.7-1.4-3.1-3.1-3.1h-12.5c-1.7 0-3.1 1.4-3.1 3.1v12.5c0 1.7 1.4 3.1 3.1 3.1zM68.7 68.7h6.3v6.3h-6.3v-6.3zM15.6 56.2h12.5c1.7 0 3.1-1.4 3.1-3.1v-12.5c0-1.7-1.4-3.1-3.1-3.1h-12.5c-1.7 0-3.1 1.4-3.1 3.1v12.5c0 1.7 1.4 3.1 3.1 3.1zM18.7 43.7h6.3v6.3h-6.3v-6.3zM40.6 56.2h12.5c1.7 0 3.1-1.4 3.1-3.1v-12.5c0-1.7-1.4-3.1-3.1-3.1h-12.5c-1.7 0-3.1 1.4-3.1 3.1v12.5c0 1.7 1.4 3.1 3.1 3.1zM43.7 43.7h6.3v6.3h-6.3v-6.3zM15.6 81.2h12.5c1.7 0 3.1-1.4 3.1-3.1v-12.5c0-1.7-1.4-3.1-3.1-3.1h-12.5c-1.7 0-3.1 1.4-3.1 3.1v12.5c0 1.7 1.4 3.1 3.1 3.1zM18.7 68.7h6.3v6.3h-6.3v-6.3zM87.5 0h-81.3c-3.4 0-6.2 2.8-6.2 6.2v87.5c0 3.5 2.8 6.3 6.2 6.3h81.3c3.5 0 6.2-2.8 6.2-6.3v-87.5c0-3.4-2.7-6.2-6.2-6.2zM87.5 90.6c0 1.7-1.4 3.1-3.1 3.1h-75c-1.8 0-3.2-1.4-3.2-3.1v-65.6h81.3v65.6zM87.5 18.7h-81.3v-9.3c0-1.8 1.4-3.2 3.2-3.2h75c1.7 0 3.1 1.4 3.1 3.2v9.3zM40.6 81.2h12.5c1.7 0 3.1-1.4 3.1-3.1v-12.5c0-1.7-1.4-3.1-3.1-3.1h-12.5c-1.7 0-3.1 1.4-3.1 3.1v12.5c0 1.7 1.4 3.1 3.1 3.1zM43.7 68.7h6.3v6.3h-6.3v-6.3z"></path>
</svg>
