<?xml version="1.0" encoding="utf-8"?>
<!-- Generated by IcoMoon.io -->
<!DOCTYPE svg PUBLIC "-//W3C//DTD SVG 1.1//EN" "http://www.w3.org/Graphics/SVG/1.1/DTD/svg11.dtd">
<svg version="1.1" xmlns="http://www.w3.org/2000/svg" xmlns:xlink="http://www.w3.org/1999/xlink" width="106" height="100" viewBox="0 0 106 100">
<path d="M84.4 0h-75c-3.5 0-6.3 2.8-6.3 6.2v43.8c0 3.4 2.8 6.2 6.3 6.2h25v37.5c0 3.5 2.8 6.3 6.2 6.3h12.5c3.5 0 6.3-2.8 6.3-6.3v-37.5h25c3.4 0 6.2-2.8 6.2-6.2v-43.8c0-3.4-2.8-6.2-6.2-6.2zM15.6 50h-3.1c-1.7 0-3.1-1.4-3.1-3.1v-37.5c0-1.8 1.4-3.2 3.1-3.2h3.1v43.8zM53.1 59.4v31.2c0 1.7-1.4 3.1-3.1 3.1h-6.3c-1.7 0-3.1-1.4-3.1-3.1v-34.4h12.5v3.2zM71.9 50h-50v-43.8h50v43.8zM84.4 46.9c0 1.7-1.4 3.1-3.2 3.1h-3.1v-43.8h3.1c1.8 0 3.2 1.4 3.2 3.2v37.5z"></path>
</svg>
