<?xml version="1.0" encoding="utf-8"?>
<!-- Generated by IcoMoon.io -->
<!DOCTYPE svg PUBLIC "-//W3C//DTD SVG 1.1//EN" "http://www.w3.org/Graphics/SVG/1.1/DTD/svg11.dtd">
<svg version="1.1" xmlns="http://www.w3.org/2000/svg" xmlns:xlink="http://www.w3.org/1999/xlink" width="106" height="100" viewBox="0 0 106 100">
<path d="M58.1 25.3l-4.5 4.5 4.5 4.5 4.5-4.5-4.5-4.5zM67.1 25.3l4.5 4.5 4.5-4.5-4.5-4.5-4.5 4.5zM62.6 38.8l4.5 4.5 4.5-4.5-4.5-4.5-4.5 4.5zM85.1 16.4l-4.5-4.5c-7.5-7.5-19.5-7.5-27 0l-18 17.9-26.9 26.9c-7.5 7.4-7.5 19.5 0 26.9l4.5 4.5c7.4 7.4 19.5 7.4 26.9 0l45-44.8c7.4-7.5 7.4-19.5 0-26.9zM35.6 83.6c-4.9 5-13 5-17.9 0l-4.5-4.5c-5-4.9-5-12.9 0-17.9l22.4-22.4 22.5 22.4-22.5 22.4zM80.6 38.8l-18 17.9-22.5-22.4 18-17.9c5-5 13-5 18 0l4.5 4.4c4.9 5 4.9 13 0 18z"></path>
</svg>
