<?xml version="1.0" encoding="utf-8"?>
<!-- Generated by IcoMoon.io -->
<!DOCTYPE svg PUBLIC "-//W3C//DTD SVG 1.1//EN" "http://www.w3.org/Graphics/SVG/1.1/DTD/svg11.dtd">
<svg version="1.1" xmlns="http://www.w3.org/2000/svg" xmlns:xlink="http://www.w3.org/1999/xlink" width="100" height="100" viewBox="0 0 100 100">
<path d="M100 34.3c0-1.7-1.4-3.1-3.1-3.1h-21.9v-6.2c0-3.5-2.8-6.3-6.2-6.3h-56.3c-3.4 0-6.2 2.8-6.2 6.3v43.7c0 3.4 2.8 6.2 6.2 6.2h0.3c-0.2 1-0.3 2.1-0.3 3.2 0 8.7 7 15.7 15.6 15.7s15.7-7 15.7-15.7c0-1.1-0.2-2.2-0.4-3.2h19.4c-0.2 1-0.3 2.1-0.3 3.2 0 8.7 7 15.7 15.6 15.7s15.7-7 15.7-15.7c0-1.1-0.2-2.2-0.4-3.2h9.7c1.7 0 3.2-1.4 3.2-3.1l-6.3-37.5zM75 37.5h18.8l2.5 12.5h-21.3v-12.5zM28.1 87.4c-5.2 0-9.3-4.1-9.3-9.3 0-5.1 4.1-9.3 9.3-9.3s9.4 4.2 9.4 9.3c0 5.2-4.2 9.3-9.4 9.3zM65.7 68.8c0 0 0 0-0.1 0h-25c-2.9-3.8-7.4-6.3-12.5-6.3s-9.6 2.5-12.4 6.3h-0.1c-1.7 0-3.1-1.4-3.1-3.1v-37.5c0-1.7 1.4-3.1 3.1-3.1h50c1.7 0 3.2 1.4 3.2 3.1v37.5c0 0-0.1 0-0.1 0-1.1 0.9-2.1 1.9-3 3.1zM78.1 87.4c-5.1 0-9.3-4.1-9.3-9.3 0-5.1 4.2-9.3 9.3-9.3s9.4 4.2 9.4 9.3c0 5.2-4.2 9.3-9.4 9.3zM90.6 68.7c-2.9-3.7-7.4-6.2-12.5-6.2-1 0-2.1 0.1-3.1 0.3v-6.6h22.5l2.5 12.5h-9.4z"></path>
</svg>
