<?xml version="1.0" encoding="utf-8"?>
<!-- Generated by IcoMoon.io -->
<!DOCTYPE svg PUBLIC "-//W3C//DTD SVG 1.1//EN" "http://www.w3.org/Graphics/SVG/1.1/DTD/svg11.dtd">
<svg version="1.1" xmlns="http://www.w3.org/2000/svg" xmlns:xlink="http://www.w3.org/1999/xlink" width="100" height="100" viewBox="0 0 100 100">
<path d="M97.9 45.6l-4.1-20.6c-3.2-9.4-8.4-18.8-18.8-18.8h-37.5c-10.4 0-15.6 9.4-18.7 18.8l-4.2 20.6c-4.9 2.6-8.3 7.8-8.3 13.8 0 5.1 2.4 9.5 6.2 12.4v9.4c0 4.7 2.5 8.7 6.3 10.8v8c0 3.5 2.8 6.3 6.2 6.3h6.3c3.4 0 6.2-2.8 6.2-6.3v-6.2h37.5v6.2c0 3.5 2.8 6.3 6.3 6.3h6.2c3.5 0 6.3-2.8 6.3-6.3v-8c3.7-2.1 6.2-6.1 6.2-10.8v-9.4c3.8-2.9 6.3-7.3 6.3-12.4 0-6-3.5-11.2-8.4-13.8zM25 25c3.1-6.3 5.6-12.5 12.5-12.5h37.5c6.9 0 9.4 6.2 12.5 12.5l3.8 18.8c-0.2 0-0.5-0.1-0.7-0.1-5.1 0-9.6 2.5-12.4 6.3h-43.9c-2.8-3.8-7.3-6.3-12.4-6.3-0.2 0-0.4 0.1-0.7 0.1l3.8-18.8zM12.5 59.4c0-5.2 4.2-9.4 9.4-9.4s9.4 4.2 9.4 9.4-4.2 9.3-9.4 9.3c-5.2 0-9.4-4.2-9.4-9.3zM31.3 96.9c0 1.7-1.4 3.1-3.2 3.1-1.7 0-3.1-1.4-3.1-3.1v-3.1h6.3v3.1zM87.5 96.9c0 1.7-1.4 3.1-3.1 3.1s-3.1-1.4-3.1-3.1v-3.1h6.2v3.1zM87.5 87.5h-62.5c-3.4 0-6.2-2.8-6.2-6.3h75c0 3.5-2.8 6.3-6.3 6.3zM93.8 75h-75v-0.3c1 0.2 2 0.3 3.1 0.3 8.6 0 15.6-7 15.6-15.6 0-1.1-0.1-2.1-0.3-3.2h38.1c-0.2 1.1-0.3 2.1-0.3 3.2 0 8.6 7 15.6 15.6 15.6 1.1 0 2.1-0.1 3.2-0.3v0.3zM90.6 68.7c-5.1 0-9.3-4.2-9.3-9.3s4.2-9.4 9.3-9.4 9.4 4.2 9.4 9.4-4.2 9.3-9.4 9.3z"></path>
</svg>
