<?xml version="1.0" encoding="utf-8"?>
<!-- Generated by IcoMoon.io -->
<!DOCTYPE svg PUBLIC "-//W3C//DTD SVG 1.1//EN" "http://www.w3.org/Graphics/SVG/1.1/DTD/svg11.dtd">
<svg version="1.1" xmlns="http://www.w3.org/2000/svg" xmlns:xlink="http://www.w3.org/1999/xlink" width="100" height="100" viewBox="0 0 100 100">
<path d="M99 51.2l-0.2-1.2-5-25c0-10.4-8.4-18.8-18.8-18.8h-37.5c-10.4 0-18.7 8.4-18.7 18.8l-5.3 26.2c-4.3 2-7.2 6.3-7.2 11.3v31.3h6.2v6.2c0 3.5 2.8 6.3 6.3 6.3h6.2c3.5 0 6.3-2.8 6.3-6.3v-6.2h50v6.2c0 3.5 2.8 6.3 6.2 6.3h6.3c3.4 0 6.2-2.8 6.2-6.3v-6.2h6.3v-31.3c0-5-3-9.3-7.3-11.3zM25 25c0-6.9 5.6-12.5 12.5-12.5h37.5c6.9 0 12.5 5.6 12.5 12.5l5 25h-72.5l5-25zM25 96.9c0 1.7-1.4 3.1-3.1 3.1s-3.1-1.4-3.1-3.1v-3.1h6.2v3.1zM93.8 96.9c0 1.7-1.4 3.1-3.2 3.1s-3.1-1.4-3.1-3.1v-3.1h6.3v3.1zM100 81.2c0 0 0 0 0 0.1v6.2h-87.5v-6.2c0-0.1 0-0.1 0-0.1v-18.7c0-3.5 2.8-6.3 6.3-6.3h75c3.4 0 6.2 2.8 6.2 6.3v18.7zM84.4 62.5c-5.2 0-9.4 4.2-9.4 9.4s4.2 9.3 9.4 9.3c5.2 0 9.4-4.2 9.4-9.3s-4.2-9.4-9.4-9.4zM84.4 75c-1.7 0-3.1-1.4-3.1-3.1s1.4-3.2 3.1-3.2 3.1 1.5 3.1 3.2-1.4 3.1-3.1 3.1zM28.1 62.5c-5.1 0-9.3 4.2-9.3 9.4s4.2 9.3 9.3 9.3 9.4-4.2 9.4-9.3-4.2-9.4-9.4-9.4zM28.1 75c-1.7 0-3.1-1.4-3.1-3.1s1.4-3.2 3.1-3.2 3.2 1.5 3.2 3.2-1.4 3.1-3.2 3.1z"></path>
</svg>
