<?xml version="1.0" encoding="utf-8"?>
<!-- Generated by IcoMoon.io -->
<!DOCTYPE svg PUBLIC "-//W3C//DTD SVG 1.1//EN" "http://www.w3.org/Graphics/SVG/1.1/DTD/svg11.dtd">
<svg version="1.1" xmlns="http://www.w3.org/2000/svg" xmlns:xlink="http://www.w3.org/1999/xlink" width="100" height="100" viewBox="0 0 100 100">
<path d="M93.8 6.2h-75c-7 0-12.5 5.6-12.5 12.5v62.5c0 7 5.5 12.6 12.5 12.6h0.3c1.4 7.1 7.7 12.5 15.3 12.5 7.5 0 13.8-5.4 15.3-12.5h13.1c1.5 7.1 7.8 12.5 15.3 12.5s13.9-5.4 15.3-12.5h0.4c6.9 0 12.5-5.6 12.5-12.6v-62.5c0-6.9-5.6-12.5-12.5-12.5zM12.5 31.2h12.5v31.3h-12.5v-31.3zM34.4 100c-5.2 0-9.4-4.2-9.4-9.4s4.2-9.4 9.4-9.4c5.2 0 9.4 4.3 9.4 9.4s-4.2 9.4-9.4 9.4zM78.1 100c-5.1 0-9.3-4.2-9.3-9.4s4.2-9.4 9.3-9.4 9.4 4.3 9.4 9.4-4.2 9.4-9.4 9.4zM100 81.2c0 3.5-2.8 6.3-6.2 6.3h-0.4c-1.4-7.1-7.7-12.5-15.3-12.5s-13.8 5.4-15.3 12.5h-13.1c-1.5-7.1-7.8-12.5-15.3-12.5-7.6 0-13.9 5.4-15.3 12.5h-0.3c-3.5 0-6.3-2.8-6.3-6.3v-12.5h87.5v12.5zM31.3 62.5v-31.3h18.7v31.3h-18.7zM56.3 62.5v-31.3h18.7v31.3h-18.7zM100 62.5h-18.7v-31.3h18.7v31.3zM100 25h-87.5v-6.3c0-3.4 2.8-6.2 6.3-6.2h75c3.4 0 6.2 2.8 6.2 6.2v6.3z"></path>
</svg>
