<?xml version="1.0" encoding="utf-8"?>
<!-- Generated by IcoMoon.io -->
<!DOCTYPE svg PUBLIC "-//W3C//DTD SVG 1.1//EN" "http://www.w3.org/Graphics/SVG/1.1/DTD/svg11.dtd">
<svg version="1.1" xmlns="http://www.w3.org/2000/svg" xmlns:xlink="http://www.w3.org/1999/xlink" width="100" height="100" viewBox="0 0 100 100">
<path d="M75 37.5c0-15.5-12.6-28.1-28.1-28.1s-28.1 12.6-28.1 28.1c0 10.5 5.8 19.7 14.3 24.5-13.9 5.5-23.7 19-23.7 34.9v6.2h6.3v-6.2c0-17.3 13.9-31.3 31.2-31.3 9.3 0 17.6 4.2 23.3 10.7 1.3-1.8 2.7-3.3 4.4-4.7-3.9-4.2-8.6-7.5-13.9-9.6 8.5-4.8 14.3-14 14.3-24.5zM46.9 59.4c-12.1 0-21.9-9.8-21.9-21.9s9.8-21.9 21.9-21.9 21.9 9.8 21.9 21.9c0 12.1-9.8 21.9-21.9 21.9zM95.2 90.6l6.9-7c1.3-1.2 1.3-3.3 0-4.6-1.2-1.3-3.3-1.3-4.6 0l-6.9 7-6.9-7c-1.3-1.3-3.4-1.3-4.6 0-1.3 1.3-1.3 3.4 0 4.6l6.9 7-6.9 6.9c-1.3 1.3-1.3 3.3 0 4.6 1.2 1.3 3.3 1.3 4.6 0l6.9-6.9 6.9 6.9c1.3 1.3 3.4 1.3 4.6 0 1.3-1.3 1.3-3.3 0-4.6l-6.9-6.9z"></path>
</svg>
