<?xml version="1.0" encoding="utf-8"?>
<!-- Generated by IcoMoon.io -->
<!DOCTYPE svg PUBLIC "-//W3C//DTD SVG 1.1//EN" "http://www.w3.org/Graphics/SVG/1.1/DTD/svg11.dtd">
<svg version="1.1" xmlns="http://www.w3.org/2000/svg" xmlns:xlink="http://www.w3.org/1999/xlink" width="100" height="100" viewBox="0 0 100 100">
<path d="M96.9 87.5h-9.4v-9.4c0-1.7-1.4-3.1-3.1-3.1s-3.1 1.4-3.1 3.1v9.4h-9.4c-1.7 0-3.1 1.4-3.1 3.1 0 1.8 1.4 3.2 3.1 3.2h9.4v9.3c0 1.8 1.4 3.2 3.1 3.2s3.1-1.4 3.1-3.2v-9.3h9.4c1.7 0 3.1-1.4 3.1-3.2 0-1.7-1.4-3.1-3.1-3.1zM30.3 62.6c4.6 3.8 10.3 6.2 16.6 6.2 6.2 0 11.9-2.4 16.6-6.2 4.2 0.3 7.8 2.7 9.8 6.2h6.8c-1.9-5.4-6.2-9.7-11.6-11.5 4-5.4 6.5-12.2 6.5-19.8 0-17.3-12.6-31.3-28.1-31.3-15.6 0-28.1 14-28.1 31.3 0 7.6 2.5 14.4 6.5 19.8-7.4 2.5-12.8 9.4-12.8 17.7v12.5c0 10.4 8.4 18.8 18.8 18.8h31.2v-6.3h-31.2c-6.9 0-12.5-5.6-12.5-12.5v-12.5c0-6.6 5-11.9 11.5-12.4zM25 37.5c0-13.8 9.8-25 21.9-25s21.9 11.2 21.9 25c0 13.8-9.8 25-21.9 25s-21.9-11.2-21.9-25z"></path>
</svg>
