<?xml version="1.0" encoding="utf-8"?>
<!-- Generated by IcoMoon.io -->
<!DOCTYPE svg PUBLIC "-//W3C//DTD SVG 1.1//EN" "http://www.w3.org/Graphics/SVG/1.1/DTD/svg11.dtd">
<svg version="1.1" xmlns="http://www.w3.org/2000/svg" xmlns:xlink="http://www.w3.org/1999/xlink" width="100" height="100" viewBox="0 0 100 100">
<path d="M100 84.4h-25c-1.7 0-3.1 1.4-3.1 3.1s1.4 3.1 3.1 3.1h25c1.7 0 3.1-1.4 3.1-3.1s-1.4-3.1-3.1-3.1zM60.6 62c8.6-4.8 14.4-14 14.4-24.5 0-15.5-12.6-28.1-28.1-28.1-15.6 0-28.1 12.6-28.1 28.1 0 10.5 5.8 19.7 14.3 24.5-13.9 5.5-23.7 19-23.7 34.9v6.2h6.2v-6.2c0-17.3 14-31.3 31.3-31.3 8.7 0 16.6 3.6 22.2 9.3 1.1-1.8 2.3-3.5 3.7-4.9-3.5-3.4-7.6-6.2-12.2-8zM25 37.5c0-12.1 9.8-21.9 21.9-21.9s21.9 9.8 21.9 21.9c0 12.1-9.8 21.9-21.9 21.9s-21.9-9.8-21.9-21.9z"></path>
</svg>
