<?xml version="1.0" encoding="utf-8"?>
<!-- Generated by IcoMoon.io -->
<!DOCTYPE svg PUBLIC "-//W3C//DTD SVG 1.1//EN" "http://www.w3.org/Graphics/SVG/1.1/DTD/svg11.dtd">
<svg version="1.1" xmlns="http://www.w3.org/2000/svg" xmlns:xlink="http://www.w3.org/1999/xlink" width="100" height="100" viewBox="0 0 100 100">
<path d="M74.5 71.6c-3.8-4.1-8.5-7.5-13.9-9.6 8.6-4.8 14.4-14 14.4-24.5 0-15.5-12.6-28.1-28.1-28.1-15.6 0-28.1 12.6-28.1 28.1 0 10.5 5.7 19.7 14.3 24.5-13.9 5.5-23.7 19-23.7 34.9v6.2h6.2v-6.2c0-17.3 14-31.3 31.3-31.3 9.3 0 17.6 4.2 23.3 10.7 1.2-1.8 2.7-3.3 4.3-4.7zM25 37.5c0-12.1 9.8-21.9 21.9-21.9s21.9 9.8 21.9 21.9c0 12.1-9.8 21.9-21.9 21.9s-21.9-9.8-21.9-21.9zM100 84.4h-9.4v-9.4c0-1.7-1.4-3.1-3.1-3.1s-3.1 1.4-3.1 3.1v9.4h-9.4c-1.7 0-3.1 1.4-3.1 3.1s1.4 3.1 3.1 3.1h9.4v9.4c0 1.7 1.4 3.1 3.1 3.1s3.1-1.4 3.1-3.1v-9.4h9.4c1.7 0 3.1-1.4 3.1-3.1s-1.4-3.1-3.1-3.1z"></path>
</svg>
