<?xml version="1.0" encoding="utf-8"?>
<!-- Generated by IcoMoon.io -->
<!DOCTYPE svg PUBLIC "-//W3C//DTD SVG 1.1//EN" "http://www.w3.org/Graphics/SVG/1.1/DTD/svg11.dtd">
<svg version="1.1" xmlns="http://www.w3.org/2000/svg" xmlns:xlink="http://www.w3.org/1999/xlink" width="100" height="100" viewBox="0 0 100 100">
<path d="M88.2 18c-11.6-11.6-30.4-11.6-42.1 0-10.7 10.8-11.4 27.8-2.1 39.5l-27.4 24.9c-0.9 0.8-1.1 2-0.8 3l-0.2 0.3 17.6 17.5 4.4-4.4-14.2-14.1 8.5-7.8 13.7 13.8 4.4-4.4-13.5-13.6 11.9-10.8c11.7 9.6 28.9 9.1 39.8-1.8 11.6-11.6 11.6-30.4 0-42.1zM83.8 55.6c-9.2 9.2-24 9.2-33.2 0-9.1-9.1-9.1-24 0-33.1 9.2-9.2 24-9.2 33.2 0 9.1 9.1 9.1 24 0 33.1z"></path>
</svg>
