<?xml version="1.0" encoding="utf-8"?>
<!-- Generated by IcoMoon.io -->
<!DOCTYPE svg PUBLIC "-//W3C//DTD SVG 1.1//EN" "http://www.w3.org/Graphics/SVG/1.1/DTD/svg11.dtd">
<svg version="1.1" xmlns="http://www.w3.org/2000/svg" xmlns:xlink="http://www.w3.org/1999/xlink" width="100" height="100" viewBox="0 0 100 100">
<path d="M70.3 50.3c4.7-4.6 7.8-11.4 7.8-19.1 0-13.8-9.8-25-21.8-25-12.1 0-21.9 11.2-21.9 25 0 7.7 3.1 14.5 7.8 19.1-1 1.8-17.2 43.5-17.2 43.5 0 6.9 5.6 12.5 12.5 12.5h37.5c6.9 0 12.5-5.6 12.5-12.5 0 0-16.2-41.7-17.2-43.5zM40.6 31.2c0-10.3 7-18.7 15.7-18.7s15.6 8.4 15.6 18.7c0 10.4-7 18.8-15.6 18.8s-15.7-8.4-15.7-18.8zM75 100h-37.5c-3.4 0-6.2-2.8-6.2-6.2 0 0 15.8-39.1 16-39.8 2.8 1.4 5.8 2.2 9 2.2 3.1 0 6.1-0.8 8.9-2.2 0.2 0.7 16.1 39.8 16.1 39.8 0 3.4-2.8 6.2-6.3 6.2z"></path>
</svg>
