<?xml version="1.0" encoding="utf-8"?>
<!-- Generated by IcoMoon.io -->
<!DOCTYPE svg PUBLIC "-//W3C//DTD SVG 1.1//EN" "http://www.w3.org/Graphics/SVG/1.1/DTD/svg11.dtd">
<svg version="1.1" xmlns="http://www.w3.org/2000/svg" xmlns:xlink="http://www.w3.org/1999/xlink" width="100" height="100" viewBox="0 0 100 100">
<path d="M40.6 71.9c0 1.7 1.4 3.1 3.2 3.1h12.5c1.7 0 3.1-1.4 3.1-3.1s-1.4-3.2-3.1-3.2h-12.5c-1.8 0-3.2 1.5-3.2 3.2zM71.9 6.2c-13.8 0-25 11.2-25 25v6.6c-17.5 1.6-31.3 16.2-31.3 34.1 0 19 15.4 34.4 34.4 34.4s34.4-15.4 34.4-34.4c0-17.9-13.8-32.5-31.3-34.1v-6.6c0-10.3 8.4-18.7 18.8-18.7s18.7 8.4 18.7 18.7h6.3c0-13.8-11.2-25-25-25zM78.1 71.9c0 15.5-12.6 28.1-28.1 28.1s-28.1-12.6-28.1-28.1c0-15.6 12.6-28.2 28.1-28.2s28.1 12.6 28.1 28.2z"></path>
</svg>
