<?xml version="1.0" encoding="utf-8"?>
<!-- Generated by IcoMoon.io -->
<!DOCTYPE svg PUBLIC "-//W3C//DTD SVG 1.1//EN" "http://www.w3.org/Graphics/SVG/1.1/DTD/svg11.dtd">
<svg version="1.1" xmlns="http://www.w3.org/2000/svg" xmlns:xlink="http://www.w3.org/1999/xlink" width="100" height="100" viewBox="0 0 100 100">
<path d="M74.4 45.2c2.4-4 3.7-8.8 3.7-14 0-13.8-9.8-25-21.8-25-12.1 0-21.9 11.2-21.9 25 0 5.2 1.3 10 3.7 14-4.1 2-6.8 6.2-6.8 11l9.3 37.6c0 0 5.6 12.5 12.5 12.5h6.3c6.9 0 12.5-12.5 12.5-12.5l9.4-37.6c0-4.8-2.8-9-6.9-11zM56.3 12.5c8.6 0 15.6 8.4 15.6 18.7 0 10.4-7 18.8-15.6 18.8s-15.7-8.4-15.7-18.8c0-10.3 7-18.7 15.7-18.7zM65.6 93.8c-2 3.6-2.8 6.2-6.2 6.2h-6.3c-3.4 0-4.4-1.9-6.2-6.2l-9.4-37.6c0-2.9 2-5.2 4.7-5.9 3.8 3.7 8.7 5.9 14.1 5.9s10.2-2.2 14-5.9c2.7 0.7 4.7 3 4.7 5.9l-9.4 37.6z"></path>
</svg>
