<?xml version="1.0" encoding="utf-8"?>
<!-- Generated by IcoMoon.io -->
<!DOCTYPE svg PUBLIC "-//W3C//DTD SVG 1.1//EN" "http://www.w3.org/Graphics/SVG/1.1/DTD/svg11.dtd">
<svg version="1.1" xmlns="http://www.w3.org/2000/svg" xmlns:xlink="http://www.w3.org/1999/xlink" width="100" height="100" viewBox="0 0 100 100">
<path d="M76.2 3.1c0.3 2.4 0.5 4.9 0.5 7.4 0 33.6-28.2 60.8-63 60.8-4.7 0-9.3-0.5-13.7-1.5 9 16.1 26.6 27.1 46.9 27.1 29.3 0 53.1-22.9 53.1-51.2 0-17.8-9.5-33.5-23.8-42.6zM46.9 90.5c-12.4 0-24-4.7-32.6-12.8 35.7-0.3 65.1-26.6 68.7-60.1 6.6 7.8 10.3 17.7 10.3 28.1 0 24.7-20.8 44.8-46.4 44.8z"></path>
</svg>
