<?xml version="1.0" encoding="utf-8"?>
<!-- Generated by IcoMoon.io -->
<!DOCTYPE svg PUBLIC "-//W3C//DTD SVG 1.1//EN" "http://www.w3.org/Graphics/SVG/1.1/DTD/svg11.dtd">
<svg version="1.1" xmlns="http://www.w3.org/2000/svg" xmlns:xlink="http://www.w3.org/1999/xlink" width="100" height="100" viewBox="0 0 100 100">
<path d="M93.7 9.4l-75-6.3c-1.7 0-3.1 1.4-3.1 3.1v3.2h6.3l25 2.2v29.9l-25 2.2v-28.1h-6.3v31.3c0 1.7 1.4 3.1 3.1 3.1l75-6.3c1.8 0 3.2-1.4 3.2-3.1v-28.1c0-1.7-1.4-3.1-3.2-3.1zM71.9 39.2l-18.8 1.7v-28.7l18.8 1.7v25.3zM90.6 37.5l-12.5 1.1v-24.1l12.5 1.1v21.9zM6.2 3.1c-1.7 0-3.1 1.4-3.1 3.1v87.5c0 1.8 1.4 3.2 3.1 3.2 1.8 0 3.2-1.4 3.2-3.2v-87.5c0-1.7-1.4-3.1-3.2-3.1z"></path>
</svg>
