<?xml version="1.0" encoding="utf-8"?>
<!-- Generated by IcoMoon.io -->
<!DOCTYPE svg PUBLIC "-//W3C//DTD SVG 1.1//EN" "http://www.w3.org/Graphics/SVG/1.1/DTD/svg11.dtd">
<svg version="1.1" xmlns="http://www.w3.org/2000/svg" xmlns:xlink="http://www.w3.org/1999/xlink" width="100" height="100" viewBox="0 0 100 100">
<path d="M53.1 90.6h-31.2c-1.8 0-3.2 1.4-3.2 3.1 0 1.8 1.4 3.2 3.2 3.2h31.2c1.7 0 3.1-1.4 3.1-3.2 0-1.7-1.4-3.1-3.1-3.1zM52 65.6c-1.2-4-2-8.1-2-12.5 0-22 16.3-40.2 37.5-43.2-7.4-4.3-15.9-6.8-25-6.8-27.6 0-50 22.4-50 50 0 4.3 0.6 8.5 1.6 12.5h-14.1v6.3h100v-6.3h-48zM20.8 65.6c-1.2-4-2.1-8.1-2.1-12.5 0-24.1 19.7-43.7 43.8-43.7 2.1 0 4.2 0.1 6.3 0.4-15 8.8-25.1 25.1-25.1 43.3 0 4.3 0.6 8.5 1.7 12.5h-24.6zM59.4 78.1h-43.8c-1.7 0-3.1 1.4-3.1 3.1 0 1.8 1.4 3.2 3.1 3.2h43.8c1.7 0 3.1-1.4 3.1-3.2 0-1.7-1.4-3.1-3.1-3.1z"></path>
</svg>
