<?xml version="1.0" encoding="utf-8"?>
<!-- Generated by IcoMoon.io -->
<!DOCTYPE svg PUBLIC "-//W3C//DTD SVG 1.1//EN" "http://www.w3.org/Graphics/SVG/1.1/DTD/svg11.dtd">
<svg version="1.1" xmlns="http://www.w3.org/2000/svg" xmlns:xlink="http://www.w3.org/1999/xlink" width="100" height="100" viewBox="0 0 100 100">
<path d="M37.5 81.2h-6.3v6.3h6.3v-6.3zM56.2 100h6.3v-6.3h-6.3v6.3zM37.5 100h6.3v-6.3h-6.3v6.3zM56.3 81.2h-6.3v6.3h6.3v-6.3zM62.5 0c-13.9 0-25.9 7.7-32.4 18.9-0.7 0-1.3-0.2-2-0.2-15.5 0-28.1 12.6-28.1 28.1 0 15.6 12.6 28.2 28.1 28.2h34.4c20.7 0 37.5-16.8 37.5-37.5s-16.8-37.5-37.5-37.5zM68.7 68.1v0.6h-43.7v-0.3c-10.6-1.5-18.8-10.5-18.8-21.5 0-12.1 9.8-21.9 21.9-21.9 1.9 0 3.7 0.3 5.5 0.7 4.6-11.4 15.8-19.5 28.9-19.5 17.3 0 31.2 14 31.2 31.3 0 15.1-10.7 27.7-25 30.6zM68.7 87.5h6.3v-6.3h-6.3v6.3z"></path>
</svg>
