<?xml version="1.0" encoding="utf-8"?>
<!-- Generated by IcoMoon.io -->
<!DOCTYPE svg PUBLIC "-//W3C//DTD SVG 1.1//EN" "http://www.w3.org/Graphics/SVG/1.1/DTD/svg11.dtd">
<svg version="1.1" xmlns="http://www.w3.org/2000/svg" xmlns:xlink="http://www.w3.org/1999/xlink" width="106" height="100" viewBox="0 0 106 100">
<path d="M9.4 50c-6.9 0-12.5 5.6-12.5 12.5v25c0 6.9 5.6 12.5 12.5 12.5s12.5-5.6 12.5-12.5v-25c0-6.9-5.6-12.5-12.5-12.5zM15.6 87.5c0 3.5-2.8 6.2-6.2 6.2-3.5 0-6.3-2.7-6.3-6.2v-25c0-3.5 2.8-6.3 6.3-6.3 3.4 0 6.2 2.8 6.2 6.3v25zM46.9 0c-6.9 0-12.5 5.6-12.5 12.5v75c0 6.9 5.6 12.5 12.5 12.5s12.5-5.6 12.5-12.5v-75c0-6.9-5.6-12.5-12.5-12.5zM53.1 87.5c0 3.5-2.8 6.2-6.2 6.2-3.5 0-6.3-2.7-6.3-6.2v-75c0-3.5 2.8-6.3 6.3-6.3 3.4 0 6.2 2.8 6.2 6.3v75zM84.4 25c-6.9 0-12.5 5.6-12.5 12.5v50c0 6.9 5.6 12.5 12.5 12.5s12.5-5.6 12.5-12.5v-50c0-6.9-5.6-12.5-12.5-12.5zM90.6 87.5c0 3.5-2.8 6.2-6.2 6.2s-6.3-2.7-6.3-6.2v-50c0-3.5 2.8-6.3 6.3-6.3s6.2 2.8 6.2 6.3v50z"></path>
</svg>
