<?xml version="1.0" encoding="utf-8"?>
<!-- Generated by IcoMoon.io -->
<!DOCTYPE svg PUBLIC "-//W3C//DTD SVG 1.1//EN" "http://www.w3.org/Graphics/SVG/1.1/DTD/svg11.dtd">
<svg version="1.1" xmlns="http://www.w3.org/2000/svg" xmlns:xlink="http://www.w3.org/1999/xlink" width="106" height="100" viewBox="0 0 106 100">
<path d="M9.4 6.2h56.2c3.5 0 6.3 2.8 6.3 6.3h6.2c0-6.9-5.6-12.5-12.5-12.5h-56.2c-6.9 0-12.5 5.6-12.5 12.5v56.2c0 7 5.6 12.5 12.5 12.5v-6.2c-3.5 0-6.3-2.8-6.3-6.3v-43.7h6.3v-6.3h-6.3v-6.2c0-3.5 2.8-6.3 6.3-6.3zM84.4 18.7h-56.3c-6.9 0-12.5 5.6-12.5 12.5v56.3c0 6.9 5.6 12.5 12.5 12.5h56.3c6.9 0 12.5-5.6 12.5-12.5v-56.3c0-6.9-5.6-12.5-12.5-12.5zM90.6 87.5c0 3.5-2.8 6.2-6.2 6.2h-56.3c-3.4 0-6.2-2.7-6.2-6.2v-43.8h68.7v43.8zM90.6 37.5h-68.7v-6.3c0-3.4 2.8-6.2 6.2-6.2h56.3c3.4 0 6.2 2.8 6.2 6.2v6.3z"></path>
</svg>
