<?xml version="1.0" encoding="utf-8"?>
<!-- Generated by IcoMoon.io -->
<!DOCTYPE svg PUBLIC "-//W3C//DTD SVG 1.1//EN" "http://www.w3.org/Graphics/SVG/1.1/DTD/svg11.dtd">
<svg version="1.1" xmlns="http://www.w3.org/2000/svg" xmlns:xlink="http://www.w3.org/1999/xlink" width="106" height="100" viewBox="0 0 106 100">
<path d="M46.9 0c-27.6 0-50 22.4-50 50s22.4 50 50 50c27.6 0 50-22.4 50-50s-22.4-50-50-50zM82.4 24.7c3.9 5.5 6.7 12 7.7 19h-24.6c-0.3-4.8-0.8-9.4-1.5-13.7 7.4-1.2 13.7-3 18.4-5.3zM80.1 21.9h-5.3c-3.3 0.9-7.4 1.6-11.9 2.2-1.6-6.8-3.7-12.5-6.2-16.7 9.3 2.2 17.5 7.4 23.4 14.5zM59.4 50c0 7-0.5 13.4-1.4 19.3-3.5-0.4-7.3-0.6-11.1-0.6-3.9 0-7.6 0.2-11.2 0.6-0.8-5.9-1.3-12.4-1.3-19.3h25zM34.6 43.7c0.1-4.6 0.6-8.9 1.1-13 3.6 0.3 7.3 0.5 11.2 0.5 3.8 0 7.5-0.2 11.1-0.5 0.6 4 1 8.4 1.2 13h-24.6zM46.9 6.2c4.2 0 7.8 7.3 10.1 18.4-3.3 0.2-6.6 0.4-10.1 0.4s-6.9-0.2-10.1-0.4c2.2-11.1 5.9-18.4 10.1-18.4zM37.1 7.4c-2.6 4.2-4.7 9.9-6.2 16.7-4.6-0.6-8.6-1.3-11.9-2.2h-5.4c6-7.1 14.1-12.3 23.5-14.5zM11.4 24.7c4.6 2.3 10.9 4.1 18.3 5.3-0.7 4.3-1.2 8.9-1.4 13.7h-24.6c1-7 3.7-13.5 7.7-19zM11.3 75.1c-5.1-7.1-8.2-15.7-8.2-25.1h25c0 7.1 0.6 13.9 1.6 20-7.4 1.1-13.7 2.9-18.4 5.1zM13.5 78.1h5.1c3.4-0.9 7.6-1.7 12.3-2.2 1.5 6.7 3.6 12.5 6.2 16.7-9.4-2.2-17.6-7.4-23.6-14.5zM46.9 93.7c-4.2 0-7.9-7.2-10.2-18.3 3.3-0.2 6.6-0.4 10.2-0.4 3.5 0 6.9 0.1 10.1 0.4-2.2 11.1-5.9 18.3-10.1 18.3zM56.7 92.6c2.5-4.2 4.6-10 6.2-16.7 4.7 0.5 8.8 1.3 12.3 2.2h5c-6 7.1-14.2 12.3-23.5 14.5zM64 70c1-6.1 1.6-12.9 1.6-20h25c0 9.4-3.1 18-8.1 25.1-4.7-2.2-11.1-4-18.5-5.1z"></path>
</svg>
