<?xml version="1.0" encoding="utf-8"?>
<!-- Generated by IcoMoon.io -->
<!DOCTYPE svg PUBLIC "-//W3C//DTD SVG 1.1//EN" "http://www.w3.org/Graphics/SVG/1.1/DTD/svg11.dtd">
<svg version="1.1" xmlns="http://www.w3.org/2000/svg" xmlns:xlink="http://www.w3.org/1999/xlink" width="106" height="100" viewBox="0 0 106 100">
<path d="M78.1 59.4c-5.5 0-10.3 2.8-13.1 7.1l-34-14.1c0.1-0.8 0.2-1.6 0.2-2.4 0-0.5-0.1-0.9-0.1-1.4l34-15c2.8 4.2 7.6 7 13 7 8.7 0 15.6-7 15.6-15.6s-6.9-15.6-15.6-15.6-15.6 7-15.6 15.6c0 0.9 0.1 1.8 0.3 2.7l-33.5 14.8c-2.7-4.8-7.8-8.1-13.7-8.1-8.6 0-15.6 7-15.6 15.6s7 15.6 15.6 15.6c5.5 0 10.3-2.8 13.1-7.1l34 14.1c-0.1 0.8-0.2 1.6-0.2 2.4 0 8.6 7 15.6 15.6 15.6s15.6-7 15.6-15.6-6.9-15.6-15.6-15.6zM78.1 15.6c5.2 0 9.4 4.2 9.4 9.4s-4.2 9.4-9.4 9.4-9.4-4.2-9.4-9.4 4.2-9.4 9.4-9.4zM15.6 59.4c-5.2 0-9.4-4.2-9.4-9.4s4.2-9.4 9.4-9.4c5.2 0 9.4 4.2 9.4 9.4s-4.2 9.4-9.4 9.4zM78.1 84.4c-5.2 0-9.4-4.2-9.4-9.4s4.2-9.4 9.4-9.4 9.4 4.2 9.4 9.4-4.2 9.4-9.4 9.4z"></path>
</svg>
