<?xml version="1.0" encoding="utf-8"?>
<!-- Generated by IcoMoon.io -->
<!DOCTYPE svg PUBLIC "-//W3C//DTD SVG 1.1//EN" "http://www.w3.org/Graphics/SVG/1.1/DTD/svg11.dtd">
<svg version="1.1" xmlns="http://www.w3.org/2000/svg" xmlns:xlink="http://www.w3.org/1999/xlink" width="106" height="100" viewBox="0 0 106 100">
<path d="M15.6 31.2c-5.2 0-9.4 4.2-9.4 9.4v46.9c0 5.2 4.2 9.4 9.4 9.4s9.4-4.2 9.4-9.4v-46.9c0-5.2-4.2-9.4-9.4-9.4zM18.7 87.5c0 1.7-1.4 3.1-3.1 3.1s-3.1-1.4-3.1-3.1v-46.9c0-1.7 1.4-3.1 3.1-3.1s3.1 1.4 3.1 3.1v46.9zM78.1 53.1c-5.2 0-9.4 4.2-9.4 9.4v25c0 5.2 4.2 9.4 9.4 9.4s9.4-4.2 9.4-9.4v-25c0-5.2-4.2-9.4-9.4-9.4zM81.2 87.5c0 1.7-1.4 3.1-3.1 3.1s-3.1-1.4-3.1-3.1v-25c0-1.7 1.4-3.1 3.1-3.1s3.1 1.4 3.1 3.1v25zM46.9 3.1c-5.2 0-9.4 4.2-9.4 9.4v75c0 5.2 4.2 9.4 9.4 9.4s9.3-4.2 9.3-9.4v-75c0-5.2-4.2-9.4-9.3-9.4zM50 87.5c0 1.7-1.4 3.1-3.1 3.1s-3.2-1.4-3.2-3.1v-75c0-1.7 1.4-3.1 3.2-3.1s3.1 1.4 3.1 3.1v75z"></path>
</svg>
