<?xml version="1.0" encoding="utf-8"?>
<!-- Generated by IcoMoon.io -->
<!DOCTYPE svg PUBLIC "-//W3C//DTD SVG 1.1//EN" "http://www.w3.org/Graphics/SVG/1.1/DTD/svg11.dtd">
<svg version="1.1" xmlns="http://www.w3.org/2000/svg" xmlns:xlink="http://www.w3.org/1999/xlink" width="106" height="100" viewBox="0 0 106 100">
<path d="M96.9 34.4h-6.3v0.3c-3.9-4-9.5-6.6-15.6-6.6-8.2 0-15.2 4.5-19 11.2-2.4-0.9-5.7-1.8-9.2-1.8-3.4 0-6.7 0.9-9.1 1.8-3.8-6.7-10.8-11.2-19-11.2-6.1 0-11.6 2.6-15.6 6.6v-0.3h-6.2v12.5h0.3c-0.2 1-0.3 2-0.3 3.1 0 12.1 9.8 21.9 21.8 21.9 12.1 0 21.9-9.8 21.9-21.9 0-1.8-0.2-3.5-0.6-5.1 2-0.6 4.4-1.2 6.8-1.2 2.5 0 4.9 0.6 7 1.2-0.4 1.6-0.7 3.3-0.7 5.1 0 12.1 9.8 21.9 21.9 21.9s21.9-9.8 21.9-21.9c0-1.1-0.2-2.1-0.3-3.1h0.3v-12.5zM18.7 65.6c-8.6 0-15.6-7-15.6-15.6s7-15.6 15.6-15.6c8.7 0 15.7 7 15.7 15.6s-7 15.6-15.7 15.6zM75 65.6c-8.6 0-15.6-7-15.6-15.6s7-15.6 15.6-15.6 15.6 7 15.6 15.6c0 8.6-7 15.6-15.6 15.6z"></path>
</svg>
