<?xml version="1.0" encoding="utf-8"?>
<!-- Generated by IcoMoon.io -->
<!DOCTYPE svg PUBLIC "-//W3C//DTD SVG 1.1//EN" "http://www.w3.org/Graphics/SVG/1.1/DTD/svg11.dtd">
<svg version="1.1" xmlns="http://www.w3.org/2000/svg" xmlns:xlink="http://www.w3.org/1999/xlink" width="106" height="100" viewBox="0 0 106 100">
<path d="M40.6 43.7h-6.2v12.5h-12.5v6.3h12.5v12.5h6.2v-12.5h12.5v-6.3h-12.5v-12.5zM90.6 0h-62.5c-3.4 0-6.2 2.8-6.2 6.2v6.3h6.2v-3.1c0-1.8 1.4-3.2 3.1-3.2h56.3c1.7 0 3.1 1.4 3.1 3.2v56.2c0 1.7-1.4 3.1-3.1 3.1h-3.1v6.3h6.2c3.5 0 6.3-2.8 6.3-6.3v-62.5c0-3.4-2.8-6.2-6.3-6.2zM71.9 18.7h-68.8c-3.4 0-6.2 2.8-6.2 6.3v68.8c0 3.4 2.8 6.2 6.2 6.2h68.8c3.4 0 6.2-2.8 6.2-6.2v-68.8c0-3.5-2.8-6.3-6.2-6.3zM71.9 90.6c0 1.8-1.4 3.1-3.2 3.1h-62.5c-1.7 0-3.1-1.3-3.1-3.1v-62.5c0-1.7 1.4-3.1 3.1-3.1h62.5c1.8 0 3.2 1.4 3.2 3.1v62.5z"></path>
</svg>
