<?xml version="1.0" encoding="utf-8"?>
<!-- Generated by IcoMoon.io -->
<!DOCTYPE svg PUBLIC "-//W3C//DTD SVG 1.1//EN" "http://www.w3.org/Graphics/SVG/1.1/DTD/svg11.dtd">
<svg version="1.1" xmlns="http://www.w3.org/2000/svg" xmlns:xlink="http://www.w3.org/1999/xlink" width="106" height="100" viewBox="0 0 106 100">
<path d="M87.5 25h-31.3v-12.5h-37.5v-6.3c0-3.4-2.8-6.2-6.2-6.2h-6.3c-3.4 0-6.2 2.8-6.2 6.2v87.5c0 3.5 2.8 6.3 6.2 6.3h6.3c3.4 0 6.2-2.8 6.2-6.3v-25h31.3v12.5h37.5c3.5 0 6.2-2.8 6.2-6.2v-43.8c0-3.4-2.7-6.2-6.2-6.2zM12.5 90.6c0 1.7-1.4 3.1-3.1 3.1-1.8 0-3.2-1.4-3.2-3.1v-81.2c0-1.8 1.4-3.2 3.2-3.2 1.7 0 3.1 1.4 3.1 3.2v81.2zM50 62.5h-31.3v-43.8h31.3v43.8zM87.5 71.9c0 1.7-1.4 3.1-3.1 3.1h-28.2v-43.8h28.2c1.7 0 3.1 1.4 3.1 3.2v37.5z"></path>
</svg>
