<?xml version="1.0" encoding="utf-8"?>
<!-- Generated by IcoMoon.io -->
<!DOCTYPE svg PUBLIC "-//W3C//DTD SVG 1.1//EN" "http://www.w3.org/Graphics/SVG/1.1/DTD/svg11.dtd">
<svg version="1.1" xmlns="http://www.w3.org/2000/svg" xmlns:xlink="http://www.w3.org/1999/xlink" width="106" height="100" viewBox="0 0 106 100">
<path d="M42.4 68l-13.5 13.4c-3.7 3.7-9.7 3.7-13.5 0-3.7-3.7-3.7-9.7 0-13.4l22.4-22.4c-4.7-0.7-9.7 0.7-13.4 4.4l-13.4 13.5c-6.2 6.2-6.2 16.2 0 22.4s16.2 6.2 22.4 0l13.5-13.5c3.6-3.6 5.1-8.6 4.4-13.4l-8.9 9zM82.8 14.1c-6.2-6.2-16.3-6.2-22.5 0l-13.4 13.4c-3.7 3.7-5.1 8.7-4.5 13.5l22.4-22.4c3.8-3.8 9.8-3.8 13.5 0 3.7 3.7 3.7 9.7 0 13.4l-22.4 22.4c4.8 0.7 9.8-0.7 13.4-4.4l13.5-13.5c6.2-6.2 6.2-16.2 0-22.4zM37.9 54.5l4.5 4.5 13.5-13.5-4.5-4.5-13.5 13.5z"></path>
</svg>
