<?xml version="1.0" encoding="utf-8"?>
<!-- Generated by IcoMoon.io -->
<!DOCTYPE svg PUBLIC "-//W3C//DTD SVG 1.1//EN" "http://www.w3.org/Graphics/SVG/1.1/DTD/svg11.dtd">
<svg version="1.1" xmlns="http://www.w3.org/2000/svg" xmlns:xlink="http://www.w3.org/1999/xlink" width="106" height="100" viewBox="0 0 106 100">
<path d="M44.6 71c0.7 0.6 1.5 0.9 2.4 0.9 0-0.1 0-0.1 0-0.1 0.8 0 1.5-0.3 2-0.8 0 0 0.1 0 0.1 0l18.7-21.9c1.3-1.2 1.3-3.2 0-4.5s-3.2-1.2-4.4 0l-13.4 15.7v-47.8c0-1.7-1.4-3.1-3.1-3.1s-3.2 1.4-3.2 3.1v47.8l-13.3-15.7c-1.3-1.2-3.3-1.2-4.5 0-1.2 1.3-1.2 3.3 0 4.5l18.7 21.9zM90.6 59.4c-1.7 0-3.1 1.4-3.1 3.1v21.9h-81.3v-21.9c0-1.7-1.4-3.1-3.1-3.1s-3.1 1.4-3.1 3.1v25c0 1.7 1.4 3.1 3.1 3.1h87.5c1.7 0 3.1-1.4 3.1-3.1v-25c0-1.7-1.4-3.1-3.1-3.1z"></path>
</svg>
