<?xml version="1.0" encoding="utf-8"?>
<!-- Generated by IcoMoon.io -->
<!DOCTYPE svg PUBLIC "-//W3C//DTD SVG 1.1//EN" "http://www.w3.org/Graphics/SVG/1.1/DTD/svg11.dtd">
<svg version="1.1" xmlns="http://www.w3.org/2000/svg" xmlns:xlink="http://www.w3.org/1999/xlink" width="106" height="100" viewBox="0 0 106 100">
<path d="M37.9 81.7l-9.1 9.1c-3.7 3.7-9.9 3.7-13.6 0l-9.1-9.1c-3.8-3.8-3.8-9.9 0-13.6l29.5-29.6c3.8-3.7 9.9-3.7 13.6 0l6.8 6.8c0.7 0.7 1.5 1 2.3 1s1.7-0.3 2.3-1c1.2-1.2 1.2-3.2 0-4.5l-6.8-6.8c-6.3-6.3-16.5-6.3-22.7 0l-29.5 29.5c-6.3 6.3-6.3 16.5 0 22.7l9 9.1c6.3 6.3 16.5 6.3 22.8 0l2.2-2.3 6.8-6.8c1.3-1.2 1.3-3.3 0-4.5-1.2-1.3-3.3-1.3-4.5 0zM92 13.2l-8.3-8.4c-6.4-6.3-17-6.4-23.2-0.3l-2.2 2.3-6.8 6.8c-1.2 1.2-1.2 3.2 0 4.5 0.6 0.6 1.5 0.9 2.3 0.9s1.6-0.3 2.2-0.9l6.9-6.8 2.2-2.2c3.6-3.7 10.2-3.5 14 0.3l8.4 8.3c3.8 3.9 3.9 10.4 0.3 14.1l-20.5 20.4-7.9 8c-3.9 3.9-11.5 4.2-15.1 0.7l-3.8-3.8c-0.1-0.2-0.2-0.3-0.3-0.4v0l-2.3-2.3c-1.3-1.2-3.3-1.2-4.6 0-1.2 1.3-1.2 3.3 0 4.6l2.7 2.6 4.2 4.2c0.1 0.2 0.4 0.3 0.6 0.4 5.9 4.9 15.7 4.7 21.9-0.5l0.2 0.1c0.2-0.2 0.4-0.5 0.6-0.7 0.1-0.1 0.3-0.2 0.4-0.4l28.4-28.4c6.2-6.2 6.1-16.7-0.3-23.1z"></path>
</svg>
