<?xml version="1.0" encoding="utf-8"?>
<!-- Generated by IcoMoon.io -->
<!DOCTYPE svg PUBLIC "-//W3C//DTD SVG 1.1//EN" "http://www.w3.org/Graphics/SVG/1.1/DTD/svg11.dtd">
<svg version="1.1" xmlns="http://www.w3.org/2000/svg" xmlns:xlink="http://www.w3.org/1999/xlink" width="106" height="100" viewBox="0 0 106 100">
<path d="M96.9 62.5v-6.3h-13.2c-0.7-4.4-2.3-8.6-4.5-12.4l11.4-6.9-3.1-5.6-12.1 7.2c-5.7-6.9-13.9-11.5-23.1-12.9l13.3-22.5-5.2-3.1-13.5 22.9-13.6-22.9-5.2 3.1 13.4 22.6c-9.2 1.4-17.4 5.9-23.2 12.8l-12-7.2-3.2 5.6 11.5 6.9c-2.2 3.8-3.8 8-4.6 12.4h-13.1v6.3h12.5c0 4.9 1 9.6 2.7 13.9l-9 5.4 3.2 5.7 8.8-5.3c6.6 10.6 18.3 17.8 31.8 17.8s25.1-7.2 31.7-17.8l8.8 5.3 3.2-5.7-9-5.4c1.7-4.3 2.8-9 2.8-13.9h12.5zM46.9 31.2c10.2 0 19.1 5 24.8 12.5h-49.7c5.7-7.5 14.7-12.5 24.9-12.5zM46.9 93.7c-17.3 0-31.3-13.9-31.3-31.2 0-4.5 1-8.7 2.7-12.5h57.2c1.7 3.8 2.6 8 2.6 12.5 0 17.3-14 31.2-31.2 31.2z"></path>
</svg>
