<?xml version="1.0" encoding="utf-8"?>
<!-- Generated by IcoMoon.io -->
<!DOCTYPE svg PUBLIC "-//W3C//DTD SVG 1.1//EN" "http://www.w3.org/Graphics/SVG/1.1/DTD/svg11.dtd">
<svg version="1.1" xmlns="http://www.w3.org/2000/svg" xmlns:xlink="http://www.w3.org/1999/xlink" width="106" height="100" viewBox="0 0 106 100">
<path d="M75 62.5c-4.2 0-7.9 2.1-10.1 5.2l-34-15c0.2-0.9 0.3-1.8 0.3-2.7 0-0.5 0-0.9-0.1-1.4l34.6-15.3c2.3 2.5 5.6 4.2 9.3 4.2 6.9 0 12.5-5.6 12.5-12.5s-5.6-12.5-12.5-12.5c-6.9 0-12.5 5.6-12.5 12.5 0 0.9 0.1 1.8 0.3 2.7l-33.9 15c-2.3-3.1-6-5.2-10.2-5.2-6.9 0-12.5 5.6-12.5 12.5s5.6 12.5 12.5 12.5c3.8 0 7-1.7 9.3-4.2l34.6 15.3c0 0.5-0.1 0.9-0.1 1.4 0 6.9 5.6 12.5 12.5 12.5s12.5-5.6 12.5-12.5-5.6-12.5-12.5-12.5zM68.7 18.7h12.5v12.5h-12.5v-12.5zM25 56.3h-12.5v-12.5h12.5v12.5zM81.2 81.3h-12.5v-12.5h12.5v12.5z"></path>
</svg>
