<?xml version="1.0" encoding="utf-8"?>
<!-- Generated by IcoMoon.io -->
<!DOCTYPE svg PUBLIC "-//W3C//DTD SVG 1.1//EN" "http://www.w3.org/Graphics/SVG/1.1/DTD/svg11.dtd">
<svg version="1.1" xmlns="http://www.w3.org/2000/svg" xmlns:xlink="http://www.w3.org/1999/xlink" width="106" height="100" viewBox="0 0 106 100">
<path d="M9.4 31.2h43.7v-6.2h-43.7v6.2zM78.1 0h-50c-5.5 0-10.4 2.4-13.9 6.2h63.9c6.9 0 12.5 5.6 12.5 12.5v50c0 0 0 0 0 0v13.9c3.8-3.4 6.3-8.3 6.3-13.9v-50c0-10.3-8.4-18.7-18.8-18.7zM59.4 31.2h6.2v-6.2h-6.2v6.2zM65.6 12.5h-50c-10.3 0-18.7 8.4-18.7 18.7v50c0 10.4 8.4 18.8 18.7 18.8h50c10.4 0 18.8-8.4 18.8-18.8v-50c0-10.3-8.4-18.7-18.8-18.7zM78.1 81.2c0 7-5.6 12.5-12.5 12.5h-50c-6.9 0-12.5-5.5-12.5-12.5v-37.5h75v37.5zM78.1 37.5h-75v-6.3c0-6.9 5.6-12.5 12.5-12.5h50c6.9 0 12.5 5.6 12.5 12.5v6.3z"></path>
</svg>
