<?xml version="1.0" encoding="utf-8"?>
<!-- Generated by IcoMoon.io -->
<!DOCTYPE svg PUBLIC "-//W3C//DTD SVG 1.1//EN" "http://www.w3.org/Graphics/SVG/1.1/DTD/svg11.dtd">
<svg version="1.1" xmlns="http://www.w3.org/2000/svg" xmlns:xlink="http://www.w3.org/1999/xlink" width="106" height="100" viewBox="0 0 106 100">
<path d="M46.9 0c-27.6 0-50 22.4-50 50s22.4 50 50 50c27.6 0 50-22.4 50-50s-22.4-50-50-50zM90.1 43.7h-24.6c-0.2-4.3-0.7-8.5-1.3-12.5h22.1c1.8 3.9 3.1 8.1 3.8 12.5zM82.6 25h-19.5c-1.6-7.2-3.8-13.2-6.4-17.6 10.7 2.5 19.8 8.9 25.9 17.6zM59.4 50c0 6.7-0.5 13-1.3 18.7h-22.5c-0.8-5.7-1.2-12-1.2-18.7h25zM34.6 43.7c0.1-4.4 0.5-8.5 1.1-12.5h22.4c0.5 4 0.9 8.1 1.1 12.5h-24.6zM46.9 6.2c4.2 0 7.9 7.5 10.1 18.8h-20.3c2.3-11.3 5.9-18.8 10.2-18.8zM37.1 7.4c-2.7 4.4-4.9 10.4-6.4 17.6h-19.6c6.1-8.7 15.3-15.1 26-17.6zM7.5 31.2h22c-0.6 4-1 8.2-1.2 12.5h-24.6c0.6-4.4 1.9-8.6 3.8-12.5zM3.1 50c0 0 0 0 0 0s0 0 0 0v0h25c0 6.6 0.5 13 1.4 18.7h-22c-2.7-5.6-4.4-12-4.4-18.7zM11.2 75h19.4c1.6 7.2 3.8 13.2 6.5 17.6-10.7-2.5-19.8-8.9-25.9-17.6zM46.9 93.7c-4.3 0-8-7.4-10.3-18.7h20.5c-2.2 11.3-6 18.7-10.2 18.7zM56.7 92.6c2.6-4.4 4.8-10.4 6.4-17.6h19.5c-6.2 8.7-15.2 15.1-25.9 17.6zM64.2 68.7c0.9-5.7 1.4-12.1 1.4-18.7h25c0 6.7-1.6 13.1-4.4 18.7h-22z"></path>
</svg>
