<?xml version="1.0" encoding="utf-8"?>
<!-- Generated by IcoMoon.io -->
<!DOCTYPE svg PUBLIC "-//W3C//DTD SVG 1.1//EN" "http://www.w3.org/Graphics/SVG/1.1/DTD/svg11.dtd">
<svg version="1.1" xmlns="http://www.w3.org/2000/svg" xmlns:xlink="http://www.w3.org/1999/xlink" width="106" height="100" viewBox="0 0 106 100">
<path d="M12.5 21.9h6.2v-6.3h-6.2v6.3zM62.5 59.4h-31.3v6.2h31.3v-6.2zM37.5 21.9h6.2v-6.3h-6.2v6.3zM90.6 3.1h-87.5c-1.7 0-3.1 1.4-3.1 3.1v87.5c0 1.8 1.4 3.2 3.1 3.2h87.5c1.7 0 3.1-1.4 3.1-3.2v-87.5c0-1.7-1.4-3.1-3.1-3.1zM87.5 87.5c0 1.7-1.4 3.1-3.1 3.1h-75c-1.8 0-3.2-1.4-3.2-3.1v-53.1h81.3v53.1zM87.5 28.1h-81.3v-15.6c0-1.7 1.4-3.1 3.2-3.1h75c1.7 0 3.1 1.4 3.1 3.1v15.6zM25 21.9h6.2v-6.3h-6.2v6.3z"></path>
</svg>
