<?xml version="1.0" encoding="utf-8"?>
<!-- Generated by IcoMoon.io -->
<!DOCTYPE svg PUBLIC "-//W3C//DTD SVG 1.1//EN" "http://www.w3.org/Graphics/SVG/1.1/DTD/svg11.dtd">
<svg version="1.1" xmlns="http://www.w3.org/2000/svg" xmlns:xlink="http://www.w3.org/1999/xlink" width="100" height="100" viewBox="0 0 100 100">
<path d="M93.7 3.1c-12.9 5.7-27 10.1-32 11.6-3.7-1.3-7.5-2.2-11.5-2.2-4.3 0-8.3 0.9-12.1 2.4-5.5-1.6-19.2-5.9-31.8-11.3 0-0.1-0.8 5.4 0.1 8.9 2.3 8.7 7.3 22.5 8.9 26.7-1.7 4.8-2.7 10-2.7 15.5 0 23.3 16.8 42.2 37.6 42.2 20.7 0 37.5-18.9 37.5-42.2 0-5.6-1-11-2.8-15.8 1.7-4.7 6.4-18.2 8.7-26.8 0.9-3.5 0.1-9.1 0.1-9zM12.7 12.5l19.3 5.5c-5.6 3.5-10.3 8.4-13.6 14.4l-5.7-19.9zM50.2 90.6c-17.3 0-31.3-16.1-31.3-35.9 0-19.9 14-36 31.3-36 17.2 0 31.2 16.1 31.2 36 0 19.8-14 35.9-31.2 35.9zM81.8 32.1c-3.4-6-8.2-10.9-13.8-14.3l19.4-5.7-5.6 20zM37.9 60.9c0 0 4.3 12.5 12.3 12.5s12.3-12.5 12.3-12.5-6.1-3.1-12.3-3.1c-6.1 0-12.3 3.1-12.3 3.1z"></path>
</svg>
