<?xml version="1.0" encoding="utf-8"?>
<!-- Generated by IcoMoon.io -->
<!DOCTYPE svg PUBLIC "-//W3C//DTD SVG 1.1//EN" "http://www.w3.org/Graphics/SVG/1.1/DTD/svg11.dtd">
<svg version="1.1" xmlns="http://www.w3.org/2000/svg" xmlns:xlink="http://www.w3.org/1999/xlink" width="100" height="100" viewBox="0 0 100 100">
<path d="M94.7 1.7c-2.9 0-22.8-0.5-34.9 13.6-7-1.3-11-1.4-11-1.4s-4.9 0.4-11.2 1.5c-12.2-14.2-26.2-13.7-29.1-13.7-2.7 2.8 1.3 19.2 5 28-5.1 6.2-8.7 12.3-8.7 12.3s3.1 18.7 19 37.5c6.2 9.2 17.3 17.2 21.7 18.7h6.3c4.3-1.5 15.7-9.5 21.8-18.7 15.8-21.9 18.7-37.5 18.7-37.5s-3.5-6.1-8.6-12.3c3.7-8.9 13.7-25.3 11-28zM88.6 7.9c0.7 5.9-5.3 11.6-8.4 17.9-3.9-4.1-8.3-7.7-12.8-8.8 0 0-0.1 0-0.2-0.1 3.5-6.2 21.4-12.1 21.4-9zM14.6 7.9c0-3.1 12.1 2.8 15.5 9.1 0 0-0.1 0-0.1 0-4.5 1.1-9 4.7-13 8.8-3-6.2-3.1-12-2.4-17.9zM86.1 43.1c0.4 8.2-8.7 19.3-17.7 32.9-4.8 7.3-13.1 14.5-16.6 16h-6.3c-3.6-1.5-11.6-8.7-16.5-16-10.3-15.4-17.9-24.7-18-34 0.7-1.8 12.9-17 20.6-18.9 7.9-2 13.5-3 17-3 3.6 0 7.8 0.6 17.3 2.9 7.6 2 19.7 18.4 20.2 20.1zM48.6 82.6l12.6-12.5h-25.1l12.5 12.5z"></path>
</svg>
