<?xml version="1.0" encoding="utf-8"?>
<!-- Generated by IcoMoon.io -->
<!DOCTYPE svg PUBLIC "-//W3C//DTD SVG 1.1//EN" "http://www.w3.org/Graphics/SVG/1.1/DTD/svg11.dtd">
<svg version="1.1" xmlns="http://www.w3.org/2000/svg" xmlns:xlink="http://www.w3.org/1999/xlink" width="100" height="100" viewBox="0 0 100 100">
<path d="M100 31.2c0-10.3-8.4-18.7-18.8-18.7-3.8 0-7.4 1.2-10.5 3.2-5.9-2-13-3.2-20.7-3.2s-14.8 1.2-20.8 3.2c-3-2-6.6-3.2-10.5-3.2-10.3 0-18.7 8.4-18.7 18.7 0 5.5 2.4 10.4 6.1 13.8-0.5 7-1.2 42.5 43.9 42.5s44.4-35.5 43.9-42.5c3.7-3.4 6.1-8.3 6.1-13.8zM6.2 31.2c0-6.9 5.6-12.5 12.5-12.5s12.5 5.6 12.5 12.5-5.6 12.5-12.5 12.5-12.5-5.6-12.5-12.5zM50 81.2c-18.1 0-27-5.3-31.4-11.6 7.1 0.9 19.2 2.3 31.4 2.3s24.3-1.4 31.4-2.3c-4.4 6.3-13.3 11.6-31.4 11.6zM84.4 63c-6 0.8-20.2 2.6-34.4 2.6-14.3 0-28.4-1.8-34.4-2.6-1.8-6.9 0-13 0-13v-0.3c1 0.1 2.1 0.3 3.1 0.3 10.4 0 18.8-8.4 18.8-18.8 0-4-1.3-7.6-3.4-10.7 4.6-1.1 10.1-1.8 15.9-1.8s11.3 0.7 15.9 1.8c-2.1 3.1-3.4 6.7-3.4 10.7 0 10.4 8.4 18.8 18.7 18.8 1.1 0 2.1-0.1 3.2-0.3v0.3c0 0 1.8 6.1 0 13zM81.2 43.7c-6.9 0-12.5-5.6-12.5-12.5s5.6-12.5 12.5-12.5c6.9 0 12.5 5.6 12.5 12.5s-5.6 12.5-12.5 12.5z"></path>
</svg>
