<?xml version="1.0" encoding="utf-8"?>
<!-- Generated by IcoMoon.io -->
<!DOCTYPE svg PUBLIC "-//W3C//DTD SVG 1.1//EN" "http://www.w3.org/Graphics/SVG/1.1/DTD/svg11.dtd">
<svg version="1.1" xmlns="http://www.w3.org/2000/svg" xmlns:xlink="http://www.w3.org/1999/xlink" width="100" height="100" viewBox="0 0 100 100">
<path d="M88.5 40.5c11.6-14.7 0.2-40.5 0.2-40.5-12.2 4.5-20.4 15.5-24 21.3-4.6-1.6-9.5-2.6-14.7-2.6s-10.1 1-14.7 2.6c-3.6-5.8-11.8-16.8-24-21.3 0 0-11.4 25.8 0.2 40.5-3.3 5.6-5.3 12-5.3 18.9 0 22.4 19.6 40.6 43.8 40.6s43.7-18.2 43.7-40.6c0-6.9-2-13.3-5.2-18.9zM85.2 8.7c2 7 4.1 18.5-0.4 26.2-3.7-4.4-8.3-8.1-13.7-10.9l-0.5-0.4c2.8-4.2 7.8-10.6 14.6-14.9zM14.8 8.7c6.8 4.3 11.8 10.7 14.6 14.9l-0.6 0.4c-5.3 2.8-9.9 6.5-13.6 10.9-4.6-7.7-2.4-19.2-0.4-26.2zM50 93.7c-20.7 0-37.5-15.4-37.5-34.3 0-19 16.8-34.4 37.5-34.4s37.5 15.4 37.5 34.4c0 18.9-16.8 34.3-37.5 34.3zM50 50c-13.8 0-25 8.4-25 18.7 0 10.4 11.2 18.8 25 18.8s25-8.4 25-18.8c0-10.3-11.2-18.7-25-18.7zM50 81.2c-10.4 0-18.8-5.6-18.8-12.5s8.4-12.5 18.8-12.5c10.3 0 18.7 5.6 18.7 12.5s-8.4 12.5-18.7 12.5z"></path>
</svg>
