<?xml version="1.0" encoding="utf-8"?>
<!-- Generated by IcoMoon.io -->
<!DOCTYPE svg PUBLIC "-//W3C//DTD SVG 1.1//EN" "http://www.w3.org/Graphics/SVG/1.1/DTD/svg11.dtd">
<svg version="1.1" xmlns="http://www.w3.org/2000/svg" xmlns:xlink="http://www.w3.org/1999/xlink" width="100" height="100" viewBox="0 0 100 100">
<path d="M50 37.5c-13.8 0-25 11.2-25 25s11.2 25 25 25c13.8 0 25-11.2 25-25s-11.2-25-25-25zM50 43.7c10.4 0 18.8 8.4 18.8 18.8l-18.8-6.3-18.7 6.3c0-10.4 8.4-18.8 18.7-18.8zM50 81.2c-8.2 0-15.2-5.4-17.7-12.8l17.7-5.9 17.7 5.9c-2.4 7.4-9.4 12.8-17.7 12.8zM59.1 8.1c-0.6-4.6-4.3-8.1-9.1-8.1-4.7 0-8.4 3.5-9.1 8.1-17.1 6.5-31.6 29.8-31.6 49.7 0 23.3 20 42.2 40.7 42.2s40.7-18.9 40.7-42.2c0-19.8-14.5-43.2-31.6-49.7zM46.9 9.4c0-1.8 1.4-3.2 3.1-3.2s3.2 1.4 3.2 3.2v12.5c0 1.7-1.5 3.1-3.2 3.1s-3.1-1.4-3.1-3.1v-12.5zM50 93.7c-17.3 0-34.4-16-34.4-35.9 0-16.2 11.4-36.2 25.1-42.9v7c0 5.1 4.2 9.3 9.3 9.3 5.2 0 9.4-4.2 9.4-9.3v-7c13.6 6.8 25 26.7 25 42.9 0 19.9-17.1 35.9-34.4 35.9z"></path>
</svg>
