<?xml version="1.0" encoding="utf-8"?>
<!-- Generated by IcoMoon.io -->
<!DOCTYPE svg PUBLIC "-//W3C//DTD SVG 1.1//EN" "http://www.w3.org/Graphics/SVG/1.1/DTD/svg11.dtd">
<svg version="1.1" xmlns="http://www.w3.org/2000/svg" xmlns:xlink="http://www.w3.org/1999/xlink" width="100" height="100" viewBox="0 0 100 100">
<path d="M96.9 3.1c-10.7 4.6-23.3 8.5-30.8 10.5-5-2.7-10.5-4.2-15.9-4.2-5.7 0-11.2 1.6-16.4 4.5-7.6-2.1-20.1-5.8-30.7-10.3 0.1-0.1-0.7 5.4 0.2 8.9 1.9 7.2 7.2 18 10.3 23.9-2.6 5.7-4.1 11.9-4.1 18.3 0 23.3 19.9 42.2 40.7 42.2 20.7 0 40.6-18.9 40.6-42.2 0-6.5-1.5-12.8-4.2-18.6 3.1-6 8.2-16.7 10.1-24 0.9-3.5 0.1-9.1 0.2-9zM9.6 12.5l19 4.7c-4.5 3.4-8.4 7.8-11.6 12.7l-7.4-17.4zM50.2 90.6c-7.6 0-15.1-3.2-21.2-8.4l21.2-9.2 21.1 9.2c-6.1 5.2-13.6 8.4-21.1 8.4zM76.1 77.3l-22.8-9.9v-7.2c6-2.6 9.2-11.8 9.2-11.8s-6.1-3.1-12.3-3.1c-6.1 0-12.3 3.1-12.3 3.1s3.2 9.2 9.2 11.8v7.2l-22.9 10c-5.1-6.3-8.5-14.1-8.5-22.7 0-19.9 17.2-39.1 34.5-39.1 17.2 0 34.4 19.2 34.4 39.1 0 8.6-3.4 16.4-8.5 22.6zM83.1 29.7c-3.2-5-7.2-9.3-11.7-12.7l19.1-4.9-7.4 17.6z"></path>
</svg>
