<?xml version="1.0" encoding="utf-8"?>
<!-- Generated by IcoMoon.io -->
<!DOCTYPE svg PUBLIC "-//W3C//DTD SVG 1.1//EN" "http://www.w3.org/Graphics/SVG/1.1/DTD/svg11.dtd">
<svg version="1.1" xmlns="http://www.w3.org/2000/svg" xmlns:xlink="http://www.w3.org/1999/xlink" width="100" height="100" viewBox="0 0 100 100">
<path d="M31.2 53.1c-6.9 0-12.5 5.6-12.5 12.5s5.6 12.5 12.5 12.5 12.5-5.6 12.5-12.5-5.5-12.5-12.5-12.5zM31.2 71.9c-3.4 0-6.2-2.8-6.2-6.3s2.8-6.2 6.2-6.2 6.3 2.8 6.3 6.2-2.8 6.3-6.3 6.3zM81.2 41.2v-19.3h9.4c1.7 0 3.1-1.4 3.1-3.2 0-1.7-1.4-3.1-3.1-3.1h-9.4c0-6.9-5.5-12.5-12.5-12.5h-37.5c-6.9 0-12.5 5.6-12.5 12.5h-9.3c-1.8 0-3.2 1.4-3.2 3.1 0 1.8 1.4 3.2 3.2 3.2h9.3v19.3c-11.4 5.8-18.7 14.6-18.7 24.4 0 17.3 22.4 31.3 50 31.3s50-14 50-31.3c0-9.8-7.3-18.6-18.8-24.4zM25 15.6c0-3.4 2.8-6.2 6.2-6.2h37.5c3.5 0 6.3 2.8 6.3 6.2v23c-3.9-1.4-8.1-2.5-12.5-3.2v-10.4c0-1.7-1.4-3.1-3.1-3.1s-3.2 1.4-3.2 3.1v9.6c-2-0.1-4.1-0.2-6.2-0.2s-4.2 0.1-6.3 0.2v-9.6c0-1.7-1.4-3.1-3.1-3.1s-3.1 1.4-3.1 3.1v10.4c-4.4 0.7-8.6 1.8-12.5 3.2v-23zM50 90.6c-24.2 0-43.8-11.2-43.8-25s19.6-25 43.8-25c24.2 0 43.7 11.2 43.7 25s-19.5 25-43.7 25zM68.7 53.1c-6.9 0-12.5 5.6-12.5 12.5s5.6 12.5 12.5 12.5 12.5-5.6 12.5-12.5-5.5-12.5-12.5-12.5zM68.7 71.9c-3.4 0-6.2-2.8-6.2-6.3s2.8-6.2 6.2-6.2 6.3 2.8 6.3 6.2-2.8 6.3-6.3 6.3z"></path>
</svg>
