<?xml version="1.0" encoding="utf-8"?>
<!-- Generated by IcoMoon.io -->
<!DOCTYPE svg PUBLIC "-//W3C//DTD SVG 1.1//EN" "http://www.w3.org/Graphics/SVG/1.1/DTD/svg11.dtd">
<svg version="1.1" xmlns="http://www.w3.org/2000/svg" xmlns:xlink="http://www.w3.org/1999/xlink" width="100" height="100" viewBox="0 0 100 100">
<path d="M78.1 0c-8.8 0-16.4 5.3-19.9 12.9-3-0.3-5.8-0.4-7.8-0.4-2.2 0-5.3 0.1-8.6 0.4-3.4-7.6-11-12.9-19.9-12.9-12.1 0-21.9 9.8-21.9 21.9 0 11.4 8.8 20.7 20 21.6 2.5 9.7 8.1 15.3 11.3 24.9 1.3 4 4.2 9.2 7.4 13.8-0.7 1.6-1.2 3.4-1.2 5.3 0 6.9 5.6 12.5 12.5 12.5s12.5-5.6 12.5-12.5c0-1.5-0.3-3-0.8-4.3 3.5-4.8 6.7-10.3 8.1-14.7 2.6-7.8 8.1-10.8 10.2-20.9l0.4-4.1c11-1.1 19.6-10.3 19.6-21.6 0-12.1-9.8-21.9-21.9-21.9zM22.9 23.6c-2.1 3.3-4.4 7-4 13.6-7.2-1.4-12.7-7.7-12.7-15.3 0-8.7 7-15.7 15.7-15.7 5.7 0 10.6 3.2 13.4 7.7-4.8 1.1-9 2.9-10.4 6-0.5 1.3-1.2 2.4-2 3.7zM50 93.7c-3.5 0-6.3-2.7-6.3-6.2s2.8-6.3 6.3-6.3c3.5 0 6.2 2.8 6.2 6.3s-2.7 6.2-6.2 6.2zM74.4 41.1l-0.5 2.4c-1.4 7.1-7.5 14.1-11 25.1-1 3-3 6.3-5.2 9.1-2.2-1.7-4.8-2.7-7.7-2.7s-5.5 1-7.6 2.6c-2-2.6-3.9-5.8-5-9.1-2.7-8.1-8.7-12.8-11.8-27.4-1.6-7.3 0.2-10.2 2.4-13.8 0.8-1.4 1.6-2.7 2.3-4.4 1-2.2 10.5-4.2 20-4.2 9.3 0 18.6 2 19.5 4.2 0.7 1.6 1.5 3 2.3 4.3 2.1 3.7 3.9 6.5 2.3 13.9zM81.2 37.2c0.3-6.6-1.9-10.3-3.9-13.6-0.8-1.2-1.5-2.4-2-3.6-1.4-3.3-5.7-5.1-10.5-6.2 2.7-4.5 7.6-7.6 13.3-7.6 8.7 0 15.6 7 15.6 15.7 0 7.5-5.3 13.9-12.5 15.3z"></path>
</svg>
