<?xml version="1.0" encoding="utf-8"?>
<!-- Generated by IcoMoon.io -->
<!DOCTYPE svg PUBLIC "-//W3C//DTD SVG 1.1//EN" "http://www.w3.org/Graphics/SVG/1.1/DTD/svg11.dtd">
<svg version="1.1" xmlns="http://www.w3.org/2000/svg" xmlns:xlink="http://www.w3.org/1999/xlink" width="100" height="100" viewBox="0 0 100 100">
<path d="M50 0c-20.7 0-31.3 8.4-31.3 18.7 0 0 0 0 0 0v62.5c0 10.4 10.6 18.8 31.3 18.8s31.2-8.4 31.2-18.8v-62.5c0 0 0 0 0 0 0-10.3-10.5-18.7-31.2-18.7zM75 81.2c0 7-7.7 12.5-25 12.5s-25-5.5-25-12.5v-50.5c5.2 4.1 13.4 6.8 25 6.8s19.8-2.7 25-6.8v50.5zM50 31.2c-17.3 0-25-5.6-25-12.5s7.7-12.5 25-12.5 25 5.6 25 12.5c0 6.9-7.7 12.5-25 12.5z"></path>
</svg>
