<?xml version="1.0" encoding="utf-8"?>
<!-- Generated by IcoMoon.io -->
<!DOCTYPE svg PUBLIC "-//W3C//DTD SVG 1.1//EN" "http://www.w3.org/Graphics/SVG/1.1/DTD/svg11.dtd">
<svg version="1.1" xmlns="http://www.w3.org/2000/svg" xmlns:xlink="http://www.w3.org/1999/xlink" width="100" height="100" viewBox="0 0 100 100">
<path d="M62.5 62.5h-25v18.7h25v-18.7zM56.2 75h-12.5v-6.3h12.5v6.3zM81.2 25h-0.7c-2.9-14.2-15.4-25-30.5-25s-27.6 10.8-30.5 25h-0.8c-3.4 0-6.2 3.2-6.2 7.1v10.8c0 3.9 2.8 7.1 6.2 7.1h0.8l5.5 43.8c0 3.4 2.8 6.2 6.2 6.2h37.5c3.5 0 6.3-2.8 6.3-6.2l5.5-43.8h0.7c3.5 0 6.3-3.2 6.3-7.1v-10.8c0-3.9-2.8-7.1-6.3-7.1zM50 6.2c11.6 0 21.3 8 24.1 18.8h-48.2c2.8-10.8 12.5-18.8 24.1-18.8zM68.7 90.6c0 1.7-1.4 3.1-3.1 3.1h-31.2c-1.8 0-3.2-1.4-3.2-3.1l-5.8-40.6h49.1l-5.8 40.6zM81.2 39.6c0 2.3-1.4 4.1-3.1 4.1h-56.2c-1.8 0-3.2-1.8-3.2-4.1v-4.2c0-2.3 1.4-4.2 3.2-4.2h56.2c1.7 0 3.1 1.9 3.1 4.2v4.2z"></path>
</svg>
