<?xml version="1.0" encoding="utf-8"?>
<!-- Generated by IcoMoon.io -->
<!DOCTYPE svg PUBLIC "-//W3C//DTD SVG 1.1//EN" "http://www.w3.org/Graphics/SVG/1.1/DTD/svg11.dtd">
<svg version="1.1" xmlns="http://www.w3.org/2000/svg" xmlns:xlink="http://www.w3.org/1999/xlink" width="100" height="100" viewBox="0 0 100 100">
<path d="M78.1 84.4h-75c-1.7 0-3.1 1.4-3.1 3.1s1.4 3.1 3.1 3.1h75c1.7 0 3.1-1.4 3.1-3.1s-1.4-3.1-3.1-3.1zM81.2 15.9v-6.5h-81.2v37.5c0 17.2 14 31.2 31.2 31.2h18.8c12.8 0 23.8-7.7 28.7-18.8 11.8-0.3 21.3-9.9 21.3-21.8 0-11-8.2-20-18.8-21.6zM75 46.9c0 13.8-11.2 25-25 25h-18.8c-13.8 0-25-11.2-25-25v-31.3h68.8v31.3zM80.7 52.9c0.3-2 0.5-4 0.5-6v-24.7c7.2 1.4 12.5 7.7 12.5 15.3 0 7.8-5.6 14.1-13 15.4z"></path>
</svg>
