<?xml version="1.0" encoding="utf-8"?>
<!-- Generated by IcoMoon.io -->
<!DOCTYPE svg PUBLIC "-//W3C//DTD SVG 1.1//EN" "http://www.w3.org/Graphics/SVG/1.1/DTD/svg11.dtd">
<svg version="1.1" xmlns="http://www.w3.org/2000/svg" xmlns:xlink="http://www.w3.org/1999/xlink" width="100" height="100" viewBox="0 0 100 100">
<path d="M15.6 0v6.2c0 0 0 2.7 0 9.4 0 24.5 13.8 44.5 31.3 46.7v31.4h-12.5c-1.8 0-3.2 1.4-3.2 3.2s1.4 3.1 3.2 3.1h31.2c1.7 0 3.1-1.4 3.1-3.1s-1.4-3.2-3.1-3.2h-12.5v-31.4c17.5-2.2 31.3-22.2 31.3-46.7 0-3.6 0-9.4 0-9.4v-6.2h-68.8zM50 56.6c-12.3 0-22.4-11.1-26.3-26.6 4.5-2.8 16.4-8.7 26.3 1.2 11.4 11.4 20.1 4.7 26.3-1.3-3.9 15.6-14 26.7-26.3 26.7zM78.1 15.6c0 2.3-0.2 4.5-0.4 6.7-6.3 6.2-15.5 14.9-27.7 2.7-11-11-24.3-2.7-27.4-0.5-0.5-2.9-0.7-5.8-0.7-8.9 0-3.2-0.2-6.3 0.3-9.4h55.6c0.5 3.1 0.3 6.2 0.3 9.4z"></path>
</svg>
