<?xml version="1.0" encoding="utf-8"?>
<!-- Generated by IcoMoon.io -->
<!DOCTYPE svg PUBLIC "-//W3C//DTD SVG 1.1//EN" "http://www.w3.org/Graphics/SVG/1.1/DTD/svg11.dtd">
<svg version="1.1" xmlns="http://www.w3.org/2000/svg" xmlns:xlink="http://www.w3.org/1999/xlink" width="100" height="100" viewBox="0 0 100 100">
<path d="M90.6 12.5h-53.6l-6.8-12.5-5.2 3.2 5.1 9.3h-20.7c-1.8 0-3.2 1.4-3.2 3.1v18.7c0 1.8 1.4 3.2 3.2 3.2h9.9l5.7 62.5h50l5.7-62.5h9.9c1.7 0 3.1-1.4 3.1-3.2v-18.7c0-1.7-1.4-3.1-3.1-3.1zM12.5 31.2v-12.5h21l4 7.5v5h-25zM68.7 93.7h-37.5l-5.6-56.2h11.9v43.7h6.2v-43.7h30.7l-5.7 56.2zM87.5 31.2h-43.8v-6.2h-0.1l0.1-0.1-3.3-6.2h47.1v12.5z"></path>
</svg>
