<?xml version="1.0" encoding="utf-8"?>
<!-- Generated by IcoMoon.io -->
<!DOCTYPE svg PUBLIC "-//W3C//DTD SVG 1.1//EN" "http://www.w3.org/Graphics/SVG/1.1/DTD/svg11.dtd">
<svg version="1.1" xmlns="http://www.w3.org/2000/svg" xmlns:xlink="http://www.w3.org/1999/xlink" width="100" height="100" viewBox="0 0 100 100">
<path d="M62.5 37.5v-18.8c3.5 0 6.2-4.2 6.2-9.3 0-5.2-2.7-9.4-6.2-9.4h-25c-3.5 0-6.3 4.2-6.3 9.4 0 5.1 2.8 9.3 6.3 9.3v0 0 18.8c0 0-12.5 3.1-12.5 6.2 0 1 0 6 0 12.5v1.4c0 14.9 0 36.1 0 36.1h0.3c-0.2 0.5-0.3 1.1-0.3 1.6 0 2.6 2.1 4.7 4.7 4.7h40.6c2.6 0 4.7-2.1 4.7-4.7 0-0.5-0.1-1.1-0.3-1.6h0.3c0 0 0-5.3 0-12.5v-6.2c0-4.1 0-8.4 0-12.5v-6.3c0-6.5 0-11.5 0-12.5 0-3.1-12.5-6.2-12.5-6.2zM40.6 6.2h18.8c1.7 0 3.1 1.4 3.1 3.2s-1.4 3.1-3.1 3.1h-18.8c-1.7 0-3.1-1.4-3.1-3.1s1.4-3.2 3.1-3.2zM68.7 90.6c0 1.8-1.4 3.1-3.1 3.1h-31.2c-1.8 0-3.2-1.3-3.2-3.1v-6.2c0 0 0-1.3 0-3.1h37.5v9.3zM68.7 75h-37.5c0-3.9 0-8.3 0-12.5h37.5c0 4.2 0 8.6 0 12.5zM68.7 56.3h-37.5c0-3.3 0-5.6 0-6.3 0-6.3 12.5-6.3 12.5-6.3v-25h12.5v25c0 0 12.5 0 12.5 6.3 0 0.7 0 3.1 0 6.3z"></path>
</svg>
