<?xml version="1.0" encoding="utf-8"?>
<!-- Generated by IcoMoon.io -->
<!DOCTYPE svg PUBLIC "-//W3C//DTD SVG 1.1//EN" "http://www.w3.org/Graphics/SVG/1.1/DTD/svg11.dtd">
<svg version="1.1" xmlns="http://www.w3.org/2000/svg" xmlns:xlink="http://www.w3.org/1999/xlink" width="100" height="100" viewBox="0 0 100 100">
<path d="M81.2 28.1c0-7.7-8.4-14.1-25-15.3v-6.6h18.8v-6.2h-25v12.5c-20.7 0-31.3 7-31.3 15.6 0 0.1 0.1 0.3 0.1 0.4h-0.1v52.7c0 10.4 10.6 18.8 31.3 18.8s31.2-8.4 31.2-18.8v-52.9c0 0 0-0.1 0-0.2zM75 81.2c0 6.9-7.7 12.5-25 12.5s-25-5.6-25-12.5v-43.1c5.2 3.4 13.4 5.6 25 5.6s19.8-2.2 25-5.6v43.1zM50 37.5c-17.3 0-25-4.2-25-9.4s7.7-9.4 25-9.4v12.5h6.2v-12.2c12.9 0.9 18.8 4.6 18.8 9.1 0 5.2-7.7 9.4-25 9.4z"></path>
</svg>
