<?xml version="1.0" encoding="utf-8"?>
<!-- Generated by IcoMoon.io -->
<!DOCTYPE svg PUBLIC "-//W3C//DTD SVG 1.1//EN" "http://www.w3.org/Graphics/SVG/1.1/DTD/svg11.dtd">
<svg version="1.1" xmlns="http://www.w3.org/2000/svg" xmlns:xlink="http://www.w3.org/1999/xlink" width="100" height="100" viewBox="0 0 100 100">
<path d="M62.5 37.5v-37.5h-25v37.5c0 0-6.3 3.1-6.3 12.5 0 3.1 0 50 0 50h37.5c0 0 0-46.9 0-50 0-9.4-6.2-12.5-6.2-12.5zM43.7 6.2h12.5v6.3h-12.5v-6.3zM62.5 93.7h-25c0 0 0-40.6 0-43.7 0-6.3 6.2-6.3 6.2-6.3v-25h12.5v25c0 0 6.3 0 6.3 6.3 0 3.1 0 43.7 0 43.7z"></path>
</svg>
