<?xml version="1.0" encoding="utf-8"?>
<!-- Generated by IcoMoon.io -->
<!DOCTYPE svg PUBLIC "-//W3C//DTD SVG 1.1//EN" "http://www.w3.org/Graphics/SVG/1.1/DTD/svg11.dtd">
<svg version="1.1" xmlns="http://www.w3.org/2000/svg" xmlns:xlink="http://www.w3.org/1999/xlink" width="100" height="100" viewBox="0 0 100 100">
<path d="M62.5 28.1c1.7 0 3.1-1.4 3.1-3.1v-12.5c0-1.7-1.4-3.1-3.1-3.1s-3.1 1.4-3.1 3.1v12.5c0 1.7 1.4 3.1 3.1 3.1zM50 28.1c1.7 0 3.1-1.4 3.1-3.1v-18.8c0-1.7-1.4-3.1-3.1-3.1s-3.1 1.4-3.1 3.1v18.8c0 1.7 1.4 3.1 3.1 3.1zM37.5 28.1c1.7 0 3.1-1.4 3.1-3.1v-12.5c0-1.7-1.4-3.1-3.1-3.1s-3.1 1.4-3.1 3.1v12.5c0 1.7 1.4 3.1 3.1 3.1zM81.2 90.6h-62.5c-1.7 0-3.1 1.4-3.1 3.1s1.4 3.2 3.1 3.2h62.5c1.8 0 3.2-1.4 3.2-3.2s-1.4-3.1-3.2-3.1zM43.7 84.4h12.5c13.9 0 21.9-11.2 21.9-25v-25h-56.2v25c0 13.8 8 25 21.8 25zM28.1 40.6h43.8v18.8c0 10.3-5.3 18.7-15.7 18.7h-12.5c-10.3 0-15.6-8.4-15.6-18.7v-18.8z"></path>
</svg>
