<?xml version="1.0" encoding="utf-8"?>
<!-- Generated by IcoMoon.io -->
<!DOCTYPE svg PUBLIC "-//W3C//DTD SVG 1.1//EN" "http://www.w3.org/Graphics/SVG/1.1/DTD/svg11.dtd">
<svg version="1.1" xmlns="http://www.w3.org/2000/svg" xmlns:xlink="http://www.w3.org/1999/xlink" width="100" height="100" viewBox="0 0 100 100">
<path d="M43.7 3.1h-6.2v25h6.2v-25zM62.5 9.4h-6.3v18.7h6.3v-18.7zM71.9 90.6h-62.5c-1.8 0-3.2 1.4-3.2 3.1s1.4 3.2 3.2 3.2h62.5c1.7 0 3.1-1.4 3.1-3.2s-1.4-3.1-3.1-3.1zM93.7 40.6h-12.5c-0.1 0-0.1 0.1-0.3 0.1 0 0 0-0.1 0-0.1h0.3v-6.2h-81.2v6.2h0.3c-0.1 1.1-0.3 2.1-0.3 3.1 0 28.2 18.2 40.7 40.6 40.7 16.5 0 30.6-5.1 37-20.1 1 0.8 2.2 1.3 3.6 1.3h12.5c3.5 0 6.3-2.8 6.3-6.2v-12.5c0-3.5-2.8-6.3-6.3-6.3zM40.6 78.1c-16.4 0-30-7-33.5-25h67.2c-3.1 20.2-17 25-33.7 25zM74.9 46.9h-68.4c-0.1-1.1-0.3-2-0.3-3.2 0-1 0.3-2 0.4-3.1h68.1c0.1 1.1 0.3 2.1 0.3 3.1 0 1.1-0.1 2.1-0.1 3.2zM93.7 53.1v6.3h-12.5v-9.4c0-1.7 1.5-3.1 3.2-3.1h6.2c1.7 0 3.1 1.4 3.1 3.1v3.1zM25 9.4h-6.3v18.7h6.3v-18.7z"></path>
</svg>
