<?xml version="1.0" encoding="utf-8"?>
<!-- Generated by IcoMoon.io -->
<!DOCTYPE svg PUBLIC "-//W3C//DTD SVG 1.1//EN" "http://www.w3.org/Graphics/SVG/1.1/DTD/svg11.dtd">
<svg version="1.1" xmlns="http://www.w3.org/2000/svg" xmlns:xlink="http://www.w3.org/1999/xlink" width="100" height="100" viewBox="0 0 100 100">
<path d="M56.2 93.8h-25c-1.7 0-3.1 1.4-3.1 3.1s1.4 3.1 3.1 3.1h25c1.8 0 3.2-1.4 3.2-3.1s-1.4-3.1-3.2-3.1zM78.1 0c-8.1 0-15 5.2-17.6 12.5h-37.4l-8.4-12.5-5.3 3.2 6.2 9.3h-12.5v6.6l37.5 49.7v25h6.3v-25l24.4-32.6c2.1 0.8 4.4 1.3 6.8 1.3 10.4 0 18.8-8.4 18.8-18.7 0-10.4-8.4-18.8-18.8-18.8zM43.7 62.5v0l-33-43.7h9.1l20.5 30.5 5.4-3.1-18.4-27.4h49.3l-32.9 43.7zM78.1 31.3c-1 0-1.9-0.2-2.8-0.4l9.1-12.1v-6.3h-17c2.1-3.7 6.1-6.2 10.7-6.2 6.9 0 12.5 5.6 12.5 12.5s-5.6 12.5-12.5 12.5z"></path>
</svg>
