<?xml version="1.0" encoding="utf-8"?>
<!-- Generated by IcoMoon.io -->
<!DOCTYPE svg PUBLIC "-//W3C//DTD SVG 1.1//EN" "http://www.w3.org/Graphics/SVG/1.1/DTD/svg11.dtd">
<svg version="1.1" xmlns="http://www.w3.org/2000/svg" xmlns:xlink="http://www.w3.org/1999/xlink" width="100" height="100" viewBox="0 0 100 100">
<path d="M93.7 0h-93.7v6.2h6.2v75c0 5.9 4 10.7 9.4 12.1v6.7h6.3v-6.3h56.2v6.3h6.3v-6.7c5.4-1.4 9.3-6.2 9.3-12.1v-75h6.3v-6.2h-6.3zM87.5 68.7v12.5c0 3.5-2.8 6.3-6.3 6.3h-62.5c-3.4 0-6.2-2.8-6.2-6.3v-25h75v12.5zM87.5 50h-75v-18.8h75v18.8zM87.5 25h-75v-18.8h75v18.8zM62.5 12.5h-25v6.2h25v-6.2zM62.5 62.5h-25v6.2h25v-6.2zM62.5 37.5h-25v6.2h25v-6.2z"></path>
</svg>
