<?xml version="1.0" encoding="utf-8"?>
<!-- Generated by IcoMoon.io -->
<!DOCTYPE svg PUBLIC "-//W3C//DTD SVG 1.1//EN" "http://www.w3.org/Graphics/SVG/1.1/DTD/svg11.dtd">
<svg version="1.1" xmlns="http://www.w3.org/2000/svg" xmlns:xlink="http://www.w3.org/1999/xlink" width="100" height="100" viewBox="0 0 100 100">
<path d="M71.9 28.1h-6.3v6.3h6.3v-6.3zM96.9 59.4c0-4.6-2.6-8.6-6.3-10.8v-26.7c0-10.4-8.4-18.8-18.7-18.8h-6.3c-6.5 0-12.2 3.4-15.6 8.4-3.4-5-9.1-8.4-15.6-8.4h-6.3c-10.3 0-18.7 8.4-18.7 18.8v26.7c-3.8 2.2-6.3 6.1-6.3 10.8 0 1.2 0.3 2.4 0.6 3.6-0.3 0.8-0.6 1.7-0.6 2.6v12.5c0 3.5 2.8 6.3 6.3 6.3v12.5h6.2v-12.5h68.8v12.5h6.2v-12.5c3.5 0 6.3-2.8 6.3-6.3v-12.5c0-0.9-0.3-1.8-0.6-2.6 0.3-1.2 0.6-2.4 0.6-3.6zM15.6 53.1c3.5 0 6.3 2.8 6.3 6.3 0 3.4-2.8 6.2-6.3 6.2s-6.2-2.8-6.2-6.2c0-3.5 2.8-6.3 6.2-6.3zM46.9 78.1h-34.4c-1.7 0-3.1-1.4-3.1-3.1v-4.9c1.8 1.1 3.9 1.8 6.2 1.8 4.6 0 8.6-2.6 10.8-6.3h20.5v12.5zM46.9 34.4v25h-18.8c0-6.9-5.6-12.5-12.5-12.5v-25c0-6.9 5.6-12.5 12.5-12.5h6.3c6.9 0 12.5 5.6 12.5 12.5v12.5zM53.1 51.7v-29.8c0-6.9 5.6-12.5 12.5-12.5h6.3c6.9 0 12.5 5.6 12.5 12.5v25c-6.9 0-12.5 5.6-12.5 12.5h-18.8v-7.7zM90.6 75c0 1.7-1.4 3.1-3.1 3.1h-34.4v-12.5h20.5c2.2 3.7 6.2 6.3 10.8 6.3 2.3 0 4.4-0.7 6.2-1.8v4.9zM84.4 65.6c-3.5 0-6.3-2.8-6.3-6.2 0-3.5 2.8-6.3 6.3-6.3s6.2 2.8 6.2 6.3c0 3.4-2.8 6.2-6.2 6.2zM28.1 34.4h6.3v-6.3h-6.3v6.3z"></path>
</svg>
