<?xml version="1.0" encoding="utf-8"?>
<!-- Generated by IcoMoon.io -->
<!DOCTYPE svg PUBLIC "-//W3C//DTD SVG 1.1//EN" "http://www.w3.org/Graphics/SVG/1.1/DTD/svg11.dtd">
<svg version="1.1" xmlns="http://www.w3.org/2000/svg" xmlns:xlink="http://www.w3.org/1999/xlink" width="100" height="100" viewBox="0 0 100 100">
<path d="M71.9 37.5h-6.3v6.2h6.3v-6.2zM90.6 0h-81.2v6.2h81.2v-6.2zM71.9 50h-6.3v6.2h6.3v-6.2zM53.1 25h-6.2v6.2h6.2v-6.2zM71.9 25h-6.3v6.2h6.3v-6.2zM34.4 50h-6.3v6.2h6.3v-6.2zM53.1 37.5h-6.2v6.2h6.2v-6.2zM34.4 37.5h-6.3v6.2h6.3v-6.2zM84.4 93.7v-81.2h-68.8v81.2h-12.5v6.3h93.8v-6.3h-12.5zM59.4 93.7h-18.8v-18.7h18.8v18.7zM78.1 93.7h-12.5v-25h-31.2v25h-12.5v-75h56.2v75zM34.4 25h-6.3v6.2h6.3v-6.2zM53.1 50h-6.2v6.2h6.2v-6.2z"></path>
</svg>
