<?xml version="1.0" encoding="utf-8"?>
<!-- Generated by IcoMoon.io -->
<!DOCTYPE svg PUBLIC "-//W3C//DTD SVG 1.1//EN" "http://www.w3.org/Graphics/SVG/1.1/DTD/svg11.dtd">
<svg version="1.1" xmlns="http://www.w3.org/2000/svg" xmlns:xlink="http://www.w3.org/1999/xlink" width="100" height="100" viewBox="0 0 100 100">
<path d="M84.4 93.7v-93.7h-68.8v93.7h-12.5v6.3h93.8v-6.3h-12.5zM59.4 93.7h-18.8v-25h18.8v25zM78.1 93.7h-12.5v-31.2h-31.2v31.2h-12.5v-87.5h56.2v87.5zM71.9 12.5h-18.8v18.7h18.8v-18.7zM65.6 25h-6.2v-6.3h6.2v6.3zM46.9 12.5h-18.8v18.7h18.8v-18.7zM40.6 25h-6.2v-6.3h6.2v6.3zM71.9 37.5h-18.8v18.7h18.8v-18.7zM65.6 50h-6.2v-6.3h6.2v6.3zM46.9 37.5h-18.8v18.7h18.8v-18.7zM40.6 50h-6.2v-6.3h6.2v6.3z"></path>
</svg>
