<?xml version="1.0" encoding="utf-8"?>
<!-- Generated by IcoMoon.io -->
<!DOCTYPE svg PUBLIC "-//W3C//DTD SVG 1.1//EN" "http://www.w3.org/Graphics/SVG/1.1/DTD/svg11.dtd">
<svg version="1.1" xmlns="http://www.w3.org/2000/svg" xmlns:xlink="http://www.w3.org/1999/xlink" width="100" height="100" viewBox="0 0 100 100">
<path d="M71.9 53.1v31.3c0 1.7 1.4 3.1 3.1 3.1s3.1-1.4 3.1-3.1v-31.3c0-1.7-1.4-3.1-3.1-3.1s-3.1 1.4-3.1 3.1zM53.1 53.1v31.3c0 1.7 1.4 3.1 3.1 3.1s3.2-1.4 3.2-3.1v-31.3c0-1.7-1.4-3.1-3.2-3.1s-3.1 1.4-3.1 3.1zM84.4 53.1v31.3c0 1.7 1.4 3.1 3.1 3.1s3.1-1.4 3.1-3.1v-31.3c0-1.7-1.4-3.1-3.1-3.1s-3.1 1.4-3.1 3.1zM6.2 43.7h87.5c1.8 0 3.2-1.4 3.2-3.1s-1.4-3.1-3.2-3.1h-87.5c-1.7 0-3.1 1.4-3.1 3.1s1.4 3.1 3.1 3.1zM50 18.7c7.6 0 13.9 5.4 15.3 12.5h6.3c-1.4-9.5-8.9-17-18.5-18.4v-9.7c0-1.7-1.4-3.1-3.1-3.1s-3.1 1.4-3.1 3.1v9.7c-9.6 1.4-17.1 8.9-18.5 18.4h6.3c1.4-7.1 7.7-12.5 15.3-12.5zM9.4 53.1v31.3c0 1.7 1.4 3.1 3.1 3.1s3.1-1.4 3.1-3.1v-31.3c0-1.7-1.4-3.1-3.1-3.1s-3.1 1.4-3.1 3.1zM93.7 93.7h-87.5c-1.7 0-3.1 1.5-3.1 3.2s1.4 3.1 3.1 3.1h87.5c1.8 0 3.2-1.4 3.2-3.1s-1.4-3.2-3.2-3.2zM40.6 53.1v31.3c0 1.7 1.4 3.1 3.1 3.1 1.8 0 3.2-1.4 3.2-3.1v-31.3c0-1.7-1.4-3.1-3.2-3.1-1.7 0-3.1 1.4-3.1 3.1zM21.9 53.1v31.3c0 1.7 1.4 3.1 3.1 3.1s3.1-1.4 3.1-3.1v-31.3c0-1.7-1.4-3.1-3.1-3.1s-3.1 1.4-3.1 3.1z"></path>
</svg>
