<?xml version="1.0" encoding="utf-8"?>
<!-- Generated by IcoMoon.io -->
<!DOCTYPE svg PUBLIC "-//W3C//DTD SVG 1.1//EN" "http://www.w3.org/Graphics/SVG/1.1/DTD/svg11.dtd">
<svg version="1.1" xmlns="http://www.w3.org/2000/svg" xmlns:xlink="http://www.w3.org/1999/xlink" width="100" height="100" viewBox="0 0 100 100">
<path d="M6.2 9.4c0-1.8 1.4-3.2 3.2-3.2h37.5c1.7 0 3.1 1.4 3.1 3.2v78.1h6.2v-81.3c0-3.4-2.7-6.2-6.2-6.2h-43.8c-3.4 0-6.2 2.8-6.2 6.2v81.3h6.2v-78.1zM43.7 12.5h-12.5v12.5h12.5v-12.5zM25 50h-12.5v12.5h12.5v-12.5zM12.5 81.2h12.5v-12.5h-12.5v12.5zM43.7 50h-12.5v12.5h12.5v-12.5zM31.2 81.2h12.5v-12.5h-12.5v12.5zM43.7 31.2h-12.5v12.5h12.5v-12.5zM25 31.2h-12.5v12.5h12.5v-12.5zM87.5 18.7h-12.5v12.5h12.5v-12.5zM93.7 6.2h-25c-3.4 0-6.2 2.8-6.2 6.3v75h6.2v-71.9c0-1.7 1.5-3.1 3.2-3.1h18.7c1.7 0 3.1 1.4 3.1 3.1v71.9h6.3v-75c0-3.5-2.8-6.3-6.3-6.3zM75 68.7h12.5v-12.5h-12.5v12.5zM25 12.5h-12.5v12.5h12.5v-12.5zM75 50h12.5v-12.5h-12.5v12.5zM96.9 93.7h-93.8c-1.7 0-3.1 1.5-3.1 3.2s1.4 3.1 3.1 3.1h93.8c1.7 0 3.1-1.4 3.1-3.1s-1.4-3.2-3.1-3.2z"></path>
</svg>
