<?xml version="1.0" encoding="utf-8"?>
<!-- Generated by IcoMoon.io -->
<!DOCTYPE svg PUBLIC "-//W3C//DTD SVG 1.1//EN" "http://www.w3.org/Graphics/SVG/1.1/DTD/svg11.dtd">
<svg version="1.1" xmlns="http://www.w3.org/2000/svg" xmlns:xlink="http://www.w3.org/1999/xlink" width="100" height="100" viewBox="0 0 100 100">
<path d="M34.4 56.2h6.2v-18.7h-6.2v18.7zM93.7 0h-87.5c-1.7 0-3.1 1.4-3.1 3.1v93.8c0 1.7 1.4 3.1 3.1 3.1h87.5c1.8 0 3.2-1.4 3.2-3.1v-93.8c0-1.7-1.4-3.1-3.2-3.1zM9.4 9.4c0-1.8 1.4-3.2 3.1-3.2h34.4v68.8h-37.5v-65.6zM90.6 90.6c0 1.8-1.4 3.1-3.1 3.1h-75c-1.7 0-3.1-1.3-3.1-3.1v-9.4h81.2v9.4zM90.6 75h-37.5v-68.8h34.4c1.7 0 3.1 1.4 3.1 3.2v65.6zM59.4 56.2h6.2v-18.7h-6.2v18.7z"></path>
</svg>
