<?xml version="1.0" encoding="utf-8"?>
<!-- Generated by IcoMoon.io -->
<!DOCTYPE svg PUBLIC "-//W3C//DTD SVG 1.1//EN" "http://www.w3.org/Graphics/SVG/1.1/DTD/svg11.dtd">
<svg version="1.1" xmlns="http://www.w3.org/2000/svg" xmlns:xlink="http://www.w3.org/1999/xlink" width="100" height="100" viewBox="0 0 100 100">
<path d="M99 38.3l-46.7-37.4c-0.6-0.7-1.5-0.9-2.3-0.9-0.9 0-1.7 0.2-2.3 0.9l-46.7 37.4c-1.3 1.2-1.3 3.2 0 4.5 1.2 1.2 3.2 1.2 4.5 0l0.8-0.7v51.7c0 3.4 2.8 6.2 6.3 6.2h74.8c3.5 0 6.3-2.8 6.3-6.2v-51.7l0.8 0.7c1.3 1.2 3.3 1.2 4.5 0 1.3-1.3 1.3-3.3 0-4.5zM68.7 93.8h-18.7v-37.5h18.7v37.5zM87.4 90.6c0 1.8-1.4 3.2-3.1 3.2h-9.4v-43.8h-31.1v43.8h-28.1c-1.7 0-3.1-1.4-3.1-3.2v-53.5l37.4-30 37.4 30v53.5zM18.8 68.8h18.7v-18.8h-18.7v18.8zM25 56.3h6.3v6.2h-6.3v-6.2z"></path>
</svg>
