<?xml version="1.0" encoding="utf-8"?>
<!-- Generated by IcoMoon.io -->
<!DOCTYPE svg PUBLIC "-//W3C//DTD SVG 1.1//EN" "http://www.w3.org/Graphics/SVG/1.1/DTD/svg11.dtd">
<svg version="1.1" xmlns="http://www.w3.org/2000/svg" xmlns:xlink="http://www.w3.org/1999/xlink" width="100" height="100" viewBox="0 0 100 100">
<path d="M68.7 0h-37.5l6.3 31.2-6.3 12.5v34.4c0 0 1.8 4.1 3.3 6.4 6.1 9.2 15.5 15.5 15.5 15.5s9.4-6.3 15.5-15.5c1.5-2.3 3.2-6.4 3.2-6.4v-34.4l-6.2-12.5 6.2-31.2zM62.5 6.2l-5.4 18.8h-14.2l-5.4-18.8h25zM37.5 43.7l6.2-12.5h12.5l4.3 8.5-23 14.3v-10.3zM62.5 78.1l-12.5 15.6-10.4-12.9 22.9-13.3v10.6zM62.5 60.3l-25 14.5v-13.5l25-15.6v14.6z"></path>
</svg>
