<?xml version="1.0" encoding="utf-8"?>
<!-- Generated by IcoMoon.io -->
<!DOCTYPE svg PUBLIC "-//W3C//DTD SVG 1.1//EN" "http://www.w3.org/Graphics/SVG/1.1/DTD/svg11.dtd">
<svg version="1.1" xmlns="http://www.w3.org/2000/svg" xmlns:xlink="http://www.w3.org/1999/xlink" width="100" height="100" viewBox="0 0 100 100">
<path d="M80.8 16c2.5 4 4.4 8.4 5.4 13 4.5 5.4 7.3 12.1 7.3 19.4 0 12.9-8.3 23.9-20.2 29h4.2v9.7l-12-7.2c-2.3 0.4-4.8 0.7-7.3 0.7-3.2 0-6.3-0.5-9.2-1.2-3.8 0.8-7.7 1.2-11.7 1.2-0.8 0-1.7 0-2.5-0.1 6.7 4.2 14.7 6.6 23.4 6.6 2.2 0 4.4-0.3 6.5-0.6l19.2 13.4v-21.2c9.7-7.1 16.1-17.9 16.1-30.3 0-13.6-7.7-25.5-19.2-32.4zM81.3 37.5c0-20.7-18.2-37.5-40.7-37.5s-40.6 16.8-40.6 37.5c0 10.9 5.1 20.6 13.2 27.5v18.9l15.3-10.8c3.8 1.1 7.9 1.9 12.1 1.9 22.5 0 40.7-16.8 40.7-37.5zM27.4 66.3l-7.8 4.7v-9c-8.1-5.7-13.3-14.5-13.3-24.5 0-17.3 15.4-31.2 34.3-31.2s34.4 13.9 34.4 31.2c0 17.2-15.4 31.2-34.4 31.2-4.7 0-9.1-0.9-13.2-2.4z"></path>
</svg>
