<?xml version="1.0" encoding="utf-8"?>
<!-- Generated by IcoMoon.io -->
<!DOCTYPE svg PUBLIC "-//W3C//DTD SVG 1.1//EN" "http://www.w3.org/Graphics/SVG/1.1/DTD/svg11.dtd">
<svg version="1.1" xmlns="http://www.w3.org/2000/svg" xmlns:xlink="http://www.w3.org/1999/xlink" width="100" height="100" viewBox="0 0 100 100">
<path d="M99.3 1.4c-0.1-0.2-0.2-0.3-0.3-0.4s-0.3-0.2-0.4-0.3c-0.7-0.6-1.7-0.9-2.7-0.6l-93.5 46.4c-0.1 0-0.1 0.1-0.2 0.1-1 0.3-1.8 1-2.1 2.1-0.2 0.6-0.1 1.1 0.1 1.7 0 0 0 0 0 0 0 0.1 0 0.1 0 0.1 0.1 0.3 0.2 0.6 0.4 0.9 0.1 0.1 0.3 0.3 0.4 0.4s0.3 0.3 0.5 0.4c0.1 0.1 0.3 0.2 0.5 0.3 0.1 0 0.3 0.2 0.4 0.2l28.4 13.5 16.5 31.4c0 0.1 0.1 0.3 0.2 0.4 0.1 0.2 0.2 0.4 0.3 0.5 0.1 0.2 0.3 0.4 0.4 0.5s0.2 0.3 0.4 0.4c0.3 0.1 0.6 0.3 0.9 0.4 0 0 0 0 0.1 0 0 0 0 0 0 0 0.5 0.2 1.1 0.3 1.6 0.1 1.2-0.3 1.9-1.1 2.2-2.1 0-0.1 0.1-0.1 0.1-0.2l46.4-93.5c0.2-1 0-2-0.6-2.7zM10.3 49.6l69.8-34.7-47.7 45.2-22.1-10.5zM50.3 90l-13.4-25.5 49.1-46.6-35.7 72.1z"></path>
</svg>
