<?xml version="1.0" encoding="utf-8"?>
<!-- Generated by IcoMoon.io -->
<!DOCTYPE svg PUBLIC "-//W3C//DTD SVG 1.1//EN" "http://www.w3.org/Graphics/SVG/1.1/DTD/svg11.dtd">
<svg version="1.1" xmlns="http://www.w3.org/2000/svg" xmlns:xlink="http://www.w3.org/1999/xlink" width="100" height="100" viewBox="0 0 100 100">
<path d="M93.7 59.4h6.2v-53.2c0-1.7-1.4-3-3.1-3.1 0 0-0.1 0-0.2 0h-93.5c-0.1 0-0.2 0.1-0.3 0.1-0.6 0-1.2 0.3-1.7 0.7 0 0-0.2 0-0.2 0.1-0.1 0-0.1 0.1-0.1 0.2-0.5 0.5-0.7 1.1-0.8 1.9 0 0 0 0 0 0.1 0 0 0 0 0 0v75c0 1.8 1.4 3.2 3.1 3.2h46.9v-6.3h-40.7c-1.7 0-3.1-1.4-3.1-3.1v-62.4l41.4 33.2c0 0 0 0.1 0 0.1 0.7 0.7 1.5 0.9 2.3 0.9s1.6-0.2 2.2-0.9c0.1 0 0-0.1 0.1-0.1l41.5-33.3v46.9zM49.9 39.8l-38-30.4h75.9l-37.9 30.4zM96.9 78.1h-9.4v-9.4c0-1.7-1.4-3.1-3.2-3.1s-3.1 1.4-3.1 3.1v9.4h-9.4c-1.7 0-3.2 1.4-3.2 3.1 0 1.8 1.5 3.2 3.2 3.2h9.4v9.3c0 1.8 1.4 3.2 3.1 3.2s3.2-1.4 3.2-3.2v-9.3h9.4c1.7 0 3.1-1.4 3.1-3.2 0-1.7-1.4-3.1-3.1-3.1z"></path>
</svg>
