<?xml version="1.0" encoding="utf-8"?>
<!-- Generated by IcoMoon.io -->
<!DOCTYPE svg PUBLIC "-//W3C//DTD SVG 1.1//EN" "http://www.w3.org/Graphics/SVG/1.1/DTD/svg11.dtd">
<svg version="1.1" xmlns="http://www.w3.org/2000/svg" xmlns:xlink="http://www.w3.org/1999/xlink" width="100" height="100" viewBox="0 0 100 100">
<path d="M48.4 61.2c-2 0-3.7 1.7-3.7 3.8s1.7 3.7 3.7 3.7 3.7-1.7 3.7-3.7-1.7-3.8-3.7-3.8zM49.2 21.9c-6.5 0-11.5 2.6-14.8 6.9l3.4 3.7c2.5-3.4 5.7-5.6 10.9-5.6 5.3 0 7.9 2.9 7.9 6.4 0 7.2-12.2 7.9-12.2 16.5 0 2.1 0.7 4.1 2.6 5.6l4.1-1.8c-1.1-0.8-1.7-2.2-1.7-3.3 0-6.7 13.1-7.6 13.1-17.9 0-5.8-5-10.5-13.3-10.5zM50 0c-27.6 0-50 19.6-50 43.7 0 13.9 7.3 26.1 18.7 34.2v22.1l25.6-12.8c1.9 0.2 3.8 0.3 5.7 0.3 27.6 0 50-19.6 50-43.8 0-24.1-22.4-43.7-50-43.7zM50 81.2c-1.8 0-3.6-0.2-5.3-0.4l-19.7 9.8v-16.1c-11.3-6.8-18.8-18-18.8-30.8 0-20.7 19.6-37.5 43.8-37.5s43.7 16.8 43.7 37.5c0 20.8-19.5 37.5-43.7 37.5z"></path>
</svg>
