<?xml version="1.0" encoding="utf-8"?>
<!-- Generated by IcoMoon.io -->
<!DOCTYPE svg PUBLIC "-//W3C//DTD SVG 1.1//EN" "http://www.w3.org/Graphics/SVG/1.1/DTD/svg11.dtd">
<svg version="1.1" xmlns="http://www.w3.org/2000/svg" xmlns:xlink="http://www.w3.org/1999/xlink" width="100" height="100" viewBox="0 0 100 100">
<path d="M75 81.2c0 3.5-2.8 6.3-6.2 6.3h-56.3c-3.4 0-6.2-2.8-6.2-6.3v-62.5c0-3.4 2.8-6.2 6.2-6.2h56.3c3.4 0 6.2 2.8 6.2 6.2h6.3c0-6.9-5.6-12.5-12.5-12.5h-56.3c-6.9 0-12.5 5.6-12.5 12.5v62.5c0 7 5.6 12.5 12.5 12.5h56.3c6.9 0 12.5-5.5 12.5-12.5v-12.5h-6.3v12.5zM99 25.9c-1.2-1.2-3.2-1.2-4.4 0l-35.3 32.3-16.3-13.5c-1.2-1.3-3.3-1.3-4.6 0-1.2 1.2-1.2 3.3 0 4.6l18.5 15.3c0.7 0.7 1.6 1 2.5 0.9 0 0 0 0 0.1 0 0.6 0 1.2-0.3 1.8-0.7 0.1-0.1 0.2-0.1 0.3-0.2l37.4-34.3c1.3-1.2 1.3-3.2 0-4.4z"></path>
</svg>
