<?xml version="1.0" encoding="utf-8"?>
<!-- Generated by IcoMoon.io -->
<!DOCTYPE svg PUBLIC "-//W3C//DTD SVG 1.1//EN" "http://www.w3.org/Graphics/SVG/1.1/DTD/svg11.dtd">
<svg version="1.1" xmlns="http://www.w3.org/2000/svg" xmlns:xlink="http://www.w3.org/1999/xlink" width="100" height="100" viewBox="0 0 100 100">
<path d="M49.2 15.6c-6.5 0-11.5 2.7-14.8 7l3.4 3.7c2.5-3.5 5.7-5.6 10.9-5.6 5.3 0 7.9 2.9 7.9 6.3 0 7.2-12.2 7.9-12.2 16.6 0 2.1 0.7 4 2.6 5.6l4.1-1.9c-1.1-0.8-1.7-2.2-1.7-3.3 0-6.6 13.1-7.5 13.1-17.8 0-5.9-5-10.6-13.3-10.6zM48.4 55c-2 0-3.7 1.7-3.7 3.7 0 2.1 1.7 3.8 3.7 3.8s3.7-1.7 3.7-3.8c0-2-1.7-3.7-3.7-3.7zM81.2 0h-62.5c-10.3 0-18.7 8.7-18.7 19.5v42.2c0 10.8 8.4 19.5 18.7 19.5h39.1l23.4 18.8v-18.8c10.4 0 18.8-8.7 18.8-19.5v-42.2c0-10.8-8.4-19.5-18.8-19.5zM93.7 61.9c0 7.2-5.6 13.1-12.5 13.1h-6.2v12.5l-15-12.5h-41.3c-6.9 0-12.5-5.9-12.5-13.1v-42.6c0-7.2 5.6-13.1 12.5-13.1h62.5c6.9 0 12.5 5.9 12.5 13.1v42.6z"></path>
</svg>
