<?xml version="1.0" encoding="utf-8"?>
<!-- Generated by IcoMoon.io -->
<!DOCTYPE svg PUBLIC "-//W3C//DTD SVG 1.1//EN" "http://www.w3.org/Graphics/SVG/1.1/DTD/svg11.dtd">
<svg version="1.1" xmlns="http://www.w3.org/2000/svg" xmlns:xlink="http://www.w3.org/1999/xlink" width="100" height="100" viewBox="0 0 100 100">
<path d="M6.2 78.2v-62.4l41.4 33.2c0.1 0 0 0.1 0.1 0.2 0.6 0.6 1.4 0.9 2.2 0.8 0.8 0.1 1.6-0.2 2.3-0.8 0-0.1 0-0.2 0-0.2l41.5-33.3v46.9h6.2v-53.1c0-1.7-1.3-3.1-3-3.2-0.1 0-0.2 0-0.2 0h-93.5c-0.1 0-0.2 0.1-0.4 0.1-0.6 0.1-1.2 0.3-1.6 0.7-0.1 0.1-0.2 0-0.3 0.1 0 0.1 0 0.1-0.1 0.2-0.4 0.5-0.7 1.2-0.8 1.9 0 0 0 0.1 0 0.1s0 0.1 0 0.1v75c0 1.7 1.4 3.1 3.1 3.1h53.2v-6.3h-46.9c-1.8 0-3.2-1.4-3.2-3.1zM87.9 12.6l-38 30.4-37.9-30.4h75.9zM99 69.7c-1.2-1.2-3.3-1.2-4.5 0l-16.5 16.7-10-10.1c-1.3-1.3-3.3-1.3-4.6 0-1.2 1.2-1.2 3.3 0 4.5l11.8 11.9c0.8 0.8 1.8 1.1 2.8 0.9 1 0.2 2.1-0.1 2.8-0.9l18.2-18.4c1.3-1.2 1.3-3.3 0-4.6z"></path>
</svg>
