<?xml version="1.0" encoding="utf-8"?>
<!-- Generated by IcoMoon.io -->
<!DOCTYPE svg PUBLIC "-//W3C//DTD SVG 1.1//EN" "http://www.w3.org/Graphics/SVG/1.1/DTD/svg11.dtd">
<svg version="1.1" xmlns="http://www.w3.org/2000/svg" xmlns:xlink="http://www.w3.org/1999/xlink" width="100" height="100" viewBox="0 0 100 100">
<path d="M65.6 43.7h-31.2c-1.8 0-3.2 1.4-3.2 3.2 0 1.7 1.4 3.1 3.2 3.1h31.2c1.7 0 3.1-1.4 3.1-3.1 0-1.8-1.4-3.2-3.1-3.2zM81.2 0h-62.5c-10.3 0-18.7 8.4-18.7 18.7v40.7c0 10.3 8.4 15.6 18.7 15.6h35l27.5 25v-25c10.4 0 18.8-8.4 18.8-18.8v-37.5c0-10.3-8.4-18.7-18.8-18.7zM93.7 56.2c0 6.9-5.6 12.5-12.5 12.5h-6.2v17.4l-18.8-17.4h-37.5c-6.9 0-12.5-2.4-12.5-9.3v-40.7c0-6.9 5.6-12.5 12.5-12.5h62.5c6.9 0 12.5 5.6 12.5 12.5v37.5zM71.9 25h-43.8c-1.7 0-3.1 1.4-3.1 3.1s1.4 3.1 3.1 3.1h43.8c1.7 0 3.1-1.4 3.1-3.1s-1.4-3.1-3.1-3.1z"></path>
</svg>
