<?xml version="1.0" encoding="utf-8"?>
<!-- Generated by IcoMoon.io -->
<!DOCTYPE svg PUBLIC "-//W3C//DTD SVG 1.1//EN" "http://www.w3.org/Graphics/SVG/1.1/DTD/svg11.dtd">
<svg version="1.1" xmlns="http://www.w3.org/2000/svg" xmlns:xlink="http://www.w3.org/1999/xlink" width="100" height="100" viewBox="0 0 100 100">
<path d="M22.7 63c-0.6-2.2-1-4.4-1-6.8v-6.2h-6.2v6.2c0 4.2 0.8 8.1 2.3 11.8l4.9-5zM34.2 51.5v-29.6c0-8.7 7-15.7 15.6-15.7 8.2 0 14.8 6.3 15.5 14.2l5.2-5.2c-2.8-8.8-10.9-15.2-20.7-15.2-12.1 0-21.8 9.8-21.8 21.9v31.2c0 1.5 0.1 2.9 0.4 4.2l5.8-5.8zM83.8 10.7l-72 72 4.4 4.4 72-72-4.4-4.4zM49.8 68.7c-3.1 0-6-0.9-8.4-2.4l-4.5 4.4c3.7 2.7 8.1 4.3 12.9 4.3 12.1 0 21.9-9.8 21.9-21.9v-17.1l-6.2 6.2v10.9c0 8.6-7 15.6-15.7 15.6zM78 56.2c0 13.8-11.2 25-25 25h-6.3c-5.7 0-10.9-1.9-15.1-5.1l-4.4 4.4c5.4 4.3 12.1 7 19.5 7v6.2h-3.1c-1.7 0-3.1 1.4-3.1 3.2s1.4 3.1 3.1 3.1h12.5c1.7 0 3.1-1.4 3.1-3.1s-1.4-3.2-3.1-3.2h-3.1v-6.2c17.2 0 31.2-14 31.2-31.3v-6.2h-6.2v6.2z"></path>
</svg>
