<?xml version="1.0" encoding="utf-8"?>
<!-- Generated by IcoMoon.io -->
<!DOCTYPE svg PUBLIC "-//W3C//DTD SVG 1.1//EN" "http://www.w3.org/Graphics/SVG/1.1/DTD/svg11.dtd">
<svg version="1.1" xmlns="http://www.w3.org/2000/svg" xmlns:xlink="http://www.w3.org/1999/xlink" width="100" height="100" viewBox="0 0 100 100">
<path d="M50 0c-27.6 0-50 19.6-50 43.7 0 13.8 7.3 26.1 18.7 34.2v22.1l25.6-12.8c1.9 0.2 3.8 0.3 5.7 0.3 27.6 0 50-19.6 50-43.8 0-24.1-22.4-43.7-50-43.7zM50 81.2h-6.3l-18.7 9.4v-16.3c-11.3-6.8-18.8-17.9-18.8-30.6 0-20.7 19.6-37.5 43.8-37.5s43.7 16.8 43.7 37.5c0 20.7-19.5 37.5-43.7 37.5z"></path>
</svg>
