<?xml version="1.0" encoding="utf-8"?>
<!-- Generated by IcoMoon.io -->
<!DOCTYPE svg PUBLIC "-//W3C//DTD SVG 1.1//EN" "http://www.w3.org/Graphics/SVG/1.1/DTD/svg11.dtd">
<svg version="1.1" xmlns="http://www.w3.org/2000/svg" xmlns:xlink="http://www.w3.org/1999/xlink" width="100" height="100" viewBox="0 0 100 100">
<path d="M99.9 12.4c0 0 0 0 0-0.1-0.1-0.7-0.4-1.4-0.8-1.9-0.1 0 0-0.1-0.1-0.2-0.1 0-0.2 0-0.2-0.1-0.5-0.4-1.1-0.6-1.7-0.7-0.2 0-0.2 0-0.4 0h-93.4c-0.2 0-0.3 0-0.4 0-0.6 0.1-1.2 0.3-1.7 0.7 0 0.1-0.1 0.1-0.2 0.1-0.1 0.1 0 0.2-0.1 0.2-0.4 0.5-0.7 1.2-0.8 1.9 0 0.1 0 0.1 0 0.1 0 0.1 0 0.1 0 0.1v75c0 1.7 1.4 3.1 3.1 3.1h93.6c1.7 0 3.1-1.4 3.1-3.1v-75c0 0 0-0.1 0-0.1zM87.9 15.6l-37.9 30.5-38-30.5h75.9zM93.7 81.2c0 1.8-1.4 3.2-3.2 3.2h-81c-1.8 0-3.2-1.4-3.2-3.2v-62.3l41.4 33.1c0 0.1 0 0.1 0.1 0.2 0.6 0.6 1.4 0.9 2.2 0.9s1.6-0.3 2.2-0.9c0.1-0.1 0.1-0.1 0.1-0.2l41.4-33.1v62.3z"></path>
</svg>
