<?xml version="1.0" encoding="utf-8"?>
<!-- Generated by IcoMoon.io -->
<!DOCTYPE svg PUBLIC "-//W3C//DTD SVG 1.1//EN" "http://www.w3.org/Graphics/SVG/1.1/DTD/svg11.dtd">
<svg version="1.1" xmlns="http://www.w3.org/2000/svg" xmlns:xlink="http://www.w3.org/1999/xlink" width="100" height="100" viewBox="0 0 100 100">
<path d="M74.2 18.7h-8.5c-0.1 0-0.1 0-0.1 0h-56.2c-5.2 0-9.4 4.2-9.4 9.4v31.3c0 5.1 4.2 9.3 9.4 9.3h10.4l5.2 31.3 25-12.5-4.7-18.8h10.9v0.1h18l25.8 18.7v-87.5l-25.8 18.7zM29.8 90.6l-3.7-21.8h12.8l3.8 15.3-12.9 6.5zM56.2 62.5h-46.8c-1.8 0-3.2-1.4-3.2-3.1v-31.3c0-1.7 1.4-3.1 3.2-3.1h46.8v37.5zM68.7 62.5h-6.2v-37.5h6.2v37.5zM93.7 75l-18.7-13.4v-35.7l18.7-13.4v62.5z"></path>
</svg>
