<?xml version="1.0" encoding="utf-8"?>
<!-- Generated by IcoMoon.io -->
<!DOCTYPE svg PUBLIC "-//W3C//DTD SVG 1.1//EN" "http://www.w3.org/Graphics/SVG/1.1/DTD/svg11.dtd">
<svg version="1.1" xmlns="http://www.w3.org/2000/svg" xmlns:xlink="http://www.w3.org/1999/xlink" width="100" height="100" viewBox="0 0 100 100">
<path d="M50 96.9c4.1 0 7.4-2.7 8.7-6.3h-17.4c1.2 3.6 4.6 6.3 8.7 6.3zM87.5 78.1h-3.1v-43.7c0-13.8-11.2-25-25-25h-3.2c0-3.5-2.7-6.3-6.2-6.3s-6.3 2.8-6.3 6.3h-3.1c-13.8 0-25 11.2-25 25v43.7h-3.1c-1.7 0-3.1 1.4-3.1 3.1s1.4 3.2 3.1 3.2h75c1.7 0 3.1-1.4 3.1-3.2s-1.4-3.1-3.1-3.1zM78.1 78.1h-56.2v-43.7c0-10.4 8.4-18.8 18.7-18.8h18.8c10.3 0 18.7 8.4 18.7 18.8v43.7z"></path>
</svg>
