<?xml version="1.0" encoding="utf-8"?>
<!-- Generated by IcoMoon.io -->
<!DOCTYPE svg PUBLIC "-//W3C//DTD SVG 1.1//EN" "http://www.w3.org/Graphics/SVG/1.1/DTD/svg11.dtd">
<svg version="1.1" xmlns="http://www.w3.org/2000/svg" xmlns:xlink="http://www.w3.org/1999/xlink" width="100" height="100" viewBox="0 0 100 100">
<path d="M50 75c12.1 0 21.9-9.8 21.9-21.9v-31.2c0-12.1-9.8-21.9-21.9-21.9s-21.9 9.8-21.9 21.9v31.2c0 12.1 9.8 21.9 21.9 21.9zM34.4 21.9c0-8.7 7-15.7 15.6-15.7s15.6 7 15.6 15.7v31.2c0 8.7-7 15.6-15.6 15.6s-15.6-6.9-15.6-15.6v-31.2zM78.1 50v6.2c0 13.8-11.2 25-25 25h-6.2c-13.8 0-25-11.2-25-25v-6.2h-6.3v6.2c0 17.3 14 31.3 31.3 31.3v6.2h-3.2c-1.7 0-3.1 1.4-3.1 3.2s1.4 3.1 3.1 3.1h12.5c1.8 0 3.2-1.4 3.2-3.1s-1.4-3.2-3.2-3.2h-3.1v-6.2c17.3 0 31.3-14 31.3-31.3v-6.2h-6.3z"></path>
</svg>
