<?xml version="1.0" encoding="utf-8"?>
<!-- Generated by IcoMoon.io -->
<!DOCTYPE svg PUBLIC "-//W3C//DTD SVG 1.1//EN" "http://www.w3.org/Graphics/SVG/1.1/DTD/svg11.dtd">
<svg version="1.1" xmlns="http://www.w3.org/2000/svg" xmlns:xlink="http://www.w3.org/1999/xlink" width="100" height="100" viewBox="0 0 100 100">
<path d="M50 0l-50 31.2v68.8h100v-68.8l-50-31.2zM50 6.2l42.5 27.3-43.9 33.3-11.1-9-4.7-4.7-0.5 0.6-24.9-20.1 42.6-27.4zM6.2 40.8l22.3 17.9-22.3 28.6v-46.5zM9.5 93.7l24.1-30.9 13.2 10.7 1.5 1.5 0.1-0.2 0.2 0.2 1.1-1.1 15.9-12.1 24.9 31.9h-81zM93.7 87.3l-22.8-29.5 22.8-17.3v46.8z"></path>
</svg>
