<?xml version="1.0" encoding="utf-8"?>
<!-- Generated by IcoMoon.io -->
<!DOCTYPE svg PUBLIC "-//W3C//DTD SVG 1.1//EN" "http://www.w3.org/Graphics/SVG/1.1/DTD/svg11.dtd">
<svg version="1.1" xmlns="http://www.w3.org/2000/svg" xmlns:xlink="http://www.w3.org/1999/xlink" width="100" height="100" viewBox="0 0 100 100">
<path d="M71.9 75h-43.8c-1.7 0-3.1 1.4-3.1 3.1s1.4 3.1 3.1 3.1h43.8c1.7 0 3.1-1.4 3.1-3.1s-1.4-3.1-3.1-3.1zM28.1 25h25c1.7 0 3.1-1.4 3.1-3.1 0-1.8-1.4-3.2-3.1-3.2h-25c-1.7 0-3.1 1.4-3.1 3.2 0 1.7 1.4 3.1 3.1 3.1zM71.9 56.2h-43.8c-1.7 0-3.1 1.4-3.1 3.2s1.4 3.1 3.1 3.1h43.8c1.7 0 3.1-1.4 3.1-3.1s-1.4-3.2-3.1-3.2zM71.9 37.5h-43.8c-1.7 0-3.1 1.4-3.1 3.1s1.4 3.1 3.1 3.1h43.8c1.7 0 3.1-1.4 3.1-3.1s-1.4-3.1-3.1-3.1zM81.2 0h-62.5c-3.4 0-6.2 2.8-6.2 6.2v87.5c0 3.5 2.8 6.3 6.2 6.3h62.5c3.5 0 6.3-2.8 6.3-6.3v-87.5c0-3.4-2.8-6.2-6.3-6.2zM81.2 90.6c0 1.7-1.4 3.1-3.1 3.1h-56.2c-1.8 0-3.2-1.4-3.2-3.1v-81.2c0-1.8 1.4-3.2 3.2-3.2h56.2c1.7 0 3.1 1.4 3.1 3.2v81.2z"></path>
</svg>
