<?xml version="1.0" encoding="utf-8"?>
<!-- Generated by IcoMoon.io -->
<!DOCTYPE svg PUBLIC "-//W3C//DTD SVG 1.1//EN" "http://www.w3.org/Graphics/SVG/1.1/DTD/svg11.dtd">
<svg version="1.1" xmlns="http://www.w3.org/2000/svg" xmlns:xlink="http://www.w3.org/1999/xlink" width="100" height="100" viewBox="0 0 100 100">
<path d="M87.5 81.2h-50v6.3h50v-6.3zM87.5 12.5h-50v6.2h50v-6.2zM25 0v43.7h-25v43.8c0 6.9 5.6 12.5 12.5 12.5h75c6.9 0 12.5-5.6 12.5-12.5v-87.5h-75zM25 81.3v12.5h-12.5c-3.5 0-6.3-2.9-6.3-6.3v-37.5h18.8v31.3zM93.7 87.5c0 3.4-2.8 6.3-6.2 6.3h-56.3v-87.6h62.5v81.3zM87.5 25h-50v37.5h50v-37.5zM81.2 56.3h-37.4v-25.1h37.4v25.1zM87.5 68.7h-50v6.3h50v-6.3z"></path>
</svg>
