<?xml version="1.0" encoding="utf-8"?>
<!-- Generated by IcoMoon.io -->
<!DOCTYPE svg PUBLIC "-//W3C//DTD SVG 1.1//EN" "http://www.w3.org/Graphics/SVG/1.1/DTD/svg11.dtd">
<svg version="1.1" xmlns="http://www.w3.org/2000/svg" xmlns:xlink="http://www.w3.org/1999/xlink" width="100" height="100" viewBox="0 0 100 100">
<path d="M100 54.7c0-28.5-23.1-54.7-51.6-54.7-4.8 0-4.7-0.1-10.8 0h-0.1v12.5c-19.6 4.3-37.5 22.8-37.5 43.8v6.2h0.6c3.1 21.2 21.1 37.5 43.1 37.5 12 0 22.8-4.9 30.7-12.7l5.4 2.6 3.8 2.4c1.3-1.1 2.5-2.4 3.6-3.7l0.3-0.1-0.1-0.1c7.8-9 12.6-20.8 12.6-33.7zM37.5 18.8v37.5h-31.3c0-17.5 15.1-33.4 31.3-37.5zM43.7 93.8c-18.5 0-33.8-13.6-36.8-31.3h30.6l31.5 21.3c-6.6 6.2-15.5 10-25.3 10zM82.1 85l-3.6-2.3-5.3-3.4-29.5-21.5v-51.5c1.3 0 2.4 0 4.7 0 25.1 0 45.3 23.4 45.3 48.4 0 11.7-4.4 22.3-11.6 30.3z"></path>
</svg>
