<?xml version="1.0" encoding="utf-8"?>
<!-- Generated by IcoMoon.io -->
<!DOCTYPE svg PUBLIC "-//W3C//DTD SVG 1.1//EN" "http://www.w3.org/Graphics/SVG/1.1/DTD/svg11.dtd">
<svg version="1.1" xmlns="http://www.w3.org/2000/svg" xmlns:xlink="http://www.w3.org/1999/xlink" width="100" height="100" viewBox="0 0 100 100">
<path d="M84.4 12.5h-31.3c0-6.9-5.6-12.5-12.5-12.5h-25c-6.9 0-12.5 5.6-12.5 12.5v75c0 6.9 5.6 12.5 12.5 12.5h68.8c6.9 0 12.5-5.6 12.5-12.5v-62.5c0-6.9-5.6-12.5-12.5-12.5zM90.6 43.7v43.8c0 3.5-2.8 6.2-6.2 6.2h-68.8c-3.4 0-6.2-2.7-6.2-6.2v-50h81.2v6.2zM90.6 31.2h-81.2v-18.7c0-3.5 2.8-6.3 6.2-6.3h25c3.5 0 6.3 2.8 6.3 6.3v6.2h37.5c3.4 0 6.2 2.8 6.2 6.3v6.2zM37.5 68.7h9.4v9.4c0 1.7 1.4 3.1 3.1 3.1s3.1-1.4 3.1-3.1v-9.4h9.4c1.7 0 3.1-1.4 3.1-3.1s-1.4-3.1-3.1-3.1h-9.4v-9.4c0-1.7-1.4-3.1-3.1-3.1s-3.1 1.4-3.1 3.1v9.4h-9.4c-1.7 0-3.1 1.4-3.1 3.1s1.4 3.1 3.1 3.1z"></path>
</svg>
