<?xml version="1.0" encoding="utf-8"?>
<!-- Generated by IcoMoon.io -->
<!DOCTYPE svg PUBLIC "-//W3C//DTD SVG 1.1//EN" "http://www.w3.org/Graphics/SVG/1.1/DTD/svg11.dtd">
<svg version="1.1" xmlns="http://www.w3.org/2000/svg" xmlns:xlink="http://www.w3.org/1999/xlink" width="100" height="100" viewBox="0 0 100 100">
<path d="M41.2 79.7c0.1 0.1 0.1 0.3 0.2 0.4 0.6 0.6 1.5 0.9 2.3 0.9 0.5 0 0.9-0.3 1.3-0.6 0.3-0.1 0.6-0.1 0.9-0.3l25-24.8c1.2-1.2 1.2-3.2 0-4.4s-3.2-1.2-4.5 0l-22.6 22.4-10.7-9.9c-1.2-1.3-3.1-1.3-4.3 0-1.1 1.4-1.1 3.5 0 4.9l12.4 11.4zM84.4 12.5h-31.3c0-6.9-5.6-12.5-12.5-12.5h-25c-6.9 0-12.5 5.6-12.5 12.5v75c0 6.9 5.6 12.5 12.5 12.5h68.8c6.9 0 12.5-5.6 12.5-12.5v-62.5c0-6.9-5.6-12.5-12.5-12.5zM90.6 43.7v43.8c0 3.5-2.8 6.2-6.2 6.2h-68.8c-3.4 0-6.2-2.7-6.2-6.2v-50h81.2v6.2zM90.6 31.2h-81.2v-18.7c0-3.5 2.8-6.3 6.2-6.3h25c3.5 0 6.3 2.8 6.3 6.3v6.2h37.5c3.4 0 6.2 2.8 6.2 6.3v6.2z"></path>
</svg>
