<?xml version="1.0" encoding="utf-8"?>
<!-- Generated by IcoMoon.io -->
<!DOCTYPE svg PUBLIC "-//W3C//DTD SVG 1.1//EN" "http://www.w3.org/Graphics/SVG/1.1/DTD/svg11.dtd">
<svg version="1.1" xmlns="http://www.w3.org/2000/svg" xmlns:xlink="http://www.w3.org/1999/xlink" width="100" height="100" viewBox="0 0 100 100">
<path d="M25 75h31.2v-6.3h-31.2v6.3zM25 62.5h50v-6.3h-50v6.3zM25 50h50v-6.3h-50v6.3zM71.9 12.5v-6.3h-9.4c0-3.4-2.8-6.2-6.3-6.2h-12.5c-3.4 0-6.2 2.8-6.2 6.2h-9.4v6.3h-21.9v87.5h87.5v-87.5h-21.8zM34.4 12.5h9.3v-3.1c0-1.8 1.4-3.2 3.2-3.2h6.2c1.7 0 3.1 1.4 3.1 3.2v3.1h9.4v12.5h-31.2v-12.5zM87.5 93.8h-75v-75.1h15.6v12.5h43.8v-12.5h15.6v75.1z"></path>
</svg>
