<?xml version="1.0" encoding="utf-8"?>
<!-- Generated by IcoMoon.io -->
<!DOCTYPE svg PUBLIC "-//W3C//DTD SVG 1.1//EN" "http://www.w3.org/Graphics/SVG/1.1/DTD/svg11.dtd">
<svg version="1.1" xmlns="http://www.w3.org/2000/svg" xmlns:xlink="http://www.w3.org/1999/xlink" width="100" height="100" viewBox="0 0 100 100">
<path d="M46.9 0c-3.2 0-6.4 0.3-9.4 0.9v12.2c-21.2 3.1-37.5 21.1-37.5 43.1 0 24.2 19.6 43.8 43.7 43.8 12 0 22.8-5 30.6-12.8l2.3 1.6 0.9-0.3c-0.1 0.1-0.2 0.3-0.4 0.4l5.4 3.6c10.7-9.7 17.5-23.8 17.5-39.4 0-29.3-23.8-53.1-53.1-53.1zM43.7 93.7c-20.7 0-37.5-16.7-37.5-37.5 0-18.5 13.6-33.8 31.3-36.8v42l-0.1 0.1h0.1v1h1.4l30.3 21.1c-6.7 6.2-15.6 10.1-25.5 10.1zM81.7 84.4l-38-26.4v-51.4c1.1-0.1 2.1-0.4 3.2-0.4 25.9 0 46.8 21 46.8 46.9 0 12.1-4.5 23-12 31.3z"></path>
</svg>
