<?xml version="1.0" encoding="utf-8"?>
<!-- Generated by IcoMoon.io -->
<!DOCTYPE svg PUBLIC "-//W3C//DTD SVG 1.1//EN" "http://www.w3.org/Graphics/SVG/1.1/DTD/svg11.dtd">
<svg version="1.1" xmlns="http://www.w3.org/2000/svg" xmlns:xlink="http://www.w3.org/1999/xlink" width="100" height="100" viewBox="0 0 100 100">
<path d="M62.5 34.4c0 0 6.2-3.2 12.5-3.2s9.4 3.2 9.4 3.2v-6.3c0 0-3.5-3.1-10-3.1-6 0-11.9 3.1-11.9 3.1v6.3zM15.6 46.9v6.2c0 0 3.1-3.1 9.4-3.1s12.5 3.1 12.5 3.1v-6.2c0 0-6.6-3.2-13.1-3.2-6 0-8.8 3.2-8.8 3.2zM15.6 65.6v6.3c0 0 3.1-3.2 9.4-3.2s12.5 3.2 12.5 3.2v-6.3c0 0-6.6-3.1-13.1-3.1-6 0-8.8 3.1-8.8 3.1zM15.6 28.1v6.3c0 0 3.1-3.2 9.4-3.2s12.5 3.2 12.5 3.2v-6.3c0 0-6.6-3.1-13.1-3.1-6 0-8.8 3.1-8.8 3.1zM62.5 46.9v6.2c0 0 6.2-3.1 12.5-3.1s9.4 3.1 9.4 3.1v-6.2c0 0-3.5-3.2-10-3.2-6 0-11.9 3.2-11.9 3.2zM62.5 65.6v6.3c0 0 6.2-3.2 12.5-3.2s9.4 3.2 9.4 3.2v-6.3c0 0-3.5-3.1-10-3.1-6 0-11.9 3.1-11.9 3.1zM72.1 3.1c-11.5 0-22.1 6.3-22.1 6.3s-10.6-6.3-22.1-6.3c-13.4 0-24.8 6.3-24.8 6.3v87.5c0 0 11.9-6.3 25.4-6.3 11.2 0 21.5 6.3 21.5 6.3s10.3-6.3 21.5-6.3c13.5 0 25.4 6.3 25.4 6.3v-87.5c0 0-11.4-6.3-24.8-6.3zM46.9 86.7c-4.1-0.9-11.6-2.3-19.1-2.3-10.8 0-18.4 3.1-18.4 3.1v-71.9c0 0 7.8-6.2 18.7-6.2 7.4 0 14.8 2.8 18.8 4.7v72.6zM90.6 87.5c0 0-7.6-3.1-18.4-3.1-7.5 0-15 1.4-19.1 2.3v-72.6c4-1.9 11.4-4.7 18.8-4.7 10.9 0 18.7 6.2 18.7 6.2v71.9z"></path>
</svg>
