<?xml version="1.0" encoding="utf-8"?>
<!-- Generated by IcoMoon.io -->
<!DOCTYPE svg PUBLIC "-//W3C//DTD SVG 1.1//EN" "http://www.w3.org/Graphics/SVG/1.1/DTD/svg11.dtd">
<svg version="1.1" xmlns="http://www.w3.org/2000/svg" xmlns:xlink="http://www.w3.org/1999/xlink" width="100" height="100" viewBox="0 0 100 100">
<path d="M87.5 15.6h-18.8v-9.4c0-1.7-1.4-3.1-3.1-3.1h-31.2c-1.8 0-3.2 1.4-3.2 3.1v9.4h-18.7c-6.9 0-12.5 5.6-12.5 12.5v56.3c0 6.9 5.6 12.5 12.5 12.5h75c6.9 0 12.5-5.6 12.5-12.5v-56.3c0-6.9-5.6-12.5-12.5-12.5zM37.5 15.6v-6.2h25v6.2h-25zM93.7 84.4c0 3.4-2.7 6.2-6.2 6.2h-75c-3.5 0-6.3-2.8-6.3-6.2v-37.5h87.5v37.5zM93.7 40.6h-87.5v-12.5c0-3.4 2.8-6.2 6.3-6.2h75c3.5 0 6.2 2.8 6.2 6.2v12.5z"></path>
</svg>
