<?xml version="1.0" encoding="utf-8"?>
<!-- Generated by IcoMoon.io -->
<!DOCTYPE svg PUBLIC "-//W3C//DTD SVG 1.1//EN" "http://www.w3.org/Graphics/SVG/1.1/DTD/svg11.dtd">
<svg version="1.1" xmlns="http://www.w3.org/2000/svg" xmlns:xlink="http://www.w3.org/1999/xlink" width="100" height="100" viewBox="0 0 100 100">
<path d="M62.5 6.3v62.6c0 10.4-8.4 18.8-18.7 18.8-10.4 0-18.8-8.4-18.8-18.8v-56.4c0 0 0-0.1 0-0.2 0-6.9 5.6-12.5 12.5-12.5s12.5 5.6 12.5 12.5c0 0.1 0 0.2 0 0.2v0 56.4c0 3.5-2.8 6.3-6.2 6.3s-6.3-2.8-6.3-6.3v-50.1h-6.2v50.1c0.1 6.8 5.6 12.3 12.5 12.3 6.8 0 12.3-5.5 12.4-12.3h0.1v-56.4c0-10.3-8.4-18.8-18.8-18.8s-18.7 8.5-18.7 18.8v56.4c0.1 13.7 11.2 24.9 24.9 24.9 13.8 0 24.9-11.2 25-24.9h0.1v-62.6h-6.3z"></path>
</svg>
