<?xml version="1.0" encoding="utf-8"?>
<!-- Generated by IcoMoon.io -->
<!DOCTYPE svg PUBLIC "-//W3C//DTD SVG 1.1//EN" "http://www.w3.org/Graphics/SVG/1.1/DTD/svg11.dtd">
<svg version="1.1" xmlns="http://www.w3.org/2000/svg" xmlns:xlink="http://www.w3.org/1999/xlink" width="100" height="100" viewBox="0 0 100 100">
<path d="M31.2 62.5h56.3v-6.3h-56.3v6.3zM31.2 81.2h56.3v-6.2h-56.3v6.2zM81.2 18.7h-43.7c-3.5 0-6.3 2.8-6.3 6.2v12.5c0 3.5 2.8 6.3 6.3 6.3h43.7c3.5 0 6.3-2.8 6.3-6.3v-12.5c0-3.4-2.8-6.2-6.3-6.2zM81.2 34.3c0 1.7-1.4 3.1-3.1 3.1h-37.5c-1.7 0-3.1-1.4-3.1-3.1v-6.3c0-1.7 1.4-3.1 3.1-3.1h37.5c1.7 0 3.1 1.4 3.1 3.1v6.3zM90.6 0h-62.5c-5.2 0-9.4 4.3-9.4 9.7v15.2h-9.3c-5.2 0-9.4 4.2-9.4 9.4v56.3c0 5.2 4.2 9.4 9.4 9.4h81.2c5.2 0 9.4-4.3 9.4-9.7v-80.6c0-5.4-4.2-9.7-9.4-9.7zM93.7 90.3c0 1.8-1.4 3.2-3.1 3.2l-81.2 0.2c-1.8 0-3.2-1.4-3.2-3.1v-56.4c0-1.8 1.4-3.2 3.2-3.2h9.3v55.9h6.3v-77.4c0-1.8 1.4-3.3 3.1-3.3h62.5c1.7 0 3.1 1.5 3.1 3.3v80.8z"></path>
</svg>
