<?xml version="1.0" encoding="utf-8"?>
<!-- Generated by IcoMoon.io -->
<!DOCTYPE svg PUBLIC "-//W3C//DTD SVG 1.1//EN" "http://www.w3.org/Graphics/SVG/1.1/DTD/svg11.dtd">
<svg version="1.1" xmlns="http://www.w3.org/2000/svg" xmlns:xlink="http://www.w3.org/1999/xlink" width="100" height="100" viewBox="0 0 100 100">
<path d="M18.7 50h43.8c3.5 0 6.2-2.8 6.2-6.3v-18.7c0-3.5-2.7-6.3-6.2-6.3h-43.8c-3.4 0-6.2 2.8-6.2 6.3v18.7c0 3.5 2.8 6.3 6.2 6.3zM18.7 28.1c0-1.7 1.4-3.1 3.2-3.1h37.5c1.7 0 3.1 1.4 3.1 3.1v12.5c0 1.7-1.4 3.1-3.1 3.1h-37.5c-1.8 0-3.2-1.4-3.2-3.1v-12.5zM15.6 68.7h50c1.7 0 3.1-1.4 3.1-3.1s-1.4-3.1-3.1-3.1h-50c-1.7 0-3.1 1.4-3.1 3.1s1.4 3.1 3.1 3.1zM93.7 0h-87.5c-3.4 0-6.2 2.8-6.2 6.2v87.5c0 3.5 2.8 6.3 6.2 6.3h87.5c3.5 0 6.3-2.8 6.3-6.3v-87.5c0-3.4-2.8-6.2-6.3-6.2zM75 18.7v75h-65.6c-1.8 0-3.2-1.4-3.2-3.1v-81.2c0-1.8 1.4-3.2 3.2-3.2h65.6v12.5zM93.7 90.6c0 1.7-1.4 3.1-3.1 3.1h-9.4v-12.5h6.3v-12.5h-6.3v-12.5h6.3v-12.5h-6.3v-12.5h6.3v-12.5h-6.3v-12.5h9.4c1.7 0 3.1 1.4 3.1 3.2v81.2zM15.6 81.2h50c1.7 0 3.1-1.4 3.1-3.1s-1.4-3.1-3.1-3.1h-50c-1.7 0-3.1 1.4-3.1 3.1s1.4 3.1 3.1 3.1z"></path>
</svg>
