<?xml version="1.0" encoding="utf-8"?>
<!-- Generated by IcoMoon.io -->
<!DOCTYPE svg PUBLIC "-//W3C//DTD SVG 1.1//EN" "http://www.w3.org/Graphics/SVG/1.1/DTD/svg11.dtd">
<svg version="1.1" xmlns="http://www.w3.org/2000/svg" xmlns:xlink="http://www.w3.org/1999/xlink" width="100" height="100" viewBox="0 0 100 100">
<path d="M45.7 65.5l-10.6 10.6c-1.2 1.2-1.2 3.1 0 4.2 1.1 1.2 3 1.2 4.2 0l10.6-10.5 10.6 10.5c1.2 1.2 3 1.2 4.2 0s1.2-3 0-4.2l-10.6-10.6 10.6-10.6c1.2-1.1 1.2-3 0-4.2s-3-1.2-4.2 0l-10.6 10.6-10.6-10.6c-1.2-1.2-3.1-1.2-4.2 0-1.2 1.2-1.2 3.1 0 4.2l10.6 10.6zM84.4 12.5h-31.3c0-6.9-5.6-12.5-12.5-12.5h-25c-6.9 0-12.5 5.6-12.5 12.5v75c0 6.9 5.6 12.5 12.5 12.5h68.8c6.9 0 12.5-5.6 12.5-12.5v-62.5c0-6.9-5.6-12.5-12.5-12.5zM90.6 43.7v43.8c0 3.5-2.8 6.2-6.2 6.2h-68.8c-3.4 0-6.2-2.7-6.2-6.2v-50h81.2v6.2zM90.6 31.2h-81.2v-18.7c0-3.5 2.8-6.3 6.2-6.3h25c3.5 0 6.3 2.8 6.3 6.3v6.2h37.5c3.4 0 6.2 2.8 6.2 6.3v6.2z"></path>
</svg>
