<?xml version="1.0" encoding="utf-8"?>
<!-- Generated by IcoMoon.io -->
<!DOCTYPE svg PUBLIC "-//W3C//DTD SVG 1.1//EN" "http://www.w3.org/Graphics/SVG/1.1/DTD/svg11.dtd">
<svg version="1.1" xmlns="http://www.w3.org/2000/svg" xmlns:xlink="http://www.w3.org/1999/xlink" width="100" height="100" viewBox="0 0 100 100">
<path d="M20.8 39.7l26.1-28.6v67c0 1.7 1.4 3.1 3.1 3.1s3.1-1.4 3.1-3.1v-67l26.1 28.6c1.2 1.2 3.1 1.2 4.3 0s1.2-3.1 0-4.3l-31.1-34.2c-0.1-0.1-0.1-0.1-0.1-0.2 0 0 0-0.1-0.1-0.1 0-0.1-0.1 0-0.1-0.1-0.5-0.4-1.2-0.7-2-0.8 0 0 0 0-0.1 0 0 0 0 0 0 0s0 0 0 0c-0.1 0-0.2 0-0.2 0-0.6 0.1-1.2 0.3-1.6 0.7-0.1 0.1-0.3 0.1-0.4 0.2s-0.1 0.2-0.2 0.3c0 0.1-0.1 0.1-0.1 0.2l-31 34c-1.2 1.2-1.2 3.1 0 4.3s3.1 1.2 4.3 0zM87.5 93.7h-75c-1.7 0-3.1 1.4-3.1 3.2 0 1.7 1.4 3.1 3.1 3.1h75c1.7 0 3.1-1.4 3.1-3.1 0-1.8-1.4-3.2-3.1-3.2z"></path>
</svg>
