<?xml version="1.0" encoding="utf-8"?>
<!-- Generated by IcoMoon.io -->
<!DOCTYPE svg PUBLIC "-//W3C//DTD SVG 1.1//EN" "http://www.w3.org/Graphics/SVG/1.1/DTD/svg11.dtd">
<svg version="1.1" xmlns="http://www.w3.org/2000/svg" xmlns:xlink="http://www.w3.org/1999/xlink" width="100" height="100" viewBox="0 0 100 100">
<path d="M87.5 0h-75l-12.5 56.2v37.5c0 3.5 2.8 6.3 6.2 6.3h87.5c3.5 0 6.3-2.8 6.3-6.3v-37.5l-12.5-56.2zM93.7 90.6c0 1.7-1.4 3.1-3.1 3.1h-81.2c-1.8 0-3.2-1.4-3.2-3.1v-25c0-1.7 1.4-3.1 3.2-3.1h15.6v12.5h50v-12.5h15.6c1.7 0 3.1 1.4 3.1 3.1v25zM68.7 56.2v12.5h-37.5v-12.5h-25l12.5-50h62.5l12.5 50h-25z"></path>
</svg>
