<?xml version="1.0" encoding="utf-8"?>
<!-- Generated by IcoMoon.io -->
<!DOCTYPE svg PUBLIC "-//W3C//DTD SVG 1.1//EN" "http://www.w3.org/Graphics/SVG/1.1/DTD/svg11.dtd">
<svg version="1.1" xmlns="http://www.w3.org/2000/svg" xmlns:xlink="http://www.w3.org/1999/xlink" width="100" height="100" viewBox="0 0 100 100">
<path d="M93.7 93.8h-87.5v-87.5h56.3v-6.3h-56.3c-3.4 0-6.2 2.8-6.2 6.3v87.5c0 3.4 2.8 6.2 6.2 6.2h87.5c3.5 0 6.3-2.8 6.3-6.2v-62.5h-6.3v62.5zM21.7 60v0.2l-6.1 20.3 4.4 3.9 19.5-6.8 0.2 0.1h1l47.1-46.6 9.7-9.8c3.7-3.7 3.1-11-0.6-14.7l-4.2-3.9c-3.7-3.7-10.1-3.7-13.7 0l-9.1 10.5-48.2 45.6v1.2zM83 6.6c0.6-0.6 1.5-0.9 2.3-0.9s2.2 0.9 2.8 1.5l5 5.1c1.2 1.3 1.2 3.3 0 4.5l-7.1 7.1-10.1-10.3 7.1-7zM72.6 17.9l9.6 9.8-43.7 43.5-9.9-10 44-43.3zM25.9 65.7l8.5 8.3-12.5 4.2 4-12.5z"></path>
</svg>
