<?xml version="1.0" encoding="utf-8"?>
<!-- Generated by IcoMoon.io -->
<!DOCTYPE svg PUBLIC "-//W3C//DTD SVG 1.1//EN" "http://www.w3.org/Graphics/SVG/1.1/DTD/svg11.dtd">
<svg version="1.1" xmlns="http://www.w3.org/2000/svg" xmlns:xlink="http://www.w3.org/1999/xlink" width="100" height="100" viewBox="0 0 100 100">
<path d="M93.7 3.1h-87.5c-3.4 0-6.2 2.8-6.2 6.3v25c0 3.4 2.8 6.2 6.2 6.2v50c0 3.5 2.8 6.3 6.3 6.3h75c3.5 0 6.2-2.8 6.2-6.3v-50c3.5 0 6.3-2.8 6.3-6.2v-25c0-3.5-2.8-6.3-6.3-6.3zM87.5 87.5c0 1.7-1.4 3.1-3.1 3.1h-68.8c-1.7 0-3.1-1.4-3.1-3.1v-43.8c0-1.7 1.4-3.1 3.1-3.1h15.6v12.5c0 3.5 2.8 6.3 6.3 6.3h25c3.5 0 6.2-2.8 6.2-6.3v-12.5h15.7c1.7 0 3.1 1.4 3.1 3.1v43.8zM37.5 50v-9.4h25v9.4c0 1.7-1.4 3.1-3.1 3.1h-18.8c-1.7 0-3.1-1.4-3.1-3.1zM93.7 31.2c0 1.8-1.4 3.2-3.1 3.2h-81.2c-1.8 0-3.2-1.4-3.2-3.2v-18.7c0-1.7 1.4-3.1 3.2-3.1h81.2c1.7 0 3.1 1.4 3.1 3.1v18.7z"></path>
</svg>
