<?xml version="1.0" encoding="utf-8"?>
<!-- Generated by IcoMoon.io -->
<!DOCTYPE svg PUBLIC "-//W3C//DTD SVG 1.1//EN" "http://www.w3.org/Graphics/SVG/1.1/DTD/svg11.dtd">
<svg version="1.1" xmlns="http://www.w3.org/2000/svg" xmlns:xlink="http://www.w3.org/1999/xlink" width="100" height="100" viewBox="0 0 100 100">
<path d="M37.5 31.2c0 0 0 0 0 0h-6.3v6.3c0 0 0 0 0 0v0 6.2h12.5v-12.5h-6.2c0 0 0 0 0 0zM18.7 31.2c0 0 0 0 0 0h-6.2v12.5h12.5v-12.5h-6.2c0 0 0 0-0.1 0zM96.9 18.7h-21.9v-18.7h-50v18.7h-21.9c-1.7 0-3.1 1.4-3.1 3.2v56.2c0 1.7 1.4 3.1 3.1 3.1h21.9v18.8h50v-18.8h21.9c1.7 0 3.1-1.4 3.1-3.1v-56.2c0-1.8-1.4-3.2-3.1-3.2zM31.2 6.2h37.5v12.5h-37.5v-12.5zM68.7 93.8h-37.5v-31.3h37.5v31.3zM93.7 71.9c0 1.7-1.4 3.1-3.1 3.1h-15.6v-18.8h-50v18.8h-15.6c-1.8 0-3.2-1.4-3.2-3.1v-43.8c0-1.7 1.4-3.1 3.2-3.1h81.2c1.7 0 3.1 1.4 3.1 3.1v43.8z"></path>
</svg>
