<?xml version="1.0" encoding="utf-8"?>
<!-- Generated by IcoMoon.io -->
<!DOCTYPE svg PUBLIC "-//W3C//DTD SVG 1.1//EN" "http://www.w3.org/Graphics/SVG/1.1/DTD/svg11.dtd">
<svg version="1.1" xmlns="http://www.w3.org/2000/svg" xmlns:xlink="http://www.w3.org/1999/xlink" width="100" height="100" viewBox="0 0 100 100">
<path d="M96.9 6.2h-93.8c-1.7 0-3.1 1.4-3.1 3.2 0 1.7 1.4 3.1 3.1 3.1h3.1v56.2c0 3.5 2.8 6.3 6.3 6.3h27l-7.8 14.3c-0.9 1.4-0.4 3.2 1.3 4.1 1.6 0.8 3.8 0.3 4.7-1.1l8.7-16c0.3-0.4 0.4-0.9 0.4-1.3h6.4c0 0.4 0.1 0.9 0.4 1.3l8.7 16c0.9 1.4 3.1 1.9 4.7 1.1s2.2-2.7 1.3-4.1l-7.8-14.3h27c3.5 0 6.2-2.8 6.2-6.3v-56.2h3.2c1.7 0 3.1-1.4 3.1-3.1 0-1.8-1.4-3.2-3.1-3.2zM87.5 18.7v46.9c0 1.7-1.4 3.1-3.1 3.1h-68.8c-1.7 0-3.1-1.4-3.1-3.1v-50c0 0 0 0 0 0v-3.1h3.1c0 0 0 0 0 0h68.8c0 0 0 0 0 0h3.1v6.2zM79.7 24.8c-1.5-0.9-3.4-0.4-4.3 1.1l-19.3 17.7-15.2-10.9c-0.8-1.2-2.4-1.7-3.8-1.4-0.3 0.1-0.6 0.1-0.8 0.2-0.1 0.1-0.1 0.1-0.2 0.1 0 0-0.1 0.1-0.1 0.1-0.3 0.1-0.4 0.3-0.6 0.5-0.2 0.1-0.4 0.3-0.5 0.5 0 0-0.1 0.1-0.1 0.1l-15.6 18.7c-0.9 1.5-0.4 3.4 1.1 4.3s3.4 0.3 4.3-1.2l13.8-16.4 14.5 10.3c0.3 0.5 0.8 0.8 1.3 1.1 0.2 0.2 0.3 0.4 0.5 0.6 1.5 0.8 3.4 0.3 4.3-1.2l21.8-19.9c0.9-1.5 0.4-3.5-1.1-4.3z"></path>
</svg>
