<?xml version="1.0" encoding="utf-8"?>
<!-- Generated by IcoMoon.io -->
<!DOCTYPE svg PUBLIC "-//W3C//DTD SVG 1.1//EN" "http://www.w3.org/Graphics/SVG/1.1/DTD/svg11.dtd">
<svg version="1.1" xmlns="http://www.w3.org/2000/svg" xmlns:xlink="http://www.w3.org/1999/xlink" width="100" height="100" viewBox="0 0 100 100">
<path d="M99.9 30.6c-0.1-0.1-0.1-0.2-0.1-0.3-0.2-0.7-0.7-1.2-1.3-1.6 0-0.1 0-0.1-0.1-0.2 0 0-0.1 0-0.1 0-0.2-0.1-0.5-0.2-0.7-0.2-0.2-0.1-0.3-0.1-0.5-0.1-0.1 0-0.1-0.1-0.2-0.1h-9.4v-18.7c0-3.5-2.8-6.3-6.3-6.3h-75c-3.4 0-6.2 2.8-6.2 6.3v81.2c0 0.7 0.2 5.1 1.6 5.9 0.9 0.5 4 0.4 4.6 0.4h68.8l24.6-64.2c0.2-0.4 0.4-0.9 0.4-1.5 0-0.2-0.1-0.4-0.1-0.6zM6.2 12.5c0-1.7 1.4-3.1 3.2-3.1h68.7c1.7 0 3.1 1.4 3.1 3.1v15.6h-53.1c-0.2 0-0.3 0.1-0.5 0.1-0.1 0-0.3 0.1-0.4 0.1-0.3 0.1-0.5 0.2-0.7 0.4-0.1 0-0.2 0.1-0.3 0.2-0.3 0.1-0.4 0.4-0.6 0.6-0.1 0.1-0.1 0.1-0.2 0.2v0.1c-0.1 0.2-0.2 0.3-0.2 0.5l-19 47.4v-65.2zM69.8 90.6h-60.4c-0.6 0-1.1-0.2-1.5-0.4l22.3-55.8h62.1l-22.5 56.2z"></path>
</svg>
