<?xml version="1.0" encoding="utf-8"?>
<!-- Generated by IcoMoon.io -->
<!DOCTYPE svg PUBLIC "-//W3C//DTD SVG 1.1//EN" "http://www.w3.org/Graphics/SVG/1.1/DTD/svg11.dtd">
<svg version="1.1" xmlns="http://www.w3.org/2000/svg" xmlns:xlink="http://www.w3.org/1999/xlink" width="100" height="100" viewBox="0 0 100 100">
<path d="M23.1 54.9l-2.2 2.2-2.2 24.2 24.2-2.2 6.6-6.6 50.5-50.6-22-21.9-13.1 13.2-4.4 4.4-37.4 37.3zM78 8.8l13.2 13.1-8.8 8.8-13.1-13.1 8.7-8.8zM64.9 21.9l13.1 13.2-32.9 33-13.2-13.2 33-33zM27.5 59.3l13.2 13.2-15.4 2.2 2.2-15.4zM87.5 93.7h-81.3v-81.2h50v-6.3h-56.2v93.8h93.7v-56.3h-6.2v50z"></path>
</svg>
