<?xml version="1.0" encoding="utf-8"?>
<!-- Generated by IcoMoon.io -->
<!DOCTYPE svg PUBLIC "-//W3C//DTD SVG 1.1//EN" "http://www.w3.org/Graphics/SVG/1.1/DTD/svg11.dtd">
<svg version="1.1" xmlns="http://www.w3.org/2000/svg" xmlns:xlink="http://www.w3.org/1999/xlink" width="100" height="100" viewBox="0 0 100 100">
<path d="M90.6 25l-25-25h-53.1c-1.7 0-3.1 1.4-3.1 3.1v93.8c0 1.7 1.4 3.1 3.1 3.1h75c1.7 0 3.1-1.4 3.1-3.1v-71.9zM65.6 7.7l17.3 17.3h-17.3v-17.3zM84.4 90.6c0 1.7-1.4 3.1-3.2 3.1h-62.5c-1.7 0-3.1-1.4-3.1-3.1v-81.2c0-1.8 1.4-3.2 3.1-3.2h40.7v25h25v59.4z"></path>
</svg>
