<?xml version="1.0" encoding="utf-8"?>
<!-- Generated by IcoMoon.io -->
<!DOCTYPE svg PUBLIC "-//W3C//DTD SVG 1.1//EN" "http://www.w3.org/Graphics/SVG/1.1/DTD/svg11.dtd">
<svg version="1.1" xmlns="http://www.w3.org/2000/svg" xmlns:xlink="http://www.w3.org/1999/xlink" width="100" height="100" viewBox="0 0 100 100">
<path d="M59.4 28.1h12.5v-6.2h-12.5v6.2zM59.4 65.6h12.5v-6.2h-12.5v6.2zM59.4 40.6h12.5v-6.2h-12.5v6.2zM59.4 53.1h12.5v-6.2h-12.5v6.2zM40.6 59.4h-12.5v6.2h12.5v-6.2zM90.6 9.4h-6.2c0-3.5-2.8-6.3-6.3-6.3h-56.2c-3.5 0-6.3 2.8-6.3 6.3h-6.2c-3.5 0-6.3 2.8-6.3 6.2v75c0 3.5 2.8 6.3 6.3 6.3h81.2c3.5 0 6.3-2.8 6.3-6.3v-75c0-3.4-2.8-6.2-6.3-6.2zM53.1 9.4h21.9c1.7 0 3.1 1.4 3.1 3.1v62.5c0 1.7-1.4 3.1-3.1 3.1h-21.9v-68.7zM21.9 12.5c0-1.7 1.4-3.1 3.1-3.1h21.9v68.7h-21.9c-1.7 0-3.1-1.4-3.1-3.1v-62.5zM90.6 87.5c0 1.7-1.4 3.1-3.1 3.1h-75c-1.7 0-3.1-1.4-3.1-3.1v-68.8c0-1.7 1.4-3.1 3.1-3.1h3.1v62.5c0 3.5 2.8 6.3 6.3 6.3h56.2c3.5 0 6.3-2.8 6.3-6.3v-62.5h3.1c1.7 0 3.1 1.4 3.1 3.1v68.8zM40.6 46.9h-12.5v6.2h12.5v-6.2zM40.6 34.4h-12.5v6.2h12.5v-6.2zM40.6 21.9h-12.5v6.2h12.5v-6.2z"></path>
</svg>
