<?xml version="1.0" encoding="utf-8"?>
<!-- Generated by IcoMoon.io -->
<!DOCTYPE svg PUBLIC "-//W3C//DTD SVG 1.1//EN" "http://www.w3.org/Graphics/SVG/1.1/DTD/svg11.dtd">
<svg version="1.1" xmlns="http://www.w3.org/2000/svg" xmlns:xlink="http://www.w3.org/1999/xlink" width="100" height="100" viewBox="0 0 100 100">
<path d="M81.2 12.5h-62.5c-3.4 0-6.2 2.8-6.2 6.2v50c0 3.5 2.8 6.3 6.2 6.3h12.5v6.2c0 3.5 2.8 6.3 6.3 6.3h25c3.5 0 6.2-2.8 6.2-6.3v-6.2h12.5c3.5 0 6.3-2.8 6.3-6.3v-50c0-3.4-2.8-6.2-6.3-6.2zM81.2 65.6c0 1.7-1.4 3.1-3.1 3.1h-15.6v12.5h-25v-12.5h-15.6c-1.8 0-3.2-1.4-3.2-3.1v-43.7c0-1.8 1.4-3.2 3.2-3.2h56.2c1.7 0 3.1 1.4 3.1 3.2v43.7zM93.7 0h-87.5c-3.4 0-6.2 2.8-6.2 6.2v87.6c0 3.4 2.8 6.2 6.2 6.2h87.5c3.5 0 6.3-2.8 6.3-6.2v-87.6c0-3.4-2.8-6.2-6.3-6.2zM93.7 90.6c0 1.8-1.4 3.1-3.1 3.1h-81.2c-1.8 0-3.2-1.3-3.2-3.1v-81.2c0-1.8 1.4-3.2 3.2-3.2h81.2c1.7 0 3.1 1.4 3.1 3.2v81.2z"></path>
</svg>
