<?xml version="1.0" encoding="utf-8"?>
<!-- Generated by IcoMoon.io -->
<!DOCTYPE svg PUBLIC "-//W3C//DTD SVG 1.1//EN" "http://www.w3.org/Graphics/SVG/1.1/DTD/svg11.dtd">
<svg version="1.1" xmlns="http://www.w3.org/2000/svg" xmlns:xlink="http://www.w3.org/1999/xlink" width="100" height="100" viewBox="0 0 100 100">
<path d="M53.1 87.5h6.3v-31.3h-6.3v31.3zM40.6 87.5h6.3v-31.3h-6.3v31.3zM50 0l-34.4 28.1v65.7c0 3.4 2.8 6.2 6.3 6.2h56.2c3.5 0 6.3-2.8 6.3-6.2v-65.7l-34.4-28.1zM78.1 90.6c0 1.7-1.4 3.2-3.1 3.2h-50c-1.7 0-3.1-1.5-3.1-3.2v-59.4l28.1-25 28.1 25v59.4zM37.5 31.2c0 6.9 5.6 12.5 12.5 12.5s12.5-5.6 12.5-12.5c0-6.9-5.6-12.5-12.5-12.5s-12.5 5.6-12.5 12.5zM56.2 31.2c0 3.5-2.7 6.3-6.2 6.3s-6.3-2.8-6.3-6.3 2.8-6.2 6.3-6.2c3.5 0 6.2 2.8 6.2 6.2z"></path>
</svg>
