<?xml version="1.0" encoding="utf-8"?>
<!-- Generated by IcoMoon.io -->
<!DOCTYPE svg PUBLIC "-//W3C//DTD SVG 1.1//EN" "http://www.w3.org/Graphics/SVG/1.1/DTD/svg11.dtd">
<svg version="1.1" xmlns="http://www.w3.org/2000/svg" xmlns:xlink="http://www.w3.org/1999/xlink" width="100" height="100" viewBox="0 0 100 100">
<path d="M70.1 18.7c1.1-1.8 1.8-3.9 1.8-6.2 0-6.9-5.6-12.5-12.5-12.5-3.8 0-7.1 1.7-9.4 4.3-2.3-2.6-5.6-4.3-9.4-4.3-6.9 0-12.5 5.6-12.5 12.5 0 2.3 0.7 4.4 1.8 6.2h-26.8v18.8h6.3v62.5h81.2v-62.5h6.3v-18.8h-26.8zM59.4 6.2c3.4 0 6.2 2.8 6.2 6.3s-2.8 6.3-6.2 6.3-6.3-2.8-6.3-6.3c0-3.5 2.8-6.3 6.3-6.3zM40.6 6.2c3.5 0 6.3 2.8 6.3 6.3s-2.8 6.3-6.3 6.3-6.2-2.8-6.2-6.3c0-3.5 2.8-6.3 6.2-6.3zM46.9 93.7h-31.3v-25h31.3v25zM46.9 62.5h-31.3v-25h31.3v25zM84.4 93.7h-31.3v-25h31.3v25zM84.4 62.5h-31.3v-25h31.3v25zM90.6 31.2h-81.2v-6.2h81.2v6.2z"></path>
</svg>
