<?xml version="1.0" encoding="utf-8"?>
<!-- Generated by IcoMoon.io -->
<!DOCTYPE svg PUBLIC "-//W3C//DTD SVG 1.1//EN" "http://www.w3.org/Graphics/SVG/1.1/DTD/svg11.dtd">
<svg version="1.1" xmlns="http://www.w3.org/2000/svg" xmlns:xlink="http://www.w3.org/1999/xlink" width="100" height="100" viewBox="0 0 100 100">
<path d="M19.2 58.9l21.9 21.8 4.3-4.3-21.8-21.9-4.4 4.4zM52 0l-50.2 50.2c-2.5 2.4-2.5 6.3 0 8.7l39.3 39.3c2.4 2.4 6.3 2.4 8.7 0l50.2-50.2v-48h-48zM93.5 45.8l-45.9 45.8c-1.2 1.2-3.1 1.2-4.3 0l-35-34.9c-1.2-1.2-1.2-3.1 0-4.3l45.9-45.9 39.6-0.3-0.3 39.6zM83.9 33.9c4.9-4.9 4.9-12.9 0-17.8s-12.9-4.9-17.8 0-4.9 12.9 0 17.8 12.9 4.9 17.8 0zM70.7 20.5c2.4-2.5 6.4-2.5 8.8 0 2.5 2.4 2.5 6.4 0 8.8-2.4 2.5-6.4 2.5-8.8 0-2.5-2.4-2.5-6.4 0-8.8z"></path>
</svg>
