<?xml version="1.0" encoding="utf-8"?>
<!-- Generated by IcoMoon.io -->
<!DOCTYPE svg PUBLIC "-//W3C//DTD SVG 1.1//EN" "http://www.w3.org/Graphics/SVG/1.1/DTD/svg11.dtd">
<svg version="1.1" xmlns="http://www.w3.org/2000/svg" xmlns:xlink="http://www.w3.org/1999/xlink" width="100" height="100" viewBox="0 0 100 100">
<path d="M90.6 21.9l-23.6 14.1c-1.1-1-2.7-1.6-4.5-1.6h-25c-1.8 0-3.4 0.6-4.5 1.6l-23.6-14.1c-5.2 0-9.4 4.2-9.4 9.3v37.5c0 5.2 4.2 9.4 9.4 9.4l23.6-14.1c1.1 1 2.7 1.6 4.5 1.6h25c1.8 0 3.4-0.6 4.5-1.6l23.6 14.1c5.2 0 9.4-4.2 9.4-9.4v-37.5c0-5.1-4.2-9.3-9.4-9.3zM31.2 46.9h-9.3c-1.8 0-3.2 1.4-3.2 3.1s1.4 3.1 3.2 3.1h9.3v6.3l-25 12.5v-43.8l25 14.6v4.2zM62.5 57c0 1.3-1.4 2.4-3.1 2.4h-18.8c-1.7 0-3.1-1.1-3.1-2.4v-14c0-1.3 1.4-2.4 3.1-2.4h18.8c1.7 0 3.1 1.1 3.1 2.4v14zM93.7 71.9l-25-12.5v-6.3h9.4c1.7 0 3.1-1.4 3.1-3.1s-1.4-3.1-3.1-3.1h-9.4v-4.2l25-14.6v43.8z"></path>
</svg>
