<?xml version="1.0" encoding="utf-8"?>
<!-- Generated by IcoMoon.io -->
<!DOCTYPE svg PUBLIC "-//W3C//DTD SVG 1.1//EN" "http://www.w3.org/Graphics/SVG/1.1/DTD/svg11.dtd">
<svg version="1.1" xmlns="http://www.w3.org/2000/svg" xmlns:xlink="http://www.w3.org/1999/xlink" width="100" height="100" viewBox="0 0 100 100">
<path d="M93.7 59.4h-1.5c0.8-2.8 1.5-6 1.5-7.7 0-8.4-12.5-13.3-12.5-13.3l-37.5-16.5c-5.1 6.5-10.4 9.9-15.6 9.9-6 0-11.7-4.1-15.6-6.6 0 0-0.7 0-1.6 0-1.9 0-4.7 0-4.7 0v34.2c-3.4 0-6.2 2.8-6.2 6.3v6.2c0 3.4 2.8 6.2 6.2 6.2h87.5c3.5 0 6.3-2.8 6.3-6.2v-6.2c0-3.5-2.8-6.3-6.3-6.3zM12.5 32.8c4.1 2.2 9.6 5.6 15.6 5.6 6.5 0 12.1-3.7 17.2-8.7l10.4 4.6-12 8 3.1 6 15.3-11.2 7.1 3.2-13 8.6 3.1 6 16.2-11.8 3.3 1.4 0.2 0.1h0.1c3.4 1.3 8.4 4.9 8.4 7.1 0 0.9 0.8 4.7 0 7.7h-75v-26.6zM90.6 71.9h-81.2c-1.8 0-3.2-1.4-3.2-3.1s1.4-3.1 3.2-3.1h81.2c1.7 0 3.1 1.4 3.1 3.1s-1.4 3.1-3.1 3.1z"></path>
</svg>
