<?xml version="1.0" encoding="utf-8"?>
<!-- Generated by IcoMoon.io -->
<!DOCTYPE svg PUBLIC "-//W3C//DTD SVG 1.1//EN" "http://www.w3.org/Graphics/SVG/1.1/DTD/svg11.dtd">
<svg version="1.1" xmlns="http://www.w3.org/2000/svg" xmlns:xlink="http://www.w3.org/1999/xlink" width="100" height="100" viewBox="0 0 100 100">
<path d="M51 56.2v-14.1c3.9 0.5 7.4 2.1 10.2 5l3.4-4c-3.4-3.3-7.9-5.5-13.6-6v-5.9h-4.2v5.9c-8.2 0.6-14.1 5.3-14.1 12 0 7.9 7.2 10.1 14.1 12v15.7c-5.4-0.6-9.5-3.2-12.2-6.1l-3.4 4.2c3.4 3.7 8.7 6.4 15.6 6.8v5.8h4.2v-5.8c10.6-0.7 14.6-6.8 14.6-12.7 0-8.5-7.5-10.9-14.6-12.8zM46.8 55.2c-4.6-1.3-8.2-2.9-8.2-6.4 0-3.8 3.4-6.5 8.2-6.9v13.3zM51 76.9v-14.8c4.8 1.4 8.7 3.1 8.7 7.3 0 3.1-2.2 6.8-8.7 7.5zM86.9 0l-12.3 12.5-12-12.5-12.9 12.5-12.4-12.5-12.9 12.5-11.6-12.5h-6.6v100h87.5v-100h-6.8zM87.5 93.7h-75v-84.8l7.3 7.8 4.3 4.7 4.6-4.4 8.5-8.2 8.1 8.1 4.3 4.4 4.5-4.3 8.3-8.2 7.7 8 4.5 4.7 4.5-4.6 8.4-8.6v85.4z"></path>
</svg>
