<?xml version="1.0" encoding="utf-8"?>
<!-- Generated by IcoMoon.io -->
<!DOCTYPE svg PUBLIC "-//W3C//DTD SVG 1.1//EN" "http://www.w3.org/Graphics/SVG/1.1/DTD/svg11.dtd">
<svg version="1.1" xmlns="http://www.w3.org/2000/svg" xmlns:xlink="http://www.w3.org/1999/xlink" width="100" height="100" viewBox="0 0 100 100">
<path d="M15.6 31.2l31.3-23.4 31.2 23.4v25h6.3v-28.1l-37.5-28.1-37.5 28.1v65.6c0 3.5 2.8 6.3 6.2 6.3h25v-6.3h-25v-62.5zM59.4 37.5c0-6.9-5.6-12.5-12.5-12.5s-12.5 5.6-12.5 12.5 5.6 12.5 12.5 12.5c6.9 0 12.5-5.6 12.5-12.5zM46.9 43.7c-3.5 0-6.3-2.8-6.3-6.2s2.8-6.3 6.3-6.3c3.4 0 6.2 2.8 6.2 6.3s-2.8 6.2-6.2 6.2zM90.6 73.4l-4.7-4.6-19 21.5-9.1-9-4.6 4.6 14 14.1 4.7-4.7-0.3-0.3 19-21.6z"></path>
</svg>
