<?xml version="1.0" encoding="utf-8"?>
<!-- Generated by IcoMoon.io -->
<!DOCTYPE svg PUBLIC "-//W3C//DTD SVG 1.1//EN" "http://www.w3.org/Graphics/SVG/1.1/DTD/svg11.dtd">
<svg version="1.1" xmlns="http://www.w3.org/2000/svg" xmlns:xlink="http://www.w3.org/1999/xlink" width="100" height="100" viewBox="0 0 100 100">
<path d="M67.8 37.5h7.5c-3.9-7.4-11.6-12.5-20.6-12.5s-16.7 5.1-20.6 12.5h-6c-1.7 0-3.1 1.4-3.1 3.1s1.4 3.1 3.1 3.1h3.6c-0.3 1.6-0.5 3.1-0.5 4.7 0 0.6 0.2 1.1 0.2 1.6h-3.3c-1.7 0-3.1 1.4-3.1 3.1s1.4 3.1 3.1 3.1h4.6c3.2 9.1 11.8 15.7 22 15.7 7.6 0 14.4-3.8 18.6-9.4h-8.8c-2.8 1.9-6.1 3.1-9.8 3.1-6.7 0-12.4-3.8-15.2-9.4h16.7c1.8 0 3.2-1.4 3.2-3.1s-1.4-3.1-3.2-3.1h-18.5c-0.1-0.5-0.2-1-0.2-1.6 0-1.6 0.3-3.2 0.7-4.7h18c1.8 0 3.2-1.4 3.2-3.1s-1.4-3.1-3.2-3.1h-14.7c3.2-3.8 7.9-6.3 13.2-6.3s10 2.5 13.1 6.3zM50 0c-27.6 0-50 22.4-50 50s22.4 50 50 50c27.6 0 50-22.4 50-50s-22.4-50-50-50zM50 93.7c-24.2 0-43.8-19.6-43.8-43.7 0-24.2 19.6-43.8 43.8-43.8s43.7 19.6 43.7 43.8c0 24.1-19.5 43.7-43.7 43.7z"></path>
</svg>
