<?xml version="1.0" encoding="utf-8"?>
<!-- Generated by IcoMoon.io -->
<!DOCTYPE svg PUBLIC "-//W3C//DTD SVG 1.1//EN" "http://www.w3.org/Graphics/SVG/1.1/DTD/svg11.dtd">
<svg version="1.1" xmlns="http://www.w3.org/2000/svg" xmlns:xlink="http://www.w3.org/1999/xlink" width="100" height="100" viewBox="0 0 100 100">
<path d="M50 81.2h31.2v-6.2h-31.2v6.2zM50 0l-37.5 28.1v65.6c0 3.5 2.8 6.3 6.2 6.3h25v-6.3h-25v-62.5l31.3-23.4 31.2 23.4v25h6.3v-28.1l-37.5-28.1zM62.5 37.5c0-6.9-5.6-12.5-12.5-12.5s-12.5 5.6-12.5 12.5c0 6.9 5.6 12.5 12.5 12.5s12.5-5.6 12.5-12.5zM43.7 37.5c0-3.5 2.8-6.3 6.3-6.3s6.2 2.8 6.2 6.3-2.7 6.2-6.2 6.2c-3.5 0-6.3-2.8-6.3-6.2z"></path>
</svg>
