<?xml version="1.0" encoding="utf-8"?>
<!-- Generated by IcoMoon.io -->
<!DOCTYPE svg PUBLIC "-//W3C//DTD SVG 1.1//EN" "http://www.w3.org/Graphics/SVG/1.1/DTD/svg11.dtd">
<svg version="1.1" xmlns="http://www.w3.org/2000/svg" xmlns:xlink="http://www.w3.org/1999/xlink" width="100" height="100" viewBox="0 0 100 100">
<path d="M96.9 28.1h-18.8l7.5-12.5h8.1v-6.2h-12.5v0.9l-10.6 17.8h-41.2l-10.7-17.8v-0.9h-12.5v6.2h8.2l7.4 12.5h-18.7c-1.7 0-3.1 1.4-3.1 3.1 0 1.8 1.4 3.2 3.1 3.2h3.8l5.6 56.2h75l5.6-56.2h3.8c1.7 0 3.1-1.4 3.1-3.2 0-1.7-1.4-3.1-3.1-3.1zM31.2 84.4h-12.5l-1.5-12.5h14v12.5zM31.2 65.6h-14.8l-1.6-12.5h16.4v12.5zM31.2 46.9h-17.1l-1.6-12.5h18.7v12.5zM62.5 84.4h-25v-12.5h25v12.5zM62.5 65.6h-25v-12.5h25v12.5zM62.5 46.9h-25v-12.5h25v12.5zM81.2 84.4h-12.5v-12.5h14.1l-1.6 12.5zM83.6 65.6h-14.9v-12.5h16.5l-1.6 12.5zM85.9 46.9h-17.2v-12.5h18.8l-1.6 12.5z"></path>
</svg>
