<?xml version="1.0" encoding="utf-8"?>
<!-- Generated by IcoMoon.io -->
<!DOCTYPE svg PUBLIC "-//W3C//DTD SVG 1.1//EN" "http://www.w3.org/Graphics/SVG/1.1/DTD/svg11.dtd">
<svg version="1.1" xmlns="http://www.w3.org/2000/svg" xmlns:xlink="http://www.w3.org/1999/xlink" width="100" height="100" viewBox="0 0 100 100">
<path d="M56.2 87.5c0 6.9 5.6 12.5 12.5 12.5s12.5-5.6 12.5-12.5-5.6-12.5-12.5-12.5c-6.9 0-12.5 5.6-12.5 12.5zM68.7 81.3c3.5 0 6.3 2.7 6.3 6.2s-2.8 6.3-6.3 6.3-6.2-2.8-6.2-6.3c0-3.5 2.8-6.2 6.2-6.2zM99.9 15.4c0-0.1 0-0.3 0-0.4-0.1-0.3-0.2-0.6-0.3-0.9-0.1 0-0.1-0.1-0.1-0.1-0.2-0.3-0.5-0.6-0.7-0.8-0.1 0-0.2-0.1-0.2-0.1-0.3-0.2-0.6-0.3-0.9-0.4-0.1 0-0.1-0.1-0.2-0.1-0.1-0.1-0.3 0-0.4 0-0.1-0.1-0.1-0.1-0.2-0.1h-0.6c0 0-0.1 0-0.1 0h-17.9l-18-10.6c-2.5-2.5-6.4-2.5-8.8 0l-14.7 10.6h-18.1v-6.3h3.2c1.7 0 3.1-1.4 3.1-3.1s-1.4-3.1-3.1-3.1h-18.8c-1.7 0-3.1 1.4-3.1 3.1s1.4 3.1 3.1 3.1h9.4v65.7c0 1.7 1.4 3.1 3.1 3.1h78.1c1.8 0 3.2-1.4 3.2-3.1s-1.4-3.2-3.2-3.2h-75v-6.5l68-6.1c0.1 0 0.1 0.1 0.1 0.1 1.8 0.4 3.6-0.6 4.1-2.3l9-37.4c0-0.1 0-0.3 0-0.5 0-0.1 0.1-0.2 0.1-0.4 0-0.1 0-0.1-0.1-0.2zM55.9 6.4l10.3 6.1h-19.4l9.1-6.1zM85 50.2l-66.3 6v-37.4h73.8l-7.5 31.4zM18.7 87.5c0 6.9 5.6 12.5 12.5 12.5s12.5-5.6 12.5-12.5-5.6-12.5-12.5-12.5c-6.9 0-12.5 5.6-12.5 12.5zM31.2 81.3c3.5 0 6.3 2.7 6.3 6.2s-2.8 6.3-6.3 6.3-6.2-2.8-6.2-6.3c0-3.5 2.8-6.2 6.2-6.2z"></path>
</svg>
