<?xml version="1.0" encoding="utf-8"?>
<!-- Generated by IcoMoon.io -->
<!DOCTYPE svg PUBLIC "-//W3C//DTD SVG 1.1//EN" "http://www.w3.org/Graphics/SVG/1.1/DTD/svg11.dtd">
<svg version="1.1" xmlns="http://www.w3.org/2000/svg" xmlns:xlink="http://www.w3.org/1999/xlink" width="100" height="100" viewBox="0 0 100 100">
<path d="M44.8 25.9c-1.3 1.3-1.3 3.3 0 4.6l12.2 12.2c0 0.1 0.1 0 0.1 0.1 0.6 0.6 1.4 0.9 2.3 0.9 0 0 0 0 0 0 0.1 0 0.2 0 0.3 0 0.6-0.1 1.2-0.3 1.6-0.7 0.2-0.1 0.3-0.1 0.5-0.2l12.3-12.3c1.2-1.3 1.2-3.3 0-4.6-1.3-1.2-3.3-1.2-4.6 0l-7 7v-29.8c0-1.7-1.4-3.1-3.1-3.1s-3.2 1.4-3.2 3.1v29.7l-6.9-6.9c-1.2-1.2-3.3-1.2-4.5 0zM99.9 15.4c0-0.2 0-0.3 0-0.4-0.1-0.3-0.2-0.6-0.3-0.9-0.1 0-0.1-0.1-0.1-0.1-0.2-0.3-0.5-0.6-0.7-0.8-0.1-0.1-0.2-0.1-0.2-0.1-0.3-0.2-0.6-0.3-0.9-0.4-0.1-0.1-0.1-0.1-0.2-0.1-0.1-0.1-0.3 0-0.4-0.1-0.1 0-0.1 0-0.2 0h-0.6c0 0-0.1 0-0.1 0h-27.5v6.2h23.8l-7.5 31.5-66.3 6v-37.5h31.3v-6.2h-31.3v-6.3h3.2c1.7 0 3.1-1.4 3.1-3.1s-1.4-3.1-3.1-3.1h-18.8c-1.7 0-3.1 1.4-3.1 3.1s1.4 3.1 3.1 3.1h9.4v65.7c0 1.7 1.4 3.1 3.1 3.1h78.1c1.8 0 3.2-1.4 3.2-3.1s-1.4-3.2-3.2-3.2h-75v-6.5l68-6.1c0.1 0 0.1 0.1 0.1 0.1 1.8 0.4 3.6-0.6 4.1-2.3l9-37.4c0-0.1 0-0.3 0-0.5 0-0.1 0.1-0.2 0.1-0.4 0-0.1 0-0.1-0.1-0.2zM56.2 87.5c0 6.9 5.6 12.5 12.5 12.5s12.5-5.6 12.5-12.5c0-6.9-5.6-12.5-12.5-12.5s-12.5 5.6-12.5 12.5zM68.7 81.2c3.5 0 6.3 2.8 6.3 6.3s-2.8 6.2-6.3 6.2-6.2-2.7-6.2-6.2 2.8-6.3 6.2-6.3zM18.7 87.5c0 6.9 5.6 12.5 12.5 12.5s12.5-5.6 12.5-12.5c0-6.9-5.6-12.5-12.5-12.5s-12.5 5.6-12.5 12.5zM31.2 81.2c3.5 0 6.3 2.8 6.3 6.3s-2.8 6.2-6.3 6.2-6.2-2.7-6.2-6.2 2.8-6.3 6.2-6.3z"></path>
</svg>
