<?xml version="1.0" encoding="utf-8"?>
<!-- Generated by IcoMoon.io -->
<!DOCTYPE svg PUBLIC "-//W3C//DTD SVG 1.1//EN" "http://www.w3.org/Graphics/SVG/1.1/DTD/svg11.dtd">
<svg version="1.1" xmlns="http://www.w3.org/2000/svg" xmlns:xlink="http://www.w3.org/1999/xlink" width="100" height="100" viewBox="0 0 100 100">
<path d="M87.5 0h-75c-6.9 0-12.5 5.6-12.5 12.5v18.7h6.2v-18.7c0-3.5 2.8-6.3 6.3-6.3h75c3.5 0 6.2 2.8 6.2 6.3v75c0 3.5-2.7 6.2-6.2 6.2h-75c-3.5 0-6.3-2.7-6.3-6.2v-18.8h-6.2v18.8c0 6.9 5.6 12.5 12.5 12.5h75c6.9 0 12.5-5.6 12.5-12.5v-75c0-6.9-5.6-12.5-12.5-12.5zM50 75c13.8 0 25-11.2 25-25s-11.2-25-25-25c-13.8 0-25 11.2-25 25s11.2 25 25 25zM50 31.2c10.3 0 18.7 8.4 18.7 18.8 0 10.3-8.4 18.7-18.7 18.7-10.4 0-18.8-8.4-18.8-18.7 0-10.4 8.4-18.8 18.8-18.8zM6.2 43.7h-6.2v12.5h6.2v-12.5zM81.2 87.5c3.5 0 6.3-2.8 6.3-6.3v-62.5c0-3.4-2.8-6.2-6.3-6.2h-62.5c-3.4 0-6.2 2.8-6.2 6.2v62.5c0 3.5 2.8 6.3 6.2 6.3h62.5zM18.7 21.9c0-1.8 1.4-3.2 3.2-3.2h56.2c1.7 0 3.1 1.4 3.1 3.2v56.2c0 1.7-1.4 3.1-3.1 3.1h-56.2c-1.8 0-3.2-1.4-3.2-3.1v-56.2z"></path>
</svg>
