<?xml version="1.0" encoding="utf-8"?>
<!-- Generated by IcoMoon.io -->
<!DOCTYPE svg PUBLIC "-//W3C//DTD SVG 1.1//EN" "http://www.w3.org/Graphics/SVG/1.1/DTD/svg11.dtd">
<svg version="1.1" xmlns="http://www.w3.org/2000/svg" xmlns:xlink="http://www.w3.org/1999/xlink" width="100" height="100" viewBox="0 0 100 100">
<path d="M94.8 43.7l-10.4-31.2h-6.3v-12.5h-56.2v12.5h-6.3l-12.5 37.5h6.3v50h81.2v-50h6.3v-6.3h-2.1zM28.1 6.2h43.8v6.3h-43.8v-6.3zM60.8 18.7l8.1 25h-15.8v-25h7.7zM46.9 18.7v25h-15.8l8.1-25h7.7zM19.8 18.7h11.6l-8.1 25h-11.8l8.3-25zM84.4 93.7h-68.8v-12.5h68.8v12.5zM84.4 75h-68.8v-25h68.8v25zM76.7 43.7l-8.1-25h11.6l8.3 25h-11.8z"></path>
</svg>
