<?xml version="1.0" encoding="utf-8"?>
<!-- Generated by IcoMoon.io -->
<!DOCTYPE svg PUBLIC "-//W3C//DTD SVG 1.1//EN" "http://www.w3.org/Graphics/SVG/1.1/DTD/svg11.dtd">
<svg version="1.1" xmlns="http://www.w3.org/2000/svg" xmlns:xlink="http://www.w3.org/1999/xlink" width="100" height="100" viewBox="0 0 100 100">
<path d="M90.6 12.5h-12.5v-6.3c0-3.4-2.8-6.2-6.2-6.2h-43.8c-3.4 0-6.2 2.8-6.2 6.2v6.3h-12.5c-3.5 0-6.3 5.9-6.3 9.4v71.9c0 3.4 2.8 6.2 6.3 6.2h81.2c3.5 0 6.3-2.8 6.3-6.2v-75.1c0-3.4-2.8-6.2-6.3-6.2zM28.1 13.6l17 17-13.9 6.9c-1.7 0-3.1-1.4-3.1-3.1v-20.8zM46.9 93.8h-34.4c-1.7 0-3.1-1.5-3.1-3.2v-65.6c0-1.7 0-6.3 6.2-6.3h6.3v18.8c0 3.4 2.8 6.2 6.2 6.2l18.8-8v58.1zM30 7c-0.1-0.1-0.3-0.1-0.5-0.2 0.5-0.3 1.1-0.6 1.7-0.6h37.5c0.7 0 1.3 0.3 1.8 0.7-0.2 0.1-0.4 0.1-0.6 0.2l-19.9 19.9-20-20zM71.9 13.6v20.8c0 1.7-1.4 3.1-3.2 3.1l-13.8-6.9 17-17zM90.6 90.6c0 1.7-1.4 3.2-3.1 3.2h-34.4v-58.1l18.8 8c3.4 0 6.2-2.8 6.2-6.2v-18.8h6.3c6.2 0 6.2 4.6 6.2 6.3v65.6zM59.4 62.5h25v-6.3h-25v6.3z"></path>
</svg>
