<?xml version="1.0" encoding="utf-8"?>
<!-- Generated by IcoMoon.io -->
<!DOCTYPE svg PUBLIC "-//W3C//DTD SVG 1.1//EN" "http://www.w3.org/Graphics/SVG/1.1/DTD/svg11.dtd">
<svg version="1.1" xmlns="http://www.w3.org/2000/svg" xmlns:xlink="http://www.w3.org/1999/xlink" width="100" height="100" viewBox="0 0 100 100">
<path d="M68.7 25h-37.5v6.2h37.5v-6.2zM31.2 68.7h37.5v-6.2h-37.5v6.2zM68.7 43.7h-37.5v6.3h37.5v-6.3zM62.5 0h-25v6.2h25v-6.2zM75 6.2h-6.3v6.3h6.3c3.5 0 6.2 2.8 6.2 6.2v62.5c0 3.5-2.7 6.3-6.2 6.3h-50c-3.5 0-6.3-2.8-6.3-6.3v-62.5c0-3.4 2.8-6.2 6.3-6.2h6.2v-6.3h-6.2c-6.9 0-12.5 5.6-12.5 12.5v62.5c0 6.9 5.6 12.5 12.5 12.5h6.2v6.3h6.3v-6.3h25v6.3h6.2v-6.3h6.3c6.9 0 12.5-5.6 12.5-12.5v-62.5c0-6.9-5.6-12.5-12.5-12.5z"></path>
</svg>
