<?xml version="1.0" encoding="utf-8"?>
<!-- Generated by IcoMoon.io -->
<!DOCTYPE svg PUBLIC "-//W3C//DTD SVG 1.1//EN" "http://www.w3.org/Graphics/SVG/1.1/DTD/svg11.dtd">
<svg version="1.1" xmlns="http://www.w3.org/2000/svg" xmlns:xlink="http://www.w3.org/1999/xlink" width="100" height="100" viewBox="0 0 100 100">
<path d="M81.2 12.5h-12.8c-1.4-7.1-7.7-12.5-15.3-12.5h-6.2c-7.6 0-13.9 5.4-15.3 12.5h-12.9c-3.4 0-6.2 2.8-6.2 6.2v75c0 3.5 2.8 6.3 6.2 6.3h62.5c3.5 0 6.3-2.8 6.3-6.3v-75c0-3.4-2.8-6.2-6.3-6.2zM46.9 6.2h6.2c4.1 0 7.5 2.7 8.8 6.3h-23.8c1.3-3.6 4.7-6.3 8.8-6.3zM81.2 90.6c0 1.7-1.4 3.1-3.1 3.1h-56.2c-1.8 0-3.2-1.4-3.2-3.1v-9.4h62.5v9.4zM81.2 75h-62.5v-53.1c0-1.8 1.4-3.2 3.2-3.2h9.3v18.8h6.3v-18.8h25v18.8h6.2v-18.8h9.4c1.7 0 3.1 1.4 3.1 3.2v53.1z"></path>
</svg>
