<?xml version="1.0" encoding="utf-8"?>
<!-- Generated by IcoMoon.io -->
<!DOCTYPE svg PUBLIC "-//W3C//DTD SVG 1.1//EN" "http://www.w3.org/Graphics/SVG/1.1/DTD/svg11.dtd">
<svg version="1.1" xmlns="http://www.w3.org/2000/svg" xmlns:xlink="http://www.w3.org/1999/xlink" width="100" height="100" viewBox="0 0 100 100">
<path d="M65.6 12.5h-31.2v6.2h31.2v-6.2zM57.1 37.5l17.9-21.9v-12.5l-10.7-3.1h-28.6l-10.7 3.1v12.5l17.9 21.9h14.2zM31.2 6.2h37.5v9.4l-15 15.6h-7.5l-15-15.6v-9.4zM69.9 30.8l-1.2 6.7h-0.1c7.6 5.7 12.6 14.7 12.6 25 0 17.3-13.9 31.2-31.2 31.2s-31.3-13.9-31.3-31.2c0-10.3 5.1-19.3 12.7-25h-0.2l-1.1-6.7c-10.5 6.6-17.6 18.3-17.6 31.7 0 20.7 16.8 37.5 37.5 37.5s37.5-16.8 37.5-37.5c0-13.4-7.1-25.1-17.6-31.7z"></path>
</svg>
