<?xml version="1.0" encoding="utf-8"?>
<!-- Generated by IcoMoon.io -->
<!DOCTYPE svg PUBLIC "-//W3C//DTD SVG 1.1//EN" "http://www.w3.org/Graphics/SVG/1.1/DTD/svg11.dtd">
<svg version="1.1" xmlns="http://www.w3.org/2000/svg" xmlns:xlink="http://www.w3.org/1999/xlink" width="100" height="100" viewBox="0 0 100 100">
<path d="M85.8 37.5c1-2 1.7-4.1 1.7-6.3 0-12-16.8-21.8-37.5-21.8s-37.5 9.8-37.5 21.8c0 2.2 0.7 4.3 1.7 6.3-1 2-1.7 4.1-1.7 6.2 0 2.2 0.7 4.3 1.7 6.3-1 2-1.7 4.1-1.7 6.2s0.7 4.3 1.7 6.3c-1 2-1.7 4.1-1.7 6.2 0 12.1 16.8 21.9 37.5 21.9s37.5-9.8 37.5-21.9c0-2.1-0.7-4.2-1.7-6.2 1-2 1.7-4.1 1.7-6.3s-0.7-4.2-1.7-6.2c1-2 1.7-4.1 1.7-6.3 0-2.1-0.7-4.2-1.7-6.2zM50 84.4c-17.3 0-31.3-7-31.3-15.7 0-0.1 0.1-0.2 0.1-0.3 6.7 5.8 18.2 9.7 31.2 9.7s24.4-3.9 31.2-9.7c0 0.1 0 0.2 0 0.3 0 8.7-13.9 15.7-31.2 15.7zM50 71.9c-17.3 0-31.3-7-31.3-15.7 0-0.1 0.1-0.2 0.1-0.3 6.7 5.8 18.2 9.7 31.2 9.7s24.4-3.9 31.2-9.7c0 0.1 0 0.2 0 0.3 0 8.7-13.9 15.7-31.2 15.7zM50 59.4c-17.3 0-31.3-7-31.3-15.7 0-0.1 0.1-0.2 0.1-0.3 6.7 5.8 18.2 9.7 31.2 9.7s24.4-3.9 31.2-9.7c0 0.1 0 0.2 0 0.3 0 8.7-13.9 15.7-31.2 15.7zM50 46.9c-17.3 0-31.3-7-31.3-15.7 0-8.6 14-15.6 31.3-15.6s31.2 7 31.2 15.6c0 8.7-13.9 15.7-31.2 15.7z"></path>
</svg>
