<?xml version="1.0" encoding="utf-8"?>
<!-- Generated by IcoMoon.io -->
<!DOCTYPE svg PUBLIC "-//W3C//DTD SVG 1.1//EN" "http://www.w3.org/Graphics/SVG/1.1/DTD/svg11.dtd">
<svg version="1.1" xmlns="http://www.w3.org/2000/svg" xmlns:xlink="http://www.w3.org/1999/xlink" width="100" height="100" viewBox="0 0 100 100">
<path d="M3.1 43.8h93.8c0 0 0 0 0.1 0 0 0 0 0 0 0 0.8-0.1 1.4-0.4 2-0.9 0 0 0.1 0 0.1 0s0-0.1 0.1-0.1c0.4-0.6 0.7-1.2 0.8-2 0 0 0 0 0 0 0-0.1 0-0.1 0-0.1 0-1.2-0.6-2.1-1.5-2.7l-31-30.9c-1.1-1.2-3-1.2-4.2 0s-1.2 3 0 4.2l26.2 26.2h-86.4c-1.7 0-3.1 1.4-3.1 3.2 0 1.7 1.4 3.1 3.1 3.1zM96.9 56.3h-93.8c0 0-0.1 0-0.1 0s0 0 0 0c-0.8 0-1.5 0.3-2 0.8 0 0.1-0.1 0.1-0.1 0.1s0 0.1-0.1 0.1c-0.4 0.5-0.7 1.2-0.8 2v0c0 0 0 0.1 0 0.1 0 1.1 0.6 2.1 1.5 2.6l31 30.9c1.1 1.2 3 1.2 4.2 0s1.2-3.1 0-4.2l-26.2-26.2h86.4c1.7 0 3.1-1.4 3.1-3.1s-1.4-3.1-3.1-3.1z"></path>
</svg>
