<?xml version="1.0" encoding="utf-8"?>
<!-- Generated by IcoMoon.io -->
<!DOCTYPE svg PUBLIC "-//W3C//DTD SVG 1.1//EN" "http://www.w3.org/Graphics/SVG/1.1/DTD/svg11.dtd">
<svg version="1.1" xmlns="http://www.w3.org/2000/svg" xmlns:xlink="http://www.w3.org/1999/xlink" width="100" height="100" viewBox="0 0 100 100">
<path d="M25 81.2h50v-6.2h-50v6.2zM93.7 65.2c-0.1-0.2-0.1-0.4-0.2-0.7 0 0 0-0.1 0-0.1-0.1-0.3-0.1-0.5-0.3-0.7l-5.7-16.5v-19.1c0-0.2-0.1-0.4-0.1-0.7 0 0 0 0 0 0l-0.1-0.1c0-0.3-0.2-0.5-0.3-0.8l-5-11.5c-0.4-1.4-1.9-2.4-3.5-2.4-0.2 0-0.3-0.1-0.4-0.1h-10.5c-2.6-7.3-9.5-12.5-17.6-12.5s-15 5.2-17.6 12.5h-10.5c-0.1 0-0.2 0.1-0.4 0.1-1.6 0-3.1 0.9-3.6 2.4l-4.9 11.5c-0.1 0.3-0.3 0.5-0.3 0.8l-0.1 0.1c0 0 0 0 0 0 0 0.2-0.1 0.5-0.1 0.7v19.2l-5.8 16.4c-0.1 0.2-0.1 0.5-0.2 0.7 0 0.1 0 0.1 0 0.2-0.1 0.2-0.2 0.4-0.2 0.7 0 0.1 0 0.2 0 0.4v31.2c0 1.7 1.4 3.1 3.1 3.1h81.2c1.7 0 3.2-1.4 3.2-3.1v-31.3c-0.1-0.1-0.1-0.3-0.1-0.4zM68.7 18.7h7.5l4.3 10c0.1 0.5 0.4 0.9 0.7 1.3v13.7h-12.5v-25zM50 6.2c4.6 0 8.6 2.6 10.8 6.3h-21.6c2.2-3.7 6.2-6.3 10.8-6.3zM37.5 18.7h25v25h-25v-25zM18.7 30c0.4-0.4 0.7-0.8 0.8-1.3l4.3-10h7.4v25h-12.5v-13.7zM87.5 65.6v28.1h-75v-28c0-0.1 0-0.1 0-0.2l5.4-15.5h13.3v9.4c0 1.7 1.4 3.1 3.2 3.1 1.7 0 3.1-1.4 3.1-3.1v-9.4h25v9.4c0 1.7 1.4 3.1 3.1 3.1s3.1-1.4 3.1-3.1v-9.4h13.5l5.3 15.4c0 0.1 0 0.1 0 0.2z"></path>
</svg>
