<?xml version="1.0" encoding="utf-8"?>
<!-- Generated by IcoMoon.io -->
<!DOCTYPE svg PUBLIC "-//W3C//DTD SVG 1.1//EN" "http://www.w3.org/Graphics/SVG/1.1/DTD/svg11.dtd">
<svg version="1.1" xmlns="http://www.w3.org/2000/svg" xmlns:xlink="http://www.w3.org/1999/xlink" width="100" height="100" viewBox="0 0 100 100">
<path d="M57.2 67.2c-3.5 0-5.3-2.6-9.4-2.6-1.2 0-2.4 0.3-3.4 0.6 2.7-1.9 4.9-4.5 4.9-8.4 0-1-0.2-1.9-0.4-2.7h7.8v-3.5h-9.6c-2.2-2.9-5.2-5.3-5.2-9.9 0-5.1 4.3-8.2 9.1-8.2 3.9 0 7.1 2.5 8.2 5.2l4.3-2.5c-2.4-4.5-7.2-7.1-13-7.1-7.7 0-14.3 5.5-14.3 12.5 0 4.6 2.6 7.4 4.9 10h-6.7v3.5h9.2c0.6 1.1 1 2.4 1 3.8 0 3.8-3 7.3-8.5 9.6l1.9 4c2.7-1.4 5.3-2.5 7.5-2.5 4.8 0 5.7 2.9 11.5 2.9 4 0 6.8-1.3 8.6-3l-2.3-4.2c-0.8 1.1-3.2 2.5-6.1 2.5zM50 0c-27.6 0-50 22.4-50 50s22.4 50 50 50c27.6 0 50-22.4 50-50s-22.4-50-50-50zM50 93.7c-24.2 0-43.8-19.6-43.8-43.7 0-24.2 19.6-43.8 43.8-43.8s43.7 19.6 43.7 43.8c0 24.1-19.5 43.7-43.7 43.7z"></path>
</svg>
