<?xml version="1.0" encoding="utf-8"?>
<!-- Generated by IcoMoon.io -->
<!DOCTYPE svg PUBLIC "-//W3C//DTD SVG 1.1//EN" "http://www.w3.org/Graphics/SVG/1.1/DTD/svg11.dtd">
<svg version="1.1" xmlns="http://www.w3.org/2000/svg" xmlns:xlink="http://www.w3.org/1999/xlink" width="100" height="100" viewBox="0 0 100 100">
<path d="M62.5 43.7h12.5v-6.2h-12.5v6.2zM62.5 56.2h12.5v-6.2h-12.5v6.2zM62.5 68.7h12.5v-6.2h-12.5v6.2zM75 18.7h-50v6.3h50v-6.3zM50 37.5h-25v6.2h25v-6.2zM50 62.5h-25v6.2h25v-6.2zM6.2 0v100h6.3l12.5-9.4 12.4 9.4 12.6-9.4 12.5 9.4 12.5-9.4 12.5 9.4h6.2v-100h-87.5zM87.5 93.7l-12.5-9.3-12.5 9.3-12.5-9.3-12.5 9.3-12.5-9.3-12.5 9.3v-87.5h75v87.5zM50 50h-25v6.2h25v-6.2z"></path>
</svg>
