<?xml version="1.0" encoding="utf-8"?>
<!-- Generated by IcoMoon.io -->
<!DOCTYPE svg PUBLIC "-//W3C//DTD SVG 1.1//EN" "http://www.w3.org/Graphics/SVG/1.1/DTD/svg11.dtd">
<svg version="1.1" xmlns="http://www.w3.org/2000/svg" xmlns:xlink="http://www.w3.org/1999/xlink" width="100" height="100" viewBox="0 0 100 100">
<path d="M36.8 34c0-2.1 1.8-3.5 4.2-3.5 3.5 0 6.1 2.5 6.1 2.5l2.2-4.3c0 0-2.3-2.6-6.9-3v-3.8h-3.3v3.9c-4.4 0.7-7.4 4-7.4 8.2 0 8.9 13.2 8.4 13.2 13.3 0 2.4-1.9 3.6-4 3.6-3.9 0-6.9-3.1-6.9-3.1l-2.8 4c0 0 2.8 3.2 7.9 3.8v3.8h3.3v-3.8c4.8-0.6 7.6-4.2 7.6-8.4 0-9.2-13.2-8.4-13.2-13.2zM81.2 65.6v-50c0-3.4-2.7-6.2-6.2-6.2h-68.8c-3.4 0-6.2 2.8-6.2 6.2v50c0 3.5 2.8 6.3 6.2 6.3h68.8c3.5 0 6.2-2.8 6.2-6.3zM71.9 65.6h-62.5c-1.8 0-3.2-1.4-3.2-3.1v-43.8c0-1.7 1.4-3.1 3.2-3.1h62.5c1.7 0 3.1 1.4 3.1 3.1v43.8c0 1.7-1.4 3.1-3.1 3.1zM93.7 28.1h-9.3c1.7 0 3.1 1.4 3.1 3.1v3.2h3.1c1.7 0 3.1 1.4 3.1 3.1v43.7c0 1.8-1.4 3.2-3.1 3.2h-62.5c-1.7 0-3.1-1.4-3.1-3.2v-3.1h-6.3v6.3c0 3.4 2.8 6.2 6.3 6.2h68.7c3.5 0 6.3-2.8 6.3-6.2v-50c0-3.5-2.8-6.3-6.3-6.3z"></path>
</svg>
