<?xml version="1.0" encoding="utf-8"?>
<!-- Generated by IcoMoon.io -->
<!DOCTYPE svg PUBLIC "-//W3C//DTD SVG 1.1//EN" "http://www.w3.org/Graphics/SVG/1.1/DTD/svg11.dtd">
<svg version="1.1" xmlns="http://www.w3.org/2000/svg" xmlns:xlink="http://www.w3.org/1999/xlink" width="100" height="100" viewBox="0 0 100 100">
<path d="M59.4 21.9c-3.3 0-6.5 0.6-9.4 1.7-3-1.1-6.1-1.7-9.4-1.7-15.5 0-28.1 12.6-28.1 28.1s12.6 28.1 28.1 28.1c3.3 0 6.4-0.7 9.4-1.7 2.9 1 6.1 1.7 9.4 1.7 15.5 0 28.1-12.6 28.1-28.1s-12.6-28.1-28.1-28.1zM40.6 71.9c-12.1 0-21.9-9.8-21.9-21.9s9.8-21.9 21.9-21.9c0.4 0 0.8 0.1 1.2 0.1-6.4 5.2-10.6 13-10.6 21.8s4.2 16.6 10.6 21.8c-0.4 0-0.8 0.1-1.2 0.1zM59.4 71.9c-12.1 0-21.9-9.8-21.9-21.9s9.8-21.9 21.9-21.9c12.1 0 21.8 9.8 21.8 21.9s-9.7 21.9-21.8 21.9zM87.5 9.4h-75c-6.9 0-12.5 5.6-12.5 12.5v56.2c0 6.9 5.6 12.5 12.5 12.5h75c6.9 0 12.5-5.6 12.5-12.5v-56.2c0-6.9-5.6-12.5-12.5-12.5zM93.7 78.1c0 3.5-2.7 6.3-6.2 6.3h-75c-3.5 0-6.3-2.8-6.3-6.3v-56.2c0-3.5 2.8-6.3 6.3-6.3h75c3.5 0 6.2 2.8 6.2 6.3v56.2z"></path>
</svg>
