<?xml version="1.0" encoding="utf-8"?>
<!-- Generated by IcoMoon.io -->
<!DOCTYPE svg PUBLIC "-//W3C//DTD SVG 1.1//EN" "http://www.w3.org/Graphics/SVG/1.1/DTD/svg11.dtd">
<svg version="1.1" xmlns="http://www.w3.org/2000/svg" xmlns:xlink="http://www.w3.org/1999/xlink" width="100" height="100" viewBox="0 0 100 100">
<path d="M51.2 32.8c6.7-2.9 11.3-9.5 11.3-17.2 0-10.3-8.4-18.7-18.7-18.7-10.4 0-18.8 8.4-18.8 18.7 0 1.1 0.1 2.1 0.3 3.1h6.4c-0.3-1-0.4-2-0.4-3.1 0-6.9 5.5-12.5 12.5-12.5 6.9 0 12.5 5.6 12.5 12.5s-5.6 12.5-12.5 12.5v6.3l40.6 43.7c-0.1 0 7.4 6.3-6.3 6.3h-68.7c-13.8 0-6.2-6.1-6.3-6.3l30.5-28.1h-9.7l-30.2 28.1c0 3.5 2.8 12.5 6.3 12.5h87.5c3.5 0 6.3-9 6.3-12.5l-42.6-45.3z"></path>
</svg>
