<?xml version="1.0" encoding="utf-8"?>
<!-- Generated by IcoMoon.io -->
<!DOCTYPE svg PUBLIC "-//W3C//DTD SVG 1.1//EN" "http://www.w3.org/Graphics/SVG/1.1/DTD/svg11.dtd">
<svg version="1.1" xmlns="http://www.w3.org/2000/svg" xmlns:xlink="http://www.w3.org/1999/xlink" width="100" height="100" viewBox="0 0 100 100">
<path d="M84.4 12.5h-18.8v-9.4c0-1.7-1.4-3.1-3.1-3.1h-25c-1.7 0-3.1 1.4-3.1 3.1v9.4h-18.8c-3.4 0-6.2 2.8-6.2 6.2v6.3c0 3.4 2.8 6.2 6.2 6.2v62.6c0 3.4 2.8 6.2 6.3 6.2h56.2c3.5 0 6.3-2.8 6.3-6.2v-62.6c3.4 0 6.2-2.8 6.2-6.2v-6.3c0-3.4-2.8-6.2-6.2-6.2zM40.6 6.2h18.8v6.3h-18.8v-6.3zM78.1 34.4v56.2c0 1.7-1.4 3.2-3.1 3.2h-50c-1.7 0-3.1-1.5-3.1-3.2v-59.4h56.2v3.2zM81.2 25h-62.5c-1.7 0-3.1-1.4-3.1-3.1 0-1.8 1.4-3.2 3.1-3.2h62.5c1.8 0 3.2 1.4 3.2 3.2 0 1.7-1.4 3.1-3.2 3.1z"></path>
</svg>
