<?xml version="1.0" encoding="utf-8"?>
<!-- Generated by IcoMoon.io -->
<!DOCTYPE svg PUBLIC "-//W3C//DTD SVG 1.1//EN" "http://www.w3.org/Graphics/SVG/1.1/DTD/svg11.dtd">
<svg version="1.1" xmlns="http://www.w3.org/2000/svg" xmlns:xlink="http://www.w3.org/1999/xlink" width="100" height="100" viewBox="0 0 100 100">
<path d="M56.2 18.7h37.6c1.7 0 3.1-1.4 3.1-3.1s-1.4-3.1-3.1-3.1h-37.6c-1.7 0-3.1 1.4-3.1 3.1s1.4 3.1 3.1 3.1zM93.8 87.5h-43.8c-1.8 0-3.2 1.4-3.2 3.1s1.4 3.1 3.2 3.1h43.8c1.7 0 3.1-1.4 3.1-3.1s-1.4-3.1-3.1-3.1zM58.4 36.6c1.2-1.2 1.2-3.3 0-4.5l-24.9-24.9c0 0 0 0 0 0-0.6-0.6-1.4-1-2.3-1s-1.7 0.4-2.3 1c0 0 0 0 0 0l-24.9 24.9c-1.2 1.2-1.2 3.3 0 4.5 1.3 1.2 3.3 1.2 4.6 0l19.5-19.5v73.5c0 1.8 1.4 3.2 3.1 3.2s3.1-1.4 3.1-3.2v-73.5l19.5 19.5c1.3 1.2 3.3 1.2 4.6 0zM93.8 68.7h-43.8c-1.8 0-3.2 1.4-3.2 3.2s1.4 3.1 3.2 3.1h43.8c1.7 0 3.1-1.4 3.1-3.1s-1.4-3.2-3.1-3.2zM93.8 31.2h-25.1c-1.7 0-3.1 1.4-3.1 3.2s1.4 3.1 3.1 3.1h25.1c1.7 0 3.1-1.4 3.1-3.1s-1.4-3.2-3.1-3.2zM93.8 50h-43.8c-1.8 0-3.2 1.4-3.2 3.1s1.4 3.1 3.2 3.1h43.8c1.7 0 3.1-1.4 3.1-3.1s-1.4-3.1-3.1-3.1z"></path>
</svg>
