<?xml version="1.0" encoding="utf-8"?>
<!-- Generated by IcoMoon.io -->
<!DOCTYPE svg PUBLIC "-//W3C//DTD SVG 1.1//EN" "http://www.w3.org/Graphics/SVG/1.1/DTD/svg11.dtd">
<svg version="1.1" xmlns="http://www.w3.org/2000/svg" xmlns:xlink="http://www.w3.org/1999/xlink" width="100" height="100" viewBox="0 0 100 100">
<path d="M90.6 28.1h-15.6c-6.1-14.7-20.6-25-37.5-25-22.4 0-40.6 18.2-40.6 40.6s18.2 40.7 40.6 40.7c11.5 0 21.8-4.9 29.2-12.5h-9.5c-5.6 3.9-12.4 6.2-19.7 6.2-19 0-34.4-15.4-34.4-34.4 0-18.9 15.4-34.3 34.4-34.3 13.3 0 24.7 7.6 30.5 18.7h-8.6l12.4 14.9c0 0.3 0.1 0.5 0.1 0.7h0.5l2.6 3.2 2.6-3.2h0.5c0-0.1 0-0.3 0-0.5l12.5-15.1z"></path>
</svg>
