<?xml version="1.0" encoding="utf-8"?>
<!-- Generated by IcoMoon.io -->
<!DOCTYPE svg PUBLIC "-//W3C//DTD SVG 1.1//EN" "http://www.w3.org/Graphics/SVG/1.1/DTD/svg11.dtd">
<svg version="1.1" xmlns="http://www.w3.org/2000/svg" xmlns:xlink="http://www.w3.org/1999/xlink" width="100" height="100" viewBox="0 0 100 100">
<path d="M77.9 1.9c-9.5-5.2-16 1-21.5 10l-3.3 5.5-3.4 5.5v-0.1l-1.6 2.7-30 49.1c-5.5 9-0.1 25.4-0.1 25.4s17.7-3.8 23.2-12.8l38.3-62.7c5.5-9 8-17.4-1.6-22.6zM35.4 84.1c-3.7 6-12.4 7.7-12.4 7.7s-2.8-8 0.9-14l28.3-46.4 11.5 6.3-28.3 46.4zM67 32.3l-11.5-6.3 3.3-5.5 11.6 6.3-3.4 5.5zM73.7 21.4l-11.5-6.3c3.6-6 6-11.2 12.4-7.8 6.4 3.5 2.8 8.1-0.9 14.1z"></path>
</svg>
