<?xml version="1.0" encoding="utf-8"?>
<!-- Generated by IcoMoon.io -->
<!DOCTYPE svg PUBLIC "-//W3C//DTD SVG 1.1//EN" "http://www.w3.org/Graphics/SVG/1.1/DTD/svg11.dtd">
<svg version="1.1" xmlns="http://www.w3.org/2000/svg" xmlns:xlink="http://www.w3.org/1999/xlink" width="100" height="100" viewBox="0 0 100 100">
<path d="M48.2 56.2l48.6-48.6-4.4-4.5-48.6 48.6 4.4 4.5zM78.1 87.5c0 1.7-1.4 3.1-3.1 3.1h-62.5c-1.7 0-3.1-1.4-3.1-3.1v-62.5c0-1.8 1.4-3.2 3.1-3.2h46.9v-6.2h-50c-3.4 0-6.2 2.8-6.2 6.2v68.8c0 3.5 2.8 6.2 6.2 6.2h68.7c3.5 0 6.3-2.7 6.3-6.2v-50h-6.3v46.9z"></path>
</svg>
