<?xml version="1.0" encoding="utf-8"?>
<!-- Generated by IcoMoon.io -->
<!DOCTYPE svg PUBLIC "-//W3C//DTD SVG 1.1//EN" "http://www.w3.org/Graphics/SVG/1.1/DTD/svg11.dtd">
<svg version="1.1" xmlns="http://www.w3.org/2000/svg" xmlns:xlink="http://www.w3.org/1999/xlink" width="100" height="100" viewBox="0 0 100 100">
<path d="M89 10.9c-6.2-6.2-16.2-6.2-22.3 0l-2.3 2.2-6.2-6.2-4.5 4.4 6.3 6.3-20.1 20.2-20.2 20.1-6.2-6.2-4.5 4.4 6.3 6.3-4.5 4.5-4.5 22.4 4.5 4.4 22.4-4.4 29-29.2 4.5-4.4 22.3-22.4c6.2-6.2 6.2-16.2 0-22.4zM84.5 28.8l-26.8 26.9-27.7 27.7-16.7 3.4 3.3-16.8 3.1-3.1 11.7 11.6 4.4-4.4-11.6-11.7 20.1-20.2 20.1-20.1 11.7 11.6 4.4-4.4-11.6-11.7 2.2-2.2c3.7-3.7 9.8-3.7 13.5 0s3.6 9.7-0.1 13.4z"></path>
</svg>
