<?xml version="1.0" encoding="utf-8"?>
<!-- Generated by IcoMoon.io -->
<!DOCTYPE svg PUBLIC "-//W3C//DTD SVG 1.1//EN" "http://www.w3.org/Graphics/SVG/1.1/DTD/svg11.dtd">
<svg version="1.1" xmlns="http://www.w3.org/2000/svg" xmlns:xlink="http://www.w3.org/1999/xlink" width="100" height="100" viewBox="0 0 100 100">
<path d="M50 31.2c-10.3 0-18.7 8.4-18.7 18.8 0 10.3 8.4 18.7 18.7 18.7 10.4 0 18.8-8.4 18.8-18.7 0-10.4-8.4-18.8-18.8-18.8zM50 62.5c-6.9 0-12.5-5.6-12.5-12.5s5.6-12.5 12.5-12.5c6.9 0 12.5 5.6 12.5 12.5s-5.6 12.5-12.5 12.5zM96.6 28.2c-5-8.5-14.1-13-23.3-12.3-3.7-9.3-12.7-15.9-23.3-15.9-10.5 0-19.5 6.6-23.2 15.8-4.8-0.4-9.7 0.7-14.2 3.3-11.9 6.8-16 22.1-9.1 34 1.8 3.2 4.3 5.8 7.2 7.8-2.8 4-4.4 8.9-4.4 14.1 0 13.8 11.2 25 25 25 7.5 0 14.2-3.4 18.7-8.6 4.6 5.2 11.3 8.6 18.8 8.6 13.8 0 25-11.2 25-25 0-5.3-1.7-10.2-4.5-14.2 10.4-7.3 13.7-21.4 7.3-32.6zM87.5 71.9c0 0.6-0.1 1.1-0.1 1.7 0 0.5 0.1 0.9 0.1 1.4 0 10.4-8.4 18.7-18.7 18.7-0.6 0-1.2 0-1.7-0.1-0.5 0-1 0.2-1.4 0.2-7.6 0-14.2-3.9-18.1-9.7-3.2 5.8-9.3 9.6-16.3 9.6-10.4 0-18.8-8.3-18.8-18.7 0-6.8 3.7-12.7 9.1-16-8.7-1.6-15.3-9.2-15.3-18.4 0-10.3 8.4-18.7 18.7-18.7 2.3 0 4.5 0.4 6.5 1.2 1-9.5 8.8-16.9 18.5-16.9s17.6 7.4 18.6 16.9c2-0.8 4.2-1.2 6.4-1.2 10.4 0 18.8 8.4 18.8 18.7 0 7.8-4.8 14.4-11.5 17.2 3.2 3.8 5.2 8.7 5.2 14.1z"></path>
</svg>
