<?xml version="1.0" encoding="utf-8"?>
<!-- Generated by IcoMoon.io -->
<!DOCTYPE svg PUBLIC "-//W3C//DTD SVG 1.1//EN" "http://www.w3.org/Graphics/SVG/1.1/DTD/svg11.dtd">
<svg version="1.1" xmlns="http://www.w3.org/2000/svg" xmlns:xlink="http://www.w3.org/1999/xlink" width="100" height="100" viewBox="0 0 100 100">
<path d="M87.5 50h-21.9v-6.3h15.6v-31.2h-15.6v-6.3c0-3.4-2.8-6.2-6.2-6.2h-18.8c-3.4 0-6.2 2.8-6.2 6.2v6.3h-21.9l-12.5 15.6 12.5 15.6h21.9v6.3h-15.7v31.2h15.7v12.6c0 3.4 2.8 6.2 6.2 6.2h18.8c3.4 0 6.2-2.8 6.2-6.2v-12.6h21.9l12.5-15.6-12.5-15.6zM40.6 9.4c0-1.8 1.4-3.2 3.1-3.2h12.5c1.8 0 3.2 1.4 3.2 3.2v3.1h-18.8v-3.1zM15.6 37.5l-9.4-9.4 9.4-9.4h59.4v18.8h-59.4zM59.4 43.7v6.3h-18.8v-6.3h18.8zM59.4 90.6c0 1.7-1.4 3.1-3.2 3.1h-12.5c-1.7 0-3.1-1.4-3.1-3.1v-9.4h18.8v9.4zM84.4 75h-59.4v-18.8h59.4l9.3 9.4-9.3 9.4z"></path>
</svg>
