<?xml version="1.0" encoding="utf-8"?>
<!-- Generated by IcoMoon.io -->
<!DOCTYPE svg PUBLIC "-//W3C//DTD SVG 1.1//EN" "http://www.w3.org/Graphics/SVG/1.1/DTD/svg11.dtd">
<svg version="1.1" xmlns="http://www.w3.org/2000/svg" xmlns:xlink="http://www.w3.org/1999/xlink" width="100" height="100" viewBox="0 0 100 100">
<path d="M21.9 24.9c-12.6 12.4-12.5 29.8-2.8 43.7-7.3 9.9-12 19.1-12 19.1-1.2 1.1-1.2 3.1 0 4.3 1.3 1.2 3.3 1.2 4.5 0 0 0 4.5-8.9 11.6-18.5 0.4 0.5 0.8 1 1.3 1.5 14.8 14.5 36.5 16.9 51.1 2.5 15.4-15.1 18.2-70.4 18.2-70.4s-52.1-1.6-71.9 17.8zM71.1 73.2c-11 10.8-26.6 12.8-42.2-2.5-0.8-0.7-1.3-1.4-1.9-2.1 2.1-2.6 4.3-5.1 6.6-7.4 13.9-13.7 28.4-18.6 28.4-18.6 1.2-1.2 1.2-3.1 0-4.3-1.3-1.2-3.3-1.2-4.5-0.1 0 0-14.2 4.7-28 18.2-2.3 2.3-4.4 4.7-6.5 7.2-8.8-12.8-6-25.1 3.3-34.3 19.9-19.4 61.2-16.5 61.2-16.5s-3.2 47.4-16.4 60.4z"></path>
</svg>
