<?xml version="1.0" encoding="utf-8"?>
<!-- Generated by IcoMoon.io -->
<!DOCTYPE svg PUBLIC "-//W3C//DTD SVG 1.1//EN" "http://www.w3.org/Graphics/SVG/1.1/DTD/svg11.dtd">
<svg version="1.1" xmlns="http://www.w3.org/2000/svg" xmlns:xlink="http://www.w3.org/1999/xlink" width="100" height="100" viewBox="0 0 100 100">
<path d="M25 6.2h-6.3v31.3h6.3v-31.3zM0 81.2h6.2v-31.2h-6.2v31.2zM12.5 18.7h-6.3v18.8h6.3v-18.8zM69.2 31.2l-44.3 59.4 5.9 3.1 44.2-59.3-5.8-3.2zM96.9 50h-25.2l-4.3 6.2h7.6v18.8h-20.4l-4.3 6.2h46.6c1.7 0 3.1-1.4 3.1-3.1v-25c0-1.7-1.4-3.1-3.1-3.1zM93.7 75h-12.5v-18.8h12.5v18.8zM18.7 56.2h18.3l4.3-6.2h-25.7c-1.7 0-3.1 1.4-3.1 3.1v25c0 1.7 1.4 3.1 3.1 3.1h4.3l4.3-6.2h-5.5v-18.8z"></path>
</svg>
