<?xml version="1.0" encoding="utf-8"?>
<!-- Generated by IcoMoon.io -->
<!DOCTYPE svg PUBLIC "-//W3C//DTD SVG 1.1//EN" "http://www.w3.org/Graphics/SVG/1.1/DTD/svg11.dtd">
<svg version="1.1" xmlns="http://www.w3.org/2000/svg" xmlns:xlink="http://www.w3.org/1999/xlink" width="100" height="100" viewBox="0 0 100 100">
<path d="M74.6 7.7c0.9-1.4 0.4-3.3-1.1-4.2-1.5-0.8-3.4-0.3-4.3 1.2l-21.2 35.9h7.3l19.3-32.9zM66.8 40.6l24.2-21.6c1.3-1.1 1.4-3.1 0.3-4.4s-3.1-1.4-4.4-0.2l-29.5 26.2h9.4zM96.9 46.9h-96.9c0 27.6 22.4 50 50 50s50-22.4 50-50h-3.1zM50 90.6c-14.8 0-27.7-7.5-35.6-18.7h71.1c-7.8 11.2-20.7 18.7-35.5 18.7zM89.2 65.6h-78.4c-1.9-3.9-3.3-8.1-3.9-12.5h86.2c-0.6 4.4-2.1 8.6-3.9 12.5z"></path>
</svg>
