<?xml version="1.0" encoding="utf-8"?>
<!-- Generated by IcoMoon.io -->
<!DOCTYPE svg PUBLIC "-//W3C//DTD SVG 1.1//EN" "http://www.w3.org/Graphics/SVG/1.1/DTD/svg11.dtd">
<svg version="1.1" xmlns="http://www.w3.org/2000/svg" xmlns:xlink="http://www.w3.org/1999/xlink" width="100" height="100" viewBox="0 0 100 100">
<path d="M100.1 69.9c0-35.2-13.2-63.7-50.1-63.7s-50.1 28.5-50.1 63.7c0 0-3.2 18.9 34.6 23 0.9 0.5 1.9 0.9 2.9 0.9h12.6c0 0 0 0 0 0h12.5c1.1 0 2.1-0.4 3-0.9 37.8-4.1 34.6-23 34.6-23zM62.5 84.4c0 1.7-1.4 3.1-3.1 3.1h-18.8c-1.7 0-3.2-1.4-3.2-3.1v-12.5c0-1.8 1.5-3.2 3.2-3.2h18.8c1.7 0 3.1 1.4 3.1 3.2v12.5zM91.5 76.8c-2.5 2.9-8.5 7.3-22.7 9.4v-17.5c0-3.4-2.8-6.2-6.3-6.2h-25.1c-3.4 0-6.2 2.8-6.2 6.2v17.5c-13.8-2.1-19.8-6.2-22.4-9-2.7-3-2.7-5.7-2.7-6.3l0.1-0.3v-0.7c0-26.2 7.6-57.4 43.8-57.4s43.8 31.2 43.8 57.4v0.5l0.1 0.6c0 0 0.2 2.7-2.4 5.8z"></path>
</svg>
