<?xml version="1.0" encoding="utf-8"?>
<!-- Generated by IcoMoon.io -->
<!DOCTYPE svg PUBLIC "-//W3C//DTD SVG 1.1//EN" "http://www.w3.org/Graphics/SVG/1.1/DTD/svg11.dtd">
<svg version="1.1" xmlns="http://www.w3.org/2000/svg" xmlns:xlink="http://www.w3.org/1999/xlink" width="100" height="100" viewBox="0 0 100 100">
<path d="M75.8 43.8c-3.2-3.8-7.2-9.2-10.6-15.3-3.5-6.5-6.7-17.1-8.1-22.3h8.5c1.7 0 3.1-1.4 3.1-3.1s-1.4-3.1-3.1-3.1h-31.2c-1.8 0-3.2 1.4-3.2 3.1s1.4 3.1 3.2 3.1h10.5c-3.2 5.2-9.7 15.8-13.3 22.3-4 7.4-6.7 16-8.2 21.6-13.1 0.9-23.4 11.6-23.4 24.9 0 13.8 11.2 25 25 25s25-11.2 25-25c0-12.2-8.7-22.3-20.2-24.5 1.5-4.9 4.1-12.1 7.7-19.5 2.8-5.6 8.4-13.8 12.8-19.9 2.7 6.1 6.3 14.3 9 19.9 3.6 7.3 7.2 11.4 9.6 13.6-10.8 2.7-18.9 12.5-18.9 24.1 0 13.9 11.2 25.1 25 25.1s25-11.2 25-25.1c0-13.5-10.8-24.5-24.2-24.9zM43.7 75c0 10.3-8.3 18.7-18.7 18.7s-18.8-8.4-18.8-18.7 8.4-18.8 18.8-18.8c10.4 0 18.7 8.4 18.7 18.8zM75 87.5c-10.4 0-18.8-8.4-18.8-18.8s8.4-18.7 18.8-18.7 18.7 8.4 18.7 18.7-8.4 18.8-18.7 18.8z"></path>
</svg>
