<?xml version="1.0" encoding="utf-8"?>
<!-- Generated by IcoMoon.io -->
<!DOCTYPE svg PUBLIC "-//W3C//DTD SVG 1.1//EN" "http://www.w3.org/Graphics/SVG/1.1/DTD/svg11.dtd">
<svg version="1.1" xmlns="http://www.w3.org/2000/svg" xmlns:xlink="http://www.w3.org/1999/xlink" width="100" height="100" viewBox="0 0 100 100">
<path d="M90.6 28.1c0-8.6-7-15.6-15.6-15.6-1.7 0-3.3 0.3-4.9 0.8-3.3-7.8-11-13.3-20.1-13.3s-16.8 5.5-20.2 13.3c-1.5-0.5-3.1-0.8-4.8-0.8-8.6 0-15.6 7-15.6 15.6 0 1.1 0.1 2.1 0.3 3.1h-0.3v6.3h0.3c-0.1 1-0.3 2-0.3 3.1 0 21.4 16.5 38.7 37.5 40.3v12.9h-12.5v6.2h31.2v-6.2h-12.5v-12.9c21-1.6 37.5-18.9 37.5-40.3 0-1.1-0.2-2.1-0.3-3.1h0.3v-6.3h-0.3c0.2-1 0.3-2 0.3-3.1zM50 6.2c6.7 0 12.4 4.3 14.6 10.3-3.2 2.9-5.2 7-5.2 11.6 0 1.1 0.1 2.1 0.4 3.1h-19.6c0.3-1 0.4-2 0.4-3.1 0-4.6-2-8.7-5.2-11.6 2.2-6 7.9-10.3 14.6-10.3zM25 18.7c5.2 0 9.4 4.2 9.4 9.4 0 1.1-0.3 2.2-0.7 3.1h-17.4c-0.4-0.9-0.7-2-0.7-3.1 0-5.2 4.2-9.4 9.4-9.4zM50 75c-19 0-34.4-15.4-34.4-34.4 0-1.1 0.2-2.1 0.3-3.1h68.2c0.1 1 0.3 2 0.3 3.1 0 19-15.4 34.4-34.4 34.4zM83.7 31.2h-17.4c-0.4-0.9-0.7-2-0.7-3.1 0-5.2 4.2-9.4 9.4-9.4s9.4 4.2 9.4 9.4c0 1.1-0.3 2.2-0.7 3.1z"></path>
</svg>
