<?xml version="1.0" encoding="utf-8"?>
<!-- Generated by IcoMoon.io -->
<!DOCTYPE svg PUBLIC "-//W3C//DTD SVG 1.1//EN" "http://www.w3.org/Graphics/SVG/1.1/DTD/svg11.dtd">
<svg version="1.1" xmlns="http://www.w3.org/2000/svg" xmlns:xlink="http://www.w3.org/1999/xlink" width="100" height="100" viewBox="0 0 100 100">
<path d="M93.7 53.1h-0.6c0.3-2 0.6-4.1 0.6-6.2 0-24.2-19.5-43.8-43.7-43.8s-43.8 19.6-43.8 43.8c0 2.1 0.4 4.2 0.7 6.2h-0.7c-3.4 0-6.2 2.8-6.2 6.3v12.5c0 3.4 2.8 6.2 6.2 6.2h2.1l4.2 12.5c0 3.5 2.8 6.3 6.2 6.3h62.5c3.5 0 6.3-2.8 6.3-6.3l4.2-12.5h2c3.5 0 6.3-2.8 6.3-6.2v-12.5c0-3.5-2.8-6.3-6.3-6.3zM50 9.4c20.7 0 37.5 16.8 37.5 37.5 0 2.1-0.3 4.2-0.6 6.2h-73.8c-0.3-2-0.6-4.1-0.6-6.2 0-20.7 16.8-37.5 37.5-37.5zM81.2 87.5c0 1.7-1.4 3.1-3.1 3.1h-56.2c-1.8 0-3.2-1.4-3.2-3.1l-4.6-9.4h71.8l-4.7 9.4zM93.7 68.7c0 1.8-1.4 3.2-3.1 3.2h-81.2c-1.8 0-3.2-1.4-3.2-3.2v-6.2c0-1.7 1.4-3.1 3.2-3.1h81.2c1.7 0 3.1 1.4 3.1 3.1v6.2z"></path>
</svg>
