<?xml version="1.0" encoding="utf-8"?>
<!-- Generated by IcoMoon.io -->
<!DOCTYPE svg PUBLIC "-//W3C//DTD SVG 1.1//EN" "http://www.w3.org/Graphics/SVG/1.1/DTD/svg11.dtd">
<svg version="1.1" xmlns="http://www.w3.org/2000/svg" xmlns:xlink="http://www.w3.org/1999/xlink" width="100" height="100" viewBox="0 0 100 100">
<path d="M28.2 76.5v-0.2l-0.5 0.5c0.1-0.1 0.3-0.2 0.5-0.3zM87.2 12.6c-7.8-7.8-20.6-10-33.4 2.8-9.1 9.1-14.6 22.2-14.2 31.9l-12 11.9c-4.8-4.9-12.8-4.9-17.7 0s-4.8 12.8 0 17.7c2.7 2.7 6.3 3.7 9.8 3.5-0.2 3.5 0.8 7 3.5 9.7 4.9 4.8 12.8 4.8 17.7 0s4.9-12.8 0-17.6c0 0 0 0 0 0l12.1-12.2c9.7 0.3 22.7-5.1 31.7-14.1 12.8-12.8 10.3-25.7 2.5-33.6zM35.1 69.4c0 0 0 0 0 0l-3.8 3.8v2c0.2-0.1 0.5-0.2 0.8-0.2 3.4 0 6.2 2.8 6.2 6.3s-2.8 6.2-6.2 6.2c-3.4 0-6.3-2.8-6.3-6.3 0-1.7 0.7-3.2 1.8-4.3l-4.4-4.5 1.2-1.2-0.2-0.2c-1.1 1.9-3.1 3.2-5.4 3.2-3.5 0.1-6.3-2.7-6.3-6.2s2.8-6.3 6.3-6.3c3.5 0 6.3 2.8 6.3 6.2 0 0.3-0.2 0.6-0.2 0.8h2l5.2-5.1 9.2-9.2c0.5 0.9 1 1.8 1.7 2.5 0.8 0.8 1.7 1.3 2.8 1.8l-10.7 10.7zM79.6 42.6c-10.5 10.5-26.6 15.5-32.2 9.9s-0.4-21.5 10.1-32c10.4-10.5 19.7-9 25.3-3.4s7.3 15-3.2 25.5z"></path>
</svg>
