<?xml version="1.0" encoding="utf-8"?>
<!-- Generated by IcoMoon.io -->
<!DOCTYPE svg PUBLIC "-//W3C//DTD SVG 1.1//EN" "http://www.w3.org/Graphics/SVG/1.1/DTD/svg11.dtd">
<svg version="1.1" xmlns="http://www.w3.org/2000/svg" xmlns:xlink="http://www.w3.org/1999/xlink" width="100" height="100" viewBox="0 0 100 100">
<path d="M50 0c-27.6 0-50 22.4-50 50 0 0 0 0 0 0v43.7c0 3.5 2.8 6.3 6.2 6.3h87.5c3.5 0 6.3-2.8 6.3-6.3v-43.7c0-27.6-22.4-50-50-50zM93.7 90.6c0 1.7-1.4 3.1-3.1 3.1h-81.2c-1.8 0-3.2-1.4-3.2-3.1v-15.6h87.5v15.6zM93.7 68.7h-87.5v-12.5h87.5v12.5zM93.7 50h-87.5v-3.1c0-0.6 0.2-1.1 0.5-1.6 2.4-21.9 20.7-39.1 43.3-39.1s40.9 17.2 43.3 39.1c0.3 0.5 0.4 1 0.4 1.6v3.1z"></path>
</svg>
