<?xml version="1.0" encoding="utf-8"?>
<!-- Generated by IcoMoon.io -->
<!DOCTYPE svg PUBLIC "-//W3C//DTD SVG 1.1//EN" "http://www.w3.org/Graphics/SVG/1.1/DTD/svg11.dtd">
<svg version="1.1" xmlns="http://www.w3.org/2000/svg" xmlns:xlink="http://www.w3.org/1999/xlink" width="100" height="100" viewBox="0 0 100 100">
<path d="M90.6 46.9c0-8.8-5.2-16.4-12.7-19.8 0.1-0.7 0.2-1.4 0.2-2.1 0-13.8-11.2-25-25-25s-25 11.2-25 25c0 0.1 0 0.2 0.1 0.3-10.6 1.5-18.8 10.5-18.8 21.6 0 1 0.1 2.1 0.3 3.1h-0.3l43.7 50 37.5-50h-0.3c0.2-1 0.3-2.1 0.3-3.1zM53.1 6.2c10.4 0 18.8 8.4 18.8 18.8 0 0.1-0.1 0.2-0.1 0.3-1-0.1-2-0.3-3.1-0.3-8 0-14.9 4.4-18.7 10.8-3.3-5.5-8.9-9.5-15.6-10.5 0-0.1 0-0.2 0-0.3 0-10.4 8.4-18.8 18.7-18.8zM15.6 46.9c0-8.7 7-15.7 15.6-15.7 8.7 0 15.7 7 15.7 15.7 0 1-0.1 2.1-0.3 3.1h-30.7c-0.2-1-0.3-2.1-0.3-3.1zM53.1 90.6l-31.2-34.4h56.2l-25 34.4zM84.1 50h-30.7c-0.2-1-0.3-2.1-0.3-3.1 0-8.7 7-15.7 15.6-15.7s15.7 7 15.7 15.7c0 1-0.1 2.1-0.3 3.1z"></path>
</svg>
