<?xml version="1.0" encoding="utf-8"?>
<!-- Generated by IcoMoon.io -->
<!DOCTYPE svg PUBLIC "-//W3C//DTD SVG 1.1//EN" "http://www.w3.org/Graphics/SVG/1.1/DTD/svg11.dtd">
<svg version="1.1" xmlns="http://www.w3.org/2000/svg" xmlns:xlink="http://www.w3.org/1999/xlink" width="100" height="100" viewBox="0 0 100 100">
<path d="M77.7 47.1c-3.3-5.6-8.4-14.3-12.5-21.7-3.2-5.9-6-12.3-7.6-16h8c1.7 0 3.1-1.4 3.1-3.2 0-1.7-1.4-3.1-3.1-3.1h-31.2c-1.8 0-3.2 1.4-3.2 3.1 0 1.8 1.4 3.2 3.2 3.2h9.5c-3.5 3.7-9.1 10.1-12.3 16-4 7.3-6.7 16-8.2 21.6-13.1 0.9-23.4 11.6-23.4 24.9 0 13.8 11.2 25 25 25s25-11.2 25-25c0-12.2-8.7-22.3-20.2-24.5 1.5-4.9 4.1-12.1 7.7-19.6 2.8-5.6 8.4-11.7 12.8-16 2.6 4.3 6.3 10.4 9 16 4.3 8.8 8.6 15.9 10.9 19.6-11.5 2.2-20.2 12.3-20.2 24.5 0 13.8 11.2 25 25 25s25-11.2 25-25c0-12.9-9.8-23.4-22.3-24.8zM43.7 71.9c0 10.3-8.3 18.7-18.7 18.7s-18.8-8.4-18.8-18.7 8.4-18.8 18.8-18.8c10.4 0 18.7 8.4 18.7 18.8zM75 90.6c-10.4 0-18.8-8.4-18.8-18.7s8.4-18.8 18.8-18.8 18.7 8.4 18.7 18.8-8.4 18.7-18.7 18.7z"></path>
</svg>
