<?xml version="1.0" encoding="utf-8"?>
<!-- Generated by IcoMoon.io -->
<!DOCTYPE svg PUBLIC "-//W3C//DTD SVG 1.1//EN" "http://www.w3.org/Graphics/SVG/1.1/DTD/svg11.dtd">
<svg version="1.1" xmlns="http://www.w3.org/2000/svg" xmlns:xlink="http://www.w3.org/1999/xlink" width="100" height="100" viewBox="0 0 100 100">
<path d="M93.8 76.8l-70.5-70.5-2.3 2.2-0.1-0.1c-9.1 9-14.7 21.5-14.7 35.3 0 27.6 22.4 50 50 50 12.7 0 24.2-4.7 33-12.5l0.1 0.1 1-1.1c0.4-0.4 0.9-0.7 1.3-1.1l-0.1-0.1 2.3-2.2zM56.2 87.5c-24.1 0-43.7-19.6-43.7-43.8 0-10.9 4.1-20.8 10.8-28.5l17.4 17.5-21.9 4.3 1.7 6.7 26.1-5.2 5 5.1-20.4 20.4 4.7 4.7 20.4-20.4 3 3v29.9h6.3v-23.6l19.1 19.1c-7.7 6.6-17.5 10.8-28.5 10.8z"></path>
</svg>
