<?xml version="1.0" encoding="utf-8"?>
<!-- Generated by IcoMoon.io -->
<!DOCTYPE svg PUBLIC "-//W3C//DTD SVG 1.1//EN" "http://www.w3.org/Graphics/SVG/1.1/DTD/svg11.dtd">
<svg version="1.1" xmlns="http://www.w3.org/2000/svg" xmlns:xlink="http://www.w3.org/1999/xlink" width="100" height="100" viewBox="0 0 100 100">
<path d="M66.8 37.5l24.2-21.6c1.3-1.1 1.4-3.1 0.3-4.4s-3.1-1.4-4.4-0.3l-29.5 26.3h9.4zM74.6 4.6c0.9-1.5 0.4-3.3-1.1-4.2s-3.4-0.3-4.3 1.1l-21.2 36h7.3l19.3-32.9zM96.9 43.7h-96.9c0 18.5 10.1 34.7 25 43.3v0.5h1c1.8 1 3.7 1.9 5.6 2.7-0.1 0.7-0.4 1.3-0.4 2 0 4.3 3.5 7.8 7.9 7.8h21.8c4.3 0 7.8-3.5 7.8-7.8 0-0.7-0.2-1.3-0.4-2 2-0.8 3.9-1.7 5.7-2.7h1v-0.5c14.9-8.6 25-24.8 25-43.3h-3.1zM62.5 93.7h-25v-6.2h25v6.2zM72.1 81.2h-44.2c-11.1-6.6-19.1-17.8-21-31.2h86.2c-1.9 13.4-9.9 24.6-21 31.2z"></path>
</svg>
