<?xml version="1.0" encoding="utf-8"?>
<!-- Generated by IcoMoon.io -->
<!DOCTYPE svg PUBLIC "-//W3C//DTD SVG 1.1//EN" "http://www.w3.org/Graphics/SVG/1.1/DTD/svg11.dtd">
<svg version="1.1" xmlns="http://www.w3.org/2000/svg" xmlns:xlink="http://www.w3.org/1999/xlink" width="100" height="100" viewBox="0 0 100 100">
<path d="M48.4 24.5c1.5 0.9 3.4 0.4 4.3-1.1 0 0-0.1-4.6 3-9.2 3.2-4.7 9.5-9.5 9.5-9.5 0.9-1.5 0.4-3.4-1.1-4.3s-3.4-0.3-4.3 1.2c0 0-6.3 4.6-9.4 9.3s-3.1 9.3-3.1 9.3c-0.9 1.6-0.4 3.5 1.1 4.3zM69.4 25c-8.4 0-14.3 6.2-19.4 6.2s-11-6.2-19.4-6.2c-13.4 0-24.4 11.2-24.4 25s11.6 50 25 50c12.5 0 12.5-6.1 18.8-6.1s6.2 6.1 18.7 6.1c13.5 0 25-36.2 25-50s-10.9-25-24.3-25zM68.7 93.7c-5.8 0-5.7-1.5-8.8-3.1-2.7-1.4-5.8-2.9-9.9-2.9s-7.2 1.5-9.9 2.9c-3.2 1.6-3 3.1-8.9 3.1s-18.7-27-18.7-43.7c0-10.4 8.1-18.8 18.1-18.8 3.2 0 6.2 1.5 9.3 3.1s6.4 3.2 10.1 3.2c3.7 0 6.9-1.6 10.1-3.2 3.1-1.6 6.1-3.1 9.3-3.1 10 0 18.1 8.4 18.1 18.8 0 16.7-12.8 43.7-18.8 43.7z"></path>
</svg>
