<?xml version="1.0" encoding="utf-8"?>
<!-- Generated by IcoMoon.io -->
<!DOCTYPE svg PUBLIC "-//W3C//DTD SVG 1.1//EN" "http://www.w3.org/Graphics/SVG/1.1/DTD/svg11.dtd">
<svg version="1.1" xmlns="http://www.w3.org/2000/svg" xmlns:xlink="http://www.w3.org/1999/xlink" width="100" height="100" viewBox="0 0 100 100">
<path d="M100 31.2c0-10.3-22.4-18.7-50-18.7s-50 8.4-50 18.7c0 0.7 0.1 1.4 0.3 2-0.1 1.5-0.3 2.9-0.3 4.3 0 27.6 22.4 50 50 50s50-22.4 50-50c0-1.4-0.2-2.8-0.3-4.3 0.2-0.6 0.3-1.3 0.3-2zM50 81.2c-23.1 0-41.9-18-43.5-40.7 8.7 5.7 24.9 9.5 43.5 9.5s34.8-3.8 43.4-9.5c-1.5 22.7-20.3 40.7-43.4 40.7zM50 43.7c-24.2 0-43.8-5.6-43.8-12.5s19.6-12.5 43.8-12.5c24.2 0 43.7 5.6 43.7 12.5s-19.5 12.5-43.7 12.5z"></path>
</svg>
