<?xml version="1.0" encoding="utf-8"?>
<!-- Generated by IcoMoon.io -->
<!DOCTYPE svg PUBLIC "-//W3C//DTD SVG 1.1//EN" "http://www.w3.org/Graphics/SVG/1.1/DTD/svg11.dtd">
<svg version="1.1" xmlns="http://www.w3.org/2000/svg" xmlns:xlink="http://www.w3.org/1999/xlink" width="100" height="100" viewBox="0 0 100 100">
<path d="M87.4 65.6c0-27.6-9.9-50-37.4-50s-37.4 22.4-37.4 50c0 0-2.7 16.4 30 18.5 0.4 0.1 0.7 0.3 1.1 0.3h6.1c0.1 0 0.1 0 0.2 0 0 0 0 0 0 0 0.1 0 0.1 0 0.2 0h6c0.5 0 0.8-0.2 1.2-0.3 32.7-2.1 30-18.5 30-18.5zM56.2 78.1h-12.5v-12.5h12.5v12.5zM79.3 70.8c-1.9 2-6.4 5.1-16.8 6.6v-11.8c0-3.4-2.8-6.2-6.3-6.2h-12.5c-3.4 0-6.2 2.8-6.2 6.2v11.8c-10.4-1.5-14.9-4.6-16.8-6.6-1.8-2-1.9-3.7-1.9-4.2v-1c0-29 10.5-43.7 31.2-43.7s31.2 14.7 31.2 43.7l-0.1 0.3 0.1 0.6c0 0.5-0.1 2.3-1.9 4.3z"></path>
</svg>
