<?xml version="1.0" encoding="utf-8"?>
<!-- Generated by IcoMoon.io -->
<!DOCTYPE svg PUBLIC "-//W3C//DTD SVG 1.1//EN" "http://www.w3.org/Graphics/SVG/1.1/DTD/svg11.dtd">
<svg version="1.1" xmlns="http://www.w3.org/2000/svg" xmlns:xlink="http://www.w3.org/1999/xlink" width="100" height="100" viewBox="0 0 100 100">
<path d="M98.8 42.2l-40.5-32.2c-0.9-0.7-2.2-0.9-3.3-0.4s-1.8 1.6-1.8 2.8l-0.1 16.9c-18.1 0.6-32.2 6.2-41.3 16.6-14.9 16.7-11.5 41.2-11.4 42.2 0.2 1.5 1.4 2.5 2.9 2.5 0 0 0.1 0 0.1 0 1.6 0 2.6-1.2 2.7-2.7 0.1-1.1 3.2-28.3 47-28.2l0.1 17.3c0 1.2 0.7 2.2 1.8 2.7s2.4 0.4 3.3-0.4l40.6-32.4c0.7-0.6 1.1-1.5 1.1-2.4s-0.4-1.7-1.2-2.3zM59.5 70.6v-14c0-0.8-0.4-1.6-0.9-2.2-0.6-0.5-1.4-0.8-2.2-0.8-0.1 0-0.1 0-0.1 0-31.2 0-43.2 10.2-50 19.2 1-7.2 3.9-15.9 10.3-23 8.4-9.5 22-14.5 39.8-14.5 1.7 0 3.1-1.3 3.1-3v-13.6l32.4 25.8-32.4 26.1z"></path>
</svg>
