<?xml version="1.0" encoding="utf-8"?>
<!-- Generated by IcoMoon.io -->
<!DOCTYPE svg PUBLIC "-//W3C//DTD SVG 1.1//EN" "http://www.w3.org/Graphics/SVG/1.1/DTD/svg11.dtd">
<svg version="1.1" xmlns="http://www.w3.org/2000/svg" xmlns:xlink="http://www.w3.org/1999/xlink" width="100" height="100" viewBox="0 0 100 100">
<path d="M42.9 57.2c0 0 0 0 0-0.1-0.1 0-0.1 0-0.2 0-0.5-0.5-1.2-0.8-1.9-0.8-0.1 0-0.1-0.1-0.2-0.1v0h-31.1c-1.8 0-3.2 1.4-3.2 3.1 0 1.8 1.4 3.2 3.2 3.2h23.6l-32.1 32.1c-1.2 1.2-1.2 3.2 0 4.4s3.2 1.2 4.4 0l32.1-32.2v23.7c0 1.8 1.4 3.2 3.1 3.2 1.8 0 3.2-1.4 3.2-3.2v-31.2c0 0-0.1 0-0.1-0.1 0-0.7-0.3-1.4-0.8-2zM99 1c-1.2-1.2-3.2-1.2-4.4 0l-32.1 32.1v-23.7c0-1.7-1.4-3.1-3.1-3.1-1.8 0-3.2 1.4-3.2 3.1v31.2c0 0.1 0.1 0.1 0.1 0.2 0 0.7 0.3 1.4 0.8 1.9 0 0.1 0 0.1 0 0.2 0.1 0 0.1 0 0.2 0 0.5 0.5 1.2 0.8 1.9 0.8 0.1 0 0.1 0.1 0.2 0v0.1h31.1c1.8 0 3.2-1.4 3.2-3.2 0-1.7-1.4-3.1-3.2-3.1h-23.6l32.1-32.1c1.2-1.2 1.2-3.2 0-4.4z"></path>
</svg>
