<?xml version="1.0" encoding="utf-8"?>
<!-- Generated by IcoMoon.io -->
<!DOCTYPE svg PUBLIC "-//W3C//DTD SVG 1.1//EN" "http://www.w3.org/Graphics/SVG/1.1/DTD/svg11.dtd">
<svg version="1.1" xmlns="http://www.w3.org/2000/svg" xmlns:xlink="http://www.w3.org/1999/xlink" width="100" height="100" viewBox="0 0 100 100">
<path d="M50 0c-27.6 0-50 22.4-50 50s22.4 50 50 50c27.6 0 50-22.4 50-50s-22.4-50-50-50zM62.5 8.3c14 4.2 25.1 15.2 29.3 29.2h-20.2c-2.2-3.7-5.4-6.9-9.1-9v-20.2zM68.7 50c0 10.3-8.4 18.7-18.7 18.7-10.4 0-18.8-8.4-18.8-18.7 0-10.4 8.4-18.8 18.8-18.8 10.3 0 18.7 8.4 18.7 18.8zM43.7 6.9c2.1-0.3 4.2-0.7 6.3-0.7s4.2 0.4 6.2 0.7v19c-2-0.5-4-0.9-6.2-0.9s-4.2 0.4-6.3 0.9v-19zM37.5 8.3v20.2c-3.8 2.1-6.9 5.3-9.1 9h-20.2c4.2-14 15.2-25 29.3-29.2zM6.2 50c0-2.1 0.3-4.2 0.6-6.3h19c-0.5 2-0.8 4.1-0.8 6.3s0.3 4.2 0.8 6.2h-19c-0.3-2-0.6-4.1-0.6-6.2zM37.5 91.7c-14.1-4.2-25.1-15.2-29.3-29.2h20.2c2.2 3.7 5.3 6.8 9.1 9v20.2zM56.2 93.1c-2 0.3-4.1 0.6-6.2 0.6s-4.2-0.3-6.3-0.6v-19c2.1 0.5 4.1 0.9 6.3 0.9s4.2-0.4 6.2-0.9v19zM62.5 91.7v-20.2c3.7-2.2 6.9-5.3 9.1-9h20.2c-4.2 14-15.3 25-29.3 29.2zM74.1 56.2c0.6-2 0.9-4 0.9-6.2s-0.3-4.3-0.9-6.3h19.1c0.3 2.1 0.5 4.2 0.5 6.3s-0.2 4.2-0.5 6.2h-19.1z"></path>
</svg>
