<?xml version="1.0" encoding="utf-8"?>
<!-- Generated by IcoMoon.io -->
<!DOCTYPE svg PUBLIC "-//W3C//DTD SVG 1.1//EN" "http://www.w3.org/Graphics/SVG/1.1/DTD/svg11.dtd">
<svg version="1.1" xmlns="http://www.w3.org/2000/svg" xmlns:xlink="http://www.w3.org/1999/xlink" width="100" height="100" viewBox="0 0 100 100">
<path d="M99.9 2.5c0-0.1 0-0.1 0-0.2s-0.1-0.2-0.2-0.4c0-0.2-0.1-0.4-0.2-0.5-0.2-0.2-0.3-0.3-0.4-0.5-0.2-0.1-0.3-0.3-0.5-0.4s-0.4-0.2-0.6-0.3c-0.1 0-0.2-0.1-0.3-0.1-0.1-0.1-0.1 0-0.2 0-0.2-0.1-0.4-0.1-0.6-0.1s-0.4 0-0.7 0c0 0.1-0.1 0-0.1 0.1l-93.5 35.6c-0.9 0.2-1.6 0.7-2 1.4-0.1 0.1-0.2 0.2-0.2 0.3-0.1 0.1-0.2 0.3-0.2 0.5-0.1 0.2-0.2 0.5-0.2 0.8 0 0 0 0 0 0 0 0.1 0 0.2 0 0.2 0.1 0.2 0 0.5 0.1 0.7 0 0.2 0.1 0.3 0.2 0.4 0 0 0 0 0 0 0.5 1.2 1.6 1.9 2.9 1.9 0 0 0 0 0 0l46.4 8.5 8.5 46.4c0 0 0 0 0 0 0 1.3 0.7 2.4 1.9 2.9 0 0 0 0 0 0 0.1 0.1 0.2 0.2 0.4 0.2 0.2 0.1 0.5 0 0.7 0.1 0.1 0 0.1 0 0.1 0 0.1 0 0.1 0 0.1 0 0.3 0 0.6-0.1 0.9-0.2 0.1-0.1 0.3-0.1 0.4-0.2 0.1 0 0.2-0.1 0.4-0.2 0.6-0.4 1.1-1.1 1.3-2l35.6-93.5c0.1 0 0-0.1 0-0.1 0.1-0.3 0.1-0.5 0.1-0.7s0-0.4-0.1-0.6zM62.3 85.1l-6.8-37.3c0-0.9-0.4-1.7-1-2.3s-1.4-1-2.3-1l-37.3-6.8 76.6-29.2-29.2 76.6z"></path>
</svg>
