<?xml version="1.0" encoding="utf-8"?>
<!-- Generated by IcoMoon.io -->
<!DOCTYPE svg PUBLIC "-//W3C//DTD SVG 1.1//EN" "http://www.w3.org/Graphics/SVG/1.1/DTD/svg11.dtd">
<svg version="1.1" xmlns="http://www.w3.org/2000/svg" xmlns:xlink="http://www.w3.org/1999/xlink" width="100" height="100" viewBox="0 0 100 100">
<path d="M87.4 43.7c0-0.1-0.1-0.1-0.1-0.2 0-0.6-0.3-1.1-0.6-1.6-0.1-0.1-0.1-0.3-0.2-0.4s-0.2 0-0.3-0.1c-0.1-0.1-0.1-0.1-0.2-0.2l-33.9-30.8c-1.2-1.2-3.1-1.2-4.3 0-1.2 1.1-1.2 3.1 0 4.3l28.5 25.9h-73.1c-1.7 0-3.1 1.4-3.1 3.1 0 1.8 1.4 3.2 3.1 3.2h73.1l-28.5 25.9c-1.2 1.2-1.2 3.1 0 4.3 1.1 1.2 3.1 1.2 4.3 0l34.1-31c0.1 0 0.1 0 0.2-0.1 0 0 0.1 0 0.1 0s0-0.2 0.1-0.2c0.4-0.5 0.7-1.2 0.8-1.9 0 0 0-0.1 0-0.1s0-0.1 0-0.1c0 0 0 0 0 0z"></path>
</svg>
