<?xml version="1.0" encoding="utf-8"?>
<!-- Generated by IcoMoon.io -->
<!DOCTYPE svg PUBLIC "-//W3C//DTD SVG 1.1//EN" "http://www.w3.org/Graphics/SVG/1.1/DTD/svg11.dtd">
<svg version="1.1" xmlns="http://www.w3.org/2000/svg" xmlns:xlink="http://www.w3.org/1999/xlink" width="100" height="100" viewBox="0 0 100 100">
<path d="M83.9 16.1c-4.8-4.8-12.7-4.8-17.6 0l-22 22-15-15.1c-2.4-2.3-4.9-1.6-5.6 1.8l-11.2 57.8c-0.3 1.6 0.1 3 0.9 3.9 0.9 0.8 2.3 1.2 3.9 0.9l57.9-11.2c3.4-0.6 4.1-3.2 1.8-5.5l-15.1-15 22-22c4.9-4.9 4.9-12.7 0-17.6zM79.5 29.3l-26.4 26.4 15.7 15.6-49.6 9.4 9.4-49.5 15.7 15.7 26.4-26.4c2.5-2.4 6.4-2.4 8.8 0 2.5 2.5 2.5 6.4 0 8.8z"></path>
</svg>
