<?xml version="1.0" encoding="utf-8"?>
<!-- Generated by IcoMoon.io -->
<!DOCTYPE svg PUBLIC "-//W3C//DTD SVG 1.1//EN" "http://www.w3.org/Graphics/SVG/1.1/DTD/svg11.dtd">
<svg version="1.1" xmlns="http://www.w3.org/2000/svg" xmlns:xlink="http://www.w3.org/1999/xlink" width="100" height="100" viewBox="0 0 100 100">
<path d="M50 25c-13.8 0-25 11.2-25 25s11.2 25 25 25c13.8 0 25-11.2 25-25s-11.2-25-25-25zM50 68.7c-10.4 0-18.8-8.4-18.8-18.7 0-10.4 8.4-18.8 18.8-18.8 10.3 0 18.7 8.4 18.7 18.8 0 10.3-8.4 18.7-18.7 18.7zM50 12.5c-27.6 0-50 37.5-50 37.5v0 0c0 0 22.4 37.5 50 37.5s50-37.5 50-37.5v0 0c0 0-22.4-37.5-50-37.5zM50 81.2c-19.4 0-36.7-22.7-42.6-31.2 7.5-11 24.8-31.3 42.6-31.3 19.4 0 36.7 22.8 42.6 31.3-7.5 11-24.8 31.2-42.6 31.2z"></path>
</svg>
