<?xml version="1.0" encoding="utf-8"?>
<!-- Generated by IcoMoon.io -->
<!DOCTYPE svg PUBLIC "-//W3C//DTD SVG 1.1//EN" "http://www.w3.org/Graphics/SVG/1.1/DTD/svg11.dtd">
<svg version="1.1" xmlns="http://www.w3.org/2000/svg" xmlns:xlink="http://www.w3.org/1999/xlink" width="100" height="100" viewBox="0 0 100 100">
<path d="M74 13.4c-1.2-1.2-3.1-1.2-4.3 0l-50.7 51-0.1-36.3c-0.1-1.6-1.5-2.9-3.2-2.9s-3.1 1.3-3.1 3l0.2 43.7c0 0 0 0 0 0s0 0 0 0v0.2c0 0.7 0.3 1.3 0.7 1.8 0.1 0.1 0.1 0.1 0.2 0.2s0.1 0.1 0.2 0.2c0.5 0.4 1.1 0.7 1.8 0.7h0.2c0 0 0 0 0 0s0 0 0 0l43.8-0.2c1.6 0 2.9-1.4 2.9-3.1 0-1.8-1.3-3.2-2.9-3.2l-36.3 0.2 50.6-51c1.2-1.2 1.2-3.1 0-4.3z"></path>
</svg>
