<?xml version="1.0" encoding="utf-8"?>
<!-- Generated by IcoMoon.io -->
<!DOCTYPE svg PUBLIC "-//W3C//DTD SVG 1.1//EN" "http://www.w3.org/Graphics/SVG/1.1/DTD/svg11.dtd">
<svg version="1.1" xmlns="http://www.w3.org/2000/svg" xmlns:xlink="http://www.w3.org/1999/xlink" width="100" height="100" viewBox="0 0 100 100">
<path d="M71.9 0c-9.4 0-21.9 16.1-21.9 16.1s-12.5-16.1-21.9-16.1c-19 0-28.1 9.5-28.1 29.3 0 18.5 50 70.7 50 70.7s50-52.2 50-70.7c0-19.8-9.1-29.3-28.1-29.3zM6.2 30.1c0-16.6 5.3-23.7 21.9-23.7 5 0 21.9 16.2 21.9 16.2s16.9-16.2 21.9-16.2c16.6 0 21.8 7.1 21.8 23.7 0 15.7-43.7 60.2-43.7 60.2s-43.8-44.5-43.8-60.2z"></path>
</svg>
