<?xml version="1.0" encoding="utf-8"?>
<!-- Generated by IcoMoon.io -->
<!DOCTYPE svg PUBLIC "-//W3C//DTD SVG 1.1//EN" "http://www.w3.org/Graphics/SVG/1.1/DTD/svg11.dtd">
<svg version="1.1" xmlns="http://www.w3.org/2000/svg" xmlns:xlink="http://www.w3.org/1999/xlink" width="100" height="100" viewBox="0 0 100 100">
<path d="M12.5 37.5c-6.9 0-12.5 5.6-12.5 12.5s5.6 12.5 12.5 12.5 12.5-5.6 12.5-12.5c0-6.9-5.6-12.5-12.5-12.5zM18.7 56.2h-12.5v-12.5h12.5v12.5zM12.5 68.7c-6.9 0-12.5 5.6-12.5 12.5 0 7 5.6 12.5 12.5 12.5s12.5-5.5 12.5-12.5c0-6.9-5.6-12.5-12.5-12.5zM18.7 87.5h-12.5v-12.5h12.5v12.5zM87.5 31.2c6.9 0 12.5-5.6 12.5-12.5s-5.6-12.5-12.5-12.5c-6.9 0-12.5 5.6-12.5 12.5s5.6 12.5 12.5 12.5zM81.2 12.5h12.5v12.5h-12.5v-12.5zM87.5 68.7c-6.9 0-12.5 5.6-12.5 12.5 0 7 5.6 12.5 12.5 12.5s12.5-5.5 12.5-12.5c0-6.9-5.6-12.5-12.5-12.5zM93.7 87.5h-12.5v-12.5h12.5v12.5zM12.5 6.2c-6.9 0-12.5 5.6-12.5 12.5s5.6 12.5 12.5 12.5 12.5-5.6 12.5-12.5c0-6.9-5.6-12.5-12.5-12.5zM18.7 25h-12.5v-12.5h12.5v12.5zM87.5 37.5c-6.9 0-12.5 5.6-12.5 12.5s5.6 12.5 12.5 12.5c6.9 0 12.5-5.6 12.5-12.5s-5.6-12.5-12.5-12.5zM93.7 56.2h-12.5v-12.5h12.5v12.5zM50 6.2c-6.9 0-12.5 5.6-12.5 12.5s5.6 12.5 12.5 12.5c6.9 0 12.5-5.6 12.5-12.5s-5.6-12.5-12.5-12.5zM56.2 25h-12.5v-12.5h12.5v12.5zM50 68.7c-6.9 0-12.5 5.6-12.5 12.5 0 7 5.6 12.5 12.5 12.5s12.5-5.5 12.5-12.5c0-6.9-5.6-12.5-12.5-12.5zM56.2 87.5h-12.5v-12.5h12.5v12.5zM50 37.5c-6.9 0-12.5 5.6-12.5 12.5s5.6 12.5 12.5 12.5c6.9 0 12.5-5.6 12.5-12.5s-5.6-12.5-12.5-12.5zM56.2 56.2h-12.5v-12.5h12.5v12.5z"></path>
</svg>
