<?xml version="1.0" encoding="utf-8"?>
<!-- Generated by IcoMoon.io -->
<!DOCTYPE svg PUBLIC "-//W3C//DTD SVG 1.1//EN" "http://www.w3.org/Graphics/SVG/1.1/DTD/svg11.dtd">
<svg version="1.1" xmlns="http://www.w3.org/2000/svg" xmlns:xlink="http://www.w3.org/1999/xlink" width="100" height="100" viewBox="0 0 100 100">
<path d="M52.3 35.4c0 0 0-0.1 0-0.1-0.6-0.7-1.4-0.9-2.3-0.9-0.8 0-1.6 0.2-2.2 0.9 0 0 0 0 0 0.1l-25.1 24.8c-1.2 1.3-1.2 3.2 0 4.4s3.2 1.3 4.4 0l22.9-22.7 22.8 22.9c1.2 1.2 3.2 1.2 4.4 0s1.2-3.2 0-4.4l-24.9-25zM50.2 0c-27.7-0.1-50.1 22.2-50.2 49.8s22.2 50.1 49.8 50.2c27.6 0.1 50.1-22.3 50.2-49.9s-22.2-50-49.8-50.1zM49.9 93.7c-24.2 0-43.7-19.7-43.7-43.8 0.1-24.2 19.8-43.7 43.9-43.7 24.2 0.1 43.7 19.8 43.6 43.9 0 24.2-19.7 43.7-43.8 43.6z"></path>
</svg>
