<?xml version="1.0" encoding="utf-8"?>
<!-- Generated by IcoMoon.io -->
<!DOCTYPE svg PUBLIC "-//W3C//DTD SVG 1.1//EN" "http://www.w3.org/Graphics/SVG/1.1/DTD/svg11.dtd">
<svg version="1.1" xmlns="http://www.w3.org/2000/svg" xmlns:xlink="http://www.w3.org/1999/xlink" width="100" height="100" viewBox="0 0 100 100">
<path d="M60.4 69.6l-13.5 13.6v-78.9l13.5 13.5c1.2 1.2 3.1 1.2 4.3 0 1.2-1.1 1.2-3.1 0-4.3l-18.4-18.4c-0.1-0.2-0.2-0.3-0.3-0.5-0.1-0.1-0.3-0.1-0.4-0.1-0.5-0.4-1-0.7-1.6-0.7-0.1 0-0.2-0.1-0.2 0 0 0 0-0.1 0-0.1-0.1 0-0.1 0-0.1 0s-0.1 0.1-0.1 0.1c-0.8 0-1.4 0.3-1.9 0.8-0.1 0-0.1 0-0.2 0-0.1 0.2-0.2 0.3-0.3 0.5l-18.4 18.4c-1.2 1.2-1.2 3.2 0 4.3 1.2 1.2 3.1 1.2 4.3 0l13.5-13.5v78.9l-13.5-13.6c-1.2-1.2-3.1-1.2-4.3 0s-1.2 3.2 0 4.3l18.4 18.5c0.1 0.1 0.2 0.3 0.3 0.4s0.1 0.1 0.2 0.1c0.5 0.5 1.1 0.8 1.9 0.8 0 0 0.1 0 0.1 0s0 0 0.1 0c0 0 0 0 0 0 0.1 0 0.1 0 0.2 0 0.6-0.1 1.1-0.3 1.6-0.7 0.1-0.1 0.3 0 0.4-0.2 0.1-0.1 0.2-0.3 0.3-0.4l18.4-18.5c1.2-1.1 1.2-3.1 0-4.3s-3.1-1.2-4.3 0z"></path>
</svg>
