<?xml version="1.0" encoding="utf-8"?>
<!-- Generated by IcoMoon.io -->
<!DOCTYPE svg PUBLIC "-//W3C//DTD SVG 1.1//EN" "http://www.w3.org/Graphics/SVG/1.1/DTD/svg11.dtd">
<svg version="1.1" xmlns="http://www.w3.org/2000/svg" xmlns:xlink="http://www.w3.org/1999/xlink" width="100" height="100" viewBox="0 0 100 100">
<path d="M96.9 0h-81.3c-1.7 0-3.1 1.4-3.1 3.1s1.4 3.1 3.1 3.1h78.1v78.2c0 1.7 1.5 3.1 3.2 3.1s3.1-1.4 3.1-3.1v-81.3c0-1.7-1.4-3.1-3.1-3.1zM84.4 12.5h-81.3c-1.7 0-3.1 1.4-3.1 3.1v81.3c0 1.7 1.4 3.1 3.1 3.1h81.3c1.7 0 3.1-1.4 3.1-3.1v-81.3c0-1.7-1.4-3.1-3.1-3.1zM81.2 90.6c0 1.7-1.4 3.2-3.1 3.2h-68.7c-1.8 0-3.2-1.5-3.2-3.2v-68.7c0-1.8 1.4-3.2 3.2-3.2h68.7c1.7 0 3.1 1.4 3.1 3.2v68.7z"></path>
</svg>
