<?xml version="1.0" encoding="utf-8"?>
<!-- Generated by IcoMoon.io -->
<!DOCTYPE svg PUBLIC "-//W3C//DTD SVG 1.1//EN" "http://www.w3.org/Graphics/SVG/1.1/DTD/svg11.dtd">
<svg version="1.1" xmlns="http://www.w3.org/2000/svg" xmlns:xlink="http://www.w3.org/1999/xlink" width="100" height="100" viewBox="0 0 100 100">
<path d="M67.8 47.9l-24.9-28.2c-1.2-1.2-3.1-1.2-4.3 0s-1.2 3.2 0 4.4l22.9 26-23.1 25.9c-1.2 1.2-1.2 3.2 0 4.4s3.2 1.2 4.4 0l24.9-28c0.1 0 0.1 0 0.1 0 0.7-0.6 0.9-1.5 0.9-2.3 0.1-0.8-0.2-1.6-0.8-2.2-0.1 0-0.1 0-0.1 0zM87.5 0h-75c-6.9 0-12.5 5.6-12.5 12.5v75c0 6.9 5.6 12.5 12.5 12.5h75c6.9 0 12.5-5.6 12.5-12.5v-75c0-6.9-5.6-12.5-12.5-12.5zM93.7 87.5c0 3.5-2.7 6.2-6.2 6.2h-75c-3.5 0-6.3-2.7-6.3-6.2v-75c0-3.5 2.8-6.3 6.3-6.3h75c3.5 0 6.2 2.8 6.2 6.3v75z"></path>
</svg>
