<?xml version="1.0" encoding="utf-8"?>
<!-- Generated by IcoMoon.io -->
<!DOCTYPE svg PUBLIC "-//W3C//DTD SVG 1.1//EN" "http://www.w3.org/Graphics/SVG/1.1/DTD/svg11.dtd">
<svg version="1.1" xmlns="http://www.w3.org/2000/svg" xmlns:xlink="http://www.w3.org/1999/xlink" width="100" height="100" viewBox="0 0 100 100">
<path d="M21.3 74.9c0 0-15.2-25.7-15.2-35.5 0-6.7 3.1-12.4 7.8-15.5 1-3 2.4-5.8 4.2-8.3-10.2 1.7-18.1 11.2-18.1 22.7 0 12.7 21.4 46.1 21.4 46.1s3-4.7 6.7-11.2c-1-1.7-1.9-3.5-2.9-5.2-2.2 4.1-3.9 6.9-3.9 6.9zM50 21.9c-6.9 0-12.5 5.6-12.5 12.5s5.6 12.5 12.5 12.5c6.9 0 12.5-5.6 12.5-12.5s-5.6-12.5-12.5-12.5zM50 40.6c-3.5 0-6.3-2.8-6.3-6.2s2.8-6.3 6.3-6.3c3.5 0 6.2 2.8 6.2 6.3s-2.7 6.2-6.2 6.2zM81.9 15.6c1.8 2.5 3.2 5.3 4.2 8.3 4.7 3.1 7.8 8.8 7.8 15.5 0 9.8-15.2 35.5-15.2 35.5s-1.7-2.8-3.9-6.9c-1 1.7-1.9 3.5-2.9 5.2 3.7 6.5 6.7 11.2 6.7 11.2s21.4-33.4 21.4-46.1c0-11.5-7.9-21-18.1-22.7zM50 3.1c-17.3 0-31.3 14-31.3 31.3 0 17.2 31.3 62.5 31.3 62.5s31.2-45.3 31.2-62.5c0-17.3-13.9-31.3-31.2-31.3zM25 34.4c0-13.8 11.2-25 25-25s25 11.2 25 25c0 9.6-13.7 33.9-25 51.2-11.3-17.3-25-41.6-25-51.2z"></path>
</svg>
