<?xml version="1.0" encoding="utf-8"?>
<!-- Generated by IcoMoon.io -->
<!DOCTYPE svg PUBLIC "-//W3C//DTD SVG 1.1//EN" "http://www.w3.org/Graphics/SVG/1.1/DTD/svg11.dtd">
<svg version="1.1" xmlns="http://www.w3.org/2000/svg" xmlns:xlink="http://www.w3.org/1999/xlink" width="100" height="100" viewBox="0 0 100 100">
<path d="M84.4 40.6h-73.3l28.6-25.9c1.2-1.2 1.2-3.2 0-4.3-1.2-1.2-3.1-1.2-4.3 0l-34.2 31c-0.1 0.1-0.2 0-0.3 0.1-0.6 0.6-0.9 1.4-0.9 2.2s0.3 1.7 0.9 2.3c0.1 0.1 0.2 0 0.3 0.1l34.2 31c1.2 1.2 3.1 1.2 4.3 0s1.2-3.1 0-4.3l-28.6-25.9h73.3c1.7 0 3.1-1.4 3.1-3.2 0-1.7-1.4-3.1-3.1-3.1z"></path>
</svg>
