<?xml version="1.0" encoding="utf-8"?>
<!-- Generated by IcoMoon.io -->
<!DOCTYPE svg PUBLIC "-//W3C//DTD SVG 1.1//EN" "http://www.w3.org/Graphics/SVG/1.1/DTD/svg11.dtd">
<svg version="1.1" xmlns="http://www.w3.org/2000/svg" xmlns:xlink="http://www.w3.org/1999/xlink" width="100" height="100" viewBox="0 0 100 100">
<path d="M87.6 37.6h-31.3v-21.5c0-3.3-2.3-4.6-5.2-2.7l-49.1 33.2c-1.4 0.9-2.1 2.1-2.1 3.4 0 1.2 0.7 2.5 2.1 3.4l49.1 33.2c2.9 1.9 5.2 0.6 5.2-2.8v-21.3h31.3c6.9 0 12.5-5.6 12.5-12.5s-5.6-12.4-12.5-12.4zM87.6 56.3h-37.6v22.2l-41.9-28.5 41.9-28.5v22.3h37.6c3.4 0 6.2 2.8 6.2 6.2 0 3.5-2.8 6.3-6.2 6.3z"></path>
</svg>
