<?xml version="1.0" encoding="utf-8"?>
<!-- Generated by IcoMoon.io -->
<!DOCTYPE svg PUBLIC "-//W3C//DTD SVG 1.1//EN" "http://www.w3.org/Graphics/SVG/1.1/DTD/svg11.dtd">
<svg version="1.1" xmlns="http://www.w3.org/2000/svg" xmlns:xlink="http://www.w3.org/1999/xlink" width="100" height="100" viewBox="0 0 100 100">
<path d="M86.5 13.5c-0.8-0.9-2.2-1.3-3.9-0.9l-57.9 11.1c-3.3 0.7-4.1 3.2-1.7 5.6l15.1 15-22 22c-4.9 4.8-4.9 12.7 0 17.6 4.8 4.8 12.7 4.8 17.6 0l22-22 15 15c2.4 2.4 4.9 1.6 5.6-1.7l11.1-57.8c0.4-1.7 0-3-0.9-3.9zM71.4 68.8l-15.7-15.7-26.4 26.4c-2.4 2.4-6.4 2.4-8.8 0s-2.4-6.4 0-8.8l26.4-26.4-15.8-15.7 49.6-9.3-9.3 49.5z"></path>
</svg>
