<?xml version="1.0" encoding="utf-8"?>
<!-- Generated by IcoMoon.io -->
<!DOCTYPE svg PUBLIC "-//W3C//DTD SVG 1.1//EN" "http://www.w3.org/Graphics/SVG/1.1/DTD/svg11.dtd">
<svg version="1.1" xmlns="http://www.w3.org/2000/svg" xmlns:xlink="http://www.w3.org/1999/xlink" width="100" height="100" viewBox="0 0 100 100">
<path d="M50 43.7c1.7 0 3.1-1.4 3.1-3.1v-37.5c0-1.7-1.4-3.1-3.1-3.1s-3.1 1.4-3.1 3.1v37.5c0 1.7 1.4 3.1 3.1 3.1zM65.6 9v6.6c14.7 6.1 25 20.6 25 37.5 0 22.5-18.2 40.6-40.6 40.6s-40.6-18.1-40.6-40.6c0-16.9 10.3-31.4 25-37.5v-6.6c-18.2 6.4-31.3 23.7-31.3 44.1 0 25.9 21 46.9 46.9 46.9s46.9-21 46.9-46.9c0-20.4-13.1-37.7-31.3-44.1z"></path>
</svg>
