<?xml version="1.0" encoding="utf-8"?>
<!-- Generated by IcoMoon.io -->
<!DOCTYPE svg PUBLIC "-//W3C//DTD SVG 1.1//EN" "http://www.w3.org/Graphics/SVG/1.1/DTD/svg11.dtd">
<svg version="1.1" xmlns="http://www.w3.org/2000/svg" xmlns:xlink="http://www.w3.org/1999/xlink" width="100" height="100" viewBox="0 0 100 100">
<path d="M99.1 94.9l-27.8-27.8c6.1-7.2 10-16.3 10-26.5 0-22.4-18.2-40.6-40.7-40.6-22.4 0-40.6 18.2-40.6 40.6 0 22.5 18.2 40.6 40.6 40.6 10.2 0 19.3-3.8 26.5-9.9l27.8 27.8c1.2 1.2 3.1 1.2 4.2 0 1.2-1.1 1.2-3 0-4.2zM40.6 75c-19 0-34.3-15.4-34.3-34.4s15.3-34.3 34.3-34.3c19 0 34.4 15.3 34.4 34.3s-15.4 34.4-34.4 34.4zM57.5 25.9l-24.2 22.9-9.7-10.4c-1.1-1.2-2.9-1.2-4 0s-1.1 3.1 0 4.3l11.3 12.2c0.1 0.2 0.2 0.3 0.3 0.5 0.6 0.6 1.3 0.9 2.1 0.8 0.7 0.1 1.5-0.2 2.1-0.8 0.1-0.2 0.1-0.3 0.2-0.5l25.9-24.7c1.1-1.2 1.1-3.1 0-4.3s-2.9-1.2-4 0z"></path>
</svg>
