<?xml version="1.0" encoding="utf-8"?>
<!-- Generated by IcoMoon.io -->
<!DOCTYPE svg PUBLIC "-//W3C//DTD SVG 1.1//EN" "http://www.w3.org/Graphics/SVG/1.1/DTD/svg11.dtd">
<svg version="1.1" xmlns="http://www.w3.org/2000/svg" xmlns:xlink="http://www.w3.org/1999/xlink" width="100" height="100" viewBox="0 0 100 100">
<path d="M1.7 37.2c0 0.1 0 0.2 0 0.3h32.7c1.7 0 3.1-1.4 3.1-3.1 0-1.8-1.4-3.2-3.1-3.2h-23.8c7.1-14.7 22-25 39.4-25 22 0 40.1 16.4 43.1 37.5h6.5c-3.1-24.6-24.1-43.7-49.6-43.7-18.9 0-35.2 10.5-43.7 26v-22.9c0-1.7-1.4-3.1-3.2-3.1s-3.1 1.4-3.1 3.1v31c0 0.1-0.1 0.2-0.1 0.3s0.2 0.2 0.2 0.4c0 0.4 0.1 0.7 0.3 1 0.1 0.2 0.1 0.3 0.2 0.4 0.3 0.4 0.7 0.7 1.1 1zM99.9 65.2c0-0.4-0.1-0.7-0.3-1.1-0.1-0.1-0.1-0.2-0.2-0.3-0.3-0.4-0.7-0.7-1.1-1 0-0.1 0-0.2 0-0.3h-6.6c0 0 0 0 0 0h-26.1c-1.7 0-3.1 1.4-3.1 3.1 0 1.8 1.4 3.2 3.1 3.2h23.8c-7.1 14.7-22 25-39.4 25-22 0-40.1-16.4-43.1-37.6h-6.5c3.1 24.7 24.1 43.8 49.6 43.8 18.9 0 35.2-10.5 43.7-26v22.9c0 1.7 1.4 3.1 3.2 3.1 1.7 0 3.1-1.4 3.1-3.1v-31c0-0.1 0-0.2 0-0.3s-0.1-0.2-0.1-0.4z"></path>
</svg>
