<?xml version="1.0" encoding="utf-8"?>
<!-- Generated by IcoMoon.io -->
<!DOCTYPE svg PUBLIC "-//W3C//DTD SVG 1.1//EN" "http://www.w3.org/Graphics/SVG/1.1/DTD/svg11.dtd">
<svg version="1.1" xmlns="http://www.w3.org/2000/svg" xmlns:xlink="http://www.w3.org/1999/xlink" width="100" height="100" viewBox="0 0 100 100">
<path d="M100 37.5l-34.4-3.1-15.6-34.4-15.6 34.4-34.4 3.1 25.9 26.2-7.2 36.3 31.2-19 31.1 19-7-36.4 26-26.1zM53.1 75.7l-3.2-2-3.3 2-19 11.6 4.5-22.4 0.6-3.3-2.3-2.3-16.6-16.8 21.1-1.9 3.7-0.3 1.5-3.4 9.9-21.8 9.9 21.8 1.5 3.4 3.7 0.3 21.1 1.9-16.6 16.7-2.3 2.4 0.6 3.2 4.3 22.5-19.1-11.6z"></path>
</svg>
