<?xml version="1.0" encoding="utf-8"?>
<!-- Generated by IcoMoon.io -->
<!DOCTYPE svg PUBLIC "-//W3C//DTD SVG 1.1//EN" "http://www.w3.org/Graphics/SVG/1.1/DTD/svg11.dtd">
<svg version="1.1" xmlns="http://www.w3.org/2000/svg" xmlns:xlink="http://www.w3.org/1999/xlink" width="100" height="100" viewBox="0 0 100 100">
<path d="M84.4 3.1h-68.8c-6.9 0-12.5 5.6-12.5 12.5v68.8c0 6.9 5.6 12.5 12.5 12.5h68.8c6.9 0 12.5-5.6 12.5-12.5v-68.8c0-6.9-5.6-12.5-12.5-12.5zM90.6 84.4c0 3.4-2.8 6.2-6.2 6.2h-68.8c-3.4 0-6.2-2.8-6.2-6.2v-68.8c0-3.4 2.8-6.2 6.2-6.2h68.8c3.4 0 6.2 2.8 6.2 6.2v68.8zM71 29c-1.2-1.2-3.1-1.2-4.3 0l-16.7 16.7-16.7-16.7c-1.2-1.2-3.1-1.2-4.3 0s-1.2 3.1 0 4.3l16.7 16.7-16.7 16.7c-1.2 1.1-1.2 3.1 0 4.3s3.1 1.2 4.3 0l16.7-16.7 16.7 16.7c1.2 1.2 3.1 1.2 4.3 0s1.2-3.2 0-4.3l-16.7-16.7 16.7-16.7c1.2-1.2 1.2-3.1 0-4.3z"></path>
</svg>
