<?xml version="1.0" encoding="utf-8"?>
<!-- Generated by IcoMoon.io -->
<!DOCTYPE svg PUBLIC "-//W3C//DTD SVG 1.1//EN" "http://www.w3.org/Graphics/SVG/1.1/DTD/svg11.dtd">
<svg version="1.1" xmlns="http://www.w3.org/2000/svg" xmlns:xlink="http://www.w3.org/1999/xlink" width="100" height="100" viewBox="0 0 100 100">
<path d="M40.6 81.2h-21.9v-21.8c0-1.8-1.4-3.2-3.1-3.2s-3.1 1.4-3.1 3.2v25c0 1.7 1.4 3.1 3.1 3.1h25c1.7 0 3.1-1.4 3.1-3.1 0-1.8-1.4-3.2-3.1-3.2zM84.4 12.5h-25c-1.7 0-3.2 1.4-3.2 3.1s1.5 3.1 3.2 3.1h21.8v21.9c0 1.7 1.5 3.1 3.2 3.1s3.1-1.4 3.1-3.1v-25c0-1.7-1.4-3.1-3.1-3.1zM87.5 0h-75c-6.9 0-12.5 5.6-12.5 12.5v75c0 6.9 5.6 12.5 12.5 12.5h75c6.9 0 12.5-5.6 12.5-12.5v-75c0-6.9-5.6-12.5-12.5-12.5zM93.7 87.5c0 3.4-2.7 6.2-6.2 6.2h-75c-3.5 0-6.3-2.8-6.3-6.2v-75c0-3.5 2.8-6.3 6.3-6.3h75c3.5 0 6.2 2.8 6.2 6.3v75z"></path>
</svg>
