<?xml version="1.0" encoding="utf-8"?>
<!-- Generated by IcoMoon.io -->
<!DOCTYPE svg PUBLIC "-//W3C//DTD SVG 1.1//EN" "http://www.w3.org/Graphics/SVG/1.1/DTD/svg11.dtd">
<svg version="1.1" xmlns="http://www.w3.org/2000/svg" xmlns:xlink="http://www.w3.org/1999/xlink" width="100" height="100" viewBox="0 0 100 100">
<path d="M90.5 43.7c0 0 0-0.1 0-0.1 0-0.8-0.3-1.4-0.8-1.9 0-0.1 0-0.2-0.1-0.2 0 0-0.1 0-0.1-0.1 0 0-0.1 0-0.1 0l-12.4-12.4c-1.2-1.2-3.1-1.2-4.3 0s-1.2 3.1 0 4.3l7.3 7.3h-33.1v-33.1l7.3 7.3c1.1 1.2 3.1 1.2 4.3 0 1.1-1.2 1.1-3.1 0-4.3l-12.3-12.3c-0.1 0-0.1 0-0.1-0.1-0.1-0.1 0-0.2-0.1-0.3s-0.3 0-0.4-0.1c-0.5-0.4-1-0.6-1.6-0.7-0.1 0-0.2 0-0.2 0s0 0 0 0c-0.1 0-0.1 0-0.1 0s-0.1 0-0.1 0c-0.8 0-1.4 0.3-1.9 0.8-0.1 0-0.1 0-0.2 0s0 0.2 0 0.2c-0.1 0-0.1 0.1-0.1 0.1l-12.4 12.4c-1.1 1.2-1.1 3.1 0 4.3s3.2 1.2 4.4 0l7.2-7.3v33.1h-33.1l7.3-7.3c1.2-1.1 1.2-3.1 0-4.3-1.2-1.1-3.1-1.1-4.3 0l-12.4 12.4c0 0-0.1 0-0.1 0.1 0 0-0.1 0-0.2 0 0 0.1 0 0.1 0 0.2-0.5 0.5-0.8 1.1-0.8 1.9 0 0 0 0.1 0 0.1s0 0 0 0 0 0.1 0 0.1c0 0 0 0.1 0 0.1 0.1 0.7 0.3 1.2 0.7 1.7 0.1 0.1 0 0.3 0.2 0.4 0 0 0.1 0 0.2 0.1 0.1 0 0.1 0 0.1 0.1l12.3 12.2c1.2 1.2 3.1 1.2 4.3 0 1.2-1.1 1.2-3.1 0-4.3l-7.3-7.2h33.1v33.1l-7.3-7.3c-1.1-1.2-3.1-1.2-4.3 0-1.1 1.2-1.1 3.1 0 4.3l12.4 12.4c0 0 0 0.1 0.1 0.1 0 0 0 0.1 0 0.1 0.1 0.1 0.1 0.1 0.2 0.1 0.5 0.5 1.1 0.8 1.9 0.8 0 0 0.1 0 0.1 0s0 0 0.1 0c0 0 0 0 0 0 0.1 0 0.1 0 0.1 0 0.7-0.1 1.2-0.3 1.7-0.7 0.1-0.1 0.3-0.1 0.4-0.2 0.1 0 0-0.2 0.1-0.2 0-0.1 0-0.1 0.1-0.1l12.3-12.3c1.1-1.2 1.1-3.1 0-4.3-1.2-1.2-3.2-1.2-4.3 0l-7.3 7.3v-33.1h33.1l-7.3 7.2c-1.2 1.2-1.2 3.2 0 4.3 1.2 1.2 3.1 1.2 4.3 0l12.3-12.2c0-0.1 0-0.1 0.1-0.1 0-0.1 0.2-0.1 0.2-0.1 0.2-0.2 0.1-0.3 0.2-0.5 0.4-0.4 0.6-0.9 0.7-1.6 0 0 0-0.1 0-0.1s0-0.1 0-0.1c0 0 0 0 0 0z"></path>
</svg>
