<?xml version="1.0" encoding="utf-8"?>
<!-- Generated by IcoMoon.io -->
<!DOCTYPE svg PUBLIC "-//W3C//DTD SVG 1.1//EN" "http://www.w3.org/Graphics/SVG/1.1/DTD/svg11.dtd">
<svg version="1.1" xmlns="http://www.w3.org/2000/svg" xmlns:xlink="http://www.w3.org/1999/xlink" width="100" height="100" viewBox="0 0 100 100">
<path d="M60.1 40.1c-1.8-0.5-3.8 0.4-4.5 2l-8.7 20.4c0 0 0 0 0 0-5.2 0-9.4 4.2-9.4 9.4s4.2 9.3 9.4 9.3c5.1 0 9.3-4.2 9.3-9.3 0-2.8-1.2-5.2-3.1-6.9l9.1-21.2c0.6-1.6-0.3-3.3-2.1-3.7zM46.9 75c-1.8 0-3.2-1.4-3.2-3.1 0-1.8 1.4-3.1 3.2-3.1 1.7 0 3.1 1.3 3.1 3.1 0 1.7-1.4 3.1-3.1 3.1zM50 18.7c-17.3 0-31.3 14-31.3 31.3h6.3c0-13.8 11.2-25 25-25s25 11.2 25 25h6.2c0-17.3-13.9-31.3-31.2-31.3zM50 0c-27.6 0-50 22.4-50 50s22.4 50 50 50c27.6 0 50-22.4 50-50s-22.4-50-50-50zM50 93.7c-24.2 0-43.8-19.6-43.8-43.7 0-24.2 19.6-43.8 43.8-43.8s43.7 19.6 43.7 43.8c0 24.1-19.5 43.7-43.7 43.7z"></path>
</svg>
