<?xml version="1.0" encoding="utf-8"?>
<!-- Generated by IcoMoon.io -->
<!DOCTYPE svg PUBLIC "-//W3C//DTD SVG 1.1//EN" "http://www.w3.org/Graphics/SVG/1.1/DTD/svg11.dtd">
<svg version="1.1" xmlns="http://www.w3.org/2000/svg" xmlns:xlink="http://www.w3.org/1999/xlink" width="100" height="100" viewBox="0 0 100 100">
<path d="M37.5 56.2h-25c-3.5 0-6.3 2.8-6.3 6.3v25c0 3.5 2.8 6.2 6.3 6.2h25c3.4 0 6.2-2.7 6.2-6.2v-25c0-3.5-2.8-6.3-6.2-6.3zM37.5 84.4c0 1.7-1.4 3.1-3.1 3.1h-18.8c-1.7 0-3.1-1.4-3.1-3.1v-18.8c0-1.7 1.4-3.1 3.1-3.1h18.8c1.7 0 3.1 1.4 3.1 3.1v18.8zM87.5 6.2h-25c-3.5 0-6.3 2.8-6.3 6.3v25c0 3.4 2.8 6.2 6.3 6.2h25c3.5 0 6.2-2.8 6.2-6.2v-25c0-3.5-2.7-6.3-6.2-6.3zM87.5 34.4c0 1.7-1.4 3.1-3.1 3.1h-18.8c-1.7 0-3.1-1.4-3.1-3.1v-18.8c0-1.7 1.4-3.1 3.1-3.1h18.8c1.7 0 3.1 1.4 3.1 3.1v18.8zM37.5 6.2h-25c-3.5 0-6.3 2.8-6.3 6.3v25c0 3.4 2.8 6.2 6.3 6.2h25c3.4 0 6.2-2.8 6.2-6.2v-25c0-3.5-2.8-6.3-6.2-6.3zM37.5 34.4c0 1.7-1.4 3.1-3.1 3.1h-18.8c-1.7 0-3.1-1.4-3.1-3.1v-18.8c0-1.7 1.4-3.1 3.1-3.1h18.8c1.7 0 3.1 1.4 3.1 3.1v18.8zM87.5 56.2h-25c-3.5 0-6.3 2.8-6.3 6.3v25c0 3.5 2.8 6.2 6.3 6.2h25c3.5 0 6.2-2.7 6.2-6.2v-25c0-3.5-2.7-6.3-6.2-6.3zM87.5 84.4c0 1.7-1.4 3.1-3.1 3.1h-18.8c-1.7 0-3.1-1.4-3.1-3.1v-18.8c0-1.7 1.4-3.1 3.1-3.1h18.8c1.7 0 3.1 1.4 3.1 3.1v18.8z"></path>
</svg>
