<?xml version="1.0" encoding="utf-8"?>
<!-- Generated by IcoMoon.io -->
<!DOCTYPE svg PUBLIC "-//W3C//DTD SVG 1.1//EN" "http://www.w3.org/Graphics/SVG/1.1/DTD/svg11.dtd">
<svg version="1.1" xmlns="http://www.w3.org/2000/svg" xmlns:xlink="http://www.w3.org/1999/xlink" width="100" height="100" viewBox="0 0 100 100">
<path d="M73 35.1l-29.2 29.1-10.2-10.2c-1.2-1.2-3.3-1.2-4.6 0s-1.2 3.4 0 4.6l12.2 12.2c0 0 0 0 0.1 0 0 0.1 0 0.1 0 0.2 1.2 1.1 3.1 1.1 4.3 0l31.6-31.7c1.2-1.2 1.2-3 0-4.2-1.1-1.2-3-1.2-4.2 0zM50 3.1c-25.9 0-46.9 21-46.9 46.9s21 46.9 46.9 46.9c25.9 0 46.9-21 46.9-46.9s-21-46.9-46.9-46.9zM50 90.6c-22.4 0-40.6-18.2-40.6-40.6s18.2-40.6 40.6-40.6 40.6 18.2 40.6 40.6-18.2 40.6-40.6 40.6z"></path>
</svg>
