<?xml version="1.0" encoding="utf-8"?>
<!-- Generated by IcoMoon.io -->
<!DOCTYPE svg PUBLIC "-//W3C//DTD SVG 1.1//EN" "http://www.w3.org/Graphics/SVG/1.1/DTD/svg11.dtd">
<svg version="1.1" xmlns="http://www.w3.org/2000/svg" xmlns:xlink="http://www.w3.org/1999/xlink" width="100" height="100" viewBox="0 0 100 100">
<path d="M84.4 40.6h-37.5v-37.5c0-1.7-1.4-3.1-3.1-3.1-1.8 0-3.2 1.4-3.2 3.1v37.5h-37.5c-1.7 0-3.1 1.4-3.1 3.1 0 1.8 1.4 3.2 3.1 3.2h37.5v37.5c0 1.7 1.4 3.1 3.2 3.1 1.7 0 3.1-1.4 3.1-3.1v-37.5h37.5c1.7 0 3.1-1.4 3.1-3.2 0-1.7-1.4-3.1-3.1-3.1z"></path>
</svg>
