<?xml version="1.0" encoding="utf-8"?>
<!-- Generated by IcoMoon.io -->
<!DOCTYPE svg PUBLIC "-//W3C//DTD SVG 1.1//EN" "http://www.w3.org/Graphics/SVG/1.1/DTD/svg11.dtd">
<svg version="1.1" xmlns="http://www.w3.org/2000/svg" xmlns:xlink="http://www.w3.org/1999/xlink" width="100" height="100" viewBox="0 0 100 100">
<path d="M76.6 23.2c-3.6-11.6-14.1-20.1-26.6-20.1-13.6 0-24.9 10-27.6 23.2-12.8 2.8-22.4 14.5-22.4 28.5 0 16.1 12.6 29.1 28.1 29.1 1.1 0 2.1-0.2 3.1-0.3v0.3h6.3v-6.4h-9.4c-12.1 0-21.9-10.2-21.9-22.7 0-12.4 9.8-22.6 21.9-22.6 0-12.5 9.8-22.6 21.9-22.6 11.1 0 20.1 8.5 21.6 19.5 12.3 0.7 22.1 11.2 22.1 24.1s-9.6 23.3-21.8 24.1v0.2h-3.2v6.3c0.6 0 1.1 0.1 1.6 0.1 16.4 0 29.7-13.7 29.7-30.7 0-14.7-10-27-23.4-30zM74.1 63.6c1.2-1.2 1.2-3.2 0-4.4l-18.6-19.3c-0.1-0.1-0.1-0.1-0.1-0.1 0-0.1 0-0.2 0-0.2s-0.2 0-0.2-0.1c-0.5-0.4-1.2-0.7-1.9-0.8-0.1 0-0.1 0-0.1 0-0.1 0-0.1 0-0.1 0s0 0 0 0c-0.1 0-0.1 0-0.2 0-0.6 0.1-1.1 0.3-1.6 0.7-0.1 0.1-0.3 0.1-0.4 0.2s-0.1 0.2-0.1 0.3c0 0-0.1 0-0.1 0.1l-18.6 19.2c-1.2 1.2-1.2 3.2 0 4.4 1.2 1.3 3.2 1.3 4.3 0l13.6-14v44c0 1.8 1.4 3.3 3.1 3.3s3.1-1.5 3.1-3.3v-44l13.6 14c1.2 1.3 3.1 1.3 4.3 0z"></path>
</svg>
