<?xml version="1.0" encoding="utf-8"?>
<!-- Generated by IcoMoon.io -->
<!DOCTYPE svg PUBLIC "-//W3C//DTD SVG 1.1//EN" "http://www.w3.org/Graphics/SVG/1.1/DTD/svg11.dtd">
<svg version="1.1" xmlns="http://www.w3.org/2000/svg" xmlns:xlink="http://www.w3.org/1999/xlink" width="100" height="100" viewBox="0 0 100 100">
<path d="M6.2 81.2v-12.5h-6.2v12.5c0 7 5.6 12.5 12.5 12.5h18.7v-6.2h-18.7c-3.5 0-6.3-2.8-6.3-6.3zM0 18.7v12.5h6.2v-12.5c0-3.4 2.8-6.2 6.3-6.2h18.7v-6.3h-18.7c-6.9 0-12.5 5.6-12.5 12.5zM93.7 81.2c0 3.5-2.7 6.3-6.2 6.3h-18.8v6.2h18.8c6.9 0 12.5-5.5 12.5-12.5v-12.5h-6.3v12.5zM87.5 6.2h-18.8v6.3h18.8c3.5 0 6.2 2.8 6.2 6.2v12.5h6.3v-12.5c0-6.9-5.6-12.5-12.5-12.5z"></path>
</svg>
