<?xml version="1.0" encoding="utf-8"?>
<!-- Generated by IcoMoon.io -->
<!DOCTYPE svg PUBLIC "-//W3C//DTD SVG 1.1//EN" "http://www.w3.org/Graphics/SVG/1.1/DTD/svg11.dtd">
<svg version="1.1" xmlns="http://www.w3.org/2000/svg" xmlns:xlink="http://www.w3.org/1999/xlink" width="100" height="100" viewBox="0 0 100 100">
<path d="M74.9 15.7c0-1.7-1.4-3.1-3.1-3.1h-43.6c-1.7 0-3.1 1.4-3.1 3.1s1.4 3.1 3.1 3.1h36.1l-50.8 50.9c-1.2 1.2-1.2 3.1 0 4.3s3.1 1.2 4.3 0l50.9-50.9v36.2c0 1.7 1.4 3.1 3.1 3.1s3.1-1.4 3.1-3.1v-43.5c0 0 0 0 0-0.1 0 0 0 0 0 0z"></path>
</svg>
