<?xml version="1.0" encoding="utf-8"?>
<!-- Generated by IcoMoon.io -->
<!DOCTYPE svg PUBLIC "-//W3C//DTD SVG 1.1//EN" "http://www.w3.org/Graphics/SVG/1.1/DTD/svg11.dtd">
<svg version="1.1" xmlns="http://www.w3.org/2000/svg" xmlns:xlink="http://www.w3.org/1999/xlink" width="100" height="100" viewBox="0 0 100 100">
<path d="M50 0c-27.6 0-50 22.4-50 50s22.4 50 50 50c27.6 0 50-22.4 50-50s-22.4-50-50-50zM50 93.7c-24.2 0-43.8-19.6-43.8-43.7 0-24.2 19.6-43.8 43.8-43.8s43.7 19.6 43.7 43.8c0 24.1-19.5 43.7-43.7 43.7zM75 50h-25v-25c0-1.7-1.4-3.1-3.1-3.1-1.8 0-3.2 1.4-3.2 3.1v28.1c0 0 0 0 0 0 0 0.7 0.3 1.3 0.7 1.8 0.6 0.8 1.4 1.3 2.5 1.3 0 0 0 0 0.1 0h28c1.7 0 3.1-1.4 3.1-3.1s-1.4-3.1-3.1-3.1z"></path>
</svg>
