<?xml version="1.0" encoding="utf-8"?>
<!-- Generated by IcoMoon.io -->
<!DOCTYPE svg PUBLIC "-//W3C//DTD SVG 1.1//EN" "http://www.w3.org/Graphics/SVG/1.1/DTD/svg11.dtd">
<svg version="1.1" xmlns="http://www.w3.org/2000/svg" xmlns:xlink="http://www.w3.org/1999/xlink" width="100" height="100" viewBox="0 0 100 100">
<path d="M41.6 54l-22.9 22.9v-17.5c0-1.8-1.4-3.2-3.1-3.2s-3.1 1.4-3.1 3.2v25c0 0 0 0 0 0.1 0.1 0.8 0.4 1.4 0.8 2 0.1 0 0.1 0.1 0.1 0.1s0.1 0 0.1 0.1c0.5 0.4 1.2 0.7 2 0.8 0 0 0.1 0 0.1 0h25c1.7 0 3.1-1.4 3.1-3.1 0-1.8-1.4-3.2-3.1-3.2h-17.5l22.9-22.8c1.2-1.2 1.2-3.2 0-4.4s-3.2-1.2-4.4 0zM87.5 0h-75c-6.9 0-12.5 5.6-12.5 12.5v75c0 6.9 5.6 12.5 12.5 12.5h75c6.9 0 12.5-5.6 12.5-12.5v-75c0-6.9-5.6-12.5-12.5-12.5zM93.7 87.5c0 3.4-2.7 6.2-6.2 6.2h-75c-3.5 0-6.3-2.8-6.3-6.2v-75c0-3.5 2.8-6.3 6.3-6.3h75c3.5 0 6.2 2.8 6.2 6.3v75zM86.7 13.5c-0.1 0-0.1-0.1-0.1-0.1 0-0.1-0.1 0-0.1-0.1-0.5-0.5-1.2-0.8-2-0.8 0 0-0.1 0-0.1 0h-25c-1.8 0-3.2 1.4-3.2 3.1s1.4 3.1 3.2 3.1h17.4l-22.8 22.9c-1.2 1.2-1.2 3.2 0 4.4s3.2 1.2 4.4 0l22.8-22.9v17.5c0 1.7 1.5 3.1 3.2 3.1s3.1-1.4 3.1-3.1v-25c0 0 0 0 0 0s0-0.1 0-0.1c-0.1-0.8-0.4-1.5-0.8-2z"></path>
</svg>
