<?xml version="1.0" encoding="utf-8"?>
<!-- Generated by IcoMoon.io -->
<!DOCTYPE svg PUBLIC "-//W3C//DTD SVG 1.1//EN" "http://www.w3.org/Graphics/SVG/1.1/DTD/svg11.dtd">
<svg version="1.1" xmlns="http://www.w3.org/2000/svg" xmlns:xlink="http://www.w3.org/1999/xlink" width="100" height="100" viewBox="0 0 100 100">
<path d="M93.7 37.5h-31.2v-31.3c0-3.4-2.8-6.2-6.3-6.2h-12.5c-3.4 0-6.2 2.8-6.2 6.2v31.3h-31.3c-3.4 0-6.2 2.8-6.2 6.2v12.5c0 3.5 2.8 6.3 6.2 6.3h31.3v31.2c0 3.5 2.8 6.3 6.2 6.3h12.5c3.5 0 6.3-2.8 6.3-6.3v-31.2h31.2c3.5 0 6.3-2.8 6.3-6.3v-12.5c0-3.4-2.8-6.2-6.3-6.2zM93.7 53.1c0 1.7-1.4 3.1-3.1 3.1h-34.4v34.4c0 1.8-1.4 3.1-3.1 3.1h-6.2c-1.8 0-3.2-1.3-3.2-3.1v-34.4h-34.3c-1.8 0-3.2-1.4-3.2-3.1v-6.2c0-1.8 1.4-3.2 3.2-3.2h34.3v-34.3c0-1.8 1.4-3.2 3.2-3.2h6.2c1.7 0 3.1 1.4 3.1 3.2v34.3h34.4c1.7 0 3.1 1.4 3.1 3.2v6.2z"></path>
</svg>
