<?xml version="1.0" encoding="utf-8"?>
<!-- Generated by IcoMoon.io -->
<!DOCTYPE svg PUBLIC "-//W3C//DTD SVG 1.1//EN" "http://www.w3.org/Graphics/SVG/1.1/DTD/svg11.dtd">
<svg version="1.1" xmlns="http://www.w3.org/2000/svg" xmlns:xlink="http://www.w3.org/1999/xlink" width="100" height="100" viewBox="0 0 100 100">
<path d="M87.5 82.6l-11.1-57.8c-0.7-3.4-3.3-4.1-5.6-1.8l-15.1 15.1-22.1-22c-4.8-4.8-12.7-4.8-17.6 0s-4.9 12.7 0 17.6l22 22-15 15c-2.4 2.3-1.6 4.9 1.7 5.5l58 11.2c1.7 0.3 3-0.1 3.9-0.9s1.3-2.3 0.9-3.9zM31.2 71.3l15.7-15.6-26.5-26.4c-2.4-2.4-2.4-6.4 0-8.8s6.4-2.4 8.8 0l26.5 26.4 15.7-15.7 9.4 49.5-49.6-9.4z"></path>
</svg>
