<?xml version="1.0" encoding="utf-8"?>
<!-- Generated by IcoMoon.io -->
<!DOCTYPE svg PUBLIC "-//W3C//DTD SVG 1.1//EN" "http://www.w3.org/Graphics/SVG/1.1/DTD/svg11.dtd">
<svg version="1.1" xmlns="http://www.w3.org/2000/svg" xmlns:xlink="http://www.w3.org/1999/xlink" width="100" height="100" viewBox="0 0 100 100">
<path d="M74 69.7l-51-51 37-0.2c1.7 0 3-1.4 3-3 0-1.7-1.4-3-3-3l-43.9 0.2c-0.1 0-0.2-0.1-0.4-0.1-1.7 0-3.1 1.3-3.1 2.9v0.2c0 0 0 0 0 0s0 0 0 0l0.2 44c0 1.7 1.4 3 3.1 3s3.1-1.4 3.1-3l-0.1-36.5 50.8 50.9c1.2 1.2 3.1 1.2 4.3 0s1.2-3.2 0-4.4z"></path>
</svg>
