<?xml version="1.0" encoding="utf-8"?>
<!-- Generated by IcoMoon.io -->
<!DOCTYPE svg PUBLIC "-//W3C//DTD SVG 1.1//EN" "http://www.w3.org/Graphics/SVG/1.1/DTD/svg11.dtd">
<svg version="1.1" xmlns="http://www.w3.org/2000/svg" xmlns:xlink="http://www.w3.org/1999/xlink" width="100" height="100" viewBox="0 0 100 100">
<path d="M28.1 75c-1.7 0-3.1-1.4-3.1-3.1v-15.7h-25v25c0 10.4 8.4 18.8 18.7 18.8h25v-25h-15.6zM37.5 93.7h-18.8c-6.9 0-12.5-5.6-12.5-12.5v-18.7h12.5v12.5c0 3.4 2.8 6.2 6.3 6.2h12.5v12.5zM18.7 0c-10.3 0-18.7 8.4-18.7 18.7v25h25v-15.6c0-1.7 1.4-3.1 3.1-3.1h15.6v-25h-25zM37.5 18.7h-12.5c-3.5 0-6.3 2.8-6.3 6.3v12.5h-12.5v-18.8c0-6.9 5.6-12.5 12.5-12.5h18.8v12.5zM75 62.5v9.4c0 1.7-1.4 3.1-3.1 3.1h-15.7v25h25c10.4 0 18.8-8.4 18.8-18.8v-25h-25v6.3zM81.2 75v-12.5h12.5v18.7c0 6.9-5.6 12.5-12.5 12.5h-18.7v-12.5h12.5c3.5 0 6.2-2.8 6.2-6.2zM81.2 0h-25v25h15.7c1.7 0 3.1 1.4 3.1 3.1v15.6h25v-25c0-10.3-8.4-18.7-18.8-18.7zM93.7 37.5h-12.5v-12.5c0-3.5-2.7-6.3-6.2-6.3h-12.5v-12.5h18.7c6.9 0 12.5 5.6 12.5 12.5v18.8z"></path>
</svg>
