<?xml version="1.0" encoding="utf-8"?>
<!-- Generated by IcoMoon.io -->
<!DOCTYPE svg PUBLIC "-//W3C//DTD SVG 1.1//EN" "http://www.w3.org/Graphics/SVG/1.1/DTD/svg11.dtd">
<svg version="1.1" xmlns="http://www.w3.org/2000/svg" xmlns:xlink="http://www.w3.org/1999/xlink" width="100" height="100" viewBox="0 0 100 100">
<path d="M93.7 3.1h-75c-3.4 0-6.2 2.8-6.2 6.3v18.7h6.2v-15.6c0-1.7 1.4-3.1 3.2-3.1h68.7c1.7 0 3.1 1.4 3.1 3.1v75c0 1.7-1.4 3.1-3.1 3.1h-68.7c-1.8 0-3.2-1.4-3.2-3.1v-15.6h-6.2v18.7c0 3.5 2.8 6.3 6.2 6.3h75c3.5 0 6.3-2.8 6.3-6.3v-81.2c0-3.5-2.8-6.3-6.3-6.3zM57.1 72.9c-1.2 1.2-1.2 3.1 0 4.3s3.2 1.2 4.4 0l24.8-24.9c0.1 0 0.1 0 0.2 0 0-0.1 0.1 0 0.1-0.1 0 0 0-0.1 0.1-0.1 0.4-0.5 0.7-1.2 0.8-2 0 0 0 0 0-0.1 0 0 0 0 0 0s0 0 0-0.1c0 0-0.1-0.1-0.1-0.1 0-0.6-0.3-1.2-0.6-1.6-0.1-0.2-0.1-0.3-0.2-0.4s-0.2-0.1-0.3-0.2c0 0 0 0 0 0l-24.8-24.8c-1.2-1.2-3.2-1.2-4.4 0-1.2 1.1-1.2 3.1 0 4.3l19.8 19.8h-73.8c-1.7 0-3.1 1.4-3.1 3.1s1.4 3.1 3.1 3.1h73.8l-19.8 19.8z"></path>
</svg>
