<?xml version="1.0" encoding="utf-8"?>
<!-- Generated by IcoMoon.io -->
<!DOCTYPE svg PUBLIC "-//W3C//DTD SVG 1.1//EN" "http://www.w3.org/Graphics/SVG/1.1/DTD/svg11.dtd">
<svg version="1.1" xmlns="http://www.w3.org/2000/svg" xmlns:xlink="http://www.w3.org/1999/xlink" width="100" height="100" viewBox="0 0 100 100">
<path d="M83.9 43.7h-21.4v-31.2c0-6.9-5.6-12.5-12.5-12.5s-12.5 5.6-12.5 12.5v31.2h-21.4c-3.4 0-4.6 2.3-2.7 5.2l33.2 49c0.9 1.4 2.2 2.1 3.4 2.1s2.5-0.7 3.4-2.1l33.2-49c1.9-2.9 0.7-5.2-2.7-5.2zM50 91.8l-28.6-41.9h22.4v-37.4c0-3.5 2.8-6.3 6.2-6.3 3.5 0 6.3 2.8 6.3 6.3v37.4h22.3l-28.6 41.9z"></path>
</svg>
