<?xml version="1.0" encoding="utf-8"?>
<!-- Generated by IcoMoon.io -->
<!DOCTYPE svg PUBLIC "-//W3C//DTD SVG 1.1//EN" "http://www.w3.org/Graphics/SVG/1.1/DTD/svg11.dtd">
<svg version="1.1" xmlns="http://www.w3.org/2000/svg" xmlns:xlink="http://www.w3.org/1999/xlink" width="100" height="100" viewBox="0 0 100 100">
<path d="M28.1 65.6c0 12.1 9.8 21.9 21.9 21.9s21.9-9.8 21.9-21.9c0-12.1-21.9-34.4-21.9-34.4s-21.9 22.3-21.9 34.4zM50 81.2c-8.6 0-15.6-7-15.6-15.6s15.6-25 15.6-25 15.6 16.4 15.6 25-7 15.6-15.6 15.6zM50 0c0 0-40.6 36.9-40.6 59.4s18.2 40.6 40.6 40.6c22.4 0 40.6-18.2 40.6-40.6s-40.6-59.4-40.6-59.4zM50 93.7c-19 0-34.4-15.3-34.4-34.3s34.4-50 34.4-50 34.4 31 34.4 50-15.4 34.3-34.4 34.3z"></path>
</svg>
