<?xml version="1.0" encoding="utf-8"?>
<!-- Generated by IcoMoon.io -->
<!DOCTYPE svg PUBLIC "-//W3C//DTD SVG 1.1//EN" "http://www.w3.org/Graphics/SVG/1.1/DTD/svg11.dtd">
<svg version="1.1" xmlns="http://www.w3.org/2000/svg" xmlns:xlink="http://www.w3.org/1999/xlink" width="100" height="100" viewBox="0 0 100 100">
<path d="M34.4 56.2c0-0.3 0-0.7 0-1-2 3-3.2 6.6-3.2 10.4 0 10.4 8.4 18.8 18.8 18.8 3.9 0 7.5-1.2 10.4-3.2-0.3 0-0.7 0-1 0-13.8 0-25-11.1-25-25zM50 3.1c0 0-31.3 35.6-31.3 56.3s14 37.5 31.3 37.5 31.2-16.8 31.2-37.5-31.2-56.3-31.2-56.3zM50 90.6c-13.8 0-25-14-25-31.2 0-17.3 25-46.9 25-46.9s25 29.6 25 46.9c0 17.2-11.2 31.2-25 31.2z"></path>
</svg>
