<?xml version="1.0" encoding="utf-8"?>
<!-- Generated by IcoMoon.io -->
<!DOCTYPE svg PUBLIC "-//W3C//DTD SVG 1.1//EN" "http://www.w3.org/Graphics/SVG/1.1/DTD/svg11.dtd">
<svg version="1.1" xmlns="http://www.w3.org/2000/svg" xmlns:xlink="http://www.w3.org/1999/xlink" width="100" height="100" viewBox="0 0 100 100">
<path d="M50 0c-27.6 0-50 22.4-50 50s22.4 50 50 50c27.6 0 50-22.4 50-50s-22.4-50-50-50zM50 93.7c-24.2 0-43.8-19.5-43.8-43.7s19.6-43.8 43.8-43.8c24.2 0 43.7 19.6 43.7 43.8s-19.5 43.7-43.7 43.7zM50 25c-13.8 0-25 11.2-25 25s11.2 25 25 25c13.8 0 25-11.2 25-25s-11.2-25-25-25zM50 68.7c-10.4 0-18.8-8.4-18.8-18.7s8.4-18.8 18.8-18.8c10.3 0 18.7 8.4 18.7 18.8s-8.4 18.7-18.7 18.7z"></path>
</svg>
