<?xml version="1.0" encoding="utf-8"?>
<!-- Generated by IcoMoon.io -->
<!DOCTYPE svg PUBLIC "-//W3C//DTD SVG 1.1//EN" "http://www.w3.org/Graphics/SVG/1.1/DTD/svg11.dtd">
<svg version="1.1" xmlns="http://www.w3.org/2000/svg" xmlns:xlink="http://www.w3.org/1999/xlink" width="100" height="100" viewBox="0 0 100 100">
<path d="M40.6 3.1v18.8c0 5.8-0.9 10.6-6.3 12v-33.9h-6.2v34.4c-5.4-1.4-6.3-6.7-6.3-12.5v-18.8c0-1.1 0-3.1 0-3.1h-6.2v21.9c0 9.2 3.6 16.9 12.5 18.4v59.7h6.2v-59.7c8.9-1.5 12.5-9.2 12.5-18.4v-21.9h-6.2v3.1zM80 24.2c-4-11.4-12.8-21.9-14.4-23.8v-0.4h-6.3v100h6.3v-43.8h18.7v-1.6h0.1c0 0 0.7-15.8-4.4-30.4zM65.6 50v-39.7c3.2 5 7 11.5 9.3 18 2.8 8.1 3.5 16.3 3.6 21.7h-12.9z"></path>
</svg>
