<?xml version="1.0" encoding="utf-8"?>
<!-- Generated by IcoMoon.io -->
<!DOCTYPE svg PUBLIC "-//W3C//DTD SVG 1.1//EN" "http://www.w3.org/Graphics/SVG/1.1/DTD/svg11.dtd">
<svg version="1.1" xmlns="http://www.w3.org/2000/svg" xmlns:xlink="http://www.w3.org/1999/xlink" width="100" height="100" viewBox="0 0 100 100">
<path d="M75 0h-50c-1.7 0-3.1 1.4-3.1 3.1v50c0 1.7 1.4 3.1 3.1 3.1h21.9v18.8h-6.3v25h18.8v-25h-6.3v-18.8h21.9c1.7 0 3.1-1.4 3.1-3.1v-50c0-1.7-1.4-3.1-3.1-3.1zM53.1 93.7h-6.2v-12.5h6.2v12.5zM71.9 50h-43.8v-43.8h43.8v43.8zM40.6 12.5h-6.2v31.2h6.2v-31.2zM65.6 12.5h-6.2v31.2h6.2v-31.2zM53.1 12.5h-6.2v31.2h6.2v-31.2z"></path>
</svg>
