<?xml version="1.0" encoding="utf-8"?>
<!-- Generated by IcoMoon.io -->
<!DOCTYPE svg PUBLIC "-//W3C//DTD SVG 1.1//EN" "http://www.w3.org/Graphics/SVG/1.1/DTD/svg11.dtd">
<svg version="1.1" xmlns="http://www.w3.org/2000/svg" xmlns:xlink="http://www.w3.org/1999/xlink" width="100" height="100" viewBox="0 0 100 100">
<path d="M73.8 5.8c-5.2-3.6-13.1-5.8-23.8-5.8s-18.6 2.2-23.8 5.8c-8.3 4.6-13.7 11.5-13.7 19.2 0 5.1 2.3 9.8 6.2 13.8v42.4c0 10.4 10.6 18.8 31.3 18.8s31.2-8.4 31.2-18.8v-42.4c4-4 6.3-8.7 6.3-13.8 0-7.7-5.4-14.6-13.7-19.2zM50 6.2c17.3 0 25 5.6 25 12.5s-7.7 12.5-25 12.5-25-5.6-25-12.5 7.7-12.5 25-12.5zM75 81.2c0 7-7.7 12.5-25 12.5s-25-5.5-25-12.5v-37.7c6.6 4 15.3 6.5 25 6.5v31.2c0 0 15.3 1.9 25-1.7v1.7zM75 73.6c-7.9 3.2-18.8 1.4-18.8 1.4v-25.4c7.2-0.8 13.6-3 18.8-6.1v30.1zM50 43.7c-17.3 0-31.3-8.4-31.3-18.7 0-0.9 0.3-1.8 0.5-2.7 2.2 8.6 12.5 15.2 30.8 15.2s28.6-6.6 30.8-15.2c0.2 0.9 0.4 1.8 0.4 2.7 0 10.3-13.9 18.7-31.2 18.7z"></path>
</svg>
