<?xml version="1.0" encoding="utf-8"?>
<!-- Generated by IcoMoon.io -->
<!DOCTYPE svg PUBLIC "-//W3C//DTD SVG 1.1//EN" "http://www.w3.org/Graphics/SVG/1.1/DTD/svg11.dtd">
<svg version="1.1" xmlns="http://www.w3.org/2000/svg" xmlns:xlink="http://www.w3.org/1999/xlink" width="100" height="100" viewBox="0 0 100 100">
<path d="M75 0h-49.9c-13.8 0-25 14-25 31.2v0h-0.1v12.6h0.1v56.2h56.2v-31.3h18.7c0 0 0 0 0 0 13.8 0 25-15.3 25-34.3s-11.2-34.4-25-34.4zM50 37.5v56.2h-43.6v-62.4c0 0 0 0 0-0.1 0-13.8 8.3-25 18.7-25 0 0 0 0 0 0h14.8c0 0 0 0 0 0h20.8c-6.4 6.3-10.7 16.5-10.7 28.2 0 1 0.2 2 0.3 3.1h-0.3zM75 62.5c0 0 0 0 0 0h-18.7v-28c0 0 0-0.1 0-0.1 0-0.1 0-0.1 0-0.2v-3h0.2c1-14 8.9-25 18.5-25 10.3 0 18.7 12.6 18.7 28.2s-8.4 28.1-18.7 28.1zM78.1 18.7c-5.1 0-9.2 6.8-9.3 15.2v1c0.1 8.4 4.3 15.1 9.3 15.1 5.2 0 9.4-7 9.4-15.6s-4.2-15.7-9.4-15.7zM78.1 43.7c-1.7 0-3.1-4.2-3.1-9.3s1.4-9.4 3.1-9.4 3.1 4.2 3.1 9.4-1.4 9.3-3.1 9.3z"></path>
</svg>
