<?xml version="1.0" encoding="utf-8"?>
<!-- Generated by IcoMoon.io -->
<!DOCTYPE svg PUBLIC "-//W3C//DTD SVG 1.1//EN" "http://www.w3.org/Graphics/SVG/1.1/DTD/svg11.dtd">
<svg version="1.1" xmlns="http://www.w3.org/2000/svg" xmlns:xlink="http://www.w3.org/1999/xlink" width="100" height="100" viewBox="0 0 100 100">
<path d="M84.8 39.4c-4.9-8.3-4.1-14.2-4-14.4 0.2-1.1-0.3-2.3-1.2-3s-2.1-0.9-3.2-0.4c-0.3 0.1-6.6 3.1-9.1 11.7-0.6 2.1-1 4.4-1.2 6.5-1-1.6-1.8-3.1-2.4-4.4-6.7-14.5-3.5-31.5-3.5-31.7 0.2-1.1-0.2-2.2-1-2.9-0.8-0.8-1.9-1-2.9-0.7-0.9 0.2-20 6-24.5 30.4-1.6 8.8-0.6 17.5 0.7 23.2-2-1.3-3.7-3.2-5.4-5.9-2.6-4.1-4.5-11.3-4.5-11.4-0.3-1.2-1.4-2.1-2.6-2.3-1.3-0.1-2.5 0.5-3.2 1.6-0.3 0.5-7.4 13.4-7.4 25.4 0 22.5 16.7 38.9 40.3 38.9 23.7 0 40.9-16.3 40.9-38.9 0-9.3-1.3-14.2-5.8-21.7zM49.6 93.8c-19.9 0-34-13.8-34-32.7 0-5.3 1.8-11.1 3.5-15.4 0.8 1.8 1.7 3.8 2.7 5.4 5.7 9 14.5 11.3 14.9 11.4 1.1 0.3 2.3-0.1 3.1-1 0.7-0.9 0.9-2.1 0.5-3.2 0-0.1-4.8-13.4-2.4-26.7 2.6-13.6 10.5-20.4 15.6-23.4-0.5 6.9-0.6 18.8 4.5 29.8 2.5 5.3 8 13.2 8.3 13.6 0.8 1.1 2.2 1.6 3.6 1.1 1.3-0.5 2.1-1.8 2-3.2 0 0-0.5-7.8 1.5-14.5 0.4-1.5 0.9-2.7 1.6-3.7 0.6 3.1 1.9 7 4.5 11.3 3.9 6.5 4.9 10.3 4.9 18.5 0 18.9-14.6 32.7-34.8 32.7z"></path>
</svg>
