<?xml version="1.0" encoding="utf-8"?>
<!-- Generated by IcoMoon.io -->
<!DOCTYPE svg PUBLIC "-//W3C//DTD SVG 1.1//EN" "http://www.w3.org/Graphics/SVG/1.1/DTD/svg11.dtd">
<svg version="1.1" xmlns="http://www.w3.org/2000/svg" xmlns:xlink="http://www.w3.org/1999/xlink" width="100" height="100" viewBox="0 0 100 100">
<path d="M93.7 12.5h-87.5c-3.4 0-6.2 2.8-6.2 6.2v62.5c0 3.5 2.8 6.3 6.2 6.3h87.5c3.5 0 6.3-2.8 6.3-6.3v-62.5c0-3.4-2.8-6.2-6.3-6.2zM93.7 78.1c0 1.7-1.4 3.1-3.1 3.1h-81.2c-1.8 0-3.2-1.4-3.2-3.1v-56.2c0-1.8 1.4-3.2 3.2-3.2h81.2c1.7 0 3.1 1.4 3.1 3.2v56.2zM62.5 25h-43.8c-3.4 0-6.2 2.8-6.2 6.2v37.5c0 3.5 2.8 6.3 6.2 6.3h43.8c3.5 0 6.2-2.8 6.2-6.3v-37.5c0-3.4-2.7-6.2-6.2-6.2zM62.5 65.6c0 1.7-1.4 3.1-3.1 3.1h-37.5c-1.8 0-3.2-1.4-3.2-3.1v-31.2c0-1.8 1.4-3.2 3.2-3.2h37.5c1.7 0 3.1 1.4 3.1 3.2v31.2zM84.4 31.2h-6.3c-1.7 0-3.1 1.4-3.1 3.2 0 1.7 1.4 3.1 3.1 3.1h6.3c1.7 0 3.1-1.4 3.1-3.1 0-1.8-1.4-3.2-3.1-3.2zM84.4 43.7h-6.3c-1.7 0-3.1 1.4-3.1 3.2 0 1.7 1.4 3.1 3.1 3.1h6.3c1.7 0 3.1-1.4 3.1-3.1 0-1.8-1.4-3.2-3.1-3.2z"></path>
</svg>
