<?xml version="1.0" encoding="utf-8"?>
<!-- Generated by IcoMoon.io -->
<!DOCTYPE svg PUBLIC "-//W3C//DTD SVG 1.1//EN" "http://www.w3.org/Graphics/SVG/1.1/DTD/svg11.dtd">
<svg version="1.1" xmlns="http://www.w3.org/2000/svg" xmlns:xlink="http://www.w3.org/1999/xlink" width="100" height="100" viewBox="0 0 100 100">
<path d="M81.2 56.2c-4.9-3.7-18.7-18.7-18.7-18.7h-6.3l3.6 6.2c4.1 4.4 13.4 14.3 17.6 17.5 0.2 0.2 0.5 0.7 0.8 1.3h-56.4c0.2-0.6 0.5-1 0.7-1.3 4.3-3.2 13.6-13.1 17.7-17.5l3.5-6.2h-6.2c0 0-13.8 15-18.8 18.7s-6.2 19.5-6.2 28.8c0 7.8 6.2 15 6.2 15h62.5c0 0 6.3-7.2 6.3-15 0-9.3-1.3-25-6.3-28.8zM78.1 93.7h-56.2c-1.1-1.6-2.3-3.9-2.8-6.2h61.8c-0.6 2.3-1.7 4.6-2.8 6.2zM18.9 81.2c0.2-4.8 0.6-9.2 1.2-12.5h59.8c0.6 3.3 1 7.7 1.2 12.5h-62.2zM43.7 18.7h12.5v18.8h6.3v-37.5h-25v37.5h6.2v-18.8zM43.7 6.2h12.5v6.3h-12.5v-6.3z"></path>
</svg>
