<?xml version="1.0" encoding="utf-8"?>
<!-- Generated by IcoMoon.io -->
<!DOCTYPE svg PUBLIC "-//W3C//DTD SVG 1.1//EN" "http://www.w3.org/Graphics/SVG/1.1/DTD/svg11.dtd">
<svg version="1.1" xmlns="http://www.w3.org/2000/svg" xmlns:xlink="http://www.w3.org/1999/xlink" width="100" height="100" viewBox="0 0 100 100">
<path d="M71.9 0c-12.1 0-21.9 12.6-21.9 28.1 0 14.2 8.2 25.9 18.7 27.8v44.1h6.3v-44.1c10.6-1.9 18.7-13.6 18.7-27.8 0-15.5-9.7-28.1-21.8-28.1zM71.9 50c-8.7 0-15.7-9.8-15.7-21.9s7-21.9 15.7-21.9 15.6 9.8 15.6 21.9c0 12.1-7 21.9-15.6 21.9zM31.2 3.1v18.8c0 5.8-0.8 10.6-6.2 12v-33.9h-6.3v33.9c-5.3-1.4-6.2-6.2-6.2-12v-21.9h-6.3v21.9c0 9.2 3.7 16.9 12.5 18.4v59.7h6.3v-59.7c8.9-1.5 12.5-9.2 12.5-18.4v-21.9h-6.3v3.1z"></path>
</svg>
