<?xml version="1.0" encoding="utf-8"?>
<!-- Generated by IcoMoon.io -->
<!DOCTYPE svg PUBLIC "-//W3C//DTD SVG 1.1//EN" "http://www.w3.org/Graphics/SVG/1.1/DTD/svg11.dtd">
<svg version="1.1" xmlns="http://www.w3.org/2000/svg" xmlns:xlink="http://www.w3.org/1999/xlink" width="100" height="100" viewBox="0 0 100 100">
<path d="M75 6.2h-18.8v-6.2h-12.5v6.2h-18.7c-6.9 0-12.5 5.6-12.5 12.5 0 5.9 4 10.7 9.4 12.1v6.7c0 3.4 2.8 6.2 6.2 6.2h3.1v12.5c-3.4 0-6.2 2.8-6.2 6.3v37.5h50v-37.5c0-3.5-2.8-6.3-6.3-6.3v-12.5h3.2c3.4 0 6.2-2.8 6.2-6.2v-6.7c5.4-1.4 9.4-6.2 9.4-12.1 0-6.9-5.6-12.5-12.5-12.5zM68.7 87.5v6.2h-37.5v-28.1c0-1.7 1.4-3.1 3.2-3.1h31.2c1.7 0 3.1 1.4 3.1 3.1v21.9zM37.5 56.2v-12.5h25v12.5h-25zM71.9 34.4c0 1.7-1.4 3.1-3.2 3.1h-37.5c-1.7 0-3.1-1.4-3.1-3.1v-3.2h43.8v3.2zM75 25h-50c-3.5 0-6.3-2.8-6.3-6.3 0-3.4 2.8-6.2 6.3-6.2h50c3.5 0 6.2 2.8 6.2 6.2 0 3.5-2.7 6.3-6.2 6.3z"></path>
</svg>
