<?xml version="1.0" encoding="utf-8"?>
<!-- Generated by IcoMoon.io -->
<!DOCTYPE svg PUBLIC "-//W3C//DTD SVG 1.1//EN" "http://www.w3.org/Graphics/SVG/1.1/DTD/svg11.dtd">
<svg version="1.1" xmlns="http://www.w3.org/2000/svg" xmlns:xlink="http://www.w3.org/1999/xlink" width="106" height="100" viewBox="0 0 106 100">
<path d="M65.6 90.6h-13.5c9.6-11.8 29.1-37.7 29.1-52.3 0-19.4-15.3-35.2-34.3-35.2s-34.4 15.8-34.4 35.2c0 14.6 19.5 40.5 29.1 52.3h-13.5c-1.7 0-3.1 1.4-3.1 3.1s1.4 3.2 3.1 3.2h37.5c1.7 0 3.1-1.4 3.1-3.2s-1.4-3.1-3.1-3.1zM18.7 38.7c0-16.2 12.6-29.3 28.2-29.3s28.1 13.1 28.1 29.3c0 16.1-28.1 48.8-28.1 48.8s-28.2-32.7-28.2-48.8zM46.9 21.9c-8.7 0-15.7 7-15.7 15.6s7 15.6 15.7 15.6c8.6 0 15.6-7 15.6-15.6s-7-15.6-15.6-15.6zM46.9 46.9c-5.2 0-9.4-4.2-9.4-9.4s4.2-9.4 9.4-9.4c5.2 0 9.3 4.2 9.3 9.4s-4.2 9.4-9.3 9.4z"></path>
</svg>
