<?xml version="1.0" encoding="utf-8"?>
<!-- Generated by IcoMoon.io -->
<!DOCTYPE svg PUBLIC "-//W3C//DTD SVG 1.1//EN" "http://www.w3.org/Graphics/SVG/1.1/DTD/svg11.dtd">
<svg version="1.1" xmlns="http://www.w3.org/2000/svg" xmlns:xlink="http://www.w3.org/1999/xlink" width="106" height="100" viewBox="0 0 106 100">
<path d="M62.5 69.7v6c14.7 1.4 25 4.8 25 8.7 0 5.2-18.2 9.4-40.6 9.4-22.5 0-40.7-4.2-40.7-9.4 0-3.9 10.4-7.3 25-8.7v-6c-18.1 2.1-31.2 7.9-31.2 14.7 0 8.6 21 15.6 46.9 15.6s46.8-7 46.8-15.6c0-6.8-13-12.6-31.2-14.7zM43.7 55.9v28.5c0 1.7 1.4 3.1 3.2 3.1 1.7 0 3.1-1.4 3.1-3.1v-28.5c14-1.5 25-13.3 25-27.8 0-15.5-12.6-28.1-28.1-28.1s-28.2 12.6-28.2 28.1c0 14.5 11 26.3 25 27.8zM46.9 6.2c12.1 0 21.8 9.8 21.8 21.9s-9.7 21.9-21.8 21.9c-12.1 0-21.9-9.8-21.9-21.9s9.8-21.9 21.9-21.9z"></path>
</svg>
