<?xml version="1.0" encoding="utf-8"?>
<!-- Generated by IcoMoon.io -->
<!DOCTYPE svg PUBLIC "-//W3C//DTD SVG 1.1//EN" "http://www.w3.org/Graphics/SVG/1.1/DTD/svg11.dtd">
<svg version="1.1" xmlns="http://www.w3.org/2000/svg" xmlns:xlink="http://www.w3.org/1999/xlink" width="106" height="100" viewBox="0 0 106 100">
<path d="M68.7 18.7v-12.5c0-3.4-2.7-6.2-6.2-6.2h-18.8c-3.4 0-6.2 2.8-6.2 6.2v12.5h-18.8l-12.5 21.9 12.5 21.9h18.8v31.2c0 3.5 2.8 6.3 6.2 6.3h18.8c3.5 0 6.2-2.8 6.2-6.3v-31.2h18.8v-43.8h-18.8zM43.7 9.4c0-1.8 1.4-3.2 3.2-3.2h12.5c1.7 0 3.1 1.4 3.1 3.2v9.3h-18.8v-9.3zM62.5 90.6c0 1.7-1.4 3.1-3.1 3.1h-12.5c-1.7 0-3.2-1.4-3.2-3.1v-28.1h18.8v28.1zM81.2 56.2h-59.3l-9.4-15.6 9.4-15.6h59.3v31.2z"></path>
</svg>
