<?xml version="1.0" encoding="utf-8"?>
<!-- Generated by IcoMoon.io -->
<!DOCTYPE svg PUBLIC "-//W3C//DTD SVG 1.1//EN" "http://www.w3.org/Graphics/SVG/1.1/DTD/svg11.dtd">
<svg version="1.1" xmlns="http://www.w3.org/2000/svg" xmlns:xlink="http://www.w3.org/1999/xlink" width="106" height="100" viewBox="0 0 106 100">
<path d="M15.6 68.7h-6.2l-12.5 31.3h31.2v-6.3h-21.9l9.4-25zM46.9 0c-20.7 0-37.5 16.8-37.5 37.5s37.5 62.5 37.5 62.5 37.5-41.8 37.5-62.5c0-20.7-16.8-37.5-37.5-37.5zM15.6 37.5c0-17.2 14-31.3 31.3-31.3 17.2 0 31.2 14.1 31.2 31.3 0 11.9-17.6 36.8-31.2 53-13.7-16.2-31.3-41.1-31.3-53zM84.4 68.7h-6.3l9.4 25h-21.9v6.3h31.3l-12.5-31.3zM46.9 18.7c-6.9 0-12.5 5.6-12.5 12.5s5.6 12.5 12.5 12.5 12.5-5.6 12.5-12.5c0-6.9-5.6-12.5-12.5-12.5zM46.9 37.5c-3.5 0-6.3-2.8-6.3-6.3 0-3.4 2.8-6.2 6.3-6.2 3.4 0 6.2 2.8 6.2 6.2 0 3.5-2.8 6.3-6.2 6.3z"></path>
</svg>
