<?xml version="1.0" encoding="utf-8"?>
<!-- Generated by IcoMoon.io -->
<!DOCTYPE svg PUBLIC "-//W3C//DTD SVG 1.1//EN" "http://www.w3.org/Graphics/SVG/1.1/DTD/svg11.dtd">
<svg version="1.1" xmlns="http://www.w3.org/2000/svg" xmlns:xlink="http://www.w3.org/1999/xlink" width="106" height="100" viewBox="0 0 106 100">
<path d="M46.9 0c-27.6 0-50 22.4-50 50s22.4 50 50 50c27.6 0 50-22.4 50-50s-22.4-50-50-50zM46.9 93.7c-24.2 0-43.8-19.6-43.8-43.7 0-24.2 19.6-43.8 43.8-43.8 24.1 0 43.7 19.6 43.7 43.8 0 24.1-19.6 43.7-43.7 43.7zM21.9 75l33.3-16.6 16.6-33.4-33.2 16.7-16.7 33.3zM61.4 35.5l-8.9 16-7.1-7.1 16-8.9zM48.4 55.7l-16.1 8.9 8.9-16.1 7.2 7.2z"></path>
</svg>
