<?xml version="1.0" encoding="utf-8"?>
<!-- Generated by IcoMoon.io -->
<!DOCTYPE svg PUBLIC "-//W3C//DTD SVG 1.1//EN" "http://www.w3.org/Graphics/SVG/1.1/DTD/svg11.dtd">
<svg version="1.1" xmlns="http://www.w3.org/2000/svg" xmlns:xlink="http://www.w3.org/1999/xlink" width="106" height="100" viewBox="0 0 106 100">
<path d="M75 93.7h-22.8c10.4-12.4 32.2-40.4 32.2-56.2 0-20.7-16.8-37.5-37.5-37.5s-37.5 16.8-37.5 37.5c0 15.8 21.8 43.8 32.1 56.2h-22.8c-1.7 0-3.1 1.5-3.1 3.2s1.4 3.1 3.1 3.1h56.3c1.7 0 3.1-1.4 3.1-3.1s-1.4-3.2-3.1-3.2zM15.6 37.9c0-17.5 14-31.7 31.3-31.7 17.2 0 31.2 14.2 31.2 31.7s-31.2 52.7-31.2 52.7-31.3-35.2-31.3-52.7z"></path>
</svg>
