<?xml version="1.0" encoding="utf-8"?>
<!-- Generated by IcoMoon.io -->
<!DOCTYPE svg PUBLIC "-//W3C//DTD SVG 1.1//EN" "http://www.w3.org/Graphics/SVG/1.1/DTD/svg11.dtd">
<svg version="1.1" xmlns="http://www.w3.org/2000/svg" xmlns:xlink="http://www.w3.org/1999/xlink" width="106" height="100" viewBox="0 0 106 100">
<path d="M46.9 0c-20.7 0-37.5 16.8-37.5 37.5s37.5 62.5 37.5 62.5 37.5-41.8 37.5-62.5c0-20.7-16.8-37.5-37.5-37.5zM15.6 37.5c0-17.3 14-31.3 31.3-31.3 17.2 0 31.2 14 31.2 31.3s-31.2 53.1-31.2 53.1-31.3-35.8-31.3-53.1zM46.9 18.7c-10.4 0-18.8 8.4-18.8 18.8 0 10.3 8.4 18.7 18.8 18.7 10.3 0 18.7-8.4 18.7-18.7 0-10.4-8.4-18.8-18.7-18.8zM46.9 50c-6.9 0-12.5-5.6-12.5-12.5s5.6-12.5 12.5-12.5 12.5 5.6 12.5 12.5c0 6.9-5.6 12.5-12.5 12.5z"></path>
</svg>
