<?xml version="1.0" encoding="utf-8"?>
<!-- Generated by IcoMoon.io -->
<!DOCTYPE svg PUBLIC "-//W3C//DTD SVG 1.1//EN" "http://www.w3.org/Graphics/SVG/1.1/DTD/svg11.dtd">
<svg version="1.1" xmlns="http://www.w3.org/2000/svg" xmlns:xlink="http://www.w3.org/1999/xlink" width="106" height="100" viewBox="0 0 106 100">
<path d="M74.2 13.2c-17.4 0-27.3-13.2-27.3-13.2s-9.9 13.2-27.4 13.2c-6.5 0-14.1-1.9-22.6-7 0 0 3.1 71.9 50 93.8 46.8-21.9 50-93.8 50-93.8-8.5 5.2-16.1 7-22.7 7zM46.9 93c-21.7-11.5-32.7-35.6-38.3-55.5h76.5c-5.5 19.9-16.5 43.9-38.2 55.5zM7 31.2c-1.3-5.5-2.1-10.4-2.7-14.5 5.1 1.8 10.2 2.8 15.2 2.8 12.8 0 22.1-6 27.4-10.6 5.2 4.6 14.5 10.6 27.3 10.6 5 0 10.1-1 15.3-2.8-0.6 4-1.5 9-2.8 14.5h-79.7z"></path>
</svg>
