<?xml version="1.0" encoding="utf-8"?>
<!-- Generated by IcoMoon.io -->
<!DOCTYPE svg PUBLIC "-//W3C//DTD SVG 1.1//EN" "http://www.w3.org/Graphics/SVG/1.1/DTD/svg11.dtd">
<svg version="1.1" xmlns="http://www.w3.org/2000/svg" xmlns:xlink="http://www.w3.org/1999/xlink" width="94" height="100" viewBox="0 0 94 100">
<path d="M15.3 15.3c0 0 0 0 0 0h8.9c0.5 0 0.9-0.5 0.9-1 0 0-0.1-7.5-0.1-9.6v-0.1c0-1.7 0.4-3.2 1-4.5l0.3-0.5c0 0 0 0-0.1 0l-17.3 17c0 0.1 0 0.1 0 0.2 0.3-0.2 0.8-0.5 0.9-0.5 1.5-0.7 3.3-1 5.5-1zM84.6 13.4c-0.7-3.8-3-5.6-5-6.3-2.2-0.8-6.7-1.6-12.3-2.3-4.5-0.5-9.8-0.5-12.9-0.4-0.4-2.6-2.3-5-4.3-5.8-5.5-2.2-14-1.7-16.2-1-1.7 0.4-3.6 1.4-4.7 2.9-0.7 1-1.2 2.3-1.2 4.2 0 1 0.1 3.4 0.1 5.5 0 2.2 0 4.1 0 4.1 0 2-1.5 3.5-3.5 3.5h-8.9c-1.9 0-3.3 0.3-4.4 0.8s-1.9 1.2-2.5 2c-1.2 1.6-1.4 3.6-1.4 5.5 0 0 0 1.7 0.4 4.8 0.3 2.5 3 19.5 5.5 24.7 1 2 1.7 2.9 3.6 3.8 4.3 1.8 14.1 3.8 18.7 4.4s7.5 1.8 9.2-1.7c0-0.1 0.4-0.9 0.8-2.2 1.5-4.5 1.7-8.5 1.7-11.4 0-0.3 0.5-0.3 0.5 0 0 2-0.4 9.3 5 11.2 2.2 0.7 6.7 1.4 11.2 2 4.2 0.4 7.2 2 7.2 12.5 0 6.4-1.4 7.3-8.5 7.3-5.7 0-7.9 0.1-7.9-4.4 0-3.6 3.7-3.2 6.4-3.2 1.2 0 0.3-0.9 0.3-3.2 0-2.2 1.4-3.5 0.1-3.5-9.3-0.3-14.8-0.1-14.8 11.5 0 10.5 4 12.5 17.2 12.5 10.4 0 14.1-0.3 18.4-13.6 0.8-2.6 2.9-10.5 4.1-23.9 0.8-8.4-0.7-33.9-1.9-40.3zM66.5 41.6c-1.3-0.1-2.5 0-3.7 0.2 0.3-2.6 1.4-5.8 5.2-5.7 4.3 0.2 4.9 4.1 4.9 6.8-1.8-0.8-4-1.3-6.4-1.3z"></path>
</svg>
