<?xml version="1.0" encoding="utf-8"?>
<!-- Generated by IcoMoon.io -->
<!DOCTYPE svg PUBLIC "-//W3C//DTD SVG 1.1//EN" "http://www.w3.org/Graphics/SVG/1.1/DTD/svg11.dtd">
<svg version="1.1" xmlns="http://www.w3.org/2000/svg" xmlns:xlink="http://www.w3.org/1999/xlink" width="94" height="100" viewBox="0 0 94 100">
<path d="M59.9 27.7c1.8-1.8 1.8-4.7 0-6.5s-4.7-1.8-6.4 0l-28.9 29.5c-3.5 3.6-9.3 3.6-12.8 0-3.6-3.7-3.6-9.5 0-13.1l28.3-29c-3.6-3.6-9.3-3.6-12.8 0l-21.9 22.4c-7.1 7.2-7.1 19 0 26.2 7 7.3 18.5 7.3 25.6 0l28.9-29.5zM15 47.4c1.8 1.8 4.6 1.8 6.4 0l28.9-29.5c3.5-3.6 9.3-3.6 12.8 0 1.8 1.8 4.6 1.8 6.4 0s1.8-4.7 0-6.6c-7.1-7.2-18.6-7.2-25.6 0l-28.9 29.5c-1.8 1.8-1.8 4.8 0 6.6zM79.1 40.8c-1.7-1.8-4.6-1.8-6.4 0l-28.9 29.5c-3.5 3.6-9.2 3.6-12.8 0-1.8-1.8-4.6-1.8-6.4 0s-1.8 4.8 0 6.6c7.1 7.2 18.6 7.2 25.7 0l28.8-29.5c1.8-1.8 1.8-4.8 0-6.6zM88.8 31c-7.1-7.2-18.6-7.2-25.7 0l-28.9 29.5c-1.7 1.8-1.7 4.7 0 6.5 1.8 1.9 4.7 1.9 6.4 0l28.9-29.4c3.6-3.7 9.3-3.7 12.8 0s3.6 9.4 0 13.1l-28.3 28.9c3.6 3.6 9.3 3.6 12.9 0l21.9-22.4c7-7.2 7-19 0-26.2z"></path>
</svg>
