<?xml version="1.0" encoding="utf-8"?>
<!-- Generated by IcoMoon.io -->
<!DOCTYPE svg PUBLIC "-//W3C//DTD SVG 1.1//EN" "http://www.w3.org/Graphics/SVG/1.1/DTD/svg11.dtd">
<svg version="1.1" xmlns="http://www.w3.org/2000/svg" xmlns:xlink="http://www.w3.org/1999/xlink" width="94" height="100" viewBox="0 0 94 100">
<path d="M79.4 17.6l5.9-11.7-8.8 5.9-1.7 0.8c-3.6-4.1-8.7-6.7-14.5-6.7-10.6 0-19.1 7.1-19.1 17.6 0 1.4 0.2 4.3 0.5 5.6l-0.5 0.3c0 0-38.3-5.9-41.2-20.6 0 0-8.8 14.7 5.9 26.4 0 0-5.9 3-8.8 0 0 0 0 8.8 14.7 17.6 0 0-5.9 3-8.9 0 0 0 11.8 11.8 17.7 11.8 0 0 0 8.8-26.5 8.8 0 0 33.5 22 64.7-3 15.9-12.6 19.8-28.7 20-40.8 0.4-1.5 0.6-3 0.6-4.6v-1.5l8.8-8.8-8.8 2.9z"></path>
</svg>
