<?xml version="1.0" encoding="utf-8"?>
<!-- Generated by IcoMoon.io -->
<!DOCTYPE svg PUBLIC "-//W3C//DTD SVG 1.1//EN" "http://www.w3.org/Graphics/SVG/1.1/DTD/svg11.dtd">
<svg version="1.1" xmlns="http://www.w3.org/2000/svg" xmlns:xlink="http://www.w3.org/1999/xlink" width="94" height="100" viewBox="0 0 94 100">
<path d="M47.1 5.9c-21.2 0-38.3 17.1-38.3 38.2s17.1 38.2 38.3 38.2 38.2-17.1 38.2-38.2-17.1-38.2-38.2-38.2zM67.6 55.9c-2.9 0-5.8-5.9-5.8-5.9s-4.2-14.7-23.6-17.7c1.7 26.5-8.1 23.3-11.7 23.6s-5.8-5.1-5.8-11.8c0-14.6 11.8-26.4 26.4-26.4s26 11.8 26.4 26.4c0 2.9-2.9 11.8-5.9 11.8z"></path>
</svg>
