<?xml version="1.0" encoding="utf-8"?>
<!-- Generated by IcoMoon.io -->
<!DOCTYPE svg PUBLIC "-//W3C//DTD SVG 1.1//EN" "http://www.w3.org/Graphics/SVG/1.1/DTD/svg11.dtd">
<svg version="1.1" xmlns="http://www.w3.org/2000/svg" xmlns:xlink="http://www.w3.org/1999/xlink" width="94" height="100" viewBox="0 0 94 100">
<path d="M47.1 0c-24.4 0-44.2 19.7-44.2 44.1s19.8 44.1 44.2 44.1 44.1-19.7 44.1-44.1c0-24.4-19.8-44.1-44.1-44.1zM82.3 43.4c-9.4-2.4-17.6-2.8-24.7-1.9-1.2-2.8-2.5-5.6-3.9-8.5 6.2-2.9 13-6.7 20.2-11.6 5.1 6 8.2 13.6 8.4 22zM47.1 8.8c8.2 0 15.6 2.9 21.6 7.6-2.8 2.4-8.8 7-17.9 11.3-3.4-6-7.4-12-12.1-17.8 2.7-0.6 5.5-1.1 8.4-1.1zM32.1 12.3c2.6 3.6 7 10.1 11.7 18.3-10.2 3.7-22 5.2-30.9 5.1 2.5-10.4 9.7-18.9 19.2-23.4zM11.8 44.1c0-0.7 0.1-1.3 0.1-2 6.7 0.5 18.8 0 34.8-6.1 1.2 2.2 2.3 4.6 3.4 7-16.8 4.8-26.3 16.9-30.2 23.4-5-6.1-8.1-13.8-8.1-22.3zM47.1 79.4c-8.5 0-16.1-3.1-22.2-8 7.7-13.1 18-19.5 27.9-22.3 3.5 8.4 6.6 17.6 8.4 27.3-4.3 1.9-9.1 3-14.1 3zM67.5 72.8c-0.4-2.6-2.4-12.5-7.3-25.1 9.3-1.2 17.5 0.3 21.8 1.3-1.4 9.8-6.8 18.3-14.5 23.8z"></path>
</svg>
