<?xml version="1.0" encoding="utf-8"?>
<!-- Generated by IcoMoon.io -->
<!DOCTYPE svg PUBLIC "-//W3C//DTD SVG 1.1//EN" "http://www.w3.org/Graphics/SVG/1.1/DTD/svg11.dtd">
<svg version="1.1" xmlns="http://www.w3.org/2000/svg" xmlns:xlink="http://www.w3.org/1999/xlink" width="94" height="100" viewBox="0 0 94 100">
<path d="M13.4 43.9l-7.5 29.7c10.2-4.9 18.9-6.6 30.3 1.2 1.6-5.9 6.8-26.3 7.8-30.2-12-9.6-27.4-2.4-30.6-0.7zM45.8 37.8c1.5-6 6.1-23.8 7.6-29.8v-0.1c0 0-5.7-3.4-9.6-4.4-1.5-0.3-8.3-2.3-21 3.7l-7.5 29.3c10.3-4.9 18.8-6.6 30.5 1.3zM49.4 48.3l-7.5 29.7c-0.1 0 8.3 6.8 14.6 7.2 4 0.3 8.8-0.6 14.8-3.1l7.3-28.8c-7.1 2.5-19.7 5-29.2-5zM74.2 19c-8-0.6-13.1-5-15.4-7.3l-7.7 29.9c0.1 0 0.1 0.1 0.1 0.1 10.5 9.2 21.2 8 29.5 3.9 0 0 0-0.1 0-0.1s0 0 0 0l7.5-29.4c-5.3 2.5-10 3.2-14 2.9z"></path>
</svg>
