<?xml version="1.0" encoding="utf-8"?>
<!-- Generated by IcoMoon.io -->
<!DOCTYPE svg PUBLIC "-//W3C//DTD SVG 1.1//EN" "http://www.w3.org/Graphics/SVG/1.1/DTD/svg11.dtd">
<svg version="1.1" xmlns="http://www.w3.org/2000/svg" xmlns:xlink="http://www.w3.org/1999/xlink" width="94" height="100" viewBox="0 0 94 100">
<path d="M88.2 26.5c-5.7 0-17.7-6.3-25.4-10.6-1.1-1-2.3-2-3.6-2.8l-0.4-1.3h-1.8c-0.3-0.3-0.7-0.4-1.1-0.6v35.8h-1.1c-2.2 4.9-7.3 9.2-14.2 11-10.3 2.6-20.4-1.4-22.6-9.1-2.1-7.6 4.6-16 14.9-18.7 5.1-1.3 10.1-0.9 14.2 0.6v-23.3c-3.8-1-7.7-1.6-11.8-1.6-20.6 0-41.2 20.6-41.2 38.2 0 20.6 23.6 38.2 44.1 38.2 17.7 0 38.3-20.5 38.3-38.2 0-2.1-0.3-4.1-0.7-6.1 6.6-4.3 12.4-11.5 12.4-11.5z"></path>
</svg>
