<?xml version="1.0" encoding="utf-8"?>
<!-- Generated by IcoMoon.io -->
<!DOCTYPE svg PUBLIC "-//W3C//DTD SVG 1.1//EN" "http://www.w3.org/Graphics/SVG/1.1/DTD/svg11.dtd">
<svg version="1.1" xmlns="http://www.w3.org/2000/svg" xmlns:xlink="http://www.w3.org/1999/xlink" width="94" height="100" viewBox="0 0 94 100">
<path d="M78.5 70.6c-3.1 2.8-6.6 4-10.8 4-5.6 0-14.1-2.4-20.6-6.6-6.9-4.3-16-8.7-23.7-8.9 5.7-7 14.5-14.2 22.7-22.7 3-3.1 21.2-22.3 24.4-25.8 2.3-2.5 3.4-5.6 3.4-8.6 0-1.2-0.1-2.3-0.4-3.4-8.7 1.6-15.2 2.4-25.5 2.4-11.4 0-19.7-1.3-24.4-4-3.3 4-6.7 9.3-6.7 12.3 0 3.7 3.9 6.7 13.6 6.7 3.2 0 8.4-0.1 15.6-0.6-14.9 17.7-29.6 32-38.4 41.1-3 3-4.8 7.2-4.8 11.3 0 1.6 0.3 3.2 0.8 4.6 2.7-0.4 5.4-0.6 8.3-0.6 5.9 0 11.9 1.2 17.3 3.3 11 4.4 21.3 16.1 32.8 16.1 9.4 0 17.3-6.8 17.3-15.9 0-1.6-0.3-3.1-0.9-4.7z"></path>
</svg>
