<?xml version="1.0" encoding="utf-8"?>
<!-- Generated by IcoMoon.io -->
<!DOCTYPE svg PUBLIC "-//W3C//DTD SVG 1.1//EN" "http://www.w3.org/Graphics/SVG/1.1/DTD/svg11.dtd">
<svg version="1.1" xmlns="http://www.w3.org/2000/svg" xmlns:xlink="http://www.w3.org/1999/xlink" width="94" height="100" viewBox="0 0 94 100">
<path d="M37.2 61.5c2.6 0 5.3-0.6 7.7-1.8s4.6-2.9 6.7-5.2c0 0.3 3.8 4.6 4.4 5.1s1.2 0.9 1.7 1.3c0.9 0.7 1.4 1.2 2.8 0 1.5-1.2 3.3-3.3 5.1-4.9 1.9-1.6 1.4-2.6 0.3-3.3-2.5-1.6-3.1-5-3.1-11.1l-0.2-15.1c0-6.3-0.4-10.3-1.5-12.7s-3.1-4-5.7-5.6c-2.7-1.6-6.8-2.3-12.3-2.3-5.9 0-10.5 1.3-13.6 3.7-2.1 1.7-3.8 4.1-5 7.2-1.4 3.5-1.1 4.3 1.1 4.7 1.7 0.4 4.1 0.9 5.9 1.3 2.3 0.5 3-0.5 3.5-1.7 0.6-1.3 1.3-2.3 2.2-3 1.1-1 2.8-1.3 5-1.3 3.3 0 5.5 0.5 6.6 1.7 1.3 1.2 1.7 1.4 1.7 4.1v1.6c-2.1 0.9-6.1 2.1-11.8 3.3-4.1 0.9-7.4 2.1-9.8 3.3-2.2 1.3-4 4.6-5.3 7-1.1 2.3-1.7 5-1.7 7.9 0 4.7 1.3 8.4 4.1 11.5 2.7 2.9 6.4 4.3 11.2 4.3zM35.4 39c1.1-0.8 4.1-2.8 7.4-3.6 3.5-0.8 6.2 0 7.8-0.6v2.7c0 3.5 0 5.7-0.5 7-0.4 1.8-1.3 3.4-2.8 4.7-2 1.6-4.2 2.3-6.4 2.3-2 0-3.7-0.5-4.8-2.1-1.3-1.4-2-3.1-2-5 0-2-0.4-4.1 1.3-5.4zM73.3 67.2c-6.3 1.6-16.5 6.9-30 6.9-5.1 0-21.5-5.9-31.7-12-0.5-0.3-1.6-0.6-2.3 0.2-0.6 0.6-1 2.1 0.2 3.1 9.6 8.9 21.9 16.8 33.9 16.9 12.1 0.2 28.3-8.3 31.2-10.8 0.6-0.5 1-1.2 1-2 0-1.4-1.1-2.3-2.3-2.3zM85.1 59.4v0c-0.1-0.1-0.9-1.4-5.9-1.4-5.1 0-8.1 1.5-10 2.9-1.6 1.2-1.1 2.7-0.4 3.2 0.5 0.5 9.2-0.7 10.6 0 0 0 0.1 0 0.1 0-0.2-0.5 0.5 0.3-0.9 4.7-0.5 1.6-1.1 3.3-1.5 4.3 0 0.2-0.4 1.4 0.4 2.2 0.6 0.6 1.7 0.7 2.8-0.1 6.8-6.3 4.8-15.8 4.8-15.8z"></path>
</svg>
