<?xml version="1.0" encoding="utf-8"?>
<!-- Generated by IcoMoon.io -->
<!DOCTYPE svg PUBLIC "-//W3C//DTD SVG 1.1//EN" "http://www.w3.org/Graphics/SVG/1.1/DTD/svg11.dtd">
<svg version="1.1" xmlns="http://www.w3.org/2000/svg" xmlns:xlink="http://www.w3.org/1999/xlink" width="94" height="100" viewBox="0 0 94 100">
<path d="M73.5-3h-52.9c-8.1 0-14.7 6.6-14.7 14.8v64.7c0 8.1 6.6 14.7 14.7 14.7h52.9c8.2 0 14.7-6.6 14.7-14.7v-64.7c0-8.2-6.5-14.8-14.7-14.8zM64.7 8.8h11.8v11.8h-11.8v-11.8zM47.1 20.6c12.9 0 23.5 10.5 23.5 23.5s-10.6 23.5-23.5 23.5-23.5-10.5-23.5-23.5 10.5-23.5 23.5-23.5zM82.4 50v23.5c0 6.5-5.3 11.8-11.8 11.8h-47.1c-6.5 0-11.7-5.3-11.7-11.8v-35.3h5.8v1.7c0.1-0.1 0.2-0.1 0.3-0.2 0 1-0.2 1.9-0.2 2.9 0 17.1 13.1 30.9 29.4 30.9 16.2 0 29.4-13.8 29.4-30.9 0-1-0.2-1.9-0.3-2.9 0.1 0.1 0.2 0.1 0.3 0.2v-1.7h5.9v11.8z"></path>
</svg>
