<?xml version="1.0" encoding="utf-8"?>
<!-- Generated by IcoMoon.io -->
<!DOCTYPE svg PUBLIC "-//W3C//DTD SVG 1.1//EN" "http://www.w3.org/Graphics/SVG/1.1/DTD/svg11.dtd">
<svg version="1.1" xmlns="http://www.w3.org/2000/svg" xmlns:xlink="http://www.w3.org/1999/xlink" width="100" height="100" viewBox="0 0 100 100">
<path d="M93.7 0h-87.5c-3.4 0-6.2 2.8-6.2 6.2v87.5c0 3.5 2.8 6.3 6.2 6.3h87.5c3.5 0 6.3-2.8 6.3-6.3v-87.5c0-3.4-2.8-6.2-6.3-6.2zM18.7 93.7h-9.3c-1.8 0-3.2-1.4-3.2-3.1v-9.4h12.5v12.5zM18.7 75h-12.5v-12.5h12.5v12.5zM18.7 50v6.2h-12.5v-12.5h12.5v6.3zM18.7 37.5h-12.5v-12.5h12.5v12.5zM18.7 18.7h-12.5v-9.3c0-1.8 1.4-3.2 3.2-3.2h9.3v12.5zM75 62.5v31.2h-50v-37.5h50v6.3zM75 18.7v31.3h-50v-43.8h50v12.5zM93.7 90.6c0 1.7-1.4 3.1-3.1 3.1h-9.4v-12.5h12.5v9.4zM93.7 75h-12.5v-12.5h12.5v12.5zM93.7 56.2h-12.5v-12.5h12.5v12.5zM93.7 37.5h-12.5v-12.5h12.5v12.5zM93.7 18.7h-12.5v-12.5h9.4c1.7 0 3.1 1.4 3.1 3.2v9.3z"></path>
</svg>
