<?xml version="1.0" encoding="utf-8"?>
<!-- Generated by IcoMoon.io -->
<!DOCTYPE svg PUBLIC "-//W3C//DTD SVG 1.1//EN" "http://www.w3.org/Graphics/SVG/1.1/DTD/svg11.dtd">
<svg version="1.1" xmlns="http://www.w3.org/2000/svg" xmlns:xlink="http://www.w3.org/1999/xlink" width="113" height="100" viewBox="0 0 113 100">
<path d="M62.4 12.3c3.3 0.9 6.8-1 7.7-4.4s-1.1-6.8-4.5-7.7-6.8 1.1-7.7 4.4 1.1 6.8 4.5 7.7zM87.2 24.9l-36-9.6c-1.6-0.4-3.3 0.6-3.8 2.2-0.4 1.6 0.6 3.3 2.2 3.8l3 0.8-6.4 23.9 6 1.6 6.4-23.9 18 4.8-6.4 23.9 6 1.6 6.4-23.9 3 0.8c1.7 0.4 3.4-0.5 3.8-2.2s-0.5-3.3-2.2-3.8zM90.7 0.2c-3.3-0.9-6.8 1.1-7.6 4.5-0.9 3.3 1 6.8 4.3 7.7s6.8-1.1 7.7-4.5c0.8-3.3-1.1-6.8-4.4-7.7zM76.2 54l-30-8c0 0-17.1 22.4-26.1 32.1-4.2 4.6-4.2 4.6 2.5 6.4 14.4 3.9 42.7 11.4 56.3 15 2.7 0.7 5.8 1.6 4.3-5.2-2.9-13.1-7-40.3-7-40.3zM48.6 53l22.1 5.9c0.3 1.8 0.7 4.1 1.1 6.7l-27.3-7.3c1.6-2 3-3.8 4.1-5.3zM27.3 79.4c4-4.6 8.8-10.5 13-15.8l32.6 8.7c1.1 6.8 2.4 14.3 3.6 20.2l-49.2-13.1z"></path>
</svg>
