<?xml version="1.0" encoding="utf-8"?>
<!-- Generated by IcoMoon.io -->
<!DOCTYPE svg PUBLIC "-//W3C//DTD SVG 1.1//EN" "http://www.w3.org/Graphics/SVG/1.1/DTD/svg11.dtd">
<svg version="1.1" xmlns="http://www.w3.org/2000/svg" xmlns:xlink="http://www.w3.org/1999/xlink" width="100" height="100" viewBox="0 0 100 100">
<path d="M100 59.4v-0.1l-18.8-43.7h-18.7v6.3h13.9l14.5 31.2h-81.8l14.4-31.2h14v-6.3h-18.8l-18.7 43.7v0.1h0.3c-0.1 1-0.3 2-0.3 3.1 0 12.1 9.8 21.9 21.9 21.9 8.7 0 16.1-5.2 19.7-12.5h16.8c3.5 7.3 11 12.5 19.7 12.5 12.1 0 21.9-9.8 21.9-21.9 0-1.1-0.2-2.1-0.3-3.1h0.3zM21.9 78.1c-8.7 0-15.7-7-15.7-15.6 0-1.1 0.2-2.1 0.4-3.1h30.6c0.2 1 0.3 2 0.3 3.1 0 8.6-7 15.6-15.6 15.6zM56.6 65.6h-13.2c0.2-1 0.3-2 0.3-3.1s-0.1-2.1-0.3-3.1h13.2c-0.2 1-0.4 2-0.4 3.1s0.2 2.1 0.4 3.1zM78.1 78.1c-8.6 0-15.6-7-15.6-15.6 0-1.1 0.1-2.1 0.3-3.1h30.6c0.2 1 0.3 2 0.3 3.1 0 8.6-6.9 15.6-15.6 15.6z"></path>
</svg>
