<?xml version="1.0" encoding="utf-8"?>
<!-- Generated by IcoMoon.io -->
<!DOCTYPE svg PUBLIC "-//W3C//DTD SVG 1.1//EN" "http://www.w3.org/Graphics/SVG/1.1/DTD/svg11.dtd">
<svg version="1.1" xmlns="http://www.w3.org/2000/svg" xmlns:xlink="http://www.w3.org/1999/xlink" width="100" height="100" viewBox="0 0 100 100">
<path d="M69.4 44.6l-16.9 25.5-18.8-16.1c-0.6-0.7-1.5-0.9-2.5-0.9-0.9 0-1.8 0.2-2.5 0.9l-15.3 24.7c-1.3 1.3-1.3 3.4 0 4.7s3.3 1.2 4.6 0l13.9-22.4 18.8 16.1c0.7 0.7 1.6 1 2.4 0.9 0.9 0.1 1.8-0.2 2.4-0.9l18.5-27.8c1.3-1.3 1.3-3.4 0-4.7-1.3-1.2-3.3-1.2-4.6 0zM81.2 12.5h-75c-3.4 0-6.2 2.8-6.2 6.2v75c0 3.5 2.8 6.3 6.2 6.3h75c3.5 0 6.3-2.8 6.3-6.3v-75c0-3.4-2.8-6.2-6.3-6.2zM81.2 90.6c0 1.7-1.4 3.1-3.1 3.1h-68.7c-1.8 0-3.2-1.4-3.2-3.1v-68.7c0-1.8 1.4-3.2 3.2-3.2h68.7c1.7 0 3.1 1.4 3.1 3.2v68.7zM25 28.1c0-5.2-4.2-9.3-9.4-9.3s-9.3 4.1-9.3 9.3c0 5.2 4.1 9.4 9.3 9.4s9.4-4.2 9.4-9.4zM12.5 28.1c0-1.7 1.4-3.1 3.1-3.1 1.8 0 3.2 1.4 3.2 3.1s-1.4 3.2-3.2 3.2c-1.7 0-3.1-1.4-3.1-3.2zM96.9 0h-81.3c-1.7 0-3.1 1.4-3.1 3.1s1.4 3.1 3.1 3.1h78.1v78.2c0 1.7 1.5 3.1 3.2 3.1s3.1-1.4 3.1-3.1v-81.3c0-1.7-1.4-3.1-3.1-3.1z"></path>
</svg>
