<?xml version="1.0" encoding="utf-8"?>
<!-- Generated by IcoMoon.io -->
<!DOCTYPE svg PUBLIC "-//W3C//DTD SVG 1.1//EN" "http://www.w3.org/Graphics/SVG/1.1/DTD/svg11.dtd">
<svg version="1.1" xmlns="http://www.w3.org/2000/svg" xmlns:xlink="http://www.w3.org/1999/xlink" width="100" height="100" viewBox="0 0 100 100">
<path d="M100 53.1l-18.8-43.7h-18.7v6.2h13.9l14.5 31.3h-81.8l14.4-31.3h14v-6.2h-18.8l-18.7 43.7h0.4c-0.2 1.1-0.4 2.1-0.4 3.1v12.5c0 12.1 9.8 21.9 21.9 21.9 8.7 0 16.1-5.1 19.7-12.5h16.8c3.6 7.4 11 12.5 19.7 12.5 12.1 0 21.9-9.8 21.9-21.9v-12.5c0-1-0.2-2-0.4-3.1h0.4zM37.5 68.7c0 8.7-7 15.7-15.6 15.7-8.7 0-15.7-7-15.7-15.7v-12.5c0-1.1 0.4-2.1 0.6-3.1h30.2c0.2 1 0.5 2 0.5 3.1v12.5zM56.6 71.9h-13.2c0.2-1.1 0.3-2.1 0.3-3.2v-12.5c0-1-0.2-2-0.3-3.1h13.2c-0.1 1.1-0.4 2.1-0.4 3.1v12.5c0 1.1 0.2 2.1 0.4 3.2zM93.7 68.7c0 8.7-6.9 15.7-15.6 15.7s-15.6-7-15.6-15.7v-12.5c0-1.1 0.3-2.1 0.5-3.1h30.2c0.2 1 0.5 2 0.5 3.1v12.5z"></path>
</svg>
