<?xml version="1.0" encoding="utf-8"?>
<!-- Generated by IcoMoon.io -->
<!DOCTYPE svg PUBLIC "-//W3C//DTD SVG 1.1//EN" "http://www.w3.org/Graphics/SVG/1.1/DTD/svg11.dtd">
<svg version="1.1" xmlns="http://www.w3.org/2000/svg" xmlns:xlink="http://www.w3.org/1999/xlink" width="100" height="100" viewBox="0 0 100 100">
<path d="M96.9 37.5l-15.7 10.4v-10.4c0-3.5-2.7-6.3-6.2-6.3h-8.2l-23.8-23.8c-0.1-0.2-0.3-0.3-0.4-0.4l-0.3-0.3c-0.1-0.1-0.3-0.1-0.4-0.2-0.1 0-0.2 0-0.3-0.1-0.3 0-0.5-0.1-0.8-0.1-0.1 0-0.1-0.1-0.2-0.1h-31.2c-1.8 0-3.2 1.4-3.2 3.2s1.4 3.1 3.2 3.1h31.2l25 25h6.3c1.7 0 3.1 1.4 3.1 3.1v43.8c0 1.7-1.4 3.1-3.1 3.1h-62.5c-1.8 0-3.2-1.4-3.2-3.1v-43.8c0-1.7 1.4-3.1 3.2-3.1h21.8v-6.3h-25c-3.4 0-6.2 2.8-6.2 6.3v50c0 3.4 2.8 6.2 6.2 6.2h68.8c3.5 0 6.2-2.8 6.2-6.2v-10.4l15.7 10.4c1.7 0 3.1-1.4 3.1-3.1v-43.8c0-1.7-1.4-3.1-3.1-3.1zM93.7 77.9l-12.5-8.3v-14.2l12.5-8.3v30.8zM18.7 71.9c0 1.7 1.4 3.1 3.2 3.1h37.5c1.7 0 3.1-1.4 3.1-3.1 0-1.8-1.4-3.2-3.1-3.2h-37.5c-1.8 0-3.2 1.4-3.2 3.2z"></path>
</svg>
