<?xml version="1.0" encoding="utf-8"?>
<!-- Generated by IcoMoon.io -->
<!DOCTYPE svg PUBLIC "-//W3C//DTD SVG 1.1//EN" "http://www.w3.org/Graphics/SVG/1.1/DTD/svg11.dtd">
<svg version="1.1" xmlns="http://www.w3.org/2000/svg" xmlns:xlink="http://www.w3.org/1999/xlink" width="100" height="100" viewBox="0 0 100 100">
<path d="M75 35.4v-4.2c0-6.9-5.6-12.5-12.5-12.5h-50c-6.9 0-12.5 5.6-12.5 12.5v37.5c0 6.9 5.6 12.5 12.5 12.5h50c6.9 0 12.5-5.6 12.5-12.5v-4.1l25 16.6v-62.5l-25 16.7zM93.7 68.7l-25-15.6v15.6c0 3.5-2.7 6.3-6.2 6.3h-50c-3.5 0-6.3-2.8-6.3-6.3v-37.5c0-3.4 2.8-6.2 6.3-6.2h50c3.5 0 6.2 2.8 6.2 6.2v15.7l25-15.7v37.5z"></path>
</svg>
