<?xml version="1.0" encoding="utf-8"?>
<!-- Generated by IcoMoon.io -->
<!DOCTYPE svg PUBLIC "-//W3C//DTD SVG 1.1//EN" "http://www.w3.org/Graphics/SVG/1.1/DTD/svg11.dtd">
<svg version="1.1" xmlns="http://www.w3.org/2000/svg" xmlns:xlink="http://www.w3.org/1999/xlink" width="100" height="100" viewBox="0 0 100 100">
<path d="M93.8 0h-87.5c-3.5 0-6.3 2.8-6.3 6.2v71.5c0 0.1 0 0.3 0 0.5v15.5c0 3.5 2.8 6.3 6.3 6.3h87.5c3.4 0 6.2-2.8 6.2-6.3v-87.5c0-3.4-2.8-6.2-6.2-6.2zM9.4 93.7c-1.7 0-3.1-1.4-3.1-3.1v-10.5l27.4-22.4 31.1 36.1h-55.4zM93.8 90.6c0 1.7-1.4 3.1-3.2 3.1h-16.9l-23.3-26.8 27.4-22.4 15.9 17.1c0 0 0 0 0.1 0v29zM93.8 52.1l-12.8-13.8c-0.7-0.6-1.8-0.8-2.8-0.8-0.9 0-1.9 0.2-2.6 0.8l-29.2 23.9-9.7-11.2c-0.7-0.8-1.7-1.1-2.7-1-0.2 0-0.4 0.1-0.7 0.1-0.1 0.1-0.2 0.1-0.3 0.2-0.5 0.1-1.2 0.2-1.6 0.6l-25.1 20.4v-61.9c0-1.8 1.4-3.2 3.1-3.2h81.2c1.8 0 3.2 1.4 3.2 3.2v42.7zM25 12.5c-6.9 0-12.5 5.6-12.5 12.5s5.6 12.5 12.5 12.5c6.9 0 12.5-5.6 12.5-12.5s-5.6-12.5-12.5-12.5zM25 31.3c-3.4 0-6.2-2.8-6.2-6.3s2.8-6.2 6.2-6.2 6.3 2.7 6.3 6.2c0 3.5-2.8 6.3-6.3 6.3z"></path>
</svg>
