<?xml version="1.0" encoding="utf-8"?>
<!-- Generated by IcoMoon.io -->
<!DOCTYPE svg PUBLIC "-//W3C//DTD SVG 1.1//EN" "http://www.w3.org/Graphics/SVG/1.1/DTD/svg11.dtd">
<svg version="1.1" xmlns="http://www.w3.org/2000/svg" xmlns:xlink="http://www.w3.org/1999/xlink" width="100" height="100" viewBox="0 0 100 100">
<path d="M28.1 37.5c5.2 0 9.4-4.2 9.4-9.4s-4.2-9.3-9.4-9.3-9.4 4.1-9.4 9.3c0 5.2 4.2 9.4 9.4 9.4zM28.1 25c1.7 0 3.1 1.4 3.1 3.1s-1.4 3.2-3.1 3.2c-1.7 0-3.1-1.5-3.1-3.2s1.4-3.1 3.1-3.1zM93.7 0h-87.5c-3.4 0-6.2 2.8-6.2 6.2v87.5c0 3.5 2.8 6.3 6.2 6.3h87.5c3.5 0 6.3-2.8 6.3-6.3v-87.5c0-3.4-2.8-6.2-6.3-6.2zM93.7 90.6c0 1.7-1.4 3.1-3.1 3.1h-81.2c-1.8 0-3.2-1.4-3.2-3.1v-81.2c0-1.8 1.4-3.2 3.2-3.2h81.2c1.7 0 3.1 1.4 3.1 3.2v81.2zM81.9 38.5l-26.1 30.9-18.9-14.3c-0.7-0.7-1.6-1-2.5-0.9-0.9-0.1-1.8 0.2-2.5 0.9l-18.5 26.4c-1.3 1.4-1.3 3.6 0 4.9 1.3 1.4 3.3 1.4 4.6 0l17-24.3 18.8 14.3c0.7 0.7 1.6 1 2.4 1 0.9 0 1.8-0.3 2.4-1l27.9-33c1.3-1.4 1.3-3.6 0-4.9-1.3-1.4-3.3-1.4-4.6 0z"></path>
</svg>
