<?xml version="1.0" encoding="utf-8"?>
<!-- Generated by IcoMoon.io -->
<!DOCTYPE svg PUBLIC "-//W3C//DTD SVG 1.1//EN" "http://www.w3.org/Graphics/SVG/1.1/DTD/svg11.dtd">
<svg version="1.1" xmlns="http://www.w3.org/2000/svg" xmlns:xlink="http://www.w3.org/1999/xlink" width="113" height="100" viewBox="0 0 113 100">
<path d="M53.1 18.7c3.5 0 6.3-2.8 6.3-6.2s-2.8-6.3-6.3-6.3c-3.4 0-6.2 2.8-6.2 6.3s2.8 6.2 6.2 6.2zM71.9 12.5c3.4 0 6.2-2.8 6.2-6.3 0-3.4-2.8-6.2-6.2-6.2-3.5 0-6.3 2.8-6.3 6.2 0 3.5 2.8 6.3 6.3 6.3zM89.3 93.8c-6.3-12.1-17.4-37.6-17.4-37.6h-31.2c0 0-10.9 26.4-17 38.2-2.9 5.6-2.9 5.6 4 5.6 15.1 0 44.5 0 58.8 0 2.7 0 6 0 2.8-6.2zM44.8 62.5h23c0.8 1.7 1.7 3.8 2.8 6.2h-28.4c1-2.4 1.9-4.5 2.6-6.2zM31 93.7c2.7-5.4 5.8-12.4 8.5-18.7h33.9c2.9 6.3 6.1 13.3 8.8 18.7h-51.2zM37.5 31.2h3.1v25h31.3v-25h3.1c1.7 0 3.1-1.4 3.1-3.1s-1.4-3.1-3.1-3.1h-37.5c-1.7 0-3.1 1.4-3.1 3.1s1.4 3.1 3.1 3.1zM46.9 31.2h18.7v25h-18.7v-25z"></path>
</svg>
