<?xml version="1.0" encoding="utf-8"?>
<!-- Generated by IcoMoon.io -->
<!DOCTYPE svg PUBLIC "-//W3C//DTD SVG 1.1//EN" "http://www.w3.org/Graphics/SVG/1.1/DTD/svg11.dtd">
<svg version="1.1" xmlns="http://www.w3.org/2000/svg" xmlns:xlink="http://www.w3.org/1999/xlink" width="113" height="100" viewBox="0 0 113 100">
<path d="M81.2 4.7c-9.3 0-21.8 9.4-25 12.5-3.1-3.1-15.6-12.5-25-12.5-17.2 0-25 14-25 31.3 0 18.7 50 59.3 50 59.3s50-40.6 50-59.3c0-17.3-7.7-31.3-25-31.3zM34.4 43.7h13.9l7.7 14.2c0.6 0.9 1.8 1.4 2.9 1.4 0.1 0 0.1 0 0.2 0.1 0.2-0.1 0.4-0.1 0.5-0.1 0.8-0.1 1.5-0.4 2.1-1 0-0.1 0.1-0.1 0.2-0.2 0-0.1 0.1-0.1 0.2-0.2l10.6-21.5 5.8 5.6c0.4 0.9 1.2 1.5 2.2 1.6 0.1 0.1 0.3 0.1 0.4 0.1 0 0 0.1 0 0.1 0h16c-6.9 12.1-25.5 30.5-41 43.5-19.3-16.3-43.7-41.1-43.7-51.2 0-7.6 1.8-25 18.7-25 6.7 0 17.4 7.4 20.6 10.6l4.4 4.5 4.5-4.5c3.2-3.2 13.9-10.6 20.5-10.6 17 0 18.8 17.4 18.8 25 0 0.4-0.1 1-0.2 1.5h-17.4l-8.4-8.3c-0.2-0.2-0.3-0.5-0.6-0.7-0.7-0.4-1.6-0.5-2.4-0.3-0.2 0.1-0.5 0.2-0.7 0.4-0.1 0-0.2 0.1-0.3 0.1-0.2 0.2-0.3 0.3-0.4 0.5-0.1 0.1-0.3 0.2-0.4 0.4l-10 20.1-5.9-10.7c-0.7-1.1-2-1.6-3.3-1.5 0 0 0 0 0 0v0c-0.1 0-0.1 0-0.1 0h-15.5c-1.8 0-3.2 1.4-3.2 3.1s1.4 3.1 3.2 3.1z"></path>
</svg>
