<?xml version="1.0" encoding="utf-8"?>
<!-- Generated by IcoMoon.io -->
<!DOCTYPE svg PUBLIC "-//W3C//DTD SVG 1.1//EN" "http://www.w3.org/Graphics/SVG/1.1/DTD/svg11.dtd">
<svg version="1.1" xmlns="http://www.w3.org/2000/svg" xmlns:xlink="http://www.w3.org/1999/xlink" width="100" height="100" viewBox="0 0 100 100">
<path d="M90.6 0h-81.2c-3.5 0-6.3 2.8-6.3 6.2v87.5c0 3.5 2.8 6.3 6.3 6.3h81.2c3.5 0 6.3-2.8 6.3-6.3v-87.5c0-3.4-2.8-6.2-6.3-6.2zM90.6 90.6c0 1.7-1.4 3.1-3.1 3.1h-75c-1.7 0-3.1-1.4-3.1-3.1v-81.2c0-1.8 1.4-3.2 3.1-3.2h75c1.7 0 3.1 1.4 3.1 3.2v81.2zM78.1 12.5h-56.2c-3.5 0-6.3 2.8-6.3 6.2v56.3c0 3.4 2.8 6.2 6.3 6.2h56.2c3.5 0 6.3-2.8 6.3-6.2v-56.3c0-3.4-2.8-6.2-6.3-6.2zM78.1 71.9c0 1.7-1.4 3.1-3.1 3.1h-50c-1.7 0-3.1-1.4-3.1-3.1v-0.1c0.8 0 1.7-0.3 2.4-0.9l13.2-15.9 10.3 12.8c1.2 1.3 3.2 1.3 4.4 0 0 0 0 0 0 0 0.1 0 0.1 0 0.2-0.1l13.5-21.8 9.5 12c0.6 0.9 1.6 1.3 2.7 1.3v12.7zM78.1 51.4l-9.8-12.4c-0.1-0.2-0.3-0.2-0.5-0.4 0 0 0-0.1-0.1-0.2s-0.3-0.1-0.5-0.2c-0.4-0.3-0.8-0.5-1.3-0.6-0.5 0-0.9 0.1-1.4 0.2-0.2 0.1-0.3 0-0.4 0.1-0.1 0-0.2 0.1-0.3 0.2-0.2 0.1-0.5 0.1-0.7 0.3l-13.5 21.7-9.9-12.3c-0.6-0.7-1.4-0.9-2.3-0.9-0.8-0.1-1.7 0.2-2.4 0.9l-13.1 15.8v-41.7c0-1.8 1.4-3.2 3.1-3.2h50c1.7 0 3.1 1.4 3.1 3.2v29.5z"></path>
</svg>
