<?xml version="1.0" encoding="utf-8"?>
<!-- Generated by IcoMoon.io -->
<!DOCTYPE svg PUBLIC "-//W3C//DTD SVG 1.1//EN" "http://www.w3.org/Graphics/SVG/1.1/DTD/svg11.dtd">
<svg version="1.1" xmlns="http://www.w3.org/2000/svg" xmlns:xlink="http://www.w3.org/1999/xlink" width="100" height="100" viewBox="0 0 100 100">
<path d="M34.4 50c3.4 0 6.2-2.8 6.2-6.3 0-3.4-2.8-6.2-6.2-6.2-3.5 0-6.3 2.8-6.3 6.2 0 3.5 2.8 6.3 6.3 6.3zM50 0c-27.6 0-50 22.4-50 50s22.4 50 50 50 50-22.4 50-50-22.4-50-50-50zM50 93.7c-24.2 0-43.8-19.6-43.8-43.7 0-24.2 19.6-43.8 43.8-43.8s43.7 19.6 43.7 43.8c0 24.1-19.5 43.7-43.7 43.7zM65.6 50c3.5 0 6.3-2.8 6.3-6.3 0-3.4-2.8-6.2-6.3-6.2s-6.2 2.8-6.2 6.2c0 3.5 2.8 6.3 6.2 6.3zM74.9 68.7c-5.7 7.6-14.7 12.5-24.9 12.5s-19.3-4.9-25-12.5h-7.4c6.4 11.2 18.5 18.8 32.4 18.8s26-7.6 32.4-18.8h-7.5z"></path>
</svg>
