<?xml version="1.0" encoding="utf-8"?>
<!-- Generated by IcoMoon.io -->
<!DOCTYPE svg PUBLIC "-//W3C//DTD SVG 1.1//EN" "http://www.w3.org/Graphics/SVG/1.1/DTD/svg11.dtd">
<svg version="1.1" xmlns="http://www.w3.org/2000/svg" xmlns:xlink="http://www.w3.org/1999/xlink" width="100" height="100" viewBox="0 0 100 100">
<path d="M50 56.2h6.2v-6.2h-6.2v6.2zM56.2 37.5h-6.2c-6.9 0-12.5 5.6-12.5 12.5v50h31.2v-50c0-6.9-5.5-12.5-12.5-12.5zM62.5 87.5v6.2h-18.8v-43.7c0-3.5 2.8-6.3 6.3-6.3h6.2c3.5 0 6.3 2.8 6.3 6.3v37.5zM81.2 50v16.4c3.9-5.6 6.3-12.2 6.3-19.5 0-19-15.4-34.4-34.4-34.4s-34.4 15.4-34.4 34.4c0 7.3 2.4 13.9 6.3 19.5v-16.4h0.4c-0.1-1.1-0.4-2.1-0.4-3.1 0-15.6 12.6-28.2 28.1-28.2 15.6 0 28.2 12.6 28.2 28.2 0 1-0.3 2-0.4 3.1h0.3zM53.1 0c-25.9 0-46.9 21-46.9 46.9 0 15.3 7.4 28.8 18.8 37.4v-8.3c-7.7-7.4-12.5-17.6-12.5-29.1 0-22.5 18.2-40.7 40.6-40.7 22.5 0 40.6 18.2 40.6 40.7 0 11.5-4.8 21.7-12.5 29.1v8.3c11.4-8.6 18.8-22.1 18.8-37.4 0-25.9-21-46.9-46.9-46.9z"></path>
</svg>
