<?xml version="1.0" encoding="utf-8"?>
<!-- Generated by IcoMoon.io -->
<!DOCTYPE svg PUBLIC "-//W3C//DTD SVG 1.1//EN" "http://www.w3.org/Graphics/SVG/1.1/DTD/svg11.dtd">
<svg version="1.1" xmlns="http://www.w3.org/2000/svg" xmlns:xlink="http://www.w3.org/1999/xlink" width="100" height="100" viewBox="0 0 100 100">
<path d="M100 9.2c0 0-0.1 0-0.1-0.1 0-0.6-0.3-1.3-0.7-1.8-0.1 0-0.1-0.2-0.1-0.2-0.2-0.2-0.3-0.1-0.5-0.2-0.5-0.4-1.1-0.7-1.8-0.7h-25.8c-1.8 0-3.3 1.4-3.3 3.2 0 1.7 1.5 3.1 3.3 3.1h18l-29.1 28.2c-6.4-5.8-15-9.5-24.4-9.5-19.6 0-35.5 15.4-35.5 34.4s15.9 34.4 35.5 34.4 35.5-15.4 35.5-34.4c0-7.6-2.7-14.6-7-20.3l29.5-28.6v17.7c0 1.7 1.5 3.1 3.3 3.1s3.2-1.4 3.2-3.1v-25c0-0.1 0-0.1 0-0.2zM64.5 65.6c0 15.5-13 28.1-29 28.1s-29.1-12.6-29.1-28.1c0-15.5 13-28.1 29.1-28.1s29 12.6 29 28.1z"></path>
</svg>
