<?xml version="1.0" encoding="utf-8"?>
<!-- Generated by IcoMoon.io -->
<!DOCTYPE svg PUBLIC "-//W3C//DTD SVG 1.1//EN" "http://www.w3.org/Graphics/SVG/1.1/DTD/svg11.dtd">
<svg version="1.1" xmlns="http://www.w3.org/2000/svg" xmlns:xlink="http://www.w3.org/1999/xlink" width="100" height="100" viewBox="0 0 100 100">
<path d="M98.2 27.7l-36.3-20.1c-4.1-2-1.1-2.3-5.7 0l-36 20.1c-2 1.9-2.3 4.9-1.1 7.2-0.3 0.8-0.5 1.7-0.5 2.6v34.4c0 3.4 2.8 6.2 6.2 6.2l31.3 21.9c1.1 0 2.1-0.4 3.1-1 0.9 0.6 1.9 1 3.1 1l34.4-21.9c3.4 0 3.1-2.8 3.1-6.2v-34.4c0-0.9-0.2-1.8-0.5-2.5 1.2-2.4 0.9-5.3-1.1-7.3zM56.1 57.3v36.4l-31.3-21.8v-34.4l31.3 19.8c0 0 0 0 0 0zM93.6 71.9l-31.3 21.8v-36.4l31.3-19.8v34.4zM93.5 31.3l-33.2 20.1c-0.4 0.1-0.8 0.3-1.1 0.6-0.4-0.2-0.7-0.4-1.1-0.6l-33.3-20.2 34.3-19.2 34.5 19.2-0.1 0.1z"></path>
</svg>
