<?xml version="1.0" encoding="utf-8"?>
<!-- Generated by IcoMoon.io -->
<!DOCTYPE svg PUBLIC "-//W3C//DTD SVG 1.1//EN" "http://www.w3.org/Graphics/SVG/1.1/DTD/svg11.dtd">
<svg version="1.1" xmlns="http://www.w3.org/2000/svg" xmlns:xlink="http://www.w3.org/1999/xlink" width="100" height="100" viewBox="0 0 100 100">
<path d="M97.8 44.7l-10.3-10.4c6.9-2.2 11.9-8.7 11.9-16.3 0-9.5-7.7-17.2-17.2-17.2-7.6 0-14.1 5-16.3 11.9l-10.7-10.6c-2.7-2.8-7.6-2.8-10.4 0l-14.6 14.5c-0.9 1-1.2 2.5-0.5 3.7 0.6 1.2 1.9 1.9 3.3 1.6 0.9-0.1 1.6-0.2 2.2-0.2 6.8 0 11.8 5.6 11.8 12.4s-5 12.5-11.8 12.5c-6.8 0-12.4-5.7-12.4-12.5 0-0.6 0.1-1.4 0.3-2.3 0.2-1.3-0.5-2.6-1.7-3.3-1.2-0.6-2.7-0.4-3.6 0.6l-15.6 15.6c-2.9 2.9-2.9 7.6 0 10.5l42.6 42.6c1.4 1.4 3.2 2.2 5.2 2.2s3.9-0.8 5.3-2.2l42.5-42.6c2.9-2.9 2.9-7.6 0-10.5zM93.4 50.8l-42.6 42.6c-0.6 0.6-1 0.6-1.6 0l-42.6-42.6c-0.5-0.5-0.5-1.2 0-1.7l10.5-10.5c2 8.1 9.4 14.3 18.1 14.3 10.3 0 18.1-8.5 18.1-18.8 0-8.7-5.5-16.1-13.6-18.1l9.5-9.5c0.6-0.6 1-0.6 1.6 0l15.4 15.3c0.9 1 2.3 1.2 3.5 0.6 1.2-0.5 1.9-1.8 1.8-3.1l-0.1-0.6c0-0.2-0.1-0.5-0.1-0.7 0-6 4.9-11 10.9-11s11 5 11 11c0 6-4.9 10.9-11 10.9-0.2 0-0.5 0-0.8-0.1h-0.4c-1.4-0.2-2.6 0.5-3.2 1.7s-0.3 2.6 0.6 3.6l15 15c0.5 0.5 0.5 1.2 0 1.7z"></path>
</svg>
