<?xml version="1.0" encoding="utf-8"?>
<!-- Generated by IcoMoon.io -->
<!DOCTYPE svg PUBLIC "-//W3C//DTD SVG 1.1//EN" "http://www.w3.org/Graphics/SVG/1.1/DTD/svg11.dtd">
<svg version="1.1" xmlns="http://www.w3.org/2000/svg" xmlns:xlink="http://www.w3.org/1999/xlink" width="100" height="100" viewBox="0 0 100 100">
<path d="M27.3 49.9l4.6 4.5c5.4-2.8 11.5-4.4 18.1-4.4s12.8 1.6 18.2 4.5l4.6-4.5c-6.6-3.9-14.4-6.2-22.8-6.2-8.3 0-16.1 2.2-22.7 6.1zM93.7 0h-87.5c-3.4 0-6.2 2.8-6.2 6.2v87.5c0 3.5 2.8 6.3 6.2 6.3h87.5c3.5 0 6.3-2.8 6.3-6.3v-87.5c0-3.4-2.8-6.2-6.3-6.2zM93.7 90.6c0 1.7-1.4 3.1-3.1 3.1h-81.2c-1.8 0-3.2-1.4-3.2-3.1v-81.2c0-1.8 1.4-3.2 3.2-3.2h81.2c1.7 0 3.1 1.4 3.1 3.2v81.2zM41.7 63.8l8.3 8.1 8.4-8.1c-2.6-0.8-5.4-1.3-8.4-1.3-2.9 0-5.7 0.4-8.3 1.3zM13.5 36.5l4.6 4.5c9.1-6.1 20-9.7 31.9-9.7 12 0 23 3.6 32.2 9.8l4.5-4.4c-10.3-7.3-22.9-11.7-36.7-11.7-13.6 0-26.2 4.3-36.5 11.5z"></path>
</svg>
