<?xml version="1.0" encoding="utf-8"?>
<!-- Generated by IcoMoon.io -->
<!DOCTYPE svg PUBLIC "-//W3C//DTD SVG 1.1//EN" "http://www.w3.org/Graphics/SVG/1.1/DTD/svg11.dtd">
<svg version="1.1" xmlns="http://www.w3.org/2000/svg" xmlns:xlink="http://www.w3.org/1999/xlink" width="100" height="100" viewBox="0 0 100 100">
<path d="M93.7 56.2l-25-7.1v-24.1c0-6.9-5.6-12.5-12.5-12.5s-12.5 5.6-12.5 12.5v38.1l-3.1-3.2c-5-5-13.1-5-18.1 0s-5.1 13.2 0 18.2l18.1 18.1c2.5 2.5 5.8 3.8 9.1 3.7 0.1 0 0.2 0.1 0.3 0.1h43.7c3.5 0 6.3-2.8 6.3-6.3v-31.2c0-3.5-2.8-6.3-6.3-6.3zM93.7 90.6c0 1.7-1.4 3.1-3.1 3.1h-40.6v-0.5c-1.8 0.2-3.5-0.2-4.9-1.5l-18.1-18.2c-2.5-2.5-2.5-6.5 0-9s6.5-2.5 9 0l14 13.9v-53.4c0-3.5 2.8-6.3 6.2-6.3 3.5 0 6.3 2.8 6.3 6.3v28.1l28.1 9.4c1.7 0 3.1 1.4 3.1 3.1v25z"></path>
</svg>
