<?xml version="1.0" encoding="utf-8"?>
<!-- Generated by IcoMoon.io -->
<!DOCTYPE svg PUBLIC "-//W3C//DTD SVG 1.1//EN" "http://www.w3.org/Graphics/SVG/1.1/DTD/svg11.dtd">
<svg version="1.1" xmlns="http://www.w3.org/2000/svg" xmlns:xlink="http://www.w3.org/1999/xlink" width="100" height="100" viewBox="0 0 100 100">
<path d="M78.1 24.8h12.5c1.7 0 3.1-1.4 3.1-3.1s-1.4-3.1-3.1-3.1h-12.5c-1.7 0-3.1 1.4-3.1 3.1s1.4 3.1 3.1 3.1zM93.7 56.1l-25-7.1v-24.2c0-6.9-5.6-12.5-12.5-12.5s-12.5 5.6-12.5 12.5v38.2l-3.1-3.1c-5-5.1-13.2-5.1-18.2 0-5 5-5 13.1 0 18.1l18.2 18.2c2.5 2.5 5.8 3.8 9.1 3.7 0.1 0 0.2 0.1 0.3 0.1h43.7c3.5 0 6.3-2.8 6.3-6.3v-31.3c0-3.4-2.8-6.3-6.3-6.3zM93.7 90.6c0 1.7-1.4 3.1-3.1 3.1h-3.1v0.1h-37.5v-0.6c-1.8 0.2-3.5-0.2-4.9-1.6l-18.1-18.1c-2.5-2.5-2.5-6.6 0-9.1s6.5-2.5 9 0l14 14v-53.6c0-3.4 2.8-6.2 6.3-6.2s6.2 2.8 6.2 6.2v28.2l28.1 9.4c1.7 0 3.2 1.4 3.2 3.1v25.1zM17.9 32.2l-7.4-7.4h23.9c1.7 0 3.1-1.4 3.1-3.1s-1.4-3.1-3.1-3.1h-23.9l7.4-7.4c1.1-1.2 1.1-3.1 0-4.3-1.2-1.1-3.1-1.1-4.3 0l-12.3 12.4c-0.1 0.1-0.2 0-0.3 0.1 0 0-0.1 0-0.1 0.1-0.1 0 0 0.1-0.1 0.1-0.4 0.5-0.7 1.2-0.8 1.9 0 0.1 0 0.1 0 0.1s0 0.1 0 0.1c0 0 0 0.1 0 0.1 0 0.1 0.1 0.1 0.1 0.2 0 0.6 0.3 1.1 0.6 1.5 0.1 0.1 0.1 0.3 0.2 0.4 0.1 0.2 0.3 0.1 0.4 0.2 0 0.1 0.1 0.1 0.1 0.2l12.2 12.2c1.2 1.1 3.1 1.1 4.3 0 1.1-1.2 1.1-3.1 0-4.3z"></path>
</svg>
