<?xml version="1.0" encoding="utf-8"?>
<!-- Generated by IcoMoon.io -->
<!DOCTYPE svg PUBLIC "-//W3C//DTD SVG 1.1//EN" "http://www.w3.org/Graphics/SVG/1.1/DTD/svg11.dtd">
<svg version="1.1" xmlns="http://www.w3.org/2000/svg" xmlns:xlink="http://www.w3.org/1999/xlink" width="100" height="100" viewBox="0 0 100 100">
<path d="M100 34.4c0-19-15.4-34.4-34.4-34.4s-34.4 15.4-34.4 34.4c0 17.9 13.8 32.4 31.3 34v12.8h-12.5c-1.7 0-3.1 1.4-3.1 3.2s1.4 3.1 3.1 3.1h12.5v9.4c0 1.7 1.4 3.1 3.1 3.1s3.1-1.4 3.1-3.1v-9.4h12.5c1.8 0 3.2-1.4 3.2-3.1s-1.4-3.2-3.2-3.2h-12.5v-12.8c17.5-1.6 31.3-16.1 31.3-34zM65.6 62.5c-15.5 0-28.1-12.6-28.1-28.1s12.6-28.2 28.1-28.2 28.1 12.6 28.1 28.2-12.6 28.1-28.1 28.1z"></path>
</svg>
