<?xml version="1.0" encoding="utf-8"?>
<!-- Generated by IcoMoon.io -->
<!DOCTYPE svg PUBLIC "-//W3C//DTD SVG 1.1//EN" "http://www.w3.org/Graphics/SVG/1.1/DTD/svg11.dtd">
<svg version="1.1" xmlns="http://www.w3.org/2000/svg" xmlns:xlink="http://www.w3.org/1999/xlink" width="100" height="100" viewBox="0 0 100 100">
<path d="M75 6.7v-0.5c0-3.4-2.8-6.2-6.3-6.2h-62.5c-3.4 0-6.2 2.8-6.2 6.2v87.5c0 3.5 2.8 6.3 6.2 6.3h62.5c3.5 0 6.3-2.8 6.3-6.3v-0.4c14.9-8.7 25-24.8 25-43.3s-10.1-34.6-25-43.3zM68.7 90.6c0 1.7-1.4 3.1-3.1 3.1h-56.2c-1.8 0-3.2-1.4-3.2-3.1v-81.2c0-1.8 1.4-3.2 3.2-3.2h56.2c1.7 0 3.1 1.4 3.1 3.2v25c-10.3 0-18.7 8.4-18.7 18.7 0 10.4 8.4 18.8 18.7 18.8v18.7zM75 85.8v-20.2h-6.3c-6.9 0-12.5-5.6-12.5-12.5s5.6-12.5 12.5-12.5h6.3v-26.4c11.3 7.9 18.7 20.9 18.7 35.8s-7.4 27.9-18.7 35.8z"></path>
</svg>
