<?xml version="1.0" encoding="utf-8"?>
<!-- Generated by IcoMoon.io -->
<!DOCTYPE svg PUBLIC "-//W3C//DTD SVG 1.1//EN" "http://www.w3.org/Graphics/SVG/1.1/DTD/svg11.dtd">
<svg version="1.1" xmlns="http://www.w3.org/2000/svg" xmlns:xlink="http://www.w3.org/1999/xlink" width="100" height="100" viewBox="0 0 100 100">
<path d="M6.2 50c0-10.4 8.4-18.8 18.8-18.8h25v-6.2l-15.6-18.8-3.2 6.3 10.5 12.5h-16.7c-13.8 0-25 11.2-25 25s11.2 25 25 25h6.2v-6.3h-6.2c-10.4 0-18.8-8.4-18.8-18.7zM68.1 21.2c1-1 1.3-1.8 1.3-1.8h0.1c0 0 0 1.1 0 2.1v17.4h-6.5v4.9h18.3v-4.9h-6.5v-26.4h-4.8l-7.5 7.5 3.2 3.5 2.4-2.3zM93.1 32.8c-0.6 2.3-1.6 4.4-2.9 6.3 2.2 3 3.5 6.8 3.5 10.9 0 10.3-8.4 18.7-18.7 18.7h-31.3v6.3l15.7 18.7 3.1-6.2-10.4-12.5h22.9c13.8 0 25-11.2 25-25 0-6.7-2.7-12.7-6.9-17.2z"></path>
</svg>
