<?xml version="1.0" encoding="utf-8"?>
<!-- Generated by IcoMoon.io -->
<!DOCTYPE svg PUBLIC "-//W3C//DTD SVG 1.1//EN" "http://www.w3.org/Graphics/SVG/1.1/DTD/svg11.dtd">
<svg version="1.1" xmlns="http://www.w3.org/2000/svg" xmlns:xlink="http://www.w3.org/1999/xlink" width="100" height="100" viewBox="0 0 100 100">
<path d="M100 3.1l-62.5 12.5v46.1c-6.1-3.6-15.5-3.1-24 1.8-11.1 6.5-16.4 18.3-11.8 26.4s17.3 9.3 28.5 2.8c8.8-5.1 13.9-13.5 13.4-20.8h0.1v-32l50-10.6v19.9c-6-3.6-15.4-3.2-23.9 1.8-11.2 6.5-16.5 18.3-11.9 26.4s17.4 9.3 28.6 2.8c8.8-5.1 13.8-13.6 13.4-20.8h0.1v-56.3zM27 87.1c-8.2 4.8-17.1 4.7-19.9-0.3s1.5-12.9 9.6-17.7c8.2-4.8 17.1-4.6 19.9 0.3 2.9 5-1.5 12.9-9.6 17.7zM83.2 74.6c-8.1 4.8-17 4.7-19.9-0.3-2.8-5 1.5-12.9 9.7-17.7s17.1-4.6 19.9 0.3c2.8 5-1.5 12.9-9.7 17.7zM93.7 22.8l-50 10.3v-11.9l50-10.6v12.2z"></path>
</svg>
