<?xml version="1.0" encoding="utf-8"?>
<!-- Generated by IcoMoon.io -->
<!DOCTYPE svg PUBLIC "-//W3C//DTD SVG 1.1//EN" "http://www.w3.org/Graphics/SVG/1.1/DTD/svg11.dtd">
<svg version="1.1" xmlns="http://www.w3.org/2000/svg" xmlns:xlink="http://www.w3.org/1999/xlink" width="100" height="100" viewBox="0 0 100 100">
<path d="M49.1 47.8c0 0 0 0 0 0-0.1-0.1 0-0.1-0.1-0.2l-31-27.9c-1.3-1.3-3.3-1.3-4.6 0-1.2 1.2-1.2 3.3 0 4.5l28.7 25.8-28.6 25.8c-1.2 1.2-1.2 3.3 0 4.5 1.3 1.3 3.3 1.3 4.6 0l31-28c1.3-1.2 1.3-3.2 0-4.5zM86.6 47.8c0 0 0 0-0.1 0 0-0.1 0-0.1 0-0.2l-37.3-34.2c-1.3-1.2-3.3-1.2-4.6 0-1.2 1.3-1.2 3.3 0 4.6l35 32-34.9 32c-1.2 1.3-1.2 3.3 0 4.6 1.3 1.2 3.3 1.2 4.6 0l37.3-34.3c1.2-1.2 1.2-3.2 0-4.5z"></path>
</svg>
