<?xml version="1.0" encoding="utf-8"?>
<!-- Generated by IcoMoon.io -->
<!DOCTYPE svg PUBLIC "-//W3C//DTD SVG 1.1//EN" "http://www.w3.org/Graphics/SVG/1.1/DTD/svg11.dtd">
<svg version="1.1" xmlns="http://www.w3.org/2000/svg" xmlns:xlink="http://www.w3.org/1999/xlink" width="100" height="100" viewBox="0 0 100 100">
<path d="M17.3 50l28.7-25.8c1.3-1.2 1.3-3.3 0-4.5s-3.3-1.3-4.6 0l-31 27.9c0 0.1 0 0.1-0.1 0.2 0 0 0 0 0 0-1.3 1.3-1.3 3.3 0 4.6l31 27.9c1.3 1.3 3.3 1.3 4.6 0 1.3-1.2 1.3-3.3 0-4.5l-28.6-25.8zM54.8 50l34.9-32c1.3-1.3 1.3-3.3 0-4.6-1.3-1.2-3.3-1.2-4.6 0l-37.3 34.2c0 0.1 0 0.1 0 0.2 0 0 0 0-0.1 0-1.2 1.3-1.2 3.3 0 4.6l37.3 34.2c1.3 1.2 3.3 1.2 4.6 0 1.2-1.3 1.2-3.3 0-4.6l-34.8-32z"></path>
</svg>
