<?xml version="1.0" encoding="utf-8"?>
<!-- Generated by IcoMoon.io -->
<!DOCTYPE svg PUBLIC "-//W3C//DTD SVG 1.1//EN" "http://www.w3.org/Graphics/SVG/1.1/DTD/svg11.dtd">
<svg version="1.1" xmlns="http://www.w3.org/2000/svg" xmlns:xlink="http://www.w3.org/1999/xlink" width="100" height="100" viewBox="0 0 100 100">
<path d="M50 0c-27.6 0-50 22.4-50 50s22.4 50 50 50c27.6 0 50-22.4 50-50s-22.4-50-50-50zM17 21.5l17.7 17.7c-1.1 1.7-2 3.5-2.6 5.5l-24.5-5c1.7-6.9 5-13 9.4-18.2zM50 93.7c-24.2 0-43.8-19.5-43.8-43.7 0-1.4 0.3-2.7 0.4-4l24.7 5c0.6 9.9 8.7 17.7 18.7 17.7 3.3 0 6.4-0.9 9.1-2.4l18.2 17.7c-7.5 6.1-16.9 9.7-27.3 9.7zM37.5 50c0-6.9 5.6-12.5 12.5-12.5s12.5 5.6 12.5 12.5-5.6 12.5-12.5 12.5c-6.9 0-12.5-5.6-12.5-12.5zM82 79.6l-17.9-17.4c1.6-1.9 2.9-4 3.6-6.4l24.6 4.9c-1.8 7.1-5.4 13.6-10.3 18.9zM68.7 49.5c-0.3-10.1-8.5-18.3-18.7-18.3-4 0-7.7 1.3-10.7 3.5l-17.8-17.7c7.7-6.6 17.6-10.8 28.5-10.8 24.2 0 43.7 19.6 43.7 43.8 0 1.5-0.2 2.9-0.4 4.4l-24.6-4.9z"></path>
</svg>
