<?xml version="1.0" encoding="utf-8"?>
<!-- Generated by IcoMoon.io -->
<!DOCTYPE svg PUBLIC "-//W3C//DTD SVG 1.1//EN" "http://www.w3.org/Graphics/SVG/1.1/DTD/svg11.dtd">
<svg version="1.1" xmlns="http://www.w3.org/2000/svg" xmlns:xlink="http://www.w3.org/1999/xlink" width="100" height="100" viewBox="0 0 100 100">
<path d="M50 84.4c-15.7 0-28.8-10.6-32.9-25h7.9l-12.5-18.8-12.5 18.8h10.6c4.2 17.9 20.2 31.2 39.4 31.2 14.4 0 26.9-7.5 34.1-18.7h-7.8c-6.3 7.5-15.7 12.5-26.3 12.5zM89.4 40.6c-4.2-17.9-20.2-31.2-39.4-31.2-14.4 0-26.9 7.5-34.1 18.7h7.8c6.3-7.6 15.7-12.5 26.3-12.5 15.7 0 28.8 10.6 32.9 25h-7.9l12.5 18.8 12.5-18.8h-10.6z"></path>
</svg>
