<?xml version="1.0" encoding="utf-8"?>
<!-- Generated by IcoMoon.io -->
<!DOCTYPE svg PUBLIC "-//W3C//DTD SVG 1.1//EN" "http://www.w3.org/Graphics/SVG/1.1/DTD/svg11.dtd">
<svg version="1.1" xmlns="http://www.w3.org/2000/svg" xmlns:xlink="http://www.w3.org/1999/xlink" width="100" height="100" viewBox="0 0 100 100">
<path d="M50 0c-19 0-34.4 15.4-34.4 34.4 0 12.7 7 23.7 17.3 29.6l4.6 29.7c0 3.5 2.8 6.3 6.2 6.3h12.5c3.5 0 6.3-2.8 6.3-6.3l4.6-29.7c10.3-5.9 17.3-16.9 17.3-29.6 0-19-15.4-34.4-34.4-34.4zM50 6.2c12.2 0 22.5 7.9 26.4 18.8h-52.8c3.9-10.9 14.2-18.8 26.4-18.8zM56.2 90.6c0 1.7-1.4 3.1-3.1 3.1h-6.2c-1.8 0-3.2-1.4-3.2-3.1l-4.3-23.7c3.4 1.1 6.9 1.8 10.6 1.8s7.2-0.7 10.6-1.8l-4.4 23.7zM50 62.5c-12.2 0-22.5-7.9-26.4-18.8h52.8c-3.9 10.9-14.2 18.8-26.4 18.8zM22.2 37.5c-0.1-1.1-0.3-2.1-0.3-3.1 0-1.1 0.2-2.1 0.3-3.2h55.6c0.1 1.1 0.3 2.1 0.3 3.2 0 1-0.2 2-0.3 3.1h-55.6z"></path>
</svg>
