<?xml version="1.0" encoding="utf-8"?>
<!-- Generated by IcoMoon.io -->
<!DOCTYPE svg PUBLIC "-//W3C//DTD SVG 1.1//EN" "http://www.w3.org/Graphics/SVG/1.1/DTD/svg11.dtd">
<svg version="1.1" xmlns="http://www.w3.org/2000/svg" xmlns:xlink="http://www.w3.org/1999/xlink" width="100" height="100" viewBox="0 0 100 100">
<path d="M34.4 6.2h-6.3c-5.2 0-9.4 4.2-9.4 9.4v68.8c0 5.1 4.2 9.3 9.4 9.3h6.3c5.1 0 9.3-4.2 9.3-9.3v-68.8c0-5.2-4.2-9.4-9.3-9.4zM37.5 84.4c0 1.7-1.4 3.1-3.1 3.1h-6.3c-1.7 0-3.1-1.4-3.1-3.1v-68.8c0-1.7 1.4-3.1 3.1-3.1h6.3c1.7 0 3.1 1.4 3.1 3.1v68.8zM71.9 6.2h-6.3c-5.2 0-9.4 4.2-9.4 9.4v68.8c0 5.1 4.2 9.3 9.4 9.3h6.3c5.1 0 9.3-4.2 9.3-9.3v-68.8c0-5.2-4.2-9.4-9.3-9.4zM75 84.4c0 1.7-1.4 3.1-3.1 3.1h-6.3c-1.7 0-3.1-1.4-3.1-3.1v-68.8c0-1.7 1.4-3.1 3.1-3.1h6.3c1.7 0 3.1 1.4 3.1 3.1v68.8z"></path>
</svg>
