<?xml version="1.0" encoding="utf-8"?>
<!-- Generated by IcoMoon.io -->
<!DOCTYPE svg PUBLIC "-//W3C//DTD SVG 1.1//EN" "http://www.w3.org/Graphics/SVG/1.1/DTD/svg11.dtd">
<svg version="1.1" xmlns="http://www.w3.org/2000/svg" xmlns:xlink="http://www.w3.org/1999/xlink" width="100" height="100" viewBox="0 0 100 100">
<path d="M76.5 19c-3.8-11-14.2-19-26.5-19s-22.7 8-26.5 19c-2.7 0.7-4.8 3.1-4.8 6v6.2c0 3 2.1 5.4 4.9 6 1.7 4.8 4.5 9.1 8.4 12.3l5.5 44.2c0 3.5 2.8 6.3 6.2 6.3h12.5c3.5 0 6.3-2.8 6.3-6.3l5.5-44.2c3.9-3.2 6.7-7.5 8.4-12.3 2.8-0.6 4.8-3 4.8-6v-6.2c0-2.9-2-5.3-4.7-6zM50 6.2c8.7 0 16.2 5.2 19.7 12.5h-39.4c3.5-7.3 11-12.5 19.7-12.5zM56.2 90.6c0 1.7-1.4 3.1-3.1 3.1h-6.2c-1.8 0-3.2-1.4-3.2-3.1l-5.7-37.1c3.7 1.7 7.7 2.7 12 2.7s8.3-1 12-2.7l-5.8 37.1zM50 50c-8.7 0-16.2-5.1-19.7-12.5h39.4c-3.5 7.4-11 12.5-19.7 12.5zM71.9 31.2h-43.8c-1.7 0-3.1-1.4-3.1-3.1s1.4-3.1 3.1-3.1h43.8c1.7 0 3.1 1.4 3.1 3.1s-1.4 3.1-3.1 3.1z"></path>
</svg>
