<?xml version="1.0" encoding="utf-8"?>
<!-- Generated by IcoMoon.io -->
<!DOCTYPE svg PUBLIC "-//W3C//DTD SVG 1.1//EN" "http://www.w3.org/Graphics/SVG/1.1/DTD/svg11.dtd">
<svg version="1.1" xmlns="http://www.w3.org/2000/svg" xmlns:xlink="http://www.w3.org/1999/xlink" width="100" height="100" viewBox="0 0 100 100">
<path d="M18.7 12.5h-6.2v6.2h6.2v-6.2zM81.2 87.5h6.3v-6.3h-6.3v6.3zM12.5 87.5h6.2v-6.3h-6.2v6.3zM81.2 18.7h6.3v-6.2h-6.3v6.2zM93.7 0h-87.5c-3.4 0-6.2 2.8-6.2 6.2v87.5c0 3.5 2.8 6.3 6.2 6.3h87.5c3.5 0 6.3-2.8 6.3-6.3v-87.5c0-3.4-2.8-6.2-6.3-6.2zM93.7 90.6c0 1.7-1.4 3.1-3.1 3.1h-81.2c-1.8 0-3.2-1.4-3.2-3.1v-81.2c0-1.8 1.4-3.2 3.2-3.2h81.2c1.7 0 3.1 1.4 3.1 3.2v81.2zM50 12.5c-20.7 0-37.5 16.8-37.5 37.5s16.8 37.5 37.5 37.5c20.7 0 37.5-16.8 37.5-37.5s-16.8-37.5-37.5-37.5zM50 81.2c-17.3 0-31.3-14-31.3-31.2 0-17.3 14-31.3 31.3-31.3s31.2 14 31.2 31.3c0 17.2-13.9 31.2-31.2 31.2zM50 31.2c-10.4 0-18.8 8.4-18.8 18.8 0 10.3 8.4 18.7 18.8 18.7 10.3 0 18.7-8.4 18.7-18.7 0-10.4-8.4-18.8-18.7-18.8zM50 62.5c-6.9 0-12.5-5.6-12.5-12.5s5.6-12.5 12.5-12.5c6.9 0 12.5 5.6 12.5 12.5s-5.6 12.5-12.5 12.5z"></path>
</svg>
