<?xml version="1.0" encoding="utf-8"?>
<!-- Generated by IcoMoon.io -->
<!DOCTYPE svg PUBLIC "-//W3C//DTD SVG 1.1//EN" "http://www.w3.org/Graphics/SVG/1.1/DTD/svg11.dtd">
<svg version="1.1" xmlns="http://www.w3.org/2000/svg" xmlns:xlink="http://www.w3.org/1999/xlink" width="100" height="100" viewBox="0 0 100 100">
<path d="M71.9 71.9c0-12.1-9.8-21.9-21.9-21.9s-21.9 9.8-21.9 21.9c0 12 9.8 21.8 21.9 21.8s21.9-9.8 21.9-21.8zM50 87.5c-8.6 0-15.6-7-15.6-15.6s7-15.7 15.6-15.7c8.6 0 15.6 7 15.6 15.7s-7 15.6-15.6 15.6zM50 12.5c-8.6 0-15.6 7-15.6 15.6s7 15.6 15.6 15.6c8.6 0 15.6-7 15.6-15.6s-7-15.6-15.6-15.6zM50 37.5c-5.2 0-9.4-4.2-9.4-9.4s4.2-9.4 9.4-9.4c5.2 0 9.4 4.2 9.4 9.4s-4.2 9.4-9.4 9.4zM83.8 0h-67.7c-3.7 0-6.7 2.8-6.7 6.2v87.5c0 3.5 3 6.3 6.7 6.3h67.7c3.8 0 6.8-2.8 6.8-6.3v-87.5c0-3.4-3-6.2-6.8-6.2zM84.4 90.6c0 1.7-1.6 3.1-3.5 3.1h-61.8c-1.9 0-3.5-1.4-3.5-3.1v-81.2c0-1.8 1.6-3.2 3.5-3.2h61.8c1.9 0 3.5 1.4 3.5 3.2v81.2z"></path>
</svg>
