<?xml version="1.0" encoding="utf-8"?>
<!-- Generated by IcoMoon.io -->
<!DOCTYPE svg PUBLIC "-//W3C//DTD SVG 1.1//EN" "http://www.w3.org/Graphics/SVG/1.1/DTD/svg11.dtd">
<svg version="1.1" xmlns="http://www.w3.org/2000/svg" xmlns:xlink="http://www.w3.org/1999/xlink" width="100" height="100" viewBox="0 0 100 100">
<path d="M26.7 62.7h-23.3c-1.9 0-3.4 1.4-3.4 3.1s1.5 3.1 3.4 3.1h24.4c0 0 0.1 0 0.1 0 1 0.1 2.1-0.1 2.9-0.8l7-7.2-4.7-4.7-6.4 6.5zM60.8 37.5c0 0 35.4 0 35.5 0h0.6c1.7 0 3.1-1.4 3.1-3.1 0-0.9-0.4-1.7-0.9-2.2-0.2-0.3-0.1-0.6-0.4-0.8l-17.8-17.9c-1.4-1.4-3.6-1.4-5 0s-1.4 3.7 0 5.1l12.6 12.7h-29.1c-0.5 0-1 0.1-1.4 0.4-0.6 0.1-1.2 0.3-1.6 0.8l-6.9 7 4.7 4.7 6.6-6.7zM97.8 62.9c-0.9-0.5-37.1-0.2-37.1-0.2l-29.9-30.5c-0.8-0.8-1.8-1-2.9-0.9 0 0-0.1 0-0.1 0h-24.4c-1.9 0-3.4 1.4-3.4 3.1s1.5 3.1 3.4 3.1h19.4c0 0 3.6-0.2 4.1 0.2l29.5 30.1c0.4 0.4 1 0.6 1.6 0.7 0.4 0.3 0.9 0.4 1.4 0.4h28.8l-12.4 12.4c-1.4 1.5-1.4 3.7 0 5.1 1.5 1.4 3.7 1.4 5.1 0l17.8-17.8c0.2-0.1 0.1-0.3 0.2-0.5 0.7-0.6 1.1-1.4 1.1-2.3 0-1.4-0.9-2.5-2.2-2.9z"></path>
</svg>
