<?xml version="1.0" encoding="utf-8"?>
<!-- Generated by IcoMoon.io -->
<!DOCTYPE svg PUBLIC "-//W3C//DTD SVG 1.1//EN" "http://www.w3.org/Graphics/SVG/1.1/DTD/svg11.dtd">
<svg version="1.1" xmlns="http://www.w3.org/2000/svg" xmlns:xlink="http://www.w3.org/1999/xlink" width="100" height="100" viewBox="0 0 100 100">
<path d="M28.1 43.7h-6.2v-37.5h-6.3v37.5h-6.2c-3.5 0-6.3 2.8-6.3 6.3v18.7c0 3.5 2.8 6.3 6.3 6.3h6.2v18.7h6.3v-18.7h6.2c3.5 0 6.3-2.8 6.3-6.3v-18.7c0-3.5-2.8-6.3-6.3-6.3zM28.1 65.6c0 1.7-1.4 3.1-3.1 3.1h-12.5c-1.7 0-3.1-1.4-3.1-3.1v-12.5c0-1.7 1.4-3.1 3.1-3.1h12.5c1.7 0 3.1 1.4 3.1 3.1v12.5zM65.6 18.7c0-3.4-2.8-6.2-6.2-6.2h-6.3v-6.3h-6.2v6.3h-6.3c-3.4 0-6.2 2.8-6.2 6.2v18.8c0 3.4 2.8 6.2 6.2 6.2h6.3v50h6.2v-50h6.3c3.4 0 6.2-2.8 6.2-6.2v-18.8zM59.4 34.4c0 1.7-1.4 3.1-3.2 3.1h-12.5c-1.7 0-3.1-1.4-3.1-3.1v-12.5c0-1.8 1.4-3.2 3.1-3.2h12.5c1.8 0 3.2 1.4 3.2 3.2v12.5zM90.6 56.2h-6.2v-50h-6.3v50h-6.2c-3.5 0-6.3 2.8-6.3 6.3v18.7c0 3.5 2.8 6.3 6.3 6.3h6.2v6.2h6.3v-6.2h6.2c3.5 0 6.3-2.8 6.3-6.3v-18.7c0-3.5-2.8-6.3-6.3-6.3zM90.6 78.1c0 1.7-1.4 3.1-3.1 3.1h-12.5c-1.7 0-3.1-1.4-3.1-3.1v-12.5c0-1.7 1.4-3.1 3.1-3.1h12.5c1.7 0 3.1 1.4 3.1 3.1v12.5z"></path>
</svg>
