<?xml version="1.0" encoding="utf-8"?>
<!-- Generated by IcoMoon.io -->
<!DOCTYPE svg PUBLIC "-//W3C//DTD SVG 1.1//EN" "http://www.w3.org/Graphics/SVG/1.1/DTD/svg11.dtd">
<svg version="1.1" xmlns="http://www.w3.org/2000/svg" xmlns:xlink="http://www.w3.org/1999/xlink" width="100" height="100" viewBox="0 0 100 100">
<path d="M100 25v-6.3h-12.5v-6.2h-6.3v-12.5h-6.2v12.5h-12.5v-12.5h-6.3v12.5h-12.5v-12.5h-6.2v12.5h-12.5v-12.5h-6.3v12.5h-6.2v6.2h-12.5v6.3h12.5v12.5h-12.5v6.2h12.5v12.5h-12.5v6.3h12.5v12.5h-12.5v6.2h12.5v6.3h6.2v12.5h6.3v-12.5h12.5v12.5h6.2v-12.5h12.5v12.5h6.3v-12.5h12.5v12.5h6.2v-12.5h6.3v-6.3h12.5v-6.2h-12.5v-12.5h12.5v-6.3h-12.5v-12.5h12.5v-6.2h-12.5v-12.5h12.5zM81.2 25v56.2h-62.5v-62.5h62.5v6.3z"></path>
</svg>
