<?xml version="1.0" encoding="utf-8"?>
<!-- Generated by IcoMoon.io -->
<!DOCTYPE svg PUBLIC "-//W3C//DTD SVG 1.1//EN" "http://www.w3.org/Graphics/SVG/1.1/DTD/svg11.dtd">
<svg version="1.1" xmlns="http://www.w3.org/2000/svg" xmlns:xlink="http://www.w3.org/1999/xlink" width="100" height="100" viewBox="0 0 100 100">
<path d="M97.9 2.1c-1.2-1.2-3.6-2.1-6.6-2.1-3.7 0-8.2 1.4-12.3 5.5l-20.6 20.6c-11.6-0.7-41.3-2.7-42.1-2.7-0.1 0-0.3 0-0.4 0-1 0-2.8 0.2-4.7 1.8-2.4 1.9-7.2 6.5-7.2 6.5-1.1 1.1-1.7 2.6-1.6 4 0.1 0.8 0.5 2.3 2.6 3.1 1.2 0.5 20.7 7.8 29.7 11.1l-12.3 12.7c-0.6 0-1.2 0-2 0-3.8 0-9.6-0.1-11.9-0.1-0.3 0-0.6 0-0.7 0-0.7 0-2.2-0.3-6.1 2.9l-0.3 0.3c-1.1 1.1-1.4 2.3-1.4 3.1s0.2 1.9 1.3 2.8c0.7 0.6 9.5 6.2 16.7 10.6 1.7 2.8 9.7 15.5 10.1 16.2 0.6 1 1.6 1.6 2.8 1.6 0 0 0 0 0.1 0 1.1 0 2.3-0.6 3.5-1.7 3.3-3.8 2.8-5.4 2.8-6.1 0.1-2.1 0-11 0.1-14.5l12.7-12.3c3.3 9 10.4 28.3 10.9 29.6 0.8 2 2.3 2.4 3.1 2.5 0.2 0 0.3 0 0.4 0 1.3 0 2.5-0.6 3.6-1.6 0 0 4.5-4.8 6.4-7.2 2-2.3 1.9-4.3 1.9-5.3-0.1-0.6-1.9-30.2-2.5-41.8l20.6-20.7c7.3-7.3 6.1-16.1 3.4-18.8zM90 16.5l-22.6 22.7 0.2 2.8c0.4 5.9 1 16.4 1.5 25.4 0.5 8.1 1 15.7 1 16.3 0 0.4 0 0.5-0.4 1-0.9 1.2-2.6 3.1-4.1 4.7-2.2-6.1-7-19-9.6-26.2l-3.3-9.2-7 7-12.8 12.3-1.7 1.8-0.1 2.5c0 2 0 5.6 0 8.8 0 2 0 3.7 0 4.9 0.1 0.2 0.2 0.4 0.4 0.6 0-0.1-0.5-0.1-0.4-0.2 0-0.1 0-0.3 0-0.4-0.2-0.3-0.4-0.5-0.5-0.8-2.6-4.1-6.2-9.8-7.3-11.6l-0.8-1.3-1.3-0.8c-4.5-2.8-9.6-5.9-12.8-8h-0.1c-0.1 0-0.2-0.3-0.3-0.3 0.1 0.1 0.3 0.2 0.4 0.3h0.1c1 0 2.7 0 4.6 0 2.4 0.1 5.2 0.1 7.3 0.1 0.8 0 1.6 0 2.1 0l2.5-0.1 1.8-1.8 12.3-12.7 7-6.9-9.2-3.4c-7-2.5-20.2-7.5-26.4-9.8 1.6-1.5 3.5-3.2 4.6-4.2 0.4-0.2 0.6-0.3 0.8-0.3h0.2c0.7 0 9.3 0.6 17.5 1.1 8.8 0.6 18.8 1.2 24.4 1.6l2.8 0.2 2-2 20.6-20.7c3.2-3.2 6.3-3.6 7.9-3.6 1 0 1.8 0.1 2.1 0.3 0.5 1.2 1.1 5.5-3.4 9.9z"></path>
</svg>
