<?xml version="1.0" encoding="utf-8"?>
<!-- Generated by IcoMoon.io -->
<!DOCTYPE svg PUBLIC "-//W3C//DTD SVG 1.1//EN" "http://www.w3.org/Graphics/SVG/1.1/DTD/svg11.dtd">
<svg version="1.1" xmlns="http://www.w3.org/2000/svg" xmlns:xlink="http://www.w3.org/1999/xlink" width="100" height="100" viewBox="0 0 100 100">
<path d="M90.6 0h-81.2c-5.2 0-9.4 4.2-9.4 9.4v81.2c0 5.2 4.2 9.4 9.4 9.4h81.2c5.2 0 9.4-4.2 9.4-9.4v-81.2c0-5.2-4.2-9.4-9.4-9.4zM93.7 90.6c0 1.7-1.4 3.1-3.1 3.1h-81.2c-1.8 0-3.2-1.4-3.2-3.1v-81.2c0-1.8 1.4-3.2 3.2-3.2h81.2c1.7 0 3.1 1.4 3.1 3.2v81.2zM81.2 50h-6.2v-6.3h-6.3v6.3h-50c-1.7 0-3.1 1.4-3.1 3.1s1.4 3.1 3.1 3.1h50v6.3h6.3v-6.3h6.2c1.8 0 3.2-1.4 3.2-3.1s-1.4-3.1-3.2-3.1zM81.2 75h-50v-6.3h-6.2v6.3h-6.3c-1.7 0-3.1 1.4-3.1 3.1s1.4 3.1 3.1 3.1h6.3v6.3h6.2v-6.3h50c1.8 0 3.2-1.4 3.2-3.1s-1.4-3.1-3.2-3.1zM81.2 25h-31.2v-6.3h-6.3v6.3h-25c-1.7 0-3.1 1.4-3.1 3.1s1.4 3.1 3.1 3.1h25v6.3h6.3v-6.3h31.2c1.8 0 3.2-1.4 3.2-3.1s-1.4-3.1-3.2-3.1z"></path>
</svg>
