<?xml version="1.0" encoding="utf-8"?>
<!-- Generated by IcoMoon.io -->
<!DOCTYPE svg PUBLIC "-//W3C//DTD SVG 1.1//EN" "http://www.w3.org/Graphics/SVG/1.1/DTD/svg11.dtd">
<svg version="1.1" xmlns="http://www.w3.org/2000/svg" xmlns:xlink="http://www.w3.org/1999/xlink" width="100" height="100" viewBox="0 0 100 100">
<path d="M31.2 31.2c-10.3 0-18.7 8.4-18.7 18.8 0 10.3 8.4 18.7 18.7 18.7s18.8-8.4 18.8-18.7c0-10.4-8.4-18.8-18.8-18.8zM31.2 62.5c-6.9 0-12.5-5.6-12.5-12.5s5.6-12.5 12.5-12.5 12.5 5.6 12.5 12.5c0 6.9-5.6 12.5-12.5 12.5zM75 18.7h-50c-13.8 0-25 11.2-25 25v12.5c0 13.8 11.2 25 25 25h50c13.8 0 25-11.2 25-25v-12.5c0-13.8-11.2-25-25-25zM93.7 56.2c0 10.4-8.4 18.8-18.7 18.8h-50c-10.4 0-18.8-8.4-18.8-18.8v-12.5c0-10.3 8.4-18.7 18.8-18.7h50c10.3 0 18.7 8.4 18.7 18.7v12.5z"></path>
</svg>
