<?xml version="1.0" encoding="utf-8"?>
<!-- Generated by IcoMoon.io -->
<!DOCTYPE svg PUBLIC "-//W3C//DTD SVG 1.1//EN" "http://www.w3.org/Graphics/SVG/1.1/DTD/svg11.dtd">
<svg version="1.1" xmlns="http://www.w3.org/2000/svg" xmlns:xlink="http://www.w3.org/1999/xlink" width="100" height="100" viewBox="0 0 100 100">
<path d="M91 22.3l-12.1 12.2-11.1-2.3-2.3-11.1 12.2-12.1c-3.9-1.8-8.1-2.8-12.3-2.8-7.2 0-14.4 2.8-19.9 8.2-7.8 7.9-10 19.2-6.7 29l-28.9 28.9c-4.9 4.9-4.9 12.9 0 17.8 2.5 2.4 5.7 3.7 8.9 3.7s6.5-1.3 8.9-3.7l28.9-28.9c2.9 1 6 1.5 9.1 1.5 7.2 0 14.4-2.7 19.9-8.2 8.7-8.7 10.4-21.6 5.4-32.2zM81.1 50c-4.1 4.2-9.6 6.4-15.4 6.4-2.5 0-4.9-0.4-7.2-1.1l-3.6-1.3-2.7 2.8-28.9 28.8c-1.2 1.2-2.8 1.9-4.5 1.9s-3.3-0.7-4.5-1.9c-1.2-1.2-1.8-2.7-1.8-4.4s0.6-3.3 1.8-4.5l31.6-31.6-1.2-3.7c-2.7-8-0.7-16.6 5.2-22.5 4.1-4.1 9.6-6.4 15.4-6.4l-6.6 6.6 0.7 3.2 2.2 11.2 0.8 4.1 4.1 0.8 11.1 2.2 3.3 0.6 2.4-2.3 4.2-4.2c0 5.6-2.2 11.2-6.4 15.3z"></path>
</svg>
