<?xml version="1.0" encoding="utf-8"?>
<!-- Generated by IcoMoon.io -->
<!DOCTYPE svg PUBLIC "-//W3C//DTD SVG 1.1//EN" "http://www.w3.org/Graphics/SVG/1.1/DTD/svg11.dtd">
<svg version="1.1" xmlns="http://www.w3.org/2000/svg" xmlns:xlink="http://www.w3.org/1999/xlink" width="100" height="100" viewBox="0 0 100 100">
<path d="M100 50c0-6.6-5.1-11.9-11.5-12.4-0.7-2.1-1.5-4.2-2.6-6.2 4.2-4.9 4.1-12.1-0.5-16.8s-11.9-4.7-16.8-0.5c-2-1.1-4.1-1.9-6.2-2.6-0.5-6.4-5.8-11.5-12.4-11.5s-11.9 5.1-12.4 11.5c-2.1 0.7-4.2 1.5-6.2 2.6-4.9-4.2-12.1-4.1-16.8 0.5s-4.7 11.9-0.5 16.8c-1.1 2-1.9 4.1-2.6 6.2-6.4 0.5-11.5 5.8-11.5 12.4s5.1 11.9 11.5 12.4c0.7 2.1 1.5 4.2 2.6 6.1-4.2 5-4.1 12.2 0.5 16.8 4.7 4.7 11.9 4.8 16.8 0.6 2 1.1 4.1 1.9 6.2 2.6 0.5 6.4 5.8 11.5 12.4 11.5s11.9-5.1 12.4-11.5c2.1-0.7 4.2-1.5 6.2-2.6 4.9 4.2 12.1 4.1 16.8-0.6 4.6-4.6 4.7-11.8 0.5-16.8 1.1-1.9 1.9-4 2.6-6.1 6.4-0.5 11.5-5.8 11.5-12.4zM83.8 56.2c-0.9 4.9-2.9 9.3-5.5 13.2l2.6 2.7c2.5 2.4 2.5 6.4 0 8.8-2.4 2.5-6.4 2.5-8.8 0l-2.7-2.7c-3.9 2.7-8.3 4.6-13.2 5.5v3.8c0 3.5-2.7 6.2-6.2 6.2s-6.3-2.7-6.3-6.2v-3.8c-4.8-0.9-9.2-2.8-13.1-5.5l-2.7 2.7c-2.4 2.5-6.4 2.5-8.8 0-2.5-2.4-2.5-6.4 0-8.8l2.6-2.7c-2.7-3.9-4.6-8.3-5.5-13.2h-3.7c-3.5 0-6.3-2.8-6.3-6.2 0-3.5 2.8-6.3 6.3-6.3h3.7c0.9-4.8 2.8-9.2 5.5-13.1l-2.6-2.7c-2.5-2.4-2.5-6.4 0-8.8 2.4-2.5 6.4-2.5 8.8 0l2.7 2.7c3.9-2.7 8.3-4.7 13.1-5.6v-3.7c0-3.5 2.8-6.3 6.3-6.3s6.2 2.8 6.2 6.3v3.7c4.9 0.9 9.3 2.9 13.2 5.6l2.7-2.7c2.4-2.5 6.4-2.5 8.8 0s2.5 6.4 0 8.8l-2.6 2.7c2.6 3.9 4.6 8.3 5.5 13.1h3.7c3.5 0 6.2 2.8 6.2 6.3 0 3.4-2.7 6.2-6.2 6.2h-3.7zM50 31.2c-10.4 0-18.8 8.4-18.8 18.8 0 10.3 8.4 18.7 18.8 18.7s18.7-8.4 18.7-18.7c0-10.4-8.3-18.8-18.7-18.8zM50 62.5c-6.9 0-12.5-5.6-12.5-12.5s5.6-12.5 12.5-12.5c6.9 0 12.5 5.6 12.5 12.5s-5.6 12.5-12.5 12.5z"></path>
</svg>
