<?xml version="1.0" encoding="utf-8"?>
<!-- Generated by IcoMoon.io -->
<!DOCTYPE svg PUBLIC "-//W3C//DTD SVG 1.1//EN" "http://www.w3.org/Graphics/SVG/1.1/DTD/svg11.dtd">
<svg version="1.1" xmlns="http://www.w3.org/2000/svg" xmlns:xlink="http://www.w3.org/1999/xlink" width="100" height="100" viewBox="0 0 100 100">
<path d="M87.5 81.2c0 7-5.6 12.5-12.5 12.5h-56.3c-6.9 0-12.5-5.5-12.5-12.5v-56.2c0-6.9 5.6-12.5 12.5-12.5h31.3v-6.3h-31.3c-10.3 0-18.7 8.4-18.7 18.8v56.2c0 10.4 8.4 18.8 18.7 18.8h56.3c10.3 0 18.7-8.4 18.7-18.8v-31.2h-6.2v31.2zM78.1 43.7c12.1 0 21.9-9.7 21.9-21.8s-9.8-21.9-21.9-21.9-21.9 9.8-21.9 21.9c0 12.1 9.8 21.8 21.9 21.8zM78.1 6.2c8.7 0 15.6 7 15.6 15.7s-6.9 15.6-15.6 15.6-15.6-7-15.6-15.6 7-15.7 15.6-15.7z"></path>
</svg>
