<?xml version="1.0" encoding="utf-8"?>
<!-- Generated by IcoMoon.io -->
<!DOCTYPE svg PUBLIC "-//W3C//DTD SVG 1.1//EN" "http://www.w3.org/Graphics/SVG/1.1/DTD/svg11.dtd">
<svg version="1.1" xmlns="http://www.w3.org/2000/svg" xmlns:xlink="http://www.w3.org/1999/xlink" width="113" height="100" viewBox="0 0 113 100">
<path d="M48.9 56.6l5.4 3.1 3.1-5.4-5.4-3.2-3.1 5.5zM38 50.3l5.4 3.1 3.2-5.4-5.4-3.1-3.2 5.4zM59.7 62.9l5.4 3.1 3.1-5.4-5.4-3.2-3.1 5.5zM63.6 43.4l-5.4-3.1-3.1 5.4 5.4 3.1 3.1-5.4zM82.8 3.7c-13.4-7.8-30.6-3.2-38.4 10.4l-1.6 2.7-3.1 5.4-20.3 35.4c-7.8 13.6-3.2 30.9 10.3 38.7s30.6 3.2 38.4-10.4l1.6-2.7 1.3-2.4 22.1-38.4c7.8-13.6 3.2-30.9-10.3-38.7zM62.7 82.8c-6 10.5-19.4 14.1-29.9 8s-14-19.5-8-30l1.6-2.8 37.9 22-1.6 2.8zM67.4 74.6l-37.9-22 15.6-27.2 37.9 22-15.6 27.2zM87.7 39.2l-1.6 2.7-37.9-22 1.6-2.7c6-10.5 19.4-14.1 29.9-8 10.5 6 14 19.5 8 30zM49.7 42.6l3.1-5.5-5.4-3.1-3.1 5.4 5.4 3.2zM74.5 49.7l-5.4-3.2-3.2 5.5 5.4 3.1 3.2-5.4z"></path>
</svg>
