<?xml version="1.0" encoding="utf-8"?>
<!-- Generated by IcoMoon.io -->
<!DOCTYPE svg PUBLIC "-//W3C//DTD SVG 1.1//EN" "http://www.w3.org/Graphics/SVG/1.1/DTD/svg11.dtd">
<svg version="1.1" xmlns="http://www.w3.org/2000/svg" xmlns:xlink="http://www.w3.org/1999/xlink" width="113" height="100" viewBox="0 0 113 100">
<path d="M75 29.9v-3.5c0-7.7-5.6-13.9-12.5-13.9h-12.5c-6.9 0-12.5 6.2-12.5 13.9v3.5c0 5.1 2.5 9.5 6.2 11.9v16.1c-3.7 2-6.2 5.8-6.2 10.1v20.2c0 6.5 5.6 11.8 12.5 11.8h12.5c6.9 0 12.5-5.3 12.5-11.8v-20.2c0-4.3-2.5-8.1-6.3-10.1v-16.1c3.8-2.4 6.3-6.8 6.3-11.9zM68.7 88c0 3.2-2.7 5.8-6.2 5.8h-12.5c-3.5 0-6.3-2.6-6.3-5.8v-19.7c0-3.2 2.8-5.8 6.3-5.8h12.5c3.5 0 6.2 2.6 6.2 5.8v19.7zM50 56.2v-12.5h12.5v12.5h-12.5zM62.9 37.5h-13.3c-3.3-0.3-5.9-3.5-5.9-7.5v-3.8c0-4.2 2.8-7.6 6.3-7.6h12.5c3.5 0 6.2 3.4 6.2 7.6v3.8c0 4-2.6 7.2-5.8 7.5zM46.9 6.2h18.7c1.7 0 3.1-1.4 3.1-3.1s-1.4-3.1-3.1-3.1h-18.7c-1.8 0-3.2 1.4-3.2 3.1s1.4 3.1 3.2 3.1z"></path>
</svg>
