<?xml version="1.0" encoding="utf-8"?>
<!-- Generated by IcoMoon.io -->
<!DOCTYPE svg PUBLIC "-//W3C//DTD SVG 1.1//EN" "http://www.w3.org/Graphics/SVG/1.1/DTD/svg11.dtd">
<svg version="1.1" xmlns="http://www.w3.org/2000/svg" xmlns:xlink="http://www.w3.org/1999/xlink" width="113" height="100" viewBox="0 0 113 100">
<path d="M68.7 12.5h-43.7c-5.2 0-9.4 4.2-9.4 9.4v68.7c0 5.2 4.2 9.4 9.4 9.4h43.7c5.2 0 9.4-4.2 9.4-9.4v-68.7c0-5.2-4.2-9.4-9.4-9.4zM71.9 90.6c0 1.7-1.4 3.1-3.2 3.1h-43.7c-1.7 0-3.1-1.4-3.1-3.1v-68.7c0-1.8 1.4-3.2 3.1-3.2h43.7c1.8 0 3.2 1.4 3.2 3.2v68.7zM87.5 0h-43.8c-4 0-7.4 2.6-8.7 6.2h52.5c1.7 0 3.1 1.4 3.1 3.2v68.7c0 1.7-1.4 3.1-3.1 3.1h-3.1v6.3h3.1c5.2 0 9.4-4.2 9.4-9.4v-68.7c0-5.2-4.2-9.4-9.4-9.4z"></path>
</svg>
