<?xml version="1.0" encoding="utf-8"?>
<!-- Generated by IcoMoon.io -->
<!DOCTYPE svg PUBLIC "-//W3C//DTD SVG 1.1//EN" "http://www.w3.org/Graphics/SVG/1.1/DTD/svg11.dtd">
<svg version="1.1" xmlns="http://www.w3.org/2000/svg" xmlns:xlink="http://www.w3.org/1999/xlink" width="113" height="100" viewBox="0 0 113 100">
<path d="M106.2 50c0-2-0.1-4-0.3-5.9-0.1 0-0.1 0-0.2 0-1.2-10.3-5.7-19.6-12.2-27l0.2-0.2-2.1-2c-0.1-0.2-0.2-0.3-0.3-0.4l-2-2-0.2 0.2c-7.3-6.6-16.6-11.1-27-12.3 0 0 0 0 0 0-1.9-0.3-3.8-0.4-5.7-0.4-0.1 0-0.1 0-0.2 0s-0.3 0-0.5 0c-12.4 0.1-23.8 4.9-32.5 12.6v-0.1l-0.6 0.6c-1.1 1-2.2 2.1-3.3 3.3l-0.5 0.5v0.1c-7.7 8.7-12.4 20-12.5 32.5 0 0.2-0.1 0.3-0.1 0.5v0c0 2 0.2 3.9 0.4 5.9 1.2 10.3 5.8 19.6 12.3 27l-0.1 0.1 1.9 2c0.2 0.1 0.3 0.3 0.4 0.4l2.1 2.1 0.2-0.2c7.4 6.5 16.6 10.9 27 12.1 0 0.1 0 0.2 0 0.2 1.9 0.2 3.9 0.4 5.8 0.4 12.7 0 24.3-4.8 33.1-12.6v0.1l0.3-0.3c1.4-1.2 2.6-2.5 3.8-3.9l0.3-0.3c7.8-8.8 12.5-20.3 12.5-33 0 0 0 0 0 0zM99.4 43.8c-12.4 0.1-23.8 4.8-32.4 12.5l-6.3-6.3 28.4-28.5c5.4 6.2 9.1 13.8 10.3 22.3zM62.5 6.9c8.4 1.2 16 4.9 22.2 10.2l-28.5 28.5-6.3-6.3c7.7-8.7 12.4-20 12.6-32.4zM56.2 6.2c0 11-4.1 20.9-10.8 28.6l-17.7-17.7c7.7-6.7 17.6-10.9 28.5-10.9zM23.3 21.5l17.7 17.7c-7.7 6.6-17.6 10.8-28.5 10.8 0-11 4.2-20.9 10.8-28.5zM13.1 56.2c12.5-0.1 23.8-4.9 32.4-12.5l6.3 6.3-28.4 28.4c-5.3-6.1-9.1-13.7-10.3-22.2zM50 93.2c-8.5-1.2-16-5-22.2-10.3l28.4-28.5 6.4 6.3c-7.7 8.7-12.4 20-12.6 32.5zM56.2 93.7c0-10.9 4.2-20.8 10.9-28.5l17.7 17.7c-7.7 6.7-17.6 10.8-28.6 10.8zM89.2 78.5l-17.7-17.7c7.7-6.6 17.5-10.8 28.5-10.8 0 10.9-4.2 20.8-10.8 28.5z"></path>
</svg>
