<?xml version="1.0" encoding="utf-8"?>
<!-- Generated by IcoMoon.io -->
<!DOCTYPE svg PUBLIC "-//W3C//DTD SVG 1.1//EN" "http://www.w3.org/Graphics/SVG/1.1/DTD/svg11.dtd">
<svg version="1.1" xmlns="http://www.w3.org/2000/svg" xmlns:xlink="http://www.w3.org/1999/xlink" width="113" height="100" viewBox="0 0 113 100">
<path d="M105 20.3c-6.3-11.4-42-16.3-65.9-1.7s-37.8 49.7-31.6 61.1c6.3 11.4 42 16.3 65.9 1.7s37.8-49.7 31.6-61.1zM12.9 76.4c-2-3.8-0.7-11.7 3.2-20.6l15.3 28c-9.2-0.9-16.4-3.7-18.5-7.4zM70.3 75.7c-9.5 5.8-21.1 8.2-31.5 8.3l-19.2-35.1c5.3-9.4 13.1-18.9 22.6-24.6 9.4-5.8 21.1-8.2 31.5-8.4l19.2 35.2c-5.3 9.4-13.1 18.8-22.6 24.6zM96.4 44.2l-15.3-28c9.2 0.9 16.4 3.7 18.4 7.4 2.1 3.7 0.8 11.7-3.1 20.6zM70.9 37.2l-3.1-5.7-5.4 3.3 3.1 5.7-5.4 3.3-3.1-5.7-5.4 3.3 3.1 5.7-5.4 3.3-3.2-5.7-5.4 3.3 3.2 5.7-2.8 1.7c-1.4 0.9-2 2.9-1.1 4.5s2.8 2.1 4.3 1.2l2.7-1.7 3.1 5.8 5.4-3.3-3.1-5.7 5.4-3.3 3.1 5.7 5.4-3.3-3.1-5.7 5.4-3.4 3.2 5.8 5.4-3.3-3.2-5.7 2.7-1.7c1.5-0.9 2.1-2.9 1.2-4.5s-2.8-2.1-4.3-1.2l-2.7 1.6z"></path>
</svg>
