<?xml version="1.0" encoding="utf-8"?>
<!-- Generated by IcoMoon.io -->
<!DOCTYPE svg PUBLIC "-//W3C//DTD SVG 1.1//EN" "http://www.w3.org/Graphics/SVG/1.1/DTD/svg11.dtd">
<svg version="1.1" xmlns="http://www.w3.org/2000/svg" xmlns:xlink="http://www.w3.org/1999/xlink" width="113" height="100" viewBox="0 0 113 100">
<path d="M9.4 40.6c-1.8 0-3.2 1.4-3.2 3.1v12.5c0 1.8 1.4 3.2 3.2 3.2 1.7 0 3.1-1.4 3.1-3.2v-12.5c0-1.7-1.4-3.1-3.1-3.1zM78.1 28.1c-1.7 0-3.1 1.4-3.1 3.1v15.7h-37.5v-15.7c0-1.7-1.4-3.1-3.1-3.1-1.8 0-3.2 1.4-3.2 3.1v37.5c0 1.8 1.4 3.2 3.2 3.2 1.7 0 3.1-1.4 3.1-3.2v-15.6h37.5v15.6c0 1.8 1.4 3.2 3.1 3.2s3.1-1.4 3.1-3.2v-37.5c0-1.7-1.4-3.1-3.1-3.1zM21.9 34.4c-1.8 0-3.2 1.4-3.2 3.1v25c0 1.7 1.4 3.1 3.2 3.1 1.7 0 3.1-1.4 3.1-3.1v-25c0-1.7-1.4-3.1-3.1-3.1zM103.1 40.6c-1.7 0-3.1 1.4-3.1 3.1v12.5c0 1.8 1.4 3.2 3.1 3.2s3.1-1.4 3.1-3.2v-12.5c0-1.7-1.4-3.1-3.1-3.1zM90.6 34.4c-1.7 0-3.1 1.4-3.1 3.1v25c0 1.7 1.4 3.1 3.1 3.1s3.1-1.4 3.1-3.1v-25c0-1.7-1.4-3.1-3.1-3.1z"></path>
</svg>
