<?xml version="1.0" encoding="utf-8"?>
<!-- Generated by IcoMoon.io -->
<!DOCTYPE svg PUBLIC "-//W3C//DTD SVG 1.1//EN" "http://www.w3.org/Graphics/SVG/1.1/DTD/svg11.dtd">
<svg version="1.1" xmlns="http://www.w3.org/2000/svg" xmlns:xlink="http://www.w3.org/1999/xlink" width="113" height="100" viewBox="0 0 113 100">
<path d="M81.2 6.7c-23.9-13.8-54.4-5.6-68.3 18.3-13.8 23.9-5.6 54.5 18.3 68.3 24 13.8 54.5 5.6 68.3-18.3s5.7-54.5-18.3-68.3zM51.4 6.6c9-1 18.3 0.6 26.7 5.5s14.5 12.1 18.1 20.4c-11.1 10.3-21.8 13.3-33.6 6.5s-14.6-17.6-11.2-32.4zM61.1 93.3c-9 1.1-18.3-0.6-26.7-5.4-8.4-4.9-14.5-12.1-18.1-20.4 11.1-10.3 21.8-13.3 33.6-6.5s14.6 17.6 11.2 32.3zM94.1 71.9c-6.1 10.7-16.2 17.7-27.3 20.5 3.2-16.6-0.3-29.3-13.7-37s-26-4.4-38.8 6.6c-3.2-11-2.1-23.2 4.1-33.9 6.1-10.7 16.2-17.7 27.3-20.5-3.2 16.6 0.3 29.3 13.7 37 13.3 7.7 26 4.4 38.8-6.7 3.2 11.1 2.1 23.3-4.1 34z"></path>
</svg>
