<?xml version="1.0" encoding="utf-8"?>
<!-- Generated by IcoMoon.io -->
<!DOCTYPE svg PUBLIC "-//W3C//DTD SVG 1.1//EN" "http://www.w3.org/Graphics/SVG/1.1/DTD/svg11.dtd">
<svg version="1.1" xmlns="http://www.w3.org/2000/svg" xmlns:xlink="http://www.w3.org/1999/xlink" width="113" height="100" viewBox="0 0 113 100">
<path d="M83.3 10.8c-4.8 0-10.6-1.2-17.7-4.4-10.3-4.7-20-6.3-28.3-6.3-15.2 0-25.8 5.2-27.6 6.1h-0.3v90.7c0 1.7 1.4 3.1 3.1 3.1s3.1-1.4 3.1-3.1v-37.8c4.1-1 10.1-2 17.4-2 9.2 0 20.5 1.7 32.6 7.2 7.1 3.2 12.9 4.5 17.7 4.5 14.5 0 19.8-10.9 19.8-10.9v-57.9c0 0-5.3 10.8-19.8 10.8zM96.9 56.1c-1.5 2-5.6 6.3-13.6 6.3-4.4 0-9.5-1.3-15.1-3.9-11.3-5.2-23.2-7.8-35.2-7.8-7 0-13 0.9-17.4 1.9v-16.5c9.4-3.6 28.3-7.9 50 2.8 15.8 7.9 25.6 4.7 31.3 0.5v16.7zM96.9 32.4c-5.7 4.3-15.5 7.4-31.3-0.4-21.7-10.8-40.6-6.4-50-2.9v-18.7c4.2-1.7 11.9-4.1 21.7-4.1 8.8 0 17.5 1.9 25.8 5.8 7.2 3.3 14 5 20.2 5 5.5 0 10-1.3 13.6-3.1v18.4z"></path>
</svg>
