<?xml version="1.0" encoding="utf-8"?>
<!-- Generated by IcoMoon.io -->
<!DOCTYPE svg PUBLIC "-//W3C//DTD SVG 1.1//EN" "http://www.w3.org/Graphics/SVG/1.1/DTD/svg11.dtd">
<svg version="1.1" xmlns="http://www.w3.org/2000/svg" xmlns:xlink="http://www.w3.org/1999/xlink" width="113" height="100" viewBox="0 0 113 100">
<path d="M90.6 15.6h-12.5v-12.5h-43.7v12.5h-12.5c-6.9 0-12.5 5.6-12.5 12.5v56.3c0 6.9 5.6 12.5 12.5 12.5h68.7c6.9 0 12.5-5.6 12.5-12.5v-56.3c0-6.9-5.6-12.5-12.5-12.5zM40.6 9.4h31.3v6.2h-31.3v-6.2zM96.9 84.4c0 3.4-2.8 6.2-6.3 6.2h-68.7c-3.5 0-6.3-2.8-6.3-6.2v-56.3c0-3.4 2.8-6.2 6.3-6.2h68.7c3.5 0 6.3 2.8 6.3 6.2v56.3zM59.4 40.6h-6.3v12.5h-12.5v6.3h12.5v12.5h6.3v-12.5h12.5v-6.3h-12.5v-12.5z"></path>
</svg>
