<?xml version="1.0" encoding="utf-8"?>
<!-- Generated by IcoMoon.io -->
<!DOCTYPE svg PUBLIC "-//W3C//DTD SVG 1.1//EN" "http://www.w3.org/Graphics/SVG/1.1/DTD/svg11.dtd">
<svg version="1.1" xmlns="http://www.w3.org/2000/svg" xmlns:xlink="http://www.w3.org/1999/xlink" width="113" height="100" viewBox="0 0 113 100">
<path d="M56.2 0c-27.6 0-50 22.4-50 50s22.4 50 50 50c27.7 0 50-22.4 50-50s-22.3-50-50-50zM56.2 93.7c-24.1 0-43.7-19.5-43.7-43.7s19.6-43.8 43.7-43.8c24.2 0 43.8 19.6 43.8 43.8s-19.6 43.7-43.8 43.7zM45.4 44.3c-3.4 5.8-1.4 13.2 4.6 16.5 6 3.4 13.6 1.4 17.1-4.4 3.4-5.8 7.9-37.6 7.9-37.6s-26.1 19.6-29.6 25.5zM50.8 47.3c3.3-5.5 19.5-20.6 17.9-18 0 0-3.8 18.6-7 24.1-1.6 2.6-3.4 5.1-8.6 2.2-5.4-3-3.8-5.7-2.3-8.3z"></path>
</svg>
