<?xml version="1.0" encoding="utf-8"?>
<!-- Generated by IcoMoon.io -->
<!DOCTYPE svg PUBLIC "-//W3C//DTD SVG 1.1//EN" "http://www.w3.org/Graphics/SVG/1.1/DTD/svg11.dtd">
<svg version="1.1" xmlns="http://www.w3.org/2000/svg" xmlns:xlink="http://www.w3.org/1999/xlink" width="113" height="100" viewBox="0 0 113 100">
<path d="M71.1 81.2c7.3 0 13.3-5.6 13.3-12.5v-56.2c0-6.9-6-12.5-13.3-12.5h-29.7c-7.4 0-13.3 5.6-13.3 12.5v56.2c0 6.9 5.9 12.5 13.3 12.5h9.9v12.5h-19.9c-1.8 0-3.3 1.5-3.3 3.2s1.5 3.1 3.3 3.1h46.4c1.8 0 3.3-1.4 3.3-3.1s-1.5-3.2-3.3-3.2h-19.9v-12.5h13.2zM41.4 75c-3.7 0-6.7-2.8-6.7-6.3v-6.2h10c1.8 0 3.3-1.4 3.3-3.1s-1.5-3.2-3.3-3.2h-10v-12.5h10c1.8 0 3.3-1.4 3.3-3.1s-1.5-3.1-3.3-3.1h-10v-12.5h10c1.8 0 3.3-1.4 3.3-3.1 0-1.8-1.5-3.2-3.3-3.2h-10v-6.2c0-3.5 3-6.3 6.7-6.3h29.7c3.7 0 6.7 2.8 6.7 6.3v6.2h-10c-1.8 0-3.3 1.4-3.3 3.2 0 1.7 1.5 3.1 3.3 3.1h10v12.5h-10c-1.8 0-3.3 1.4-3.3 3.1s1.5 3.1 3.3 3.1h10v12.5h-10c-1.8 0-3.3 1.4-3.3 3.2s1.5 3.1 3.3 3.1h10v6.2c0 3.5-3 6.3-6.7 6.3h-29.7z"></path>
</svg>
