<?xml version="1.0" encoding="utf-8"?>
<!-- Generated by IcoMoon.io -->
<!DOCTYPE svg PUBLIC "-//W3C//DTD SVG 1.1//EN" "http://www.w3.org/Graphics/SVG/1.1/DTD/svg11.dtd">
<svg version="1.1" xmlns="http://www.w3.org/2000/svg" xmlns:xlink="http://www.w3.org/1999/xlink" width="106" height="100" viewBox="0 0 106 100">
<path d="M50 15.9v-6.5h9.4c1.7 0 3.1-1.4 3.1-3.2s-1.4-3.1-3.1-3.1h-12.5c0 0 0 0 0 0s0 0 0 0h-12.5c-1.8 0-3.2 1.4-3.2 3.1s1.4 3.2 3.2 3.2h9.3v6.5c-20.9 1.7-37.5 19-37.5 40.3 0 22.5 18.2 40.7 40.7 40.7 22.4 0 40.6-18.2 40.6-40.7 0-21.3-16.6-38.6-37.5-40.3zM46.9 90.6c-19 0-34.4-15.4-34.4-34.4 0-18.9 15.4-34.3 34.4-34.3s34.3 15.4 34.3 34.3c0 19-15.3 34.4-34.3 34.4zM46.9 53.1c-1.8 0-3.2 1.4-3.2 3.1v25c0 1.8 1.4 3.2 3.2 3.2s3.1-1.4 3.1-3.2v-25c0-1.7-1.4-3.1-3.1-3.1zM46.9 28.1v6.3c12.1 0 21.8 9.8 21.8 21.8 0 6.2-2.5 11.7-6.5 15.7h0.3v7.7c7.5-5 12.5-13.6 12.5-23.4 0-15.5-12.6-28.1-28.1-28.1z"></path>
</svg>
