<?xml version="1.0" encoding="utf-8"?>
<!-- Generated by IcoMoon.io -->
<!DOCTYPE svg PUBLIC "-//W3C//DTD SVG 1.1//EN" "http://www.w3.org/Graphics/SVG/1.1/DTD/svg11.dtd">
<svg version="1.1" xmlns="http://www.w3.org/2000/svg" xmlns:xlink="http://www.w3.org/1999/xlink" width="106" height="100" viewBox="0 0 106 100">
<path d="M62.5 50h-15.6v-21.9c0-1.7-1.4-3.1-3.2-3.1s-3.1 1.4-3.1 3.1v25c0 1.7 1.4 3.1 3.1 3.1h18.8c1.7 0 3.1-1.4 3.1-3.1s-1.4-3.1-3.1-3.1zM65.6 17.7v-17.7h-37.5v17.7c-11.1 6.5-18.7 18.4-18.7 32.3 0 13.8 7.6 25.8 18.7 32.3v17.7h37.5v-17.7c11.2-6.5 18.8-18.5 18.8-32.3 0-13.9-7.6-25.8-18.8-32.3zM34.4 6.2h25v8.6c-4-1.4-8.1-2.3-12.5-2.3s-8.6 0.9-12.5 2.3v-8.6zM59.4 93.7h-25v-8.5c3.9 1.4 8.1 2.3 12.5 2.3s8.5-0.9 12.5-2.3v8.5zM46.9 81.2c-17.3 0-31.3-13.9-31.3-31.2s14-31.3 31.3-31.3c17.2 0 31.2 14 31.2 31.3s-14 31.2-31.2 31.2z"></path>
</svg>
