<?xml version="1.0" encoding="utf-8"?>
<!-- Generated by IcoMoon.io -->
<!DOCTYPE svg PUBLIC "-//W3C//DTD SVG 1.1//EN" "http://www.w3.org/Graphics/SVG/1.1/DTD/svg11.dtd">
<svg version="1.1" xmlns="http://www.w3.org/2000/svg" xmlns:xlink="http://www.w3.org/1999/xlink" width="106" height="100" viewBox="0 0 106 100">
<path d="M90.6 6.2h-21.9v-6.2h-6.2v6.2h-31.3v-6.2h-6.2v6.2h-18.8c-3.4 0-6.2 2.8-6.2 6.3v81.2c0 3.5 2.8 6.3 6.2 6.3h81.3c3.4 0 6.2-2.8 6.2-6.3v-81.2c0-3.5 0.4-6.3-3.1-6.3zM87.5 90.6c0 1.7-1.4 3.1-3.1 3.1h-75c-1.8 0-3.2-1.4-3.2-3.1v-59.4h81.3v59.4zM87.5 25h-81.3v-9.4c0-1.7 1.4-3.1 3.2-3.1h15.6v6.2h6.2v-6.2h31.3v6.2h6.2v-6.2h15.7c1.7 0 3.1 1.4 3.1 3.1v9.4zM81.2 43.7h-18.7v18.8h18.7v-18.8zM75 56.2h-6.3v-6.2h6.3v6.2zM81.2 68.7h-18.7v18.8h18.7v-18.8zM75 81.2h-6.3v-6.2h6.3v6.2zM56.2 43.7h-18.7v18.8h18.7v-18.8zM50 56.2h-6.3v-6.2h6.3v6.2zM31.2 68.7h-18.7v18.8h18.7v-18.8zM25 81.2h-6.3v-6.2h6.3v6.2zM56.2 68.7h-18.7v18.8h18.7v-18.8zM50 81.2h-6.3v-6.2h6.3v6.2zM31.2 43.7h-18.7v18.8h18.7v-18.8zM25 56.2h-6.3v-6.2h6.3v6.2z"></path>
</svg>
