<?xml version="1.0" encoding="utf-8"?>
<!-- Generated by IcoMoon.io -->
<!DOCTYPE svg PUBLIC "-//W3C//DTD SVG 1.1//EN" "http://www.w3.org/Graphics/SVG/1.1/DTD/svg11.dtd">
<svg version="1.1" xmlns="http://www.w3.org/2000/svg" xmlns:xlink="http://www.w3.org/1999/xlink" width="106" height="100" viewBox="0 0 106 100">
<path d="M25 71.9h6.2v-6.3h-6.2v6.3zM25 28.1h6.2v-6.2h-6.2v6.2zM12.5 53.1h6.2v-6.2h-6.2v6.2zM68.7 21.9h-6.2v6.2h6.2v-6.2zM50 15.6h-6.3v37.5h31.3v-6.2h-25v-31.3zM43.7 84.4h6.3v-6.3h-6.3v6.3zM46.9 3.1c-25.9 0-46.9 21-46.9 46.9s21 46.9 46.9 46.9c25.9 0 46.8-21 46.8-46.9s-20.9-46.9-46.8-46.9zM46.9 90.6c-22.5 0-40.7-18.2-40.7-40.6s18.2-40.6 40.7-40.6c22.4 0 40.6 18.2 40.6 40.6s-18.2 40.6-40.6 40.6zM62.5 71.9h6.2v-6.3h-6.2v6.3z"></path>
</svg>
