<?xml version="1.0" encoding="utf-8"?>
<!-- Generated by IcoMoon.io -->
<!DOCTYPE svg PUBLIC "-//W3C//DTD SVG 1.1//EN" "http://www.w3.org/Graphics/SVG/1.1/DTD/svg11.dtd">
<svg version="1.1" xmlns="http://www.w3.org/2000/svg" xmlns:xlink="http://www.w3.org/1999/xlink" width="106" height="100" viewBox="0 0 106 100">
<path d="M18.1 74.3l4.5 4.4 4.4-4.4-4.4-4.4-4.5 4.4zM46.9 50h-31.3v6.2h37.5v-43.7h-6.2v37.5zM46.9 87.5h6.2v-6.3h-6.2v6.3zM27 25.7l-4.4-4.4-4.5 4.4 4.5 4.4 4.4-4.4zM78.1 43.7v6.3h6.3v-6.3h-6.3zM67.2 18.7l-4.7 4.7 4.7 4.8 4.7-4.8-4.7-4.7zM46.9 0c-27.6 0-50 22.4-50 50s22.4 50 50 50c27.6 0 50-22.4 50-50s-22.4-50-50-50zM46.9 93.7c-24.2 0-43.8-19.5-43.8-43.7s19.6-43.8 43.8-43.8 43.7 19.6 43.7 43.8c0 24.2-19.6 43.7-43.7 43.7zM68.7 70.3l4.7 4.7 4.7-4.7-4.7-4.7-4.7 4.7z"></path>
</svg>
