<?xml version="1.0" encoding="utf-8"?>
<!-- Generated by IcoMoon.io -->
<!DOCTYPE svg PUBLIC "-//W3C//DTD SVG 1.1//EN" "http://www.w3.org/Graphics/SVG/1.1/DTD/svg11.dtd">
<svg version="1.1" xmlns="http://www.w3.org/2000/svg" xmlns:xlink="http://www.w3.org/1999/xlink" width="106" height="100" viewBox="0 0 106 100">
<path d="M70.9 19.6c-0.2-0.1-0.3-0.3-0.5-0.4-0.1-0.1-0.2-0.1-0.3-0.1-0.2-0.1-0.3-0.1-0.4-0.2-0.3 0-0.5-0.1-0.8-0.1 0 0-0.1-0.1-0.2-0.1h-43.7c-1.7 0-3.1 1.4-3.1 3.2 0 1.7 1.4 3.1 3.1 3.1h36.5c-5.3 5.5-13.8 15.2-19.6 24.7-8.4 13.7-10.3 26.9-10.3 26.9-0.8 1.5-0.3 3.4 1.2 4.3 1.5 0.8 3.4 0.3 4.3-1.2 0 0 1.9-13.4 10.3-27.1 7.4-12.2 19.4-24.6 23-28.1 0.4-0.3 0.7-0.6 0.9-1 0.1 0 0.2-0.1 0.2-0.1 0-0.1 0-0.2 0.1-0.2 0-0.1 0-0.2 0.1-0.3 0.4-1.1 0.1-2.4-0.7-3.2-0.1 0-0.1-0.1-0.1-0.1zM90.6 0h-87.5c-3.4 0-6.2 2.8-6.2 6.2v87.5c0 3.5 2.8 6.3 6.2 6.3h87.5c3.5 0 6.3-2.8 6.3-6.3v-87.5c0-3.4-2.8-6.2-6.3-6.2zM90.6 90.6c0 1.7-1.4 3.1-3.1 3.1h-81.3c-1.7 0-3.1-1.4-3.1-3.1v-81.2c0-1.8 1.4-3.2 3.1-3.2h81.3c1.7 0 3.1 1.4 3.1 3.2v81.2z"></path>
</svg>
