<?xml version="1.0" encoding="utf-8"?>
<!-- Generated by IcoMoon.io -->
<!DOCTYPE svg PUBLIC "-//W3C//DTD SVG 1.1//EN" "http://www.w3.org/Graphics/SVG/1.1/DTD/svg11.dtd">
<svg version="1.1" xmlns="http://www.w3.org/2000/svg" xmlns:xlink="http://www.w3.org/1999/xlink" width="106" height="100" viewBox="0 0 106 100">
<path d="M51.6 44.4l-3.9 3.9c-1.1 1.1-1.1 2.8 0 3.9s2.8 1.1 3.9 0l3.9-3.9c1.1-1.1 1.1-2.8 0-3.9s-2.8-1.1-3.9 0zM18.8 37.4c1.7 0 3.1-1.4 3.1-3.1v-6.3c0-1.7-1.4-3.1-3.1-3.1s-3.2 1.4-3.2 3.1v6.3c0 1.7 1.4 3.1 3.2 3.1zM32.4 60.1l-21.1 21.1h-5.1c-1.7 0-3.1 1.4-3.1 3.2v6.2c0 1.8 1.4 3.2 3.1 3.2h6.3c1.7 0 3.1-1.4 3.1-3.2v-5.2l21.1-21.1c1.1-1.1 1.1-3 0-4.2-1.2-1.2-3.1-1.2-4.3 0zM68.9 75h-6.3c-1.7 0-3.1 1.4-3.1 3.1s1.4 3.1 3.1 3.1h6.3c1.7 0 3.1-1.4 3.1-3.1s-1.4-3.1-3.1-3.1zM15.6 6.2v6.3c37.3 1.6 67.2 31.5 68.8 68.7h6.2c-1.6-40.7-34.2-73.4-75-75z"></path>
</svg>
