<?xml version="1.0" encoding="utf-8"?>
<!-- Generated by IcoMoon.io -->
<!DOCTYPE svg PUBLIC "-//W3C//DTD SVG 1.1//EN" "http://www.w3.org/Graphics/SVG/1.1/DTD/svg11.dtd">
<svg version="1.1" xmlns="http://www.w3.org/2000/svg" xmlns:xlink="http://www.w3.org/1999/xlink" width="106" height="100" viewBox="0 0 106 100">
<path d="M15.6 56.2c3.5 0 6.3-2.8 6.3-6.2 0-3.5-2.8-6.3-6.3-6.3s-6.2 2.8-6.2 6.3c0 3.4 2.8 6.2 6.2 6.2zM84.4 6.2h-75c-6.9 0-12.5 5.6-12.5 12.5v62.5c0 7 5.6 12.5 12.5 12.5h75c6.9 0 12.5-5.6 12.5-12.5v-62.5c0-6.9-5.6-12.5-12.5-12.5zM28.1 87.5h-18.7c-3.5 0-6.3-2.8-6.3-6.3v-62.5c0-3.4 2.8-6.2 6.3-6.2h18.7v75zM90.6 81.2c0 3.5-2.8 6.3-6.2 6.3h-50v-75h50c3.4 0 6.2 2.8 6.2 6.2v62.5z"></path>
</svg>
