<?xml version="1.0" encoding="utf-8"?>
<!-- Generated by IcoMoon.io -->
<!DOCTYPE svg PUBLIC "-//W3C//DTD SVG 1.1//EN" "http://www.w3.org/Graphics/SVG/1.1/DTD/svg11.dtd">
<svg version="1.1" xmlns="http://www.w3.org/2000/svg" xmlns:xlink="http://www.w3.org/1999/xlink" width="106" height="100" viewBox="0 0 106 100">
<path d="M84.4 18.7h-9.4c-3.8-7.4-10.6-18.7-15.6-18.7h-25c-5 0-11.8 11.3-15.7 18.7h-9.3c-6.9 0-12.5 5.6-12.5 12.5v56.3c0 6.9 5.6 12.5 12.5 12.5h75c6.9 0 12.5-5.6 12.5-12.5v-56.3c0-6.9-5.6-12.5-12.5-12.5zM34.4 6.2h25c2.3 0 6.5 7.1 9.3 12.5h-43.7c2.9-5.4 7-12.5 9.4-12.5zM3.1 43.7h20.4c-1.3 2-2.2 4.1-3 6.3h-17.4v-6.3zM90.6 87.5c0 3.4-2.8 6.2-6.2 6.2h-75c-3.5 0-6.3-2.8-6.3-6.2v-31.3h16c-0.2 1.1-0.4 2.1-0.4 3.2 0 15.5 12.6 28.1 28.2 28.1s28.1-12.6 28.1-28.1c0-1.1-0.2-2.1-0.3-3.2h15.9v31.3zM25 59.4c0-12.1 9.8-21.9 21.9-21.9s21.8 9.8 21.8 21.9c0 12.1-9.7 21.8-21.8 21.8s-21.9-9.7-21.9-21.8zM90.6 50h-17.3c-0.8-2.2-1.8-4.3-3-6.3h20.3v6.3zM90.6 37.5h-26.2c-4.9-3.9-10.9-6.3-17.5-6.3-6.7 0-12.7 2.4-17.5 6.3h-26.3v-6.3c0-3.4 2.8-6.2 6.3-6.2h75c3.4 0 6.2 2.8 6.2 6.2v6.3z"></path>
</svg>
