<?xml version="1.0" encoding="utf-8"?>
<!-- Generated by IcoMoon.io -->
<!DOCTYPE svg PUBLIC "-//W3C//DTD SVG 1.1//EN" "http://www.w3.org/Graphics/SVG/1.1/DTD/svg11.dtd">
<svg version="1.1" xmlns="http://www.w3.org/2000/svg" xmlns:xlink="http://www.w3.org/1999/xlink" width="106" height="100" viewBox="0 0 106 100">
<path d="M87.5 3.1h-81.3c-3.4 0-6.2 2.8-6.2 6.3v62.5c0 3.4 2.8 6.2 6.2 6.2h37.5v12.5h-9.3c-1.8 0-3.2 1.4-3.2 3.2 0 1.7 1.4 3.1 3.2 3.1h25c1.7 0 3.1-1.4 3.1-3.1 0-1.8-1.4-3.2-3.1-3.2h-9.4v-12.5h37.5c3.5 0 6.2-2.8 6.2-6.2v-62.5c0-3.5-2.7-6.3-6.2-6.3zM87.5 68.7c0 1.8-1.4 3.2-3.1 3.2h-75c-1.8 0-3.2-1.4-3.2-3.2v-56.2c0-1.7 1.4-3.1 3.2-3.1h75c1.7 0 3.1 1.4 3.1 3.1v56.2z"></path>
</svg>
