<?xml version="1.0" encoding="utf-8"?>
<!-- Generated by IcoMoon.io -->
<!DOCTYPE svg PUBLIC "-//W3C//DTD SVG 1.1//EN" "http://www.w3.org/Graphics/SVG/1.1/DTD/svg11.dtd">
<svg version="1.1" xmlns="http://www.w3.org/2000/svg" xmlns:xlink="http://www.w3.org/1999/xlink" width="106" height="100" viewBox="0 0 106 100">
<path d="M68.7 34.4c1.8 0 3.2-1.4 3.2-3.2 0-1.7-1.4-3.1-3.2-3.1h-21.8v-12.5h21.8c1.8 0 3.2-1.4 3.2-3.1s-1.4-3.1-3.2-3.1h-21.8c0-3.5-2.8-6.3-6.3-6.3h-12.5c-3.4 0-6.2 2.8-6.2 6.3v81.2c0 3.5 2.8 6.3 6.2 6.3h12.5c3.5 0 6.3-2.8 6.3-6.3h21.8c1.8 0 3.2-1.4 3.2-3.1s-1.4-3.1-3.2-3.1h-21.8v-12.5h21.8c1.8 0 3.2-1.4 3.2-3.2s-1.4-3.1-3.2-3.1h-21.8v-12.5h21.8c1.8 0 3.2-1.4 3.2-3.1s-1.4-3.1-3.2-3.1h-21.8v-12.5h21.8zM40.6 87.5c0 1.7-1.4 3.1-3.1 3.1h-6.3c-1.7 0-3.1-1.4-3.1-3.1v-75c0-1.7 1.4-3.1 3.1-3.1h6.3c1.7 0 3.1 1.4 3.1 3.1v75z"></path>
</svg>
