<?xml version="1.0" encoding="utf-8"?>
<!-- Generated by IcoMoon.io -->
<!DOCTYPE svg PUBLIC "-//W3C//DTD SVG 1.1//EN" "http://www.w3.org/Graphics/SVG/1.1/DTD/svg11.dtd">
<svg version="1.1" xmlns="http://www.w3.org/2000/svg" xmlns:xlink="http://www.w3.org/1999/xlink" width="106" height="100" viewBox="0 0 106 100">
<path d="M28.1 34.4h-6.2v12.5h-12.5v6.2h12.5v12.5h6.2v-12.5h12.5v-6.2h-12.5v-12.5zM73.8 34.4l-20.7 14.4 4.3 4.3 20.7-14.4-4.3-4.3zM80.1 46.9l-20.7 14.4 4.3 4.3 20.7-14.4-4.3-4.3zM68.7 21.9h-43.7c-15.5 0-28.1 12.6-28.1 28.1s12.6 28.1 28.1 28.1h43.7c15.6 0 28.2-12.6 28.2-28.1s-12.6-28.1-28.2-28.1zM68.7 71.9h-43.7c-12.1 0-21.9-9.8-21.9-21.9s9.8-21.9 21.9-21.9h43.7c12.1 0 21.9 9.8 21.9 21.9s-9.8 21.9-21.9 21.9z"></path>
</svg>
