<?xml version="1.0" encoding="utf-8"?>
<!-- Generated by IcoMoon.io -->
<!DOCTYPE svg PUBLIC "-//W3C//DTD SVG 1.1//EN" "http://www.w3.org/Graphics/SVG/1.1/DTD/svg11.dtd">
<svg version="1.1" xmlns="http://www.w3.org/2000/svg" xmlns:xlink="http://www.w3.org/1999/xlink" width="106" height="100" viewBox="0 0 106 100">
<path d="M28.1 0c-1.7 0-3.1 1.4-3.1 3.1v93.8c0 1.7 1.4 3.1 3.1 3.1s3.1-1.4 3.1-3.1v-93.8c0-1.7-1.4-3.1-3.1-3.1zM40.6 6.2h25c1.7 0 3.1-1.4 3.1-3.1s-1.4-3.1-3.1-3.1h-25c-1.7 0-3.1 1.4-3.1 3.1s1.4 3.1 3.1 3.1zM65.6 25h-25c-1.7 0-3.1 1.4-3.1 3.1s1.4 3.1 3.1 3.1h25c1.7 0 3.1-1.4 3.1-3.1s-1.4-3.1-3.1-3.1zM65.6 37.5h-25c-1.7 0-3.1 1.4-3.1 3.1s1.4 3.1 3.1 3.1h25c1.7 0 3.1-1.4 3.1-3.1s-1.4-3.1-3.1-3.1zM65.6 12.5h-25c-1.7 0-3.1 1.4-3.1 3.1s1.4 3.1 3.1 3.1h25c1.7 0 3.1-1.4 3.1-3.1s-1.4-3.1-3.1-3.1z"></path>
</svg>
