<?xml version="1.0" encoding="utf-8"?>
<!-- Generated by IcoMoon.io -->
<!DOCTYPE svg PUBLIC "-//W3C//DTD SVG 1.1//EN" "http://www.w3.org/Graphics/SVG/1.1/DTD/svg11.dtd">
<svg version="1.1" xmlns="http://www.w3.org/2000/svg" xmlns:xlink="http://www.w3.org/1999/xlink" width="106" height="100" viewBox="0 0 106 100">
<path d="M46.9 31.2c-13.8 0-25 11.2-25 25s11.2 25 25 25c13.8 0 25-11.2 25-25s-11.2-25-25-25zM46.9 75c-10.4 0-18.8-8.4-18.8-18.8s8.4-18.7 18.8-18.7 18.7 8.4 18.7 18.7-8.4 18.8-18.7 18.8zM90.6 18.7h-15.6l-3.1-6.2c0 0-2.8-6.3-6.3-6.3h-37.5c-3.4 0-6.2 6.3-6.2 6.3l-3.2 6.2h-15.6c-3.4 0-6.2 2.8-6.2 6.3v62.5c0 3.4 2.8 6.2 6.2 6.2h87.5c3.5 0 6.3-2.8 6.3-6.2v-62.5c0-3.5-2.8-6.3-6.3-6.3zM90.6 84.4c0 1.7-1.4 3.1-3.1 3.1h-81.3c-1.7 0-3.1-1.4-3.1-3.1v-56.3c0-1.7 1.4-3.1 3.1-3.1h15.9c-0.1-0.3-0.2-0.5-0.2-0.8l5-7.8c0 0 2.2-3.9 5-3.9h30c2.7 0 5 3.9 5 3.9l5 7.8c0 0.3-0.2 0.5-0.2 0.8h15.8c1.7 0 3.1 1.4 3.1 3.1v56.3z"></path>
</svg>
