<?xml version="1.0" encoding="utf-8"?>
<!-- Generated by IcoMoon.io -->
<!DOCTYPE svg PUBLIC "-//W3C//DTD SVG 1.1//EN" "http://www.w3.org/Graphics/SVG/1.1/DTD/svg11.dtd">
<svg version="1.1" xmlns="http://www.w3.org/2000/svg" xmlns:xlink="http://www.w3.org/1999/xlink" width="106" height="100" viewBox="0 0 106 100">
<path d="M87.5 90.6c0-5.2-4.2-9.4-9.4-9.4h-28.1v-25.3c14-1.5 25-13.3 25-27.8 0-15.5-12.6-28.1-28.1-28.1s-28.2 12.6-28.2 28.1c0 14.5 11 26.3 25 27.8v25.3h-28.1c-5.2 0-9.4 4.2-9.4 9.4 0 1.1 0.3 2.2 0.7 3.2h-0.7v6.2h81.3v-6.2h-0.6c0.3-1 0.6-2.1 0.6-3.2zM25 28.1c0-12.1 9.8-21.9 21.9-21.9s21.8 9.8 21.8 21.9c0 12.1-9.7 21.9-21.8 21.9s-21.9-9.8-21.9-21.9zM81.2 93.8h-68.7v-3.2c0-1.7 1.4-3.1 3.1-3.1h62.5c1.7 0 3.1 1.4 3.1 3.1v3.2z"></path>
</svg>
