<?xml version="1.0" encoding="utf-8"?>
<!-- Generated by IcoMoon.io -->
<!DOCTYPE svg PUBLIC "-//W3C//DTD SVG 1.1//EN" "http://www.w3.org/Graphics/SVG/1.1/DTD/svg11.dtd">
<svg version="1.1" xmlns="http://www.w3.org/2000/svg" xmlns:xlink="http://www.w3.org/1999/xlink" width="106" height="100" viewBox="0 0 106 100">
<path d="M71.9 71.9h6.2v-56.3h-62.5v56.3h6.3v-50h50v50zM9.4 59.4v-46.9c0-1.7 1.4-3.1 3.1-3.1h68.7c1.8 0 3.2 1.4 3.2 3.1v59.4h6.2v-62.5c0-3.5-2.8-6.3-6.2-6.3h-75c-3.5 0-6.3 2.8-6.3 6.3v62.5h6.3v-12.5zM93.7 78.1h-93.7c-1.7 0-3.1 1.4-3.1 3.1v12.5c0 1.8 1.4 3.2 3.1 3.2h93.7c1.8 0 3.2-1.4 3.2-3.2v-12.5c0-1.7-1.4-3.1-3.2-3.1zM90.6 90.6h-87.5v-6.2h87.5v6.2z"></path>
</svg>
