<?xml version="1.0" encoding="utf-8"?>
<!-- Generated by IcoMoon.io -->
<!DOCTYPE svg PUBLIC "-//W3C//DTD SVG 1.1//EN" "http://www.w3.org/Graphics/SVG/1.1/DTD/svg11.dtd">
<svg version="1.1" xmlns="http://www.w3.org/2000/svg" xmlns:xlink="http://www.w3.org/1999/xlink" width="106" height="100" viewBox="0 0 106 100">
<path d="M81.2 37.5c-1.7 0-3.1 1.4-3.1 3.1v18.8c0 1.7 1.4 3.1 3.1 3.1s3.2-1.4 3.2-3.1v-18.8c0-1.7-1.4-3.1-3.2-3.1zM15.6 43.7c-3.4 0-6.2 2.8-6.2 6.3 0 3.4 2.8 6.2 6.2 6.2 3.5 0 6.3-2.8 6.3-6.2 0-3.5-2.8-6.3-6.3-6.3zM78.1 12.5h-62.5c-10.3 0-18.7 8.4-18.7 18.7v37.5c0 10.4 8.4 18.8 18.7 18.8h62.5c10.4 0 18.8-8.4 18.8-18.8v-37.5c0-10.3-8.4-18.7-18.8-18.7zM90.6 68.7c0 6.9-5.6 12.5-12.5 12.5h-62.5c-6.9 0-12.5-5.6-12.5-12.5v-37.5c0-6.9 5.6-12.5 12.5-12.5h62.5c6.9 0 12.5 5.6 12.5 12.5v37.5z"></path>
</svg>
