<?xml version="1.0" encoding="utf-8"?>
<!-- Generated by IcoMoon.io -->
<!DOCTYPE svg PUBLIC "-//W3C//DTD SVG 1.1//EN" "http://www.w3.org/Graphics/SVG/1.1/DTD/svg11.dtd">
<svg version="1.1" xmlns="http://www.w3.org/2000/svg" xmlns:xlink="http://www.w3.org/1999/xlink" width="106" height="100" viewBox="0 0 106 100">
<path d="M25 28.1c-8.6 0-15.6 7-15.6 15.6s7 15.7 15.6 15.7c8.6 0 15.6-7 15.6-15.7s-7-15.6-15.6-15.6zM25 53.1c-5.2 0-9.4-4.2-9.4-9.4 0-5.1 4.2-9.3 9.4-9.3s9.4 4.2 9.4 9.3c0 5.2-4.2 9.4-9.4 9.4zM53.1 53.1h6.3v-18.7h-6.3v18.7zM90.6 15.6h-87.5c-3.4 0-6.2 2.8-6.2 6.3v62.5h6.2v-12.5h87.5v12.5h6.3v-62.5c0-3.5-2.8-6.3-6.3-6.3zM90.6 59.4v3.1c0 1.7-1.4 3.1-3.1 3.1h-81.3c-1.7 0-3.1-1.4-3.1-3.1v-37.5c0-1.7 1.4-3.1 3.1-3.1h81.3c1.7 0 3.1 1.4 3.1 3.1v34.4zM65.6 53.1h6.3v-18.7h-6.3v18.7zM78.1 53.1h6.3v-18.7h-6.3v18.7z"></path>
</svg>
