<?xml version="1.0" encoding="utf-8"?>
<!-- Generated by IcoMoon.io -->
<!DOCTYPE svg PUBLIC "-//W3C//DTD SVG 1.1//EN" "http://www.w3.org/Graphics/SVG/1.1/DTD/svg11.dtd">
<svg version="1.1" xmlns="http://www.w3.org/2000/svg" xmlns:xlink="http://www.w3.org/1999/xlink" width="106" height="100" viewBox="0 0 106 100">
<path d="M59.7 43.4c3.6-2.8 5.9-7.2 5.9-12.1 0-7.6-5.3-13.9-12.5-15.4v-12.8h-6.2v12.8c-7.1 1.5-12.5 7.8-12.5 15.4 0 4.9 2.4 9.3 5.9 12.1l-12.9 21.1c-8.4-5.6-14.9-14-17.8-23.9h-6.5c3.2 12.2 10.9 22.4 21.1 29.1l-14.8 24 5.3 3.2 14.8-24.1c6.7 3.3 14.2 5.3 22.1 5.3 7 0 13.6-1.5 19.7-4.1l14 22.9 5.3-3.2-30.9-50.3zM50 21.9c5.2 0 9.4 4.2 9.4 9.4 0 5.1-4.2 9.3-9.4 9.3s-9.3-4.2-9.3-9.3c0-5.2 4.2-9.4 9.3-9.4zM51.6 71.9c-6.7 0-13.1-1.6-18.8-4.4l13-21.3c1.4 0.4 2.8 0.7 4.2 0.7 1.5 0 2.9-0.3 4.2-0.7l13.8 22.5c-5.1 2-10.6 3.2-16.4 3.2z"></path>
</svg>
