<?xml version="1.0" encoding="utf-8"?>
<!-- Generated by IcoMoon.io -->
<!DOCTYPE svg PUBLIC "-//W3C//DTD SVG 1.1//EN" "http://www.w3.org/Graphics/SVG/1.1/DTD/svg11.dtd">
<svg version="1.1" xmlns="http://www.w3.org/2000/svg" xmlns:xlink="http://www.w3.org/1999/xlink" width="106" height="100" viewBox="0 0 106 100">
<path d="M90.6 26.6h-6.3l-71-21.8c-1.7-0.5-3.4 0.5-3.8 2.1s0.5 3.3 2.2 3.8l51.8 15.9h-60.4c-3.4 0-6.2 2.7-6.2 6.2v56.3c0 3.4 2.8 6.2 6.2 6.2h87.5c3.5 0 6.3-2.8 6.3-6.2v-56.3c0-3.5-2.8-6.2-6.3-6.2zM90.6 85.9c0 1.8-1.4 3.2-3.1 3.2h-81.3c-1.7 0-3.1-1.4-3.1-3.2v-50c0-1.7 1.4-3.1 3.1-3.1h81.3c1.7 0 3.1 1.4 3.1 3.1v50zM31.2 57.8h-18.7c-1.7 0-3.1 1.4-3.1 3.1s1.4 3.1 3.1 3.1h18.7c1.8 0 3.2-1.4 3.2-3.1s-1.4-3.1-3.2-3.1zM31.2 70.3h-18.7c-1.7 0-3.1 1.4-3.1 3.1 0 1.8 1.4 3.2 3.1 3.2h18.7c1.8 0 3.2-1.4 3.2-3.2 0-1.7-1.4-3.1-3.2-3.1zM31.2 45.3h-18.7c-1.7 0-3.1 1.4-3.1 3.1s1.4 3.2 3.1 3.2h18.7c1.8 0 3.2-1.5 3.2-3.2s-1.4-3.1-3.2-3.1zM62.5 39c-12.1 0-21.9 9.8-21.9 21.9s9.8 21.9 21.9 21.9 21.9-9.8 21.9-21.9c0-12.1-9.8-21.9-21.9-21.9zM62.5 76.6c-8.6 0-15.6-7-15.6-15.7 0-8.6 7-15.6 15.6-15.6s15.6 7 15.6 15.6c0 8.7-7 15.7-15.6 15.7z"></path>
</svg>
