<?xml version="1.0" encoding="utf-8"?>
<!-- Generated by IcoMoon.io -->
<!DOCTYPE svg PUBLIC "-//W3C//DTD SVG 1.1//EN" "http://www.w3.org/Graphics/SVG/1.1/DTD/svg11.dtd">
<svg version="1.1" xmlns="http://www.w3.org/2000/svg" xmlns:xlink="http://www.w3.org/1999/xlink" width="106" height="100" viewBox="0 0 106 100">
<path d="M53.1 34.4h-37.5c-3.4 0-6.2 2.8-6.2 6.3v37.5c0 3.4 2.8 6.2 6.2 6.2h37.5c3.5 0 6.3-2.8 6.3-6.2v-37.5c0-3.5-2.8-6.3-6.3-6.3zM53.1 75c0 1.8-1.4 3.2-3.1 3.2h-31.3c-1.7 0-3.1-1.4-3.1-3.2v-31.2c0-1.7 1.4-3.1 3.1-3.1h31.3c1.7 0 3.1 1.4 3.1 3.1v31.2zM84.4 21.9h-29.8l13.2-13.2c1.3-1.2 1.3-3.3 0-4.6-1.3-1.2-3.3-1.2-4.6 0l-16.3 16.2-16.3-16.3c-1.2-1.2-3.3-1.2-4.6 0-1.3 1.3-1.3 3.4 0 4.7l13.2 13.2h-29.8c-6.9 0-12.5 5.6-12.5 12.5v50c0 6.9 5.6 12.5 12.5 12.5h75c6.9 0 12.5-5.6 12.5-12.5v-50c0-6.9-5.6-12.5-12.5-12.5zM90.6 84.4c0 3.5-2.8 6.3-6.2 6.3h-75c-3.5 0-6.3-2.8-6.3-6.3v-50c0-3.4 2.8-6.2 6.3-6.2h75c3.4 0 6.2 2.8 6.2 6.2v50zM81.2 34.4h-12.5c-1.7 0-3.1 1.4-3.1 3.1s1.4 3.2 3.1 3.2h12.5c1.8 0 3.2-1.4 3.2-3.2s-1.4-3.1-3.2-3.1zM81.2 46.9h-12.5c-1.7 0-3.1 1.4-3.1 3.1 0 1.8 1.4 3.2 3.1 3.2h12.5c1.8 0 3.2-1.4 3.2-3.2 0-1.7-1.4-3.1-3.2-3.1zM78.1 65.7h-6.2c-3.5 0-6.3 2.8-6.3 6.2v6.3c0 3.4 2.8 6.2 6.3 6.2h6.2c3.5 0 6.3-2.8 6.3-6.2v-6.3c0-3.4-2.8-6.2-6.3-6.2zM78.1 78.2h-6.2v-6.3h6.2v6.3z"></path>
</svg>
