<?xml version="1.0" encoding="utf-8"?>
<!-- Generated by IcoMoon.io -->
<!DOCTYPE svg PUBLIC "-//W3C//DTD SVG 1.1//EN" "http://www.w3.org/Graphics/SVG/1.1/DTD/svg11.dtd">
<svg version="1.1" xmlns="http://www.w3.org/2000/svg" xmlns:xlink="http://www.w3.org/1999/xlink" width="106" height="100" viewBox="0 0 106 100">
<path d="M46.9 25c-1.7 0-3.1 1.4-3.1 3.1v12.5c0 1.7 1.4 3.1 3.1 3.1s3.1-1.4 3.1-3.1v-12.5c0-1.7-1.4-3.1-3.1-3.1zM62.5 12.5h-12.5v-9.4c0-1.7-1.4-3.1-3.1-3.1-0.1 0-0.1 0-0.2 0s-0.2 0-0.3 0h-17.8c-2 0-3.6 1.4-3.6 3.1s1.6 3.1 3.6 3.1h15.2v6.3h-12.6c-10.3 0-18.7 8.4-18.7 18.7v50c0 10.4 8.4 18.8 18.7 18.8h31.3c10.3 0 18.7-8.4 18.7-18.8v-50c0-10.3-8.4-18.7-18.7-18.7zM75 81.2c0 6.9-5.6 12.5-12.5 12.5h-31.3c-6.9 0-12.5-5.6-12.5-12.5v-50c0-6.9 5.6-12.5 12.5-12.5h31.3c6.9 0 12.5 5.6 12.5 12.5v50z"></path>
</svg>
