<?xml version="1.0" encoding="utf-8"?>
<!-- Generated by IcoMoon.io -->
<!DOCTYPE svg PUBLIC "-//W3C//DTD SVG 1.1//EN" "http://www.w3.org/Graphics/SVG/1.1/DTD/svg11.dtd">
<svg version="1.1" xmlns="http://www.w3.org/2000/svg" xmlns:xlink="http://www.w3.org/1999/xlink" width="106" height="100" viewBox="0 0 106 100">
<path d="M59.4 9.4v43.7c0 6.9-5.6 12.5-12.5 12.5s-12.5-5.6-12.5-12.5v-43.7h-25v43.7c0 20.7 16.8 37.5 37.5 37.5s37.5-16.8 37.5-37.5v-43.7h-25zM15.6 15.6h12.5v12.5h-12.5v-12.5zM78.1 53.1c0 17.3-14 31.3-31.2 31.3-17.3 0-31.3-14-31.3-31.3v-18.7h12.5v18.7c0 10.4 8.4 18.8 18.8 18.8s18.7-8.4 18.7-18.8v-18.7h12.5v18.7zM78.1 28.1h-12.5v-12.5h12.5v12.5z"></path>
</svg>
