<?xml version="1.0" encoding="utf-8"?>
<!-- Generated by IcoMoon.io -->
<!DOCTYPE svg PUBLIC "-//W3C//DTD SVG 1.1//EN" "http://www.w3.org/Graphics/SVG/1.1/DTD/svg11.dtd">
<svg version="1.1" xmlns="http://www.w3.org/2000/svg" xmlns:xlink="http://www.w3.org/1999/xlink" width="106" height="100" viewBox="0 0 106 100">
<path d="M87.5 3.1h-81.3c-3.4 0-6.2 2.8-6.2 6.3v81.2c0 3.5 2.8 6.3 6.2 6.3h81.3c3.5 0 6.2-2.8 6.2-6.3v-81.2c0-3.5-2.7-6.3-6.2-6.3zM18.7 90.6h-9.3c-1.8 0-3.2-1.4-3.2-3.1v-9.4h12.5v12.5zM18.7 71.9h-12.5v-18.8h12.5v18.8zM18.7 46.9h-12.5v-18.8h12.5v18.8zM18.7 21.9h-12.5v-9.4c0-1.7 1.4-3.1 3.2-3.1h9.3v12.5zM43.7 90.6h-18.7v-12.5h18.7v12.5zM43.7 71.9h-18.7v-18.8h18.7v18.8zM43.7 46.9h-18.7v-18.8h18.7v18.8zM43.7 21.9h-18.7v-12.5h18.7v12.5zM68.7 90.6h-18.7v-12.5h18.7v12.5zM68.7 71.9h-18.7v-18.8h18.7v18.8zM68.7 46.9h-18.7v-18.8h18.7v18.8zM68.7 21.9h-18.7v-12.5h18.7v12.5zM87.5 87.5c0 1.7-1.4 3.1-3.1 3.1h-9.4v-12.5h12.5v9.4zM87.5 71.9h-12.5v-18.8h12.5v18.8zM87.5 46.9h-12.5v-18.8h12.5v18.8zM87.5 21.9h-12.5v-12.5h9.4c1.7 0 3.1 1.4 3.1 3.1v9.4z"></path>
</svg>
