<?xml version="1.0" encoding="utf-8"?>
<!-- Generated by IcoMoon.io -->
<!DOCTYPE svg PUBLIC "-//W3C//DTD SVG 1.1//EN" "http://www.w3.org/Graphics/SVG/1.1/DTD/svg11.dtd">
<svg version="1.1" xmlns="http://www.w3.org/2000/svg" xmlns:xlink="http://www.w3.org/1999/xlink" width="106" height="100" viewBox="0 0 106 100">
<path d="M96.4 62.5c0.3-2.1 0.5-4.1 0.5-6.3 0-27.6-22.4-50-50-50s-50 22.4-50 50c0 2.2 0.1 4.2 0.4 6.3h0.2c-0.4 1-0.6 2-0.6 3.1v18.8c0 5.1 4.2 9.3 9.3 9.3h6.3c5.2 0 9.4-4.2 9.4-9.3v-18.8c0-5.2-4.2-9.4-9.4-9.4h-6.3c-1 0-2 0.3-3 0.7 0-0.3-0.1-0.4-0.1-0.7 0-24.1 19.6-43.7 43.8-43.7s43.7 19.6 43.7 43.7c0 0.2 0 0.4 0 0.7-1-0.4-2-0.7-3.1-0.7h-6.3c-5.1 0-9.3 4.2-9.3 9.4v18.8c0 5.1 4.2 9.3 9.3 9.3h6.3c5.2 0 9.4-4.2 9.4-9.3v-18.8c0-1.1-0.3-2.1-0.7-3.1h0.2zM6.2 62.5h6.3c1.7 0 3.1 1.4 3.1 3.1v18.8c0 1.7-1.4 3.1-3.1 3.1h-6.3c-1.7 0-3.1-1.4-3.1-3.1v-18.8c0-1.7 1.4-3.1 3.1-3.1zM90.6 84.4c0 1.7-1.4 3.1-3.1 3.1h-6.3c-1.7 0-3.1-1.4-3.1-3.1v-18.8c0-1.7 1.4-3.1 3.1-3.1h6.3c1.7 0 3.1 1.4 3.1 3.1v18.8z"></path>
</svg>
