<?xml version="1.0" encoding="utf-8"?>
<!-- Generated by IcoMoon.io -->
<!DOCTYPE svg PUBLIC "-//W3C//DTD SVG 1.1//EN" "http://www.w3.org/Graphics/SVG/1.1/DTD/svg11.dtd">
<svg version="1.1" xmlns="http://www.w3.org/2000/svg" xmlns:xlink="http://www.w3.org/1999/xlink" width="106" height="100" viewBox="0 0 106 100">
<path d="M56.2 0h-31.2v25c0 4.6 2.5 8.6 6.2 10.8v57.9c0 3.5 2.8 6.3 6.3 6.3h18.7c3.5 0 6.3-2.8 6.3-6.3v-18.7h6.2v-25h-6.2v-14.2c3.7-2.2 6.2-6.2 6.2-10.8v-25h-12.5zM56.2 90.6c0 1.7-1.4 3.1-3.1 3.1h-12.5c-1.7 0-3.1-1.4-3.1-3.1v-53.1h18.7v12.5h-6.2v25h6.2v15.6zM62.5 68.7h-6.3v-12.5h6.3v12.5zM62.5 25c0 3.4-2.8 6.2-6.3 6.2h-18.7c-3.5 0-6.3-2.8-6.3-6.2v-6.3h31.3v6.3zM62.5 12.5h-31.3v-6.3h31.3v6.3z"></path>
</svg>
