<?xml version="1.0" encoding="utf-8"?>
<!-- Generated by IcoMoon.io -->
<!DOCTYPE svg PUBLIC "-//W3C//DTD SVG 1.1//EN" "http://www.w3.org/Graphics/SVG/1.1/DTD/svg11.dtd">
<svg version="1.1" xmlns="http://www.w3.org/2000/svg" xmlns:xlink="http://www.w3.org/1999/xlink" width="106" height="100" viewBox="0 0 106 100">
<path d="M15.6 59.4c0 13.8 11.2 25 25 25s25-11.2 25-25c0-13.8-11.2-25-25-25s-25 11.2-25 25zM40.6 40.6c10.4 0 18.8 8.4 18.8 18.8 0 10.3-8.4 18.7-18.8 18.7-10.3 0-18.7-8.4-18.7-18.7 0-10.4 8.4-18.8 18.7-18.8zM84.4 28.1h-18.8v6.3h18.8v-6.3zM34.4 15.6v-12.5h-37.5v93.8h100v-81.3h-62.5zM3.1 9.4h25v6.2h-25v-6.2zM90.6 90.6h-87.5v-68.7h87.5v68.7z"></path>
</svg>
