<?xml version="1.0" encoding="utf-8"?>
<!-- Generated by IcoMoon.io -->
<!DOCTYPE svg PUBLIC "-//W3C//DTD SVG 1.1//EN" "http://www.w3.org/Graphics/SVG/1.1/DTD/svg11.dtd">
<svg version="1.1" xmlns="http://www.w3.org/2000/svg" xmlns:xlink="http://www.w3.org/1999/xlink" width="106" height="100" viewBox="0 0 106 100">
<path d="M46.9 87.5c3.4 0 6.2-2.8 6.2-6.3s-2.8-6.2-6.2-6.2c-3.5 0-6.3 2.8-6.3 6.2s2.8 6.3 6.3 6.3zM65.6 0h-37.5c-6.9 0-12.5 5.6-12.5 12.5v75c0 6.9 5.6 12.5 12.5 12.5h37.5c6.9 0 12.5-5.6 12.5-12.5v-75c0-6.9-5.6-12.5-12.5-12.5zM71.9 87.5c0 3.4-2.8 6.2-6.3 6.2h-37.5c-3.4 0-6.2-2.8-6.2-6.2v-18.8h50v18.8zM71.9 62.5h-50v-37.5h50v37.5zM71.9 18.7h-50v-6.2c0-3.5 2.8-6.3 6.2-6.3h37.5c3.5 0 6.3 2.8 6.3 6.3v6.2z"></path>
</svg>
