<?xml version="1.0" encoding="utf-8"?>
<!-- Generated by IcoMoon.io -->
<!DOCTYPE svg PUBLIC "-//W3C//DTD SVG 1.1//EN" "http://www.w3.org/Graphics/SVG/1.1/DTD/svg11.dtd">
<svg version="1.1" xmlns="http://www.w3.org/2000/svg" xmlns:xlink="http://www.w3.org/1999/xlink" width="100" height="100" viewBox="0 0 100 100">
<path d="M43.8 25h25v-6.3h-25v6.3zM93.8 6.2h-75c-3.5 0-6.3 2.8-6.3 6.3v68.7c0 4.7 2.5 8.7 6.3 10.8v11.1c0 1.8 1.4 3.2 3.1 3.2s3.1-1.4 3.1-3.2v-9.3h62.5v9.3c0 1.8 1.4 3.2 3.1 3.2s3.2-1.4 3.2-3.2v-11.1c3.7-2.1 6.2-6.1 6.2-10.8v-68.7c0-3.5-2.8-6.3-6.2-6.3zM25 87.5c-3.5 0-6.2-2.8-6.2-6.3s2.7-6.2 6.2-6.2c3.5 0 6.3 2.8 6.3 6.2s-2.8 6.3-6.3 6.3zM76.7 87.5h-40.9c1-1.8 1.7-4 1.7-6.3s-0.7-4.4-1.7-6.2h40.9c-1 1.8-1.7 4-1.7 6.2s0.7 4.5 1.7 6.3zM87.5 87.5c-3.5 0-6.2-2.8-6.2-6.3s2.7-6.2 6.2-6.2 6.3 2.8 6.3 6.2-2.8 6.3-6.3 6.3zM93.8 65.6v3.1h-75v-31.2h75v28.1zM93.8 31.2h-75v-15.6c0-1.7 1.4-3.1 3.1-3.1h68.7c1.7 0 3.2 1.4 3.2 3.1v15.6z"></path>
</svg>
