<?xml version="1.0" encoding="utf-8"?>
<!-- Generated by IcoMoon.io -->
<!DOCTYPE svg PUBLIC "-//W3C//DTD SVG 1.1//EN" "http://www.w3.org/Graphics/SVG/1.1/DTD/svg11.dtd">
<svg version="1.1" xmlns="http://www.w3.org/2000/svg" xmlns:xlink="http://www.w3.org/1999/xlink" width="100" height="100" viewBox="0 0 100 100">
<path d="M84.4 53.1c-1.1 0-2.1 0.2-3.1 0.3l-9.1-35.4c-0.4-1.5-1.8-2.4-3.3-2.4-0.1 0-0.1 0-0.1 0h-15.7c-1.7 0-3.1 1.4-3.1 3.1s1.4 3.2 3.1 3.2h13.2l1.6 6.3c-0.5 0.1-1.1 0.4-1.5 0.8l-25.9 27.9c-1.1-0.7-2.2-1.3-3.4-1.8 0-0.1 0.1-0.3 0-0.5l-12.3-24.5c-0.1-0.1-0.1-0.1-0.1-0.1l-0.1-0.3c-0.1-0.1-0.1-0.1-0.2-0.2-0.2-0.2-0.3-0.4-0.5-0.6-0.2-0.1-0.3-0.2-0.4-0.3-0.2-0.1-0.4-0.2-0.7-0.3-0.1 0-0.3 0-0.4-0.1-0.2 0-0.4-0.1-0.5-0.1h-12.5c-1.7 0-3.1 1.4-3.1 3.1s1.4 3.2 3.1 3.2h10.5l9.5 18.8c-0.4 0-0.8-0.1-1.3-0.1-12.1 0-21.8 9.8-21.8 21.9s9.7 21.9 21.8 21.9c11 0 20.1-8.2 21.6-18.8h13.1c1.5 10.6 10.6 18.8 21.6 18.8 12.1 0 21.9-9.8 21.9-21.9s-9.8-21.9-21.9-21.9zM28.1 78.1h15.3c-1.4 7.2-7.7 12.5-15.3 12.5-8.6 0-15.6-7-15.6-15.6s7-15.6 15.6-15.6c7.6 0 13.9 5.3 15.3 12.5h-15.3c-1.7 0-3.1 1.4-3.1 3.1s1.4 3.1 3.1 3.1zM49.7 71.9c-0.6-4-2.2-7.6-4.6-10.6l24.6-26.5 5.3 20.5c-6.5 3.1-11 9.3-12 16.6h-13.3zM84.4 90.6c-8.7 0-15.6-7-15.6-15.6s6.9-15.6 15.6-15.6 15.6 7 15.6 15.6c0 8.6-7 15.6-15.6 15.6z"></path>
</svg>
