<?xml version="1.0" encoding="utf-8"?>
<!-- Generated by IcoMoon.io -->
<!DOCTYPE svg PUBLIC "-//W3C//DTD SVG 1.1//EN" "http://www.w3.org/Graphics/SVG/1.1/DTD/svg11.dtd">
<svg version="1.1" xmlns="http://www.w3.org/2000/svg" xmlns:xlink="http://www.w3.org/1999/xlink" width="100" height="100" viewBox="0 0 100 100">
<path d="M78.1 51.7v-26.7h-12.5v-12.5c0-3.5-2.8-6.3-6.2-6.3h-6.3c-3.4 0-6.2 2.8-6.2 6.3v12.5h-12.5v26.7l-18.8 6.8 12.5 47.8h56.3l12.5-47.8-18.8-6.8zM53.1 15.6c0-1.7 1.4-3.1 3.2-3.1 1.7 0 3.1 1.4 3.1 3.1v9.4h-6.3v-9.4zM53.1 99.9h-20.2l-9.7-37.4 27.6-10 2.3-0.1v47.5zM40.6 49.4v-18.2h31.3v18.2l-15.7-5.7-15.6 5.7zM79.6 99.9h-20.2v-47.5l1.9-0.1 28 10.2-9.7 37.4z"></path>
</svg>
