<?xml version="1.0" encoding="utf-8"?>
<!-- Generated by IcoMoon.io -->
<!DOCTYPE svg PUBLIC "-//W3C//DTD SVG 1.1//EN" "http://www.w3.org/Graphics/SVG/1.1/DTD/svg11.dtd">
<svg version="1.1" xmlns="http://www.w3.org/2000/svg" xmlns:xlink="http://www.w3.org/1999/xlink" width="100" height="100" viewBox="0 0 100 100">
<path d="M93.8 6.2h-75c-7 0-12.5 5.6-12.5 12.5v62.5c0 7 5.5 12.6 12.5 12.6v6.2c0 3.5 2.8 6.3 6.2 6.3h6.3c3.4 0 6.2-2.8 6.2-6.3v-6.2h37.5v6.2c0 3.5 2.8 6.3 6.3 6.3h6.2c3.5 0 6.3-2.8 6.3-6.3v-6.2c6.9 0 12.5-5.6 12.5-12.6v-62.5c0-6.9-5.6-12.5-12.5-12.5zM12.5 31.2h12.5v31.3h-12.5v-31.3zM31.3 96.9c0 1.7-1.4 3.1-3.2 3.1-1.7 0-3.1-1.4-3.1-3.1v-3.1h6.3v3.1zM87.5 96.9c0 1.7-1.4 3.1-3.1 3.1s-3.1-1.4-3.1-3.1v-3.1h6.2v3.1zM100 81.2c0 3.5-2.8 6.3-6.2 6.3h-75c-3.5 0-6.3-2.8-6.3-6.3v-12.5h87.5v12.5zM31.3 62.5v-31.3h18.7v31.3h-18.7zM56.3 62.5v-31.3h18.7v31.3h-18.7zM100 62.5h-18.7v-31.3h18.7v31.3zM100 25h-87.5v-6.3c0-3.4 2.8-6.2 6.3-6.2h75c3.4 0 6.2 2.8 6.2 6.2v6.3z"></path>
</svg>
