<?xml version="1.0" encoding="utf-8"?>
<!-- Generated by IcoMoon.io -->
<!DOCTYPE svg PUBLIC "-//W3C//DTD SVG 1.1//EN" "http://www.w3.org/Graphics/SVG/1.1/DTD/svg11.dtd">
<svg version="1.1" xmlns="http://www.w3.org/2000/svg" xmlns:xlink="http://www.w3.org/1999/xlink" width="100" height="100" viewBox="0 0 100 100">
<path d="M43.8 25h25v-6.3h-25v6.3zM93.8 67.2v-54.7c0-3.5-2.8-6.3-6.3-6.3h-62.5c-3.5 0-6.2 2.8-6.2 6.3v56.2c0 0.1 0 0.1 0 0.1v12.5h75v-14.1zM37.5 75h-12.5v-12.5h6.2c0 0 0.1 0 0.1 0s0 0 0 0h6.2v12.5zM68.8 75h-25v-12.5h25v12.5zM87.5 75h-12.5v-12.5h6.3c0 0 0 0 0 0h6.2v12.5zM87.5 53.1v3.1h-62.5v-18.7h62.5v15.6zM87.5 31.2h-62.5v-15.6c0-1.7 1.4-3.1 3.1-3.1h56.3c1.7 0 3.1 1.4 3.1 3.1v15.6zM6.3 100v6.3h100v-6.3h-100zM100 87.5h-87.5v6.3h87.5v-6.3z"></path>
</svg>
