<?xml version="1.0" encoding="utf-8"?>
<!-- Generated by IcoMoon.io -->
<!DOCTYPE svg PUBLIC "-//W3C//DTD SVG 1.1//EN" "http://www.w3.org/Graphics/SVG/1.1/DTD/svg11.dtd">
<svg version="1.1" xmlns="http://www.w3.org/2000/svg" xmlns:xlink="http://www.w3.org/1999/xlink" width="100" height="100" viewBox="0 0 100 100">
<path d="M84.7 46.9l-5.3-19.1c1.1-0.5 1.9-1.5 1.9-2.8 0-1.7-1.5-3.1-3.2-3.1h-2.4c-0.1 0-0.1 0-0.1 0h-10c-1.7 0-3.1 1.4-3.1 3.1s1.4 3.1 3.1 3.1h7l5.2 18.8h-34v-12.5h3.1c1.7 0 3.1-1.4 3.1-3.2s-1.4-3.1-3.1-3.1h-12.5c-1.7 0-3.1 1.4-3.1 3.1s1.4 3.2 3.1 3.2h3.1v12.5h-9.4c-12.1 0-21.8 9.8-21.8 21.8s9.7 21.9 21.8 21.9c11 0 20.1-8.1 21.6-18.7h13.1c1.5 10.6 10.6 18.7 21.6 18.7 12.1 0 21.9-9.8 21.9-21.9 0-11.9-9.7-21.6-21.6-21.8zM28.1 84.4c-8.6 0-15.6-7-15.6-15.7s7-15.6 15.6-15.6c7.6 0 13.9 5.4 15.3 12.5h-15.3c-1.7 0-3.1 1.4-3.1 3.1s1.4 3.2 3.1 3.2h15.3c-1.4 7.1-7.7 12.5-15.3 12.5zM62.8 65.6h-13.1c-0.7-4.9-3.1-9.2-6.4-12.5h26.2c-3.5 3.3-6 7.6-6.7 12.5zM84.4 84.4c-8.7 0-15.6-7-15.6-15.7 0-7 4.6-12.8 11-14.8l4.3 15.6c0.4 1.7 2.3 2.8 4 2.3 1.8-0.5 2.9-2.2 2.4-4l-4-14.5c7.6 1.1 13.5 7.5 13.5 15.4 0 8.7-7 15.7-15.6 15.7z"></path>
</svg>
