<?xml version="1.0" encoding="utf-8"?>
<!-- Generated by IcoMoon.io -->
<!DOCTYPE svg PUBLIC "-//W3C//DTD SVG 1.1//EN" "http://www.w3.org/Graphics/SVG/1.1/DTD/svg11.dtd">
<svg version="1.1" xmlns="http://www.w3.org/2000/svg" xmlns:xlink="http://www.w3.org/1999/xlink" width="100" height="100" viewBox="0 0 100 100">
<path d="M101.9 70c-1.8-1.7-14.5-5-21-6.6 6.1-5.8 9.7-15.5 9.7-24.8 0-14.4-3.9-26.1-21.9-26.1-5.6 0-9.8 1.3-13 3.3 4.4 0.4 7.8 1.4 10.5 3.2 0.8-0.1 1.6-0.3 2.5-0.3 13.1 0 15.7 9 15.7 20.1 0 8-3.3 16.8-8.7 21.1v4.1l0.9 2.9c6.5 1.7 17.5 4.6 20.1 5.8 3.7 1.6 4.9 10 0 11.7l-9.5-0.1c0.3 2 0.4 4.1 0 6.1 15.5-0.5 16.8-1.6 16.8-1.6 4.1-5.7 2.1-15-2.1-18.8zM55.7 72.7c6.2-6.1 9.9-16.5 9.9-26.4 0-15.2-3.9-27.6-21.9-27.6s-21.8 12.4-21.8 27.6c0 10 3.7 20.4 10 26.5-6.5 1.6-19.3 4.8-21.3 6.6-4.1 3.7-6.2 13.1-2.1 18.7 0 0 2.4 1.9 35.4 1.9s35.1-1.9 35.1-1.9c4.1-5.6 2.1-15-2.1-18.7-1.9-1.7-14.9-5.1-21.2-6.7zM71.7 93.8l-28.3-0.1c0 0-27.7 0.1-27.7 0.1-5.6-2-2.8-10.1 1-11.8 2.8-1.2 13.8-4.5 19.3-6.1l0.7-2.5v-4.3c-5.4-4.6-8.6-14-8.6-22.6 0-11.8 2.6-21.5 15.6-21.5s15.7 9.6 15.7 21.5c0 8.6-3.2 18-8.6 22.6v4.3l0.8 2.8c6.5 1.7 17.5 4.6 20.1 5.8 3.7 1.7 4.9 10 0 11.8z"></path>
</svg>
