<?xml version="1.0" encoding="utf-8"?>
<!-- Generated by IcoMoon.io -->
<!DOCTYPE svg PUBLIC "-//W3C//DTD SVG 1.1//EN" "http://www.w3.org/Graphics/SVG/1.1/DTD/svg11.dtd">
<svg version="1.1" xmlns="http://www.w3.org/2000/svg" xmlns:xlink="http://www.w3.org/1999/xlink" width="100" height="100" viewBox="0 0 100 100">
<path d="M65.3 68.7c7.2 0 16.5 0 19.1 0-6.3 0-6.3-28.1-6.3-28.1h-0.1c0.1-0.8 0.2-1.6 0.2-2.4 0-17.7-5.2-32-28.2-32s-28.1 14.3-28.1 31.9c0 0.9 0.1 1.7 0.1 2.5h-0.1c0 0 0 28.1-6.3 28.1 2.6 0 11.9 0 19.2 0 1.5 1.3 3 2.5 4.7 3.5-4.9 1.2-25.4 6.3-28.1 8.9-4.9 4.5-7.3 16-2.5 22.9 0 0 2.8 2.2 41.3 2.2 7.5 0 13.6 0 18.6-0.2v-6l-19.2-0.1c0 0-33.9 0.1-33.9 0.1-6.9-2.6-3.4-13.4 1.1-15.6 4.3-2.1 23.1-8 27-9.2v-7.8c-2.6-1.1-4.9-2.8-6.9-4.9-2.2 0-10.3 0-11.9 0 3.2 0 3.2-21.9 3.2-21.9h0.1c0-0.8-0.1-1.6-0.1-2.3 0-14.3 3.6-25.8 21.8-25.8s21.9 11.5 21.9 25.8c0 0.7-0.1 1.5-0.2 2.3h0.2c0 0 0 21.9 3.1 21.9-1.6 0-9.7 0-11.9 0-2 2.1-4.3 3.8-6.8 4.9v8.3c2.8 0.8 7.6 2.1 12.5 3.6v-4.3h2.8c-4.8-1.4-9.3-2.5-11-2.9 1.7-0.9 3.2-2.1 4.7-3.4zM98.3 93.7l7-6.9c1.2-1.3 1.2-3.4 0-4.6-1.3-1.3-3.4-1.3-4.7 0l-6.9 6.9-6.9-6.9c-1.3-1.3-3.3-1.3-4.6 0-1.3 1.2-1.3 3.3 0 4.6l6.9 6.9-6.9 6.9c-1.3 1.3-1.3 3.4 0 4.6 1.3 1.3 3.3 1.3 4.6 0l6.9-6.9 6.9 6.9c1.3 1.3 3.4 1.3 4.7 0 1.2-1.2 1.2-3.3 0-4.6l-7-6.9z"></path>
</svg>
