<?xml version="1.0" encoding="utf-8"?>
<!-- Generated by IcoMoon.io -->
<!DOCTYPE svg PUBLIC "-//W3C//DTD SVG 1.1//EN" "http://www.w3.org/Graphics/SVG/1.1/DTD/svg11.dtd">
<svg version="1.1" xmlns="http://www.w3.org/2000/svg" xmlns:xlink="http://www.w3.org/1999/xlink" width="100" height="100" viewBox="0 0 100 100">
<path d="M56.3 62.5c-1.8 0-3.2 1.4-3.2 3.1v18.8c0 1.7 1.4 3.1 3.2 3.1s3.1-1.4 3.1-3.1v-18.8c0-1.7-1.4-3.1-3.1-3.1zM84.4 43.7v-9.3c0-15.6-12.6-28.2-28.1-28.2-15.6 0-28.2 12.6-28.2 28.2v9.3c-6.9 0-12.5 5.6-12.5 12.5v37.6c0 6.9 5.6 12.5 12.5 12.5h56.3c6.9 0 12.5-5.6 12.5-12.5v-37.6c0-6.9-5.6-12.5-12.5-12.5zM34.4 34.4c0-12.1 9.8-21.9 21.9-21.9 12 0 21.8 9.8 21.8 21.9v9.3h-43.7v-9.3zM90.6 93.8c0 3.4-2.8 6.2-6.2 6.2h-56.3c-3.4 0-6.2-2.8-6.2-6.2v-37.6c0-3.4 2.8-6.2 6.2-6.2h56.3c3.4 0 6.2 2.8 6.2 6.2v37.6z"></path>
</svg>
