<?xml version="1.0" encoding="utf-8"?>
<!-- Generated by IcoMoon.io -->
<!DOCTYPE svg PUBLIC "-//W3C//DTD SVG 1.1//EN" "http://www.w3.org/Graphics/SVG/1.1/DTD/svg11.dtd">
<svg version="1.1" xmlns="http://www.w3.org/2000/svg" xmlns:xlink="http://www.w3.org/1999/xlink" width="100" height="100" viewBox="0 0 100 100">
<path d="M84.4 56.2h-4.9c1.6 1.9 2.9 4 3.7 6.3h1.2c6.9 0 12.5 5.6 12.5 12.5s-5.6 12.5-12.5 12.5v6.3c10.3 0 18.7-8.4 18.7-18.8s-8.4-18.8-18.7-18.8zM96.9 31.2c0-13.8-9.8-25-21.9-25-3.3 0-6.4 1-9.3 2.5 1.6 1.4 3.1 3.1 4.5 4.8 1.5-0.6 3.1-1 4.8-1 8.6 0 15.6 8.4 15.6 18.7 0 9.9-6.4 17.9-14.4 18.7-0.3 0.9-0.7 1.9-1.1 2.8 1.5 0.8 2.8 1.9 4 3.1 10.1-2.2 17.8-12.4 17.8-24.6zM65.3 57.3c4.1-5.4 6.6-12.2 6.6-19.8 0-17.3-12.6-31.3-28.1-31.3-15.6 0-28.2 14-28.2 31.3 0 7.6 2.5 14.4 6.6 19.8-7.5 2.5-12.8 9.4-12.8 17.7v12.5c0 10.4 8.4 18.8 18.7 18.8h31.3c10.3 0 18.7-8.4 18.7-18.8v-12.5c0-8.3-5.3-15.2-12.8-17.7zM21.9 37.5c0-13.8 9.8-25 21.9-25s21.8 11.2 21.8 25c0 13.8-9.8 25-21.8 25s-21.9-11.2-21.9-25zM71.9 87.5c0 6.9-5.6 12.5-12.5 12.5h-31.3c-6.9 0-12.5-5.6-12.5-12.5v-12.5c0-6.6 5.1-11.9 11.5-12.4 4.7 3.8 10.4 6.1 16.7 6.1 6.2 0 11.9-2.3 16.6-6.1 6.4 0.5 11.5 5.8 11.5 12.4v12.5z"></path>
</svg>
