<?xml version="1.0" encoding="utf-8"?>
<!-- Generated by IcoMoon.io -->
<!DOCTYPE svg PUBLIC "-//W3C//DTD SVG 1.1//EN" "http://www.w3.org/Graphics/SVG/1.1/DTD/svg11.dtd">
<svg version="1.1" xmlns="http://www.w3.org/2000/svg" xmlns:xlink="http://www.w3.org/1999/xlink" width="100" height="100" viewBox="0 0 100 100">
<path d="M74.5 71.6c-3.8-4.1-8.5-7.5-13.9-9.6 8.6-4.8 14.4-14 14.4-24.5 0-15.5-12.6-28.1-28.1-28.1-15.6 0-28.1 12.6-28.1 28.1 0 10.5 5.7 19.7 14.3 24.5-13.9 5.5-23.7 19-23.7 34.9v6.2h6.2v-6.2c0-17.3 14-31.3 31.3-31.3 9.3 0 17.6 4.2 23.3 10.7 1.2-1.8 2.7-3.3 4.3-4.7zM25 37.5c0-12.1 9.8-21.9 21.9-21.9s21.9 9.8 21.9 21.9c0 12.1-9.8 21.9-21.9 21.9s-21.9-9.8-21.9-21.9zM102.2 78.8c-1.1-1.2-3.1-1.2-4.2 0l-16.9 16.9-4.3-4.3c-1.1-1.2-3-1.2-4.2 0s-1.2 3.1 0 4.3l5.8 5.8c0.1 0.3 0.3 0.5 0.5 0.7 0.6 0.6 1.4 0.9 2.2 0.9s1.6-0.3 2.3-0.9c0.2-0.2 0.3-0.4 0.4-0.7l18.4-18.4c1.2-1.2 1.2-3.1 0-4.3z"></path>
</svg>
