<?xml version="1.0" encoding="utf-8"?>
<!-- Generated by IcoMoon.io -->
<!DOCTYPE svg PUBLIC "-//W3C//DTD SVG 1.1//EN" "http://www.w3.org/Graphics/SVG/1.1/DTD/svg11.dtd">
<svg version="1.1" xmlns="http://www.w3.org/2000/svg" xmlns:xlink="http://www.w3.org/1999/xlink" width="100" height="100" viewBox="0 0 100 100">
<path d="M90.7 31.2h12.4c1.8 0 3.2-1.4 3.2-3.1s-1.4-3.1-3.2-3.1h-12.4c-1.8 0-3.2 1.4-3.2 3.1s1.4 3.1 3.2 3.1zM62.3 72.1c11.1-6 18-20.4 18-34 0-17.6-5.2-31.9-29-31.9-23.7 0-29 14.3-29 31.9 0 13.7 7 28.1 18.2 34-5 1.2-26.5 6.4-29.3 8.9-5 4.6-7.1 18.4-2 25.3l42.3-0.1 42 0.1c5-6.9 3-20.7-2-25.2-2.7-2.6-24.9-8-29.2-9zM89.5 100h-76.3c-1.3-4.7 0-11.8 2.1-14.1 3.3-1.6 14.6-5.2 26.9-7.8h2.7v-10.8c-10-4.1-16.1-17.2-16.1-29 0-14.3 3.8-25.8 22.5-25.8s22.5 11.5 22.5 25.8c0 11.8-6 24.9-16 29v10.8h3c12.2 2.6 23.3 6.2 26.6 7.8 2.1 2.4 3.4 9.4 2.1 14.1zM103.1 62.5h-6.2c-1.7 0-3.1 1.4-3.1 3.1s1.4 3.1 3.1 3.1h6.2c1.8 0 3.2-1.4 3.2-3.1s-1.4-3.1-3.2-3.1zM103.1 43.7h-12.4c-1.8 0-3.2 1.4-3.2 3.2s1.4 3.1 3.2 3.1h12.4c1.8 0 3.2-1.4 3.2-3.1s-1.4-3.2-3.2-3.2zM103.1 81.2c-1.7 0-3.1 1.5-3.1 3.2s1.4 3.1 3.1 3.1c1.8 0 3.2-1.4 3.2-3.1s-1.4-3.2-3.2-3.2z"></path>
</svg>
