<?xml version="1.0" encoding="utf-8"?>
<!-- Generated by IcoMoon.io -->
<!DOCTYPE svg PUBLIC "-//W3C//DTD SVG 1.1//EN" "http://www.w3.org/Graphics/SVG/1.1/DTD/svg11.dtd">
<svg version="1.1" xmlns="http://www.w3.org/2000/svg" xmlns:xlink="http://www.w3.org/1999/xlink" width="100" height="100" viewBox="0 0 100 100">
<path d="M78.1 31.2h25c1.8 0 3.2-1.4 3.2-3.1s-1.4-3.1-3.2-3.1h-25c-1.7 0-3.1 1.4-3.1 3.1s1.4 3.1 3.1 3.1zM103.1 43.7h-25c-1.7 0-3.1 1.4-3.1 3.2 0 1.7 1.4 3.1 3.1 3.1h25c1.8 0 3.2-1.4 3.2-3.1 0-1.8-1.4-3.2-3.2-3.2zM62.2 57.3c4-5.4 6.6-12.2 6.6-19.8 0-17.3-12.6-31.3-28.2-31.3s-28.1 14-28.1 31.3c0 7.6 2.5 14.4 6.5 19.8-7.4 2.5-12.7 9.4-12.7 17.7v12.5c0 10.4 8.3 18.8 18.7 18.8h31.3c10.3 0 18.7-8.4 18.7-18.8v-12.5c0-8.3-5.4-15.2-12.8-17.7zM18.8 37.5c0-13.8 9.7-25 21.8-25s21.9 11.2 21.9 25-9.8 25-21.9 25-21.8-11.2-21.8-25zM68.8 87.5c0 6.9-5.6 12.5-12.5 12.5h-31.3c-6.9 0-12.5-5.6-12.5-12.5v-12.5c0-6.6 5.1-11.9 11.5-12.4 4.7 3.8 10.4 6.1 16.6 6.1s12-2.3 16.6-6.1c6.5 0.5 11.6 5.8 11.6 12.4v12.5zM103.1 62.5h-18.7c-1.7 0-3.1 1.4-3.1 3.1s1.4 3.1 3.1 3.1h18.7c1.8 0 3.2-1.4 3.2-3.1s-1.4-3.1-3.2-3.1zM103.1 81.2h-18.7c-1.7 0-3.1 1.5-3.1 3.2s1.4 3.1 3.1 3.1h18.7c1.8 0 3.2-1.4 3.2-3.1s-1.4-3.2-3.2-3.2z"></path>
</svg>
