<?xml version="1.0" encoding="utf-8"?>
<!-- Generated by IcoMoon.io -->
<!DOCTYPE svg PUBLIC "-//W3C//DTD SVG 1.1//EN" "http://www.w3.org/Graphics/SVG/1.1/DTD/svg11.dtd">
<svg version="1.1" xmlns="http://www.w3.org/2000/svg" xmlns:xlink="http://www.w3.org/1999/xlink" width="100" height="100" viewBox="0 0 100 100">
<path d="M56.3 6.2c-27.7 0-50 22.4-50 50s22.3 50.1 50 50.1c27.6 0 50-22.4 50-50.1s-22.4-50-50-50zM56.3 100c-9.7 0-18.5-3.2-25.8-8.5 1.3-2.2 3.6-5.6 7.1-9.1 2.6-2.6 5.8-5.2 8.6-7.4 3 1.9 6.4 3.1 10.1 3.1s7-1.2 10-3.1c2.8 2.2 6 4.8 8.6 7.4 3.5 3.5 5.8 6.9 7.1 9.1-7.3 5.3-16.1 8.5-25.7 8.5zM40.6 51.6c0-11.3 7-20.4 15.7-20.4s15.6 9.1 15.6 20.4c0 11.2-7 20.3-15.6 20.3s-15.7-9.1-15.7-20.3zM86.6 87.7c-1.2-2.1-3.4-5.7-7.1-9.4-2.6-2.5-5.7-5.1-8.5-7.3 4.4-4.8 7.1-11.7 7.1-19.4 0-14.7-9.8-26.6-21.8-26.6-12.1 0-21.9 11.9-21.9 26.6 0 7.7 2.7 14.6 7.1 19.4-2.8 2.2-5.9 4.8-8.5 7.3-3.7 3.7-5.9 7.3-7.1 9.4-8.2-8-13.4-19.1-13.4-31.5 0-24.1 19.6-43.7 43.8-43.7 24.1 0 43.7 19.6 43.7 43.7 0 12.4-5.2 23.5-13.4 31.5z"></path>
</svg>
