<?xml version="1.0" encoding="utf-8"?>
<!-- Generated by IcoMoon.io -->
<!DOCTYPE svg PUBLIC "-//W3C//DTD SVG 1.1//EN" "http://www.w3.org/Graphics/SVG/1.1/DTD/svg11.dtd">
<svg version="1.1" xmlns="http://www.w3.org/2000/svg" xmlns:xlink="http://www.w3.org/1999/xlink" width="100" height="100" viewBox="0 0 100 100">
<path d="M34.4 81.2h18.7c1.8 0 3.2-1.4 3.2-3.1s-1.4-3.1-3.2-3.1h-18.7c-1.7 0-3.1 1.4-3.1 3.1s1.4 3.1 3.1 3.1zM81.3 6.2c-13.9 0-25 11.2-25 25v12.5h-37.5c-7 0-12.5 5.9-12.5 13.2v36.2c0 7.3 5.5 13.2 12.5 13.2h50c6.9 0 12.5-5.9 12.5-13.2v-36.2c0-7.3-5.6-13.2-12.5-13.2h-6.3v-12.5c0-10.3 8.4-18.7 18.8-18.7s18.7 8.4 18.7 18.7v6.3h6.3v-6.3c0-13.8-11.2-25-25-25zM68.8 49.9c3.4 0 6.2 3 6.2 6.7v36.8c0 3.7-2.8 6.7-6.2 6.7h-50c-3.5 0-6.3-3-6.3-6.7v-36.8c0-3.7 2.8-6.7 6.3-6.7h50z"></path>
</svg>
