<?xml version="1.0" encoding="utf-8"?>
<!-- Generated by IcoMoon.io -->
<!DOCTYPE svg PUBLIC "-//W3C//DTD SVG 1.1//EN" "http://www.w3.org/Graphics/SVG/1.1/DTD/svg11.dtd">
<svg version="1.1" xmlns="http://www.w3.org/2000/svg" xmlns:xlink="http://www.w3.org/1999/xlink" width="100" height="100" viewBox="0 0 100 100">
<path d="M56.3 6.2c-17.3 0-31.3 18.2-31.3 40.7 0 13.9 5.4 26.1 13.6 33.4-14.7 6.1-32.3 15.6-32.3 19.7 0 4.5 2.8 6.3 6.2 6.3h56.3v-6.3h-54.6c5.7-4.3 19.9-11.3 30.5-15.4 3.6 1.8 7.5 2.9 11.6 2.9s7.9-1.1 11.5-2.9c0.3 0.1 0.6 0.2 1 0.3v-0.8c11-6.3 18.7-20.6 18.7-37.2 0-22.5-14-40.7-31.2-40.7zM56.3 81.2c-13.8 0-25-15.3-25-34.3s11.2-34.4 25-34.4 25 15.4 25 34.4c0 19-11.2 34.3-25 34.3zM98.3 93.7l7-6.9c1.2-1.3 1.2-3.4 0-4.6s-3.4-1.3-4.7 0l-6.9 6.9-6.9-6.9c-1.3-1.3-3.3-1.3-4.6 0s-1.3 3.3 0 4.6l6.9 6.9-6.9 6.9c-1.3 1.3-1.3 3.4 0 4.7 1.3 1.2 3.3 1.2 4.6 0l6.9-7 6.9 7c1.3 1.2 3.4 1.2 4.7 0 1.2-1.3 1.2-3.4 0-4.7l-7-6.9z"></path>
</svg>
