<?xml version="1.0" encoding="utf-8"?>
<!-- Generated by IcoMoon.io -->
<!DOCTYPE svg PUBLIC "-//W3C//DTD SVG 1.1//EN" "http://www.w3.org/Graphics/SVG/1.1/DTD/svg11.dtd">
<svg version="1.1" xmlns="http://www.w3.org/2000/svg" xmlns:xlink="http://www.w3.org/1999/xlink" width="100" height="100" viewBox="0 0 100 100">
<path d="M88.6 87.4l7.3-7.4c1.2-1.2 1.2-3.1 0-4.3-1.1-1.2-3-1.2-4.2 0l-7.4 7.4-7.4-7.4c-1.1-1.2-3-1.2-4.2 0s-1.2 3.1 0 4.3l7.4 7.4-7.4 7.4c-1.2 1.2-1.2 3.1 0 4.3s3.1 1.2 4.2 0l7.4-7.4 7.4 7.4c1.2 1.2 3.1 1.2 4.2 0 1.2-1.2 1.2-3.1 0-4.3l-7.3-7.4zM34 62.6c4.8 3.8 10.7 6.2 17.2 6.2s12.3-2.4 17.1-6.2c4.3 0.3 8 2.7 10.1 6.2h7.1c-2-5.4-6.4-9.7-12-11.5 4.1-5.4 6.7-12.2 6.7-19.8 0-17.3-13-31.3-29-31.3s-29.1 14-29.1 31.3c0 7.6 2.6 14.4 6.8 19.8-7.7 2.5-13.2 9.4-13.2 17.7v12.5c0 10.4 8.7 18.8 19.3 18.8h30.7v-6.3h-30.7c-7.1 0-12.9-5.6-12.9-12.5v-12.5c0-6.6 5.3-11.9 11.9-12.4zM28.6 37.5c0-13.8 10.1-25 22.6-25 12.4 0 22.6 11.2 22.6 25s-10.2 25-22.6 25c-12.5 0-22.6-11.2-22.6-25z"></path>
</svg>
