<?xml version="1.0" encoding="utf-8"?>
<!-- Generated by IcoMoon.io -->
<!DOCTYPE svg PUBLIC "-//W3C//DTD SVG 1.1//EN" "http://www.w3.org/Graphics/SVG/1.1/DTD/svg11.dtd">
<svg version="1.1" xmlns="http://www.w3.org/2000/svg" xmlns:xlink="http://www.w3.org/1999/xlink" width="100" height="100" viewBox="0 0 100 100">
<path d="M99.1 75.7c-1.2-1.2-3.1-1.2-4.3 0l-16.8 16.9-4.2-4.3c-1.2-1.2-3.1-1.2-4.3 0-1.1 1.2-1.1 3.1 0 4.3l6.1 6.1c0.1 0.1 0.1 0.3 0.2 0.4 0.6 0.6 1.4 0.9 2.2 0.8 0.9 0.1 1.7-0.2 2.3-0.8 0.1-0.1 0.1-0.3 0.1-0.4l18.7-18.7c1.2-1.2 1.2-3.1 0-4.3zM30.9 62.6c4.8 3.8 10.7 6.1 17.2 6.1 6.4 0 12.3-2.3 17.2-6.1 4.3 0.3 8 2.7 10.1 6.1h7.1c-2-5.3-6.5-9.6-12.1-11.4 4.2-5.4 6.8-12.2 6.8-19.8 0-17.3-13.1-31.3-29.1-31.3-16.1 0-29.1 14-29.1 31.3 0 7.6 2.6 14.4 6.7 19.8-7.6 2.5-13.2 9.4-13.2 17.7v12.5c0 10.4 8.7 18.7 19.4 18.7l30.6 0.1v-6.3h-30.6c-7.1 0-12.9-5.6-12.9-12.5v-12.5c0-6.6 5.2-11.9 11.9-12.4zM25.4 37.5c0-13.8 10.2-25 22.7-25s22.6 11.2 22.6 25c0 13.8-10.1 25-22.6 25s-22.7-11.2-22.7-25z"></path>
</svg>
