<?xml version="1.0" encoding="utf-8"?>
<!-- Generated by IcoMoon.io -->
<!DOCTYPE svg PUBLIC "-//W3C//DTD SVG 1.1//EN" "http://www.w3.org/Graphics/SVG/1.1/DTD/svg11.dtd">
<svg version="1.1" xmlns="http://www.w3.org/2000/svg" xmlns:xlink="http://www.w3.org/1999/xlink" width="100" height="100" viewBox="0 0 100 100">
<path d="M56.3 37.5c-8.4 0-16 3.1-21.9 8.1v-13.5c0-10.8 9.8-19.6 21.9-19.6 11.7 0 21.2 8.3 21.7 18.7h6.3c-0.6-13.8-12.9-25-28-25-15.6 0-28.2 11.7-28.2 26v20c-3.9 5.6-6.2 12.3-6.2 19.7 0 19 15.4 34.4 34.4 34.4 18.9 0 34.3-15.4 34.3-34.4s-15.4-34.4-34.3-34.4zM56.3 100c-15.6 0-28.2-12.6-28.2-28.1s12.6-28.2 28.2-28.2c15.5 0 28.1 12.6 28.1 28.2s-12.6 28.1-28.1 28.1zM62.5 68.7h-12.5c-1.7 0-3.1 1.5-3.1 3.2s1.4 3.1 3.1 3.1h12.5c1.7 0 3.1-1.4 3.1-3.1s-1.4-3.2-3.1-3.2z"></path>
</svg>
