<?xml version="1.0" encoding="utf-8"?>
<!-- Generated by IcoMoon.io -->
<!DOCTYPE svg PUBLIC "-//W3C//DTD SVG 1.1//EN" "http://www.w3.org/Graphics/SVG/1.1/DTD/svg11.dtd">
<svg version="1.1" xmlns="http://www.w3.org/2000/svg" xmlns:xlink="http://www.w3.org/1999/xlink" width="100" height="100" viewBox="0 0 100 100">
<path d="M95 81.1c-2.7-2.5-23.9-7.9-28.1-9 1.6-0.9 3.1-2.1 4.6-3.4 7.2 0 16.5 0 19.1 0-6.2 0-6.2-28.1-6.2-28.1h-0.2c0.1-0.8 0.2-1.6 0.2-2.5 0-17.6-5.1-31.9-28.2-31.9-23 0-28.1 14.3-28.1 31.9 0 0.9 0.1 1.7 0.1 2.5h-0.1c0 0 0 28.1-6.2 28.1 2.6 0 11.9 0 19.1 0 1.5 1.3 3.1 2.5 4.8 3.5-4.9 1.2-25.5 6.3-28.2 8.9-4.9 4.5-7.3 16-2.4 22.9 0 0 2.7 2.3 41.2 2.3s41-2.3 41-2.3c4.8-6.9 2.4-18.4-2.4-22.9zM90.6 100l-34.8-0.1c0 0-33.9 0.1-33.9 0.1-6.9-2.6-3.4-13.4 1.2-15.6 4.2-2.1 23.1-8 26.9-9.2v-7.9c-2.5-1.1-4.9-2.7-6.8-4.8-2.3 0-10.3 0-11.9 0 3.1 0 3.1-21.9 3.1-21.9h0.2c-0.1-0.8-0.2-1.6-0.2-2.3 0-14.3 3.6-25.8 21.8-25.8s21.9 11.5 21.9 25.8c0 0.7-0.1 1.5-0.2 2.3h0.2c0 0 0 21.9 3.1 21.9-1.6 0-9.7 0-11.9 0-1.9 2.1-4.3 3.7-6.8 4.8v8.4c6.7 1.9 24.3 6.8 28.1 8.7 4.6 2.2 6 13.3 0 15.6z"></path>
</svg>
