<?xml version="1.0" encoding="utf-8"?>
<!-- Generated by IcoMoon.io -->
<!DOCTYPE svg PUBLIC "-//W3C//DTD SVG 1.1//EN" "http://www.w3.org/Graphics/SVG/1.1/DTD/svg11.dtd">
<svg version="1.1" xmlns="http://www.w3.org/2000/svg" xmlns:xlink="http://www.w3.org/1999/xlink" width="100" height="100" viewBox="0 0 100 100">
<path d="M93.8 6.2h-68.8c-3.4 0-6.2 2.8-6.2 6.3v12.5h-3.2c-1.7 0-3.1 1.4-3.1 3.1 0 1.8 1.4 3.1 3.1 3.1h3.2v12.5h-3.2c-1.7 0-3.1 1.4-3.1 3.2 0 1.7 1.4 3.1 3.1 3.1h3.2v12.5h-3.2c-1.7 0-3.1 1.4-3.1 3.1s1.4 3.1 3.1 3.1h3.2v12.5h-3.2c-1.7 0-3.1 1.4-3.1 3.2 0 1.7 1.4 3.1 3.1 3.1h3.2v12.5c0 3.5 2.8 6.3 6.2 6.3h68.8c3.4 0 6.2-2.8 6.2-6.3v-87.5c0-3.5-2.8-6.3-6.2-6.3zM75 100h-46.9c-1.7 0-3.1-1.4-3.1-3.1v-9.4h3.1c1.8 0 3.2-1.4 3.2-3.1 0-1.8-1.4-3.2-3.2-3.2h-3.1v-12.5h3.1c1.8 0 3.2-1.4 3.2-3.1s-1.4-3.1-3.2-3.1h-3.1v-12.5h3.1c1.8 0 3.2-1.4 3.2-3.1 0-1.8-1.4-3.2-3.2-3.2h-3.1v-12.5h3.1c1.8 0 3.2-1.3 3.2-3.1 0-1.7-1.4-3.1-3.2-3.1h-3.1v-9.4c0-1.7 1.4-3.1 3.1-3.1h46.9v87.5zM93.8 96.9c0 1.7-1.5 3.1-3.2 3.1h-9.3v-87.5h9.3c1.7 0 3.2 1.4 3.2 3.1v81.3z"></path>
</svg>
