<?xml version="1.0" encoding="utf-8"?>
<!-- Generated by IcoMoon.io -->
<!DOCTYPE svg PUBLIC "-//W3C//DTD SVG 1.1//EN" "http://www.w3.org/Graphics/SVG/1.1/DTD/svg11.dtd">
<svg version="1.1" xmlns="http://www.w3.org/2000/svg" xmlns:xlink="http://www.w3.org/1999/xlink" width="100" height="100" viewBox="0 0 100 100">
<path d="M101.9 73.1c-2.1-1.9-18.1-5.9-23.1-7.1 1.7-1 3.4-2.1 4.9-3.5 6.1 0 13.5 0 15.6 0-5.4 0-5.4-18.8-5.4-18.8h-0.6c0.3-1.7 0.4-3.4 0.4-5.1 0-14.4-4.5-26.1-25-26.1-3.6 0-6.6 0.5-9.3 1.2 4 1 7 2.7 9.3 5 0 0 0 0 0 0 15.7 0 18.8 9 18.8 20.1 0 0.8-0.1 1.7-0.2 2.6 0.2 5.4 0.8 14.8 2.9 14.8-1.1 0-5.8 0-9 0-1.1 1.3-2.3 2.3-3.5 3.2l0.4 11c6.6 1.7 16.2 4.3 18.6 5.4 3.7 1.6 4.9 10 0 11.7h-9.2v6c15.2-0.5 16.5-1.6 16.5-1.6 4.1-5.6 2.1-15-2.1-18.8zM76.9 79.4c-2.1-1.9-18.1-5.9-23.1-7.1 1.7-1 3.4-2.1 4.9-3.5 6.1 0 13.5 0 15.6 0-5.4 0-5.4-18.8-5.4-18.8h-0.6c0.3-1.7 0.4-3.4 0.4-5.1 0-14.5-4.5-26.1-25-26.1-20.4 0-25 11.6-25 26.1 0 0.6 0.2 1.3 0.2 2h-0.3c0 0 0 21.9-5.4 21.9 2.1 0 9.5 0 15.6 0 1.5 1.4 3.2 2.5 5 3.5-5.2 1.3-21 5.1-23.2 7.1-4.1 3.7-6.2 13.1-2.1 18.7 0 0 2.4 1.9 35.4 1.9s35.1-1.9 35.1-1.9c1-1.3 1.6-2.8 1.9-4.4 0.1-0.1 0.2-0.1 0.4-0.1v-0.9c-0.1 0-0.2 0-0.2 0 0.6-5-1.2-10.6-4.2-13.3zM71.7 93.8l-28.3-0.1c0 0-27.7 0-27.7 0.1-5.6-2-2.8-10.1 1-11.8 3.1-1.4 16.2-5.2 20.8-6.5v-8.2c-2.3-1.1-4.4-2.8-6.2-4.8-3.2 0-7.9 0-9 0 2.1 0 2.7-9.3 2.9-14.8-0.1-0.9-0.2-1.8-0.2-2.7 0-11 3.1-20 18.7-20 15.7 0 18.8 9 18.8 20 0 0.9-0.1 1.8-0.2 2.6 0.2 5.5 0.8 14.9 2.9 14.9-1.1 0-5.8 0-9 0-1.8 2-3.9 3.7-6.2 4.8v8.5c6.1 1.6 18.8 4.9 21.7 6.2 3.7 1.7 4.9 10 0 11.8z"></path>
</svg>
