<?xml version="1.0" encoding="utf-8"?>
<!-- Generated by IcoMoon.io -->
<!DOCTYPE svg PUBLIC "-//W3C//DTD SVG 1.1//EN" "http://www.w3.org/Graphics/SVG/1.1/DTD/svg11.dtd">
<svg version="1.1" xmlns="http://www.w3.org/2000/svg" xmlns:xlink="http://www.w3.org/1999/xlink" width="100" height="100" viewBox="0 0 100 100">
<path d="M103.1 87.5h-9.3v-9.4c0-1.7-1.4-3.1-3.2-3.1-1.7 0-3.1 1.4-3.1 3.1v9.4h-9.4c-1.7 0-3.1 1.4-3.1 3.1s1.4 3.2 3.1 3.2h9.4v9.3c0 1.7 1.4 3.2 3.1 3.2 1.8 0 3.2-1.5 3.2-3.2v-9.3h9.3c1.8 0 3.2-1.5 3.2-3.2s-1.4-3.1-3.2-3.1zM62.5 65.7v9.9c3.8 0.9 7.8 1.9 11.5 3 1.7-2.1 3.5-4 5.7-5.5-4.6-1.3-9.3-2.5-12.6-3.3 8.8-6.9 14.2-19.6 14.2-31.6 0-17.7-5.1-32-28.2-32-23 0-28.1 14.3-28.1 31.9 0 12.2 5.4 24.9 14.2 31.7-8.4 2.1-25.8 6.6-28.1 9-4.9 4.9-6.9 19.9-2 27.5h63.1c-1.1-2-2-4.1-2.6-6.3h-57.1c-1.3-5.1 0.5-13.4 2.6-16 3.1-1.7 16.8-5.5 28.7-8.3v-10c-7.9-5.3-12.5-16.9-12.5-27.4 0-14.3 3.6-25.8 21.8-25.8s21.9 11.5 21.9 25.8c0 10.5-4.7 22.1-12.5 27.4z"></path>
</svg>
