<?xml version="1.0" encoding="utf-8"?>
<!-- Generated by IcoMoon.io -->
<!DOCTYPE svg PUBLIC "-//W3C//DTD SVG 1.1//EN" "http://www.w3.org/Graphics/SVG/1.1/DTD/svg11.dtd">
<svg version="1.1" xmlns="http://www.w3.org/2000/svg" xmlns:xlink="http://www.w3.org/1999/xlink" width="100" height="100" viewBox="0 0 100 100">
<path d="M73.9 80.3c8.2-7.3 13.6-19.5 13.6-33.4 0-22.5-14-40.7-31.2-40.7s-31.3 18.2-31.3 40.7c0 13.9 5.4 26.1 13.6 33.4-14.7 6.1-32.3 15.6-32.3 19.7 0 4.5 2.8 6.3 6.2 6.3h87.5c3.5 0 6.3-1.4 6.3-6.3 0-4.1-17.6-13.6-32.4-19.7zM31.3 46.9c0-19 11.1-34.4 25-34.4 13.8 0 25 15.4 25 34.4s-11.2 34.4-25 34.4c-13.9-0.1-25-15.4-25-34.4zM14.2 100c5.7-4.3 19.9-11.3 30.5-15.4 3.6 1.8 7.5 2.9 11.6 2.9 4 0 7.9-1.1 11.5-2.9 10.6 4.1 24.8 11.1 30.5 15.4h-84.1z"></path>
</svg>
