<?xml version="1.0" encoding="utf-8"?>
<!-- Generated by IcoMoon.io -->
<!DOCTYPE svg PUBLIC "-//W3C//DTD SVG 1.1//EN" "http://www.w3.org/Graphics/SVG/1.1/DTD/svg11.dtd">
<svg version="1.1" xmlns="http://www.w3.org/2000/svg" xmlns:xlink="http://www.w3.org/1999/xlink" width="100" height="100" viewBox="0 0 100 100">
<path d="M37.5 72.7v-6.9c-1.4-1-2.8-2-4-3.3-4 0-9.7 0-11.6 0 4.5 0 3.1-21.9 3.1-21.9h0.1c-0.1-0.2-0.1-0.4-0.1-0.6 0-13.5 3.6-27.5 21.9-27.5s21.8 14 21.8 27.5c0 0.2 0 0.4 0 0.6v0c0 0 0.2 21.9 3.2 21.9-1.4 0-7.5 0-11.7 0-1.2 1.3-2.5 2.3-3.9 3.3v6.9c2.1-1 4.1-2.4 6-4 7.7 0 16.6 0 18.9 0-4.5 0-6.1-15.9-6.6-23.7 0.3-1.8 0.4-3.5 0.4-5.2 0-16.8-5.1-33.6-28.1-33.6s-28.1 16.8-28.1 33.6c0 1.8 0.1 3.5 0.3 5.2-0.5 8-2 23.8-6.6 23.8 2.3 0 11.2 0 18.9 0 1.9 1.5 3.9 2.8 6.1 3.9zM84.4 31.2h18.7c1.7 0 3.1-1.4 3.1-3.1s-1.4-3.1-3.1-3.1h-18.7c-1.7 0-3.2 1.4-3.2 3.1s1.5 3.1 3.2 3.1zM57.9 73h-1.6v6.4c6.4 2 18 5.5 21.2 6.9 4.3 2 5.6 11.7 0 13.7l-29.5-0.1c0 0-31.8 0.1-31.8 0.1-6.5-2.3-3.2-11.7 1.1-13.7 2.9-1.3 13.5-4.5 20.2-6.5v-6.4c-5.6 1.4-23.8 6.1-26.3 8.4-4.7 4.5-7.1 15.6-2.4 22.2 0 0 2.7 2.3 39.8 2.3s36.4-2.3 36.4-2.3c4.6-6.6 2.3-17.7-2.4-22.2-2.8-2.6-24.7-8.8-24.7-8.8zM103.1 43.7h-18.7c-1.7 0-3.2 1.5-3.2 3.2s1.5 3.1 3.2 3.1h18.7c1.7 0 3.1-1.4 3.1-3.1s-1.4-3.2-3.1-3.2zM103.1 81.2h-6.2c-1.7 0-3.2 1.5-3.2 3.2s1.5 3.1 3.2 3.1h6.2c1.7 0 3.1-1.4 3.1-3.1s-1.4-3.2-3.1-3.2zM103.1 62.5h-12.5c-1.7 0-3.1 1.4-3.1 3.1s1.4 3.1 3.1 3.1h12.5c1.7 0 3.1-1.4 3.1-3.1s-1.4-3.1-3.1-3.1z"></path>
</svg>
