<?xml version="1.0" encoding="utf-8"?>
<!-- Generated by IcoMoon.io -->
<!DOCTYPE svg PUBLIC "-//W3C//DTD SVG 1.1//EN" "http://www.w3.org/Graphics/SVG/1.1/DTD/svg11.dtd">
<svg version="1.1" xmlns="http://www.w3.org/2000/svg" xmlns:xlink="http://www.w3.org/1999/xlink" width="100" height="100" viewBox="0 0 100 100">
<path d="M81.3 38.1c0-17.6-5.1-31.9-28.2-31.9-23 0-28.1 14.3-28.1 31.9 0 12.2 5.4 24.9 14.2 31.7-8.4 2.1-25.8 6.6-28.1 9-4.9 5-6.9 20-2 27.4h63.1c-1.1-1.9-2-4-2.5-6.2h-57.2c-1.3-5.2 0.5-13.4 2.6-16 3.1-1.7 16.8-5.5 28.7-8.3v-10c-7.9-5.3-12.5-16.9-12.5-27.4 0-14.3 3.6-25.8 21.8-25.8 18.3 0 21.9 11.5 21.9 25.8 0 10.5-4.6 22.1-12.5 27.4v9.9c3.8 0.9 7.8 1.9 11.5 3 1.7-2.1 3.5-4 5.7-5.5-4.6-1.3-9.3-2.5-12.5-3.3 8.7-6.9 14.1-19.6 14.1-31.7zM98 93.8l7.4-7.4c1.2-1.2 1.2-3.1 0-4.3-1.2-1.1-3.1-1.1-4.3 0l-7.3 7.4-7.4-7.4c-1.2-1.1-3.1-1.1-4.2 0s-1.2 3.1 0 4.3l7.3 7.4-7.3 7.3c-1.2 1.2-1.2 3.1 0 4.3 1.1 1.1 3 1.1 4.2 0l7.4-7.4 7.3 7.4c1.2 1.1 3.1 1.1 4.3 0 1.2-1.2 1.2-3.1 0-4.3l-7.4-7.3z"></path>
</svg>
