<?xml version="1.0" encoding="utf-8"?>
<!-- Generated by IcoMoon.io -->
<!DOCTYPE svg PUBLIC "-//W3C//DTD SVG 1.1//EN" "http://www.w3.org/Graphics/SVG/1.1/DTD/svg11.dtd">
<svg version="1.1" xmlns="http://www.w3.org/2000/svg" xmlns:xlink="http://www.w3.org/1999/xlink" width="100" height="100" viewBox="0 0 100 100">
<path d="M78.1 50c0-11-8.1-20-18.7-21.6v6.3c7.1 1.4 12.5 7.7 12.5 15.3 0 7.5-5.4 13.9-12.5 15.3v6.2c10.6-1.5 18.7-10.5 18.7-21.5zM59.4 6.9v6.2c17.7 3 31.2 18.3 31.2 36.9s-13.5 33.9-31.2 36.9v6.2c21.2-3 37.5-21.1 37.5-43.1s-16.3-40.1-37.5-43.1zM9.4 31.2c-3.5 0-6.3 2.8-6.3 6.3v25c0 3.5 2.8 6.2 6.3 6.2h12.5l31.2 18.8v-75l-31.2 18.7h-12.5zM46.9 78.1l-25-15.6h-9.4c-1.7 0-3.1-1.4-3.1-3.1v-18.8c0-1.7 1.4-3.1 3.1-3.1h9.4l25-15.6v56.2z"></path>
</svg>
