<?xml version="1.0" encoding="utf-8"?>
<!-- Generated by IcoMoon.io -->
<!DOCTYPE svg PUBLIC "-//W3C//DTD SVG 1.1//EN" "http://www.w3.org/Graphics/SVG/1.1/DTD/svg11.dtd">
<svg version="1.1" xmlns="http://www.w3.org/2000/svg" xmlns:xlink="http://www.w3.org/1999/xlink" width="100" height="100" viewBox="0 0 100 100">
<path d="M18.7 31.2c-3.4 0-6.2 2.8-6.2 6.3v25c0 3.4 2.8 6.2 6.2 6.2h12.5l31.3 18.8v-75l-31.3 18.7h-12.5zM56.2 78.1l-25-15.6h-9.3c-1.8 0-3.2-1.4-3.2-3.1v-18.8c0-1.7 1.4-3.1 3.2-3.1h9.3l25-15.6v56.2zM68.7 28.4v6.3c7.2 1.4 12.5 7.7 12.5 15.3 0 7.5-5.3 13.9-12.5 15.3v6.2c10.6-1.5 18.8-10.5 18.8-21.5s-8.2-20-18.8-21.6z"></path>
</svg>
