<?xml version="1.0" encoding="utf-8"?>
<!-- Generated by IcoMoon.io -->
<!DOCTYPE svg PUBLIC "-//W3C//DTD SVG 1.1//EN" "http://www.w3.org/Graphics/SVG/1.1/DTD/svg11.dtd">
<svg version="1.1" xmlns="http://www.w3.org/2000/svg" xmlns:xlink="http://www.w3.org/1999/xlink" width="100" height="100" viewBox="0 0 100 100">
<path d="M95.9 63.3l-13.4-13.4 13.3-13.3c1.2-1.3 1.2-3.2 0-4.5s-3.2-1.2-4.5 0l-13.3 13.3-13.2-13.3c-1.3-1.2-3.3-1.2-4.5 0s-1.2 3.2 0 4.5l13.3 13.3-13.4 13.4c-1.2 1.2-1.2 3.2 0 4.5s3.2 1.2 4.5 0l13.3-13.5 13.4 13.5c1.3 1.2 3.2 1.2 4.5 0s1.2-3.3 0-4.5zM9.4 31.2c-3.4 0-6.2 2.8-6.2 6.3v25c0 3.4 2.8 6.2 6.2 6.2h12.5l31.2 18.8v-75l-31.2 18.7h-12.5zM46.9 78.1l-25-15.6h-9.3c-1.8 0-3.2-1.4-3.2-3.1v-18.8c0-1.7 1.4-3.1 3.2-3.1h9.3l25-15.6v56.2z"></path>
</svg>
