<?xml version="1.0" encoding="utf-8"?>
<!-- Generated by IcoMoon.io -->
<!DOCTYPE svg PUBLIC "-//W3C//DTD SVG 1.1//EN" "http://www.w3.org/Graphics/SVG/1.1/DTD/svg11.dtd">
<svg version="1.1" xmlns="http://www.w3.org/2000/svg" xmlns:xlink="http://www.w3.org/1999/xlink" width="100" height="100" viewBox="0 0 100 100">
<path d="M18.7 100h6.3v-15.7h-6.3v15.7zM37.5 100h6.3v-15.7h-6.3v15.7zM75 100h6.3v-15.7h-6.3v15.7zM56.2 100h6.3v-15.7h-6.3v15.7zM75.3 16.1c-4.5-9.5-14.1-16.1-25.3-16.1-12.4 0-22.8 8.1-26.6 19.2-13.2 2.2-23.4 13.7-23.4 27.7 0 15.5 12.6 28.1 28.1 28.1h43.8v-0.2c15.6-0.8 28.1-13.6 28.1-29.5 0-14.7-10.7-26.8-24.7-29.2zM71.9 68.6v0.1h-43.8c-12.1 0-21.9-9.8-21.9-21.8 0-12.1 9.8-21.9 21.9-21.9 0.1 0 0.2 0 0.3 0 1.6-10.6 10.6-18.8 21.6-18.8 9.9 0 18.2 6.7 20.9 15.7 12.7 0.3 22.8 10.6 22.8 23.4 0 12.4-9.6 22.5-21.8 23.3z"></path>
</svg>
