<?xml version="1.0" encoding="utf-8"?>
<!-- Generated by IcoMoon.io -->
<!DOCTYPE svg PUBLIC "-//W3C//DTD SVG 1.1//EN" "http://www.w3.org/Graphics/SVG/1.1/DTD/svg11.dtd">
<svg version="1.1" xmlns="http://www.w3.org/2000/svg" xmlns:xlink="http://www.w3.org/1999/xlink" width="100" height="100" viewBox="0 0 100 100">
<path d="M75.3 16.1c-4.5-9.5-14.1-16.1-25.3-16.1-12.4 0-22.8 8.1-26.6 19.2-13.2 2.3-23.4 13.7-23.4 27.7 0 14.4 11 26.2 25 27.8v-6.3c-10.6-1.5-18.8-10.5-18.8-21.5 0-12.1 9.8-21.9 21.9-21.9 0.1 0 0.2 0 0.3 0 1.6-10.6 10.6-18.7 21.6-18.7 9.9 0 18.2 6.6 20.9 15.6 12.7 0.3 22.8 10.7 22.8 23.4 0 11.3-8 20.8-18.7 23v6.2c14.1-2.2 25-14.4 25-29.2 0-14.7-10.7-26.8-24.7-29.2zM59.2 74c-0.1-0.2-0.2-0.4-0.3-0.6-0.1-0.1-0.2-0.3-0.3-0.4-0.2-0.2-0.4-0.3-0.6-0.5-0.1-0.1-0.1-0.1-0.2-0.2 0 0-0.1 0-0.1 0-0.3-0.2-0.5-0.2-0.8-0.3-0.1 0-0.3-0.1-0.4-0.1s-0.2 0-0.2 0h-10.3l9.8-17.2c0.9-1.5 0.4-3.4-1.1-4.3-1.5-0.8-3.4-0.3-4.3 1.2l-12.5 21.8c0 0.1 0 0.2-0.1 0.3s-0.1 0.2-0.1 0.4c-0.1 0.2-0.2 0.5-0.2 0.7 0 0.1 0 0.1 0 0.2s0.1 0.3 0.1 0.4c0 0.2 0 0.4 0.1 0.5 0.1 0.3 0.2 0.5 0.3 0.7 0.1 0.1 0.1 0.2 0.2 0.4 0.2 0.2 0.4 0.4 0.7 0.5 0 0.1 0.1 0.1 0.2 0.2 0 0 0 0 0.1 0 0.2 0.2 0.5 0.2 0.8 0.3 0.1 0 0.2 0.1 0.4 0.1 0.1 0 0.1 0 0.2 0h10.3l-9.9 17.2c-0.8 1.5-0.3 3.4 1.2 4.3 1.5 0.8 3.4 0.3 4.3-1.2l12.5-21.8c0-0.1 0-0.2 0-0.3 0.1-0.1 0.1-0.3 0.2-0.4 0.1-0.2 0.1-0.5 0.1-0.7 0-0.1 0.1-0.1 0.1-0.2s-0.1-0.3-0.1-0.4c0-0.2-0.1-0.4-0.1-0.6z"></path>
</svg>
