<?xml version="1.0" encoding="utf-8"?>
<!-- Generated by IcoMoon.io -->
<!DOCTYPE svg PUBLIC "-//W3C//DTD SVG 1.1//EN" "http://www.w3.org/Graphics/SVG/1.1/DTD/svg11.dtd">
<svg version="1.1" xmlns="http://www.w3.org/2000/svg" xmlns:xlink="http://www.w3.org/1999/xlink" width="100" height="100" viewBox="0 0 100 100">
<path d="M62.5 3.1c-13.9 0-25.9 7.7-32.4 19-0.7-0.1-1.3-0.2-2-0.2-15.5 0-28.1 12.6-28.1 28.1 0 14.5 11 26.2 25 27.8v-6.2c-10.6-1.6-18.8-10.6-18.8-21.6 0-12.1 9.8-21.9 21.9-21.9 1.9 0 3.7 0.3 5.5 0.8 4.6-11.4 15.8-19.5 28.9-19.5 17.3 0 31.2 14 31.2 31.2 0 12.8-7.7 23.8-18.7 28.6v6.6c14.5-5.1 25-18.9 25-35.2 0-20.7-16.8-37.5-37.5-37.5zM59.2 70.9c-0.1-0.2-0.2-0.4-0.3-0.6s-0.2-0.3-0.3-0.4-0.4-0.4-0.6-0.5c-0.1-0.1-0.1-0.2-0.2-0.2 0 0-0.1 0-0.1-0.1-0.3-0.1-0.5-0.2-0.8-0.2-0.1 0-0.3-0.1-0.4-0.1s-0.2-0.1-0.2-0.1h-10.3l9.8-17.1c0.9-1.5 0.4-3.4-1.1-4.3s-3.4-0.3-4.3 1.2l-12.5 21.8c0 0.1 0 0.1-0.1 0.2-0.1 0.2-0.1 0.3-0.1 0.5-0.1 0.2-0.2 0.4-0.2 0.7 0 0 0 0.1 0 0.2s0.1 0.2 0.1 0.4c0 0.2 0 0.3 0.1 0.5 0.1 0.3 0.2 0.5 0.3 0.7 0.1 0.1 0.1 0.2 0.2 0.3 0.2 0.3 0.4 0.4 0.6 0.6 0.1 0 0.2 0.1 0.3 0.2 0 0 0 0 0.1 0 0.2 0.1 0.5 0.2 0.7 0.3 0.2 0 0.3 0 0.5 0.1 0.1 0 0.1 0 0.2 0h10.3l-9.9 17.1c-0.8 1.5-0.3 3.5 1.2 4.3 1.5 0.9 3.4 0.4 4.2-1.1l12.6-21.8c0-0.1 0-0.2 0-0.3 0.1-0.1 0.1-0.3 0.2-0.4 0.1-0.3 0.1-0.5 0.1-0.7 0-0.1 0.1-0.2 0.1-0.2 0-0.2-0.1-0.3-0.1-0.4 0-0.2-0.1-0.4-0.1-0.6z"></path>
</svg>
