<?xml version="1.0" encoding="utf-8"?>
<!-- Generated by IcoMoon.io -->
<!DOCTYPE svg PUBLIC "-//W3C//DTD SVG 1.1//EN" "http://www.w3.org/Graphics/SVG/1.1/DTD/svg11.dtd">
<svg version="1.1" xmlns="http://www.w3.org/2000/svg" xmlns:xlink="http://www.w3.org/1999/xlink" width="100" height="100" viewBox="0 0 100 100">
<path d="M50 100c8.8 0 17-2.3 24.2-6.3h-48.4c7.2 4 15.4 6.3 24.2 6.3zM8.3 62.5c-1.2-4-2.1-8.1-2.1-12.5 0-24.2 19.6-43.8 43.8-43.8s43.7 19.6 43.7 43.8c0 4.4-0.8 8.5-2 12.5h6.7c1-4 1.6-8.2 1.6-12.5 0-27.6-22.4-50-50-50s-50 22.4-50 50c0 4.3 0.6 8.5 1.6 12.5h6.7zM9.4 87.5h81.2v-6.3h-81.2v6.3zM0 75h100v-6.3h-100v6.3z"></path>
</svg>
