<?xml version="1.0" encoding="utf-8"?>
<!-- Generated by IcoMoon.io -->
<!DOCTYPE svg PUBLIC "-//W3C//DTD SVG 1.1//EN" "http://www.w3.org/Graphics/SVG/1.1/DTD/svg11.dtd">
<svg version="1.1" xmlns="http://www.w3.org/2000/svg" xmlns:xlink="http://www.w3.org/1999/xlink" width="100" height="100" viewBox="0 0 100 100">
<path d="M15.6 46.9h-12.5v6.2h12.5v-6.2zM14.6 80.9l4.5 4.4 8.8-8.8-4.4-4.4-8.9 8.8zM27.9 23.5l-8.8-8.9-4.5 4.5 8.9 8.8 4.4-4.4zM85.4 19.1l-4.5-4.5-8.8 8.9 4.4 4.4 8.9-8.8zM53.1 3.1h-6.2v12.5h6.2v-12.5zM46.9 96.9h6.2v-12.5h-6.2v12.5zM84.4 46.9v6.2h12.5v-6.2h-12.5zM72.1 76.5l8.8 8.8 4.4-4.4-8.8-8.8-4.4 4.4zM50 21.9c-15.5 0-28.1 12.6-28.1 28.1s12.6 28.1 28.1 28.1 28.1-12.6 28.1-28.1c0-15.5-12.6-28.1-28.1-28.1zM50 71.8c-12.1 0-21.8-9.7-21.8-21.8s9.7-21.8 21.8-21.8 21.8 9.7 21.8 21.8c0 12.1-9.7 21.8-21.8 21.8z"></path>
</svg>
