<?xml version="1.0" encoding="utf-8"?>
<!-- Generated by IcoMoon.io -->
<!DOCTYPE svg PUBLIC "-//W3C//DTD SVG 1.1//EN" "http://www.w3.org/Graphics/SVG/1.1/DTD/svg11.dtd">
<svg version="1.1" xmlns="http://www.w3.org/2000/svg" xmlns:xlink="http://www.w3.org/1999/xlink" width="100" height="100" viewBox="0 0 100 100">
<path d="M21.9 46.9h-18.8v6.2h18.8v-6.2zM53.1 3.1h-6.2v18.8h6.2v-18.8zM85.3 19.1l-4.4-4.5-8.8 8.9 4.4 4.4 8.8-8.8zM14.6 80.9l4.5 4.5 8.8-8.9-4.4-4.4-8.9 8.8zM14.6 19.1l8.9 8.8 4.4-4.4-8.8-8.9-4.5 4.5zM50 28.1c-12.1 0-21.9 9.8-21.9 21.9s9.8 21.9 21.9 21.9c12.1 0 21.9-9.8 21.9-21.9s-9.8-21.9-21.9-21.9zM50 65.7c-8.7 0-15.7-7.1-15.7-15.7 0-8.7 7.1-15.7 15.7-15.7s15.7 7 15.7 15.7c0 8.6-7.1 15.7-15.7 15.7zM78.1 46.9v6.2h18.8v-6.2h-18.8zM72.1 76.5l8.8 8.9 4.4-4.5-8.8-8.8-4.4 4.4zM46.9 96.9h6.2v-18.8h-6.2v18.8z"></path>
</svg>
