<?xml version="1.0" encoding="utf-8"?>
<!-- Generated by IcoMoon.io -->
<!DOCTYPE svg PUBLIC "-//W3C//DTD SVG 1.1//EN" "http://www.w3.org/Graphics/SVG/1.1/DTD/svg11.dtd">
<svg version="1.1" xmlns="http://www.w3.org/2000/svg" xmlns:xlink="http://www.w3.org/1999/xlink" width="100" height="100" viewBox="0 0 100 100">
<path d="M71.9 28.1h-43.8v6.3h43.8v-6.3zM90.6 28.1c0-10.3-8.4-18.7-18.7-18.7v6.2c6.9 0 12.5 5.6 12.5 12.5s-5.6 12.5-12.5 12.5h-56.3v6.3h56.3c10.3 0 18.7-8.4 18.7-18.8zM71.9 53.1h-62.5v6.3h62.5c6.9 0 12.5 5.6 12.5 12.5s-5.6 12.5-12.5 12.5h-6.3v6.2h6.3c10.3 0 18.7-8.4 18.7-18.7s-8.4-18.8-18.7-18.8zM46.9 65.6h-25v6.3h25c3.4 0 6.2 2.8 6.2 6.2s-2.8 6.3-6.2 6.3v6.2c6.9 0 12.5-5.6 12.5-12.5s-5.6-12.5-12.5-12.5z"></path>
</svg>
