<?xml version="1.0" encoding="utf-8"?>
<!-- Generated by IcoMoon.io -->
<!DOCTYPE svg PUBLIC "-//W3C//DTD SVG 1.1//EN" "http://www.w3.org/Graphics/SVG/1.1/DTD/svg11.dtd">
<svg version="1.1" xmlns="http://www.w3.org/2000/svg" xmlns:xlink="http://www.w3.org/1999/xlink" width="100" height="100" viewBox="0 0 100 100">
<path d="M50 50c0-22 16.3-40.2 37.5-43.3-7.4-4.2-15.9-6.7-25-6.7-27.6 0-50 22.4-50 50s22.4 50 50 50c9.1 0 17.6-2.5 25-6.7-21.2-3.1-37.5-21.3-37.5-43.3zM62.5 93.7c-24.1 0-43.8-19.6-43.8-43.7s19.7-43.8 43.8-43.8c2.1 0 4.2 0.2 6.3 0.5-15 8.7-25.1 25.1-25.1 43.3s10.1 34.5 25.1 43.3c-2.1 0.3-4.2 0.4-6.3 0.4z"></path>
</svg>
