<?xml version="1.0" encoding="utf-8"?>
<!-- Generated by IcoMoon.io -->
<!DOCTYPE svg PUBLIC "-//W3C//DTD SVG 1.1//EN" "http://www.w3.org/Graphics/SVG/1.1/DTD/svg11.dtd">
<svg version="1.1" xmlns="http://www.w3.org/2000/svg" xmlns:xlink="http://www.w3.org/1999/xlink" width="100" height="100" viewBox="0 0 100 100">
<path d="M74.5 46.8c10.6 0 19.2-8.4 19.2-18.7 0-10.2-8.3-18.5-18.8-18.7v6.2c6.9 0.3 12.4 5.7 12.4 12.5s-5.5 12.2-12.4 12.4v0.1h-56.1v6.2h55.7zM75 28.1h-43.8v6.2h43.8v-6.2zM12.5 71.8h37.4v-6.2h-37.4v6.2zM74.5 53.1h-68.3v6.3h25v-0.1h43.3c7.1 0 12.8 5.6 12.8 12.5s-5.7 12.5-12.8 12.5h-5.7v6.3h5.7c10.6 0 19.2-8.4 19.2-18.8 0-10.3-8.6-18.7-19.2-18.7z"></path>
</svg>
