<?xml version="1.0" encoding="utf-8"?>
<!-- Generated by IcoMoon.io -->
<!DOCTYPE svg PUBLIC "-//W3C//DTD SVG 1.1//EN" "http://www.w3.org/Graphics/SVG/1.1/DTD/svg11.dtd">
<svg version="1.1" xmlns="http://www.w3.org/2000/svg" xmlns:xlink="http://www.w3.org/1999/xlink" width="100" height="100" viewBox="0 0 100 100">
<path d="M65 22.1c-5.7-11.2-17.2-19-30.6-19-19 0-34.4 15.4-34.4 34.4 0 6 1.6 11.6 4.3 16.5-2.7 4.3-4.3 9.3-4.3 14.7 0 15.6 12.6 28.2 28.1 28.2h34.4c20.7 0 37.5-16.8 37.5-37.5 0-19.9-15.5-36-35-37.3zM34.4 9.4c9.9 0 18.6 5.1 23.6 12.9-12 1.5-22.2 8.6-28 18.5-0.6 0-1.2-0.2-1.9-0.2-7.6 0-14.4 3.1-19.5 7.9-1.5-3.3-2.4-7.1-2.4-11 0-15.5 12.6-28.1 28.2-28.1zM68.7 90v0.6h-43.7v-0.3c-10.6-1.5-18.8-10.5-18.8-21.6 0-12 9.8-21.8 21.9-21.8 1.9 0 3.7 0.3 5.5 0.7 4.6-11.4 15.8-19.5 28.9-19.5 17.3 0 31.2 14 31.2 31.3 0 15.1-10.7 27.7-25 30.6z"></path>
</svg>
