<?xml version="1.0" encoding="utf-8"?>
<!-- Generated by IcoMoon.io -->
<!DOCTYPE svg PUBLIC "-//W3C//DTD SVG 1.1//EN" "http://www.w3.org/Graphics/SVG/1.1/DTD/svg11.dtd">
<svg version="1.1" xmlns="http://www.w3.org/2000/svg" xmlns:xlink="http://www.w3.org/1999/xlink" width="100" height="100" viewBox="0 0 100 100">
<path d="M19.4 27.5l-8.8-8.8-4.4 4.4 8.8 8.8 4.4-4.4zM53.1 3.1h-6.2v12.5h6.2v-12.5zM93.8 23.1l-4.4-4.4-8.8 8.8 4.4 4.4 8.8-8.8zM18.7 59.4c0-17.3 14-31.3 31.3-31.3s31.3 14 31.3 31.3h6.2c0-20.7-16.8-37.5-37.5-37.5s-37.5 16.8-37.5 37.5h6.2zM0 65.6v6.3h100v-6.3h-100zM6.2 84.4h87.5v-6.3h-87.5v6.3zM15.6 96.9h68.8v-6.3h-68.8v6.3z"></path>
</svg>
