<?xml version="1.0" encoding="utf-8"?>
<!-- Generated by IcoMoon.io -->
<!DOCTYPE svg PUBLIC "-//W3C//DTD SVG 1.1//EN" "http://www.w3.org/Graphics/SVG/1.1/DTD/svg11.dtd">
<svg version="1.1" xmlns="http://www.w3.org/2000/svg" xmlns:xlink="http://www.w3.org/1999/xlink" width="100" height="100" viewBox="0 0 100 100">
<path d="M85.5 75c-21 0-38-16.8-38-37.5 0-12.5 6.2-23.4 15.7-30.2-3.1-0.7-6.2-1.1-9.4-1.1-24.5 0-44.4 19.6-44.4 43.8s19.9 43.7 44.4 43.7c15.3 0 28.8-7.6 36.8-19.2-1.7 0.2-3.4 0.5-5.1 0.5zM53.8 87.5c-21 0-38.1-16.8-38.1-37.5 0-19.1 14.6-34.9 33.3-37.2-5.1 7.2-7.9 15.8-7.9 24.7 0 21 15.1 38.6 35.1 42.8-6.4 4.6-14.2 7.2-22.4 7.2z"></path>
</svg>
