<?xml version="1.0" encoding="utf-8"?>
<!-- Generated by IcoMoon.io -->
<!DOCTYPE svg PUBLIC "-//W3C//DTD SVG 1.1//EN" "http://www.w3.org/Graphics/SVG/1.1/DTD/svg11.dtd">
<svg version="1.1" xmlns="http://www.w3.org/2000/svg" xmlns:xlink="http://www.w3.org/1999/xlink" width="106" height="100" viewBox="0 0 106 100">
<path d="M43.7 59.4h-40.6v-18.8h21.9c1.7 0 3.1-1.4 3.1-3.1s-1.4-3.1-3.1-3.1h-25c-1.7 0-3.1 1.4-3.1 3.1v25c0 1.7 1.4 3.1 3.1 3.1h43.7c1.8 0 3.2-1.4 3.2-3.1s-1.4-3.1-3.2-3.1zM56.2 46.9h-18.7c-1.7 0-3.1 1.4-3.1 3.1s1.4 3.1 3.1 3.1h18.7c1.8 0 3.2-1.4 3.2-3.1s-1.4-3.1-3.2-3.1zM93.7 34.4h-43.7c-1.7 0-3.1 1.4-3.1 3.1s1.4 3.1 3.1 3.1h40.6v18.8h-21.9c-1.7 0-3.1 1.4-3.1 3.1s1.4 3.1 3.1 3.1h25c1.8 0 3.2-1.4 3.2-3.1v-25c0-1.7-1.4-3.1-3.2-3.1z"></path>
</svg>
