<?xml version="1.0" encoding="utf-8"?>
<!-- Generated by IcoMoon.io -->
<!DOCTYPE svg PUBLIC "-//W3C//DTD SVG 1.1//EN" "http://www.w3.org/Graphics/SVG/1.1/DTD/svg11.dtd">
<svg version="1.1" xmlns="http://www.w3.org/2000/svg" xmlns:xlink="http://www.w3.org/1999/xlink" width="106" height="100" viewBox="0 0 106 100">
<path d="M93.7 3.1h-93.7c-1.7 0-3.1 1.4-3.1 3.1v87.5c0 1.8 1.4 3.2 3.1 3.2h93.7c1.8 0 3.2-1.4 3.2-3.2v-87.5c0-1.7-1.4-3.1-3.2-3.1zM90.6 87.5c0 1.7-1.4 3.1-3.1 3.1h-81.3c-1.7 0-3.1-1.4-3.1-3.1v-65.6h87.5v65.6zM90.6 15.6h-87.5v-3.1c0-1.7 1.4-3.1 3.1-3.1h81.3c1.7 0 3.1 1.4 3.1 3.1v3.1z"></path>
</svg>
