<?xml version="1.0" encoding="utf-8"?>
<!-- Generated by IcoMoon.io -->
<!DOCTYPE svg PUBLIC "-//W3C//DTD SVG 1.1//EN" "http://www.w3.org/Graphics/SVG/1.1/DTD/svg11.dtd">
<svg version="1.1" xmlns="http://www.w3.org/2000/svg" xmlns:xlink="http://www.w3.org/1999/xlink" width="106" height="100" viewBox="0 0 106 100">
<path d="M78.1 56.2c-7.2 0-13.3 4.1-16.5 10.1l-27.7-12.3c0.3-1.3 0.5-2.6 0.5-4 0-0.9-0.2-1.8-0.3-2.7l28.1-12.5c3.3 5.4 9.2 8.9 15.9 8.9 10.4 0 18.8-8.4 18.8-18.7 0-10.4-8.4-18.8-18.8-18.8s-18.7 8.4-18.7 18.8c0 1.4 0.1 2.7 0.4 4l-27.7 12.3c-3.1-6-9.3-10.1-16.5-10.1-10.3 0-18.7 8.4-18.7 18.8s8.4 18.7 18.7 18.7c6.8 0 12.6-3.5 15.9-8.9l28.1 12.5c-0.1 0.9-0.2 1.8-0.2 2.7 0 10.4 8.4 18.7 18.7 18.7s18.8-8.3 18.8-18.7c0-10.4-8.4-18.8-18.8-18.8zM78.1 12.5c6.9 0 12.5 5.6 12.5 12.5s-5.6 12.5-12.5 12.5c-6.9 0-12.5-5.6-12.5-12.5s5.6-12.5 12.5-12.5zM15.6 62.5c-6.9 0-12.5-5.6-12.5-12.5s5.6-12.5 12.5-12.5c6.9 0 12.5 5.6 12.5 12.5s-5.6 12.5-12.5 12.5zM78.1 87.5c-6.9 0-12.5-5.6-12.5-12.5s5.6-12.5 12.5-12.5c6.9 0 12.5 5.6 12.5 12.5s-5.6 12.5-12.5 12.5z"></path>
</svg>
