<?xml version="1.0" encoding="utf-8"?>
<!-- Generated by IcoMoon.io -->
<!DOCTYPE svg PUBLIC "-//W3C//DTD SVG 1.1//EN" "http://www.w3.org/Graphics/SVG/1.1/DTD/svg11.dtd">
<svg version="1.1" xmlns="http://www.w3.org/2000/svg" xmlns:xlink="http://www.w3.org/1999/xlink" width="106" height="100" viewBox="0 0 106 100">
<path d="M28.5 26.7c0.9 1.4 2.8 1.9 4.3 1.1s2-2.6 1.2-4l-6.3-9.9c-0.9-1.4-2.8-1.9-4.3-1.1s-2 2.6-1.1 4l6.2 9.9zM43.7 28.1c1.8 0 3.2-1.4 3.2-3.1v-12.5c0-1.7-1.4-3.1-3.2-3.1-1.7 0-3.1 1.4-3.1 3.1v12.5c0 1.7 1.4 3.1 3.1 3.1zM54.7 27.8c1.5 0.8 3.4 0.3 4.3-1.1l6.2-9.9c0.9-1.4 0.4-3.2-1.1-4s-3.4-0.3-4.3 1.1l-6.3 9.9c-0.8 1.4-0.3 3.2 1.2 4zM93.7 34.4h-43.7c-1.7 0-3.1 1.4-3.1 3.1s1.4 3.1 3.1 3.1h40.6v18.8h-21.9c-1.7 0-3.1 1.4-3.1 3.1s1.4 3.1 3.1 3.1h25c1.8 0 3.2-1.4 3.2-3.1v-25c0-1.7-1.4-3.1-3.2-3.1zM32.8 72.2c-1.5-0.8-3.4-0.3-4.3 1.1l-6.2 9.9c-0.9 1.4-0.4 3.2 1.1 4s3.4 0.3 4.3-1.1l6.3-10c0.8-1.3 0.3-3.1-1.2-3.9zM59 73.3c-0.9-1.4-2.8-1.9-4.3-1.1s-2 2.6-1.2 3.9l6.3 10c0.9 1.4 2.8 1.9 4.3 1.1 1.4-0.8 2-2.6 1.1-4l-6.2-9.9zM43.7 71.9c-1.7 0-3.1 1.4-3.1 3.1v12.5c0 1.7 1.4 3.1 3.1 3.1 1.8 0 3.2-1.4 3.2-3.1v-12.5c0-1.7-1.4-3.1-3.2-3.1zM43.7 59.4h-40.6v-18.8h21.9c1.7 0 3.1-1.4 3.1-3.1s-1.4-3.1-3.1-3.1h-25c-1.7 0-3.1 1.4-3.1 3.1v25c0 1.7 1.4 3.1 3.1 3.1h43.7c1.8 0 3.2-1.4 3.2-3.1s-1.4-3.1-3.2-3.1z"></path>
</svg>
