<?xml version="1.0" encoding="utf-8"?>
<!-- Generated by IcoMoon.io -->
<!DOCTYPE svg PUBLIC "-//W3C//DTD SVG 1.1//EN" "http://www.w3.org/Graphics/SVG/1.1/DTD/svg11.dtd">
<svg version="1.1" xmlns="http://www.w3.org/2000/svg" xmlns:xlink="http://www.w3.org/1999/xlink" width="106" height="100" viewBox="0 0 106 100">
<path d="M14.1 12.5c-1.6 0-3.2 0.1-4.7 0.2v6.2c1-0.1 2-0.2 3.1-0.2 36.2 0 65.6 29.4 65.6 65.7 0 1-0.1 2.1-0.1 3.1h6.1c0.1-1.6 0.3-3.1 0.3-4.7 0-38.8-31.5-70.3-70.3-70.3zM9.4 62.5v6.2c10.3 0 18.7 8.4 18.7 18.8h6.3c0-13.8-11.2-25-25-25zM12.5 37.5c-1.1 0-2.1 0.1-3.1 0.1v6.2c0.5 0 1-0.1 1.5-0.1 23.3 0 42.2 18.9 42.2 42.2 0 0.6 0 1.1-0.1 1.6h6.2c0.1-1 0.2-2.1 0.2-3.1 0-25.9-21-46.9-46.9-46.9z"></path>
</svg>
