<?xml version="1.0" encoding="utf-8"?>
<!-- Generated by IcoMoon.io -->
<!DOCTYPE svg PUBLIC "-//W3C//DTD SVG 1.1//EN" "http://www.w3.org/Graphics/SVG/1.1/DTD/svg11.dtd">
<svg version="1.1" xmlns="http://www.w3.org/2000/svg" xmlns:xlink="http://www.w3.org/1999/xlink" width="106" height="100" viewBox="0 0 106 100">
<path d="M96.7 49.3c-0.1-0.6-0.3-1.1-0.7-1.5-0.1-0.1-0.1-0.1-0.2-0.1-0.2-0.2-0.4-0.4-0.7-0.5l-30.5-24.4c-1.2-1.2-3.1-1.2-4.3 0-1.2 1.1-1.2 3.1 0 4.3l24.7 19.8h-72.5c-1.7 0-3.1 1.4-3.1 3.1s1.4 3.1 3.1 3.1h72.5l-24.7 19.8c-1.2 1.2-1.2 3.1 0 4.3s3.1 1.2 4.3 0l30.5-24.4c0.3-0.2 0.5-0.3 0.7-0.5 0.1 0 0.1 0 0.2-0.1 0.4-0.4 0.6-0.9 0.7-1.5 0.1-0.2 0.2-0.5 0.2-0.7 0-0.3-0.1-0.5-0.2-0.7zM3.1 87.5v-75c0-1.7 1.4-3.1 3.1-3.1l40.7 10.1v-6.7l-43.8-9.7c-3.4 0-6.2 2.8-6.2 6.3v81.2c0 3.5 2.8 6.3 6.2 6.3l43.8-9.8v-6.6l-40.7 10.1c-1.7 0-3.1-1.4-3.1-3.1z"></path>
</svg>
