<?xml version="1.0" encoding="utf-8"?>
<!-- Generated by IcoMoon.io -->
<!DOCTYPE svg PUBLIC "-//W3C//DTD SVG 1.1//EN" "http://www.w3.org/Graphics/SVG/1.1/DTD/svg11.dtd">
<svg version="1.1" xmlns="http://www.w3.org/2000/svg" xmlns:xlink="http://www.w3.org/1999/xlink" width="106" height="100" viewBox="0 0 106 100">
<path d="M90.6 43.7c0-24.1-19.6-43.7-43.7-43.7s-43.8 19.6-43.8 43.7c0 18.7 11.7 34.5 28.1 40.8l-1.8 9.2h-10.7c-1.7 0-3.1 1.5-3.1 3.2s1.4 3.1 3.1 3.1h56.3c1.7 0 3.1-1.4 3.1-3.1s-1.4-3.2-3.1-3.2h-10.6l-1.9-9.2c16.4-6.3 28.1-22.1 28.1-40.8zM34.4 93.7l2.5-7.5c3.2 0.8 6.5 1.3 10 1.3 3.4 0 6.7-0.5 10-1.3l2.5 7.5h-25zM46.9 81.2c-20.7 0-37.5-16.7-37.5-37.5 0-20.7 16.8-37.5 37.5-37.5s37.5 16.8 37.5 37.5c0 20.8-16.8 37.5-37.5 37.5zM46.9 25c-10.4 0-18.8 8.4-18.8 18.7 0 10.4 8.4 18.8 18.8 18.8s18.7-8.4 18.7-18.8c0-10.3-8.4-18.7-18.7-18.7zM46.9 56.2c-6.9 0-12.5-5.6-12.5-12.5s5.6-12.5 12.5-12.5c6.9 0 12.5 5.6 12.5 12.5s-5.6 12.5-12.5 12.5z"></path>
</svg>
