<?xml version="1.0" encoding="utf-8"?>
<!-- Generated by IcoMoon.io -->
<!DOCTYPE svg PUBLIC "-//W3C//DTD SVG 1.1//EN" "http://www.w3.org/Graphics/SVG/1.1/DTD/svg11.dtd">
<svg version="1.1" xmlns="http://www.w3.org/2000/svg" xmlns:xlink="http://www.w3.org/1999/xlink" width="106" height="100" viewBox="0 0 106 100">
<path d="M20.7 25.6c-1.3-1-3.4-1-4.8 0l-17.9 19.9c-1.4 1.1-1.4 2.7 0 3.7 0.3 0.3 0.8 0.3 1.2 0.4l16.7 18.4c1.3 1 3.5 1 4.8 0 1.4-1 1.4-2.7 0-3.7l-15.8-17.4 15.8-17.6c1.4-1.1 1.4-2.7 0-3.7zM70.2 6.7c-1.5-0.9-3.4-0.4-4.3 1.1l-43.7 81.3c-0.9 1.5-0.3 3.4 1.1 4.2 1.5 0.9 3.5 0.4 4.3-1.1l43.8-81.3c0.8-1.5 0.3-3.4-1.2-4.2zM95.8 44.3c-0.5-0.3-1-0.3-1.6-0.4l-16.5-18.3c-1.4-1-3.6-1-4.9 0s-1.3 2.6 0 3.7l15.9 17.5-15.9 17.5c-1.3 1-1.3 2.7 0 3.7s3.5 1 4.9 0l18.1-20c1.3-1 1.3-2.6 0-3.7z"></path>
</svg>
