<?xml version="1.0" encoding="utf-8"?>
<!-- Generated by IcoMoon.io -->
<!DOCTYPE svg PUBLIC "-//W3C//DTD SVG 1.1//EN" "http://www.w3.org/Graphics/SVG/1.1/DTD/svg11.dtd">
<svg version="1.1" xmlns="http://www.w3.org/2000/svg" xmlns:xlink="http://www.w3.org/1999/xlink" width="106" height="100" viewBox="0 0 106 100">
<path d="M65.3 69.1c8.6-8.7 8.6-22.7 0-31.4-8.7-8.6-22.7-8.6-31.3 0-7.9 7.9-8.5 20.2-2 28.9l-22.6 22.7 4.4 4.5 22.6-22.7c8.7 6.5 21 5.9 28.9-2zM38.4 42.2c6.2-6.2 16.2-6.2 22.4 0s6.2 16.2 0 22.4-16.2 6.2-22.4 0c-6.1-6.2-6.1-16.2 0-22.4zM93.7 0h-93.7c-1.7 0-3.1 1.4-3.1 3.1v65.6h6.2v-43.7h87.5v65.6c0 1.7-1.4 3.2-3.1 3.2h-53.1v6.2h59.3c1.8 0 3.2-1.4 3.2-3.1v-93.8c0-1.7-1.4-3.1-3.2-3.1zM15.6 18.7h-12.5v-9.3c0-1.8 1.4-3.2 3.1-3.2h9.4v12.5zM90.6 18.7h-68.7v-12.5h65.6c1.7 0 3.1 1.4 3.1 3.2v9.3z"></path>
</svg>
