<?xml version="1.0" encoding="utf-8"?>
<!-- Generated by IcoMoon.io -->
<!DOCTYPE svg PUBLIC "-//W3C//DTD SVG 1.1//EN" "http://www.w3.org/Graphics/SVG/1.1/DTD/svg11.dtd">
<svg version="1.1" xmlns="http://www.w3.org/2000/svg" xmlns:xlink="http://www.w3.org/1999/xlink" width="106" height="100" viewBox="0 0 106 100">
<path d="M72.9 87.5h4.2c2.3 0 4.1-1.9 4.1-4.2v-4.1c0-2.3-1.8-4.2-4.1-4.2h-4.2c-2.3 0-4.2 1.9-4.2 4.2v4.1c0 2.3 1.9 4.2 4.2 4.2zM72.9 56.2h4.2c2.3 0 4.1-1.8 4.1-4.1v-4.2c0-2.3-1.8-4.2-4.1-4.2h-4.2c-2.3 0-4.2 1.9-4.2 4.2v4.2c0 2.3 1.9 4.1 4.2 4.1zM87.5 0h-81.3c-3.4 0-6.2 2.8-6.2 6.2v87.5c0 3.5 2.8 6.3 6.2 6.3h81.3c3.5 0 6.2-2.8 6.2-6.3v-87.5c0-3.4-2.7-6.2-6.2-6.2zM87.5 31.2h-71.9c-1.7 0-3.1 1.4-3.1 3.2 0 1.7 1.4 3.1 3.1 3.1h71.9v25h-71.9c-1.7 0-3.1 1.4-3.1 3.1s1.4 3.1 3.1 3.1h71.9v21.9c0 1.7-1.4 3.1-3.1 3.1h-75c-1.8 0-3.2-1.4-3.2-3.1v-81.2c0-1.8 1.4-3.2 3.2-3.2h75c1.7 0 3.1 1.4 3.1 3.2v21.8zM77.1 12.5h-4.2c-2.3 0-4.2 1.9-4.2 4.2v4.1c0 2.3 1.9 4.2 4.2 4.2h4.2c2.3 0 4.1-1.9 4.1-4.2v-4.1c0-2.3-1.8-4.2-4.1-4.2z"></path>
</svg>
